<?xml version="1.0" encoding="UTF-8"?><svg id="_레이어_2" xmlns="http://www.w3.org/2000/svg" viewBox="0 0 508.9195 46.5557586102"><defs><style>.cls-1{fill:#ffe800;}</style></defs><g id="Layer_1"><rect width="508.9195" height="46.5557586102"/><path class="cls-1" d="m53.4816162056,14.2452125523h3.3798828125v7.2802734375h8.7622070312v-7.2802734375h3.3803710938v17.6806640625h-3.3803710938v-7.4619140625h-8.7622070312v7.4619140625h-3.3798828125V14.2452125523Z"/><path class="cls-1" d="m77.5831787056,24.5411109898l-6.6303710938-10.2177734375v-.078125h3.9521484375l4.3681640625,6.9677734375,4.3681640625-6.9677734375h3.9521484375v.078125l-6.6303710938,10.2177734375v7.384765625h-3.3798828125v-7.384765625Z"/><path class="cls-1" d="m89.3351318306,24.3858375523v-10.140625h3.3798828125v9.90625c0,3.0166015625,1.1962890625,4.9921875,4.1342773438,4.9921875,2.912109375,0,4.1079101562-1.9755859375,4.1079101562-4.9921875v-9.90625h3.3803710938v10.140625c0,4.5498046875-2.49609375,7.904296875-7.48828125,7.904296875-5.0180664062,0-7.5141601562-3.3544921875-7.5141601562-7.904296875Z"/><path class="cls-1" d="m107.9503662056,14.2452125523h2.9643554688l9.6206054688,12.064453125v-12.064453125h3.3798828125v17.6806640625h-2.9379882812l-9.646484375-12.064453125v12.064453125h-3.3803710938V14.2452125523Z"/><path class="cls-1" d="m127.7628662056,14.2452125523h7.1499023438c5.0961914062,0,8.7885742188,3.1201171875,8.7885742188,8.8408203125,0,5.7197265625-3.6923828125,8.83984375-8.7885742188,8.83984375h-7.1499023438V14.2452125523Zm3.3798828125,2.9384765625v11.8037109375h3.587890625c3.3544921875,0,5.486328125-2.0537109375,5.486328125-5.9013671875,0-3.8486328125-2.1318359375-5.90234375-5.486328125-5.90234375h-3.587890625Z"/><path class="cls-1" d="m150.9806396431,14.2452125523h3.9780273438l6.8901367188,17.6806640625h-3.509765625l-1.4301757812-3.744140625h-7.8784179688l-1.4296875,3.744140625h-3.5102539062l6.8901367188-17.6806640625Zm-.83203125,10.998046875h5.6162109375l-2.8081054688-7.3837890625-2.8081054688,7.3837890625Z"/><path class="cls-1" d="m163.7462646431,14.2452125523h3.3803710938v17.6806640625h-3.3803710938V14.2452125523Z"/><path class="cls-1" d="m176.5646240181,14.2452125523h4.5239257812l5.2524414062,13.3388671875,5.2778320312-13.3388671875h4.5244140625v17.6806640625h-3.3803710938v-12.5068359375l-4.8881835938,12.5068359375h-3.0419921875l-4.8881835938-12.5068359375v12.5068359375h-3.3798828125V14.2452125523Z"/><path class="cls-1" d="m198.9762451118,23.0860328648c0-5.2783203125,3.7700195312-9.205078125,8.99609375-9.205078125s8.9965820312,3.9267578125,8.9965820312,9.205078125c0,5.27734375-3.7705078125,9.2041015625-8.9965820312,9.2041015625s-8.99609375-3.9267578125-8.99609375-9.2041015625Zm3.4838867188,0c0,3.431640625,2.1064453125,6.0576171875,5.5122070312,6.0576171875,3.40625,0,5.5122070312-2.6259765625,5.5122070312-6.0576171875,0-3.4326171875-2.1059570312-6.05859375-5.5122070312-6.05859375-3.4057617188,0-5.5122070312,2.6259765625-5.5122070312,6.05859375Z"/><path class="cls-1" d="m222.8448974556,17.2090797398h-5.3823242188v-2.9638671875h14.14453125v2.9638671875h-5.3823242188v14.716796875h-3.3798828125v-14.716796875Z"/><path class="cls-1" d="m232.9064208931,23.0860328648c0-5.2783203125,3.7700195312-9.205078125,8.99609375-9.205078125,5.2265625,0,8.9965820312,3.9267578125,8.9965820312,9.205078125,0,5.27734375-3.7700195312,9.2041015625-8.9965820312,9.2041015625-5.2260742188,0-8.99609375-3.9267578125-8.99609375-9.2041015625Zm3.4838867188,0c0,3.431640625,2.1059570312,6.0576171875,5.5122070312,6.0576171875s5.5122070312-2.6259765625,5.5122070312-6.0576171875c0-3.4326171875-2.1059570312-6.05859375-5.5122070312-6.05859375s-5.5122070312,2.6259765625-5.5122070312,6.05859375Z"/><path class="cls-1" d="m259.9205810493,24.7754859898h-2.8081054688v7.150390625h-3.3798828125V14.2452125523h7.8520507812c3.40625,0,5.8500976562,2.001953125,5.8500976562,5.2783203125,0,2.599609375-1.5341796875,4.39453125-3.8740234375,5.017578125l5.7202148438,7.306640625v.078125h-4.0561523438l-5.3041992188-7.150390625Zm1.3002929688-2.9375c1.7939453125,0,2.7299804688-.8583984375,2.7299804688-2.314453125s-.9360351562-2.314453125-2.7299804688-2.314453125h-4.1083984375v4.62890625h4.1083984375Z"/><path class="cls-1" d="m269.3585693306,28.2852516148l2.2099609375-2.1572265625c1.0141601562,1.5859375,2.73046875,3.1201171875,5.408203125,3.1201171875,2.1845703125,0,3.328125-1.0927734375,3.328125-2.470703125,0-1.1181640625-.7797851562-1.9755859375-2.8598632812-2.2880859375l-1.5341796875-.2333984375c-3.1201171875-.46875-5.2260742188-2.2626953125-5.2260742188-4.9921875,0-2.990234375,2.4443359375-5.3828125,6.396484375-5.3828125,2.7299804688,0,4.9658203125,1.1962890625,6.240234375,2.8603515625l-2.158203125,2.236328125c-1.0922851562-1.3525390625-2.57421875-2.0546875-4.16015625-2.0546875-1.7680664062,0-2.8081054688.9365234375-2.8081054688,2.0029296875,0,1.0390625.7797851562,1.7939453125,2.3139648438,2.02734375l1.5078125.234375c3.640625.5458984375,5.7724609375,2.3662109375,5.7724609375,5.3564453125,0,3.4052734375-2.7822265625,5.74609375-6.8642578125,5.74609375s-6.318359375-2.1064453125-7.56640625-4.0048828125Z"/><path class="cls-1" d="m289.9767333931,17.2090797398h-5.3823242188v-2.9638671875h14.14453125v2.9638671875h-5.3823242188v14.716796875h-3.3798828125v-14.716796875Z"/><path class="cls-1" d="m300.8439208931,24.3858375523v-10.140625h3.3803710938v9.90625c0,3.0166015625,1.1958007812,4.9921875,4.1342773438,4.9921875,2.912109375,0,4.1079101562-1.9755859375,4.1079101562-4.9921875v-9.90625h3.3803710938v10.140625c0,4.5498046875-2.49609375,7.904296875-7.48828125,7.904296875-5.0185546875,0-7.5146484375-3.3544921875-7.5146484375-7.904296875Z"/><path class="cls-1" d="m319.4601318306,14.2452125523h7.150390625c5.0961914062,0,8.7885742188,3.1201171875,8.7885742188,8.8408203125,0,5.7197265625-3.6923828125,8.83984375-8.7885742188,8.83984375h-7.150390625V14.2452125523Zm3.3803710938,2.9384765625v11.8037109375h3.5883789062c3.3540039062,0,5.4858398438-2.0537109375,5.4858398438-5.9013671875,0-3.8486328125-2.1318359375-5.90234375-5.4858398438-5.90234375h-3.5883789062Z"/><path class="cls-1" d="m338.2833740181,14.2452125523h3.3803710938v17.6806640625h-3.3803710938V14.2452125523Z"/><path class="cls-1" d="m344.4982177681,23.0860328648c0-5.2783203125,3.7700195312-9.205078125,8.99609375-9.205078125,5.2265625,0,8.9965820312,3.9267578125,8.9965820312,9.205078125,0,5.27734375-3.7700195312,9.2041015625-8.9965820312,9.2041015625-5.2260742188,0-8.99609375-3.9267578125-8.99609375-9.2041015625Zm3.4838867188,0c0,3.431640625,2.1059570312,6.0576171875,5.5122070312,6.0576171875s5.5122070312-2.6259765625,5.5122070312-6.0576171875c0-3.4326171875-2.1059570312-6.05859375-5.5122070312-6.05859375s-5.5122070312,2.6259765625-5.5122070312,6.05859375Z"/><path class="cls-1" d="m370.9132568306,14.2452125523h7.306640625c3.5620117188,0,5.7719726562,1.7421875,5.7719726562,4.7060546875,0,1.4560546875-.7280273438,2.73046875-2.0278320312,3.5361328125,1.9760742188.6240234375,3.3540039062,2.001953125,3.3540039062,4.39453125,0,3.1982421875-2.2358398438,5.0439453125-6.3442382812,5.0439453125h-8.060546875V14.2452125523Zm6.8642578125,7.2802734375c1.9765625,0,2.73046875-.8837890625,2.73046875-2.236328125,0-1.3515625-.75390625-2.236328125-2.73046875-2.236328125h-3.4838867188v4.47265625h3.4838867188Zm1.06640625,7.591796875c2.0537109375,0,2.990234375-.8837890625,2.990234375-2.3916015625s-.9365234375-2.3916015625-2.990234375-2.3916015625h-4.5502929688v4.783203125h4.5502929688Z"/><path class="cls-1" d="m387.8136474556,24.3858375523v-10.140625h3.3803710938v9.90625c0,3.0166015625,1.1958007812,4.9921875,4.1342773438,4.9921875,2.912109375,0,4.1079101562-1.9755859375,4.1079101562-4.9921875v-9.90625h3.3803710938v10.140625c0,4.5498046875-2.49609375,7.904296875-7.48828125,7.904296875-5.0185546875,0-7.5146484375-3.3544921875-7.5146484375-7.904296875Z"/><path class="cls-1" d="m404.8429443306,28.2852516148l2.2099609375-2.1572265625c1.0141601562,1.5859375,2.73046875,3.1201171875,5.408203125,3.1201171875,2.1845703125,0,3.328125-1.0927734375,3.328125-2.470703125,0-1.1181640625-.7797851562-1.9755859375-2.8598632812-2.2880859375l-1.5341796875-.2333984375c-3.1201171875-.46875-5.2260742188-2.2626953125-5.2260742188-4.9921875,0-2.990234375,2.4443359375-5.3828125,6.396484375-5.3828125,2.7299804688,0,4.9658203125,1.1962890625,6.240234375,2.8603515625l-2.158203125,2.236328125c-1.0922851562-1.3525390625-2.57421875-2.0546875-4.16015625-2.0546875-1.7680664062,0-2.8081054688.9365234375-2.8081054688,2.0029296875,0,1.0390625.7797851562,1.7939453125,2.3139648438,2.02734375l1.5078125.234375c3.640625.5458984375,5.7724609375,2.3662109375,5.7724609375,5.3564453125,0,3.4052734375-2.7822265625,5.74609375-6.8642578125,5.74609375s-6.318359375-2.1064453125-7.56640625-4.0048828125Z"/><path class="cls-1" d="m426.7101318306,14.2452125523h3.9780273438l6.8901367188,17.6806640625h-3.509765625l-1.4301757812-3.744140625h-7.8784179688l-1.4296875,3.744140625h-3.5102539062l6.8901367188-17.6806640625Zm-.83203125,10.998046875h5.6162109375l-2.8081054688-7.3837890625-2.8081054688,7.3837890625Z"/><path class="cls-1" d="m439.4757568306,14.2452125523h2.9643554688l9.6206054688,12.064453125v-12.064453125h3.3798828125v17.6806640625h-2.9379882812l-9.646484375-12.064453125v12.064453125h-3.3803710938V14.2452125523Z"/></g></svg>