<svg xmlns="http://www.w3.org/2000/svg" viewBox="0 0 150.38 48.66"><defs><style>.cls-1{fill:#231916;}</style></defs><g id="레이어_2" data-name="레이어 2"><g id="Layer_1" data-name="Layer 1"><path class="cls-1" d="M6.08,47.39h-5v-6.1h5c2.69,0,4,1.13,4,3s-1.28,3.06-4,3.06m-5-12.77H5.21c2.44,0,3.65,1.05,3.65,2.82s-1.21,2.8-3.65,2.8H1.09ZM8,40.56a3.34,3.34,0,0,0,2-3.1c0-2.38-1.57-3.89-4.72-3.89H0V48.44H6.15c3.35,0,5-1.68,5-4.11A3.67,3.67,0,0,0,8,40.56"/><path class="cls-1" d="M23.59,42.14c0,3.41-1.71,5.43-4.73,5.43s-4.73-2-4.73-5.43V33.57H13v8.7c0,3.84,2.28,6.39,5.82,6.39s5.82-2.55,5.82-6.39v-8.7H23.59Z"/><path class="cls-1" d="M32.88,40.07l-1.61-.26c-1.62-.24-2.83-1.08-2.83-2.63s1.42-2.74,3.72-2.74a4.42,4.42,0,0,1,3.9,2.08L37,35.9a5.3,5.3,0,0,0-4.79-2.55c-3.13,0-4.86,1.88-4.86,3.83s1.58,3.36,3.86,3.74l1.57.26c2,.31,3.46,1.23,3.46,3S34.76,47.57,32,47.57a5.38,5.38,0,0,1-4.95-3.09l-.89.62A6.44,6.44,0,0,0,32,48.66c3.39,0,5.31-2.06,5.31-4.51s-1.68-3.65-4.44-4.08"/><path class="cls-1" d="M40.8,43.33,44.26,35l3.46,8.31Zm2.91-9.76L37.48,48.44h1.2l1.69-4.07h7.78l1.69,4.07H51L44.81,33.57Z"/><polygon class="cls-1" points="63.67 46.56 53.47 33.57 52.49 33.57 52.49 48.44 53.58 48.44 53.58 35.45 63.77 48.44 64.76 48.44 64.76 33.57 63.67 33.57 63.67 46.56"/><path class="cls-1" d="M109.77,16.6v8.64c0,2.65-1.24,4.1-3.5,4.1-2.88,0-3.48-2.23-3.48-4.1V16.6h-3v8.81c0,4.11,2.54,6.78,6.48,6.78s6.5-2.67,6.5-6.78V16.6Z"/><polygon class="cls-1" points="33 16.6 33 19.34 37.5 19.34 37.5 31.94 40.5 31.94 40.5 19.34 45.01 19.34 45.01 16.6 33 16.6"/><path class="cls-1" d="M25.75,16.35a7.7,7.7,0,0,0-7.82,7.93,7.82,7.82,0,1,0,15.63,0,7.7,7.7,0,0,0-7.81-7.93m0,13c-2.81,0-4.76-2.08-4.76-5.06s2-5.09,4.76-5.09,4.76,2.09,4.76,5.09-2,5.06-4.76,5.06"/><polygon class="cls-1" points="16.61 16.6 13.22 16.6 13.22 16.62 13.22 16.62 8.3 27.75 3.39 16.62 3.39 16.6 0 16.6 0 31.94 2.98 31.94 2.98 22.54 7.07 31.94 9.54 31.94 13.62 22.54 13.62 31.94 16.61 31.94 16.61 16.6"/><path class="cls-1" d="M52.16,16.35a7.7,7.7,0,0,0-7.82,7.93,7.82,7.82,0,1,0,15.63,0,7.7,7.7,0,0,0-7.81-7.93m0,13c-2.81,0-4.76-2.08-4.76-5.06s2-5.09,4.76-5.09,4.76,2.09,4.76,5.09-2,5.06-4.76,5.06"/><path class="cls-1" d="M142.56,16.35a7.7,7.7,0,0,0-7.82,7.93,7.82,7.82,0,1,0,15.64,0,7.7,7.7,0,0,0-7.82-7.93m0,13a4.71,4.71,0,0,1-4.77-5.06c0-3,2-5.09,4.77-5.09s4.76,2.09,4.76,5.09-1.95,5.06-4.76,5.06"/><polygon class="cls-1" points="86.65 16.6 86.65 19.34 91.16 19.34 91.16 31.93 94.15 31.93 94.15 19.34 98.66 19.34 98.66 16.6 86.65 16.6"/><path class="cls-1" d="M81.29,22.53l-1.43-.21a3.08,3.08,0,0,1-1.35-.49,1.25,1.25,0,0,1-.54-1c0-.79.85-1.59,2.46-1.59a3.87,3.87,0,0,1,3.2,1.61l.33.45.2-.19,1.93-1.75L85.84,19a6.36,6.36,0,0,0-5.38-2.6,6.17,6.17,0,0,0-4.07,1.33,4.23,4.23,0,0,0-1.49,3.21c0,2.28,1.68,3.9,4.5,4.34l1.41.2a4.4,4.4,0,0,1,1.83.65,1.41,1.41,0,0,1,.61,1.18c0,1.27-1.14,2.08-2.9,2.08a4.68,4.68,0,0,1-4.19-2.48l-.32-.53h0l-2.2,1.92.22.36a7.26,7.26,0,0,0,6.48,3.57c3.52,0,6-2,6-5,0-2.5-1.79-4.14-5-4.65"/><path class="cls-1" d="M121,16.6h-6.1V31.94H121c4.64,0,7.64-3,7.64-7.66s-3-7.68-7.64-7.68m-.13,12.58h-3V19.36h3c3,0,4.69,1.79,4.69,4.92s-1.71,4.9-4.69,4.9"/><path class="cls-1" d="M69.84,25.48A4.27,4.27,0,0,0,73,21.21c0-2.8-2.11-4.61-5.35-4.61H61V31.94h3V25.83h2.44l4.9,6.11h3.75ZM68.51,23a4.82,4.82,0,0,1-1.07.11H64V19.34h3.4c1.64,0,2.44.6,2.44,1.88A1.65,1.65,0,0,1,68.51,23"/><rect class="cls-1" x="130.1" y="16.6" width="3.19" height="15.35"/><path class="cls-1" d="M83.13,0H80.2L73.84,15.34H77l1.41-3.45h6.39l1.43,3.45h3.2ZM79.57,9.15l2.1-5.1,2.07,5.1Z"/><polygon class="cls-1" points="55.8 0 55.8 10.16 47.66 0.07 47.61 0 45.12 0 45.12 15.34 48.12 15.34 48.12 5.19 56.26 15.28 56.3 15.34 58.79 15.34 58.79 0 55.8 0"/><rect class="cls-1" x="89.88" width="3.19" height="15.34"/><path class="cls-1" d="M74.74,7.67C74.74,3,71.74,0,67.1,0H61V15.34h6.1c4.64,0,7.64-3,7.64-7.67M64,12.58V2.76h3c3,0,4.69,1.79,4.69,4.91S70,12.58,67,12.58Z"/><polygon class="cls-1" points="3 8.97 10.38 8.97 10.38 15.34 13.38 15.34 13.38 0 10.38 0 10.38 6.24 3 6.24 3 0 0 0 0 15.34 3 15.34 3 8.97"/><path class="cls-1" d="M40,0V8.63c0,2.66-1.24,4.12-3.49,4.12C33.6,12.75,33,10.52,33,8.63V0H30V8.8c0,4.13,2.56,6.79,6.49,6.79S43,12.93,43,8.8V0Z"/><polygon class="cls-1" points="20.26 8.86 20.26 15.34 23.29 15.34 23.29 8.83 28.9 0.76 29.41 0 25.89 0 23.02 4.1 21.77 5.87 20.35 3.83 17.67 0 14.17 0 14.67 0.76 20.26 8.86"/></g></g></svg>