<?xml version="1.0" encoding="UTF-8"?><svg id="_레이어_2" xmlns="http://www.w3.org/2000/svg" viewBox="0 0 29.169921875 10.62890625"><defs><style>.cls-1{fill:#1d1d1b;}</style></defs><g id="Layer_1"><path class="cls-1" d="m0,.30078125h6.6015625v.71875H.748046875v3.966796875h5.1943359375v.7177734375H.748046875v4.056640625h5.853515625v.71875H0V.30078125Z"/><path class="cls-1" d="m8.96484375,0h.693359375l7.181640625,9.154296875V0h.7705078125v10.4794921875h-.693359375L9.7353515625,1.3251953125v9.154296875h-.7705078125V0Z"/><path class="cls-1" d="m19.8740234375,5.3896484375c0-2.888671875,2.1103515625-5.23828125,5.0146484375-5.23828125,1.9306640625,0,3.427734375.9580078125,4.28125,2.484375l-.5986328125.404296875c-.7041015625-1.302734375-2.005859375-2.140625-3.6826171875-2.140625-2.529296875,0-4.236328125,1.9462890625-4.236328125,4.490234375,0,2.544921875,1.70703125,4.4912109375,4.28125,4.4912109375,1.3623046875,0,2.724609375-.4794921875,3.48828125-1.1826171875v-2.859375h-2.9794921875v-.7177734375h3.7275390625v3.951171875c-1.123046875.9287109375-2.5751953125,1.556640625-4.236328125,1.556640625-2.94921875,0-5.0595703125-2.349609375-5.0595703125-5.2392578125Z"/></g></svg>