<?xml version="1.0" encoding="UTF-8"?><svg id="_레이어_2" xmlns="http://www.w3.org/2000/svg" viewBox="0 0 29.68359375 10.6279296875"><defs><style>.cls-1{fill:#1d1d1b;}</style></defs><g id="Layer_1"><path class="cls-1" d="m0,.224609375h7.3349609375v2.0205078125H2.3359375v2.005859375h4.265625v2.0205078125H2.3359375v2.111328125h4.9990234375v2.0205078125H0V.224609375Z"/><path class="cls-1" d="m8.8916015625.224609375h2.0361328125l5.07421875,6.31640625V.224609375h2.3349609375v10.1787109375h-2.0205078125l-5.0888671875-6.31640625v6.31640625h-2.3359375V.224609375Z"/><path class="cls-1" d="m19.7744140625,5.3134765625c0-3.0830078125,2.23046875-5.3134765625,5.2841796875-5.3134765625,2.140625,0,3.7119140625.943359375,4.625,2.41015625l-1.720703125,1.3017578125c-.62890625-.9580078125-1.4521484375-1.556640625-2.859375-1.556640625-1.78125,0-2.9189453125,1.3623046875-2.9189453125,3.158203125,0,1.796875,1.1376953125,3.1591796875,2.9189453125,3.1591796875.853515625,0,1.69140625-.1953125,2.21484375-.5244140625v-1.3623046875h-2.0654296875v-2.0205078125h4.4013671875v4.580078125c-.98828125.779296875-2.8896484375,1.482421875-4.595703125,1.482421875-3.0537109375,0-5.2841796875-2.23046875-5.2841796875-5.314453125Z"/></g></svg>