<?xml version="1.0" encoding="UTF-8"?><svg id="_레이어_2" xmlns="http://www.w3.org/2000/svg" viewBox="0 0 312.005859375 70.890007019"><defs><style>.cls-1{fill:none;stroke:#1d1d1b;stroke-width:.3000000119px;}.cls-2{fill:#2d2a26;}</style></defs><g id="Layer_1"><path class="cls-2" d="m0,3.056640625h7.6909179688v13.2622070312h14.7905273438V3.056640625h7.6909179688v33.5249023438h-7.6909179688v-13.6069335938H7.6909179688v13.6069335938H0V3.056640625Z"/><path class="cls-2" d="m34.8950195312,23.7138671875c0-6.8530273438,4.486328125-13.6069335938,13.9521484375-13.6069335938s13.9521484375,6.75390625,13.9521484375,13.6069335938-4.486328125,13.607421875-13.9521484375,13.607421875-13.9521484375-6.7543945312-13.9521484375-13.607421875Zm20.2626953125,0c0-4.2397460938-2.6127929688-7.0004882812-6.310546875-7.0004882812-3.697265625,0-6.310546875,2.7607421875-6.310546875,7.0004882812s2.61328125,7.0009765625,6.310546875,7.0009765625c3.6977539062,0,6.310546875-2.7612304688,6.310546875-7.0009765625Z"/><path class="cls-2" d="m100.9052734375,22.0869140625c0-3.5004882812-1.3310546875-5.3735351562-4.68359375-5.3735351562-2.7612304688,0-4.240234375,1.9716796875-4.7822265625,3.9931640625v15.875h-7.54296875v-14.4946289062c0-3.5004882812-1.3315429688-5.3735351562-4.6840820312-5.3735351562-2.7607421875,0-4.2397460938,1.9716796875-4.7817382812,3.9931640625v15.875h-7.5434570312V10.7475585938h7.5434570312v3.3525390625c1.3803710938-2.3168945312,3.8452148438-3.9931640625,7.6909179688-3.9931640625,4.1411132812,0,6.7045898438,1.82421875,8.0361328125,4.68359375,1.9716796875-3.1059570312,4.5849609375-4.68359375,8.97265625-4.68359375,6.7543945312,0,9.3178666366,4.8315429688,9.3178666366,11.19140625v15.283203125h-7.5429642928v-14.4946289062Z"/><path class="cls-2" d="m112.3813476562,23.7631835938c0-8.1840820312,5.6206054688-13.65625,13.212890625-13.65625s12.423828125,5.0288085938,12.423828125,12.5717773438c0,.9365234375-.1479492188,2.3662109375-.2465820312,3.1059570312h-17.9458007812c.591796875,2.9580078125,2.6625976562,5.078125,6.9516601562,5.078125,2.9580078125,0,5.3247070312-1.7255859375,6.6064453125-3.3525390625l3.9931640625,4.9794921875c-2.3168945312,2.5634765625-6.0639648438,4.7822265625-10.994140625,4.7822265625-8.6767578125,0-14.0014648438-6.1137695312-14.0014648438-13.5087890625Zm7.6909179688-3.451171875h10.6494140625c-.2958984375-2.7114257812-2.1694335938-4.1411132812-5.1274414062-4.1411132812-2.7607421875,0-4.68359375,1.3803710938-5.5219726562,4.1411132812Z"/><path class="cls-2" d="m150.8798828125,29.8764648438l4.880859375-4.9794921875c1.9223632812,2.8598632812,5.1279296875,5.6206054688,10.0087890625,5.6206054688,3.451171875,0,5.2744140625-1.626953125,5.2744140625-3.7470703125,0-1.5283203125-.837890625-3.0073242188-4.68359375-3.5498046875l-2.6621152279-.3940429688c-6.2119082096-.8876953125-10.3041933658-4.486328125-10.3041933658-9.8110351562,0-6.11328125,4.8325195312-10.6982421875,12.4741210938-10.6982421875,5.2255859375,0,9.61328125,2.2182617188,12.1767578125,5.32421875l-4.732421875,5.1274414062c-2.0712890625-2.267578125-4.7333984375-3.6484375-7.5927734375-3.6484375-2.7607421875,0-4.3876953125,1.4790039062-4.3876953125,3.056640625,0,1.4794921875,1.1337890625,2.7612304688,3.7470703125,3.1552734375l2.662109375.39453125c7.099609375,1.0356445312,11.240234375,4.6342773438,11.240234375,10.5014648438,0,6.7045898438-5.6201171875,11.0927734375-13.3603515625,11.0927734375-7.9873046875,0-12.2763671875-3.9443359375-14.7412109375-7.4448242188Z"/><path class="cls-2" d="m184.3759765625,26.1298828125v-9.4165039062h-4.1904296875v-5.9658203125h4.4365234375v-6.5078125h7.296875v6.5078125h5.669921875v5.9658203125h-5.669921875v9.8598632812c0,2.9580078125,1.4794921875,4.04296875,4.240234375,4.04296875h1.4296875v5.9653320312c-.986328125.197265625-2.267578125.3452148438-3.3037109375.3452148438-6.556640625,0-9.9091796875-3.25390625-9.9091796875-10.796875Z"/><path class="cls-2" d="m199.9375,23.7138671875c0-6.8530273438,4.486328125-13.6069335938,13.9521484375-13.6069335938s13.9521484375,6.75390625,13.9521484375,13.6069335938-4.486328125,13.607421875-13.9521484375,13.607421875-13.9521484375-6.7543945312-13.9521484375-13.607421875Zm20.2626953125,0c0-4.2397460938-2.61328125-7.0004882812-6.310546875-7.0004882812-3.6982421875,0-6.310546875,2.7607421875-6.310546875,7.0004882812s2.6123046875,7.0009765625,6.310546875,7.0009765625c3.697265625,0,6.310546875-2.7612304688,6.310546875-7.0009765625Z"/><path class="cls-2" d="m231.9296875,10.7475585938h7.54296875v3.6977539062c1.4794921875-2.7114257812,3.845703125-4.3383789062,6.90234375-4.3383789062h.8876953125v7.0991210938c-3.5498046875,0-6.6064453125.7397460938-7.7900390625,4.5356445312v14.83984375h-7.54296875V10.7475585938Z"/><path class="cls-2" d="m250.12890625,0h7.54296875v7.3461914062h-7.54296875V0Zm0,10.7475585938h7.54296875v25.833984375h-7.54296875V10.7475585938Z"/><path class="cls-2" d="m261.7666015625,23.7631835938c0-8.1840820312,5.6201171875-13.65625,13.212890625-13.65625,7.591796875,0,12.423828125,5.0288085938,12.423828125,12.5717773438,0,.9365234375-.1484375,2.3662109375-.24609375,3.1059570312h-17.9462890625c.591796875,2.9580078125,2.662109375,5.078125,6.9521484375,5.078125,2.9580078125,0,5.32421875-1.7255859375,6.60546875-3.3525390625l3.994140625,4.9794921875c-2.3173828125,2.5634765625-6.0644619336,4.7822265625-10.994140625,4.7822265625-8.677734375,0-14.001953125-6.1137695312-14.001953125-13.5087890625Zm7.69140625-3.451171875h10.6484375c-.2958984375-2.7114257812-2.1689453125-4.1411132812-5.126953125-4.1411132812-2.7607421875,0-4.68359375,1.3803710938-5.521484375,4.1411132812Z"/><path class="cls-2" d="m289.42578125,32.5390625l3.89453125-4.7822265625c1.7255859375,1.9716796875,4.5361328125,3.5493164062,7.345703125,3.5493164062,2.3662109375,0,3.845703125-.8872070312,3.845703125-2.2182617188,0-1.4296875-1.232421875-1.8735351562-3.25390625-2.21875l-2.3662109375-.39453125c-4.9306640625-.837890625-7.740234375-3.697265625-7.740234375-7.9868164062,0-4.7329101562,4.0419921875-8.380859375,10.6982421875-8.380859375,4.1416015625,0,7.2470703125,1.6762695312,9.1201171875,3.7465820312l-3.74609375,4.7822265625c-1.626953125-1.5776367188-3.5009765625-2.5141601562-5.7197265625-2.5141601562-1.873046875,0-2.859375.7885742188-2.859375,1.9228515625,0,.9365234375.6416015625,1.5283203125,2.1201171875,1.7749023438l2.3662109375.3940429688c6.064453125.9370117188,8.875,3.7963867188,8.875,8.3813476562,0,4.7329101562-4.04296875,8.7265625-11.6357421875,8.7265625-4.7822265625,0-8.4794921875-2.0708007812-10.9443359375-4.7822265625Z"/><line class="cls-1" x1="156.7208021211" y1="59.8070068359" x2="156.7208021211" y2="70.890007019"/></g></svg>