<?xml version="1.0" encoding="UTF-8"?><svg id="_레이어_2" xmlns="http://www.w3.org/2000/svg" viewBox="0 0 508.9195 46.5557586102"><defs><style>.cls-1{fill:#ffe800;}</style></defs><g id="Layer_1"><rect x="0" width="508.9195" height="46.5557586102"/><path class="cls-1" d="m34.3710517879,14.2461891148h3.3803710938v7.2802734375h8.7622070312v-7.2802734375h3.3803710938v17.6806640625h-3.3803710938v-7.4619140625h-8.7622070312v7.4619140625h-3.3803710938V14.2461891148Z"/><path class="cls-1" d="m58.4731025691,24.5430641148l-6.6303710938-10.21875v-.078125h3.9521484375l4.3681640625,6.96875,4.3681640625-6.96875h3.9521484375v.078125l-6.6298828125,10.21875v7.3837890625h-3.3803710938v-7.3837890625Z"/><path class="cls-1" d="m70.2245674129,24.3868141148v-10.140625h3.3803710938v9.90625c0,3.0166015625,1.1958007812,4.9921875,4.1342773438,4.9921875,2.912109375,0,4.1079101562-1.9755859375,4.1079101562-4.9921875v-9.90625h3.3803710938v10.140625c0,4.5498046875-2.49609375,7.904296875-7.48828125,7.904296875-5.0185546875,0-7.5146484375-3.3544921875-7.5146484375-7.904296875Z"/><path class="cls-1" d="m88.8407783504,14.2461891148h2.9638671875l9.6201171875,12.064453125v-12.064453125h3.3803710938v17.6806640625h-2.9379882812l-9.646484375-12.064453125v12.064453125h-3.3798828125V14.2461891148Z"/><path class="cls-1" d="m108.6523017879,14.2461891148h7.150390625c5.0961914062,0,8.7885742188,3.1201171875,8.7885742188,8.83984375,0,5.720703125-3.6923828125,8.8408203125-8.7885742188,8.8408203125h-7.150390625V14.2461891148Zm3.3803710938,2.9384765625v11.8037109375h3.5883789062c3.3540039062,0,5.4858398438-2.0537109375,5.4858398438-5.90234375,0-3.84765625-2.1318359375-5.9013671875-5.4858398438-5.9013671875h-3.5883789062Z"/><path class="cls-1" d="m131.8705635066,14.2461891148h3.9780273438l6.890625,17.6806640625h-3.5102539062l-1.4301757812-3.744140625h-7.8784179688l-1.4301757812,3.744140625h-3.509765625l6.8901367188-17.6806640625Zm-.83203125,10.998046875h5.6162109375l-2.8081054688-7.3837890625-2.8081054688,7.3837890625Z"/><path class="cls-1" d="m144.6366767879,14.2461891148h3.3798828125v17.6806640625h-3.3798828125V14.2461891148Z"/><path class="cls-1" d="m157.4540596004,14.2461891148h4.5244140625l5.251953125,13.3388671875,5.2783203125-13.3388671875h4.5244140625v17.6806640625h-3.3803710938v-12.5068359375l-4.8881835938,12.5068359375h-3.0419921875l-4.8881835938-12.5068359375v12.5068359375h-3.3803710938V14.2461891148Z"/><path class="cls-1" d="m179.8661689754,23.0860328648c0-5.27734375,3.7700195312-9.2041015625,8.99609375-9.2041015625,5.2265625,0,8.9965820312,3.9267578125,8.9965820312,9.2041015625,0,5.2783203125-3.7700195312,9.205078125-8.9965820312,9.205078125-5.2260742188,0-8.99609375-3.9267578125-8.99609375-9.205078125Zm3.4838867188,0c0,3.4326171875,2.1059570312,6.05859375,5.5122070312,6.05859375s5.5122070312-2.6259765625,5.5122070312-6.05859375c0-3.431640625-2.1059570312-6.0576171875-5.5122070312-6.0576171875s-5.5122070312,2.6259765625-5.5122070312,6.0576171875Z"/><path class="cls-1" d="m203.7343330379,17.2100563023h-5.3818359375v-2.9638671875h14.14453125v2.9638671875h-5.3823242188v14.716796875h-3.3803710938v-14.716796875Z"/><path class="cls-1" d="m213.7963447566,23.0860328648c0-5.27734375,3.7700195312-9.2041015625,8.99609375-9.2041015625s8.9965820312,3.9267578125,8.9965820312,9.2041015625c0,5.2783203125-3.7705078125,9.205078125-8.9965820312,9.205078125s-8.99609375-3.9267578125-8.99609375-9.205078125Zm3.4838867188,0c0,3.4326171875,2.1064453125,6.05859375,5.5122070312,6.05859375,3.40625,0,5.5122070312-2.6259765625,5.5122070312-6.05859375,0-3.431640625-2.1059570312-6.0576171875-5.5122070312-6.0576171875-3.4057617188,0-5.5122070312,2.6259765625-5.5122070312,6.0576171875Z"/><path class="cls-1" d="m240.8105049129,24.7764625523h-2.8081054688v7.150390625h-3.3803710938V14.2461891148h7.8525390625c3.40625,0,5.8500976562,2.001953125,5.8500976562,5.2783203125,0,2.599609375-1.5336914062,4.3935546875-3.8740234375,5.0185546875l5.7202148438,7.3056640625v.078125h-4.0561523438l-5.3041992188-7.150390625Zm1.2998046875-2.9384765625c1.7944335938,0,2.73046875-.857421875,2.73046875-2.3134765625s-.9360351562-2.314453125-2.73046875-2.314453125h-4.1079101562v4.6279296875h4.1079101562Z"/><path class="cls-1" d="m250.2484931941,28.2872047398l2.2104492188-2.158203125c1.013671875,1.5859375,2.7299804688,3.1201171875,5.408203125,3.1201171875,2.18359375,0,3.328125-1.0927734375,3.328125-2.470703125,0-1.1181640625-.7802734375-1.9755859375-2.8603515625-2.2880859375l-1.5341796875-.2333984375c-3.1201171875-.46875-5.2260742188-2.2626953125-5.2260742188-4.9921875,0-2.990234375,2.4438476562-5.3828125,6.3959960938-5.3828125,2.73046875,0,4.9663085938,1.1962890625,6.240234375,2.8603515625l-2.1577148438,2.236328125c-1.0922851562-1.3525390625-2.57421875-2.0546875-4.16015625-2.0546875-1.7680664062,0-2.8081054688.9365234375-2.8081054688,2.001953125,0,1.041015625.7797851562,1.794921875,2.3139648438,2.0283203125l1.5083007812.234375c3.6396484375.5458984375,5.7719726562,2.3662109375,5.7719726562,5.3564453125,0,3.40625-2.7822265625,5.74609375-6.8642578125,5.74609375s-6.318359375-2.1064453125-7.56640625-4.00390625Z"/><path class="cls-1" d="m270.8671455379,17.2100563023h-5.3823242188v-2.9638671875h14.14453125v2.9638671875h-5.3823242188v14.716796875h-3.3798828125v-14.716796875Z"/><path class="cls-1" d="m281.7343330379,24.3868141148v-10.140625h3.3803710938v9.90625c0,3.0166015625,1.1958007812,4.9921875,4.1342773438,4.9921875,2.912109375,0,4.1079101562-1.9755859375,4.1079101562-4.9921875v-9.90625h3.3803710938v10.140625c0,4.5498046875-2.49609375,7.904296875-7.48828125,7.904296875-5.0185546875,0-7.5146484375-3.3544921875-7.5146484375-7.904296875Z"/><path class="cls-1" d="m300.3495674129,14.2461891148h7.150390625c5.0961914062,0,8.7885742188,3.1201171875,8.7885742188,8.83984375,0,5.720703125-3.6923828125,8.8408203125-8.7885742188,8.8408203125h-7.150390625V14.2461891148Zm3.3803710938,2.9384765625v11.8037109375h3.5883789062c3.3540039062,0,5.4858398438-2.0537109375,5.4858398438-5.90234375,0-3.84765625-2.1318359375-5.9013671875-5.4858398438-5.9013671875h-3.5883789062Z"/><path class="cls-1" d="m319.1737861629,14.2461891148h3.3803710938v17.6806640625h-3.3803710938V14.2461891148Z"/><path class="cls-1" d="m325.3876533504,23.0860328648c0-5.27734375,3.7700195312-9.2041015625,8.99609375-9.2041015625,5.2265625,0,8.9965820312,3.9267578125,8.9965820312,9.2041015625,0,5.2783203125-3.7700195312,9.205078125-8.9965820312,9.205078125-5.2260742188,0-8.99609375-3.9267578125-8.99609375-9.205078125Zm3.4838867188,0c0,3.4326171875,2.1059570312,6.05859375,5.5122070312,6.05859375s5.5122070312-2.6259765625,5.5122070312-6.05859375c0-3.431640625-2.1059570312-6.0576171875-5.5122070312-6.0576171875s-5.5122070312,2.6259765625-5.5122070312,6.0576171875Z"/><path class="cls-1" d="m351.8036689754,14.2461891148h3.3803710938v17.6806640625h-3.3803710938V14.2461891148Z"/><path class="cls-1" d="m358.6674385066,18.5362281773h3.3022460938v1.8720703125c.7280273438-1.1962890625,2.158203125-2.18359375,4.23828125-2.18359375,3.4838867188,0,5.095703125,2.3916015625,5.095703125,5.82421875v7.8779296875h-3.3017578125v-7.5146484375c0-2.1318359375-1.0141601562-3.25-2.9643554688-3.25-1.6381835938,0-2.7299804688,1.1181640625-3.0678710938,2.33984375v8.4248046875h-3.3022460938v-13.390625Z"/><path class="cls-1" d="m373.1230049129,29.6651344273l1.7939453125-2.080078125c.8842773438,1.091796875,2.3920898438,2.001953125,3.978515625,2.001953125,1.4296875,0,2.4438476562-.572265625,2.4438476562-1.560546875,0-.8837890625-.8061523438-1.248046875-2.080078125-1.4560546875l-1.1958007812-.181640625c-2.49609375-.416015625-4.0043945312-1.7939453125-4.0043945312-3.978515625,0-2.3134765625,1.9760742188-4.185546875,5.330078125-4.185546875,2.1059570312,0,3.7182617188.8837890625,4.7065429688,2.02734375l-1.7421875,2.1064453125c-.8583984375-.91015625-1.8720703125-1.4296875-3.0942382812-1.4296875-1.248046875,0-1.8979492188.5712890625-1.8979492188,1.2998046875,0,.67578125.5200195312,1.0400390625,1.4819335938,1.1962890625l1.1958007812.181640625c3.068359375.4677734375,4.6025390625,1.8984375,4.6025390625,4.23828125,0,2.41796875-2.1064453125,4.4462890625-5.8764648438,4.4462890625-2.49609375,0-4.419921875-1.169921875-5.6420898438-2.6259765625Z"/><path class="cls-1" d="m387.6571846004,26.8047828648v-5.6162109375h-2.2358398438v-2.65234375h2.3403320312v-3.40625h3.1977539062v3.40625h3.0942382812v2.65234375h-3.0942382812v5.7724609375c0,1.7158203125.8061523438,2.3134765625,2.4702148438,2.3134765625h.6240234375v2.65234375c-.4418945312.1044921875-.98828125.15625-1.4819335938.15625-3.2504882812,0-4.9145507812-1.6123046875-4.9145507812-5.2783203125Z"/><path class="cls-1" d="m405.9877510066,30.3926734898c-.9877929688,1.1181640625-2.4438476562,1.845703125-4.1860351562,1.845703125-3.7182617188,0-6.4482421875-2.755859375-6.4482421875-6.994140625s2.7299804688-7.01953125,6.4482421875-7.01953125c1.7421875,0,3.1982421875.75390625,4.1860351562,1.8720703125v-1.560546875h3.3022460938v13.390625h-3.3022460938v-1.5341796875Zm0-3.09375v-4.1083984375c-.5981445312-1.2744140625-1.9760742188-2.0283203125-3.4580078125-2.0283203125-2.158203125,0-3.822265625,1.482421875-3.822265625,4.08203125,0,2.57421875,1.6640625,4.056640625,3.822265625,4.056640625,1.4819335938,0,2.8598632812-.75390625,3.4580078125-2.001953125Z"/><path class="cls-1" d="m411.7074775691,24.6202125523c0-3.84765625,2.3662109375-6.3955078125,6.1103515625-6.3955078125,1.7158203125,0,3.1201171875.75390625,4.0561523438,1.8720703125v-1.560546875h3.3017578125v11.1025390625c0,4.8623046875-3.4057617188,7.0986328125-7.0200195312,7.0986328125-3.2758789062,0-5.1743164062-1.248046875-6.1879882812-2.7041015625l2.001953125-2.080078125c.8837890625,1.169921875,2.0278320312,1.94921875,4.0302734375,1.94921875,1.923828125,0,3.8740234375-1.091796875,3.8740234375-4.00390625v-.7275390625c-.9360351562,1.091796875-2.3403320312,1.845703125-4.0561523438,1.845703125-3.744140625,0-6.1103515625-2.5478515625-6.1103515625-6.396484375Zm10.1665039062,1.638671875v-3.25c-.5981445312-1.22265625-1.7939453125-1.9501953125-3.25-1.9501953125-2.1845703125,0-3.5625,1.4296875-3.5625,3.5615234375,0,2.1328125,1.3779296875,3.5625,3.5625,3.5625,1.4560546875,0,2.6518554688-.7275390625,3.25-1.923828125Z"/><path class="cls-1" d="m428.2431221004,18.5362281773h3.3022460938v2.080078125c.7797851562-1.4296875,2.080078125-2.3916015625,3.8481445312-2.3916015625h.3896484375v3.1455078125c-1.9755859375.0263671875-3.587890625.5986328125-4.2377929688,2.6005859375v7.9560546875h-3.3022460938v-13.390625Z"/><path class="cls-1" d="m447.0673408504,30.3926734898c-.9877929688,1.1181640625-2.4438476562,1.845703125-4.1860351562,1.845703125-3.7182617188,0-6.4482421875-2.755859375-6.4482421875-6.994140625s2.7299804688-7.01953125,6.4482421875-7.01953125c1.7421875,0,3.1982421875.75390625,4.1860351562,1.8720703125v-1.560546875h3.3022460938v13.390625h-3.3022460938v-1.5341796875Zm0-3.09375v-4.1083984375c-.59765625-1.2744140625-1.9760742188-2.0283203125-3.4580078125-2.0283203125-2.158203125,0-3.822265625,1.482421875-3.822265625,4.08203125,0,2.57421875,1.6640625,4.056640625,3.822265625,4.056640625,1.4819335938,0,2.8603515625-.75390625,3.4580078125-2.001953125Z"/><path class="cls-1" d="m471.7675361629,24.4122047398c0-2.1318359375-.8837890625-3.25-2.8598632812-3.25-1.6640625,0-2.6259765625,1.1181640625-2.9643554688,2.33984375v8.4248046875h-3.3017578125v-7.5146484375c0-2.1318359375-.91015625-3.25-2.8603515625-3.25-1.6376953125,0-2.6259765625,1.1181640625-2.9638671875,2.33984375v8.4248046875h-3.3022460938v-13.390625h3.3022460938v1.8720703125c.7280273438-1.1962890625,2.0537109375-2.18359375,4.1337890625-2.18359375,2.2104492188,0,3.6142578125.9619140625,4.3422851562,2.5478515625.98828125-1.6123046875,2.49609375-2.5478515625,4.7841796875-2.5478515625,3.484375,0,4.9921875,2.3916015625,4.9921875,5.82421875v7.8779296875h-3.3022460938v-7.5146484375Z"/></g></svg>