<?xml version="1.0" encoding="UTF-8"?><svg id="_레이어_2" xmlns="http://www.w3.org/2000/svg" viewBox="0 0 29.984375 10.7880859375"><defs><style>.cls-1{fill:#1d1d1b;}</style></defs><g id="Layer_1"><path class="cls-1" d="m0,.154296875h.7705078125v5.9794921875L6.6728515625.154296875h1.017578125v.0615234375L3.375,4.5615234375l4.515625,6.0263671875v.0458984375h-.986328125L2.8046875,5.1474609375.7705078125,7.197265625v3.4365234375h-.7705078125V.154296875Z"/><path class="cls-1" d="m8.7880859375,5.3935546875c0-2.9736328125,2.1728515625-5.3935546875,5.1630859375-5.3935546875s5.1630859375,2.419921875,5.1630859375,5.3935546875c0,2.974609375-2.1728515625,5.39453125-5.1630859375,5.39453125s-5.1630859375-2.419921875-5.1630859375-5.39453125Zm9.5244140625,0c0-2.619140625-1.7568359375-4.623046875-4.361328125-4.623046875s-4.361328125,2.00390625-4.361328125,4.623046875c0,2.6201171875,1.7568359375,4.6240234375,4.361328125,4.6240234375s4.361328125-2.00390625,4.361328125-4.6240234375Z"/><path class="cls-1" d="m25.1142578125,5.90234375h-2.943359375v4.7314453125h-.7705078125V.154296875h4.0068359375c2.0654296875,0,3.390625,1.0478515625,3.390625,2.8818359375,0,1.6337890625-1.0478515625,2.634765625-2.7431640625,2.8359375l3.9296875,4.7158203125v.0458984375h-1.001953125l-3.8681640625-4.7314453125Zm.2470703125-.7392578125c1.7255859375,0,2.634765625-.724609375,2.634765625-2.126953125s-.9091796875-2.142578125-2.634765625-2.142578125h-3.1904296875v4.26953125h3.1904296875Z"/></g></svg>