<?xml version="1.0" encoding="UTF-8"?><svg id="_레이어_2" xmlns="http://www.w3.org/2000/svg" viewBox="0 0 30.8764648438 10.7041015625"><defs><style>.cls-1{fill:#1d1d1b;}</style></defs><g id="Layer_1"><path class="cls-1" d="m0,0h2.404296875v4.5458984375L6.1181640625,0h2.8666992188v.0458984375l-3.7602539062,4.392578125,3.9760742188,5.9951171875v.0458984375h-2.7895507812l-2.7431640625-4.20703125-1.263671875,1.4794921875v2.7275390625H0V0Z"/><path class="cls-1" d="m9.515625,5.3896484375C9.515625,2.306640625,11.701171875.076171875,14.7543945312.076171875c3.0537109375,0,5.2392578125,2.23046875,5.2392578125,5.3134765625,0,3.083984375-2.185546875,5.314453125-5.2392578125,5.314453125-3.0532226562,0-5.2387695312-2.23046875-5.2387695312-5.314453125Zm8.0678710938,0c0-1.7958984375-1.0478515625-3.158203125-2.8291015625-3.158203125s-2.8291015625,1.3623046875-2.8291015625,3.158203125c0,1.796875,1.0478515625,3.1591796875,2.8291015625,3.1591796875s2.8291015625-1.3623046875,2.8291015625-3.1591796875Z"/><path class="cls-1" d="m25.1123046875,6.4111328125h-1.248046875v4.068359375h-2.404296875V0h4.8544921875c2.0190429688,0,3.4985351562,1.232421875,3.4985351562,3.205078125,0,1.4951171875-.84765625,2.57421875-2.1420898438,3.005859375l3.2055664062,4.22265625v.0458984375h-2.8510742188l-2.9130859375-4.068359375Zm.9404296875-2.0810546875c.84765625,0,1.2788085938-.431640625,1.2788085938-1.125s-.4311523438-1.125-1.2788085938-1.125h-2.1884765625v2.25h2.1884765625Z"/></g></svg>