<svg xmlns="http://www.w3.org/2000/svg" viewBox="0 0 16.37 16.37"><defs><style>.cls-1{fill:#231815;stroke:#ffe800;stroke-miterlimit:10;stroke-width:0.63px;}.cls-2{fill:#ffe800;}</style></defs><g id="레이어_2" data-name="레이어 2"><g id="레이어_1-2" data-name="레이어 1"><rect class="cls-1" x="0.32" y="0.32" width="15.73" height="15.73"/><path class="cls-2" d="M3.62,8c0-1.62.77-2.69,2.17-2.69S8,6.37,8,8s-.77,2.69-2.17,2.69S3.62,9.61,3.62,8ZM7,8c0-1-.34-1.8-1.19-1.8S4.61,6.94,4.61,8s.33,1.79,1.18,1.79S7,9,7,8Z"/><path class="cls-2" d="M12.75,7.86c0,1.76-.92,2.82-2.37,2.82a2.06,2.06,0,0,1-1.75-.89l.66-.59a1.28,1.28,0,0,0,1.09.58c.73,0,1.27-.48,1.36-1.42A1.74,1.74,0,0,1,10.41,9,1.77,1.77,0,0,1,8.6,7.14a1.89,1.89,0,0,1,2-1.84C12,5.3,12.75,6.38,12.75,7.86ZM9.59,7.12a.94.94,0,0,0,1,.94.94.94,0,1,0,0-1.87A.94.94,0,0,0,9.59,7.12Z"/></g></g></svg>