<svg xmlns="http://www.w3.org/2000/svg" viewBox="0 0 19.63 19.63"><defs><style>.cls-1{fill:#ffe800;stroke:#ffe800;stroke-miterlimit:10;stroke-width:0.63px;}.cls-2{fill:#231815;}</style></defs><g id="레이어_2" data-name="레이어 2"><g id="레이어_1-2" data-name="레이어 1"><rect class="cls-1" x="1.95" y="1.95" width="15.73" height="15.73" transform="translate(-1.96 2.46) rotate(-13)"/><path class="cls-2" d="M5.25,9.62C5.25,8,6,6.93,7.42,6.93S9.59,8,9.59,9.62s-.77,2.69-2.17,2.69S5.25,11.24,5.25,9.62Zm3.36,0c0-1-.34-1.8-1.19-1.8s-1.18.75-1.18,1.8.33,1.79,1.18,1.79S8.61,10.67,8.61,9.62Z"/><path class="cls-2" d="M10.2,10.74a1.34,1.34,0,0,1,1-1.32,1.16,1.16,0,0,1-.67-1.09c0-.76.61-1.4,1.81-1.4s1.82.64,1.82,1.4a1.16,1.16,0,0,1-.67,1.09,1.34,1.34,0,0,1,1,1.32c0,.89-.71,1.57-2.11,1.57S10.2,11.63,10.2,10.74Zm1-.09c0,.42.35.78,1.11.78s1.12-.36,1.12-.78-.36-.77-1.12-.77S11.19,10.23,11.19,10.65Zm.28-2.23c0,.37.35.61.83.61s.83-.24.83-.61-.34-.61-.83-.61S11.47,8.05,11.47,8.42Z"/></g></g></svg>