<svg xmlns="http://www.w3.org/2000/svg" viewBox="0 0 19.63 19.63"><defs><style>.cls-1{fill:#ffe800;stroke:#ffe800;stroke-miterlimit:10;stroke-width:0.63px;}.cls-2{fill:#231815;}</style></defs><g id="레이어_2" data-name="레이어 2"><g id="레이어_1-2" data-name="레이어 1"><rect class="cls-1" x="1.95" y="1.95" width="15.73" height="15.73" transform="translate(-1.96 2.46) rotate(-13)"/><path class="cls-2" d="M5.25,9.62C5.25,8,6,6.93,7.42,6.93S9.6,8,9.6,9.62s-.78,2.69-2.18,2.69S5.25,11.24,5.25,9.62Zm3.36,0c0-1-.34-1.8-1.19-1.8s-1.18.75-1.18,1.8.33,1.79,1.18,1.79S8.61,10.67,8.61,9.62Z"/><path class="cls-2" d="M10.23,9.75c0-1.77.92-2.82,2.37-2.82a2.07,2.07,0,0,1,1.76.89l-.67.59a1.29,1.29,0,0,0-1.09-.59,1.4,1.4,0,0,0-1.37,1.43,1.73,1.73,0,0,1,1.35-.59,1.76,1.76,0,0,1,1.81,1.8,1.9,1.9,0,0,1-2,1.85C11,12.31,10.23,11.23,10.23,9.75Zm3.16.73a.94.94,0,0,0-1-.93.93.93,0,1,0,0,1.86A.93.93,0,0,0,13.39,10.48Z"/></g></g></svg>