<svg xmlns="http://www.w3.org/2000/svg" viewBox="0 0 19.63 19.63"><defs><style>.cls-1{fill:#ffe800;stroke:#ffe800;stroke-miterlimit:10;stroke-width:0.63px;}.cls-2{fill:#231815;}</style></defs><g id="레이어_2" data-name="레이어 2"><g id="레이어_1-2" data-name="레이어 1"><rect class="cls-1" x="1.95" y="1.95" width="15.73" height="15.73" transform="translate(-1.96 2.46) rotate(-13)"/><path class="cls-2" d="M5.54,9.62c0-1.62.77-2.69,2.17-2.69S9.88,8,9.88,9.62s-.77,2.69-2.17,2.69S5.54,11.24,5.54,9.62Zm3.36,0c0-1-.34-1.79-1.19-1.79s-1.19.74-1.19,1.79.34,1.79,1.19,1.79S8.9,10.67,8.9,9.62Z"/><path class="cls-2" d="M10.46,11.47c.64-1.23,2.59-1.79,2.59-2.81a.79.79,0,0,0-.9-.83.92.92,0,0,0-.92.69l-.74-.41A1.71,1.71,0,0,1,12.2,6.93,1.65,1.65,0,0,1,14,8.6c0,1.52-1.79,2.06-2.27,2.74h2.37v.86H10.46Z"/></g></g></svg>