<svg xmlns="http://www.w3.org/2000/svg" viewBox="0 0 16.37 16.37"><defs><style>.cls-1{fill:#231815;stroke:#ffe800;stroke-miterlimit:10;stroke-width:0.63px;}.cls-2{fill:#ffe800;}</style></defs><g id="레이어_2" data-name="레이어 2"><g id="레이어_1-2" data-name="레이어 1"><rect class="cls-1" x="0.32" y="0.32" width="15.73" height="15.73"/><path class="cls-2" d="M3.62,8c0-1.62.77-2.69,2.17-2.69S8,6.37,8,8s-.77,2.69-2.17,2.69S3.62,9.61,3.62,8ZM7,8c0-1-.34-1.8-1.19-1.8S4.61,6.94,4.61,8s.33,1.79,1.18,1.79S7,9,7,8Z"/><path class="cls-2" d="M8.57,9.1a1.34,1.34,0,0,1,.95-1.31A1.16,1.16,0,0,1,8.86,6.7c0-.76.61-1.4,1.81-1.4s1.82.64,1.82,1.4a1.16,1.16,0,0,1-.67,1.09,1.35,1.35,0,0,1,1,1.31c0,.9-.71,1.58-2.11,1.58S8.57,10,8.57,9.1Zm1-.08c0,.42.36.78,1.12.78s1.12-.36,1.12-.78-.36-.77-1.12-.77S9.55,8.6,9.55,9Zm.29-2.23c0,.37.35.6.83.6s.83-.23.83-.6-.34-.61-.83-.61S9.84,6.42,9.84,6.79Z"/></g></g></svg>