<svg xmlns="http://www.w3.org/2000/svg" viewBox="0 0 16.37 16.37"><defs><style>.cls-1{fill:#231815;stroke:#ffe800;stroke-miterlimit:10;stroke-width:0.63px;}.cls-2{fill:#ffe800;}</style></defs><g id="레이어_2" data-name="레이어 2"><g id="레이어_1-2" data-name="레이어 1"><rect class="cls-1" x="0.32" y="0.32" width="15.73" height="15.73"/><path class="cls-2" d="M3.62,8c0-1.62.77-2.69,2.17-2.69S8,6.37,8,8s-.77,2.69-2.17,2.69S3.62,9.61,3.62,8ZM7,8c0-1-.34-1.8-1.19-1.8S4.61,6.94,4.61,8s.33,1.79,1.18,1.79S7,9,7,8Z"/><path class="cls-2" d="M8.6,8.12C8.6,6.35,9.52,5.3,11,5.3a2,2,0,0,1,1.75.89l-.66.59A1.29,1.29,0,0,0,11,6.19,1.4,1.4,0,0,0,9.6,7.62,1.73,1.73,0,0,1,11,7a1.76,1.76,0,0,1,1.8,1.8,1.89,1.89,0,0,1-2,1.85C9.33,10.68,8.6,9.6,8.6,8.12Zm3.16.73a.94.94,0,0,0-1-.93.93.93,0,1,0,0,1.86A.93.93,0,0,0,11.76,8.85Z"/></g></g></svg>