<svg xmlns="http://www.w3.org/2000/svg" viewBox="0 0 16.37 16.37"><defs><style>.cls-1{fill:#231815;stroke:#ffe800;stroke-miterlimit:10;stroke-width:0.63px;}.cls-2{fill:#ffe800;}</style></defs><g id="레이어_2" data-name="레이어 2"><g id="레이어_1-2" data-name="레이어 1"><rect class="cls-1" x="0.32" y="0.32" width="15.73" height="15.73"/><path class="cls-2" d="M3.91,8c0-1.62.77-2.69,2.17-2.69S8.25,6.37,8.25,8s-.77,2.69-2.17,2.69S3.91,9.61,3.91,8ZM7.26,8c0-1-.33-1.8-1.18-1.8S4.89,6.94,4.89,8s.34,1.79,1.19,1.79S7.26,9,7.26,8Z"/><path class="cls-2" d="M8.83,9.83c.64-1.22,2.59-1.78,2.59-2.8a.8.8,0,0,0-.9-.84.92.92,0,0,0-.92.7l-.74-.41A1.7,1.7,0,0,1,10.57,5.3,1.65,1.65,0,0,1,12.38,7c0,1.52-1.79,2.06-2.27,2.74h2.37v.86H8.83Z"/></g></g></svg>