<svg xmlns="http://www.w3.org/2000/svg" viewBox="0 0 19.63 19.63"><defs><style>.cls-1{fill:#ffe800;stroke:#ffe800;stroke-miterlimit:10;stroke-width:0.63px;}.cls-2{fill:#231815;}</style></defs><g id="레이어_2" data-name="레이어 2"><g id="레이어_1-2" data-name="레이어 1"><rect class="cls-1" x="1.95" y="1.95" width="15.73" height="15.73" transform="translate(-1.96 2.46) rotate(-13)"/><path class="cls-2" d="M5.25,9.62C5.25,8,6,6.93,7.42,6.93S9.6,8,9.6,9.62s-.78,2.69-2.18,2.69S5.25,11.24,5.25,9.62Zm3.36,0c0-1-.34-1.8-1.19-1.8s-1.18.75-1.18,1.8.33,1.79,1.18,1.79S8.61,10.67,8.61,9.62Z"/><path class="cls-2" d="M14.39,9.49c0,1.76-.92,2.82-2.38,2.82a2.06,2.06,0,0,1-1.75-.89l.66-.59a1.29,1.29,0,0,0,1.09.58c.73,0,1.27-.48,1.36-1.42a1.74,1.74,0,0,1-1.33.59,1.77,1.77,0,0,1-1.81-1.8,1.89,1.89,0,0,1,2-1.85C13.65,6.93,14.39,8,14.39,9.49Zm-3.17-.74a.94.94,0,0,0,1,.94.94.94,0,1,0,0-1.87A.94.94,0,0,0,11.22,8.75Z"/></g></g></svg>