<svg xmlns="http://www.w3.org/2000/svg" viewBox="0 0 19.63 19.63"><defs><style>.cls-1{fill:#ffe800;stroke:#ffe800;stroke-miterlimit:10;stroke-width:0.63px;}.cls-2{fill:#231815;}</style></defs><g id="레이어_2" data-name="레이어 2"><g id="레이어_1-2" data-name="레이어 1"><rect class="cls-1" x="1.95" y="1.95" width="15.73" height="15.73" transform="translate(-1.96 2.46) rotate(-13)"/><path class="cls-2" d="M5.48,9.62c0-1.62.77-2.69,2.17-2.69S9.82,8,9.82,9.62s-.77,2.69-2.17,2.69S5.48,11.24,5.48,9.62Zm3.36,0c0-1-.34-1.79-1.19-1.79s-1.18.74-1.18,1.79.33,1.79,1.18,1.79S8.84,10.67,8.84,9.62Z"/><path class="cls-2" d="M10.26,11.44l.56-.67a1.64,1.64,0,0,0,1.31.64,1,1,0,0,0,1.1-.94.88.88,0,0,0-1-.88,1.6,1.6,0,0,0-.95.3l-.61-.2L10.94,7h3V7.9H11.78l-.11.9a2.21,2.21,0,0,1,.65-.11,1.73,1.73,0,0,1,1.9,1.78,1.85,1.85,0,0,1-2.09,1.84A2.46,2.46,0,0,1,10.26,11.44Z"/></g></g></svg>