<svg xmlns="http://www.w3.org/2000/svg" viewBox="0 0 16.37 16.37"><defs><style>.cls-1{fill:#231815;stroke:#ffe800;stroke-miterlimit:10;stroke-width:0.63px;}.cls-2{fill:#ffe800;}</style></defs><g id="레이어_2" data-name="레이어 2"><g id="레이어_1-2" data-name="레이어 1"><rect class="cls-1" x="0.32" y="0.32" width="15.73" height="15.73"/><path class="cls-2" d="M3.62,8c0-1.62.78-2.69,2.18-2.69S8,6.37,8,8,7.2,10.68,5.8,10.68,3.62,9.61,3.62,8ZM7,8c0-1-.33-1.8-1.18-1.8S4.61,6.94,4.61,8,5,9.78,5.8,9.78,7,9,7,8Z"/><path class="cls-2" d="M8.41,8.57,10.78,5.4H12v3h.86v.86H12v1.29h-1V9.28H8.41Zm2.66-.15v-2l-1.46,2Z"/></g></g></svg>