<svg xmlns="http://www.w3.org/2000/svg" viewBox="0 0 19.63 19.63"><defs><style>.cls-1{fill:#ffe800;stroke:#ffe800;stroke-miterlimit:10;stroke-width:0.63px;}.cls-2{fill:#231815;}</style></defs><g id="레이어_2" data-name="레이어 2"><g id="레이어_1-2" data-name="레이어 1"><rect class="cls-1" x="1.95" y="1.95" width="15.73" height="15.73" transform="translate(-1.96 2.46) rotate(-13)"/><path class="cls-2" d="M5.46,9.62c0-1.62.78-2.69,2.18-2.69S9.81,8,9.81,9.62,9,12.31,7.64,12.31,5.46,11.24,5.46,9.62Zm3.36,0c0-1-.34-1.79-1.18-1.79s-1.19.74-1.19,1.79.33,1.79,1.19,1.79S8.82,10.67,8.82,9.62Z"/><path class="cls-2" d="M10.24,11.44l.56-.67a1.66,1.66,0,0,0,1.31.64c.63,0,1.1-.27,1.1-.77s-.36-.7-1.09-.7h-.51V9.09h.51c.56,0,.81-.3.81-.64s-.35-.62-.79-.62a1.25,1.25,0,0,0-1.08.52l-.57-.61a2.1,2.1,0,0,1,1.65-.81c1.11,0,1.78.54,1.78,1.45a1.25,1.25,0,0,1-.66,1.06,1.31,1.31,0,0,1,.94,1.29c0,1-.92,1.58-2.09,1.58A2.46,2.46,0,0,1,10.24,11.44Z"/></g></g></svg>