<svg xmlns="http://www.w3.org/2000/svg" viewBox="0 0 16.37 16.37"><defs><style>.cls-1{fill:#231815;stroke:#ffe800;stroke-miterlimit:10;stroke-width:0.63px;}.cls-2{fill:#ffe800;}</style></defs><g id="레이어_2" data-name="레이어 2"><g id="레이어_1-2" data-name="레이어 1"><rect class="cls-1" x="0.32" y="0.32" width="15.73" height="15.73"/><path class="cls-2" d="M6,6.51,5,7l-.36-.75L6.21,5.4h.72v5.17H6Z"/><path class="cls-2" d="M7.76,9.83C8.4,8.61,10.34,8.05,10.34,7a.79.79,0,0,0-.9-.84.92.92,0,0,0-.92.7l-.74-.41A1.7,1.7,0,0,1,9.49,5.3,1.66,1.66,0,0,1,11.31,7C11.31,8.49,9.51,9,9,9.71H11.4v.86H7.76Z"/></g></g></svg>