<svg xmlns="http://www.w3.org/2000/svg" viewBox="0 0 19.63 19.63"><defs><style>.cls-1{fill:#ffe800;stroke:#ffe800;stroke-miterlimit:10;stroke-width:0.63px;}.cls-2{fill:#231815;}</style></defs><g id="레이어_2" data-name="레이어 2"><g id="레이어_1-2" data-name="레이어 1"><rect class="cls-1" x="1.95" y="1.95" width="15.73" height="15.73" transform="translate(-1.96 2.46) rotate(-13)"/><path class="cls-2" d="M7.59,8.14l-.94.51L6.29,7.9,7.84,7h.72V12.2h-1Z"/><path class="cls-2" d="M9.39,11.46C10,10.24,12,9.68,12,8.66a.79.79,0,0,0-.89-.84.91.91,0,0,0-.92.7l-.75-.41a1.7,1.7,0,0,1,1.71-1.18A1.66,1.66,0,0,1,12.94,8.6c0,1.52-1.8,2.06-2.28,2.74H13v.86H9.39Z"/></g></g></svg>