<svg xmlns="http://www.w3.org/2000/svg" viewBox="0 0 16.37 16.37"><defs><style>.cls-1{fill:#231815;stroke:#ffe800;stroke-miterlimit:10;stroke-width:0.63px;}.cls-2{fill:#ffe800;}</style></defs><g id="레이어_2" data-name="레이어 2"><g id="레이어_1-2" data-name="레이어 1"><rect class="cls-1" x="0.32" y="0.32" width="15.73" height="15.73"/><path class="cls-2" d="M3.83,8C3.83,6.37,4.61,5.3,6,5.3S8.18,6.37,8.18,8,7.4,10.68,6,10.68,3.83,9.61,3.83,8ZM7.19,8c0-1-.34-1.8-1.19-1.8S4.82,6.94,4.82,8,5.15,9.78,6,9.78,7.19,9,7.19,8Z"/><path class="cls-2" d="M8.61,9.81l.56-.67a1.65,1.65,0,0,0,1.3.64c.64,0,1.11-.27,1.11-.77s-.36-.7-1.09-.7H10V7.46h.51c.56,0,.81-.3.81-.64s-.35-.63-.79-.63a1.25,1.25,0,0,0-1.08.53l-.57-.61a2.1,2.1,0,0,1,1.65-.81c1.11,0,1.78.54,1.78,1.45a1.25,1.25,0,0,1-.66,1.06,1.3,1.3,0,0,1,.93,1.29c0,1-.92,1.58-2.09,1.58A2.45,2.45,0,0,1,8.61,9.81Z"/></g></g></svg>