<svg xmlns="http://www.w3.org/2000/svg" viewBox="0 0 19.63 19.63"><defs><style>.cls-1{fill:#ffe800;stroke:#ffe800;stroke-miterlimit:10;stroke-width:0.63px;}.cls-2{fill:#231815;}</style></defs><g id="레이어_2" data-name="레이어 2"><g id="레이어_1-2" data-name="레이어 1"><rect class="cls-1" x="1.95" y="1.95" width="15.73" height="15.73" transform="translate(-1.96 2.46) rotate(-13)"/><path class="cls-2" d="M5.26,9.62C5.26,8,6,6.93,7.43,6.93S9.6,8,9.6,9.62s-.77,2.69-2.17,2.69S5.26,11.24,5.26,9.62Zm3.35,0c0-1-.33-1.79-1.18-1.79s-1.19.74-1.19,1.79.34,1.79,1.19,1.79S8.61,10.67,8.61,9.62Z"/><path class="cls-2" d="M10,10.2,12.41,7h1.25v3h.86v.86h-.86V12.2h-.95V10.91H10Zm2.67-.15v-2l-1.47,2Z"/></g></g></svg>