<svg xmlns="http://www.w3.org/2000/svg" viewBox="0 0 16.37 16.37"><defs><style>.cls-1{fill:#231815;stroke:#ffe800;stroke-miterlimit:10;stroke-width:0.63px;}.cls-2{fill:#ffe800;}</style></defs><g id="레이어_2" data-name="레이어 2"><g id="레이어_1-2" data-name="레이어 1"><rect class="cls-1" x="0.32" y="0.32" width="15.73" height="15.73"/><path class="cls-2" d="M3.85,8C3.85,6.37,4.62,5.3,6,5.3S8.19,6.37,8.19,8,7.42,10.68,6,10.68,3.85,9.61,3.85,8ZM7.2,8c0-1-.33-1.8-1.18-1.8S4.83,6.94,4.83,8,5.17,9.78,6,9.78,7.2,9,7.2,8Z"/><path class="cls-2" d="M8.63,9.81l.56-.67a1.64,1.64,0,0,0,1.31.64,1,1,0,0,0,1.1-.94.88.88,0,0,0-1-.88,1.6,1.6,0,0,0-.95.3l-.61-.2L9.3,5.4h3v.87H10.15l-.11.9a2.21,2.21,0,0,1,.65-.11,1.73,1.73,0,0,1,1.9,1.78,1.85,1.85,0,0,1-2.09,1.84A2.46,2.46,0,0,1,8.63,9.81Z"/></g></g></svg>