<?xml version="1.0" encoding="UTF-8"?><svg id="_레이어_2" xmlns="http://www.w3.org/2000/svg" viewBox="0 0 318.1005859375 138.3466796875"><defs><style>.cls-1{fill:none;}</style></defs><g id="Layer_1"><path d="m.859375,12.962890625h15.84375v2.220703125H.859375v-2.220703125ZM7.4814453125,1.0405273438h2.6005859375v1.2202148438c0,3.5405273438,2.560546875,5.1411132812,5.5009765625,6.0810546875l-.9599609375,2.0805664062c-2.48046875-.6201171875-5.041015625-2.3203125-5.841796875-4.2607421875-.759765625,1.9404296875-3.3203125,3.6806640625-5.8212890625,4.3408203125l-.9599609375-2.0805664062c2.900390625-.919921875,5.4814453125-2.6206054688,5.4814453125-6.1411132812v-1.240234375Z"/><path d="m17.6533203125,1.0205078125h6.6806640625v2.1005859375h-4.240234375v1.580078125h3.740234375v1.98046875h-3.740234375v1.66015625h2.3798828125c1.240234375,0,2.30078125-.1596679688,3.220703125-.6796875V.2001953125h2.4013671875v4.4609375h1.6201171875V0h2.4404296875v12.623046875h-2.4404296875v-5.8012695312h-1.6201171875v5.5009765625h-2.4013671875v-3.0004882812c-1.0595703125.740234375-2.419921875,1.1000976562-4.240234375,1.1000976562h-2.8212890625c-.6201171875,0-.9794921875-.2397460938-.9794921875-.8203125V1.0205078125Zm3.2001953125,10.662109375h2.560546875v3.5209960938h9.08203125v2.1801757812h-10.6826171875c-.599609375,0-.9599609375-.259765625-.9599609375-.8198242188v-4.8813476562Z"/><path d="m34.72265625,1.5405273438h8.28125v6.7216796875h-5.720703125v2.5405273438h4.5009765625c1.48046875,0,2.8408203125-.2001953125,3.8408203125-.7202148438V0h2.560546875v17.2836914062h-2.560546875v-5.4409179688c-1.2607421875.8203125-3.060546875,1.1401367188-5.0615234375,1.1401367188h-4.861328125c-.6201171875,0-.9794921875-.2397460938-.9794921875-.8203125v-6.0009765625h5.7607421875v-2.4404296875h-5.7607421875V1.5405273438Z"/><path d="m57.7216796875.6005859375h10.982421875v1.6000976562c0,1.8403320312-.2197265625,3.6206054688-1.080078125,5.0810546875h3.5205078125v2.0004882812h-15.84375v-2.0004882812h10.1630859375c.3193359375-.6801757812.4794921875-1.5004882812.580078125-2.2602539062-.640625.6000976562-1.9404296875.8598632812-3.7412109375.8598632812h-4.80078125v-1.8803710938h5.6806640625c1.16015625,0,2.2607421875-.0200195312,2.94140625-.2797851562.01953125-.0600585938.01953125-.400390625.01953125-.4604492188v-.66015625h-8.421875V.6005859375Zm-.099609375,9.8818359375h11.2021484375v4.6411132812h-8.6416015625v1.0600585938h9.08203125v1.900390625h-10.6826171875c-.6005859375,0-.9599609375-.259765625-.9599609375-.8203125v-3.9204101562h8.6416015625v-1.0004882812h-8.6416015625v-1.8603515625Z"/><path d="m72.8115234375,1.5405273438h8.28125v6.6616210938h-5.720703125v2.6005859375h4.220703125c1.48046875,0,2.8408203125-.2001953125,3.8408203125-.7202148438V0h2.560546875v5.9614257812h2.3408203125v2.2006835938h-2.3408203125v9.1215820312h-2.560546875v-5.4409179688c-1.259765625.8203125-3.060546875,1.1401367188-5.060546875,1.1401367188h-4.5810546875c-.6201171875,0-.98046875-.2397460938-.98046875-.8203125v-6.0810546875h5.7607421875v-2.3603515625h-5.7607421875V1.5405273438Z"/><path d="m94.41796875.8603515625c2.9208984375,0,4.7412109375,1.8603515625,4.7412109375,4.5610351562,0,2.720703125-1.8203125,4.5810546875-4.7412109375,4.5810546875s-4.7607421875-1.8603515625-4.7607421875-4.5810546875c0-2.7006835938,1.83984375-4.5610351562,4.7607421875-4.5610351562Zm0,6.9814453125c1.3203125,0,2.2001953125-.9799804688,2.2001953125-2.4204101562,0-1.4204101562-.8798828125-2.400390625-2.2001953125-2.400390625s-2.2001953125.9799804688-2.2001953125,2.400390625c0,1.4404296875.8798828125,2.4204101562,2.2001953125,2.4204101562Zm-1.5400390625,3.3608398438h2.560546875v3.9809570312h8.681640625v2.1801757812h-10.2822265625c-.6005859375,0-.9599609375-.2397460938-.9599609375-.8198242188v-5.3413085938ZM101.119140625,0h2.560546875v12.7431640625h-2.560546875V0Z"/><path d="m110.6162109375,11.3627929688c0-2.060546875,1.240234375-3.2407226562,3.240234375-4.0209960938-.599609375-.7802734375-.98046875-1.560546875-.98046875-2.5805664062,0-1.8603515625,1.5810546875-3.6206054688,3.9814453125-3.6206054688,2.2802734375,0,3.880859375,1.5200195312,3.880859375,3.400390625,0,1.8408203125-1.30078125,2.9208984375-3.1005859375,3.541015625l2,2.16015625,2.48046875-2.740234375,1.6201171875,1.4599609375-2.640625,2.9008789062,2.861328125,3.1005859375v.0600585938h-3.28125l-1.2802734375-1.4204101562c-1.2197265625,1.0405273438-2.66015625,1.7006835938-4.240234375,1.7006835938-2.80078125,0-4.541015625-1.7006835938-4.541015625-3.9409179688Zm7.3408203125.6201171875l-2.7802734375-3.1005859375c-1.1806640625.4599609375-2.060546875,1.1000976562-2.060546875,2.2802734375,0,1.1401367188.900390625,1.9204101562,2.12109375,1.9204101562,1.0400390625,0,1.9404296875-.419921875,2.7197265625-1.1000976562Zm-1.6796875-5.4213867188c1.4599609375-.4799804688,2.0205078125-1.1000976562,2.0205078125-1.9404296875,0-.6401367188-.5400390625-1.3403320312-1.4609375-1.3403320312-1.01953125,0-1.5400390625.7802734375-1.5400390625,1.4604492188,0,.6201171875.33984375,1.080078125.98046875,1.8203125Z"/><path d="m136.77734375,5.4213867188c0,3.0405273438-1.4599609375,4.5610351562-3.7607421875,4.5610351562-2.3203125,0-3.8212890625-1.5205078125-3.8212890625-4.5610351562s1.5009765625-4.5610351562,3.8212890625-4.5610351562c2.30078125,0,3.7607421875,1.5205078125,3.7607421875,4.5610351562Zm-5.201171875,0c0,1.6401367188.5205078125,2.4604492188,1.4404296875,2.4604492188.900390625,0,1.419921875-.8203125,1.419921875-2.4604492188,0-1.66015625-.51953125-2.48046875-1.419921875-2.48046875-.919921875,0-1.4404296875.8203125-1.4404296875,2.48046875Zm1.1201171875,5.861328125h2.560546875v3.9208984375h9.08203125v2.1801757812h-10.6826171875c-.599609375,0-.9599609375-.259765625-.9599609375-.8198242188v-5.28125ZM137.6376953125.2001953125h2.400390625v4.2607421875h1.5205078125V0h2.4404296875v12.3227539062h-2.4404296875v-5.701171875h-1.5205078125v5.4013671875h-2.400390625V.2001953125Z"/><path d="m145.974609375,12.962890625h15.84375v2.220703125h-15.84375v-2.220703125Zm2.28125-11.5825195312h11.2822265625v2.220703125h-8.7216796875v4.0209960938h8.921875v2.2202148438h-10.5224609375c-.6005859375,0-.9599609375-.2602539062-.9599609375-.8203125V1.3803710938Z"/><path d="m163.0556640625,10.3623046875h15.84375v2.140625h-3.5810546875v4.8608398438h-2.580078125v-4.8608398438h-3.48046875v4.8608398438h-2.560546875v-4.8608398438h-3.6416015625v-2.140625Zm2.380859375-9.7421875h11.08203125v5.1611328125h-8.541015625v1.140625h8.78125v2.080078125h-10.3623046875c-.599609375,0-.9599609375-.259765625-.9599609375-.8198242188V3.8012695312h8.5419921875v-1.1005859375h-8.5419921875V.6201171875Z"/><path d="m184.935546875.8203125h6.701171875v1.5004882812c0,.5400390625-.080078125,1.0600585938-.2001953125,1.5200195312h1.740234375V.2001953125h2.4208984375v8.3618164062h-2.4208984375v-2.640625h-2.80078125c-1.16015625,1.4404296875-3.060546875,2.400390625-5.2607421875,3.0209960938l-.900390625-2.0405273438c2.78125-.7802734375,4.9609375-2.3208007812,4.9609375-3.9809570312h-4.240234375V.8203125Zm3.3203125,8.6821289062h11.1826171875v4.9409179688h-8.6416015625v1.1401367188h9.08203125v2.0004882812h-10.6630859375c-.599609375,0-.9599609375-.2602539062-.9599609375-.8203125v-4.220703125h8.6416015625v-1.080078125h-8.6416015625v-1.9604492188Zm8.7421875-9.5024414062h2.4404296875v8.662109375h-2.4404296875V0Z"/><path d="m201.9755859375,1.5405273438h7.541015625v6.6616210938h-4.98046875v2.560546875h2.0205078125c1.66015625,0,3.3408203125-.16015625,4.400390625-.5600585938l.4599609375,1.740234375c-1.3603515625.8203125-3.3603515625,1.0400390625-5.5810546875,1.0400390625h-2.8798828125c-.6201171875,0-.98046875-.2397460938-.98046875-.8203125v-6.0810546875h5.0009765625v-2.3603515625h-5.0009765625V1.5405273438Zm11.0625-1.5405273438h2.560546875v17.2836914062h-2.560546875V7.1416015625h-2.640625v-2.2001953125h2.640625V0Z"/><path d="m.3623046875,31.962890625l1.19140625-1.1625976562c.5458984375.8544921875,1.470703125,1.6806640625,2.9130859375,1.6806640625,1.1767578125,0,1.79296875-.5883789062,1.79296875-1.3305664062,0-.6025390625-.419921875-1.064453125-1.541015625-1.2329101562l-.826171875-.1259765625c-1.6806640625-.251953125-2.8154296875-1.21875-2.8154296875-2.689453125,0-1.6108398438,1.31640625-2.8994140625,3.4462890625-2.8994140625,1.470703125,0,2.6748046875.6440429688,3.361328125,1.5405273438l-1.162109375,1.205078125c-.5888671875-.728515625-1.38671875-1.1069335938-2.2412109375-1.1069335938-.953125,0-1.513671875.5043945312-1.513671875,1.0786132812,0,.560546875.4208984375.966796875,1.2470703125,1.0927734375l.8125.1259765625c1.9609375.2939453125,3.109375,1.2749023438,3.109375,2.8857421875,0,1.8349609375-1.4990234375,3.095703125-3.697265625,3.095703125-2.19921875,0-3.404296875-1.134765625-4.0771484375-2.1572265625Z"/><path d="m9.6484375,31.1645507812v-3.0258789062h-1.205078125v-1.4287109375h1.2607421875v-1.8349609375h1.72265625v1.8349609375h1.6669921875v1.4287109375h-1.6669921875v3.1098632812c0,.9243164062.4345703125,1.2465820312,1.3310546875,1.2465820312h.3359375v1.4287109375c-.23828125.0561523438-.5322265625.083984375-.7978515625.083984375-1.7509765625,0-2.6474609375-.8681640625-2.6474609375-2.8432617188Z"/><path d="m19.3759765625,33.0971679688c-.5322265625.6025390625-1.3173828125.9946289062-2.255859375.9946289062-2.0029296875,0-3.4736328125-1.4848632812-3.4736328125-3.7680664062s1.470703125-3.7817382812,3.4736328125-3.7817382812c.9384765625,0,1.7236328125.40625,2.255859375,1.0083007812v-.8403320312h1.7783203125v7.2138671875h-1.7783203125v-.8266601562Zm0-1.6665039062v-2.2133789062c-.322265625-.6865234375-1.0654296875-1.0927734375-1.86328125-1.0927734375-1.1630859375,0-2.0595703125.798828125-2.0595703125,2.19921875,0,1.38671875.896484375,2.185546875,2.0595703125,2.185546875.7978515625,0,1.541015625-.40625,1.86328125-1.0786132812Z"/><path d="m22.755859375,26.7099609375h1.7783203125v1.0083007812c.392578125-.6440429688,1.1630859375-1.1762695312,2.283203125-1.1762695312,1.876953125,0,2.74609375,1.2885742188,2.74609375,3.1376953125v4.244140625h-1.779296875v-4.0483398438c0-1.1484375-.5458984375-1.7509765625-1.5966796875-1.7509765625-.8828125,0-1.470703125.6025390625-1.6533203125,1.2607421875v4.5385742188h-1.7783203125v-7.2138671875Z"/><path d="m31.095703125,23.978515625h1.7783203125v9.9453125h-1.7783203125v-9.9453125Z"/><path d="m34.0751953125,30.337890625c0-2.2553710938,1.5263671875-3.7958984375,3.6279296875-3.7958984375s3.4736328125,1.4565429688,3.4736328125,3.5297851562c0,.23828125-.0419921875.57421875-.083984375.8686523438h-5.224609375c.181640625.9663085938.8544921875,1.6245117188,2.1015625,1.6245117188.8818359375,0,1.6240234375-.490234375,2.044921875-1.064453125l.98046875,1.1625976562c-.6728515625.8125-1.7373046875,1.4428710938-3.1103515625,1.4428710938-2.3388671875,0-3.8095703125-1.6669921875-3.8095703125-3.7680664062Zm1.8212890625-.8544921875h3.515625c-.09765625-.9384765625-.7421875-1.470703125-1.708984375-1.470703125-.9248046875,0-1.568359375.5180664062-1.806640625,1.470703125Z"/><path d="m44.146484375,32.9995117188l-2.8857421875-6.2895507812h1.9052734375l1.9189453125,4.314453125,1.779296875-4.314453125h1.9189453125l-4.23046875,9.6372070312h-1.9189453125l1.5126953125-3.34765625Z"/><path d="m52.6982421875,24.3984375h1.8212890625v4.46875l3.8525390625-4.46875h2.19921875v.0424804688l-3.5302734375,3.9916992188,3.7255859375,5.44921875v.0419921875h-2.12890625l-2.8017578125-4.1181640625-1.31640625,1.4848632812v2.6333007812h-1.8212890625v-9.525390625Z"/><path d="m61.5283203125,23.978515625h1.7783203125v9.9453125h-1.7783203125v-9.9453125Z"/><path d="m64.5078125,30.337890625c0-2.2553710938,1.5263671875-3.7958984375,3.6279296875-3.7958984375s3.4736328125,1.4565429688,3.4736328125,3.5297851562c0,.23828125-.0419921875.57421875-.083984375.8686523438h-5.224609375c.181640625.9663085938.8544921875,1.6245117188,2.1015625,1.6245117188.8818359375,0,1.6240234375-.490234375,2.044921875-1.064453125l.98046875,1.1625976562c-.6728515625.8125-1.7373046875,1.4428710938-3.109375,1.4428710938-2.33984375,0-3.810546875-1.6669921875-3.810546875-3.7680664062Zm1.8212890625-.8544921875h3.515625c-.09765625-.9384765625-.7421875-1.470703125-1.708984375-1.470703125-.9248046875,0-1.568359375.5180664062-1.806640625,1.470703125Z"/><path d="m72.767578125,23.6420898438h1.8212890625v1.8491210938h-1.8212890625v-1.8491210938Zm.0283203125,3.0678710938h1.7783203125v7.2138671875h-1.7783203125v-7.2138671875Z"/><path d="m76.158203125,26.7099609375h1.7783203125v1.0083007812c.392578125-.6440429688,1.1630859375-1.1762695312,2.283203125-1.1762695312,1.876953125,0,2.74609375,1.2885742188,2.74609375,3.1376953125v4.244140625h-1.779296875v-4.0483398438c0-1.1484375-.5458984375-1.7509765625-1.5966796875-1.7509765625-.8828125,0-1.470703125.6025390625-1.6533203125,1.2607421875v4.5385742188h-1.7783203125v-7.2138671875Z"/><path d="m86.9228515625,31.3603515625c0-1.4428710938.869140625-2.2690429688,2.26953125-2.8154296875-.419921875-.5463867188-.6865234375-1.0927734375-.6865234375-1.8071289062,0-1.302734375,1.1064453125-2.53515625,2.787109375-2.53515625,1.59765625,0,2.7177734375,1.064453125,2.7177734375,2.3813476562,0,1.2885742188-.91015625,2.044921875-2.1708984375,2.4790039062l1.400390625,1.5131835938,1.7373046875-1.9189453125,1.134765625,1.0224609375-1.849609375,2.0307617188,2.00390625,2.1713867188v.0419921875h-2.2978515625l-.896484375-.9946289062c-.8544921875.728515625-1.86328125,1.1909179688-2.9697265625,1.1909179688-1.9609375,0-3.1796875-1.1909179688-3.1796875-2.759765625Zm5.140625.4345703125l-1.9462890625-2.1713867188c-.8271484375.322265625-1.443359375.7705078125-1.443359375,1.5966796875,0,.7983398438.630859375,1.3447265625,1.4853515625,1.3447265625.728515625,0,1.3583984375-.2939453125,1.904296875-.7700195312Zm-1.17578125-3.7963867188c1.0224609375-.3359375,1.4140625-.7705078125,1.4140625-1.3588867188,0-.4482421875-.3779296875-.9384765625-1.0224609375-.9384765625-.7138671875,0-1.078125.5463867188-1.078125,1.0229492188,0,.4340820312.23828125.7563476562.6865234375,1.2744140625Z"/><path d="m102.955078125,24.3984375h2.142578125l3.7119140625,9.525390625h-1.890625l-.7705078125-2.0170898438h-4.244140625l-.7705078125,2.0170898438h-1.890625l3.7119140625-9.525390625Zm-.4482421875,5.9252929688h3.025390625l-1.5126953125-3.9780273438-1.5126953125,3.9780273438Z"/><path d="m109.59765625,26.7099609375h1.7783203125v1.0083007812c.392578125-.6440429688,1.1630859375-1.1762695312,2.283203125-1.1762695312,1.876953125,0,2.74609375,1.2885742188,2.74609375,3.1376953125v4.244140625h-1.779296875v-4.0483398438c0-1.1484375-.5458984375-1.7509765625-1.5966796875-1.7509765625-.8828125,0-1.470703125.6025390625-1.6533203125,1.2607421875v4.5385742188h-1.7783203125v-7.2138671875Z"/><path d="m123.255859375,33.0971679688c-.5322265625.6025390625-1.3173828125.9946289062-2.255859375.9946289062-2.0029296875,0-3.4736328125-1.4848632812-3.4736328125-3.7680664062s1.470703125-3.7817382812,3.4736328125-3.7817382812c.9384765625,0,1.7236328125.40625,2.255859375,1.0083007812v-3.5717773438h1.7783203125v9.9453125h-1.7783203125v-.8266601562Zm0-1.6665039062v-2.2133789062c-.322265625-.6865234375-1.0654296875-1.0927734375-1.86328125-1.0927734375-1.1630859375,0-2.0595703125.798828125-2.0595703125,2.19921875,0,1.38671875.896484375,2.185546875,2.0595703125,2.185546875.7978515625,0,1.541015625-.40625,1.86328125-1.0786132812Z"/><path d="m126.63671875,26.7099609375h1.7783203125v1.1206054688c.4208984375-.7705078125,1.12109375-1.2885742188,2.0732421875-1.2885742188h.2099609375v1.6948242188c-1.064453125.0141601562-1.9326171875.322265625-2.283203125,1.4008789062v4.2861328125h-1.7783203125v-7.2138671875Z"/><path d="m131.142578125,30.337890625c0-2.2553710938,1.5263671875-3.7958984375,3.6279296875-3.7958984375s3.4736328125,1.4565429688,3.4736328125,3.5297851562c0,.23828125-.0419921875.57421875-.083984375.8686523438h-5.224609375c.181640625.9663085938.8544921875,1.6245117188,2.1015625,1.6245117188.8818359375,0,1.6240234375-.490234375,2.044921875-1.064453125l.98046875,1.1625976562c-.6728515625.8125-1.7373046875,1.4428710938-3.109375,1.4428710938-2.33984375,0-3.810546875-1.6669921875-3.810546875-3.7680664062Zm1.8212890625-.8544921875h3.515625c-.09765625-.9384765625-.7421875-1.470703125-1.708984375-1.470703125-.9248046875,0-1.568359375.5180664062-1.806640625,1.470703125Z"/><path d="m138.47265625,26.7099609375h1.904296875l1.443359375,4.818359375,1.638671875-4.818359375h1.890625l1.6396484375,4.818359375,1.4423828125-4.818359375h1.9052734375l-2.3671875,7.2138671875h-1.779296875l-1.79296875-5.0146484375-1.779296875,5.0146484375h-1.7783203125l-2.3671875-7.2138671875Z"/><path d="m153.7451171875,29.1611328125c0-2.8432617188,2.0595703125-4.9584960938,4.888671875-4.9584960938,1.947265625,0,3.404296875.8823242188,4.244140625,2.2690429688l-1.3583984375,1.0224609375c-.6025390625-.98046875-1.4853515625-1.5966796875-2.857421875-1.5966796875-1.8349609375,0-3.0400390625,1.4150390625-3.0400390625,3.263671875,0,1.8491210938,1.205078125,3.263671875,3.0537109375,3.263671875.91015625,0,1.8212890625-.251953125,2.353515625-.6440429688v-1.625h-2.1435546875v-1.5830078125h3.9638671875v4.146484375c-.9521484375.7563476562-2.619140625,1.4008789062-4.2158203125,1.4008789062-2.8291015625,0-4.888671875-2.115234375-4.888671875-4.958984375Z"/><path d="m163.9931640625,30.337890625c0-2.2553710938,1.5263671875-3.7958984375,3.6279296875-3.7958984375s3.4736328125,1.4565429688,3.4736328125,3.5297851562c0,.23828125-.0419921875.57421875-.083984375.8686523438h-5.224609375c.181640625.9663085938.8544921875,1.6245117188,2.1015625,1.6245117188.8818359375,0,1.6240234375-.490234375,2.044921875-1.064453125l.98046875,1.1625976562c-.6728515625.8125-1.7373046875,1.4428710938-3.1103515625,1.4428710938-2.3388671875,0-3.8095703125-1.6669921875-3.8095703125-3.7680664062Zm1.8212890625-.8544921875h3.515625c-.09765625-.9384765625-.7421875-1.470703125-1.708984375-1.470703125-.9248046875,0-1.568359375.5180664062-1.806640625,1.470703125Z"/><path d="m172.30859375,23.978515625h1.7783203125v9.9453125h-1.7783203125v-9.9453125Z"/><path d="m175.66796875,23.978515625h1.7783203125v9.9453125h-1.7783203125v-9.9453125Z"/><path d="m178.6474609375,30.337890625c0-2.2553710938,1.5263671875-3.7958984375,3.6279296875-3.7958984375s3.4736328125,1.4565429688,3.4736328125,3.5297851562c0,.23828125-.0419921875.57421875-.083984375.8686523438h-5.224609375c.181640625.9663085938.8544921875,1.6245117188,2.1015625,1.6245117188.8818359375,0,1.6240234375-.490234375,2.044921875-1.064453125l.98046875,1.1625976562c-.6728515625.8125-1.7373046875,1.4428710938-3.1103515625,1.4428710938-2.3388671875,0-3.8095703125-1.6669921875-3.8095703125-3.7680664062Zm1.8212890625-.8544921875h3.515625c-.09765625-.9384765625-.7421875-1.470703125-1.708984375-1.470703125-.9248046875,0-1.568359375.5180664062-1.806640625,1.470703125Z"/><path d="m186.9482421875,26.7099609375h1.7783203125v1.1206054688c.4208984375-.7705078125,1.12109375-1.2885742188,2.0732421875-1.2885742188h.2099609375v1.6948242188c-1.064453125.0141601562-1.9326171875.322265625-2.283203125,1.4008789062v4.2861328125h-1.7783203125v-7.2138671875Z"/><path d="m0,75.8828125l5.041015625-7.1015625-4.4814453125-6.3813476562v-.0600585938h3.1005859375l3.1005859375,4.5209960938,3.1005859375-4.5209960938h3.1015625v.0600585938l-4.4814453125,6.3813476562,5.041015625,7.1015625v.0600585938h-3.1005859375l-3.6611328125-5.2412109375-3.66015625,5.2412109375H0v-.0600585938Z"/><path d="m13.2578125,68.861328125h5.841796875v2.0405273438h-5.841796875v-2.0405273438Z"/><path d="m21.341796875,69.4814453125c0-4.6411132812,2.419921875-7.4213867188,6.2412109375-7.4213867188,2.1806640625,0,3.7607421875,1.0600585938,4.62109375,2.3403320312l-1.740234375,1.560546875c-.580078125-.900390625-1.6201171875-1.5405273438-2.880859375-1.5405273438-1.900390625,0-3.3408203125,1.3002929688-3.6005859375,3.7407226562.8203125-.8999023438,1.98046875-1.5400390625,3.541015625-1.5400390625,2.560546875,0,4.7607421875,1.8803710938,4.7607421875,4.7407226562,0,2.8608398438-2.380859375,4.861328125-5.28125,4.861328125-3.720703125,0-5.6611328125-2.8408203125-5.6611328125-6.7416992188Zm8.3212890625,1.9404296875c0-1.3403320312-1-2.4604492188-2.66015625-2.4604492188-1.640625,0-2.640625,1.1201171875-2.640625,2.4604492188,0,1.3203125,1,2.4404296875,2.640625,2.4404296875,1.66015625,0,2.66015625-1.1201171875,2.66015625-2.4404296875Z"/><path d="m36.720703125,65.2407226562l-2.48046875,1.3603515625-.9404296875-1.98046875,4.060546875-2.2807617188h1.900390625v13.6030273438h-2.5400390625v-10.7021484375Z"/><path d="m43.3466796875,76.8432617188h-1.400390625v-3.0610351562h3.080078125v2.7006835938l-1.3798828125,3.3208007812h-1.5l1.2001953125-2.9604492188Z"/><path d="m51.0654296875,73.8823242188h15.84375v2.220703125h-15.84375v-2.220703125Zm6.6220703125-11.9223632812h2.6005859375v1.2202148438c0,3.5405273438,2.560546875,5.1411132812,5.5009765625,6.0810546875l-.9599609375,2.0805664062c-2.48046875-.6201171875-5.041015625-2.3203125-5.841796875-4.2607421875-.759765625,1.9404296875-3.3203125,3.6806640625-5.8212890625,4.3408203125l-.9599609375-2.0805664062c2.900390625-.919921875,5.4814453125-2.6206054688,5.4814453125-6.1411132812v-1.240234375Z"/><path d="m67.6630859375,68.3813476562h15.86328125v1.98046875h-15.86328125v-1.98046875Zm3.9208984375-4.4609375h2.6005859375v.7202148438c0,.2797851562.01953125.5200195312.0595703125.7397460938h2.6806640625c.0400390625-.2197265625.080078125-.4599609375.080078125-.7397460938v-.7202148438h2.6005859375v.4599609375c0,.3999023438-.1201171875.740234375-.2998046875,1h2.2001953125v1.9008789062h-11.822265625v-1.9008789062h2.1806640625c-.16015625-.259765625-.2802734375-.6000976562-.2802734375-1v-.4599609375Zm-1.7001953125-2.380859375h11.421875v1.9404296875h-11.421875v-1.9404296875Zm.1201171875,9.9624023438h11.181640625v4.5810546875h-8.62109375v1h9.0615234375v1.900390625h-10.662109375c-.6005859375,0-.9599609375-.2397460938-.9599609375-.8198242188v-3.8608398438h8.62109375v-.9604492188h-8.62109375v-1.8403320312Z"/><path d="m85.310546875,62.4599609375h8.28125v6.7216796875h-5.720703125v2.5405273438h4.5009765625c1.48046875,0,2.8408203125-.2001953125,3.8408203125-.7202148438v-10.0825195312h2.560546875v17.2836914062h-2.560546875v-5.4409179688c-1.2607421875.8203125-3.060546875,1.1401367188-5.0615234375,1.1401367188h-4.861328125c-.6201171875,0-.9794921875-.2397460938-.9794921875-.8203125v-6.0009765625h5.7607421875v-2.4404296875h-5.7607421875v-2.1806640625Z"/><path d="m100.8251953125,74.0825195312h15.84375v2.2202148438h-15.84375v-2.2202148438Zm2.28125-11.8627929688h11.2822265625v2.1206054688h-8.7216796875v1.5805664062h8.341796875v2.0200195312h-8.341796875v1.6206054688h9.001953125v2.1206054688h-10.6025390625c-.6005859375,0-.9599609375-.2602539062-.9599609375-.8203125v-8.6420898438Z"/><path d="m117.4951171875,61.83984375h2.560546875v5.7412109375h4.4208984375c1.5205078125,0,2.900390625-.2001953125,3.9208984375-.740234375v-5.9213867188h2.560546875v10.0625h-2.560546875v-2.380859375c-1.2607421875.8403320312-3.12109375,1.140625-5.1416015625,1.140625h-4.78125c-.6201171875,0-.9794921875-.240234375-.9794921875-.8203125v-7.0815429688Zm2.3203125,10.08203125h11.142578125v6.5815429688h-2.560546875v-4.4008789062h-8.58203125v-2.1806640625Z"/><path d="m3.140625,86.2998046875h11.2822265625v8.501953125h-4.361328125v3.1206054688h6.6416015625v2.220703125H.859375v-2.220703125h6.6416015625v-3.1206054688h-3.400390625c-.6005859375,0-.9599609375-.2602539062-.9599609375-.8203125v-7.681640625Zm2.560546875,2.1806640625v4.140625h6.1611328125v-4.140625h-6.1611328125Z"/><path d="m18.0322265625,97.8823242188h15.84375v2.220703125h-15.84375v-2.220703125Zm6.6220703125-11.9223632812h2.6005859375v1.2202148438c0,3.5405273438,2.560546875,5.1411132812,5.5009765625,6.0810546875l-.9599609375,2.0805664062c-2.48046875-.6201171875-5.041015625-2.3203125-5.841796875-4.2607421875-.759765625,1.9404296875-3.3203125,3.6806640625-5.8212890625,4.3408203125l-.9599609375-2.0805664062c2.900390625-.919921875,5.4814453125-2.6206054688,5.4814453125-6.1411132812v-1.240234375Z"/><path d="m37.466796875,86.33984375h11.302734375v3.0805664062c0,3.8208007812-.2998046875,6.181640625-1.4404296875,8.421875h3.720703125v2.220703125h-15.84375v-2.220703125h9.962890625c.580078125-1.6000976562.83984375-3.220703125.939453125-4.9008789062-.6396484375.6401367188-1.9404296875.9204101562-3.720703125.9204101562h-5.140625v-2.0805664062h6.0009765625c1.16015625,0,2.240234375-.080078125,2.9404296875-.3603515625.0205078125-.3999023438.0205078125-.8198242188.0205078125-1.2602539062v-1.6401367188h-8.7421875v-2.1806640625Z"/><path d="m52.61328125,86.3598632812h2.5v3.4409179688h3.4013671875v-3.4409179688h2.4599609375v11.4423828125h-7.4013671875c-.599609375,0-.9599609375-.2397460938-.9599609375-.7998046875v-10.642578125Zm2.5,5.5810546875v3.6811523438h3.4013671875v-3.6811523438h-3.4013671875Zm8.1025390625-7.021484375h2.560546875v5.9013671875h2.3603515625v2.220703125h-2.3603515625v9.1616210938h-2.560546875v-17.2836914062Z"/><path d="m70.1474609375,100.8432617188h-1.400390625v-3.0610351562h3.080078125v2.7006835938l-1.3798828125,3.3208007812h-1.5l1.2001953125-2.9604492188Z"/><path d="m77.8662109375,97.9223632812h6.6416015625v-3.3208007812h2.560546875v3.3208007812h6.6416015625v2.220703125h-15.84375v-2.220703125Zm6.6220703125-11.9624023438h2.6005859375v1.2202148438c0,3.5405273438,2.560546875,5.1010742188,5.5009765625,6.041015625l-.9599609375,2.0805664062c-2.48046875-.6201171875-5.041015625-2.2802734375-5.841796875-4.220703125-.759765625,1.9404296875-3.3203125,3.640625-5.8212890625,4.30078125l-.9599609375-2.0805664062c2.900390625-.919921875,5.4814453125-2.5805664062,5.4814453125-6.1010742188v-1.240234375Z"/><path d="m94.888671875,85.9399414062h7.341796875v5.6411132812h-4.78125v1.66015625h1.66015625c1.640625,0,2.900390625-.099609375,3.98046875-.4599609375l.4609375,1.6005859375c-1.3603515625.7797851562-2.9609375.919921875-5.1611328125.919921875h-2.5205078125c-.6201171875,0-.98046875-.2397460938-.98046875-.8198242188v-4.8813476562h4.80078125v-1.580078125h-4.80078125v-2.0805664062Zm2.640625,10.58203125h2.560546875v3.6010742188h8.861328125v2.1801757812h-10.4619140625c-.6005859375,0-.9599609375-.259765625-.9599609375-.8198242188v-4.9614257812Zm5.880859375-9.2817382812h2.541015625v-2.3208007812h2.560546875v12.9428710938h-2.560546875v-4.9609375h-2.541015625v-2.0805664062h2.541015625v-1.5h-2.541015625v-2.0805664062Z"/><path d="m112.689453125,100.8432617188h-1.400390625v-3.0610351562h3.080078125v2.7006835938l-1.3798828125,3.3208007812h-1.5l1.2001953125-2.9604492188Z"/><path d="m123.1494140625,89.2407226562l-2.48046875,1.3603515625-.9404296875-1.98046875,4.060546875-2.2807617188h1.900390625v13.6030273438h-2.5400390625v-10.7021484375Z"/><path d="m138.8759765625,92.8012695312c0,4.6411132812-2.4208984375,7.421875-6.2412109375,7.421875-2.1806640625,0-3.7607421875-1.060546875-4.62109375-2.3408203125l1.740234375-1.5600585938c.580078125.8999023438,1.6201171875,1.5400390625,2.880859375,1.5400390625,1.900390625,0,3.3203125-1.2802734375,3.580078125-3.7407226562-.8193359375.900390625-1.9599609375,1.5405273438-3.5205078125,1.5405273438-2.560546875,0-4.7607421875-1.8803710938-4.7607421875-4.7412109375,0-2.8603515625,2.380859375-4.8608398438,5.28125-4.8608398438,3.720703125,0,5.6611328125,2.8403320312,5.6611328125,6.7412109375Zm-8.322265625-1.9404296875c0,1.3403320312,1.0009765625,2.4604492188,2.6611328125,2.4604492188,1.6396484375,0,2.640625-1.1201171875,2.640625-2.4604492188,0-1.3203125-1.0009765625-2.4404296875-2.640625-2.4404296875-1.66015625,0-2.6611328125,1.1201171875-2.6611328125,2.4404296875Z"/><path d="m139.7685546875,97.9423828125l1.48046875-1.7602539062c.6806640625.8002929688,1.740234375,1.6801757812,3.4404296875,1.6801757812,1.6806640625,0,2.9013671875-.9399414062,2.9013671875-2.48046875,0-1.4204101562-1.0810546875-2.3203125-2.5810546875-2.3203125-1.060546875,0-1.8603515625.33984375-2.5.8002929688l-1.6005859375-.5405273438.6396484375-6.9814453125h7.8818359375v2.2807617188h-5.6611328125l-.2802734375,2.3603515625c.5205078125-.16015625,1.0810546875-.2802734375,1.701171875-.2802734375,2.740234375,0,5.0009765625,1.5405273438,5.0009765625,4.6811523438,0,3.0405273438-2.2412109375,4.8413085938-5.501953125,4.8413085938-2.419921875,0-4.0400390625-1.2802734375-4.9208984375-2.2807617188Z"/><path d="m162.447265625,92.8012695312c0,4.6411132812-2.4208984375,7.421875-6.2412109375,7.421875-2.1806640625,0-3.7607421875-1.060546875-4.62109375-2.3408203125l1.740234375-1.5600585938c.580078125.8999023438,1.6201171875,1.5400390625,2.880859375,1.5400390625,1.900390625,0,3.3203125-1.2802734375,3.580078125-3.7407226562-.8193359375.900390625-1.9599609375,1.5405273438-3.5205078125,1.5405273438-2.560546875,0-4.7607421875-1.8803710938-4.7607421875-4.7412109375,0-2.8603515625,2.3798828125-4.8608398438,5.28125-4.8608398438,3.720703125,0,5.6611328125,2.8403320312,5.6611328125,6.7412109375Zm-8.322265625-1.9404296875c0,1.3403320312,1.0009765625,2.4604492188,2.6611328125,2.4604492188,1.6396484375,0,2.640625-1.1201171875,2.640625-2.4604492188,0-1.3203125-1.0009765625-2.4404296875-2.640625-2.4404296875-1.66015625,0-2.6611328125,1.1201171875-2.6611328125,2.4404296875Z"/><path d="m.0546875,118.8012695312l3.5302734375-4.97265625-3.1376953125-4.4682617188v-.0424804688h2.1708984375l2.1708984375,3.166015625,2.1708984375-3.166015625h2.171875v.0424804688l-3.1376953125,4.4682617188,3.529296875,4.97265625v.0419921875h-2.1708984375l-2.5634765625-3.669921875-2.5634765625,3.669921875H.0546875v-.0419921875Z"/><path d="m9.2939453125,113.884765625h4.08984375v1.4287109375h-4.08984375v-1.4287109375Z"/><path d="m14.900390625,114.3188476562c0-3.25,1.6953125-5.1967773438,4.3701171875-5.1967773438,1.52734375,0,2.6337890625.7421875,3.236328125,1.638671875l-1.21875,1.0927734375c-.40625-.6303710938-1.134765625-1.0786132812-2.017578125-1.0786132812-1.330078125,0-2.3388671875.9106445312-2.521484375,2.6196289062.5751953125-.6303710938,1.3876953125-1.0786132812,2.4794921875-1.0786132812,1.79296875,0,3.333984375,1.31640625,3.333984375,3.3198242188,0,2.0029296875-1.6669921875,3.4038085938-3.6982421875,3.4038085938-2.60546875,0-3.9638671875-1.9892578125-3.9638671875-4.720703125Zm5.8271484375,1.3588867188c0-.9384765625-.7001953125-1.7231445312-1.86328125-1.7231445312-1.1484375,0-1.8486328125.7846679688-1.8486328125,1.7231445312,0,.9243164062.7001953125,1.7084960938,1.8486328125,1.7084960938,1.1630859375,0,1.86328125-.7841796875,1.86328125-1.7084960938Z"/><path d="m25.615234375,111.3491210938l-1.7373046875.9526367188-.658203125-1.38671875,2.84375-1.5971679688h1.330078125v9.525390625h-1.7783203125v-7.494140625Z"/><path d="m30.2021484375,119.4736328125h-.98046875v-2.1430664062h2.1572265625v1.8911132812l-.966796875,2.3251953125h-1.0498046875l.83984375-2.0732421875Z"/><path d="m35.1708984375,116.8823242188l1.19140625-1.1625976562c.5458984375.8544921875,1.470703125,1.6806640625,2.9130859375,1.6806640625,1.1767578125,0,1.79296875-.5883789062,1.79296875-1.3305664062,0-.6025390625-.419921875-1.064453125-1.541015625-1.2329101562l-.826171875-.1259765625c-1.6806640625-.251953125-2.8154296875-1.21875-2.8154296875-2.689453125,0-1.6108398438,1.31640625-2.8994140625,3.4462890625-2.8994140625,1.470703125,0,2.6748046875.6440429688,3.361328125,1.5405273438l-1.162109375,1.205078125c-.5888671875-.728515625-1.38671875-1.1069335938-2.2412109375-1.1069335938-.953125,0-1.513671875.5043945312-1.513671875,1.0786132812,0,.560546875.4208984375.966796875,1.2470703125,1.0927734375l.8125.1259765625c1.9609375.2939453125,3.109375,1.2749023438,3.109375,2.8857421875,0,1.8349609375-1.4990234375,3.095703125-3.697265625,3.095703125-2.19921875,0-3.404296875-1.134765625-4.0771484375-2.1572265625Z"/><path d="m44.1669921875,111.6293945312h1.7783203125v.8544921875c.5185546875-.6025390625,1.3173828125-1.0224609375,2.26953125-1.0224609375,1.9892578125,0,3.4599609375,1.4985351562,3.4599609375,3.7817382812s-1.470703125,3.7680664062-3.4599609375,3.7680664062c-.9521484375,0-1.7509765625-.40625-2.26953125-1.0083007812v3.263671875h-1.7783203125v-9.6372070312Zm5.701171875,3.6137695312c0-1.400390625-.896484375-2.19921875-2.0595703125-2.19921875-.798828125,0-1.541015625.40625-1.86328125,1.0927734375v2.2133789062c.322265625.6723632812,1.064453125,1.0786132812,1.86328125,1.0786132812,1.1630859375,0,2.0595703125-.798828125,2.0595703125-2.185546875Z"/><path d="m52.888671875,108.8979492188h1.7783203125v9.9453125h-1.7783203125v-9.9453125Z"/><path d="m56.22265625,108.5615234375h1.8212890625v1.8491210938h-1.8212890625v-1.8491210938Zm.0283203125,3.0678710938h1.7783203125v7.2138671875h-1.7783203125v-7.2138671875Z"/><path d="m60.0771484375,116.083984375v-3.0258789062h-1.205078125v-1.4287109375h1.2607421875v-1.8349609375h1.72265625v1.8349609375h1.6669921875v1.4287109375h-1.6669921875v3.1098632812c0,.9243164062.4345703125,1.2465820312,1.3310546875,1.2465820312h.3359375v1.4287109375c-.23828125.0561523438-.5322265625.083984375-.7978515625.083984375-1.7509765625,0-2.6474609375-.8681640625-2.6474609375-2.8432617188Z"/><path d="m64.681640625,111.6293945312h1.7783203125v1.0083007812c.392578125-.6440429688,1.1630859375-1.1762695312,2.283203125-1.1762695312,1.876953125,0,2.74609375,1.2885742188,2.74609375,3.1376953125v4.244140625h-1.779296875v-4.0483398438c0-1.1484375-.5458984375-1.7509765625-1.5966796875-1.7509765625-.8828125,0-1.470703125.6025390625-1.6533203125,1.2607421875v4.5385742188h-1.7783203125v-7.2138671875Z"/><path d="m72.9755859375,108.5615234375h1.8212890625v1.8491210938h-1.8212890625v-1.8491210938Zm.0283203125,3.0678710938h1.7783203125v7.2138671875h-1.7783203125v-7.2138671875Z"/><path d="m76.3662109375,108.8979492188h1.7783203125v5.798828125l2.7880859375-3.0673828125h2.03125v.0561523438l-2.74609375,3.025390625,3.0537109375,4.0903320312v.0419921875h-2.1005859375l-2.0732421875-2.8994140625-.953125,1.0502929688v1.8491210938h-1.7783203125v-9.9453125Z"/><path d="m1.216796875,126.1176757812h2.4375l2.830078125,7.1860351562,2.8427734375-7.1860351562h2.4375v9.525390625h-1.8203125v-6.7377929688l-2.6337890625,6.7377929688h-1.638671875l-2.6337890625-6.7377929688v6.7377929688h-1.8212890625v-9.525390625Z"/><path d="m13.154296875,132.04296875c0-1.9750976562,1.31640625-3.7817382812,3.82421875-3.7817382812,2.5068359375,0,3.8232421875,1.806640625,3.8232421875,3.7817382812,0,1.9892578125-1.31640625,3.7963867188-3.8232421875,3.7963867188-2.5078125,0-3.82421875-1.8071289062-3.82421875-3.7963867188Zm1.806640625,0c0,1.3447265625.8544921875,2.2133789062,2.017578125,2.2133789062,1.162109375,0,2.0166015625-.8686523438,2.0166015625-2.2133789062,0-1.3305664062-.8544921875-2.19921875-2.0166015625-2.19921875-1.1630859375,0-2.017578125.8686523438-2.017578125,2.19921875Z"/><path d="m21.25390625,134.4243164062l.9658203125-1.1206054688c.4765625.5883789062,1.2890625,1.0786132812,2.1435546875,1.0786132812.7705078125,0,1.31640625-.3081054688,1.31640625-.8403320312,0-.4760742188-.4345703125-.6723632812-1.1201171875-.7846679688l-.64453125-.09765625c-1.3447265625-.2241210938-2.1572265625-.966796875-2.1572265625-2.1435546875,0-1.2465820312,1.064453125-2.2548828125,2.87109375-2.2548828125,1.134765625,0,2.00390625.4760742188,2.5361328125,1.0922851562l-.9384765625,1.134765625c-.462890625-.490234375-1.0087890625-.7705078125-1.6669921875-.7705078125-.6728515625,0-1.0224609375.3081054688-1.0224609375.7006835938,0,.3637695312.279296875.5600585938.7978515625.6440429688l.64453125.0981445312c1.6533203125.251953125,2.4794921875,1.0224609375,2.4794921875,2.283203125,0,1.302734375-1.134765625,2.3955078125-3.166015625,2.3955078125-1.3447265625,0-2.380859375-.6303710938-3.0390625-1.4150390625Z"/><path d="m28.1689453125,132.04296875c0-1.9750976562,1.3583984375-3.7817382812,3.75390625-3.7817382812,1.45703125,0,2.5068359375.6723632812,3.2080078125,1.79296875l-1.2607421875.9663085938c-.392578125-.6865234375-.9951171875-1.1767578125-1.849609375-1.1767578125-1.232421875,0-2.044921875.8544921875-2.044921875,2.19921875,0,1.3310546875.8125,2.185546875,2.044921875,2.185546875.8544921875,0,1.45703125-.4907226562,1.849609375-1.1767578125l1.2607421875.9663085938c-.701171875,1.1206054688-1.7509765625,1.79296875-3.2080078125,1.79296875-2.3955078125,0-3.75390625-1.806640625-3.75390625-3.7680664062Z"/><path d="m35.66015625,132.04296875c0-1.9750976562,1.31640625-3.7817382812,3.82421875-3.7817382812,2.5068359375,0,3.8232421875,1.806640625,3.8232421875,3.7817382812,0,1.9892578125-1.31640625,3.7963867188-3.8232421875,3.7963867188-2.5078125,0-3.82421875-1.8071289062-3.82421875-3.7963867188Zm1.806640625,0c0,1.3447265625.8544921875,2.2133789062,2.017578125,2.2133789062,1.162109375,0,2.0166015625-.8686523438,2.0166015625-2.2133789062,0-1.3305664062-.8544921875-2.19921875-2.0166015625-2.19921875-1.1630859375,0-2.017578125.8686523438-2.017578125,2.19921875Z"/><path d="m43.50390625,128.4291992188h1.904296875l1.443359375,4.818359375,1.638671875-4.818359375h1.890625l1.6396484375,4.818359375,1.4423828125-4.818359375h1.9052734375l-2.3671875,7.2138671875h-1.779296875l-1.79296875-5.0146484375-1.779296875,5.0146484375h-1.7783203125l-2.3671875-7.2138671875Z"/><path d="m56.5244140625,136.2734375h-.98046875v-2.1430664062h2.1572265625v1.8911132812l-.966796875,2.3251953125h-1.0498046875l.83984375-2.0732421875Z"/><path d="m62.08203125,131.5810546875v-5.4633789062h1.8203125v5.3369140625c0,1.625.64453125,2.689453125,2.2275390625,2.689453125,1.5693359375,0,2.212890625-1.064453125,2.212890625-2.689453125v-5.3369140625h1.8212890625v5.4633789062c0,2.451171875-1.3447265625,4.2583007812-4.0341796875,4.2583007812-2.703125,0-4.0478515625-1.8071289062-4.0478515625-4.2583007812Z"/><path d="m71.0654296875,133.6821289062l1.19140625-1.1625976562c.5458984375.8544921875,1.470703125,1.6806640625,2.9130859375,1.6806640625,1.1767578125,0,1.79296875-.5883789062,1.79296875-1.3305664062,0-.6025390625-.419921875-1.064453125-1.541015625-1.2329101562l-.826171875-.1259765625c-1.6806640625-.251953125-2.8154296875-1.21875-2.8154296875-2.689453125,0-1.6108398438,1.31640625-2.8994140625,3.4462890625-2.8994140625,1.470703125,0,2.6748046875.6440429688,3.361328125,1.5405273438l-1.162109375,1.205078125c-.5888671875-.728515625-1.38671875-1.1069335938-2.2412109375-1.1069335938-.953125,0-1.513671875.5043945312-1.513671875,1.0786132812,0,.560546875.4208984375.966796875,1.2470703125,1.0927734375l.8125.1259765625c1.9609375.2939453125,3.109375,1.2749023438,3.109375,2.8857421875,0,1.8349609375-1.4990234375,3.095703125-3.697265625,3.095703125-2.19921875,0-3.404296875-1.134765625-4.0771484375-2.1572265625Z"/><path d="m79.51953125,133.6821289062l1.19140625-1.1625976562c.5458984375.8544921875,1.470703125,1.6806640625,2.9130859375,1.6806640625,1.1767578125,0,1.79296875-.5883789062,1.79296875-1.3305664062,0-.6025390625-.419921875-1.064453125-1.541015625-1.2329101562l-.826171875-.1259765625c-1.6806640625-.251953125-2.8154296875-1.21875-2.8154296875-2.689453125,0-1.6108398438,1.31640625-2.8994140625,3.4462890625-2.8994140625,1.470703125,0,2.6748046875.6440429688,3.361328125,1.5405273438l-1.162109375,1.205078125c-.5888671875-.728515625-1.3876953125-1.1069335938-2.2412109375-1.1069335938-.953125,0-1.513671875.5043945312-1.513671875,1.0786132812,0,.560546875.4208984375.966796875,1.2470703125,1.0927734375l.8125.1259765625c1.9609375.2939453125,3.109375,1.2749023438,3.109375,2.8857421875,0,1.8349609375-1.4990234375,3.095703125-3.6982421875,3.095703125-2.1982421875,0-3.4033203125-1.134765625-4.076171875-2.1572265625Z"/><path d="m92.044921875,131.791015625h-1.5126953125v3.8520507812h-1.8212890625v-9.525390625h4.23046875c1.8349609375,0,3.15234375,1.0786132812,3.15234375,2.84375,0,1.4008789062-.8271484375,2.3671875-2.087890625,2.7036132812l3.08203125,3.9360351562v.0419921875h-2.185546875l-2.857421875-3.8520507812Zm.7001953125-1.5830078125c.966796875,0,1.4716796875-.4619140625,1.4716796875-1.2465820312,0-.7841796875-.5048828125-1.2465820312-1.4716796875-1.2465820312h-2.212890625v2.4931640625h2.212890625Z"/><path d="m99.0498046875,136.2734375h-.98046875v-2.1430664062h2.1572265625v1.8911132812l-.966796875,2.3251953125h-1.0498046875l.83984375-2.0732421875Z"/><path d="m106.232421875,128.1489257812l-1.7373046875.9526367188-.658203125-1.38671875,2.84375-1.5971679688h1.330078125v9.525390625h-1.7783203125v-7.494140625Z"/><path d="m117.193359375,130.642578125c0,3.2495117188-1.6943359375,5.1967773438-4.3701171875,5.1967773438-1.52734375,0-2.6337890625-.7426757812-3.236328125-1.6391601562l1.21875-1.0922851562c.40625.6298828125,1.134765625,1.078125,2.017578125,1.078125,1.3310546875,0,2.3251953125-.896484375,2.5068359375-2.619140625-.57421875.6303710938-1.3720703125,1.0786132812-2.46484375,1.0786132812-1.79296875,0-3.333984375-1.3168945312-3.333984375-3.3198242188s1.6669921875-3.4038085938,3.6982421875-3.4038085938c2.60546875,0,3.9638671875,1.9887695312,3.9638671875,4.720703125Zm-5.8271484375-1.3588867188c0,.9384765625.7001953125,1.72265625,1.86328125,1.72265625,1.1484375,0,1.8486328125-.7841796875,1.8486328125-1.72265625,0-.9248046875-.7001953125-1.708984375-1.8486328125-1.708984375-1.1630859375,0-1.86328125.7841796875-1.86328125,1.708984375Z"/><path d="m117.7685546875,134.2421875l1.037109375-1.232421875c.4755859375.5600585938,1.2177734375,1.1762695312,2.4091796875,1.1762695312,1.1767578125,0,2.03125-.658203125,2.03125-1.7368164062,0-.9946289062-.7568359375-1.6245117188-1.8076171875-1.6245117188-.7421875,0-1.302734375.2377929688-1.7509765625.5600585938l-1.1201171875-.3784179688.4482421875-4.888671875h5.5185546875v1.5971679688h-3.9638671875l-.1962890625,1.6528320312c.3642578125-.1123046875.7568359375-.1962890625,1.1904296875-.1962890625,1.9189453125,0,3.501953125,1.0786132812,3.501953125,3.2778320312,0,2.1293945312-1.568359375,3.3901367188-3.8515625,3.3901367188-1.6953125,0-2.830078125-.896484375-3.4462890625-1.5971679688Z"/><path d="m133.5966796875,130.642578125c0,3.2495117188-1.6943359375,5.1967773438-4.3701171875,5.1967773438-1.52734375,0-2.6337890625-.7426757812-3.236328125-1.6391601562l1.21875-1.0922851562c.40625.6298828125,1.134765625,1.078125,2.017578125,1.078125,1.3310546875,0,2.3251953125-.896484375,2.5068359375-2.619140625-.57421875.6303710938-1.3720703125,1.0786132812-2.46484375,1.0786132812-1.79296875,0-3.333984375-1.3168945312-3.333984375-3.3198242188s1.6669921875-3.4038085938,3.6982421875-3.4038085938c2.60546875,0,3.9638671875,1.9887695312,3.9638671875,4.720703125Zm-5.8271484375-1.3588867188c0,.9384765625.7001953125,1.72265625,1.86328125,1.72265625,1.1484375,0,1.8486328125-.7841796875,1.8486328125-1.72265625,0-.9248046875-.7001953125-1.708984375-1.8486328125-1.708984375-1.1630859375,0-1.86328125.7841796875-1.86328125,1.708984375Z"/><rect class="cls-1" x="0" y="0" width="318.1005859375" height="138.3466796875"/></g></svg>