<?xml version="1.0" encoding="UTF-8"?><svg id="_레이어_2" xmlns="http://www.w3.org/2000/svg" viewBox="0 0 318.1005859375 138.3466796875"><defs><style>.cls-1{fill:none;}</style></defs><g id="Layer_1"><path d="m2.6494140625.7802734375h11.2822265625v2.1806640625c0,2.0805664062-.2998046875,4.3208007812-1.1796875,5.9814453125h3.560546875v2.2202148438h-6.6416015625v6.201171875h-2.560546875v-6.201171875H.46875v-2.2202148438h10.123046875c.6201171875-1.6606445312.779296875-3.880859375.779296875-5.4013671875v-.5400390625H2.6494140625V.7802734375Z"/><path d="m19.103515625,1.3002929688h11.2822265625v5.681640625h-8.7421875v1.580078125h9.0224609375v2.1206054688h-4.6416015625v2.5205078125h6.6416015625v2.2202148438h-15.84375v-2.2202148438h6.6416015625v-2.5205078125h-3.400390625c-.6005859375,0-.9599609375-.2602539062-.9599609375-.8203125v-4.9008789062h8.7412109375v-1.5405273438h-8.7412109375V1.3002929688Z"/><path d="m34.5634765625,1.5805664062h8.08203125v1.5805664062c0,5.3608398438-2.8203125,8.4013671875-7.9013671875,10.4819335938l-1.12109375-2.1401367188c2.4208984375-.9404296875,4.341796875-2.1806640625,5.4619140625-3.9609375-.5400390625.2998046875-1.2802734375.4799804688-2.2412109375.4799804688h-2.7197265625v-2.0805664062h5.640625c.220703125-.6401367188.3203125-1.3603515625.3203125-2.1401367188h-5.521484375V1.5805664062Zm10.40234375-1.5805664062h2.560546875v5.94140625h2.3408203125v2.220703125h-2.3408203125v9.1215820312h-2.560546875V0Z"/><path d="m62.16015625,0h2.560546875v6.26171875h2.240234375v2.2001953125h-2.240234375v8.8217773438h-2.560546875v-4.30078125c-1.3408203125.7802734375-3.1611328125.9604492188-5.08203125.9604492188h-6.4609375v-2.2407226562h4.1611328125v-2.5004882812c-2.1806640625-.419921875-3.5009765625-1.98046875-3.5009765625-4.1206054688,0-2.5405273438,1.8603515625-4.2612304688,4.78125-4.2612304688s4.720703125,1.720703125,4.720703125,4.2612304688c0,2.1401367188-1.2998046875,3.7006835938-3.4404296875,4.1206054688v2.5004882812h.9599609375c1.5,0,2.8203125-.1000976562,3.861328125-.5600585938V0Zm-6.1015625,7.1616210938c1.3203125,0,2.220703125-.7998046875,2.220703125-2.080078125,0-1.3002929688-.900390625-2.0805664062-2.220703125-2.0805664062-1.3408203125,0-2.220703125.7802734375-2.220703125,2.0805664062,0,1.2802734375.8798828125,2.080078125,2.220703125,2.080078125Z"/><path d="m73.13671875,1.5805664062h8.2216796875v1.48046875c0,5.0009765625-2.8203125,8.341796875-7.9814453125,10.3818359375l-1.060546875-2.2001953125c3.8203125-1.4604492188,6.4814453125-4.12109375,6.4814453125-7.44140625h-5.6611328125V1.5805664062Zm10.90234375-1.5805664062h2.560546875v17.2836914062h-2.560546875V0Z"/><path d="m88.6513671875,13.0029296875h4.1015625v-2.900390625h2.5205078125v2.900390625h2.6005859375v-2.900390625h2.5205078125v2.900390625h4.1005859375v2.220703125h-15.84375v-2.220703125Zm6.6220703125-11.9624023438h2.6005859375v1.0200195312c0,3.4609375,2.560546875,5.0009765625,5.5009765625,5.8413085938l-.9599609375,2.1005859375c-2.48046875-.580078125-5.0615234375-2.1206054688-5.841796875-4.0810546875-.759765625,1.9604492188-3.3203125,3.541015625-5.8212890625,4.1611328125l-.9599609375-2.0805664062c2.900390625-.8603515625,5.4814453125-2.48046875,5.4814453125-5.9213867188v-1.0400390625Z"/><path d="m.826171875,24.3984375h1.8212890625v4.46875l3.8525390625-4.46875h2.19921875v.0424804688l-3.5302734375,3.9916992188,3.7255859375,5.44921875v.0419921875h-2.12890625l-2.8017578125-4.1181640625-1.31640625,1.4848632812v2.6333007812H.826171875v-9.525390625Z"/><path d="m9.626953125,23.6420898438h1.8212890625v1.8491210938h-1.8212890625v-1.8491210938Zm.0283203125,3.0678710938h1.7783203125v7.2138671875h-1.7783203125v-7.2138671875Z"/><path d="m12.376953125,32.705078125l.9658203125-1.1206054688c.4765625.5883789062,1.2890625,1.0786132812,2.1435546875,1.0786132812.7705078125,0,1.31640625-.3081054688,1.31640625-.8403320312,0-.4760742188-.4345703125-.6723632812-1.1201171875-.7846679688l-.64453125-.09765625c-1.3447265625-.2241210938-2.1572265625-.966796875-2.1572265625-2.1435546875,0-1.2465820312,1.064453125-2.2548828125,2.87109375-2.2548828125,1.134765625,0,2.00390625.4760742188,2.5361328125,1.0922851562l-.9384765625,1.134765625c-.462890625-.490234375-1.0087890625-.7705078125-1.6669921875-.7705078125-.6728515625,0-1.0224609375.3081054688-1.0224609375.7006835938,0,.3637695312.279296875.5600585938.7978515625.6440429688l.64453125.0981445312c1.6533203125.251953125,2.4794921875,1.0224609375,2.4794921875,2.283203125,0,1.302734375-1.134765625,2.3955078125-3.166015625,2.3955078125-1.3447265625,0-2.380859375-.6303710938-3.0390625-1.4150390625Z"/><path d="m19.71875,23.978515625h1.7783203125v3.7397460938c.392578125-.6440429688,1.1630859375-1.1762695312,2.283203125-1.1762695312,1.876953125,0,2.74609375,1.2885742188,2.74609375,3.1376953125v4.244140625h-1.779296875v-4.0483398438c0-1.1484375-.5458984375-1.7509765625-1.5966796875-1.7509765625-.953125,0-1.4990234375.7006835938-1.6533203125,1.2607421875v4.5385742188h-1.7783203125v-9.9453125Z"/><path d="m27.6640625,30.3237304688c0-1.9750976562,1.31640625-3.7817382812,3.82421875-3.7817382812,2.5068359375,0,3.8232421875,1.806640625,3.8232421875,3.7817382812,0,1.9892578125-1.31640625,3.7963867188-3.8232421875,3.7963867188-2.5078125,0-3.82421875-1.8071289062-3.82421875-3.7963867188Zm1.400390625-6.2890625h4.8466796875v1.2885742188h-4.8466796875v-1.2885742188Zm.40625,6.2890625c0,1.3447265625.8544921875,2.2133789062,2.017578125,2.2133789062,1.162109375,0,2.0166015625-.8686523438,2.0166015625-2.2133789062,0-1.3305664062-.8544921875-2.19921875-2.0166015625-2.19921875-1.1630859375,0-2.017578125.8686523438-2.017578125,2.19921875Z"/><path d="m39.6474609375,24.3984375h1.8212890625v4.46875l3.8525390625-4.46875h2.19921875v.0424804688l-3.5302734375,3.9916992188,3.7255859375,5.44921875v.0419921875h-2.12890625l-2.8017578125-4.1181640625-1.31640625,1.4848632812v2.6333007812h-1.8212890625v-9.525390625Z"/><path d="m54.779296875,33.923828125h-1.779296875v-1.0087890625c-.392578125.64453125-1.1630859375,1.1767578125-2.283203125,1.1767578125-1.876953125,0-2.7451171875-1.2885742188-2.7451171875-3.1376953125v-4.244140625h1.7783203125v4.0483398438c0,1.1484375.546875,1.7509765625,1.5966796875,1.7509765625.8828125,0,1.4716796875-.6025390625,1.6533203125-1.2607421875v-4.5385742188h1.779296875v7.2138671875Z"/><path d="m56.3662109375,26.7099609375h1.7783203125v1.1206054688c.4208984375-.7705078125,1.12109375-1.2885742188,2.0732421875-1.2885742188h.2099609375v1.6948242188c-1.064453125.0141601562-1.9326171875.322265625-2.283203125,1.4008789062v4.2861328125h-1.7783203125v-7.2138671875Z"/><path d="m60.8515625,30.3237304688c0-1.9750976562,1.31640625-3.7817382812,3.82421875-3.7817382812,2.5068359375,0,3.8232421875,1.806640625,3.8232421875,3.7817382812,0,1.9892578125-1.31640625,3.7963867188-3.8232421875,3.7963867188-2.5078125,0-3.82421875-1.8071289062-3.82421875-3.7963867188Zm1.806640625,0c0,1.3447265625.8544921875,2.2133789062,2.017578125,2.2133789062,1.162109375,0,2.0166015625-.8686523438,2.0166015625-2.2133789062,0-1.3305664062-.8544921875-2.19921875-2.0166015625-2.19921875-1.1630859375,0-2.017578125.8686523438-2.017578125,2.19921875Z"/><path d="m69.6884765625,23.978515625h1.7783203125v5.798828125l2.7880859375-3.0673828125h2.03125v.0561523438l-2.74609375,3.025390625,3.0537109375,4.0903320312v.0419921875h-2.1005859375l-2.0732421875-2.8994140625-.953125,1.0502929688v1.8491210938h-1.7783203125v-9.9453125Z"/><path d="m82.2578125,33.0971679688c-.5322265625.6025390625-1.3173828125.9946289062-2.255859375.9946289062-2.0029296875,0-3.4736328125-1.4848632812-3.4736328125-3.7680664062s1.470703125-3.7817382812,3.4736328125-3.7817382812c.9384765625,0,1.7236328125.40625,2.255859375,1.0083007812v-.8403320312h1.7783203125v7.2138671875h-1.7783203125v-.8266601562Zm0-1.6665039062v-2.2133789062c-.322265625-.6865234375-1.0654296875-1.0927734375-1.86328125-1.0927734375-1.1630859375,0-2.0595703125.798828125-2.0595703125,2.19921875,0,1.38671875.896484375,2.185546875,2.0595703125,2.185546875.7978515625,0,1.541015625-.40625,1.86328125-1.0786132812Z"/><path d="m84.849609375,26.7099609375h1.904296875l1.443359375,4.818359375,1.638671875-4.818359375h1.890625l1.6396484375,4.818359375,1.4423828125-4.818359375h1.9052734375l-2.3671875,7.2138671875h-1.779296875l-1.79296875-5.0146484375-1.779296875,5.0146484375h-1.7783203125l-2.3671875-7.2138671875Z"/><path d="m102.650390625,33.0971679688c-.5322265625.6025390625-1.3173828125.9946289062-2.255859375.9946289062-2.0029296875,0-3.4736328125-1.4848632812-3.4736328125-3.7680664062s1.470703125-3.7817382812,3.4736328125-3.7817382812c.9384765625,0,1.7236328125.40625,2.255859375,1.0083007812v-.8403320312h1.7783203125v7.2138671875h-1.7783203125v-.8266601562Zm0-1.6665039062v-2.2133789062c-.322265625-.6865234375-1.0654296875-1.0927734375-1.86328125-1.0927734375-1.1630859375,0-2.0595703125.798828125-2.0595703125,2.19921875,0,1.38671875.896484375,2.185546875,2.0595703125,2.185546875.7978515625,0,1.541015625-.40625,1.86328125-1.0786132812Z"/><path d="m1.1494140625,62.3798828125h2.560546875v8.8818359375h4.140625c1.5205078125,0,2.900390625-.1997070312,3.9208984375-.740234375v-9.6020507812h2.560546875v5.7612304688h2.3408203125v2.2006835938h-2.3408203125v9.3217773438h-2.560546875v-5.8608398438c-1.259765625.83984375-3.1201171875,1.1401367188-5.140625,1.1401367188H2.1298828125c-.6201171875,0-.98046875-.240234375-.98046875-.8203125v-10.2822265625Z"/><path d="m18.4921875,62.5h8.08203125v1.5805664062c0,5.3608398438-2.8203125,8.4013671875-7.9013671875,10.4819335938l-1.1201171875-2.1401367188c2.419921875-.9404296875,4.3408203125-2.1806640625,5.4609375-3.9609375-.5400390625.2998046875-1.2802734375.4799804688-2.2412109375.4799804688h-2.7197265625v-2.0805664062h5.640625c.220703125-.6401367188.3203125-1.3603515625.3203125-2.1401367188h-5.521484375v-2.220703125Zm10.40234375-1.5805664062h2.560546875v5.94140625h2.3408203125v2.220703125h-2.3408203125v9.1215820312h-2.560546875v-17.2836914062Z"/><path d="m35.5283203125,61.9599609375h8.9013671875v2.1801757812h-3.140625c.1201171875,2.0004882812,1.4208984375,3.9409179688,3.861328125,5.0810546875l-1.220703125,1.9604492188c-1.98046875-.8999023438-3.30078125-2.2602539062-3.8203125-3.6005859375-.5205078125,1.4204101562-1.8603515625,2.9604492188-4.060546875,4.0209960938-.4208984375-.66015625-.8408203125-1.3203125-1.240234375-1.98046875,2.6396484375-1.2602539062,3.720703125-3.3208007812,3.8603515625-5.4814453125h-3.140625v-2.1801757812Zm2.880859375,10.3623046875h2.560546875v3.7807617188h8.681640625v2.1801757812h-10.2822265625c-.6005859375,0-.9599609375-.2397460938-.9599609375-.8198242188v-5.1411132812Zm8.2412109375-11.4028320312h2.560546875v12.9428710938h-2.560546875v-12.9428710938Z"/><path d="m56.9072265625,61.83984375h6.541015625v1.560546875c0,4.0405273438-2,6.1010742188-6.3212890625,7.3813476562l-.939453125-2.0004882812c2-.580078125,3.400390625-1.2602539062,4.140625-2.3403320312-.419921875.33984375-1.060546875.5200195312-1.9404296875.5200195312h-1.900390625v-1.98046875h4.4208984375l.080078125-.7001953125v-.3198242188h-4.0810546875v-2.1206054688Zm3.140625,9.2822265625h2.560546875v1.5h6.041015625v-1.5h2.560546875v7.3212890625h-10.2021484375c-.599609375,0-.9599609375-.240234375-.9599609375-.8203125v-6.5009765625Zm2.560546875,3.6206054688v1.5205078125h6.041015625v-1.5205078125h-6.041015625Zm2.060546875-13.623046875h2.4208984375v3.5610351562h1.6796875v-3.7612304688h2.4404296875v9.3823242188h-2.4404296875v-3.5009765625h-1.6796875v3.4008789062h-2.4208984375v-9.08203125Z"/><path d="m73.0244140625,68.041015625h15.84375v2.0004882812h-4.041015625v1.3603515625h1.720703125v4.6411132812h-8.6416015625v1.0600585938h9.08203125v1.900390625h-10.6826171875c-.6005859375,0-.9599609375-.259765625-.9599609375-.8203125v-3.9204101562h8.6416015625v-1.0004882812h-8.6416015625v-1.8603515625h1.7197265625v-1.3603515625h-4.041015625v-2.0004882812Zm1.4404296875-2.7202148438c3.1806640625-.48046875,5.181640625-1.5805664062,5.181640625-3.8408203125v-.3002929688h2.6005859375v.3002929688c0,2.2602539062,1.98046875,3.3002929688,5.201171875,3.80078125l-.6005859375,2.0600585938c-2.5205078125-.2998046875-5.1005859375-1.33984375-5.9013671875-2.9604492188-.7998046875,1.640625-3.3408203125,2.7006835938-5.880859375,3.0205078125l-.6005859375-2.080078125Zm5.12109375,4.720703125v1.3603515625h2.720703125v-1.3603515625h-2.720703125Z"/><path d="m95.2041015625,62.4599609375h8.421875v2.1806640625h-5.861328125v2.400390625h5.361328125v2.1206054688h-5.361328125v2.560546875h4.1806640625c1.5,0,2.8603515625-.1801757812,3.880859375-.7202148438v-10.0825195312h2.560546875v5.9614257812h2.3408203125v2.2006835938h-2.3408203125v9.1215820312h-2.560546875v-5.4409179688c-1.259765625.8403320312-3.1005859375,1.1401367188-5.12109375,1.1401367188h-4.5205078125c-.6201171875,0-.98046875-.2397460938-.98046875-.8203125v-10.6220703125Z"/><path d="m111.5859375,70.0615234375h5.94140625c1.599609375,0,3.80078125-.080078125,5.041015625-.5400390625l.2802734375,1.7802734375c-1.2001953125.6801757812-2.9609375.900390625-4.8017578125.9604492188v5.6411132812h-2.560546875v-5.62109375h-3.900390625v-2.220703125Zm5.4208984375-8.5219726562c2.720703125,0,4.6015625,1.6806640625,4.6015625,3.8212890625,0,2.2602539062-1.880859375,3.8208007812-4.6015625,3.8208007812s-4.62109375-1.560546875-4.62109375-3.8208007812c0-2.140625,1.900390625-3.8212890625,4.62109375-3.8212890625Zm0,5.4614257812c1.2802734375,0,2.1005859375-.6201171875,2.1005859375-1.6401367188,0-1.0405273438-.8203125-1.640625-2.1005859375-1.640625s-2.1005859375.6000976562-2.1005859375,1.640625c0,1.0200195312.8203125,1.6401367188,2.1005859375,1.6401367188Zm6.4013671875-6.0815429688h2.560546875v17.2836914062h-2.560546875v-2.5405273438h-3.30078125v-2.1201171875h3.30078125v-12.623046875Z"/><path d="m2.75,86.2998046875h11.2822265625v2.220703125H5.310546875v3.9809570312h8.921875v2.2202148438h-4.5615234375v3.2006835938h6.6416015625v2.220703125H.46875v-2.220703125h6.6416015625v-3.2006835938h-3.400390625c-.6005859375,0-.9599609375-.259765625-.9599609375-.8203125v-7.6015625Z"/><path d="m20.962890625,94.4018554688h2.4599609375v3.5205078125h1.4609375v-3.5205078125h2.4599609375v3.5205078125h6.1416015625v2.220703125h-15.84375v-2.220703125h3.3212890625v-3.5205078125Zm-1.220703125-8.1020507812h11.54296875v2.4008789062c0,2.3603515625-.220703125,5.0610351562-.640625,7.1611328125l-2.419921875-.3198242188c.2001953125-1.16015625.33984375-2.4204101562.419921875-3.6010742188-.66015625.640625-1.9404296875.9204101562-3.7412109375.9204101562h-5.400390625v-2.1005859375h6.2607421875c1.16015625,0,2.2607421875-.080078125,2.9404296875-.3598632812.0205078125-.3002929688.0205078125-.6000976562.0205078125-.900390625v-1.0200195312h-8.982421875v-2.1806640625Z"/><path d="m36.962890625,100.8432617188h-1.400390625v-3.0610351562h3.080078125v2.7006835938l-1.3798828125,3.3208007812h-1.5l1.2001953125-2.9604492188Z"/><path d="m49.802734375,85.5395507812c2.94140625,0,4.7216796875,1.6806640625,4.7216796875,3.9409179688,0,2.2607421875-1.7802734375,3.9409179688-4.7216796875,3.9409179688-2.9599609375,0-4.7802734375-1.6801757812-4.7802734375-3.9409179688,0-2.2602539062,1.8203125-3.9409179688,4.7802734375-3.9409179688Zm0,5.78125c1.3408203125,0,2.201171875-.7197265625,2.201171875-1.8403320312,0-1.1201171875-.8603515625-1.8403320312-2.201171875-1.8403320312-1.359375,0-2.2197265625.7202148438-2.2197265625,1.8403320312,0,1.1206054688.8603515625,1.8403320312,2.2197265625,1.8403320312Zm-1.5595703125,3.1010742188h10.822265625v4.9409179688h-8.2822265625v1.1401367188h8.7216796875v2.0004882812h-10.3017578125c-.6005859375,0-.9599609375-.2602539062-.9599609375-.8203125v-4.220703125h8.28125v-1.080078125h-8.28125v-1.9604492188Zm8.26171875-9.5024414062h2.560546875v8.7021484375h-2.560546875v-8.7021484375Z"/><path d="m63.5576171875,85.5h2.560546875v1.3798828125h5.8408203125v-1.3798828125h2.560546875v6.861328125h-4.201171875v1.7202148438h6.6416015625v2.0805664062h-15.84375v-2.0805664062h6.6416015625v-1.7202148438h-3.240234375c-.6005859375,0-.9599609375-.2602539062-.9599609375-.8203125v-6.041015625Zm-.1201171875,11.7421875h2.560546875v2.9409179688h8.8818359375v2.1801757812h-10.482421875c-.6005859375,0-.9599609375-.259765625-.9599609375-.8198242188v-4.3012695312Zm2.6806640625-8.3818359375v1.4404296875h5.8408203125v-1.4404296875h-5.8408203125Z"/><path d="m79.1484375,100.8432617188h-1.400390625v-3.0610351562h3.080078125v2.7006835938l-1.3798828125,3.3208007812h-1.5l1.2001953125-2.9604492188Z"/><path d="m89.6083984375,89.2407226562l-2.48046875,1.3603515625-.9404296875-1.98046875,4.060546875-2.2807617188h1.900390625v13.6030273438h-2.5400390625v-10.7021484375Z"/><path d="m105.3349609375,92.8012695312c0,4.6411132812-2.4208984375,7.421875-6.2412109375,7.421875-2.1806640625,0-3.7607421875-1.060546875-4.62109375-2.3408203125l1.740234375-1.5600585938c.580078125.8999023438,1.6201171875,1.5400390625,2.880859375,1.5400390625,1.900390625,0,3.3203125-1.2802734375,3.580078125-3.7407226562-.8193359375.900390625-1.9599609375,1.5405273438-3.5205078125,1.5405273438-2.560546875,0-4.7607421875-1.8803710938-4.7607421875-4.7412109375,0-2.8603515625,2.380859375-4.8608398438,5.28125-4.8608398438,3.720703125,0,5.6611328125,2.8403320312,5.6611328125,6.7412109375Zm-8.322265625-1.9404296875c0,1.3403320312,1.0009765625,2.4604492188,2.6611328125,2.4604492188,1.6396484375,0,2.640625-1.1201171875,2.640625-2.4604492188,0-1.3203125-1.0009765625-2.4404296875-2.640625-2.4404296875-1.66015625,0-2.6611328125,1.1201171875-2.6611328125,2.4404296875Z"/><path d="m107.392578125,99.8828125l5.4013671875-11.2622070312h-6.701171875v-2.2807617188h9.6220703125v1.8403320312l-5.4609375,11.7626953125h-2.861328125v-.0600585938Z"/><path d="m116.361328125,93.1416015625c0-4.2612304688,2.041015625-7.0815429688,5.7216796875-7.0815429688s5.720703125,2.8203125,5.720703125,7.0815429688c0,4.2607421875-2.0400390625,7.0815429688-5.720703125,7.0815429688s-5.7216796875-2.8208007812-5.7216796875-7.0815429688Zm8.841796875,0c0-2.7607421875-.8798828125-4.7211914062-3.1201171875-4.7211914062s-3.12109375,1.9604492188-3.12109375,4.7211914062c0,2.7602539062.880859375,4.720703125,3.12109375,4.720703125s3.1201171875-1.9604492188,3.1201171875-4.720703125Z"/><path d="m130.0400390625,92.861328125h5.841796875v2.0405273438h-5.841796875v-2.0405273438Z"/><path d="m139.4521484375,89.2407226562l-2.48046875,1.3603515625-.9404296875-1.98046875,4.060546875-2.2807617188h1.900390625v13.6030273438h-2.5400390625v-10.7021484375Z"/><path d="m155.177734375,92.8012695312c0,4.6411132812-2.4208984375,7.421875-6.2412109375,7.421875-2.1806640625,0-3.7607421875-1.060546875-4.62109375-2.3408203125l1.740234375-1.5600585938c.580078125.8999023438,1.6201171875,1.5400390625,2.880859375,1.5400390625,1.900390625,0,3.3203125-1.2802734375,3.580078125-3.7407226562-.8193359375.900390625-1.9599609375,1.5405273438-3.5205078125,1.5405273438-2.560546875,0-4.7607421875-1.8803710938-4.7607421875-4.7412109375,0-2.8603515625,2.3798828125-4.8608398438,5.28125-4.8608398438,3.720703125,0,5.6611328125,2.8403320312,5.6611328125,6.7412109375Zm-8.322265625-1.9404296875c0,1.3403320312,1.0009765625,2.4604492188,2.6611328125,2.4604492188,1.6396484375,0,2.640625-1.1201171875,2.640625-2.4604492188,0-1.3203125-1.0009765625-2.4404296875-2.640625-2.4404296875-1.66015625,0-2.6611328125,1.1201171875-2.6611328125,2.4404296875Z"/><path d="m157.2353515625,99.8828125l5.4013671875-11.2622070312h-6.701171875v-2.2807617188h9.6220703125v1.8403320312l-5.4619140625,11.7626953125h-2.8603515625v-.0600585938Z"/><path d="m166.5009765625,98.0024414062c1.6806640625-3.220703125,6.8017578125-4.701171875,6.8017578125-7.3813476562,0-1.1606445312-.6396484375-2.2006835938-2.3603515625-2.2006835938-1.240234375,0-2.0400390625.6801757812-2.4208984375,1.8203125l-1.9599609375-1.080078125c.48046875-1.400390625,1.80078125-3.1005859375,4.5009765625-3.1005859375,3.060546875,0,4.78125,1.9404296875,4.78125,4.4008789062,0,4.0009765625-4.7216796875,5.4208984375-5.9814453125,7.2016601562h6.2412109375v2.2802734375h-9.6025390625v-1.9404296875Z"/><path d="m.826171875,109.3178710938h1.59765625l5.1826171875,6.5v-6.5h1.8212890625v9.525390625h-1.5830078125l-5.197265625-6.4995117188v6.4995117188H.826171875v-9.525390625Z"/><path d="m16.5654296875,118.0166015625c-.5322265625.6025390625-1.3173828125.9946289062-2.255859375.9946289062-2.0029296875,0-3.4736328125-1.4848632812-3.4736328125-3.7680664062s1.470703125-3.7817382812,3.4736328125-3.7817382812c.9384765625,0,1.7236328125.40625,2.255859375,1.0083007812v-.8403320312h1.7783203125v7.2138671875h-1.7783203125v-.8266601562Zm0-1.6665039062v-2.2133789062c-.322265625-.6865234375-1.0654296875-1.0927734375-1.86328125-1.0927734375-1.1630859375,0-2.0595703125.798828125-2.0595703125,2.19921875,0,1.38671875.896484375,2.185546875,2.0595703125,2.185546875.7978515625,0,1.541015625-.40625,1.86328125-1.0786132812Z"/><path d="m19.9462890625,108.8979492188h1.7783203125v5.798828125l2.7880859375-3.0673828125h2.03125v.0561523438l-2.74609375,3.025390625,3.0537109375,4.0903320312v.0419921875h-2.1005859375l-2.0732421875-2.8994140625-.953125,1.0502929688v1.8491210938h-1.7783203125v-9.9453125Z"/><path d="m32.515625,118.0166015625c-.5322265625.6025390625-1.3173828125.9946289062-2.255859375.9946289062-2.0029296875,0-3.4736328125-1.4848632812-3.4736328125-3.7680664062s1.470703125-3.7817382812,3.4736328125-3.7817382812c.9384765625,0,1.7236328125.40625,2.255859375,1.0083007812v-.8403320312h1.7783203125v7.2138671875h-1.7783203125v-.8266601562Zm0-1.6665039062v-2.2133789062c-.322265625-.6865234375-1.0654296875-1.0927734375-1.86328125-1.0927734375-1.1630859375,0-2.0595703125.798828125-2.0595703125,2.19921875,0,1.38671875.896484375,2.185546875,2.0595703125,2.185546875.7978515625,0,1.541015625-.40625,1.86328125-1.0786132812Z"/><path d="m35.49609375,114.9072265625c0-2.0732421875,1.2744140625-3.4458007812,3.2919921875-3.4458007812.923828125,0,1.6806640625.40625,2.1845703125,1.0083007812v-.8403320312h1.779296875v5.9814453125c0,2.619140625-1.8349609375,3.8237304688-3.7822265625,3.8237304688-1.7646484375,0-2.787109375-.6723632812-3.333984375-1.4565429688l1.0791015625-1.1206054688c.4765625.6303710938,1.0927734375,1.0502929688,2.1708984375,1.0502929688,1.037109375,0,2.0869140625-.5883789062,2.0869140625-2.1572265625v-.3920898438c-.50390625.5883789062-1.2607421875.9946289062-2.1845703125.9946289062-2.017578125,0-3.2919921875-1.3725585938-3.2919921875-3.4458007812Zm5.4765625.8823242188v-1.7509765625c-.322265625-.658203125-.9658203125-1.0502929688-1.7509765625-1.0502929688-1.17578125,0-1.9189453125.7700195312-1.9189453125,1.9189453125,0,1.1484375.7431640625,1.9189453125,1.9189453125,1.9189453125.78515625,0,1.4287109375-.3920898438,1.7509765625-1.0366210938Z"/><path d="m44.2939453125,108.5615234375h1.8212890625v1.8491210938h-1.8212890625v-1.8491210938Zm.0283203125,3.0678710938h1.7783203125v7.2138671875h-1.7783203125v-7.2138671875Z"/><path d="m47.6845703125,111.6293945312h1.7783203125v1.0083007812c.392578125-.6440429688,1.1630859375-1.1762695312,2.283203125-1.1762695312,1.876953125,0,2.74609375,1.2885742188,2.74609375,3.1376953125v4.244140625h-1.779296875v-4.0483398438c0-1.1484375-.5458984375-1.7509765625-1.5966796875-1.7509765625-.8828125,0-1.470703125.6025390625-1.6533203125,1.2607421875v4.5385742188h-1.7783203125v-7.2138671875Z"/><path d="m58.603515625,114.0805664062c0-2.8432617188,2.03125-4.9584960938,4.8466796875-4.9584960938,1.974609375,0,3.4462890625.9243164062,4.2724609375,2.3393554688l-1.359375,1.0083007812c-.6015625-1.0083007812-1.484375-1.6528320312-2.87109375-1.6528320312-1.8486328125,0-3.01171875,1.4150390625-3.01171875,3.263671875,0,1.8491210938,1.1630859375,3.263671875,3.01171875,3.263671875,1.38671875,0,2.26953125-.6440429688,2.87109375-1.6528320312l1.359375,1.0087890625c-.826171875,1.4145507812-2.2978515625,2.3393554688-4.2724609375,2.3393554688-2.8154296875,0-4.8466796875-2.115234375-4.8466796875-4.958984375Z"/><path d="m74.1181640625,118.0166015625c-.5322265625.6025390625-1.3173828125.9946289062-2.255859375.9946289062-2.0029296875,0-3.4736328125-1.4848632812-3.4736328125-3.7680664062s1.470703125-3.7817382812,3.4736328125-3.7817382812c.9384765625,0,1.7236328125.40625,2.255859375,1.0083007812v-.8403320312h1.7783203125v7.2138671875h-1.7783203125v-.8266601562Zm0-1.6665039062v-2.2133789062c-.322265625-.6865234375-1.0654296875-1.0927734375-1.86328125-1.0927734375-1.1630859375,0-2.0595703125.798828125-2.0595703125,2.19921875,0,1.38671875.896484375,2.185546875,2.0595703125,2.185546875.7978515625,0,1.541015625-.40625,1.86328125-1.0786132812Z"/><path d="m77.4990234375,111.6293945312h1.7783203125v.8544921875c.5185546875-.6025390625,1.3173828125-1.0224609375,2.26953125-1.0224609375,1.9892578125,0,3.4599609375,1.4985351562,3.4599609375,3.7817382812s-1.470703125,3.7680664062-3.4599609375,3.7680664062c-.9521484375,0-1.7509765625-.40625-2.26953125-1.0083007812v3.263671875h-1.7783203125v-9.6372070312Zm5.701171875,3.6137695312c0-1.400390625-.896484375-2.19921875-2.0595703125-2.19921875-.798828125,0-1.541015625.40625-1.86328125,1.0927734375v2.2133789062c.322265625.6723632812,1.064453125,1.0786132812,1.86328125,1.0786132812,1.1630859375,0,2.0595703125-.798828125,2.0595703125-2.185546875Z"/><path d="m85.5078125,117.6245117188l.9658203125-1.1206054688c.4765625.5883789062,1.2890625,1.0786132812,2.1435546875,1.0786132812.7705078125,0,1.31640625-.3081054688,1.31640625-.8403320312,0-.4760742188-.4345703125-.6723632812-1.1201171875-.7846679688l-.64453125-.09765625c-1.3447265625-.2241210938-2.1572265625-.966796875-2.1572265625-2.1435546875,0-1.2465820312,1.064453125-2.2548828125,2.87109375-2.2548828125,1.134765625,0,2.00390625.4760742188,2.5361328125,1.0922851562l-.9384765625,1.134765625c-.462890625-.490234375-1.0087890625-.7705078125-1.6669921875-.7705078125-.6728515625,0-1.0224609375.3081054688-1.0224609375.7006835938,0,.3637695312.279296875.5600585938.7978515625.6440429688l.64453125.0981445312c1.6533203125.251953125,2.4794921875,1.0224609375,2.4794921875,2.283203125,0,1.302734375-1.134765625,2.3955078125-3.166015625,2.3955078125-1.3447265625,0-2.380859375-.6303710938-3.0390625-1.4150390625Z"/><path d="m99.53515625,118.8432617188h-1.779296875v-1.0087890625c-.392578125.64453125-1.1630859375,1.1767578125-2.283203125,1.1767578125-1.876953125,0-2.7451171875-1.2885742188-2.7451171875-3.1376953125v-4.244140625h1.7783203125v4.0483398438c0,1.1484375.546875,1.7509765625,1.5966796875,1.7509765625.8828125,0,1.4716796875-.6025390625,1.6533203125-1.2607421875v-4.5385742188h1.779296875v7.2138671875Z"/><path d="m101.1181640625,108.8979492188h1.7783203125v9.9453125h-1.7783203125v-9.9453125Z"/><path d="m104.09765625,115.2573242188c0-2.2553710938,1.5263671875-3.7958984375,3.6279296875-3.7958984375s3.4736328125,1.4565429688,3.4736328125,3.5297851562c0,.23828125-.0419921875.57421875-.083984375.8686523438h-5.224609375c.181640625.9663085938.8544921875,1.6245117188,2.1015625,1.6245117188.8818359375,0,1.6240234375-.490234375,2.044921875-1.064453125l.98046875,1.1625976562c-.6728515625.8125-1.7373046875,1.4428710938-3.109375,1.4428710938-2.33984375,0-3.810546875-1.6669921875-3.810546875-3.7680664062Zm1.8212890625-.8544921875h3.515625c-.09765625-.9384765625-.7421875-1.470703125-1.708984375-1.470703125-.9248046875,0-1.568359375.5180664062-1.806640625,1.470703125Z"/><path d="m117.5947265625,110.9150390625h-2.8994140625v-1.5971679688h7.6201171875v1.5971679688h-2.8994140625v7.9282226562h-1.8212890625v-7.9282226562Z"/><path d="m121.7265625,115.2431640625c0-1.9750976562,1.31640625-3.7817382812,3.82421875-3.7817382812,2.5068359375,0,3.8232421875,1.806640625,3.8232421875,3.7817382812,0,1.9892578125-1.31640625,3.7963867188-3.8232421875,3.7963867188-2.5078125,0-3.82421875-1.8071289062-3.82421875-3.7963867188Zm1.806640625,0c0,1.3447265625.8544921875,2.2133789062,2.017578125,2.2133789062,1.162109375,0,2.0166015625-.8686523438,2.0166015625-2.2133789062,0-1.3305664062-.8544921875-2.19921875-2.0166015625-2.19921875-1.1630859375,0-2.017578125.8686523438-2.017578125,2.19921875Z"/><path d="m129.5703125,111.6293945312h1.904296875l1.443359375,4.818359375,1.638671875-4.818359375h1.890625l1.6396484375,4.818359375,1.4423828125-4.818359375h1.9052734375l-2.3671875,7.2138671875h-1.779296875l-1.79296875-5.0146484375-1.779296875,5.0146484375h-1.7783203125l-2.3671875-7.2138671875Z"/><path d="m141.6416015625,115.2573242188c0-2.2553710938,1.5263671875-3.7958984375,3.6279296875-3.7958984375s3.4736328125,1.4565429688,3.4736328125,3.5297851562c0,.23828125-.0419921875.57421875-.083984375.8686523438h-5.224609375c.181640625.9663085938.8544921875,1.6245117188,2.1015625,1.6245117188.8818359375,0,1.6240234375-.490234375,2.044921875-1.064453125l.98046875,1.1625976562c-.6728515625.8125-1.7373046875,1.4428710938-3.1103515625,1.4428710938-2.3388671875,0-3.8095703125-1.6669921875-3.8095703125-3.7680664062Zm1.8212890625-.8544921875h3.515625c-.09765625-.9384765625-.7421875-1.470703125-1.708984375-1.470703125-.9248046875,0-1.568359375.5180664062-1.806640625,1.470703125Z"/><path d="m149.9423828125,111.6293945312h1.7783203125v1.1206054688c.4208984375-.7705078125,1.12109375-1.2885742188,2.0732421875-1.2885742188h.2099609375v1.6948242188c-1.064453125.0141601562-1.9326171875.322265625-2.283203125,1.4008789062v4.2861328125h-1.7783203125v-7.2138671875Z"/><path d="m2.8994140625,127.71484375H0v-1.5971679688h7.6201171875v1.5971679688h-2.8994140625v7.9282226562h-1.8212890625v-7.9282226562Z"/><path d="m7.03125,132.04296875c0-1.9750976562,1.31640625-3.7817382812,3.82421875-3.7817382812,2.5068359375,0,3.8232421875,1.806640625,3.8232421875,3.7817382812,0,1.9892578125-1.31640625,3.7963867188-3.8232421875,3.7963867188-2.5078125,0-3.82421875-1.8071289062-3.82421875-3.7963867188Zm1.806640625,0c0,1.3447265625.8544921875,2.2133789062,2.017578125,2.2133789062,1.162109375,0,2.0166015625-.8686523438,2.0166015625-2.2133789062,0-1.3305664062-.8544921875-2.19921875-2.0166015625-2.19921875-1.1630859375,0-2.017578125.8686523438-2.017578125,2.19921875Z"/><path d="m15.8681640625,125.6977539062h1.7783203125v5.798828125l2.7880859375-3.0673828125h2.03125v.0561523438l-2.74609375,3.025390625,3.0537109375,4.0903320312v.0419921875h-2.1005859375l-2.0732421875-2.8994140625-.953125,1.0502929688v1.8491210938h-1.7783203125v-9.9453125Z"/><path d="m25.8017578125,134.71875l-2.8857421875-6.2895507812h1.9052734375l1.9189453125,4.314453125,1.779296875-4.314453125h1.9189453125l-4.23046875,9.6372070312h-1.9189453125l1.5126953125-3.34765625Z"/><path d="m30.466796875,132.04296875c0-1.9750976562,1.31640625-3.7817382812,3.82421875-3.7817382812,2.5068359375,0,3.8232421875,1.806640625,3.8232421875,3.7817382812,0,1.9892578125-1.31640625,3.7963867188-3.8232421875,3.7963867188-2.5078125,0-3.82421875-1.8071289062-3.82421875-3.7963867188Zm1.806640625,0c0,1.3447265625.8544921875,2.2133789062,2.017578125,2.2133789062,1.162109375,0,2.0166015625-.8686523438,2.0166015625-2.2133789062,0-1.3305664062-.8544921875-2.19921875-2.0166015625-2.19921875-1.1630859375,0-2.017578125.8686523438-2.017578125,2.19921875Z"/><path d="m39.9853515625,136.2734375h-.98046875v-2.1430664062h2.1572265625v1.8911132812l-.966796875,2.3251953125h-1.0498046875l.83984375-2.0732421875Z"/><path d="m44.7587890625,134.0043945312l1.3447265625-1.0229492188c.3642578125.6166992188.8681640625,1.1625976562,1.708984375,1.1625976562,1.302734375,0,1.79296875-.826171875,1.79296875-2.1708984375v-5.85546875h1.8203125v5.9116210938c0,2.2412109375-1.1484375,3.8100585938-3.5712890625,3.8100585938-1.5126953125,0-2.5634765625-.8408203125-3.095703125-1.8349609375Z"/><path d="m58.439453125,134.81640625c-.5322265625.6025390625-1.3173828125.9946289062-2.255859375.9946289062-2.0029296875,0-3.4736328125-1.4848632812-3.4736328125-3.7680664062s1.470703125-3.7817382812,3.4736328125-3.7817382812c.9384765625,0,1.7236328125.40625,2.255859375,1.0083007812v-.8403320312h1.7783203125v7.2138671875h-1.7783203125v-.8266601562Zm0-1.6665039062v-2.2133789062c-.322265625-.6865234375-1.0654296875-1.0927734375-1.86328125-1.0927734375-1.1630859375,0-2.0595703125.798828125-2.0595703125,2.19921875,0,1.38671875.896484375,2.185546875,2.0595703125,2.185546875.7978515625,0,1.541015625-.40625,1.86328125-1.0786132812Z"/><path d="m61.8203125,128.4291992188h1.7783203125v.8544921875c.5185546875-.6025390625,1.3173828125-1.0224609375,2.26953125-1.0224609375,1.9892578125,0,3.4599609375,1.4985351562,3.4599609375,3.7817382812s-1.470703125,3.7680664062-3.4599609375,3.7680664062c-.9521484375,0-1.7509765625-.40625-2.26953125-1.0083007812v3.263671875h-1.7783203125v-9.6372070312Zm5.701171875,3.6137695312c0-1.400390625-.896484375-2.19921875-2.0595703125-2.19921875-.798828125,0-1.541015625.40625-1.86328125,1.0927734375v2.2133789062c.322265625.6723632812,1.064453125,1.0786132812,1.86328125,1.0786132812,1.1630859375,0,2.0595703125-.798828125,2.0595703125-2.185546875Z"/><path d="m75.890625,134.81640625c-.5322265625.6025390625-1.3173828125.9946289062-2.255859375.9946289062-2.0029296875,0-3.4736328125-1.4848632812-3.4736328125-3.7680664062s1.470703125-3.7817382812,3.4736328125-3.7817382812c.9384765625,0,1.7236328125.40625,2.255859375,1.0083007812v-.8403320312h1.7783203125v7.2138671875h-1.7783203125v-.8266601562Zm0-1.6665039062v-2.2133789062c-.322265625-.6865234375-1.0654296875-1.0927734375-1.86328125-1.0927734375-1.1630859375,0-2.0595703125.798828125-2.0595703125,2.19921875,0,1.38671875.896484375,2.185546875,2.0595703125,2.185546875.7978515625,0,1.541015625-.40625,1.86328125-1.0786132812Z"/><path d="m79.271484375,128.4291992188h1.7783203125v1.0083007812c.392578125-.6440429688,1.1630859375-1.1762695312,2.283203125-1.1762695312,1.876953125,0,2.74609375,1.2885742188,2.74609375,3.1376953125v4.244140625h-1.779296875v-4.0483398438c0-1.1484375-.5458984375-1.7509765625-1.5966796875-1.7509765625-.8828125,0-1.470703125.6025390625-1.6533203125,1.2607421875v4.5385742188h-1.7783203125v-7.2138671875Z"/><path d="m88.576171875,136.2734375h-.98046875v-2.1430664062h2.1572265625v1.8911132812l-.966796875,2.3251953125h-1.0498046875l.83984375-2.0732421875Z"/><path d="m95.7587890625,128.1489257812l-1.7373046875.9526367188-.658203125-1.38671875,2.84375-1.5971679688h1.330078125v9.525390625h-1.7783203125v-7.494140625Z"/><path d="m106.7197265625,130.642578125c0,3.2495117188-1.6943359375,5.1967773438-4.3701171875,5.1967773438-1.52734375,0-2.6337890625-.7426757812-3.236328125-1.6391601562l1.21875-1.0922851562c.40625.6298828125,1.134765625,1.078125,2.017578125,1.078125,1.3310546875,0,2.3251953125-.896484375,2.5068359375-2.619140625-.57421875.6303710938-1.3720703125,1.0786132812-2.46484375,1.0786132812-1.79296875,0-3.333984375-1.3168945312-3.333984375-3.3198242188s1.6669921875-3.4038085938,3.6982421875-3.4038085938c2.60546875,0,3.9638671875,1.9887695312,3.9638671875,4.720703125Zm-5.8271484375-1.3588867188c0,.9384765625.7001953125,1.72265625,1.86328125,1.72265625,1.1484375,0,1.8486328125-.7841796875,1.8486328125-1.72265625,0-.9248046875-.7001953125-1.708984375-1.8486328125-1.708984375-1.1630859375,0-1.86328125.7841796875-1.86328125,1.708984375Z"/><path d="m108.1123046875,135.6010742188l3.7822265625-7.8862304688h-4.693359375v-1.5971679688h6.73828125v1.2890625l-3.82421875,8.236328125h-2.0029296875v-.0419921875Z"/><path d="m114.34375,130.8803710938c0-2.9833984375,1.4296875-4.9584960938,4.0068359375-4.9584960938s4.005859375,1.9750976562,4.005859375,4.9584960938c0,2.9838867188-1.4287109375,4.958984375-4.005859375,4.958984375s-4.0068359375-1.9750976562-4.0068359375-4.958984375Zm6.19140625,0c0-1.9331054688-.6162109375-3.3056640625-2.1845703125-3.3056640625-1.5693359375,0-2.185546875,1.3725585938-2.185546875,3.3056640625s.6162109375,3.3056640625,2.185546875,3.3056640625c1.568359375,0,2.1845703125-1.3725585938,2.1845703125-3.3056640625Z"/><path d="m123.8681640625,130.6845703125h4.08984375v1.4287109375h-4.08984375v-1.4287109375Z"/><path d="m130.416015625,128.1489257812l-1.7373046875.9526367188-.658203125-1.38671875,2.84375-1.5971679688h1.330078125v9.525390625h-1.7783203125v-7.494140625Z"/><path d="m141.376953125,130.642578125c0,3.2495117188-1.6943359375,5.1967773438-4.3701171875,5.1967773438-1.52734375,0-2.6337890625-.7426757812-3.236328125-1.6391601562l1.21875-1.0922851562c.40625.6298828125,1.134765625,1.078125,2.017578125,1.078125,1.3310546875,0,2.3251953125-.896484375,2.5068359375-2.619140625-.57421875.6303710938-1.3720703125,1.0786132812-2.46484375,1.0786132812-1.79296875,0-3.333984375-1.3168945312-3.333984375-3.3198242188s1.6669921875-3.4038085938,3.6982421875-3.4038085938c2.60546875,0,3.9638671875,1.9887695312,3.9638671875,4.720703125Zm-5.8271484375-1.3588867188c0,.9384765625.7001953125,1.72265625,1.86328125,1.72265625,1.1484375,0,1.8486328125-.7841796875,1.8486328125-1.72265625,0-.9248046875-.7001953125-1.708984375-1.8486328125-1.708984375-1.1630859375,0-1.86328125.7841796875-1.86328125,1.708984375Z"/><path d="m142.76953125,135.6010742188l3.7822265625-7.8862304688h-4.6923828125v-1.5971679688h6.7373046875v1.2890625l-3.82421875,8.236328125h-2.0029296875v-.0419921875Z"/><path d="m149.2060546875,134.2841796875c1.1767578125-2.2548828125,4.7626953125-3.2915039062,4.7626953125-5.1684570312,0-.8125-.4482421875-1.541015625-1.6533203125-1.541015625-.8681640625,0-1.4287109375.4760742188-1.6953125,1.2749023438l-1.3720703125-.7568359375c.3359375-.98046875,1.2607421875-2.1708984375,3.1513671875-2.1708984375,2.1435546875,0,3.34765625,1.3588867188,3.34765625,3.0815429688,0,2.8017578125-3.3056640625,3.7958984375-4.1884765625,5.04296875h4.37109375v1.5966796875h-6.7236328125v-1.3588867188Z"/><rect class="cls-1" width="318.1005859375" height="138.3466796875"/></g></svg>