<?xml version="1.0" encoding="UTF-8"?><svg id="_레이어_2" xmlns="http://www.w3.org/2000/svg" viewBox="0 0 318.1005859375 138.3466796875"><defs><style>.cls-1{fill:none;}</style></defs><g id="Layer_1"><path d="m.6923828125,13.0029296875h3.6015625v-2.560546875h2.5400390625v2.560546875h3.560546875v-2.560546875h2.5205078125v2.560546875h3.62109375v2.220703125H.6923828125v-2.220703125ZM8.6142578125.8803710938c3.541015625,0,5.861328125,1.7602539062,5.861328125,4.5810546875s-2.3203125,4.5209960938-5.861328125,4.5209960938c-3.5400390625,0-5.861328125-1.7001953125-5.861328125-4.5209960938S5.07421875.8803710938,8.6142578125.8803710938Zm0,6.9614257812c1.9609375,0,3.30078125-.8999023438,3.30078125-2.3803710938s-1.33984375-2.400390625-3.30078125-2.400390625c-1.9599609375,0-3.30078125.919921875-3.30078125,2.400390625s1.3408203125,2.3803710938,3.30078125,2.3803710938Z"/><path d="m17.8935546875,1.6206054688h7.0615234375v2.2006835938h-2.240234375v.4599609375c0,3.0805664062.6005859375,5.0610351562,3.0009765625,6.8413085938l-1.400390625,1.7602539062c-1.400390625-.9799804688-2.400390625-2.2202148438-2.7607421875-3.3803710938-.33984375,1.3203125-1.4208984375,2.7802734375-2.9208984375,3.80078125l-1.400390625-1.7807617188c2.400390625-1.7802734375,3.0009765625-3.8408203125,3.0009765625-6.9614257812v-.7397460938h-2.3408203125V1.6206054688ZM26.35546875.3002929688h2.400390625v16.4833984375h-2.400390625V7.9418945312h-2.1201171875v-2.2202148438h2.1201171875V.3002929688Zm3.6806640625-.3002929688h2.4404296875v17.2836914062h-2.4404296875V0Z"/><path d="m34.28125,13.0830078125h15.86328125v2.1806640625h-15.86328125v-2.1806640625Zm3.8408203125-8.6616210938h2.580078125v2.1401367188c0,.5.0400390625,1.1401367188.1005859375,1.5805664062h2.80078125c.080078125-.4404296875.1201171875-1.0805664062.1201171875-1.5805664062v-2.1401367188h2.580078125v1.580078125c0,.7802734375-.1396484375,1.6206054688-.48046875,2.140625h2.4609375v2.1801757812h-12.142578125v-2.1801757812h2.4609375c-.30078125-.4604492188-.48046875-1.2001953125-.48046875-2.0004882812v-1.7202148438Zm-1.7802734375-3.0209960938h11.7421875v2.2006835938h-11.7421875V1.400390625Z"/><path d="m55.7802734375,13.0830078125h15.86328125v2.1806640625h-15.86328125v-2.1806640625Zm3.8408203125-8.6616210938h2.580078125v2.1401367188c0,.5.0400390625,1.1401367188.1005859375,1.5805664062h2.80078125c.080078125-.4404296875.1201171875-1.0805664062.1201171875-1.5805664062v-2.1401367188h2.580078125v1.580078125c0,.7802734375-.1396484375,1.6206054688-.48046875,2.140625h2.4609375v2.1801757812h-12.142578125v-2.1801757812h2.4609375c-.30078125-.4604492188-.48046875-1.2001953125-.48046875-2.0004882812v-1.7202148438Zm-1.7802734375-3.0209960938h11.7421875v2.2006835938h-11.7421875V1.400390625Z"/><path d="m72.5068359375.8603515625h8.28125v5.3012695312h-5.720703125v1.3203125h4.220703125c1.48046875,0,2.8408203125-.2001953125,3.8408203125-.7202148438V0h2.560546875v3.9208984375h2.3408203125v2.220703125h-2.3408203125v4.1606445312h-2.560546875v-1.900390625c-1.259765625.8203125-3.060546875,1.140625-5.060546875,1.140625h-4.5810546875c-.6201171875,0-.98046875-.240234375-.98046875-.8203125v-4.541015625h5.7607421875v-1.240234375h-5.7607421875V.8603515625Zm7.8818359375,9.8422851562c3.5205078125,0,5.4814453125,1.4399414062,5.4814453125,3.6005859375,0,2.140625-1.9609375,3.5610351562-5.4814453125,3.5610351562s-5.4814453125-1.4204101562-5.4814453125-3.5610351562c0-2.1606445312,1.9609375-3.6005859375,5.4814453125-3.6005859375Zm0,5.0009765625c1.900390625,0,2.9208984375-.5,2.9208984375-1.400390625,0-.919921875-1.0205078125-1.4404296875-2.9208984375-1.4404296875s-2.9208984375.5205078125-2.9208984375,1.4404296875c0,.900390625,1.0205078125,1.400390625,2.9208984375,1.400390625Z"/><path d="m90.349609375,1.4204101562h11.302734375v3.0805664062c0,3.8208007812-.2998046875,6.181640625-1.4404296875,8.421875h3.720703125v2.220703125h-15.84375v-2.220703125h9.962890625c.580078125-1.6000976562.83984375-3.220703125.939453125-4.9008789062-.6396484375.6401367188-1.9404296875.9204101562-3.720703125.9204101562h-5.140625v-2.0805664062h6.0009765625c1.16015625,0,2.240234375-.080078125,2.9404296875-.3603515625.0205078125-.3999023438.0205078125-.8198242188.0205078125-1.2602539062v-1.6401367188h-8.7421875V1.4204101562Z"/><path d="m107.3857421875,15.923828125h-1.400390625v-3.0610351562h3.080078125v2.7006835938l-1.3798828125,3.3208007812h-1.5l1.2001953125-2.9604492188Z"/><path d="m115.1044921875,13.0029296875h6.6416015625v-2.7407226562c-2.7802734375-.3598632812-4.5810546875-2.0400390625-4.5810546875-4.640625,0-2.9409179688,2.3212890625-4.7412109375,5.861328125-4.7412109375,3.541015625,0,5.861328125,1.8002929688,5.861328125,4.7412109375,0,2.6005859375-1.7998046875,4.2807617188-4.5810546875,4.640625v2.7407226562h6.6416015625v2.220703125h-15.84375v-2.220703125Zm7.921875-4.8208007812c1.9609375,0,3.30078125-.9404296875,3.30078125-2.560546875,0-1.6206054688-1.33984375-2.560546875-3.30078125-2.560546875-1.9599609375,0-3.30078125.9399414062-3.30078125,2.560546875,0,1.6201171875,1.3408203125,2.560546875,3.30078125,2.560546875Z"/><path d="m132.27734375,12.962890625h15.84375v2.220703125h-15.84375v-2.220703125Zm6.6220703125-11.9223632812h2.6005859375v1.2202148438c0,3.5405273438,2.560546875,5.1411132812,5.5009765625,6.0810546875l-.9599609375,2.0805664062c-2.48046875-.6201171875-5.041015625-2.3203125-5.841796875-4.2607421875-.759765625,1.9404296875-3.3203125,3.6806640625-5.8212890625,4.3408203125l-.9599609375-2.0805664062c2.900390625-.919921875,5.4814453125-2.6206054688,5.4814453125-6.1411132812v-1.240234375Z"/><path d="m150.0693359375,1.5805664062h8.08203125v1.5805664062c0,5.3608398438-2.8203125,8.4013671875-7.9013671875,10.4819335938l-1.1201171875-2.1401367188c2.419921875-.9404296875,4.3408203125-2.1806640625,5.4609375-3.9609375-.5400390625.2998046875-1.2802734375.4799804688-2.2412109375.4799804688h-2.7197265625v-2.0805664062h5.640625c.220703125-.6401367188.3203125-1.3603515625.3203125-2.1401367188h-5.521484375V1.5805664062Zm10.40234375-1.5805664062h2.560546875v5.94140625h2.3408203125v2.220703125h-2.3408203125v9.1215820312h-2.560546875V0Z"/><path d="m170.66796875,7.4619140625h15.84375v1.98046875h-15.84375v-1.98046875Zm2.3212890625,3.1005859375h11.2021484375v4.6010742188h-8.6416015625v1.0200195312h9.08203125v1.900390625h-10.6826171875c-.6005859375,0-.9599609375-.259765625-.9599609375-.8203125v-3.8803710938h8.6416015625v-.9604492188h-8.6416015625v-1.8603515625Zm.1201171875-10.1020507812h2.560546875v1.0400390625h5.8408203125V.4604492188h2.560546875v5.9013671875h-10.001953125c-.6005859375,0-.9599609375-.2602539062-.9599609375-.8203125V.4604492188Zm2.560546875,2.9204101562v1.0205078125h5.8408203125v-1.0205078125h-5.8408203125Z"/><path d="m188.1787109375,1.5405273438h8.28125v6.6616210938h-5.720703125v2.6005859375h4.220703125c1.48046875,0,2.8408203125-.2001953125,3.8408203125-.7202148438V0h2.560546875v5.9614257812h2.3408203125v2.2006835938h-2.3408203125v9.1215820312h-2.560546875v-5.4409179688c-1.259765625.8203125-3.060546875,1.1401367188-5.060546875,1.1401367188h-4.5810546875c-.6201171875,0-.98046875-.2397460938-.98046875-.8203125v-6.0810546875h5.7607421875v-2.3603515625h-5.7607421875V1.5405273438Z"/><path d="m204.2373046875,13.203125h15.84375v2.2202148438h-15.84375v-2.2202148438Zm1.220703125-8.9819335938h13.4033203125v2.1005859375h-2.380859375c.48046875.4599609375.759765625,1.0600585938.759765625,1.7602539062,0,2.2001953125-1.7998046875,3.6806640625-5.0810546875,3.6806640625-3.2802734375,0-5.060546875-1.48046875-5.060546875-3.6806640625,0-.7001953125.259765625-1.3002929688.740234375-1.7602539062h-2.380859375v-2.1005859375Zm3.060546875-3.4409179688h7.3017578125v2.1806640625h-7.3017578125V.7802734375Zm3.640625,8.921875c1.740234375,0,2.5810546875-.66015625,2.5810546875-1.6201171875,0-.98046875-.8408203125-1.640625-2.5810546875-1.640625s-2.560546875.66015625-2.560546875,1.640625c0,.9599609375.8203125,1.6201171875,2.560546875,1.6201171875Z"/><path d="m0,32.28515625l1.3447265625-1.0229492188c.3642578125.6166992188.8681640625,1.1625976562,1.708984375,1.1625976562,1.302734375,0,1.79296875-.826171875,1.79296875-2.1708984375v-5.85546875h1.8203125v5.9116210938c0,2.2412109375-1.1484375,3.8100585938-3.5712890625,3.8100585938-1.5126953125,0-2.5634765625-.8408203125-3.095703125-1.8349609375Z"/><path d="m7.9169921875,30.3237304688c0-1.9750976562,1.31640625-3.7817382812,3.82421875-3.7817382812,2.5068359375,0,3.8232421875,1.806640625,3.8232421875,3.7817382812,0,1.9892578125-1.31640625,3.7963867188-3.8232421875,3.7963867188-2.5078125,0-3.82421875-1.8071289062-3.82421875-3.7963867188Zm1.806640625,0c0,1.3447265625.8544921875,2.2133789062,2.017578125,2.2133789062,1.162109375,0,2.0166015625-.8686523438,2.0166015625-2.2133789062,0-1.3305664062-.8544921875-2.19921875-2.0166015625-2.19921875-1.1630859375,0-2.017578125.8686523438-2.017578125,2.19921875Z"/><path d="m16.0166015625,32.705078125l.966796875-1.1206054688c.4765625.5883789062,1.2890625,1.0786132812,2.1435546875,1.0786132812.7705078125,0,1.31640625-.3081054688,1.31640625-.8403320312,0-.4760742188-.4345703125-.6723632812-1.1201171875-.7846679688l-.64453125-.09765625c-1.3447265625-.2241210938-2.1572265625-.966796875-2.1572265625-2.1435546875,0-1.2465820312,1.064453125-2.2548828125,2.87109375-2.2548828125,1.134765625,0,2.0029296875.4760742188,2.5361328125,1.0922851562l-.9384765625,1.134765625c-.462890625-.490234375-1.0087890625-.7705078125-1.6669921875-.7705078125-.6728515625,0-1.0224609375.3081054688-1.0224609375.7006835938,0,.3637695312.279296875.5600585938.7978515625.6440429688l.64453125.0981445312c1.65234375.251953125,2.4794921875,1.0224609375,2.4794921875,2.283203125,0,1.302734375-1.134765625,2.3955078125-3.166015625,2.3955078125-1.3447265625,0-2.380859375-.6303710938-3.0400390625-1.4150390625Z"/><path d="m22.9462890625,30.337890625c0-2.2553710938,1.5263671875-3.7958984375,3.6279296875-3.7958984375s3.4736328125,1.4565429688,3.4736328125,3.5297851562c0,.23828125-.0419921875.57421875-.083984375.8686523438h-5.224609375c.181640625.9663085938.8544921875,1.6245117188,2.1015625,1.6245117188.8818359375,0,1.6240234375-.490234375,2.044921875-1.064453125l.98046875,1.1625976562c-.6728515625.8125-1.7373046875,1.4428710938-3.109375,1.4428710938-2.33984375,0-3.810546875-1.6669921875-3.810546875-3.7680664062Zm1.8212890625-.8544921875h3.515625c-.09765625-.9384765625-.7421875-1.470703125-1.708984375-1.470703125-.9248046875,0-1.568359375.5180664062-1.806640625,1.470703125Z"/><path d="m31.701171875,28.138671875h-1.1201171875v-1.4287109375h1.1201171875v-.4204101562c0-1.38671875.8271484375-2.4370117188,2.521484375-2.4370117188.224609375,0,.5048828125.013671875.6728515625.0419921875v1.4428710938h-.30859375c-.671875,0-1.1064453125.2661132812-1.1064453125.9663085938v.40625h1.4150390625v1.4287109375h-1.4150390625v5.78515625h-1.779296875v-5.78515625Z"/><path d="m39.0087890625,24.3984375h6.5556640625v1.5971679688h-4.734375v2.3813476562h4.2021484375v1.5966796875h-4.2021484375v3.9501953125h-1.8212890625v-9.525390625Z"/><path d="m46.3134765625,26.7099609375h1.7783203125v1.1206054688c.4208984375-.7705078125,1.12109375-1.2885742188,2.0732421875-1.2885742188h.2099609375v1.6948242188c-1.064453125.0141601562-1.9326171875.322265625-2.283203125,1.4008789062v4.2861328125h-1.7783203125v-7.2138671875Z"/><path d="m56.5625,33.0971679688c-.5322265625.6025390625-1.3173828125.9946289062-2.255859375.9946289062-2.0029296875,0-3.4736328125-1.4848632812-3.4736328125-3.7680664062s1.470703125-3.7817382812,3.4736328125-3.7817382812c.9384765625,0,1.7236328125.40625,2.255859375,1.0083007812v-.8403320312h1.7783203125v7.2138671875h-1.7783203125v-.8266601562Zm0-1.6665039062v-2.2133789062c-.322265625-.6865234375-1.0654296875-1.0927734375-1.86328125-1.0927734375-1.1630859375,0-2.0595703125.798828125-2.0595703125,2.19921875,0,1.38671875.896484375,2.185546875,2.0595703125,2.185546875.7978515625,0,1.541015625-.40625,1.86328125-1.0786132812Z"/><path d="m59.943359375,26.7099609375h1.7783203125v1.0083007812c.392578125-.6440429688,1.1630859375-1.1762695312,2.283203125-1.1762695312,1.876953125,0,2.74609375,1.2885742188,2.74609375,3.1376953125v4.244140625h-1.779296875v-4.0483398438c0-1.1484375-.5458984375-1.7509765625-1.5966796875-1.7509765625-.8828125,0-1.470703125.6025390625-1.6533203125,1.2607421875v4.5385742188h-1.7783203125v-7.2138671875Z"/><path d="m68.2783203125,23.978515625h1.7783203125v5.798828125l2.7880859375-3.0673828125h2.03125v.0561523438l-2.74609375,3.025390625,3.0537109375,4.0903320312v.0419921875h-2.1005859375l-2.0732421875-2.8994140625-.953125,1.0502929688v1.8491210938h-1.7783203125v-9.9453125Z"/><path d="m76.94921875,34.5541992188h-.98046875v-2.1430664062h2.1572265625v1.8911132812l-.966796875,2.3251953125h-1.0498046875l.83984375-2.0732421875Z"/><path d="m82.2265625,29.1611328125c0-2.8432617188,2.03125-4.9584960938,4.8466796875-4.9584960938s4.8466796875,2.115234375,4.8466796875,4.9584960938c0,2.84375-2.03125,4.958984375-4.8466796875,4.958984375s-4.8466796875-2.115234375-4.8466796875-4.958984375Zm1.876953125,0c0,1.8491210938,1.134765625,3.263671875,2.9697265625,3.263671875s2.9697265625-1.4145507812,2.9697265625-3.263671875c0-1.8486328125-1.134765625-3.263671875-2.9697265625-3.263671875s-2.9697265625,1.4150390625-2.9697265625,3.263671875Z"/><path d="m92.5029296875,32.705078125l.9658203125-1.1206054688c.4765625.5883789062,1.2890625,1.0786132812,2.1435546875,1.0786132812.7705078125,0,1.31640625-.3081054688,1.31640625-.8403320312,0-.4760742188-.4345703125-.6723632812-1.1201171875-.7846679688l-.64453125-.09765625c-1.3447265625-.2241210938-2.1572265625-.966796875-2.1572265625-2.1435546875,0-1.2465820312,1.064453125-2.2548828125,2.87109375-2.2548828125,1.134765625,0,2.00390625.4760742188,2.5361328125,1.0922851562l-.9384765625,1.134765625c-.462890625-.490234375-1.0087890625-.7705078125-1.6669921875-.7705078125-.6728515625,0-1.0224609375.3081054688-1.0224609375.7006835938,0,.3637695312.279296875.5600585938.7978515625.6440429688l.64453125.0981445312c1.6533203125.251953125,2.4794921875,1.0224609375,2.4794921875,2.283203125,0,1.302734375-1.134765625,2.3955078125-3.166015625,2.3955078125-1.3447265625,0-2.380859375-.6303710938-3.0390625-1.4150390625Z"/><path d="m99.8447265625,23.978515625h1.7783203125v5.798828125l2.7880859375-3.0673828125h2.03125v.0561523438l-2.74609375,3.025390625,3.0537109375,4.0903320312v.0419921875h-2.1005859375l-2.0732421875-2.8994140625-.953125,1.0502929688v1.8491210938h-1.7783203125v-9.9453125Z"/><path d="m112.4140625,33.0971679688c-.5322265625.6025390625-1.3173828125.9946289062-2.255859375.9946289062-2.0029296875,0-3.4736328125-1.4848632812-3.4736328125-3.7680664062s1.470703125-3.7817382812,3.4736328125-3.7817382812c.9384765625,0,1.7236328125.40625,2.255859375,1.0083007812v-.8403320312h1.7783203125v7.2138671875h-1.7783203125v-.8266601562Zm0-1.6665039062v-2.2133789062c-.322265625-.6865234375-1.0654296875-1.0927734375-1.86328125-1.0927734375-1.1630859375,0-2.0595703125.798828125-2.0595703125,2.19921875,0,1.38671875.896484375,2.185546875,2.0595703125,2.185546875.7978515625,0,1.541015625-.40625,1.86328125-1.0786132812Z"/><path d="m115.794921875,26.7099609375h1.7783203125v1.1206054688c.4208984375-.7705078125,1.12109375-1.2885742188,2.0732421875-1.2885742188h.2099609375v1.6948242188c-1.064453125.0141601562-1.9326171875.322265625-2.283203125,1.4008789062v4.2861328125h-1.7783203125v-7.2138671875Z"/><path d="m122.9326171875,24.3984375h1.8349609375l1.9755859375,7.1020507812,2.1708984375-7.1020507812h2.017578125l2.1708984375,7.1020507812,1.974609375-7.1020507812h1.8349609375l-2.7451171875,9.525390625h-2.03125l-2.212890625-7.0458984375-2.212890625,7.0458984375h-2.017578125l-2.759765625-9.525390625Z"/><path d="m137.7548828125,23.978515625h1.7783203125v9.9453125h-1.7783203125v-9.9453125Z"/><path d="m146.484375,33.0971679688c-.5322265625.6025390625-1.3173828125.9946289062-2.255859375.9946289062-2.0029296875,0-3.4736328125-1.4848632812-3.4736328125-3.7680664062s1.470703125-3.7817382812,3.4736328125-3.7817382812c.9384765625,0,1.7236328125.40625,2.255859375,1.0083007812v-.8403320312h1.7783203125v7.2138671875h-1.7783203125v-.8266601562Zm0-1.6665039062v-2.2133789062c-.322265625-.6865234375-1.0654296875-1.0927734375-1.86328125-1.0927734375-1.1630859375,0-2.0595703125.798828125-2.0595703125,2.19921875,0,1.38671875.896484375,2.185546875,2.0595703125,2.185546875.7978515625,0,1.541015625-.40625,1.86328125-1.0786132812Z"/><path d="m149.458984375,30.3237304688c0-1.9750976562,1.3583984375-3.7817382812,3.75390625-3.7817382812,1.45703125,0,2.5068359375.6723632812,3.2080078125,1.79296875l-1.2607421875.9663085938c-.392578125-.6865234375-.9951171875-1.1767578125-1.849609375-1.1767578125-1.232421875,0-2.044921875.8544921875-2.044921875,2.19921875,0,1.3310546875.8125,2.185546875,2.044921875,2.185546875.8544921875,0,1.45703125-.4907226562,1.849609375-1.1767578125l1.2607421875.9663085938c-.701171875,1.1206054688-1.7509765625,1.79296875-3.2080078125,1.79296875-2.3955078125,0-3.75390625-1.806640625-3.75390625-3.7680664062Z"/><path d="m157.43359375,23.978515625h1.7783203125v3.7397460938c.392578125-.6440429688,1.1630859375-1.1762695312,2.283203125-1.1762695312,1.876953125,0,2.74609375,1.2885742188,2.74609375,3.1376953125v4.244140625h-1.779296875v-4.0483398438c0-1.1484375-.5458984375-1.7509765625-1.5966796875-1.7509765625-.953125,0-1.4990234375.7006835938-1.6533203125,1.2607421875v4.5385742188h-1.7783203125v-9.9453125Z"/><path d="m1.61328125,61.6196289062h2.5v1.6206054688h3.4208984375v-1.6206054688h2.4609375v7.6416015625H2.5927734375c-.6201171875,0-.9794921875-.259765625-.9794921875-.8198242188v-6.8217773438Zm2.5,3.7211914062v1.7802734375h3.4208984375v-1.7802734375h-3.4208984375Zm.140625,5.1806640625h10.822265625v4.8813476562H6.7939453125v1.1000976562h8.7216796875v2.0004882812H5.2138671875c-.6005859375,0-.9599609375-.2602539062-.9599609375-.8203125v-4.1606445312h8.28125v-1.0405273438H4.25390625v-1.9604492188Zm8.26171875-9.6020507812h2.560546875v8.8022460938h-2.560546875v-8.8022460938Z"/><path d="m17.7802734375,62.4599609375h8.28125v6.6616210938h-5.720703125v2.6005859375h4.220703125c1.48046875,0,2.8408203125-.2001953125,3.8408203125-.7202148438v-10.0825195312h2.560546875v5.9614257812h2.3408203125v2.2006835938h-2.3408203125v9.1215820312h-2.560546875v-5.4409179688c-1.259765625.8203125-3.060546875,1.1401367188-5.060546875,1.1401367188h-4.5810546875c-.6201171875,0-.98046875-.2397460938-.98046875-.8203125v-6.0810546875h5.7607421875v-2.3603515625h-5.7607421875v-2.1806640625Z"/><path d="m39.51953125,62.3598632812h2.5v3.4208984375h3.4208984375v-3.4208984375h2.4609375v11.4423828125h-7.40234375c-.6201171875,0-.9794921875-.2397460938-.9794921875-.8198242188v-10.6225585938Zm2.5,5.5615234375v3.7006835938h3.4208984375v-3.7006835938h-3.4208984375Zm8.40234375-7.001953125h2.560546875v17.2836914062h-2.560546875v-17.2836914062Z"/><path d="m66.7138671875,60.9194335938h2.560546875v17.2836914062h-2.560546875v-9.0815429688h-2.3212890625c-.2392578125,2.560546875-1.4794921875,4.7807617188-4.5205078125,4.7807617188-3.4609375,0-4.62109375-2.8603515625-4.62109375-5.8012695312,0-2.9404296875,1.16015625-5.8012695312,4.62109375-5.8012695312,2.98046875,0,4.220703125,2.1606445312,4.5009765625,4.6411132812h2.3408203125v-6.021484375Zm-8.90234375,7.181640625c0,1.6206054688.419921875,3.62109375,2.060546875,3.62109375s2.0400390625-2.0004882812,2.0400390625-3.62109375c0-1.6201171875-.3994140625-3.6206054688-2.0400390625-3.6206054688s-2.060546875,2.0004882812-2.060546875,3.6206054688Z"/><path d="m1.61328125,86.3598632812h2.5v3.4208984375h3.4208984375v-3.4208984375h2.4609375v11.4423828125H2.5927734375c-.6201171875,0-.9794921875-.2397460938-.9794921875-.8198242188v-10.6225585938Zm2.5,5.5615234375v3.7006835938h3.4208984375v-3.7006835938h-3.4208984375Zm8.40234375-7.001953125h2.560546875v17.2836914062h-2.560546875v-17.2836914062Z"/><path d="m25.888671875,85.1196289062h2.419921875v11.8227539062h-2.419921875v-5.5815429688h-1.220703125c-.2802734375,2.3608398438-1.66015625,3.541015625-3.6806640625,3.541015625-2.3203125,0-3.8212890625-1.5205078125-3.8212890625-4.5610351562s1.5009765625-4.5610351562,3.8212890625-4.5610351562c2,0,3.3408203125,1.16015625,3.6806640625,3.4409179688h1.220703125v-4.1010742188Zm-6.341796875,5.2211914062c0,1.6401367188.5205078125,2.4604492188,1.4404296875,2.4604492188.900390625,0,1.419921875-.8203125,1.419921875-2.4604492188,0-1.66015625-.51953125-2.48046875-1.419921875-2.48046875-.919921875,0-1.4404296875.8203125-1.4404296875,2.48046875Zm1.1201171875,5.861328125h2.560546875v3.9208984375h9.08203125v2.1801757812h-10.6826171875c-.599609375,0-.9599609375-.259765625-.9599609375-.8198242188v-5.28125Zm8.8623046875-11.2827148438h2.4404296875v12.3227539062h-2.4404296875v-12.3227539062Z"/><path d="m34.41796875,86.3798828125h2.560546875v8.8818359375h4.140625c1.5205078125,0,2.900390625-.1997070312,3.9208984375-.740234375v-9.6020507812h2.560546875v5.7612304688h2.3408203125v2.2006835938h-2.3408203125v9.3217773438h-2.560546875v-5.8608398438c-1.259765625.83984375-3.1201171875,1.1401367188-5.140625,1.1401367188h-4.5009765625c-.6201171875,0-.98046875-.240234375-.98046875-.8203125v-10.2822265625Z"/><path d="m51.951171875,100.8432617188h-1.400390625v-3.0610351562h3.080078125v2.7006835938l-1.3798828125,3.3208007812h-1.5l1.2001953125-2.9604492188Z"/><path d="m59.669921875,97.9223632812h6.6416015625v-2.7407226562c-2.7802734375-.3598632812-4.5810546875-2.0400390625-4.5810546875-4.640625,0-2.9409179688,2.3212890625-4.7412109375,5.861328125-4.7412109375,3.541015625,0,5.861328125,1.8002929688,5.861328125,4.7412109375,0,2.6005859375-1.7998046875,4.2807617188-4.5810546875,4.640625v2.7407226562h6.6416015625v2.220703125h-15.84375v-2.220703125Zm7.921875-4.8208007812c1.9609375,0,3.30078125-.9404296875,3.30078125-2.560546875,0-1.6206054688-1.33984375-2.560546875-3.30078125-2.560546875-1.9599609375,0-3.30078125.9399414062-3.30078125,2.560546875,0,1.6201171875,1.3408203125,2.560546875,3.30078125,2.560546875Z"/><path d="m76.8427734375,97.8823242188h15.84375v2.220703125h-15.84375v-2.220703125Zm6.6220703125-11.9223632812h2.6005859375v1.2202148438c0,3.5405273438,2.560546875,5.1411132812,5.5009765625,6.0810546875l-.9599609375,2.0805664062c-2.48046875-.6201171875-5.041015625-2.3203125-5.841796875-4.2607421875-.759765625,1.9404296875-3.3203125,3.6806640625-5.8212890625,4.3408203125l-.9599609375-2.0805664062c2.900390625-.919921875,5.4814453125-2.6206054688,5.4814453125-6.1411132812v-1.240234375Z"/><path d="m94.0166015625,98.0825195312h15.84375v2.2202148438h-15.84375v-2.2202148438Zm2.28125-11.8627929688h11.2822265625v2.1206054688h-8.7216796875v1.5805664062h8.341796875v2.0200195312h-8.341796875v1.6206054688h9.001953125v2.1206054688h-10.6025390625c-.6005859375,0-.9599609375-.2602539062-.9599609375-.8203125v-8.6420898438Z"/><path d="m111.4921875,86.4599609375h8.28125v6.7216796875h-5.720703125v2.5405273438h4.5009765625c1.48046875,0,2.8408203125-.2001953125,3.8408203125-.7202148438v-10.0825195312h2.560546875v17.2836914062h-2.560546875v-5.4409179688c-1.2607421875.8203125-3.060546875,1.1401367188-5.0615234375,1.1401367188h-4.861328125c-.6201171875,0-.9794921875-.2397460938-.9794921875-.8203125v-6.0009765625h5.7607421875v-2.4404296875h-5.7607421875v-2.1806640625Z"/><path d="m136.408203125,92.1010742188c0,2.9409179688-1.1611328125,5.8012695312-4.62109375,5.8012695312-3.44140625,0-4.6416015625-2.8603515625-4.6416015625-5.8012695312,0-2.9204101562,1.2001953125-5.78125,4.6416015625-5.78125,3.4599609375,0,4.62109375,2.8608398438,4.62109375,5.78125Zm-6.7021484375,0c0,1.6206054688.4404296875,3.62109375,2.0810546875,3.62109375,1.6396484375,0,2.099609375-2.0004882812,2.099609375-3.62109375,0-1.6000976562-.4599609375-3.6005859375-2.099609375-3.6005859375-1.640625,0-2.0810546875,2.0004882812-2.0810546875,3.6005859375Zm8.4423828125-7.181640625h2.560546875v5.861328125h2.3603515625v2.220703125h-2.3603515625v9.2016601562h-2.560546875v-17.2836914062Z"/><path d="m145.0791015625,100.8432617188h-1.400390625v-3.0610351562h3.080078125v2.7006835938l-1.3798828125,3.3208007812h-1.5l1.2001953125-2.9604492188Z"/><path d="m155.5390625,89.2407226562l-2.48046875,1.3603515625-.9404296875-1.98046875,4.060546875-2.2807617188h1.900390625v13.6030273438h-2.5400390625v-10.7021484375Z"/><path d="m171.2646484375,92.8012695312c0,4.6411132812-2.4208984375,7.421875-6.2412109375,7.421875-2.1806640625,0-3.7607421875-1.060546875-4.62109375-2.3408203125l1.740234375-1.5600585938c.580078125.8999023438,1.6201171875,1.5400390625,2.880859375,1.5400390625,1.900390625,0,3.3203125-1.2802734375,3.580078125-3.7407226562-.8193359375.900390625-1.9599609375,1.5405273438-3.5205078125,1.5405273438-2.560546875,0-4.7607421875-1.8803710938-4.7607421875-4.7412109375,0-2.8603515625,2.3798828125-4.8608398438,5.28125-4.8608398438,3.720703125,0,5.6611328125,2.8403320312,5.6611328125,6.7412109375Zm-8.322265625-1.9404296875c0,1.3403320312,1.0009765625,2.4604492188,2.6611328125,2.4604492188,1.6396484375,0,2.640625-1.1201171875,2.640625-2.4604492188,0-1.3203125-1.0009765625-2.4404296875-2.640625-2.4404296875-1.66015625,0-2.6611328125,1.1201171875-2.6611328125,2.4404296875Z"/><path d="m172.345703125,98.0024414062c1.6806640625-3.220703125,6.8017578125-4.701171875,6.8017578125-7.3813476562,0-1.1606445312-.6396484375-2.2006835938-2.3603515625-2.2006835938-1.240234375,0-2.0400390625.6801757812-2.4208984375,1.8203125l-1.9599609375-1.080078125c.48046875-1.400390625,1.80078125-3.1005859375,4.5009765625-3.1005859375,3.060546875,0,4.78125,1.9404296875,4.78125,4.4008789062,0,4.0009765625-4.7216796875,5.4208984375-5.9814453125,7.2016601562h6.2412109375v2.2802734375h-9.6025390625v-1.9404296875Z"/><path d="m194.4326171875,92.8012695312c0,4.6411132812-2.4208984375,7.421875-6.2412109375,7.421875-2.1806640625,0-3.7607421875-1.060546875-4.62109375-2.3408203125l1.740234375-1.5600585938c.580078125.8999023438,1.6201171875,1.5400390625,2.880859375,1.5400390625,1.900390625,0,3.3203125-1.2802734375,3.580078125-3.7407226562-.8193359375.900390625-1.9599609375,1.5405273438-3.5205078125,1.5405273438-2.560546875,0-4.7607421875-1.8803710938-4.7607421875-4.7412109375,0-2.8603515625,2.3798828125-4.8608398438,5.28125-4.8608398438,3.720703125,0,5.6611328125,2.8403320312,5.6611328125,6.7412109375Zm-8.322265625-1.9404296875c0,1.3403320312,1.0009765625,2.4604492188,2.6611328125,2.4604492188,1.6396484375,0,2.640625-1.1201171875,2.640625-2.4604492188,0-1.3203125-1.0009765625-2.4404296875-2.640625-2.4404296875-1.66015625,0-2.6611328125,1.1201171875-2.6611328125,2.4404296875Z"/><path d="m196.6357421875,92.861328125h5.841796875v2.0405273438h-5.841796875v-2.0405273438Z"/><path d="m206.048828125,89.2407226562l-2.48046875,1.3603515625-.9404296875-1.98046875,4.060546875-2.2807617188h1.900390625v13.6030273438h-2.5400390625v-10.7021484375Z"/><path d="m221.7744140625,92.8012695312c0,4.6411132812-2.4208984375,7.421875-6.2412109375,7.421875-2.1806640625,0-3.7607421875-1.060546875-4.62109375-2.3408203125l1.740234375-1.5600585938c.580078125.8999023438,1.6201171875,1.5400390625,2.880859375,1.5400390625,1.900390625,0,3.3203125-1.2802734375,3.580078125-3.7407226562-.8193359375.900390625-1.9599609375,1.5405273438-3.5205078125,1.5405273438-2.560546875,0-4.7607421875-1.8803710938-4.7607421875-4.7412109375,0-2.8603515625,2.3798828125-4.8608398438,5.28125-4.8608398438,3.720703125,0,5.6611328125,2.8403320312,5.6611328125,6.7412109375Zm-8.322265625-1.9404296875c0,1.3403320312,1.0009765625,2.4604492188,2.6611328125,2.4604492188,1.6396484375,0,2.640625-1.1201171875,2.640625-2.4604492188,0-1.3203125-1.0009765625-2.4404296875-2.640625-2.4404296875-1.66015625,0-2.6611328125,1.1201171875-2.6611328125,2.4404296875Z"/><path d="m222.3740234375,97.9423828125l1.48046875-1.7602539062c.6796875.8002929688,1.759765625,1.6801757812,3.4404296875,1.6801757812s2.900390625-.7202148438,2.900390625-2.0205078125c0-1.1801757812-.9404296875-1.8403320312-2.8603515625-1.8403320312h-1.3408203125v-2.240234375h1.3408203125c1.48046875,0,2.140625-.8002929688,2.140625-1.7006835938,0-1.080078125-.9404296875-1.6401367188-2.0810546875-1.6401367188-1.4599609375,0-2.3203125.6401367188-2.83984375,1.3803710938l-1.5205078125-1.6005859375c.8798828125-1.1401367188,2.419921875-2.1401367188,4.3603515625-2.1401367188,2.9208984375,0,4.681640625,1.419921875,4.681640625,3.8208007812,0,1.1000976562-.66015625,2.16015625-1.740234375,2.8002929688,1.580078125.5205078125,2.4599609375,1.7807617188,2.4599609375,3.380859375,0,2.560546875-2.419921875,4.1611328125-5.5009765625,4.1611328125-2.4208984375,0-4.041015625-1.2802734375-4.9208984375-2.2807617188Z"/><path d="m236.826171875,89.2407226562l-2.48046875,1.3603515625-.9404296875-1.98046875,4.060546875-2.2807617188h1.900390625v13.6030273438h-2.5400390625v-10.7021484375Z"/><path d="m.013671875,109.3178710938h1.890625l2.7880859375,7.5083007812,2.787109375-7.5083007812h1.8916015625l-3.6142578125,9.525390625h-2.12890625L.013671875,109.3178710938Z"/><path d="m10.1591796875,108.5615234375h1.8212890625v1.8491210938h-1.8212890625v-1.8491210938Zm.0283203125,3.0678710938h1.7783203125v7.2138671875h-1.7783203125v-7.2138671875Z"/><path d="m13.5498046875,108.8979492188h1.7783203125v9.9453125h-1.7783203125v-9.9453125Z"/><path d="m16.912109375,108.8979492188h1.7783203125v9.9453125h-1.7783203125v-9.9453125Z"/><path d="m25.642578125,118.0166015625c-.5322265625.6025390625-1.3173828125.9946289062-2.255859375.9946289062-2.0029296875,0-3.4736328125-1.4848632812-3.4736328125-3.7680664062s1.470703125-3.7817382812,3.4736328125-3.7817382812c.9384765625,0,1.7236328125.40625,2.255859375,1.0083007812v-.8403320312h1.7783203125v7.2138671875h-1.7783203125v-.8266601562Zm0-1.6665039062v-2.2133789062c-.322265625-.6865234375-1.0654296875-1.0927734375-1.86328125-1.0927734375-1.1630859375,0-2.0595703125.798828125-2.0595703125,2.19921875,0,1.38671875.896484375,2.185546875,2.0595703125,2.185546875.7978515625,0,1.541015625-.40625,1.86328125-1.0786132812Z"/><path d="m32.17578125,109.3178710938h3.9365234375c1.9189453125,0,3.109375.9389648438,3.109375,2.5356445312,0,.7841796875-.3916015625,1.470703125-1.091796875,1.9047851562,1.064453125.3364257812,1.806640625,1.0786132812,1.806640625,2.3676757812,0,1.72265625-1.205078125,2.7172851562-3.41796875,2.7172851562h-4.3427734375v-9.525390625Zm3.6982421875,3.9223632812c1.064453125,0,1.470703125-.4760742188,1.470703125-1.2045898438s-.40625-1.2045898438-1.470703125-1.2045898438h-1.876953125v2.4091796875h1.876953125Zm.57421875,4.0903320312c1.1064453125,0,1.611328125-.4765625,1.611328125-1.2890625,0-.8120117188-.5048828125-1.2885742188-1.611328125-1.2885742188h-2.451171875v2.5776367188h2.451171875Z"/><path d="m40.78515625,115.2573242188c0-2.2553710938,1.5263671875-3.7958984375,3.6279296875-3.7958984375s3.4736328125,1.4565429688,3.4736328125,3.5297851562c0,.23828125-.0419921875.57421875-.083984375.8686523438h-5.224609375c.181640625.9663085938.8544921875,1.6245117188,2.1015625,1.6245117188.8818359375,0,1.6240234375-.490234375,2.044921875-1.064453125l.98046875,1.1625976562c-.6728515625.8125-1.7373046875,1.4428710938-3.1103515625,1.4428710938-2.3388671875,0-3.8095703125-1.6669921875-3.8095703125-3.7680664062Zm1.8212890625-.8544921875h3.515625c-.09765625-.9384765625-.7421875-1.470703125-1.708984375-1.470703125-.9248046875,0-1.568359375.5180664062-1.806640625,1.470703125Z"/><path d="m48.6982421875,115.2573242188c0-2.2553710938,1.5263671875-3.7958984375,3.6279296875-3.7958984375s3.4736328125,1.4565429688,3.4736328125,3.5297851562c0,.23828125-.0419921875.57421875-.083984375.8686523438h-5.224609375c.181640625.9663085938.8544921875,1.6245117188,2.1015625,1.6245117188.8818359375,0,1.6240234375-.490234375,2.044921875-1.064453125l.98046875,1.1625976562c-.6728515625.8125-1.7373046875,1.4428710938-3.109375,1.4428710938-2.33984375,0-3.810546875-1.6669921875-3.810546875-3.7680664062Zm1.8212890625-.8544921875h3.515625c-.09765625-.9384765625-.7421875-1.470703125-1.708984375-1.470703125-.9248046875,0-1.568359375.5180664062-1.806640625,1.470703125Z"/><path d="m57,111.6293945312h1.7783203125v1.1206054688c.4208984375-.7705078125,1.12109375-1.2885742188,2.0732421875-1.2885742188h.2099609375v1.6948242188c-1.064453125.0141601562-1.9326171875.322265625-2.283203125,1.4008789062v4.2861328125h-1.7783203125v-7.2138671875Z"/><path d="m.013671875,126.1176757812h1.890625l2.7880859375,7.5083007812,2.787109375-7.5083007812h1.8916015625l-3.6142578125,9.525390625h-2.12890625L.013671875,126.1176757812Z"/><path d="m10.1591796875,125.361328125h1.8212890625v1.8491210938h-1.8212890625v-1.8491210938Zm.0283203125,3.0678710938h1.7783203125v7.2138671875h-1.7783203125v-7.2138671875Z"/><path d="m13.1572265625,132.0571289062c0-2.2553710938,1.5263671875-3.7958984375,3.6279296875-3.7958984375s3.4736328125,1.4565429688,3.4736328125,3.5297851562c0,.23828125-.0419921875.57421875-.083984375.8686523438h-5.224609375c.181640625.9663085938.8544921875,1.6245117188,2.1015625,1.6245117188.8818359375,0,1.6240234375-.490234375,2.044921875-1.064453125l.98046875,1.1625976562c-.6728515625.8125-1.7373046875,1.4428710938-3.109375,1.4428710938-2.33984375,0-3.810546875-1.6669921875-3.810546875-3.7680664062Zm1.8212890625-.8544921875h3.515625c-.09765625-.9384765625-.7421875-1.470703125-1.708984375-1.470703125-.9248046875,0-1.568359375.5180664062-1.806640625,1.470703125Z"/><path d="m21.4580078125,128.4291992188h1.7783203125v1.0083007812c.392578125-.6440429688,1.1630859375-1.1762695312,2.283203125-1.1762695312,1.876953125,0,2.74609375,1.2885742188,2.74609375,3.1376953125v4.244140625h-1.779296875v-4.0483398438c0-1.1484375-.5458984375-1.7509765625-1.5966796875-1.7509765625-.8828125,0-1.470703125.6025390625-1.6533203125,1.2607421875v4.5385742188h-1.7783203125v-7.2138671875Z"/><path d="m29.79296875,128.4291992188h1.7783203125v1.0083007812c.392578125-.6440429688,1.1630859375-1.1762695312,2.283203125-1.1762695312,1.876953125,0,2.74609375,1.2885742188,2.74609375,3.1376953125v4.244140625h-1.779296875v-4.0483398438c0-1.1484375-.5458984375-1.7509765625-1.5966796875-1.7509765625-.8828125,0-1.470703125.6025390625-1.6533203125,1.2607421875v4.5385742188h-1.7783203125v-7.2138671875Z"/><path d="m43.451171875,134.81640625c-.5322265625.6025390625-1.3173828125.9946289062-2.255859375.9946289062-2.0029296875,0-3.4736328125-1.4848632812-3.4736328125-3.7680664062s1.470703125-3.7817382812,3.4736328125-3.7817382812c.9384765625,0,1.7236328125.40625,2.255859375,1.0083007812v-.8403320312h1.7783203125v7.2138671875h-1.7783203125v-.8266601562Zm0-1.6665039062v-2.2133789062c-.322265625-.6865234375-1.0654296875-1.0927734375-1.86328125-1.0927734375-1.1630859375,0-2.0595703125.798828125-2.0595703125,2.19921875,0,1.38671875.896484375,2.185546875,2.0595703125,2.185546875.7978515625,0,1.541015625-.40625,1.86328125-1.0786132812Z"/><path d="m47.78515625,136.2734375h-.98046875v-2.1430664062h2.1572265625v1.8911132812l-.966796875,2.3251953125h-1.0498046875l.83984375-2.0732421875Z"/><path d="m56.26953125,126.1176757812h2.142578125l3.7119140625,9.525390625h-1.890625l-.7705078125-2.0170898438h-4.244140625l-.7705078125,2.0170898438h-1.890625l3.7119140625-9.525390625Zm-.4482421875,5.9252929688h3.025390625l-1.5126953125-3.9780273438-1.5126953125,3.9780273438Z"/><path d="m69.4365234375,135.6430664062h-1.779296875v-1.0087890625c-.392578125.64453125-1.1630859375,1.1767578125-2.283203125,1.1767578125-1.876953125,0-2.7451171875-1.2885742188-2.7451171875-3.1376953125v-4.244140625h1.7783203125v4.0483398438c0,1.1484375.546875,1.7509765625,1.5966796875,1.7509765625.8828125,0,1.4716796875-.6025390625,1.6533203125-1.2607421875v-4.5385742188h1.779296875v7.2138671875Z"/><path d="m70.3759765625,134.4243164062l.9658203125-1.1206054688c.4765625.5883789062,1.2890625,1.0786132812,2.1435546875,1.0786132812.7705078125,0,1.31640625-.3081054688,1.31640625-.8403320312,0-.4760742188-.4345703125-.6723632812-1.1201171875-.7846679688l-.64453125-.09765625c-1.3447265625-.2241210938-2.1572265625-.966796875-2.1572265625-2.1435546875,0-1.2465820312,1.064453125-2.2548828125,2.87109375-2.2548828125,1.134765625,0,2.00390625.4760742188,2.5361328125,1.0922851562l-.9384765625,1.134765625c-.462890625-.490234375-1.0087890625-.7705078125-1.6669921875-.7705078125-.6728515625,0-1.0224609375.3081054688-1.0224609375.7006835938,0,.3637695312.279296875.5600585938.7978515625.6440429688l.64453125.0981445312c1.6533203125.251953125,2.4794921875,1.0224609375,2.4794921875,2.283203125,0,1.302734375-1.134765625,2.3955078125-3.166015625,2.3955078125-1.3447265625,0-2.380859375-.6303710938-3.0390625-1.4150390625Z"/><path d="m78.263671875,132.8837890625v-3.0258789062h-1.205078125v-1.4287109375h1.2607421875v-1.8349609375h1.72265625v1.8349609375h1.6669921875v1.4287109375h-1.6669921875v3.1098632812c0,.9243164062.4345703125,1.2465820312,1.3310546875,1.2465820312h.3359375v1.4287109375c-.23828125.0561523438-.5322265625.083984375-.7978515625.083984375-1.7509765625,0-2.6474609375-.8681640625-2.6474609375-2.8432617188Z"/><path d="m82.8681640625,128.4291992188h1.7783203125v1.1206054688c.4208984375-.7705078125,1.12109375-1.2885742188,2.0732421875-1.2885742188h.2099609375v1.6948242188c-1.064453125.0141601562-1.9326171875.322265625-2.283203125,1.4008789062v4.2861328125h-1.7783203125v-7.2138671875Z"/><path d="m87.7373046875,125.361328125h1.8212890625v1.8491210938h-1.8212890625v-1.8491210938Zm.0283203125,3.0678710938h1.7783203125v7.2138671875h-1.7783203125v-7.2138671875Z"/><path d="m96.46484375,134.81640625c-.5322265625.6025390625-1.3173828125.9946289062-2.255859375.9946289062-2.0029296875,0-3.4736328125-1.4848632812-3.4736328125-3.7680664062s1.470703125-3.7817382812,3.4736328125-3.7817382812c.9384765625,0,1.7236328125.40625,2.255859375,1.0083007812v-.8403320312h1.7783203125v7.2138671875h-1.7783203125v-.8266601562Zm0-1.6665039062v-2.2133789062c-.322265625-.6865234375-1.0654296875-1.0927734375-1.86328125-1.0927734375-1.1630859375,0-2.0595703125.798828125-2.0595703125,2.19921875,0,1.38671875.896484375,2.185546875,2.0595703125,2.185546875.7978515625,0,1.541015625-.40625,1.86328125-1.0786132812Z"/><path d="m100.798828125,136.2734375h-.98046875v-2.1430664062h2.1572265625v1.8911132812l-.966796875,2.3251953125h-1.0498046875l.83984375-2.0732421875Z"/><path d="m107.98046875,128.1489257812l-1.7373046875.9526367188-.658203125-1.38671875,2.84375-1.5971679688h1.330078125v9.525390625h-1.7783203125v-7.494140625Z"/><path d="m118.9423828125,130.642578125c0,3.2495117188-1.6943359375,5.1967773438-4.3701171875,5.1967773438-1.52734375,0-2.6337890625-.7426757812-3.236328125-1.6391601562l1.21875-1.0922851562c.40625.6298828125,1.134765625,1.078125,2.017578125,1.078125,1.3310546875,0,2.3251953125-.896484375,2.5068359375-2.619140625-.57421875.6303710938-1.3720703125,1.0786132812-2.46484375,1.0786132812-1.79296875,0-3.333984375-1.3168945312-3.333984375-3.3198242188s1.6669921875-3.4038085938,3.6982421875-3.4038085938c2.60546875,0,3.9638671875,1.9887695312,3.9638671875,4.720703125Zm-5.8271484375-1.3588867188c0,.9384765625.7001953125,1.72265625,1.86328125,1.72265625,1.1484375,0,1.8486328125-.7841796875,1.8486328125-1.72265625,0-.9248046875-.7001953125-1.708984375-1.8486328125-1.708984375-1.1630859375,0-1.86328125.7841796875-1.86328125,1.708984375Z"/><path d="m119.6494140625,134.2841796875c1.1767578125-2.2548828125,4.7626953125-3.2915039062,4.7626953125-5.1684570312,0-.8125-.4482421875-1.541015625-1.6533203125-1.541015625-.8681640625,0-1.4287109375.4760742188-1.6953125,1.2749023438l-1.3720703125-.7568359375c.3359375-.98046875,1.2607421875-2.1708984375,3.1513671875-2.1708984375,2.1435546875,0,3.34765625,1.3588867188,3.34765625,3.0815429688,0,2.8017578125-3.3056640625,3.7958984375-4.1884765625,5.04296875h4.37109375v1.5966796875h-6.7236328125v-1.3588867188Z"/><path d="m135.0615234375,130.642578125c0,3.2495117188-1.6943359375,5.1967773438-4.3701171875,5.1967773438-1.52734375,0-2.6337890625-.7426757812-3.236328125-1.6391601562l1.21875-1.0922851562c.40625.6298828125,1.134765625,1.078125,2.017578125,1.078125,1.3310546875,0,2.3251953125-.896484375,2.5068359375-2.619140625-.57421875.6303710938-1.3720703125,1.0786132812-2.46484375,1.0786132812-1.79296875,0-3.333984375-1.3168945312-3.333984375-3.3198242188s1.6669921875-3.4038085938,3.6982421875-3.4038085938c2.60546875,0,3.9638671875,1.9887695312,3.9638671875,4.720703125Zm-5.8271484375-1.3588867188c0,.9384765625.7001953125,1.72265625,1.86328125,1.72265625,1.1484375,0,1.8486328125-.7841796875,1.8486328125-1.72265625,0-.9248046875-.7001953125-1.708984375-1.8486328125-1.708984375-1.1630859375,0-1.86328125.7841796875-1.86328125,1.708984375Z"/><path d="m136.55078125,130.6845703125h4.08984375v1.4287109375h-4.08984375v-1.4287109375Z"/><path d="m143.09765625,128.1489257812l-1.7373046875.9526367188-.658203125-1.38671875,2.84375-1.5971679688h1.330078125v9.525390625h-1.7783203125v-7.494140625Z"/><path d="m154.05859375,130.642578125c0,3.2495117188-1.6943359375,5.1967773438-4.3701171875,5.1967773438-1.52734375,0-2.6337890625-.7426757812-3.236328125-1.6391601562l1.21875-1.0922851562c.40625.6298828125,1.134765625,1.078125,2.017578125,1.078125,1.3310546875,0,2.3251953125-.896484375,2.5068359375-2.619140625-.57421875.6303710938-1.3720703125,1.0786132812-2.46484375,1.0786132812-1.79296875,0-3.333984375-1.3168945312-3.333984375-3.3198242188s1.6669921875-3.4038085938,3.6982421875-3.4038085938c2.60546875,0,3.9638671875,1.9887695312,3.9638671875,4.720703125Zm-5.8271484375-1.3588867188c0,.9384765625.7001953125,1.72265625,1.86328125,1.72265625,1.1484375,0,1.8486328125-.7841796875,1.8486328125-1.72265625,0-.9248046875-.7001953125-1.708984375-1.8486328125-1.708984375-1.1630859375,0-1.86328125.7841796875-1.86328125,1.708984375Z"/><path d="m154.431640625,134.2421875l1.0361328125-1.232421875c.4765625.5600585938,1.232421875,1.1762695312,2.4091796875,1.1762695312s2.03125-.50390625,2.03125-1.4145507812c0-.8266601562-.658203125-1.2885742188-2.0029296875-1.2885742188h-.9384765625v-1.5688476562h.9384765625c1.037109375,0,1.4990234375-.560546875,1.4990234375-1.1909179688,0-.7563476562-.658203125-1.1484375-1.45703125-1.1484375-1.0224609375,0-1.625.4482421875-1.9892578125.9663085938l-1.064453125-1.1206054688c.6162109375-.7983398438,1.6953125-1.4985351562,3.0537109375-1.4985351562,2.044921875,0,3.2783203125.9946289062,3.2783203125,2.6752929688,0,.7705078125-.462890625,1.5126953125-1.21875,1.9609375,1.1064453125.3642578125,1.72265625,1.2470703125,1.72265625,2.3676757812,0,1.79296875-1.6953125,2.9135742188-3.8525390625,2.9135742188-1.6943359375,0-2.8291015625-.896484375-3.4453125-1.5971679688Z"/><path d="m164.501953125,128.1489257812l-1.7373046875.9526367188-.658203125-1.38671875,2.84375-1.5971679688h1.330078125v9.525390625h-1.7783203125v-7.494140625Z"/><rect class="cls-1" y="0" width="318.1005859375" height="138.3466796875"/></g></svg>