<?xml version="1.0" encoding="UTF-8"?><svg id="_레이어_2" xmlns="http://www.w3.org/2000/svg" viewBox="0 0 318.1005859375 138.3466796875"><defs><style>.cls-1{fill:none;}</style></defs><g id="Layer_1"><path d="m1.1328125,1.5205078125h8.90234375v2.2006835938h-3.1611328125c0,3.4204101562.83984375,5.6611328125,3.880859375,7.5014648438l-1.3603515625,1.9404296875c-1.8603515625-1.0400390625-3.2001953125-2.7407226562-3.720703125-4.2407226562-.5205078125,1.66015625-1.9404296875,3.4204101562-3.900390625,4.560546875l-1.3603515625-1.9404296875c3.080078125-1.8803710938,3.880859375-4.3408203125,3.880859375-7.8212890625H1.1328125V1.5205078125ZM11.9755859375,0h2.560546875v5.9614257812h2.3603515625v2.220703125h-2.3603515625v9.1015625h-2.560546875V0Z"/><path d="m19.2763671875,1.4204101562h11.302734375v3.0805664062c0,3.8208007812-.2998046875,6.181640625-1.4404296875,8.421875h3.720703125v2.220703125h-15.84375v-2.220703125h9.962890625c.580078125-1.6000976562.83984375-3.220703125.939453125-4.9008789062-.6396484375.6401367188-1.9404296875.9204101562-3.720703125.9204101562h-5.140625v-2.0805664062h6.0009765625c1.16015625,0,2.240234375-.080078125,2.9404296875-.3603515625.0205078125-.3999023438.0205078125-.8198242188.0205078125-1.2602539062v-1.6401367188h-8.7421875V1.4204101562Z"/><path d="m39.1953125,1.5405273438h8.421875v2.1806640625h-5.861328125v2.400390625h5.361328125v2.1206054688h-5.361328125v2.560546875h4.1806640625c1.5,0,2.8603515625-.1801757812,3.880859375-.7202148438V0h2.560546875v5.9614257812h2.3408203125v2.2006835938h-2.3408203125v9.1215820312h-2.560546875v-5.4409179688c-1.259765625.8403320312-3.1005859375,1.1401367188-5.12109375,1.1401367188h-4.5205078125c-.6201171875,0-.98046875-.2397460938-.98046875-.8203125V1.5405273438Z"/><path d="m56.328125,1.5405273438h8.421875v2.1806640625h-5.861328125v2.400390625h5.361328125v2.1206054688h-5.361328125v2.560546875h4.5009765625c1.48046875,0,2.8408203125-.2001953125,3.8408203125-.7202148438V0h2.560546875v17.2836914062h-2.560546875v-5.4409179688c-1.2607421875.8203125-3.060546875,1.1401367188-5.0615234375,1.1401367188h-4.861328125c-.6201171875,0-.9794921875-.2397460938-.9794921875-.8203125V1.5405273438Z"/><path d="m76.70703125,11.3627929688c0-2.060546875,1.240234375-3.2407226562,3.240234375-4.0209960938-.599609375-.7802734375-.98046875-1.560546875-.98046875-2.5805664062,0-1.8603515625,1.5810546875-3.6206054688,3.9814453125-3.6206054688,2.2802734375,0,3.880859375,1.5200195312,3.880859375,3.400390625,0,1.8408203125-1.30078125,2.9208984375-3.1005859375,3.541015625l2,2.16015625,2.48046875-2.740234375,1.6201171875,1.4599609375-2.640625,2.9008789062,2.861328125,3.1005859375v.0600585938h-3.28125l-1.2802734375-1.4204101562c-1.2197265625,1.0405273438-2.66015625,1.7006835938-4.240234375,1.7006835938-2.80078125,0-4.541015625-1.7006835938-4.541015625-3.9409179688Zm7.3408203125.6201171875l-2.7802734375-3.1005859375c-1.1806640625.4599609375-2.060546875,1.1000976562-2.060546875,2.2802734375,0,1.1401367188.900390625,1.9204101562,2.12109375,1.9204101562,1.0400390625,0,1.9404296875-.419921875,2.7197265625-1.1000976562Zm-1.6796875-5.4213867188c1.4599609375-.4799804688,2.0205078125-1.1000976562,2.0205078125-1.9404296875,0-.6401367188-.5400390625-1.3403320312-1.4609375-1.3403320312-1.01953125,0-1.5400390625.7802734375-1.5400390625,1.4604492188,0,.6201171875.33984375,1.080078125.98046875,1.8203125Z"/><path d="m95.646484375,1.5205078125h8.90234375v2.2006835938h-3.1611328125c0,3.4204101562.83984375,5.6611328125,3.880859375,7.5014648438l-1.3603515625,1.9404296875c-1.8603515625-1.0400390625-3.2001953125-2.7407226562-3.720703125-4.2407226562-.5205078125,1.66015625-1.9404296875,3.4204101562-3.900390625,4.560546875l-1.3603515625-1.9404296875c3.080078125-1.8803710938,3.880859375-4.3408203125,3.880859375-7.8212890625h-3.1611328125V1.5205078125Zm10.8427734375-1.5205078125h2.560546875v5.9614257812h2.3603515625v2.220703125h-2.3603515625v9.1015625h-2.560546875V0Z"/><path d="m113.7900390625,1.4204101562h11.302734375v3.0805664062c0,3.8208007812-.2998046875,6.181640625-1.4404296875,8.421875h3.720703125v2.220703125h-15.84375v-2.220703125h9.962890625c.580078125-1.6000976562.83984375-3.220703125.939453125-4.9008789062-.6396484375.6401367188-1.9404296875.9204101562-3.720703125.9204101562h-5.140625v-2.0805664062h6.0009765625c1.16015625,0,2.240234375-.080078125,2.9404296875-.3603515625.0205078125-.3999023438.0205078125-.8198242188.0205078125-1.2602539062v-1.6401367188h-8.7421875V1.4204101562Z"/><path d="m133.708984375,1.5405273438h8.28125v6.6616210938h-5.720703125v2.6005859375h4.220703125c1.48046875,0,2.8408203125-.2001953125,3.8408203125-.7202148438V0h2.560546875v5.9614257812h2.3408203125v2.2006835938h-2.3408203125v9.1215820312h-2.560546875v-5.4409179688c-1.259765625.8203125-3.060546875,1.1401367188-5.060546875,1.1401367188h-4.5810546875c-.6201171875,0-.98046875-.2397460938-.98046875-.8203125v-6.0810546875h5.7607421875v-2.3603515625h-5.7607421875V1.5405273438Z"/><path d="m151.28125,1.5805664062h11.322265625v2.640625c0,3.3408203125-.3603515625,6.0810546875-1.400390625,8.4819335938h3.8408203125v2.2202148438h-15.84375v-2.2202148438h9.7626953125c.8203125-2.48046875,1.0400390625-5.3813476562,1.0400390625-8.0219726562v-.8798828125h-8.7216796875V1.5805664062Z"/><path d="m165.9794921875.8603515625h8.28125v5.3012695312h-5.720703125v1.3203125h4.220703125c1.48046875,0,2.8408203125-.2001953125,3.8408203125-.7202148438V0h2.560546875v3.9208984375h2.3408203125v2.220703125h-2.3408203125v4.1606445312h-2.560546875v-1.900390625c-1.259765625.8203125-3.060546875,1.140625-5.060546875,1.140625h-4.5810546875c-.6201171875,0-.98046875-.240234375-.98046875-.8203125v-4.541015625h5.7607421875v-1.240234375h-5.7607421875V.8603515625Zm7.8818359375,9.8422851562c3.5205078125,0,5.4814453125,1.4399414062,5.4814453125,3.6005859375,0,2.140625-1.9609375,3.5610351562-5.4814453125,3.5610351562s-5.4814453125-1.4204101562-5.4814453125-3.5610351562c0-2.1606445312,1.9609375-3.6005859375,5.4814453125-3.6005859375Zm0,5.0009765625c1.900390625,0,2.9208984375-.5,2.9208984375-1.400390625,0-.919921875-1.0205078125-1.4404296875-2.9208984375-1.4404296875s-2.9208984375.5205078125-2.9208984375,1.4404296875c0,.900390625,1.0205078125,1.400390625,2.9208984375,1.400390625Z"/><path d="m181.642578125,10.0424804688h15.84375v2.2202148438h-6.6416015625v5.1010742188h-2.560546875v-5.1010742188h-6.6416015625v-2.2202148438Zm2.1611328125-9.3823242188h11.5224609375v2.220703125h-4.44140625c.33984375,2.1606445312,2.4404296875,3.4208984375,5.1611328125,4.0209960938l-.8798828125,2.1201171875c-2.220703125-.3999023438-4.720703125-1.7001953125-5.6015625-3.5205078125-.83984375,1.8403320312-3.4208984375,3.1206054688-5.5810546875,3.5405273438l-.8798828125-2.1201171875c2.7001953125-.580078125,4.80078125-1.8803710938,5.12109375-4.041015625h-4.4208984375V.66015625Z"/><path d="m0,32.28515625l1.3447265625-1.0229492188c.3642578125.6166992188.8681640625,1.1625976562,1.708984375,1.1625976562,1.302734375,0,1.79296875-.826171875,1.79296875-2.1708984375v-5.85546875h1.8203125v5.9116210938c0,2.2412109375-1.1484375,3.8100585938-3.5712890625,3.8100585938-1.5126953125,0-2.5634765625-.8408203125-3.095703125-1.8349609375Z"/><path d="m13.681640625,33.0971679688c-.5322265625.6025390625-1.3173828125.9946289062-2.255859375.9946289062-2.0029296875,0-3.4736328125-1.4848632812-3.4736328125-3.7680664062s1.470703125-3.7817382812,3.4736328125-3.7817382812c.9384765625,0,1.7236328125.40625,2.255859375,1.0083007812v-.8403320312h1.7783203125v7.2138671875h-1.7783203125v-.8266601562Zm0-1.6665039062v-2.2133789062c-.322265625-.6865234375-1.0654296875-1.0927734375-1.86328125-1.0927734375-1.1630859375,0-2.0595703125.798828125-2.0595703125,2.19921875,0,1.38671875.896484375,2.185546875,2.0595703125,2.185546875.7978515625,0,1.541015625-.40625,1.86328125-1.0786132812Z"/><path d="m16.6552734375,30.3237304688c0-1.9750976562,1.3583984375-3.7817382812,3.75390625-3.7817382812,1.45703125,0,2.5068359375.6723632812,3.20703125,1.79296875l-1.259765625.9663085938c-.392578125-.6865234375-.9951171875-1.1767578125-1.849609375-1.1767578125-1.232421875,0-2.044921875.8544921875-2.044921875,2.19921875,0,1.3310546875.8125,2.185546875,2.044921875,2.185546875.8544921875,0,1.45703125-.4907226562,1.849609375-1.1767578125l1.259765625.9663085938c-.7001953125,1.1206054688-1.75,1.79296875-3.20703125,1.79296875-2.3955078125,0-3.75390625-1.806640625-3.75390625-3.7680664062Z"/><path d="m31.6796875,36.3471679688h-1.7783203125v-3.263671875c-.5322265625.6020507812-1.3173828125,1.0083007812-2.26953125,1.0083007812-2.0029296875,0-3.4599609375-1.4848632812-3.4599609375-3.7680664062s1.45703125-3.7817382812,3.4599609375-3.7817382812c.9521484375,0,1.7373046875.419921875,2.26953125,1.0224609375v-.8544921875h1.7783203125v9.6372070312Zm-1.7783203125-4.9165039062v-2.2133789062c-.322265625-.6865234375-1.0654296875-1.0927734375-1.86328125-1.0927734375-1.1630859375,0-2.0595703125.798828125-2.0595703125,2.19921875,0,1.38671875.896484375,2.185546875,2.0595703125,2.185546875.7978515625,0,1.541015625-.40625,1.86328125-1.0786132812Z"/><path d="m40.0224609375,33.923828125h-1.779296875v-1.0087890625c-.392578125.64453125-1.1630859375,1.1767578125-2.283203125,1.1767578125-1.876953125,0-2.7451171875-1.2885742188-2.7451171875-3.1376953125v-4.244140625h1.7783203125v4.0483398438c0,1.1484375.546875,1.7509765625,1.5966796875,1.7509765625.8828125,0,1.4716796875-.6025390625,1.6533203125-1.2607421875v-4.5385742188h1.779296875v7.2138671875Z"/><path d="m41.2109375,30.337890625c0-2.2553710938,1.5263671875-3.7958984375,3.6279296875-3.7958984375s3.4736328125,1.4565429688,3.4736328125,3.5297851562c0,.23828125-.0419921875.57421875-.083984375.8686523438h-5.224609375c.181640625.9663085938.8544921875,1.6245117188,2.1015625,1.6245117188.8818359375,0,1.6240234375-.490234375,2.044921875-1.064453125l.98046875,1.1625976562c-.6728515625.8125-1.7373046875,1.4428710938-3.1103515625,1.4428710938-2.3388671875,0-3.8095703125-1.6669921875-3.8095703125-3.7680664062Zm1.8212890625-.8544921875h3.515625c-.09765625-.9384765625-.7421875-1.470703125-1.708984375-1.470703125-.9248046875,0-1.568359375.5180664062-1.806640625,1.470703125Z"/><path d="m48.8876953125,32.705078125l.966796875-1.1206054688c.4765625.5883789062,1.2890625,1.0786132812,2.1435546875,1.0786132812.7705078125,0,1.31640625-.3081054688,1.31640625-.8403320312,0-.4760742188-.4345703125-.6723632812-1.1201171875-.7846679688l-.64453125-.09765625c-1.3447265625-.2241210938-2.1572265625-.966796875-2.1572265625-2.1435546875,0-1.2465820312,1.064453125-2.2548828125,2.87109375-2.2548828125,1.134765625,0,2.0029296875.4760742188,2.5361328125,1.0922851562l-.9384765625,1.134765625c-.462890625-.490234375-1.0087890625-.7705078125-1.6669921875-.7705078125-.6728515625,0-1.0224609375.3081054688-1.0224609375.7006835938,0,.3637695312.279296875.5600585938.7978515625.6440429688l.64453125.0981445312c1.65234375.251953125,2.4794921875,1.0224609375,2.4794921875,2.283203125,0,1.302734375-1.134765625,2.3955078125-3.166015625,2.3955078125-1.3447265625,0-2.380859375-.6303710938-3.0400390625-1.4150390625Z"/><path d="m61.4619140625,25.9956054688h-2.8994140625v-1.5971679688h7.6201171875v1.5971679688h-2.8994140625v7.9282226562h-1.8212890625v-7.9282226562Z"/><path d="m71.330078125,33.0971679688c-.5322265625.6025390625-1.3173828125.9946289062-2.255859375.9946289062-2.0029296875,0-3.4736328125-1.4848632812-3.4736328125-3.7680664062s1.470703125-3.7817382812,3.4736328125-3.7817382812c.9384765625,0,1.7236328125.40625,2.255859375,1.0083007812v-.8403320312h1.7783203125v7.2138671875h-1.7783203125v-.8266601562Zm0-1.6665039062v-2.2133789062c-.322265625-.6865234375-1.0654296875-1.0927734375-1.86328125-1.0927734375-1.1630859375,0-2.0595703125.798828125-2.0595703125,2.19921875,0,1.38671875.896484375,2.185546875,2.0595703125,2.185546875.7978515625,0,1.541015625-.40625,1.86328125-1.0786132812Z"/><path d="m75.173828125,31.1645507812v-3.0258789062h-1.205078125v-1.4287109375h1.2607421875v-1.8349609375h1.72265625v1.8349609375h1.6669921875v1.4287109375h-1.6669921875v3.1098632812c0,.9243164062.4345703125,1.2465820312,1.3310546875,1.2465820312h.3359375v1.4287109375c-.23828125.0561523438-.5322265625.083984375-.7978515625.083984375-1.7509765625,0-2.6474609375-.8681640625-2.6474609375-2.8432617188Z"/><path d="m79.71484375,23.6420898438h1.8212890625v1.8491210938h-1.8212890625v-1.8491210938Zm.0283203125,3.0678710938h1.7783203125v7.2138671875h-1.7783203125v-7.2138671875Z"/><path d="m85.580078125,31.3603515625c0-1.4428710938.869140625-2.2690429688,2.26953125-2.8154296875-.419921875-.5463867188-.6865234375-1.0927734375-.6865234375-1.8071289062,0-1.302734375,1.1064453125-2.53515625,2.787109375-2.53515625,1.59765625,0,2.7177734375,1.064453125,2.7177734375,2.3813476562,0,1.2885742188-.91015625,2.044921875-2.1708984375,2.4790039062l1.400390625,1.5131835938,1.7373046875-1.9189453125,1.134765625,1.0224609375-1.849609375,2.0307617188,2.00390625,2.1713867188v.0419921875h-2.2978515625l-.896484375-.9946289062c-.8544921875.728515625-1.86328125,1.1909179688-2.9697265625,1.1909179688-1.9609375,0-3.1796875-1.1909179688-3.1796875-2.759765625Zm5.140625.4345703125l-1.9462890625-2.1713867188c-.8271484375.322265625-1.443359375.7705078125-1.443359375,1.5966796875,0,.7983398438.630859375,1.3447265625,1.4853515625,1.3447265625.728515625,0,1.3583984375-.2939453125,1.904296875-.7700195312Zm-1.17578125-3.7963867188c1.0224609375-.3359375,1.4140625-.7705078125,1.4140625-1.3588867188,0-.4482421875-.3779296875-.9384765625-1.0224609375-.9384765625-.7138671875,0-1.078125.5463867188-1.078125,1.0229492188,0,.4340820312.23828125.7563476562.6865234375,1.2744140625Z"/><path d="m97.900390625,32.28515625l1.3447265625-1.0229492188c.3642578125.6166992188.8681640625,1.1625976562,1.708984375,1.1625976562,1.302734375,0,1.79296875-.826171875,1.79296875-2.1708984375v-5.85546875h1.8203125v5.9116210938c0,2.2412109375-1.1484375,3.8100585938-3.5712890625,3.8100585938-1.5126953125,0-2.5634765625-.8408203125-3.095703125-1.8349609375Z"/><path d="m111.5810546875,33.0971679688c-.5322265625.6025390625-1.3173828125.9946289062-2.255859375.9946289062-2.0029296875,0-3.4736328125-1.4848632812-3.4736328125-3.7680664062s1.470703125-3.7817382812,3.4736328125-3.7817382812c.9384765625,0,1.7236328125.40625,2.255859375,1.0083007812v-.8403320312h1.7783203125v7.2138671875h-1.7783203125v-.8266601562Zm0-1.6665039062v-2.2133789062c-.322265625-.6865234375-1.0654296875-1.0927734375-1.86328125-1.0927734375-1.1630859375,0-2.0595703125.798828125-2.0595703125,2.19921875,0,1.38671875.896484375,2.185546875,2.0595703125,2.185546875.7978515625,0,1.541015625-.40625,1.86328125-1.0786132812Z"/><path d="m114.5556640625,30.3237304688c0-1.9750976562,1.3583984375-3.7817382812,3.75390625-3.7817382812,1.45703125,0,2.5068359375.6723632812,3.20703125,1.79296875l-1.259765625.9663085938c-.392578125-.6865234375-.9951171875-1.1767578125-1.849609375-1.1767578125-1.232421875,0-2.044921875.8544921875-2.044921875,2.19921875,0,1.3310546875.8125,2.185546875,2.044921875,2.185546875.8544921875,0,1.45703125-.4907226562,1.849609375-1.1767578125l1.259765625.9663085938c-.7001953125,1.1206054688-1.75,1.79296875-3.20703125,1.79296875-2.3955078125,0-3.75390625-1.806640625-3.75390625-3.7680664062Z"/><path d="m129.580078125,36.3471679688h-1.7783203125v-3.263671875c-.5322265625.6020507812-1.3173828125,1.0083007812-2.26953125,1.0083007812-2.0029296875,0-3.4599609375-1.4848632812-3.4599609375-3.7680664062s1.45703125-3.7817382812,3.4599609375-3.7817382812c.9521484375,0,1.7373046875.419921875,2.26953125,1.0224609375v-.8544921875h1.7783203125v9.6372070312Zm-1.7783203125-4.9165039062v-2.2133789062c-.322265625-.6865234375-1.0654296875-1.0927734375-1.86328125-1.0927734375-1.1630859375,0-2.0595703125.798828125-2.0595703125,2.19921875,0,1.38671875.896484375,2.185546875,2.0595703125,2.185546875.7978515625,0,1.541015625-.40625,1.86328125-1.0786132812Z"/><path d="m137.9228515625,33.923828125h-1.779296875v-1.0087890625c-.392578125.64453125-1.1630859375,1.1767578125-2.283203125,1.1767578125-1.876953125,0-2.7451171875-1.2885742188-2.7451171875-3.1376953125v-4.244140625h1.7783203125v4.0483398438c0,1.1484375.546875,1.7509765625,1.5966796875,1.7509765625.8828125,0,1.4716796875-.6025390625,1.6533203125-1.2607421875v-4.5385742188h1.779296875v7.2138671875Z"/><path d="m139.1103515625,30.337890625c0-2.2553710938,1.5263671875-3.7958984375,3.6279296875-3.7958984375s3.4736328125,1.4565429688,3.4736328125,3.5297851562c0,.23828125-.0419921875.57421875-.083984375.8686523438h-5.224609375c.181640625.9663085938.8544921875,1.6245117188,2.1015625,1.6245117188.8818359375,0,1.6240234375-.490234375,2.044921875-1.064453125l.98046875,1.1625976562c-.6728515625.8125-1.7373046875,1.4428710938-3.109375,1.4428710938-2.33984375,0-3.810546875-1.6669921875-3.810546875-3.7680664062Zm1.8212890625-.8544921875h3.515625c-.09765625-.9384765625-.7421875-1.470703125-1.708984375-1.470703125-.9248046875,0-1.568359375.5180664062-1.806640625,1.470703125Z"/><path d="m146.7880859375,32.705078125l.966796875-1.1206054688c.4765625.5883789062,1.2890625,1.0786132812,2.1435546875,1.0786132812.7705078125,0,1.31640625-.3081054688,1.31640625-.8403320312,0-.4760742188-.4345703125-.6723632812-1.1201171875-.7846679688l-.64453125-.09765625c-1.3447265625-.2241210938-2.1572265625-.966796875-2.1572265625-2.1435546875,0-1.2465820312,1.064453125-2.2548828125,2.87109375-2.2548828125,1.134765625,0,2.0029296875.4760742188,2.5361328125,1.0922851562l-.9384765625,1.134765625c-.462890625-.490234375-1.0087890625-.7705078125-1.6669921875-.7705078125-.6728515625,0-1.0224609375.3081054688-1.0224609375.7006835938,0,.3637695312.279296875.5600585938.7978515625.6440429688l.64453125.0981445312c1.65234375.251953125,2.4794921875,1.0224609375,2.4794921875,2.283203125,0,1.302734375-1.134765625,2.3955078125-3.166015625,2.3955078125-1.3447265625,0-2.380859375-.6303710938-3.0400390625-1.4150390625Z"/><path d="m157.2880859375,24.3984375h1.8212890625v7.9287109375h4.6083984375v1.5966796875h-6.4296875v-9.525390625Z"/><path d="m169.962890625,33.0971679688c-.5322265625.6025390625-1.3173828125.9946289062-2.255859375.9946289062-2.0029296875,0-3.4736328125-1.4848632812-3.4736328125-3.7680664062s1.470703125-3.7817382812,3.4736328125-3.7817382812c.9384765625,0,1.7236328125.40625,2.255859375,1.0083007812v-.8403320312h1.7783203125v7.2138671875h-1.7783203125v-.8266601562Zm0-1.6665039062v-2.2133789062c-.322265625-.6865234375-1.0654296875-1.0927734375-1.86328125-1.0927734375-1.1630859375,0-2.0595703125.798828125-2.0595703125,2.19921875,0,1.38671875.896484375,2.185546875,2.0595703125,2.185546875.7978515625,0,1.541015625-.40625,1.86328125-1.0786132812Z"/><path d="m172.9443359375,29.9877929688c0-2.0732421875,1.2744140625-3.4458007812,3.2919921875-3.4458007812.923828125,0,1.6806640625.40625,2.1845703125,1.0083007812v-.8403320312h1.779296875v5.9814453125c0,2.619140625-1.8349609375,3.8237304688-3.7822265625,3.8237304688-1.7646484375,0-2.787109375-.6723632812-3.333984375-1.4565429688l1.0791015625-1.1206054688c.4765625.6303710938,1.0927734375,1.0502929688,2.1708984375,1.0502929688,1.037109375,0,2.0869140625-.5883789062,2.0869140625-2.1572265625v-.3920898438c-.50390625.5883789062-1.2607421875.9946289062-2.1845703125.9946289062-2.017578125,0-3.2919921875-1.3725585938-3.2919921875-3.4458007812Zm5.4765625.8823242188v-1.7509765625c-.322265625-.658203125-.9658203125-1.0502929688-1.7509765625-1.0502929688-1.17578125,0-1.9189453125.7700195312-1.9189453125,1.9189453125,0,1.1484375.7431640625,1.9189453125,1.9189453125,1.9189453125.78515625,0,1.4287109375-.3920898438,1.7509765625-1.0366210938Z"/><path d="m181.7783203125,26.7099609375h1.7783203125v1.1206054688c.4208984375-.7705078125,1.12109375-1.2885742188,2.0732421875-1.2885742188h.2099609375v1.6948242188c-1.064453125.0141601562-1.9326171875.322265625-2.283203125,1.4008789062v4.2861328125h-1.7783203125v-7.2138671875Z"/><path d="m192.02734375,33.0971679688c-.5322265625.6025390625-1.3173828125.9946289062-2.255859375.9946289062-2.0029296875,0-3.4736328125-1.4848632812-3.4736328125-3.7680664062s1.470703125-3.7817382812,3.4736328125-3.7817382812c.9384765625,0,1.7236328125.40625,2.255859375,1.0083007812v-.8403320312h1.7783203125v7.2138671875h-1.7783203125v-.8266601562Zm0-1.6665039062v-2.2133789062c-.322265625-.6865234375-1.0654296875-1.0927734375-1.86328125-1.0927734375-1.1630859375,0-2.0595703125.798828125-2.0595703125,2.19921875,0,1.38671875.896484375,2.185546875,2.0595703125,2.185546875.7978515625,0,1.541015625-.40625,1.86328125-1.0786132812Z"/><path d="m195.408203125,26.7099609375h1.7783203125v1.0083007812c.392578125-.6440429688,1.1630859375-1.1762695312,2.283203125-1.1762695312,1.876953125,0,2.74609375,1.2885742188,2.74609375,3.1376953125v4.244140625h-1.779296875v-4.0483398438c0-1.1484375-.5458984375-1.7509765625-1.5966796875-1.7509765625-.8828125,0-1.470703125.6025390625-1.6533203125,1.2607421875v4.5385742188h-1.7783203125v-7.2138671875Z"/><path d="m203.3115234375,29.9877929688c0-2.0732421875,1.2744140625-3.4458007812,3.2919921875-3.4458007812.923828125,0,1.6806640625.40625,2.1845703125,1.0083007812v-.8403320312h1.779296875v5.9814453125c0,2.619140625-1.8349609375,3.8237304688-3.7822265625,3.8237304688-1.7646484375,0-2.787109375-.6723632812-3.333984375-1.4565429688l1.0791015625-1.1206054688c.4765625.6303710938,1.0927734375,1.0502929688,2.1708984375,1.0502929688,1.037109375,0,2.0869140625-.5883789062,2.0869140625-2.1572265625v-.3920898438c-.50390625.5883789062-1.2607421875.9946289062-2.1845703125.9946289062-2.017578125,0-3.2919921875-1.3725585938-3.2919921875-3.4458007812Zm5.4765625.8823242188v-1.7509765625c-.322265625-.658203125-.9658203125-1.0502929688-1.7509765625-1.0502929688-1.17578125,0-1.9189453125.7700195312-1.9189453125,1.9189453125,0,1.1484375.7431640625,1.9189453125,1.9189453125,1.9189453125.78515625,0,1.4287109375-.3920898438,1.7509765625-1.0366210938Z"/><path d="m211.7421875,30.337890625c0-2.2553710938,1.5263671875-3.7958984375,3.6279296875-3.7958984375s3.4736328125,1.4565429688,3.4736328125,3.5297851562c0,.23828125-.0419921875.57421875-.083984375.8686523438h-5.224609375c.181640625.9663085938.8544921875,1.6245117188,2.1015625,1.6245117188.8818359375,0,1.6240234375-.490234375,2.044921875-1.064453125l.98046875,1.1625976562c-.6728515625.8125-1.7373046875,1.4428710938-3.1103515625,1.4428710938-2.3388671875,0-3.8095703125-1.6669921875-3.8095703125-3.7680664062Zm1.8212890625-.8544921875h3.515625c-.09765625-.9384765625-.7421875-1.470703125-1.708984375-1.470703125-.9248046875,0-1.568359375.5180664062-1.806640625,1.470703125Z"/><path d="m1.61328125,61.6196289062h2.5v1.6206054688h3.4208984375v-1.6206054688h2.4609375v7.6416015625H2.5927734375c-.6201171875,0-.9794921875-.259765625-.9794921875-.8198242188v-6.8217773438Zm2.5,3.7211914062v1.7802734375h3.4208984375v-1.7802734375h-3.4208984375Zm.140625,5.1806640625h10.822265625v4.8813476562H6.7939453125v1.1000976562h8.7216796875v2.0004882812H5.2138671875c-.6005859375,0-.9599609375-.2602539062-.9599609375-.8203125v-4.1606445312h8.28125v-1.0405273438H4.25390625v-1.9604492188Zm8.26171875-9.6020507812h2.560546875v8.8022460938h-2.560546875v-8.8022460938Z"/><path d="m17.7802734375,62.4599609375h8.28125v6.6616210938h-5.720703125v2.6005859375h4.220703125c1.48046875,0,2.8408203125-.2001953125,3.8408203125-.7202148438v-10.0825195312h2.560546875v5.9614257812h2.3408203125v2.2006835938h-2.3408203125v9.1215820312h-2.560546875v-5.4409179688c-1.259765625.8203125-3.060546875,1.1401367188-5.060546875,1.1401367188h-4.5810546875c-.6201171875,0-.98046875-.2397460938-.98046875-.8203125v-6.0810546875h5.7607421875v-2.3603515625h-5.7607421875v-2.1806640625Z"/><path d="m48.1416015625,68.1010742188c0,2.9409179688-1.1611328125,5.8012695312-4.62109375,5.8012695312-3.44140625,0-4.6416015625-2.8603515625-4.6416015625-5.8012695312,0-2.9204101562,1.2001953125-5.78125,4.6416015625-5.78125,3.4599609375,0,4.62109375,2.8608398438,4.62109375,5.78125Zm-6.7021484375,0c0,1.6206054688.4404296875,3.62109375,2.0810546875,3.62109375,1.6396484375,0,2.099609375-2.0004882812,2.099609375-3.62109375,0-1.6000976562-.4599609375-3.6005859375-2.099609375-3.6005859375-1.640625,0-2.0810546875,2.0004882812-2.0810546875,3.6005859375Zm8.4423828125-7.181640625h2.560546875v5.861328125h2.3603515625v2.220703125h-2.3603515625v9.2016601562h-2.560546875v-17.2836914062Z"/><path d="m54.9189453125,74.0825195312h15.84375v2.2202148438h-15.84375v-2.2202148438Zm2.28125-11.8627929688h11.2822265625v5.7211914062h-8.7421875v1.6206054688h9.0224609375v2.1206054688h-10.6025390625c-.6005859375,0-.9599609375-.2602539062-.9599609375-.8203125v-4.9409179688h8.7412109375v-1.5805664062h-8.7412109375v-2.1206054688Z"/><path d="m72.05078125,64.4604492188h2.3603515625v1.8803710938c0,.4399414062.0205078125.7802734375.1005859375,1.2001953125h.4794921875c.16015625,0,.3603515625,0,.5205078125-.0200195312.080078125-.3999023438.099609375-.740234375.099609375-1.1801757812v-1.8803710938h2.361328125v1.400390625c0,.7001953125-.1806640625,1.2001953125-.4609375,1.6201171875.560546875-.0600585938,1.060546875-.1401367188,1.560546875-.3198242188l.3798828125,1.5600585938c-1.1396484375.6801757812-2.2998046875.8203125-4.140625.8203125h-4.2607421875v-2.0004882812h1.48046875c-.2998046875-.4599609375-.48046875-.9599609375-.48046875-1.6801757812v-1.400390625Zm-.7001953125-2.7006835938h7.322265625v2.0405273438h-7.322265625v-2.0405273438Zm3.4609375,8.8618164062h11.162109375v4.8212890625h-8.62109375v1.0600585938h9.0615234375v1.98046875h-10.642578125c-.599609375,0-.9599609375-.240234375-.9599609375-.8203125v-4.1005859375h8.6220703125v-1.0004882812h-8.6220703125v-1.9404296875Zm5.181640625-9.501953125h2.419921875v8.5419921875h-2.419921875v-3.1206054688h-1.3203125v-2.0004882812h1.3203125v-3.4208984375Zm3.5400390625-.2001953125h2.4404296875v8.8422851562h-2.4404296875v-8.8422851562Z"/><path d="m1.61328125,86.3798828125h2.560546875v8.8818359375h4.4208984375c1.5205078125,0,2.900390625-.1997070312,3.9208984375-.740234375v-9.6020507812h2.560546875v17.2836914062h-2.560546875v-5.8608398438c-1.2607421875.83984375-3.12109375,1.1401367188-5.1416015625,1.1401367188H2.5927734375c-.6201171875,0-.9794921875-.240234375-.9794921875-.8203125v-10.2822265625Z"/><path d="m17.1279296875,97.8823242188h15.84375v2.220703125h-15.84375v-2.220703125Zm6.6220703125-11.9223632812h2.6005859375v1.2202148438c0,3.5405273438,2.560546875,5.1411132812,5.5009765625,6.0810546875l-.9599609375,2.0805664062c-2.48046875-.6201171875-5.041015625-2.3203125-5.841796875-4.2607421875-.759765625,1.9404296875-3.3203125,3.6806640625-5.8212890625,4.3408203125l-.9599609375-2.0805664062c2.900390625-.919921875,5.4814453125-2.6206054688,5.4814453125-6.1411132812v-1.240234375Z"/><path d="m36.423828125,100.8432617188h-1.400390625v-3.0610351562h3.080078125v2.7006835938l-1.3798828125,3.3208007812h-1.5l1.2001953125-2.9604492188Z"/><path d="m44.123046875,98.0024414062h15.86328125v2.1806640625h-15.86328125v-2.1806640625Zm3.8408203125-8.6616210938h2.580078125v2.1401367188c0,.5.0400390625,1.1401367188.1005859375,1.5805664062h2.80078125c.080078125-.4404296875.1201171875-1.0805664062.1201171875-1.5805664062v-2.1401367188h2.580078125v1.580078125c0,.7802734375-.1396484375,1.6206054688-.48046875,2.140625h2.4609375v2.1801757812h-12.142578125v-2.1801757812h2.4609375c-.30078125-.4604492188-.48046875-1.2001953125-.48046875-2.0004882812v-1.7202148438Zm-1.7802734375-3.0209960938h11.7421875v2.2006835938h-11.7421875v-2.2006835938Z"/><path d="m60.8486328125,85.7797851562h8.28125v5.3012695312h-5.720703125v1.3203125h4.220703125c1.48046875,0,2.8408203125-.2001953125,3.8408203125-.7202148438v-6.76171875h2.560546875v3.9208984375h2.3408203125v2.220703125h-2.3408203125v4.1606445312h-2.560546875v-1.900390625c-1.259765625.8203125-3.060546875,1.140625-5.060546875,1.140625h-4.5810546875c-.6201171875,0-.98046875-.240234375-.98046875-.8203125v-4.541015625h5.7607421875v-1.240234375h-5.7607421875v-2.0805664062Zm7.8818359375,9.8422851562c3.5205078125,0,5.4814453125,1.4399414062,5.4814453125,3.6005859375,0,2.140625-1.9609375,3.5610351562-5.4814453125,3.5610351562s-5.4814453125-1.4204101562-5.4814453125-3.5610351562c0-2.1606445312,1.9609375-3.6005859375,5.4814453125-3.6005859375Zm0,5.0009765625c1.900390625,0,2.9208984375-.5,2.9208984375-1.400390625,0-.919921875-1.0205078125-1.4404296875-2.9208984375-1.4404296875s-2.9208984375.5205078125-2.9208984375,1.4404296875c0,.900390625,1.0205078125,1.400390625,2.9208984375,1.400390625Z"/><path d="m76.431640625,97.8823242188h15.84375v2.220703125h-15.84375v-2.220703125Zm6.6220703125-11.9223632812h2.6005859375v1.2202148438c0,3.5405273438,2.560546875,5.1411132812,5.5009765625,6.0810546875l-.9599609375,2.0805664062c-2.48046875-.6201171875-5.041015625-2.3203125-5.841796875-4.2607421875-.759765625,1.9404296875-3.3203125,3.6806640625-5.8212890625,4.3408203125l-.9599609375-2.0805664062c2.900390625-.919921875,5.4814453125-2.6206054688,5.4814453125-6.1411132812v-1.240234375Z"/><path d="m95.7275390625,100.8432617188h-1.400390625v-3.0610351562h3.080078125v2.7006835938l-1.3798828125,3.3208007812h-1.5l1.2001953125-2.9604492188Z"/><path d="m106.1875,89.2407226562l-2.48046875,1.3603515625-.9404296875-1.98046875,4.060546875-2.2807617188h1.900390625v13.6030273438h-2.5400390625v-10.7021484375Z"/><path d="m121.9130859375,92.8012695312c0,4.6411132812-2.4208984375,7.421875-6.2412109375,7.421875-2.1806640625,0-3.7607421875-1.060546875-4.62109375-2.3408203125l1.740234375-1.5600585938c.580078125.8999023438,1.6201171875,1.5400390625,2.880859375,1.5400390625,1.900390625,0,3.3203125-1.2802734375,3.580078125-3.7407226562-.8193359375.900390625-1.9599609375,1.5405273438-3.5205078125,1.5405273438-2.560546875,0-4.7607421875-1.8803710938-4.7607421875-4.7412109375,0-2.8603515625,2.3798828125-4.8608398438,5.28125-4.8608398438,3.720703125,0,5.6611328125,2.8403320312,5.6611328125,6.7412109375Zm-8.322265625-1.9404296875c0,1.3403320312,1.0009765625,2.4604492188,2.6611328125,2.4604492188,1.6396484375,0,2.640625-1.1201171875,2.640625-2.4604492188,0-1.3203125-1.0009765625-2.4404296875-2.640625-2.4404296875-1.66015625,0-2.6611328125,1.1201171875-2.6611328125,2.4404296875Z"/><path d="m122.806640625,97.9423828125l1.48046875-1.7602539062c.6806640625.8002929688,1.740234375,1.6801757812,3.4404296875,1.6801757812,1.6806640625,0,2.9013671875-.9399414062,2.9013671875-2.48046875,0-1.4204101562-1.0810546875-2.3203125-2.5810546875-2.3203125-1.060546875,0-1.8603515625.33984375-2.5.8002929688l-1.6005859375-.5405273438.6396484375-6.9814453125h7.8818359375v2.2807617188h-5.6611328125l-.2802734375,2.3603515625c.5205078125-.16015625,1.0810546875-.2802734375,1.701171875-.2802734375,2.740234375,0,5.0009765625,1.5405273438,5.0009765625,4.6811523438,0,3.0405273438-2.2412109375,4.8413085938-5.501953125,4.8413085938-2.419921875,0-4.0400390625-1.2802734375-4.9208984375-2.2807617188Z"/><path d="m134.6171875,96.08203125c0-1.6201171875.98046875-2.98046875,2.5205078125-3.4609375-1.1806640625-.6000976562-1.7607421875-1.6000976562-1.7607421875-2.8603515625,0-2.0004882812,1.62109375-3.7006835938,4.78125-3.7006835938,3.1611328125,0,4.78125,1.7001953125,4.78125,3.7006835938,0,1.2602539062-.580078125,2.2602539062-1.7607421875,2.8603515625,1.541015625.48046875,2.5205078125,1.8408203125,2.5205078125,3.4609375,0,2.3603515625-1.8603515625,4.1411132812-5.541015625,4.1411132812s-5.541015625-1.7807617188-5.541015625-4.1411132812Zm2.6005859375-.2202148438c0,1.1005859375.9404296875,2.0405273438,2.9404296875,2.0405273438,2.0009765625,0,2.9404296875-.9399414062,2.9404296875-2.0405273438,0-1.1000976562-.939453125-2.0400390625-2.9404296875-2.0400390625-2,0-2.9404296875.9399414062-2.9404296875,2.0400390625Zm.759765625-5.880859375c0,.9799804688.900390625,1.6000976562,2.1806640625,1.6000976562s2.1806640625-.6201171875,2.1806640625-1.6000976562c0-.98046875-.900390625-1.6005859375-2.1806640625-1.6005859375s-2.1806640625.6201171875-2.1806640625,1.6005859375Z"/><path d="m.013671875,109.3178710938h1.890625l2.7880859375,7.5083007812,2.787109375-7.5083007812h1.8916015625l-3.6142578125,9.525390625h-2.12890625L.013671875,109.3178710938Z"/><path d="m10.1591796875,108.5615234375h1.8212890625v1.8491210938h-1.8212890625v-1.8491210938Zm.0283203125,3.0678710938h1.7783203125v7.2138671875h-1.7783203125v-7.2138671875Z"/><path d="m13.5498046875,108.8979492188h1.7783203125v9.9453125h-1.7783203125v-9.9453125Z"/><path d="m16.912109375,108.8979492188h1.7783203125v9.9453125h-1.7783203125v-9.9453125Z"/><path d="m25.642578125,118.0166015625c-.5322265625.6025390625-1.3173828125.9946289062-2.255859375.9946289062-2.0029296875,0-3.4736328125-1.4848632812-3.4736328125-3.7680664062s1.470703125-3.7817382812,3.4736328125-3.7817382812c.9384765625,0,1.7236328125.40625,2.255859375,1.0083007812v-.8403320312h1.7783203125v7.2138671875h-1.7783203125v-.8266601562Zm0-1.6665039062v-2.2133789062c-.322265625-.6865234375-1.0654296875-1.0927734375-1.86328125-1.0927734375-1.1630859375,0-2.0595703125.798828125-2.0595703125,2.19921875,0,1.38671875.896484375,2.185546875,2.0595703125,2.185546875.7978515625,0,1.541015625-.40625,1.86328125-1.0786132812Z"/><path d="m34.837890625,109.3178710938h2.142578125l3.7119140625,9.525390625h-1.890625l-.7705078125-2.0170898438h-4.244140625l-.7705078125,2.0170898438h-1.890625l3.7119140625-9.525390625Zm-.4482421875,5.9252929688h3.025390625l-1.5126953125-3.9780273438-1.5126953125,3.9780273438Z"/><path d="m41.4814453125,111.6293945312h1.7783203125v1.1206054688c.4208984375-.7705078125,1.12109375-1.2885742188,2.0732421875-1.2885742188h.2099609375v1.6948242188c-1.064453125.0141601562-1.9326171875.322265625-2.283203125,1.4008789062v4.2861328125h-1.7783203125v-7.2138671875Z"/><path d="m46.3779296875,111.6293945312h1.7783203125v.8544921875c.5185546875-.6025390625,1.3173828125-1.0224609375,2.26953125-1.0224609375,1.9892578125,0,3.4599609375,1.4985351562,3.4599609375,3.7817382812s-1.470703125,3.7680664062-3.4599609375,3.7680664062c-.9521484375,0-1.7509765625-.40625-2.26953125-1.0083007812v3.263671875h-1.7783203125v-9.6372070312Zm5.701171875,3.6137695312c0-1.400390625-.896484375-2.19921875-2.0595703125-2.19921875-.798828125,0-1.541015625.40625-1.86328125,1.0927734375v2.2133789062c.322265625.6723632812,1.064453125,1.0786132812,1.86328125,1.0786132812,1.1630859375,0,2.0595703125-.798828125,2.0595703125-2.185546875Z"/><path d="m54.71875,115.2573242188c0-2.2553710938,1.5263671875-3.7958984375,3.6279296875-3.7958984375s3.4736328125,1.4565429688,3.4736328125,3.5297851562c0,.23828125-.0419921875.57421875-.083984375.8686523438h-5.224609375c.181640625.9663085938.8544921875,1.6245117188,2.1015625,1.6245117188.8818359375,0,1.6240234375-.490234375,2.044921875-1.064453125l.98046875,1.1625976562c-.6728515625.8125-1.7373046875,1.4428710938-3.1103515625,1.4428710938-2.3388671875,0-3.8095703125-1.6669921875-3.8095703125-3.7680664062Zm1.8212890625-.8544921875h3.515625c-.09765625-.9384765625-.7421875-1.470703125-1.708984375-1.470703125-.9248046875,0-1.568359375.5180664062-1.806640625,1.470703125Z"/><path d="m63.0341796875,108.8979492188h1.7783203125v9.9453125h-1.7783203125v-9.9453125Z"/><path d="m1.0498046875,126.1176757812h1.59765625l5.1826171875,6.5v-6.5h1.8212890625v9.525390625h-1.5830078125l-5.197265625-6.4995117188v6.4995117188h-1.8212890625v-9.525390625Z"/><path d="m11.4130859375,125.361328125h1.8212890625v1.8491210938h-1.8212890625v-1.8491210938Zm.0283203125,3.0678710938h1.7783203125v7.2138671875h-1.7783203125v-7.2138671875Z"/><path d="m14.37890625,132.04296875c0-1.9750976562,1.3583984375-3.7817382812,3.75390625-3.7817382812,1.45703125,0,2.5068359375.6723632812,3.2080078125,1.79296875l-1.2607421875.9663085938c-.392578125-.6865234375-.9951171875-1.1767578125-1.849609375-1.1767578125-1.232421875,0-2.044921875.8544921875-2.044921875,2.19921875,0,1.3310546875.8125,2.185546875,2.044921875,2.185546875.8544921875,0,1.45703125-.4907226562,1.849609375-1.1767578125l1.2607421875.9663085938c-.701171875,1.1206054688-1.7509765625,1.79296875-3.2080078125,1.79296875-2.3955078125,0-3.75390625-1.806640625-3.75390625-3.7680664062Z"/><path d="m21.8818359375,132.0571289062c0-2.2553710938,1.5263671875-3.7958984375,3.6279296875-3.7958984375s3.4736328125,1.4565429688,3.4736328125,3.5297851562c0,.23828125-.0419921875.57421875-.083984375.8686523438h-5.224609375c.181640625.9663085938.8544921875,1.6245117188,2.1015625,1.6245117188.8818359375,0,1.6240234375-.490234375,2.044921875-1.064453125l.98046875,1.1625976562c-.6728515625.8125-1.7373046875,1.4428710938-3.109375,1.4428710938-2.33984375,0-3.810546875-1.6669921875-3.810546875-3.7680664062Zm1.8212890625-.8544921875h3.515625c-.09765625-.9384765625-.7421875-1.470703125-1.708984375-1.470703125-.9248046875,0-1.568359375.5180664062-1.806640625,1.470703125Z"/><path d="m31.03515625,136.2734375h-.98046875v-2.1430664062h2.1572265625v1.8911132812l-.966796875,2.3251953125h-1.0498046875l.83984375-2.0732421875Z"/><path d="m36.8583984375,126.1176757812h6.5556640625v1.5971679688h-4.734375v2.3813476562h4.2021484375v1.5966796875h-4.2021484375v3.9501953125h-1.8212890625v-9.525390625Z"/><path d="m44.1630859375,128.4291992188h1.7783203125v1.1206054688c.4208984375-.7705078125,1.12109375-1.2885742188,2.0732421875-1.2885742188h.2099609375v1.6948242188c-1.064453125.0141601562-1.9326171875.322265625-2.283203125,1.4008789062v4.2861328125h-1.7783203125v-7.2138671875Z"/><path d="m54.412109375,134.81640625c-.5322265625.6025390625-1.3173828125.9946289062-2.255859375.9946289062-2.0029296875,0-3.4736328125-1.4848632812-3.4736328125-3.7680664062s1.470703125-3.7817382812,3.4736328125-3.7817382812c.9384765625,0,1.7236328125.40625,2.255859375,1.0083007812v-.8403320312h1.7783203125v7.2138671875h-1.7783203125v-.8266601562Zm0-1.6665039062v-2.2133789062c-.322265625-.6865234375-1.0654296875-1.0927734375-1.86328125-1.0927734375-1.1630859375,0-2.0595703125.798828125-2.0595703125,2.19921875,0,1.38671875.896484375,2.185546875,2.0595703125,2.185546875.7978515625,0,1.541015625-.40625,1.86328125-1.0786132812Z"/><path d="m57.79296875,128.4291992188h1.7783203125v1.0083007812c.392578125-.6440429688,1.1630859375-1.1762695312,2.283203125-1.1762695312,1.876953125,0,2.74609375,1.2885742188,2.74609375,3.1376953125v4.244140625h-1.779296875v-4.0483398438c0-1.1484375-.5458984375-1.7509765625-1.5966796875-1.7509765625-.8828125,0-1.470703125.6025390625-1.6533203125,1.2607421875v4.5385742188h-1.7783203125v-7.2138671875Z"/><path d="m65.7158203125,132.04296875c0-1.9750976562,1.3583984375-3.7817382812,3.75390625-3.7817382812,1.45703125,0,2.5068359375.6723632812,3.20703125,1.79296875l-1.259765625.9663085938c-.392578125-.6865234375-.9951171875-1.1767578125-1.849609375-1.1767578125-1.232421875,0-2.044921875.8544921875-2.044921875,2.19921875,0,1.3310546875.8125,2.185546875,2.044921875,2.185546875.8544921875,0,1.45703125-.4907226562,1.849609375-1.1767578125l1.259765625.9663085938c-.7001953125,1.1206054688-1.75,1.79296875-3.20703125,1.79296875-2.3955078125,0-3.75390625-1.806640625-3.75390625-3.7680664062Z"/><path d="m73.2177734375,132.0571289062c0-2.2553710938,1.5263671875-3.7958984375,3.6279296875-3.7958984375s3.4736328125,1.4565429688,3.4736328125,3.5297851562c0,.23828125-.0419921875.57421875-.083984375.8686523438h-5.224609375c.181640625.9663085938.8544921875,1.6245117188,2.1015625,1.6245117188.8818359375,0,1.6240234375-.490234375,2.044921875-1.064453125l.98046875,1.1625976562c-.6728515625.8125-1.7373046875,1.4428710938-3.109375,1.4428710938-2.33984375,0-3.810546875-1.6669921875-3.810546875-3.7680664062Zm1.8212890625-.8544921875h3.515625c-.09765625-.9384765625-.7421875-1.470703125-1.708984375-1.470703125-.9248046875,0-1.568359375.5180664062-1.806640625,1.470703125Z"/><path d="m82.37109375,136.2734375h-.98046875v-2.1430664062h2.1572265625v1.8911132812l-.966796875,2.3251953125h-1.0498046875l.83984375-2.0732421875Z"/><path d="m89.5537109375,128.1489257812l-1.7373046875.9526367188-.658203125-1.38671875,2.84375-1.5971679688h1.330078125v9.525390625h-1.7783203125v-7.494140625Z"/><path d="m100.515625,130.642578125c0,3.2495117188-1.6943359375,5.1967773438-4.3701171875,5.1967773438-1.52734375,0-2.6337890625-.7426757812-3.236328125-1.6391601562l1.21875-1.0922851562c.40625.6298828125,1.134765625,1.078125,2.017578125,1.078125,1.3310546875,0,2.3251953125-.896484375,2.5068359375-2.619140625-.57421875.6303710938-1.3720703125,1.0786132812-2.46484375,1.0786132812-1.79296875,0-3.333984375-1.3168945312-3.333984375-3.3198242188s1.6669921875-3.4038085938,3.6982421875-3.4038085938c2.60546875,0,3.9638671875,1.9887695312,3.9638671875,4.720703125Zm-5.8271484375-1.3588867188c0,.9384765625.7001953125,1.72265625,1.86328125,1.72265625,1.1484375,0,1.8486328125-.7841796875,1.8486328125-1.72265625,0-.9248046875-.7001953125-1.708984375-1.8486328125-1.708984375-1.1630859375,0-1.86328125.7841796875-1.86328125,1.708984375Z"/><path d="m101.0908203125,134.2421875l1.037109375-1.232421875c.4755859375.5600585938,1.21875,1.1762695312,2.4091796875,1.1762695312,1.1767578125,0,2.03125-.658203125,2.03125-1.7368164062,0-.9946289062-.7568359375-1.6245117188-1.8076171875-1.6245117188-.7421875,0-1.302734375.2377929688-1.7509765625.5600585938l-1.1201171875-.3784179688.4482421875-4.888671875h5.5185546875v1.5971679688h-3.9638671875l-.1962890625,1.6528320312c.3642578125-.1123046875.7568359375-.1962890625,1.1904296875-.1962890625,1.9189453125,0,3.501953125,1.0786132812,3.501953125,3.2778320312,0,2.1293945312-1.568359375,3.3901367188-3.8515625,3.3901367188-1.6953125,0-2.830078125-.896484375-3.4462890625-1.5971679688Z"/><path d="m109.30859375,132.939453125c0-1.1342773438.6865234375-2.0869140625,1.7646484375-2.4233398438-.826171875-.419921875-1.232421875-1.1206054688-1.232421875-2.0029296875,0-1.4008789062,1.134765625-2.5913085938,3.34765625-2.5913085938s3.34765625,1.1904296875,3.34765625,2.5913085938c0,.8823242188-.40625,1.5830078125-1.232421875,2.0029296875,1.078125.3364257812,1.7646484375,1.2890625,1.7646484375,2.4233398438,0,1.6528320312-1.302734375,2.8999023438-3.8798828125,2.8999023438s-3.8798828125-1.2470703125-3.8798828125-2.8999023438Zm1.8203125-.1538085938c0,.7705078125.6591796875,1.4287109375,2.0595703125,1.4287109375s2.05859375-.658203125,2.05859375-1.4287109375-.658203125-1.4287109375-2.05859375-1.4287109375-2.0595703125.658203125-2.0595703125,1.4287109375Zm.5322265625-4.1181640625c0,.6860351562.630859375,1.1206054688,1.52734375,1.1206054688s1.5263671875-.4345703125,1.5263671875-1.1206054688c0-.6865234375-.6298828125-1.1206054688-1.5263671875-1.1206054688s-1.52734375.4340820312-1.52734375,1.1206054688Z"/><rect class="cls-1" x="0" y="0" width="318.1005859375" height="138.3466796875"/></g></svg>