<?xml version="1.0" encoding="UTF-8"?><svg id="_레이어_2" xmlns="http://www.w3.org/2000/svg" viewBox="0 0 318.1005859375 138.3466796875"><defs><style>.cls-1{fill:none;}</style></defs><g id="Layer_1"><path d="m.8994140625.8403320313h8.1015625v1.4604492188c0,4.80078125-3.8203125,6.44140625-8.4013671875,7.0415039062-.1796875-.66015625-.400390625-1.3403320312-.599609375-2.0205078125,2.3798828125-.3002929688,4.5-.8603515625,5.6005859375-2.060546875-.7197265625.3803710938-1.720703125.5400390625-2.8408203125.5400390625H.4794921875v-1.900390625h5.861328125c.0595703125-.2797851562.1201171875-.66015625.1201171875-.9799804688H.8994140625V.8403320313Zm2.220703125,8.7416992188h10.7626953125v4.9013671875H5.6611328125v1.1000976562h8.78125v1.98046875H4.080078125c-.599609375,0-.9599609375-.240234375-.9599609375-.8203125v-4.140625h8.2216796875v-1.060546875H3.1201171875v-1.9604492188ZM11.322265625,0h2.560546875v3.4609375h2.3603515625v2.220703125h-2.3603515625v3.1005859375h-2.560546875V0Z"/><path d="m22.21875,1.5405273438h8.28125v6.6616210938h-5.720703125v2.6005859375h4.220703125c1.48046875,0,2.8408203125-.2001953125,3.8408203125-.7202148438V0h2.560546875v5.9614257812h2.3408203125v2.2006835938h-2.3408203125v9.1215820312h-2.560546875v-5.4409179688c-1.259765625.8203125-3.060546875,1.1401367188-5.060546875,1.1401367188h-4.5810546875c-.6201171875,0-.98046875-.2397460938-.98046875-.8203125v-6.0810546875h5.7607421875v-2.3603515625h-5.7607421875V1.5405273438Z"/><path d="m38.607421875,1.5805664063h8.1416015625v1.48046875c0,1.1201171875-.16015625,2.16015625-.419921875,3.0805664062h3.3408203125V0h2.560546875v17.2836914062h-2.560546875v-8.9418945312h-4.2412109375c-1.2998046875,2.220703125-3.5009765625,3.880859375-6.5810546875,5.1010742188l-1.060546875-2.2001953125c3.8203125-1.4604492188,6.4013671875-4.12109375,6.4013671875-7.44140625h-5.5810546875V1.5805664063Z"/><path d="m55.2119140625,3.541015625h2.3603515625v1.8803710938c0,.4399414062.0205078125.7802734375.1005859375,1.2001953125h.4794921875c.16015625,0,.3603515625,0,.5205078125-.0200195312.080078125-.3999023438.099609375-.740234375.099609375-1.1801757812v-1.8803710938h2.361328125v1.400390625c0,.7001953125-.1806640625,1.2001953125-.4609375,1.6201171875.560546875-.0600585938,1.060546875-.1401367188,1.560546875-.3198242188l.3798828125,1.5600585938c-1.1396484375.6801757812-2.2998046875.8203125-4.140625.8203125h-4.2607421875v-2.0004882812h1.48046875c-.2998046875-.4599609375-.48046875-.9599609375-.48046875-1.6801757812v-1.400390625Zm-.7001953125-2.7006835938h7.322265625v2.0405273438h-7.322265625V.8403320313Zm3.4609375,8.8618164062h11.162109375v4.8212890625h-8.62109375v1.0600585938h9.0615234375v1.98046875h-10.642578125c-.599609375,0-.9599609375-.240234375-.9599609375-.8203125v-4.1005859375h8.6220703125v-1.0004882812h-8.6220703125v-1.9404296875ZM63.154296875.2001953125h2.419921875v8.5419921875h-2.419921875v-3.1206054688h-1.3203125v-2.0004882812h1.3203125V.2001953125ZM66.6943359375,0h2.4404296875v8.8422851562h-2.4404296875V0Z"/><path d="m71.1728515625,13.1630859375h15.84375v2.2202148438h-15.84375v-2.2202148438Zm2.28125-11.8627929688h11.2822265625v2.1206054688h-8.7216796875v1.5805664062h8.341796875v2.0200195312h-8.341796875v1.6206054688h9.001953125v2.1206054688h-10.6025390625c-.6005859375,0-.9599609375-.2602539062-.9599609375-.8203125V1.3002929688Z"/><path d="m90.453125,15.923828125h-1.400390625v-3.0610351562h3.080078125v2.7006835938l-1.3798828125,3.3208007812h-1.5l1.2001953125-2.9604492188Z"/><path d="m103.0537109375.7001953125c2.900390625,0,4.720703125,1.720703125,4.720703125,4.2612304688s-1.8203125,4.2607421875-4.720703125,4.2607421875c-2.9208984375,0-4.78125-1.7202148438-4.78125-4.2607421875s1.8603515625-4.2612304688,4.78125-4.2612304688Zm0,6.361328125c1.2998046875,0,2.2001953125-.7998046875,2.2001953125-2.1000976562s-.900390625-2.1005859375-2.2001953125-2.1005859375c-1.3203125,0-2.220703125.8002929688-2.220703125,2.1005859375s.900390625,2.1000976562,2.220703125,2.1000976562Zm3.6806640625,3.2407226562c3.5205078125,0,5.48046875,1.5205078125,5.48046875,3.80078125,0,2.2807617188-1.9599609375,3.7612304688-5.48046875,3.7612304688s-5.4814453125-1.48046875-5.4814453125-3.7612304688c0-2.2802734375,1.9609375-3.80078125,5.4814453125-3.80078125Zm0,5.4013671875c1.900390625,0,2.919921875-.6000976562,2.919921875-1.6005859375,0-1.0200195312-1.01953125-1.6401367188-2.919921875-1.6401367188s-2.9208984375.6201171875-2.9208984375,1.6401367188c0,1.0004882812,1.0205078125,1.6005859375,2.9208984375,1.6005859375ZM109.474609375,0h2.560546875v3.7612304688h2.3408203125v2.2001953125h-2.3408203125v3.9409179688h-2.560546875V0Z"/><path d="m114.4912109375,12.962890625h15.84375v2.220703125h-15.84375v-2.220703125Zm2.28125-11.5825195312h11.2822265625v2.220703125h-8.7216796875v4.0209960938h8.921875v2.2202148438h-10.5224609375c-.6005859375,0-.9599609375-.2602539062-.9599609375-.8203125V1.3803710938Z"/><path d="m131.6611328125,1.5805664063h6.0009765625v6.521484375h-3.560546875v2.4404296875h1.5205078125c1.240234375,0,2.2802734375-.080078125,3.16015625-.3798828125l.419921875,1.6801757812c-1.1796875.7202148438-2.7001953125.8603515625-4.6005859375.8603515625h-1.9609375c-.6201171875,0-.9794921875-.2602539062-.9794921875-.8203125v-5.8212890625h3.6201171875v-2.3403320312h-3.6201171875V1.5805664063Zm8.3212890625-1.2802734375h2.4208984375v16.4833984375h-2.4208984375V7.1416015625h-1.640625v-2.1801757812h1.640625V.3002929688ZM143.7236328125,0h2.4404296875v17.2836914062h-2.4404296875V0Z"/><path d="m152.759765625,10.0625h15.86328125v2.2001953125h-6.6416015625v5.1010742188h-2.580078125v-5.1010742188h-6.6416015625v-2.2001953125Zm3.880859375-6.5415039062h2.6005859375v1.4404296875c0,.4399414062.01953125.83984375.080078125,1.2001953125h2.740234375c.0400390625-.3603515625.080078125-.7602539062.080078125-1.2001953125v-1.4404296875h2.6005859375v1.0200195312c0,.6201171875-.1396484375,1.2001953125-.419921875,1.6206054688h2.3408203125v2.1801757812h-11.943359375v-2.1801757812h2.3212890625c-.240234375-.400390625-.400390625-.8803710938-.400390625-1.5205078125v-1.1201171875Zm-1.720703125-2.8408203125h11.54296875v2.2006835938h-11.54296875V.6801757813Z"/><path d="m169.6796875,13.1630859375h15.84375v2.2202148438h-15.84375v-2.2202148438Zm2.28125-11.8627929688h11.2822265625v2.1206054688h-8.7216796875v1.5805664062h8.341796875v2.0200195312h-8.341796875v1.6206054688h9.001953125v2.1206054688h-10.6025390625c-.6005859375,0-.9599609375-.2602539062-.9599609375-.8203125V1.3002929688Z"/><path d="m186.3857421875,1.060546875h8.3818359375v8.7216796875h-7.4013671875c-.6201171875,0-.98046875-.259765625-.98046875-.8203125V1.060546875Zm2.400390625,10.1420898438h2.560546875v4.0009765625h8.7822265625v2.1801757812h-10.3828125c-.599609375,0-.9599609375-.259765625-.9599609375-.8198242188v-5.361328125Zm.099609375-7.9619140625v4.361328125h3.4208984375V3.2407226563h-3.4208984375ZM197.0078125,0h2.560546875v4.6411132812h2.3408203125v2.2006835938h-2.3408203125v5.8813476562h-2.560546875V0Z"/><path d="m.396484375,24.3984375h1.8212890625v4.46875l3.8525390625-4.46875h2.19921875v.0424804688l-3.5302734375,3.9916992188,3.7255859375,5.44921875v.0419921875h-2.12890625l-2.8017578125-4.1181640625-1.31640625,1.4848632812v2.6333007812H.396484375v-9.525390625Z"/><path d="m14.09765625,33.0971679688c-.5322265625.6025390625-1.3173828125.9946289062-2.255859375.9946289062-2.0029296875,0-3.4736328125-1.4848632812-3.4736328125-3.7680664062s1.470703125-3.7817382812,3.4736328125-3.7817382812c.9384765625,0,1.7236328125.40625,2.255859375,1.0083007812v-.8403320312h1.7783203125v7.2138671875h-1.7783203125v-.8266601562Zm0-1.6665039062v-2.2133789062c-.322265625-.6865234375-1.0654296875-1.0927734375-1.86328125-1.0927734375-1.1630859375,0-2.0595703125.798828125-2.0595703125,2.19921875,0,1.38671875.896484375,2.185546875,2.0595703125,2.185546875.7978515625,0,1.541015625-.40625,1.86328125-1.0786132812Z"/><path d="m17.478515625,26.7099609375h1.7783203125v1.1206054688c.4208984375-.7705078125,1.12109375-1.2885742188,2.0732421875-1.2885742188h.2099609375v1.6948242188c-1.064453125.0141601562-1.9326171875.322265625-2.283203125,1.4008789062v4.2861328125h-1.7783203125v-7.2138671875Z"/><path d="m22.375,23.978515625h1.7783203125v9.9453125h-1.7783203125v-9.9453125Z"/><path d="m28.912109375,24.3984375h1.8212890625v7.9287109375h4.6083984375v1.5966796875h-6.4296875v-9.525390625Z"/><path d="m41.5869140625,33.0971679688c-.5322265625.6025390625-1.3173828125.9946289062-2.255859375.9946289062-2.0029296875,0-3.4736328125-1.4848632812-3.4736328125-3.7680664062s1.470703125-3.7817382812,3.4736328125-3.7817382812c.9384765625,0,1.7236328125.40625,2.255859375,1.0083007812v-.8403320312h1.7783203125v7.2138671875h-1.7783203125v-.8266601562Zm0-1.6665039062v-2.2133789062c-.322265625-.6865234375-1.0654296875-1.0927734375-1.86328125-1.0927734375-1.1630859375,0-2.0595703125.798828125-2.0595703125,2.19921875,0,1.38671875.896484375,2.185546875,2.0595703125,2.185546875.7978515625,0,1.541015625-.40625,1.86328125-1.0786132812Z"/><path d="m44.568359375,29.9877929688c0-2.0732421875,1.2744140625-3.4458007812,3.2919921875-3.4458007812.923828125,0,1.6806640625.40625,2.1845703125,1.0083007812v-.8403320312h1.779296875v5.9814453125c0,2.619140625-1.8349609375,3.8237304688-3.7822265625,3.8237304688-1.7646484375,0-2.787109375-.6723632812-3.333984375-1.4565429688l1.0791015625-1.1206054688c.4765625.6303710938,1.0927734375,1.0502929688,2.1708984375,1.0502929688,1.037109375,0,2.0869140625-.5883789062,2.0869140625-2.1572265625v-.3920898438c-.50390625.5883789062-1.2607421875.9946289062-2.1845703125.9946289062-2.017578125,0-3.2919921875-1.3725585938-3.2919921875-3.4458007812Zm5.4765625.8823242188v-1.7509765625c-.322265625-.658203125-.9658203125-1.0502929688-1.7509765625-1.0502929688-1.17578125,0-1.9189453125.7700195312-1.9189453125,1.9189453125,0,1.1484375.7431640625,1.9189453125,1.9189453125,1.9189453125.78515625,0,1.4287109375-.3920898438,1.7509765625-1.0366210938Z"/><path d="m52.9990234375,30.337890625c0-2.2553710938,1.5263671875-3.7958984375,3.6279296875-3.7958984375s3.4736328125,1.4565429688,3.4736328125,3.5297851562c0,.23828125-.0419921875.57421875-.083984375.8686523438h-5.224609375c.181640625.9663085938.8544921875,1.6245117188,2.1015625,1.6245117188.8818359375,0,1.6240234375-.490234375,2.044921875-1.064453125l.98046875,1.1625976562c-.6728515625.8125-1.7373046875,1.4428710938-3.1103515625,1.4428710938-2.3388671875,0-3.8095703125-1.6669921875-3.8095703125-3.7680664062Zm1.8212890625-.8544921875h3.515625c-.09765625-.9384765625-.7421875-1.470703125-1.708984375-1.470703125-.9248046875,0-1.568359375.5180664062-1.806640625,1.470703125Z"/><path d="m61.2998046875,26.7099609375h1.7783203125v1.1206054688c.4208984375-.7705078125,1.12109375-1.2885742188,2.0732421875-1.2885742188h.2099609375v1.6948242188c-1.064453125.0141601562-1.9326171875.322265625-2.283203125,1.4008789062v4.2861328125h-1.7783203125v-7.2138671875Z"/><path d="m67.05859375,28.138671875h-1.1201171875v-1.4287109375h1.1201171875v-.4204101562c0-1.38671875.8271484375-2.4370117188,2.521484375-2.4370117188.224609375,0,.5048828125.013671875.6728515625.0419921875v1.4428710938h-.30859375c-.671875,0-1.1064453125.2661132812-1.1064453125.9663085938v.40625h1.4150390625v1.4287109375h-1.4150390625v5.78515625h-1.779296875v-5.78515625Z"/><path d="m70.6884765625,30.337890625c0-2.2553710938,1.5263671875-3.7958984375,3.6279296875-3.7958984375s3.4736328125,1.4565429688,3.4736328125,3.5297851562c0,.23828125-.0419921875.57421875-.083984375.8686523438h-5.224609375c.181640625.9663085938.8544921875,1.6245117188,2.1015625,1.6245117188.8818359375,0,1.6240234375-.490234375,2.044921875-1.064453125l.98046875,1.1625976562c-.6728515625.8125-1.7373046875,1.4428710938-3.1103515625,1.4428710938-2.3388671875,0-3.8095703125-1.6669921875-3.8095703125-3.7680664062Zm1.8212890625-.8544921875h3.515625c-.09765625-.9384765625-.7421875-1.470703125-1.708984375-1.470703125-.9248046875,0-1.568359375.5180664062-1.806640625,1.470703125Z"/><path d="m79.0029296875,23.978515625h1.7783203125v9.9453125h-1.7783203125v-9.9453125Z"/><path d="m87.7333984375,33.0971679688c-.5322265625.6025390625-1.3173828125.9946289062-2.255859375.9946289062-2.0029296875,0-3.4736328125-1.4848632812-3.4736328125-3.7680664062s1.470703125-3.7817382812,3.4736328125-3.7817382812c.9384765625,0,1.7236328125.40625,2.255859375,1.0083007812v-3.5717773438h1.7783203125v9.9453125h-1.7783203125v-.8266601562Zm0-1.6665039062v-2.2133789062c-.322265625-.6865234375-1.0654296875-1.0927734375-1.86328125-1.0927734375-1.1630859375,0-2.0595703125.798828125-2.0595703125,2.19921875,0,1.38671875.896484375,2.185546875,2.0595703125,2.185546875.7978515625,0,1.541015625-.40625,1.86328125-1.0786132812Z"/><path d="m92.0673828125,34.5541992188h-.98046875v-2.1430664062h2.1572265625v1.8911132812l-.966796875,2.3251953125h-1.0498046875l.83984375-2.0732421875Z"/><path d="m100.5517578125,24.3984375h2.142578125l3.7119140625,9.525390625h-1.890625l-.7705078125-2.0170898438h-4.244140625l-.7705078125,2.0170898438h-1.890625l3.7119140625-9.525390625Zm-.4482421875,5.9252929688h3.025390625l-1.5126953125-3.9780273438-1.5126953125,3.9780273438Z"/><path d="m107.1953125,26.7099609375h1.7783203125v1.0083007812c.392578125-.6440429688,1.1630859375-1.1762695312,2.283203125-1.1762695312,1.876953125,0,2.74609375,1.2885742188,2.74609375,3.1376953125v4.244140625h-1.779296875v-4.0483398438c0-1.1484375-.5458984375-1.7509765625-1.5966796875-1.7509765625-.8828125,0-1.470703125.6025390625-1.6533203125,1.2607421875v4.5385742188h-1.7783203125v-7.2138671875Z"/><path d="m120.853515625,33.0971679688c-.5322265625.6025390625-1.3173828125.9946289062-2.255859375.9946289062-2.0029296875,0-3.4736328125-1.4848632812-3.4736328125-3.7680664062s1.470703125-3.7817382812,3.4736328125-3.7817382812c.9384765625,0,1.7236328125.40625,2.255859375,1.0083007812v-3.5717773438h1.7783203125v9.9453125h-1.7783203125v-.8266601562Zm0-1.6665039062v-2.2133789062c-.322265625-.6865234375-1.0654296875-1.0927734375-1.86328125-1.0927734375-1.1630859375,0-2.0595703125.798828125-2.0595703125,2.19921875,0,1.38671875.896484375,2.185546875,2.0595703125,2.185546875.7978515625,0,1.541015625-.40625,1.86328125-1.0786132812Z"/><path d="m124.2333984375,26.7099609375h1.7783203125v1.1206054688c.4208984375-.7705078125,1.12109375-1.2885742188,2.0732421875-1.2885742188h.2099609375v1.6948242188c-1.064453125.0141601562-1.9326171875.322265625-2.283203125,1.4008789062v4.2861328125h-1.7783203125v-7.2138671875Z"/><path d="m128.7392578125,30.337890625c0-2.2553710938,1.5263671875-3.7958984375,3.6279296875-3.7958984375s3.4736328125,1.4565429688,3.4736328125,3.5297851562c0,.23828125-.0419921875.57421875-.083984375.8686523438h-5.224609375c.181640625.9663085938.8544921875,1.6245117188,2.1015625,1.6245117188.8818359375,0,1.6240234375-.490234375,2.044921875-1.064453125l.98046875,1.1625976562c-.6728515625.8125-1.7373046875,1.4428710938-3.1103515625,1.4428710938-2.3388671875,0-3.8095703125-1.6669921875-3.8095703125-3.7680664062Zm1.8212890625-.8544921875h3.515625c-.09765625-.9384765625-.7421875-1.470703125-1.708984375-1.470703125-.9248046875,0-1.568359375.5180664062-1.806640625,1.470703125Zm1.0224609375-3.7822265625l1.064453125-2.1147460938h1.79296875v.0419921875l-1.2890625,2.1147460938h-1.568359375v-.0419921875Z"/><path d="m136.6533203125,30.337890625c0-2.2553710938,1.5263671875-3.7958984375,3.6279296875-3.7958984375s3.4736328125,1.4565429688,3.4736328125,3.5297851562c0,.23828125-.0419921875.57421875-.083984375.8686523438h-5.224609375c.181640625.9663085938.8544921875,1.6245117188,2.1015625,1.6245117188.8818359375,0,1.6240234375-.490234375,2.044921875-1.064453125l.98046875,1.1625976562c-.6728515625.8125-1.7373046875,1.4428710938-3.1103515625,1.4428710938-2.3388671875,0-3.8095703125-1.6669921875-3.8095703125-3.7680664062Zm1.8212890625-.8544921875h3.515625c-.09765625-.9384765625-.7421875-1.470703125-1.708984375-1.470703125-.9248046875,0-1.568359375.5180664062-1.806640625,1.470703125Z"/><path d="m148.0771484375,24.3984375h3.7548828125c2.0166015625,0,3.4033203125.9526367188,3.4033203125,2.9838867188s-1.38671875,2.9833984375-3.4033203125,2.9833984375h-1.93359375v3.5581054688h-1.8212890625v-9.525390625Zm3.5302734375,4.3706054688c1.0791015625,0,1.7509765625-.3642578125,1.7509765625-1.38671875s-.671875-1.38671875-1.7509765625-1.38671875h-1.708984375v2.7734375h1.708984375Z"/><path d="m162.9638671875,33.923828125h-1.779296875v-1.0087890625c-.392578125.64453125-1.1630859375,1.1767578125-2.283203125,1.1767578125-1.876953125,0-2.7451171875-1.2885742188-2.7451171875-3.1376953125v-4.244140625h1.7783203125v4.0483398438c0,1.1484375.546875,1.7509765625,1.5966796875,1.7509765625.8828125,0,1.470703125-.6025390625,1.6533203125-1.2607421875v-4.5385742188h1.779296875v7.2138671875Z"/><path d="m165.0146484375,31.1645507813v-3.0258789062h-1.205078125v-1.4287109375h1.2607421875v-1.8349609375h1.72265625v1.8349609375h1.6669921875v1.4287109375h-1.6669921875v3.1098632812c0,.9243164062.4345703125,1.2465820312,1.3310546875,1.2465820312h.3359375v1.4287109375c-.23828125.0561523438-.5322265625.083984375-.7978515625.083984375-1.7509765625,0-2.6474609375-.8681640625-2.6474609375-2.8432617188Z"/><path d="m179.4521484375,29.8754882813c0-1.1484375-.4765625-1.7509765625-1.541015625-1.7509765625-.896484375,0-1.4150390625.6025390625-1.5966796875,1.2607421875v4.5385742188h-1.779296875v-4.0483398438c0-1.1484375-.490234375-1.7509765625-1.541015625-1.7509765625-.8818359375,0-1.4140625.6025390625-1.5966796875,1.2607421875v4.5385742188h-1.7783203125v-7.2138671875h1.7783203125v1.0083007812c.392578125-.6440429688,1.1064453125-1.1762695312,2.2275390625-1.1762695312,1.1904296875,0,1.947265625.5180664062,2.3388671875,1.3725585938.5322265625-.8686523438,1.3447265625-1.3725585938,2.578125-1.3725585938,1.876953125,0,2.689453125,1.2885742188,2.689453125,3.1376953125v4.244140625h-1.779296875v-4.0483398438Z"/><path d="m188.1005859375,33.0971679688c-.5322265625.6025390625-1.3173828125.9946289062-2.255859375.9946289062-2.0029296875,0-3.4736328125-1.4848632812-3.4736328125-3.7680664062s1.470703125-3.7817382812,3.4736328125-3.7817382812c.9384765625,0,1.7236328125.40625,2.255859375,1.0083007812v-.8403320312h1.7783203125v7.2138671875h-1.7783203125v-.8266601562Zm0-1.6665039062v-2.2133789062c-.322265625-.6865234375-1.0654296875-1.0927734375-1.86328125-1.0927734375-1.1630859375,0-2.0595703125.798828125-2.0595703125,2.19921875,0,1.38671875.896484375,2.185546875,2.0595703125,2.185546875.7978515625,0,1.541015625-.40625,1.86328125-1.0786132812Z"/><path d="m191.4814453125,26.7099609375h1.7783203125v1.0083007812c.392578125-.6440429688,1.1630859375-1.1762695312,2.283203125-1.1762695312,1.876953125,0,2.74609375,1.2885742188,2.74609375,3.1376953125v4.244140625h-1.779296875v-4.0483398438c0-1.1484375-.5458984375-1.7509765625-1.5966796875-1.7509765625-.8828125,0-1.470703125.6025390625-1.6533203125,1.2607421875v4.5385742188h-1.7783203125v-7.2138671875Z"/><path d="m.7197265625,62.4599609375h8.28125v6.6616210938H3.2802734375v2.6005859375h4.220703125c1.48046875,0,2.8408203125-.2001953125,3.8408203125-.7202148438v-10.0825195312h2.560546875v5.9614257812h2.3408203125v2.2006835938h-2.3408203125v9.1215820312h-2.560546875v-5.4409179688c-1.259765625.8203125-3.060546875,1.1401367188-5.060546875,1.1401367188H1.7001953125c-.6201171875,0-.98046875-.2397460938-.98046875-.8203125v-6.0810546875h5.7607421875v-2.3603515625H.7197265625v-2.1806640625Z"/><path d="m17.107421875,62.5h8.1416015625v1.48046875c0,1.1201171875-.16015625,2.16015625-.419921875,3.0805664062h3.3408203125v-6.1416015625h2.560546875v17.2836914062h-2.560546875v-8.9418945312h-4.2412109375c-1.2998046875,2.220703125-3.5009765625,3.880859375-6.5810546875,5.1010742188l-1.060546875-2.2001953125c3.8203125-1.4604492188,6.4013671875-4.12109375,6.4013671875-7.44140625h-5.5810546875v-2.220703125Z"/><path d="m33.7119140625,64.4604492188h2.3603515625v1.8803710938c0,.4399414062.0205078125.7802734375.1005859375,1.2001953125h.4794921875c.16015625,0,.3603515625,0,.5205078125-.0200195312.080078125-.3999023438.099609375-.740234375.099609375-1.1801757812v-1.8803710938h2.361328125v1.400390625c0,.7001953125-.1806640625,1.2001953125-.4609375,1.6201171875.560546875-.0600585938,1.060546875-.1401367188,1.560546875-.3198242188l.3798828125,1.5600585938c-1.1396484375.6801757812-2.2998046875.8203125-4.140625.8203125h-4.2607421875v-2.0004882812h1.48046875c-.2998046875-.4599609375-.48046875-.9599609375-.48046875-1.6801757812v-1.400390625Zm-.7001953125-2.7006835938h7.322265625v2.0405273438h-7.322265625v-2.0405273438Zm3.4609375,8.8618164062h11.162109375v4.8212890625h-8.62109375v1.0600585938h9.0615234375v1.98046875h-10.642578125c-.599609375,0-.9599609375-.240234375-.9599609375-.8203125v-4.1005859375h8.6220703125v-1.0004882812h-8.6220703125v-1.9404296875Zm5.181640625-9.501953125h2.419921875v8.5419921875h-2.419921875v-3.1206054688h-1.3203125v-2.0004882812h1.3203125v-3.4208984375Zm3.5400390625-.2001953125h2.4404296875v8.8422851562h-2.4404296875v-8.8422851562Z"/><path d="m49.6728515625,74.0825195313h15.84375v2.2202148438h-15.84375v-2.2202148438Zm2.28125-11.8627929688h11.2822265625v2.1206054688h-8.7216796875v1.5805664062h8.341796875v2.0200195312h-8.341796875v1.6206054688h9.001953125v2.1206054688h-10.6025390625c-.6005859375,0-.9599609375-.2602539062-.9599609375-.8203125v-8.6420898438Z"/><path d="m80.71484375,68.1010742188c0,2.9409179688-1.1611328125,5.8012695312-4.62109375,5.8012695312-3.44140625,0-4.6416015625-2.8603515625-4.6416015625-5.8012695312,0-2.9204101562,1.2001953125-5.78125,4.6416015625-5.78125,3.4599609375,0,4.62109375,2.8608398438,4.62109375,5.78125Zm-6.7021484375,0c0,1.6206054688.4404296875,3.62109375,2.0810546875,3.62109375,1.6396484375,0,2.099609375-2.0004882812,2.099609375-3.62109375,0-1.6000976562-.4599609375-3.6005859375-2.099609375-3.6005859375-1.640625,0-2.0810546875,2.0004882812-2.0810546875,3.6005859375Zm8.4423828125-7.181640625h2.560546875v5.861328125h2.3603515625v2.220703125h-2.3603515625v9.2016601562h-2.560546875v-17.2836914062Z"/><path d="m89.3291015625,65.6005859375h2.5400390625v3.5810546875c0,.919921875,0,1.8803710938.1201171875,2.4404296875h1.6806640625c.080078125-.5600585938.099609375-1.5205078125.099609375-2.4404296875v-3.5810546875h2.541015625v3.1005859375c0,1.2202148438-.240234375,2.3608398438-.580078125,2.9208984375,1.2802734375-.0400390625,2.3798828125-.1801757812,3.2607421875-.6000976562v-10.1025390625h2.560546875v5.9213867188h2.3603515625v2.220703125h-2.3603515625v9.1416015625h-2.560546875v-5.380859375c-1.240234375.7602539062-2.9609375.9599609375-4.78125.9799804688h-6.26171875v-2.1801757812h1.98046875c-.359375-.5600585938-.599609375-1.7006835938-.599609375-2.9208984375v-3.1005859375Zm-1.080078125-3.0805664062h9.1416015625v2.2006835938h-9.1416015625v-2.2006835938Z"/><path d="m104.02734375,74.0825195313h15.84375v2.2202148438h-15.84375v-2.2202148438Zm2.28125-11.8627929688h11.2822265625v2.1206054688h-8.7216796875v1.5805664062h8.341796875v2.0200195312h-8.341796875v1.6206054688h9.001953125v2.1206054688h-10.6025390625c-.6005859375,0-.9599609375-.2602539062-.9599609375-.8203125v-8.6420898438Z"/><path d="m2.48046875,85.6396484375h10.9619140625v6.5014648438h-4.201171875v1.7802734375h6.6416015625v2.0805664062H.0390625v-2.0805664062h6.6416015625v-1.7802734375h-3.240234375c-.6005859375,0-.9599609375-.2397460938-.9599609375-.8002929688v-5.701171875Zm-.1201171875,11.4423828125h2.560546875v3.1010742188h8.8818359375v2.1801757812H3.3203125c-.6005859375,0-.9599609375-.259765625-.9599609375-.8198242188v-4.4614257812Zm2.6806640625-9.341796875v2.3603515625h5.8408203125v-2.3603515625h-5.8408203125Z"/><path d="m17.4013671875,86.5h6.1806640625v2.1606445312h-3.7607421875v2.3403320312h3.2607421875v2.0405273438h-3.2607421875v2.4404296875h1.7001953125c1.1611328125,0,2.1005859375-.1201171875,2.94140625-.3999023438.1396484375.580078125.259765625,1.1401367188.419921875,1.7001953125-1.1806640625.7001953125-2.6611328125.8403320312-4.5615234375.8403320312h-1.9599609375c-.6005859375,0-.9599609375-.240234375-.9599609375-.8203125v-10.3022460938Zm8.3212890625-1.2802734375h2.400390625v16.4833984375h-2.400390625v-8.9819335938h-1.8603515625v-2.1801757812h1.8603515625v-5.3212890625Zm3.720703125-.3002929688h2.4404296875v17.2836914062h-2.4404296875v-17.2836914062Z"/><path d="m39.419921875,86.5h8.08203125v1.5805664062c0,5.3608398438-2.8203125,8.4013671875-7.9013671875,10.4819335938l-1.1201171875-2.1401367188c2.419921875-.9404296875,4.3408203125-2.1806640625,5.4609375-3.9609375-.5400390625.2998046875-1.2802734375.4799804688-2.2412109375.4799804688h-2.7197265625v-2.0805664062h5.640625c.220703125-.6401367188.3203125-1.3603515625.3203125-2.1401367188h-5.521484375v-2.220703125Zm10.40234375-1.5805664062h2.560546875v5.94140625h2.3408203125v2.220703125h-2.3408203125v9.1215820312h-2.560546875v-17.2836914062Z"/><path d="m55.8779296875,93.2412109375h15.84375v1.9204101562h-15.84375v-1.9204101562Zm2.3212890625,2.9008789062h11.2021484375v4.2407226562h-8.6416015625v.9204101562h9.08203125v1.7202148438h-10.6826171875c-.6005859375,0-.9599609375-.2397460938-.9599609375-.8002929688v-3.4604492188h8.6416015625v-.8603515625h-8.6416015625v-1.7602539062Zm.1201171875-10.662109375h10.9619140625v4.220703125h-8.4013671875v.900390625h8.7216796875v1.7001953125h-10.322265625c-.6005859375,0-.9599609375-.240234375-.9599609375-.8002929688v-3.4008789062h8.4013671875v-.8598632812h-8.4013671875v-1.7602539062Z"/><path d="m74.2119140625,86.2197265625h11.2822265625v5.681640625h-8.7421875v1.580078125h9.0224609375v2.1206054688h-4.6416015625v2.5205078125h6.6416015625v2.2202148438h-15.84375v-2.2202148438h6.6416015625v-2.5205078125h-3.400390625c-.6005859375,0-.9599609375-.2602539062-.9599609375-.8203125v-4.9008789062h8.7412109375v-1.5405273438h-8.7412109375v-2.1206054688Z"/><path d="m91.2412109375,100.8432617188h-1.400390625v-3.0610351562h3.080078125v2.7006835938l-1.3798828125,3.3208007812h-1.5l1.2001953125-2.9604492188Z"/><path d="m101.701171875,89.2407226563l-2.48046875,1.3603515625-.9404296875-1.98046875,4.060546875-2.2807617188h1.900390625v13.6030273438h-2.5400390625v-10.7021484375Z"/><path d="m117.4267578125,92.8012695313c0,4.6411132812-2.4208984375,7.421875-6.2412109375,7.421875-2.1806640625,0-3.7607421875-1.060546875-4.62109375-2.3408203125l1.740234375-1.5600585938c.580078125.8999023438,1.6201171875,1.5400390625,2.880859375,1.5400390625,1.900390625,0,3.3203125-1.2802734375,3.580078125-3.7407226562-.8193359375.900390625-1.9599609375,1.5405273438-3.5205078125,1.5405273438-2.560546875,0-4.7607421875-1.8803710938-4.7607421875-4.7412109375,0-2.8603515625,2.380859375-4.8608398438,5.28125-4.8608398438,3.720703125,0,5.6611328125,2.8403320312,5.6611328125,6.7412109375Zm-8.322265625-1.9404296875c0,1.3403320312,1.0009765625,2.4604492188,2.6611328125,2.4604492188,1.6396484375,0,2.640625-1.1201171875,2.640625-2.4604492188,0-1.3203125-1.0009765625-2.4404296875-2.640625-2.4404296875-1.66015625,0-2.6611328125,1.1201171875-2.6611328125,2.4404296875Z"/><path d="m118.8486328125,96.08203125c0-1.6201171875.98046875-2.98046875,2.5205078125-3.4609375-1.1806640625-.6000976562-1.7607421875-1.6000976562-1.7607421875-2.8603515625,0-2.0004882812,1.62109375-3.7006835938,4.78125-3.7006835938,3.1611328125,0,4.78125,1.7001953125,4.78125,3.7006835938,0,1.2602539062-.580078125,2.2602539062-1.7607421875,2.8603515625,1.541015625.48046875,2.5205078125,1.8408203125,2.5205078125,3.4609375,0,2.3603515625-1.8603515625,4.1411132812-5.541015625,4.1411132812s-5.541015625-1.7807617188-5.541015625-4.1411132812Zm2.6005859375-.2202148438c0,1.1005859375.9404296875,2.0405273438,2.9404296875,2.0405273438,2.0009765625,0,2.9404296875-.9399414062,2.9404296875-2.0405273438,0-1.1000976562-.939453125-2.0400390625-2.9404296875-2.0400390625-2,0-2.9404296875.9399414062-2.9404296875,2.0400390625Zm.759765625-5.880859375c0,.9799804688.900390625,1.6000976562,2.1806640625,1.6000976562s2.1806640625-.6201171875,2.1806640625-1.6000976562c0-.98046875-.900390625-1.6005859375-2.1806640625-1.6005859375s-2.1806640625.6201171875-2.1806640625,1.6005859375Z"/><path d="m130.953125,97.9423828125l1.48046875-1.7602539062c.6796875.8002929688,1.759765625,1.6801757812,3.4404296875,1.6801757812s2.900390625-.7202148438,2.900390625-2.0205078125c0-1.1801757812-.9404296875-1.8403320312-2.8603515625-1.8403320312h-1.3408203125v-2.240234375h1.3408203125c1.48046875,0,2.140625-.8002929688,2.140625-1.7006835938,0-1.080078125-.9404296875-1.6401367188-2.0810546875-1.6401367188-1.4599609375,0-2.3203125.6401367188-2.83984375,1.3803710938l-1.5205078125-1.6005859375c.8798828125-1.1401367188,2.419921875-2.1401367188,4.3603515625-2.1401367188,2.9208984375,0,4.681640625,1.419921875,4.681640625,3.8208007812,0,1.1000976562-.66015625,2.16015625-1.740234375,2.8002929688,1.580078125.5205078125,2.4599609375,1.7807617188,2.4599609375,3.380859375,0,2.560546875-2.419921875,4.1611328125-5.5009765625,4.1611328125-2.4208984375,0-4.041015625-1.2802734375-4.9208984375-2.2807617188Z"/><path d="m143.2509765625,85.8798828125h2.560546875v7.26171875h1.8203125c1.66015625,0,3.3408203125-.1801757812,4.400390625-.5600585938l.4609375,1.6401367188c-1.3603515625.8203125-3.3408203125,1.0400390625-5.58203125,1.0400390625h-2.6796875c-.6201171875,0-.98046875-.2397460938-.98046875-.8198242188v-8.5620117188Zm2.640625,10.4223632812h2.560546875v3.8208007812h8.861328125v2.1801757812h-10.4619140625c-.6005859375,0-.9599609375-.259765625-.9599609375-.8198242188v-5.1811523438Zm4.1806640625-9.8022460938h4.2412109375v-1.5805664062h2.560546875v12.8227539062h-2.560546875v-5.9208984375h-4.2412109375v-2.060546875h4.2412109375v-1.2001953125h-4.2412109375v-2.060546875Z"/><path d="m159.7158203125,85.83984375h8.12109375v.7001953125c0,.2602539062,0,.5200195312-.01953125.7602539062h2.9404296875v-2.380859375h2.560546875v9.7221679688h-2.560546875v-1.5h-3.30078125v-2.140625h3.30078125v-1.5405273438h-3.220703125c-.9599609375,3.041015625-4.0009765625,4.6010742188-7.921875,5.3212890625l-.7197265625-2.2602539062c3.6611328125-.5805664062,6.3017578125-2.380859375,6.3408203125-4.4809570312h-5.5205078125v-2.2006835938Zm8.1611328125,9.2021484375c3.5009765625,0,5.501953125,1.6000976562,5.501953125,3.880859375,0,2.2802734375-2.0009765625,3.8608398438-5.501953125,3.8608398438-3.5205078125,0-5.5205078125-1.5805664062-5.5205078125-3.8608398438,0-2.2807617188,2-3.880859375,5.5205078125-3.880859375Zm0,5.5810546875c1.900390625,0,2.94140625-.66015625,2.94140625-1.7001953125,0-1.060546875-1.041015625-1.720703125-2.94140625-1.720703125-1.919921875,0-2.9599609375.66015625-2.9599609375,1.720703125,0,1.0400390625,1.0400390625,1.7001953125,2.9599609375,1.7001953125Z"/><path d="m.396484375,109.3178710938h1.8212890625v7.9287109375h4.6083984375v1.5966796875H.396484375v-9.525390625Z"/><path d="m13.0712890625,118.0166015625c-.5322265625.6025390625-1.3173828125.9946289062-2.255859375.9946289062-2.0029296875,0-3.4736328125-1.4848632812-3.4736328125-3.7680664062s1.470703125-3.7817382812,3.4736328125-3.7817382812c.9384765625,0,1.7236328125.40625,2.255859375,1.0083007812v-.8403320312h1.7783203125v7.2138671875h-1.7783203125v-.8266601562Zm0-1.6665039062v-2.2133789062c-.322265625-.6865234375-1.0654296875-1.0927734375-1.86328125-1.0927734375-1.1630859375,0-2.0595703125.798828125-2.0595703125,2.19921875,0,1.38671875.896484375,2.185546875,2.0595703125,2.185546875.7978515625,0,1.541015625-.40625,1.86328125-1.0786132812Z"/><path d="m16.052734375,114.9072265625c0-2.0732421875,1.2744140625-3.4458007812,3.2919921875-3.4458007812.923828125,0,1.6806640625.40625,2.1845703125,1.0083007812v-.8403320312h1.779296875v5.9814453125c0,2.619140625-1.8349609375,3.8237304688-3.7822265625,3.8237304688-1.7646484375,0-2.787109375-.6723632812-3.333984375-1.4565429688l1.0791015625-1.1206054688c.4765625.6303710938,1.0927734375,1.0502929688,2.1708984375,1.0502929688,1.037109375,0,2.0869140625-.5883789062,2.0869140625-2.1572265625v-.3920898438c-.50390625.5883789062-1.2607421875.9946289062-2.1845703125.9946289062-2.017578125,0-3.2919921875-1.3725585938-3.2919921875-3.4458007812Zm5.4765625.8823242188v-1.7509765625c-.322265625-.658203125-.9658203125-1.0502929688-1.7509765625-1.0502929688-1.17578125,0-1.9189453125.7700195312-1.9189453125,1.9189453125,0,1.1484375.7431640625,1.9189453125,1.9189453125,1.9189453125.78515625,0,1.4287109375-.3920898438,1.7509765625-1.0366210938Z"/><path d="m24.482421875,115.2573242188c0-2.2553710938,1.5263671875-3.7958984375,3.6279296875-3.7958984375s3.4736328125,1.4565429688,3.4736328125,3.5297851562c0,.23828125-.0419921875.57421875-.083984375.8686523438h-5.224609375c.181640625.9663085938.8544921875,1.6245117188,2.1015625,1.6245117188.8818359375,0,1.6240234375-.490234375,2.044921875-1.064453125l.98046875,1.1625976562c-.6728515625.8125-1.7373046875,1.4428710938-3.109375,1.4428710938-2.33984375,0-3.810546875-1.6669921875-3.810546875-3.7680664062Zm1.8212890625-.8544921875h3.515625c-.09765625-.9384765625-.7421875-1.470703125-1.708984375-1.470703125-.9248046875,0-1.568359375.5180664062-1.806640625,1.470703125Z"/><path d="m32.7841796875,111.6293945313h1.7783203125v1.1206054688c.4208984375-.7705078125,1.12109375-1.2885742188,2.0732421875-1.2885742188h.2099609375v1.6948242188c-1.064453125.0141601562-1.9326171875.322265625-2.283203125,1.4008789062v4.2861328125h-1.7783203125v-7.2138671875Z"/><path d="m38.54296875,113.0581054688h-1.1201171875v-1.4287109375h1.1201171875v-.4204101562c0-1.38671875.8271484375-2.4370117188,2.521484375-2.4370117188.224609375,0,.5048828125.013671875.6728515625.0419921875v1.4428710938h-.30859375c-.671875,0-1.1064453125.2661132812-1.1064453125.9663085938v.40625h1.4150390625v1.4287109375h-1.4150390625v5.78515625h-1.779296875v-5.78515625Z"/><path d="m42.1728515625,115.2573242188c0-2.2553710938,1.5263671875-3.7958984375,3.6279296875-3.7958984375s3.4736328125,1.4565429688,3.4736328125,3.5297851562c0,.23828125-.0419921875.57421875-.083984375.8686523438h-5.224609375c.181640625.9663085938.8544921875,1.6245117188,2.1015625,1.6245117188.8818359375,0,1.6240234375-.490234375,2.044921875-1.064453125l.98046875,1.1625976562c-.6728515625.8125-1.7373046875,1.4428710938-3.1103515625,1.4428710938-2.3388671875,0-3.8095703125-1.6669921875-3.8095703125-3.7680664062Zm1.8212890625-.8544921875h3.515625c-.09765625-.9384765625-.7421875-1.470703125-1.708984375-1.470703125-.9248046875,0-1.568359375.5180664062-1.806640625,1.470703125Z"/><path d="m50.4873046875,108.8979492188h1.7783203125v9.9453125h-1.7783203125v-9.9453125Z"/><path d="m59.2177734375,118.0166015625c-.5322265625.6025390625-1.3173828125.9946289062-2.255859375.9946289062-2.0029296875,0-3.4736328125-1.4848632812-3.4736328125-3.7680664062s1.470703125-3.7817382812,3.4736328125-3.7817382812c.9384765625,0,1.7236328125.40625,2.255859375,1.0083007812v-3.5717773438h1.7783203125v9.9453125h-1.7783203125v-.8266601562Zm0-1.6665039062v-2.2133789062c-.322265625-.6865234375-1.0654296875-1.0927734375-1.86328125-1.0927734375-1.1630859375,0-2.0595703125.798828125-2.0595703125,2.19921875,0,1.38671875.896484375,2.185546875,2.0595703125,2.185546875.7978515625,0,1.541015625-.40625,1.86328125-1.0786132812Z"/><path d="m68.4140625,109.3178710938h2.142578125l3.7119140625,9.525390625h-1.890625l-.7705078125-2.0170898438h-4.244140625l-.7705078125,2.0170898438h-1.890625l3.7119140625-9.525390625Zm-.4482421875,5.9252929688h3.025390625l-1.5126953125-3.9780273438-1.5126953125,3.9780273438Z"/><path d="m75.056640625,111.6293945313h1.7783203125v.8544921875c.5185546875-.6025390625,1.3173828125-1.0224609375,2.26953125-1.0224609375,1.9892578125,0,3.4599609375,1.4985351562,3.4599609375,3.7817382812s-1.470703125,3.7680664062-3.4599609375,3.7680664062c-.9521484375,0-1.7509765625-.40625-2.26953125-1.0083007812v3.263671875h-1.7783203125v-9.6372070312Zm5.701171875,3.6137695312c0-1.400390625-.896484375-2.19921875-2.0595703125-2.19921875-.798828125,0-1.541015625.40625-1.86328125,1.0927734375v2.2133789062c.322265625.6723632812,1.064453125,1.0786132812,1.86328125,1.0786132812,1.1630859375,0,2.0595703125-.798828125,2.0595703125-2.185546875Z"/><path d="m89.126953125,118.0166015625c-.5322265625.6025390625-1.3173828125.9946289062-2.255859375.9946289062-2.0029296875,0-3.4736328125-1.4848632812-3.4736328125-3.7680664062s1.470703125-3.7817382812,3.4736328125-3.7817382812c.9384765625,0,1.7236328125.40625,2.255859375,1.0083007812v-.8403320312h1.7783203125v7.2138671875h-1.7783203125v-.8266601562Zm0-1.6665039062v-2.2133789062c-.322265625-.6865234375-1.0654296875-1.0927734375-1.86328125-1.0927734375-1.1630859375,0-2.0595703125.798828125-2.0595703125,2.19921875,0,1.38671875.896484375,2.185546875,2.0595703125,2.185546875.7978515625,0,1.541015625-.40625,1.86328125-1.0786132812Z"/><path d="m92.5078125,111.6293945313h1.7783203125v1.1206054688c.4208984375-.7705078125,1.12109375-1.2885742188,2.0732421875-1.2885742188h.2099609375v1.6948242188c-1.064453125.0141601562-1.9326171875.322265625-2.283203125,1.4008789062v4.2861328125h-1.7783203125v-7.2138671875Z"/><path d="m98.2744140625,116.083984375v-3.0258789062h-1.205078125v-1.4287109375h1.2607421875v-1.8349609375h1.72265625v1.8349609375h1.6669921875v1.4287109375h-1.6669921875v3.1098632812c0,.9243164062.4345703125,1.2465820312,1.3310546875,1.2465820312h.3359375v1.4287109375c-.23828125.0561523438-.5322265625.083984375-.7978515625.083984375-1.7509765625,0-2.6474609375-.8681640625-2.6474609375-2.8432617188Z"/><path d="m112.7109375,114.794921875c0-1.1484375-.4765625-1.7509765625-1.541015625-1.7509765625-.896484375,0-1.4150390625.6025390625-1.5966796875,1.2607421875v4.5385742188h-1.779296875v-4.0483398438c0-1.1484375-.490234375-1.7509765625-1.541015625-1.7509765625-.8818359375,0-1.4140625.6025390625-1.5966796875,1.2607421875v4.5385742188h-1.7783203125v-7.2138671875h1.7783203125v1.0083007812c.392578125-.6440429688,1.1064453125-1.1762695312,2.2275390625-1.1762695312,1.1904296875,0,1.947265625.5180664062,2.3388671875,1.3725585938.5322265625-.8686523438,1.3447265625-1.3725585938,2.578125-1.3725585938,1.876953125,0,2.689453125,1.2885742188,2.689453125,3.1376953125v4.244140625h-1.779296875v-4.0483398438Z"/><path d="m115.630859375,115.2573242188c0-2.2553710938,1.5263671875-3.7958984375,3.6279296875-3.7958984375s3.4736328125,1.4565429688,3.4736328125,3.5297851562c0,.23828125-.0419921875.57421875-.083984375.8686523438h-5.224609375c.181640625.9663085938.8544921875,1.6245117188,2.1015625,1.6245117188.8818359375,0,1.6240234375-.490234375,2.044921875-1.064453125l.98046875,1.1625976562c-.6728515625.8125-1.7373046875,1.4428710938-3.109375,1.4428710938-2.33984375,0-3.810546875-1.6669921875-3.810546875-3.7680664062Zm1.8212890625-.8544921875h3.515625c-.09765625-.9384765625-.7421875-1.470703125-1.708984375-1.470703125-.9248046875,0-1.568359375.5180664062-1.806640625,1.470703125Z"/><path d="m123.931640625,111.6293945313h1.7783203125v1.0083007812c.392578125-.6440429688,1.1630859375-1.1762695312,2.283203125-1.1762695312,1.876953125,0,2.74609375,1.2885742188,2.74609375,3.1376953125v4.244140625h-1.779296875v-4.0483398438c0-1.1484375-.5458984375-1.7509765625-1.5966796875-1.7509765625-.8828125,0-1.470703125.6025390625-1.6533203125,1.2607421875v4.5385742188h-1.7783203125v-7.2138671875Z"/><path d="m132.6572265625,116.083984375v-3.0258789062h-1.205078125v-1.4287109375h1.2607421875v-1.8349609375h1.72265625v1.8349609375h1.6669921875v1.4287109375h-1.6669921875v3.1098632812c0,.9243164062.4345703125,1.2465820312,1.3310546875,1.2465820312h.3359375v1.4287109375c-.23828125.0561523438-.5322265625.083984375-.7978515625.083984375-1.7509765625,0-2.6474609375-.8681640625-2.6474609375-2.8432617188Z"/><path d="m.396484375,126.1176757813h2.4375l2.830078125,7.1860351562,2.8427734375-7.1860351562h2.4375v9.525390625h-1.8203125v-6.7377929688l-2.6337890625,6.7377929688h-1.638671875l-2.6337890625-6.7377929688v6.7377929688H.396484375v-9.525390625Z"/><path d="m12.333984375,132.04296875c0-1.9750976562,1.31640625-3.7817382812,3.82421875-3.7817382812,2.5068359375,0,3.8232421875,1.806640625,3.8232421875,3.7817382812,0,1.9892578125-1.31640625,3.7963867188-3.8232421875,3.7963867188-2.5078125,0-3.82421875-1.8071289062-3.82421875-3.7963867188Zm1.806640625,0c0,1.3447265625.8544921875,2.2133789062,2.017578125,2.2133789062,1.162109375,0,2.0166015625-.8686523438,2.0166015625-2.2133789062,0-1.3305664062-.8544921875-2.19921875-2.0166015625-2.19921875-1.1630859375,0-2.017578125.8686523438-2.017578125,2.19921875Z"/><path d="m21.169921875,128.4291992188h1.7783203125v1.0083007812c.392578125-.6440429688,1.1630859375-1.1762695312,2.283203125-1.1762695312,1.876953125,0,2.74609375,1.2885742188,2.74609375,3.1376953125v4.244140625h-1.779296875v-4.0483398438c0-1.1484375-.5458984375-1.7509765625-1.5966796875-1.7509765625-.8828125,0-1.470703125.6025390625-1.6533203125,1.2607421875v4.5385742188h-1.7783203125v-7.2138671875Z"/><path d="m29.896484375,132.8837890625v-3.0258789062h-1.205078125v-1.4287109375h1.2607421875v-1.8349609375h1.72265625v1.8349609375h1.6669921875v1.4287109375h-1.6669921875v3.1098632812c0,.9243164062.4345703125,1.2465820312,1.3310546875,1.2465820312h.3359375v1.4287109375c-.23828125.0561523438-.5322265625.083984375-.7978515625.083984375-1.7509765625,0-2.6474609375-.8681640625-2.6474609375-2.8432617188Z"/><path d="m33.8935546875,132.0571289063c0-2.2553710938,1.5263671875-3.7958984375,3.6279296875-3.7958984375s3.4736328125,1.4565429688,3.4736328125,3.5297851562c0,.23828125-.0419921875.57421875-.083984375.8686523438h-5.224609375c.181640625.9663085938.8544921875,1.6245117188,2.1015625,1.6245117188.8818359375,0,1.6240234375-.490234375,2.044921875-1.064453125l.98046875,1.1625976562c-.6728515625.8125-1.7373046875,1.4428710938-3.1103515625,1.4428710938-2.3388671875,0-3.8095703125-1.6669921875-3.8095703125-3.7680664062Zm1.8212890625-.8544921875h3.515625c-.09765625-.9384765625-.7421875-1.470703125-1.708984375-1.470703125-.9248046875,0-1.568359375.5180664062-1.806640625,1.470703125Z"/><path d="m42.248046875,130.6845703125h4.08984375v1.4287109375h-4.08984375v-1.4287109375Z"/><path d="m47.78125,130.8803710938c0-2.8432617188,2.03125-4.9584960938,4.8466796875-4.9584960938,1.974609375,0,3.4462890625.9243164062,4.2724609375,2.3393554688l-1.359375,1.0083007812c-.6015625-1.0083007812-1.484375-1.6528320312-2.87109375-1.6528320312-1.8486328125,0-3.01171875,1.4150390625-3.01171875,3.263671875,0,1.8491210938,1.1630859375,3.263671875,3.01171875,3.263671875,1.38671875,0,2.26953125-.6440429688,2.87109375-1.6528320312l1.359375,1.0087890625c-.826171875,1.4145507812-2.2978515625,2.3393554688-4.2724609375,2.3393554688-2.8154296875,0-4.8466796875-2.115234375-4.8466796875-4.958984375Z"/><path d="m63.296875,134.81640625c-.5322265625.6025390625-1.3173828125.9946289062-2.255859375.9946289062-2.0029296875,0-3.4736328125-1.4848632812-3.4736328125-3.7680664062s1.470703125-3.7817382812,3.4736328125-3.7817382812c.9384765625,0,1.7236328125.40625,2.255859375,1.0083007812v-.8403320312h1.7783203125v7.2138671875h-1.7783203125v-.8266601562Zm0-1.6665039062v-2.2133789062c-.322265625-.6865234375-1.0654296875-1.0927734375-1.86328125-1.0927734375-1.1630859375,0-2.0595703125.798828125-2.0595703125,2.19921875,0,1.38671875.896484375,2.185546875,2.0595703125,2.185546875.7978515625,0,1.541015625-.40625,1.86328125-1.0786132812Z"/><path d="m66.6767578125,128.4291992188h1.7783203125v1.1206054688c.4208984375-.7705078125,1.12109375-1.2885742188,2.0732421875-1.2885742188h.2099609375v1.6948242188c-1.064453125.0141601562-1.9326171875.322265625-2.283203125,1.4008789062v4.2861328125h-1.7783203125v-7.2138671875Z"/><path d="m71.57421875,125.6977539063h1.7783203125v9.9453125h-1.7783203125v-9.9453125Z"/><path d="m74.546875,132.04296875c0-1.9750976562,1.31640625-3.7817382812,3.82421875-3.7817382812,2.5068359375,0,3.8232421875,1.806640625,3.8232421875,3.7817382812,0,1.9892578125-1.31640625,3.7963867188-3.8232421875,3.7963867188-2.5078125,0-3.82421875-1.8071289062-3.82421875-3.7963867188Zm1.806640625,0c0,1.3447265625.8544921875,2.2133789062,2.017578125,2.2133789062,1.162109375,0,2.0166015625-.8686523438,2.0166015625-2.2133789062,0-1.3305664062-.8544921875-2.19921875-2.0166015625-2.19921875-1.1630859375,0-2.017578125.8686523438-2.017578125,2.19921875Z"/><path d="m84.0654296875,136.2734375h-.98046875v-2.1430664062h2.1572265625v1.8911132812l-.966796875,2.3251953125h-1.0498046875l.83984375-2.0732421875Z"/><path d="m89.1328125,132.04296875c0-1.9750976562,1.3583984375-3.7817382812,3.75390625-3.7817382812,1.45703125,0,2.5068359375.6723632812,3.20703125,1.79296875l-1.259765625.9663085938c-.392578125-.6865234375-.9951171875-1.1767578125-1.849609375-1.1767578125-1.232421875,0-2.044921875.8544921875-2.044921875,2.19921875,0,1.3310546875.8125,2.185546875,2.044921875,2.185546875.8544921875,0,1.45703125-.4907226562,1.849609375-1.1767578125l1.259765625.9663085938c-.7001953125,1.1206054688-1.75,1.79296875-3.20703125,1.79296875-2.3955078125,0-3.75390625-1.806640625-3.75390625-3.7680664062Z"/><path d="m102.37890625,134.81640625c-.5322265625.6025390625-1.3173828125.9946289062-2.255859375.9946289062-2.0029296875,0-3.4736328125-1.4848632812-3.4736328125-3.7680664062s1.470703125-3.7817382812,3.4736328125-3.7817382812c.9384765625,0,1.7236328125.40625,2.255859375,1.0083007812v-.8403320312h1.7783203125v7.2138671875h-1.7783203125v-.8266601562Zm0-1.6665039062v-2.2133789062c-.322265625-.6865234375-1.0654296875-1.0927734375-1.86328125-1.0927734375-1.1630859375,0-2.0595703125.798828125-2.0595703125,2.19921875,0,1.38671875.896484375,2.185546875,2.0595703125,2.185546875.7978515625,0,1.541015625-.40625,1.86328125-1.0786132812Z"/><path d="m105.7265625,134.1303710938h2.1572265625v2.1430664062h-2.1572265625v-2.1430664062Z"/><path d="m113.271484375,126.1176757813h1.6396484375l-4.2724609375,9.525390625h-1.625l4.2578125-9.525390625Z"/><path d="m114.5830078125,132.04296875c0-1.9750976562,1.3583984375-3.7817382812,3.75390625-3.7817382812,1.45703125,0,2.5068359375.6723632812,3.2080078125,1.79296875l-1.2607421875.9663085938c-.392578125-.6865234375-.9951171875-1.1767578125-1.849609375-1.1767578125-1.232421875,0-2.044921875.8544921875-2.044921875,2.19921875,0,1.3310546875.8125,2.185546875,2.044921875,2.185546875.8544921875,0,1.45703125-.4907226562,1.849609375-1.1767578125l1.2607421875.9663085938c-.701171875,1.1206054688-1.7509765625,1.79296875-3.2080078125,1.79296875-2.3955078125,0-3.75390625-1.806640625-3.75390625-3.7680664062Z"/><path d="m122.6064453125,134.1303710938h2.1572265625v2.1430664062h-2.1572265625v-2.1430664062Z"/><path d="m130.76953125,128.1489257813l-1.7373046875.9526367188-.658203125-1.38671875,2.84375-1.5971679688h1.330078125v9.525390625h-1.7783203125v-7.494140625Z"/><path d="m141.73046875,130.642578125c0,3.2495117188-1.6943359375,5.1967773438-4.3701171875,5.1967773438-1.52734375,0-2.6337890625-.7426757812-3.236328125-1.6391601562l1.21875-1.0922851562c.40625.6298828125,1.134765625,1.078125,2.017578125,1.078125,1.3310546875,0,2.3251953125-.896484375,2.5068359375-2.619140625-.57421875.6303710938-1.3720703125,1.0786132812-2.46484375,1.0786132812-1.79296875,0-3.333984375-1.3168945312-3.333984375-3.3198242188s1.6669921875-3.4038085938,3.6982421875-3.4038085938c2.60546875,0,3.9638671875,1.9887695312,3.9638671875,4.720703125Zm-5.8271484375-1.3588867188c0,.9384765625.7001953125,1.72265625,1.86328125,1.72265625,1.1484375,0,1.8486328125-.7841796875,1.8486328125-1.72265625,0-.9248046875-.7001953125-1.708984375-1.8486328125-1.708984375-1.1630859375,0-1.86328125.7841796875-1.86328125,1.708984375Z"/><path d="m142.6748046875,132.939453125c0-1.1342773438.6865234375-2.0869140625,1.7646484375-2.4233398438-.826171875-.419921875-1.232421875-1.1206054688-1.232421875-2.0029296875,0-1.4008789062,1.134765625-2.5913085938,3.34765625-2.5913085938s3.34765625,1.1904296875,3.34765625,2.5913085938c0,.8823242188-.40625,1.5830078125-1.232421875,2.0029296875,1.078125.3364257812,1.7646484375,1.2890625,1.7646484375,2.4233398438,0,1.6528320312-1.302734375,2.8999023438-3.8798828125,2.8999023438s-3.8798828125-1.2470703125-3.8798828125-2.8999023438Zm1.8203125-.1538085938c0,.7705078125.6591796875,1.4287109375,2.0595703125,1.4287109375s2.05859375-.658203125,2.05859375-1.4287109375-.658203125-1.4287109375-2.05859375-1.4287109375-2.0595703125.658203125-2.0595703125,1.4287109375Zm.5322265625-4.1181640625c0,.6860351562.630859375,1.1206054688,1.52734375,1.1206054688s1.5263671875-.4345703125,1.5263671875-1.1206054688c0-.6865234375-.6298828125-1.1206054688-1.5263671875-1.1206054688s-1.52734375.4340820312-1.52734375,1.1206054688Z"/><path d="m151.0986328125,134.2421875l1.0361328125-1.232421875c.4765625.5600585938,1.232421875,1.1762695312,2.4091796875,1.1762695312s2.03125-.50390625,2.03125-1.4145507812c0-.8266601562-.658203125-1.2885742188-2.0029296875-1.2885742188h-.9384765625v-1.5688476562h.9384765625c1.037109375,0,1.4990234375-.560546875,1.4990234375-1.1909179688,0-.7563476562-.658203125-1.1484375-1.45703125-1.1484375-1.0224609375,0-1.625.4482421875-1.9892578125.9663085938l-1.064453125-1.1206054688c.6162109375-.7983398438,1.6953125-1.4985351562,3.0537109375-1.4985351562,2.044921875,0,3.2783203125.9946289062,3.2783203125,2.6752929688,0,.7705078125-.462890625,1.5126953125-1.21875,1.9609375,1.1064453125.3642578125,1.72265625,1.2470703125,1.72265625,2.3676757812,0,1.79296875-1.6953125,2.9135742188-3.8525390625,2.9135742188-1.6943359375,0-2.8291015625-.896484375-3.4453125-1.5971679688Z"/><rect class="cls-1" width="318.1005859375" height="138.3466796875"/></g></svg>