<?xml version="1.0" encoding="UTF-8"?><svg id="_레이어_2" xmlns="http://www.w3.org/2000/svg" viewBox="0 0 318.1005859375 138.3466796875"><defs><style>.cls-1{fill:none;}</style></defs><g id="Layer_1"><path d="m.6787109375,10.4423828125h15.84375v2.140625h-6.6416015625v4.7807617188h-2.560546875v-4.7807617188H.6787109375v-2.140625ZM3.0595703125.6201171875h11.08203125v5.1811523438H5.6005859375v1.1606445312h8.78125v2.080078125H4.01953125c-.599609375,0-.9599609375-.2397460938-.9599609375-.8198242188V3.8212890625h8.5419921875v-1.1206054688H3.0595703125V.6201171875Z"/><path d="m17.759765625,12.962890625h15.84375v2.220703125h-15.84375v-2.220703125Zm2.28125-11.5825195312h11.2822265625v2.220703125h-8.7216796875v4.0209960938h8.921875v2.2202148438h-10.5224609375c-.6005859375,0-.9599609375-.2602539062-.9599609375-.8203125V1.3803710938Z"/><path d="m35.2861328125,1.4404296875h2.5v3.4208984375h3.4208984375V1.4404296875h2.4609375v11.4423828125h-7.40234375c-.6201171875,0-.9794921875-.2397460938-.9794921875-.8198242188V1.4404296875Zm2.5,5.5615234375v3.7006835938h3.4208984375v-3.7006835938h-3.4208984375ZM46.1884765625,0h2.560546875v17.2836914062h-2.560546875V0Z"/><path d="m50.791015625,4.4809570312h10.341796875v2.140625h-1.9404296875c.6806640625.6000976562,1.1005859375,1.48046875,1.1005859375,2.560546875,0,2.4604492188-1.7607421875,4.12109375-4.3212890625,4.12109375s-4.3603515625-1.6606445312-4.3603515625-4.12109375c0-1.080078125.419921875-1.9604492188,1.099609375-2.560546875h-1.919921875v-2.140625Zm2.2607421875-3.4204101562h5.8212890625v2.1801757812h-5.8212890625V1.060546875Zm1.0400390625,8.1215820312c0,1.240234375.7998046875,2.0205078125,1.8798828125,2.0205078125,1.0810546875,0,1.8603515625-.7802734375,1.8603515625-2.0205078125s-.779296875-2.0405273438-1.8603515625-2.0405273438c-1.080078125,0-1.8798828125.8002929688-1.8798828125,2.0405273438ZM62.6337890625,0h2.560546875v17.2836914062h-2.560546875V0Z"/><path d="m73.23046875,1.5805664062h8.3818359375v11.2026367188h-7.40234375c-.6201171875,0-.9794921875-.240234375-.9794921875-.8203125V1.5805664062Zm2.5,2.1806640625v6.8413085938h3.4208984375V3.7612304688h-3.4208984375Zm8.40234375-3.7612304688h2.560546875v17.2836914062h-2.560546875V0Z"/><path d="m88.7451171875,12.962890625h15.84375v2.220703125h-15.84375v-2.220703125Zm6.6220703125-11.9223632812h2.6005859375v1.2202148438c0,3.5405273438,2.560546875,5.1411132812,5.5009765625,6.0810546875l-.9599609375,2.0805664062c-2.48046875-.6201171875-5.041015625-2.3203125-5.841796875-4.2607421875-.759765625,1.9404296875-3.3203125,3.6806640625-5.8212890625,4.3408203125l-.9599609375-2.0805664062c2.900390625-.919921875,5.4814453125-2.6206054688,5.4814453125-6.1411132812v-1.240234375Z"/><path d="m110.9248046875.9404296875h2.5v2.3203125h3.4208984375V.9404296875h2.4609375v9.0419921875h-7.4013671875c-.6201171875,0-.98046875-.2602539062-.98046875-.8203125V.9404296875Zm2.400390625,10.4624023438h2.560546875v3.80078125h8.7822265625v2.1801757812h-10.3828125c-.599609375,0-.9599609375-.259765625-.9599609375-.8198242188v-5.1611328125Zm.099609375-6.021484375v2.4204101562h3.4208984375v-2.4204101562h-3.4208984375Zm8.1220703125-5.3813476562h2.560546875v4.7412109375h2.3408203125v2.2006835938h-2.3408203125v5.9809570312h-2.560546875V0Z"/><path d="m132.125,1.640625h6.521484375v2.1806640625h-4.0810546875v6.5610351562h1.400390625c1.16015625,0,2.080078125-.1201171875,2.9404296875-.4399414062l.4404296875,1.7001953125c-1.1806640625.740234375-2.701171875.9204101562-4.5810546875.9204101562h-1.6806640625c-.6005859375,0-.9599609375-.240234375-.9599609375-.8002929688V1.640625Zm8.2412109375-1.3403320312h2.400390625v16.4833984375h-2.400390625v-8.7817382812h-2.919921875v-2.1206054688h2.919921875V.3002929688Zm3.80078125-.3002929688h2.4404296875v17.2836914062h-2.4404296875V0Z"/><path d="m160.1044921875,0h2.560546875v17.2836914062h-2.560546875v-9.0815429688h-2.3212890625c-.2392578125,2.560546875-1.4794921875,4.7807617188-4.5205078125,4.7807617188-3.4609375,0-4.62109375-2.8603515625-4.62109375-5.8012695312,0-2.9404296875,1.16015625-5.8012695312,4.62109375-5.8012695312,2.98046875,0,4.220703125,2.1606445312,4.5009765625,4.6411132812h2.3408203125V0Zm-8.90234375,7.181640625c0,1.6206054688.419921875,3.62109375,2.060546875,3.62109375s2.0400390625-2.0004882812,2.0400390625-3.62109375c0-1.6201171875-.3994140625-3.6206054688-2.0400390625-3.6206054688s-2.060546875,2.0004882812-2.060546875,3.6206054688Z"/><path d="m171.9814453125,1.3002929688h11.2822265625v5.681640625h-8.7421875v1.580078125h9.0224609375v2.1206054688h-4.6416015625v2.5205078125h6.6416015625v2.2202148438h-15.84375v-2.2202148438h6.6416015625v-2.5205078125h-3.400390625c-.6005859375,0-.9599609375-.2602539062-.9599609375-.8203125v-4.9008789062h8.7412109375v-1.5405273438h-8.7412109375V1.3002929688Z"/><path d="m194.7568359375.3002929688h2.419921875v16.4833984375h-2.419921875v-8.7216796875h-1.220703125c-.2197265625,3.0405273438-1.5205078125,4.6411132812-3.701171875,4.6411132812-2.419921875,0-3.80078125-1.9404296875-3.80078125-5.6416015625,0-3.6806640625,1.380859375-5.6411132812,3.80078125-5.6411132812,2.140625,0,3.4208984375,1.5805664062,3.701171875,4.4609375h1.220703125V.3002929688Zm-6.341796875,6.7612304688c0,2.140625.4599609375,3.5009765625,1.419921875,3.5009765625.9404296875,0,1.400390625-1.3603515625,1.400390625-3.5009765625,0-2.1401367188-.4599609375-3.48046875-1.400390625-3.48046875-.9599609375,0-1.419921875,1.3403320312-1.419921875,3.48046875Zm9.982421875-7.0615234375h2.4404296875v17.2836914062h-2.4404296875V0Z"/><path d="m1.0361328125,24.3984375h1.8212890625v7.9287109375h4.6083984375v1.5966796875H1.0361328125v-9.525390625Z"/><path d="m15.0546875,33.923828125h-1.779296875v-1.0087890625c-.392578125.64453125-1.1630859375,1.1767578125-2.283203125,1.1767578125-1.876953125,0-2.7451171875-1.2885742188-2.7451171875-3.1376953125v-4.244140625h1.7783203125v4.0483398438c0,1.1484375.546875,1.7509765625,1.5966796875,1.7509765625.8828125,0,1.470703125-.6025390625,1.6533203125-1.2607421875v-4.5385742188h1.779296875v7.2138671875Z"/><path d="m21.9970703125,33.0971679688c-.5322265625.6025390625-1.3173828125.9946289062-2.255859375.9946289062-2.0029296875,0-3.4736328125-1.4848632812-3.4736328125-3.7680664062s1.470703125-3.7817382812,3.4736328125-3.7817382812c.9384765625,0,1.7236328125.40625,2.255859375,1.0083007812v-3.5717773438h1.7783203125v9.9453125h-1.7783203125v-.8266601562Zm0-1.6665039062v-2.2133789062c-.322265625-.6865234375-1.0654296875-1.0927734375-1.86328125-1.0927734375-1.1630859375,0-2.0595703125.798828125-2.0595703125,2.19921875,0,1.38671875.896484375,2.185546875,2.0595703125,2.185546875.7978515625,0,1.541015625-.40625,1.86328125-1.0786132812Z"/><path d="m24.5888671875,26.7099609375h1.904296875l1.443359375,4.818359375,1.638671875-4.818359375h1.890625l1.6396484375,4.818359375,1.4423828125-4.818359375h1.9052734375l-2.3671875,7.2138671875h-1.779296875l-1.79296875-5.0146484375-1.779296875,5.0146484375h-1.7783203125l-2.3671875-7.2138671875Z"/><path d="m37.236328125,23.6420898438h1.8212890625v1.8491210938h-1.8212890625v-1.8491210938Zm.0283203125,3.0678710938h1.7783203125v7.2138671875h-1.7783203125v-7.2138671875Z"/><path d="m40.234375,29.9877929688c0-2.0732421875,1.2744140625-3.4458007812,3.2919921875-3.4458007812.923828125,0,1.6806640625.40625,2.1845703125,1.0083007812v-.8403320312h1.779296875v5.9814453125c0,2.619140625-1.8349609375,3.8237304688-3.7822265625,3.8237304688-1.7646484375,0-2.787109375-.6723632812-3.333984375-1.4565429688l1.0791015625-1.1206054688c.4765625.6303710938,1.0927734375,1.0502929688,2.1708984375,1.0502929688,1.037109375,0,2.0869140625-.5883789062,2.0869140625-2.1572265625v-.3920898438c-.50390625.5883789062-1.2607421875.9946289062-2.1845703125.9946289062-2.017578125,0-3.2919921875-1.3725585938-3.2919921875-3.4458007812Zm5.4765625.8823242188v-1.7509765625c-.3212890625-.658203125-.9658203125-1.0502929688-1.7509765625-1.0502929688-1.17578125,0-1.9189453125.7700195312-1.9189453125,1.9189453125,0,1.1484375.7431640625,1.9189453125,1.9189453125,1.9189453125.78515625,0,1.4296875-.3920898438,1.7509765625-1.0366210938Z"/><path d="m52.2041015625,24.3984375h2.4375l2.830078125,7.1860351562,2.8427734375-7.1860351562h2.4375v9.525390625h-1.8203125v-6.7377929688l-2.6337890625,6.7377929688h-1.638671875l-2.6337890625-6.7377929688v6.7377929688h-1.8212890625v-9.525390625Z"/><path d="m64.5244140625,23.6420898438h1.8212890625v1.8491210938h-1.8212890625v-1.8491210938Zm.0283203125,3.0678710938h1.7783203125v7.2138671875h-1.7783203125v-7.2138671875Z"/><path d="m67.5224609375,30.337890625c0-2.2553710938,1.5263671875-3.7958984375,3.6279296875-3.7958984375s3.4736328125,1.4565429688,3.4736328125,3.5297851562c0,.23828125-.0419921875.57421875-.083984375.8686523438h-5.224609375c.181640625.9663085938.8544921875,1.6245117188,2.1015625,1.6245117188.8818359375,0,1.6240234375-.490234375,2.044921875-1.064453125l.98046875,1.1625976562c-.6728515625.8125-1.7373046875,1.4428710938-3.109375,1.4428710938-2.33984375,0-3.810546875-1.6669921875-3.810546875-3.7680664062Zm1.8212890625-.8544921875h3.515625c-.09765625-.9384765625-.7421875-1.470703125-1.708984375-1.470703125-.9248046875,0-1.568359375.5180664062-1.806640625,1.470703125Z"/><path d="m75.2001953125,32.705078125l.9658203125-1.1206054688c.4765625.5883789062,1.2890625,1.0786132812,2.1435546875,1.0786132812.7705078125,0,1.31640625-.3081054688,1.31640625-.8403320312,0-.4760742188-.4345703125-.6723632812-1.1201171875-.7846679688l-.64453125-.09765625c-1.3447265625-.2241210938-2.1572265625-.966796875-2.1572265625-2.1435546875,0-1.2465820312,1.064453125-2.2548828125,2.87109375-2.2548828125,1.134765625,0,2.00390625.4760742188,2.5361328125,1.0922851562l-.9384765625,1.134765625c-.462890625-.490234375-1.0087890625-.7705078125-1.6669921875-.7705078125-.6728515625,0-1.0224609375.3081054688-1.0224609375.7006835938,0,.3637695312.279296875.5600585938.7978515625.6440429688l.64453125.0981445312c1.6533203125.251953125,2.4794921875,1.0224609375,2.4794921875,2.283203125,0,1.302734375-1.134765625,2.3955078125-3.166015625,2.3955078125-1.3447265625,0-2.380859375-.6303710938-3.0390625-1.4150390625Z"/><path d="m84.7197265625,26.7099609375h1.9052734375l1.9189453125,5.0146484375,1.9189453125-5.0146484375h1.9052734375l-2.94140625,7.2138671875h-1.779296875l-2.927734375-7.2138671875Z"/><path d="m98.2021484375,33.0971679688c-.5322265625.6025390625-1.3173828125.9946289062-2.255859375.9946289062-2.0029296875,0-3.4736328125-1.4848632812-3.4736328125-3.7680664062s1.470703125-3.7817382812,3.4736328125-3.7817382812c.9384765625,0,1.7236328125.40625,2.255859375,1.0083007812v-.8403320312h1.7783203125v7.2138671875h-1.7783203125v-.8266601562Zm0-1.6665039062v-2.2133789062c-.322265625-.6865234375-1.0654296875-1.0927734375-1.86328125-1.0927734375-1.1630859375,0-2.0595703125.798828125-2.0595703125,2.19921875,0,1.38671875.896484375,2.185546875,2.0595703125,2.185546875.7978515625,0,1.541015625-.40625,1.86328125-1.0786132812Z"/><path d="m101.5830078125,26.7099609375h1.7783203125v1.0083007812c.392578125-.6440429688,1.1630859375-1.1762695312,2.283203125-1.1762695312,1.876953125,0,2.74609375,1.2885742188,2.74609375,3.1376953125v4.244140625h-1.779296875v-4.0483398438c0-1.1484375-.5458984375-1.7509765625-1.5966796875-1.7509765625-.8828125,0-1.470703125.6025390625-1.6533203125,1.2607421875v4.5385742188h-1.7783203125v-7.2138671875Z"/><path d="m118.189453125,33.0971679688c-.5322265625.6025390625-1.3173828125.9946289062-2.255859375.9946289062-2.0029296875,0-3.4736328125-1.4848632812-3.4736328125-3.7680664062s1.470703125-3.7817382812,3.4736328125-3.7817382812c.9384765625,0,1.7236328125.40625,2.255859375,1.0083007812v-3.5717773438h1.7783203125v9.9453125h-1.7783203125v-.8266601562Zm0-1.6665039062v-2.2133789062c-.322265625-.6865234375-1.0654296875-1.0927734375-1.86328125-1.0927734375-1.1630859375,0-2.0595703125.798828125-2.0595703125,2.19921875,0,1.38671875.896484375,2.185546875,2.0595703125,2.185546875.7978515625,0,1.541015625-.40625,1.86328125-1.0786132812Z"/><path d="m121.169921875,30.337890625c0-2.2553710938,1.5263671875-3.7958984375,3.6279296875-3.7958984375s3.4736328125,1.4565429688,3.4736328125,3.5297851562c0,.23828125-.0419921875.57421875-.083984375.8686523438h-5.224609375c.181640625.9663085938.8544921875,1.6245117188,2.1015625,1.6245117188.8818359375,0,1.6240234375-.490234375,2.044921875-1.064453125l.98046875,1.1625976562c-.6728515625.8125-1.7373046875,1.4428710938-3.1103515625,1.4428710938-2.3388671875,0-3.8095703125-1.6669921875-3.8095703125-3.7680664062Zm1.8212890625-.8544921875h3.515625c-.09765625-.9384765625-.7421875-1.470703125-1.708984375-1.470703125-.9248046875,0-1.568359375.5180664062-1.806640625,1.470703125Z"/><path d="m129.4716796875,26.7099609375h1.7783203125v1.1206054688c.4208984375-.7705078125,1.12109375-1.2885742188,2.0732421875-1.2885742188h.2099609375v1.6948242188c-1.064453125.0141601562-1.9326171875.322265625-2.283203125,1.4008789062v4.2861328125h-1.7783203125v-7.2138671875Z"/><path d="m140.923828125,30.0717773438h-1.5126953125v3.8520507812h-1.8212890625v-9.525390625h4.23046875c1.8349609375,0,3.15234375,1.0786132812,3.15234375,2.84375,0,1.4008789062-.8271484375,2.3671875-2.087890625,2.7036132812l3.08203125,3.9360351562v.0419921875h-2.185546875l-2.857421875-3.8520507812Zm.7001953125-1.5830078125c.966796875,0,1.4716796875-.4619140625,1.4716796875-1.2465820312,0-.7841796875-.5048828125-1.2465820312-1.4716796875-1.2465820312h-2.212890625v2.4931640625h2.212890625Z"/><path d="m146.0458984375,30.3237304688c0-1.9750976562,1.31640625-3.7817382812,3.82421875-3.7817382812,2.5068359375,0,3.8232421875,1.806640625,3.8232421875,3.7817382812,0,1.9892578125-1.31640625,3.7963867188-3.8232421875,3.7963867188-2.5078125,0-3.82421875-1.8071289062-3.82421875-3.7963867188Zm1.806640625,0c0,1.3447265625.8544921875,2.2133789062,2.017578125,2.2133789062,1.162109375,0,2.0166015625-.8686523438,2.0166015625-2.2133789062,0-1.3305664062-.8544921875-2.19921875-2.0166015625-2.19921875-1.1630859375,0-2.017578125.8686523438-2.017578125,2.19921875Z"/><path d="m154.8828125,23.978515625h1.7783203125v3.7397460938c.392578125-.6440429688,1.1630859375-1.1762695312,2.283203125-1.1762695312,1.876953125,0,2.74609375,1.2885742188,2.74609375,3.1376953125v4.244140625h-1.779296875v-4.0483398438c0-1.1484375-.5458984375-1.7509765625-1.5966796875-1.7509765625-.953125,0-1.4990234375.7006835938-1.6533203125,1.2607421875v4.5385742188h-1.7783203125v-9.9453125Z"/><path d="m162.80859375,30.337890625c0-2.2553710938,1.5263671875-3.7958984375,3.6279296875-3.7958984375s3.4736328125,1.4565429688,3.4736328125,3.5297851562c0,.23828125-.0419921875.57421875-.083984375.8686523438h-5.224609375c.181640625.9663085938.8544921875,1.6245117188,2.1015625,1.6245117188.8818359375,0,1.6240234375-.490234375,2.044921875-1.064453125l.98046875,1.1625976562c-.6728515625.8125-1.7373046875,1.4428710938-3.1103515625,1.4428710938-2.3388671875,0-3.8095703125-1.6669921875-3.8095703125-3.7680664062Zm1.8212890625-.8544921875h3.515625c-.09765625-.9384765625-.7421875-1.470703125-1.708984375-1.470703125-.9248046875,0-1.568359375.5180664062-1.806640625,1.470703125Z"/><path d="m1.599609375,61.6196289062h2.5v1.6206054688h3.4208984375v-1.6206054688h2.4609375v7.6416015625H2.5791015625c-.6201171875,0-.9794921875-.259765625-.9794921875-.8198242188v-6.8217773438Zm2.5,3.7211914062v1.7802734375h3.4208984375v-1.7802734375h-3.4208984375Zm.140625,5.1806640625h10.822265625v4.8813476562H6.7802734375v1.1000976562h8.7216796875v2.0004882812H5.2001953125c-.6005859375,0-.9599609375-.2602539062-.9599609375-.8203125v-4.1606445312h8.28125v-1.0405273438H4.240234375v-1.9604492188Zm8.26171875-9.6020507812h2.560546875v8.8022460938h-2.560546875v-8.8022460938Z"/><path d="m17.7666015625,62.4599609375h8.28125v6.6616210938h-5.720703125v2.6005859375h4.220703125c1.48046875,0,2.8408203125-.2001953125,3.8408203125-.7202148438v-10.0825195312h2.560546875v5.9614257812h2.3408203125v2.2006835938h-2.3408203125v9.1215820312h-2.560546875v-5.4409179688c-1.259765625.8203125-3.060546875,1.1401367188-5.060546875,1.1401367188h-4.5810546875c-.6201171875,0-.98046875-.2397460938-.98046875-.8203125v-6.0810546875h5.7607421875v-2.3603515625h-5.7607421875v-2.1806640625Z"/><path d="m38.5849609375,71.3618164062h15.84375v2.140625h-6.6416015625v4.7807617188h-2.560546875v-4.7807617188h-6.6416015625v-2.140625Zm2.380859375-9.822265625h11.08203125v2.1005859375h-8.521484375v1.1005859375h8.1416015625v1.9799804688h-8.1416015625v1.1606445312h8.76171875v2.080078125h-10.3623046875c-.599609375,0-.9599609375-.2397460938-.9599609375-.8198242188v-7.6020507812Z"/><path d="m55.8984375,61.9799804688h6.701171875v1.5c0,.8002929688-.099609375,1.5405273438-.2998046875,2.220703125h1.83984375v-4.5810546875h2.4208984375v11.7026367188h-2.4208984375v-4.9609375h-2.8203125c-1.080078125,1.6000976562-2.8203125,2.8002929688-5.0615234375,3.6005859375l-1.080078125-2.0405273438c3.041015625-1,4.9609375-3.2006835938,4.9609375-5.28125h-4.240234375v-2.16015625Zm3.2001953125,10.0219726562h2.560546875v4.12109375h9.08203125v2.1801757812h-10.6826171875c-.599609375,0-.9599609375-.259765625-.9599609375-.8198242188v-5.4814453125Zm8.8623046875-11.0825195312h2.4404296875v12.2026367188h-2.4404296875v-12.2026367188Z"/><path d="m72.3759765625,74.0825195312h15.84375v2.2202148438h-15.84375v-2.2202148438Zm2.28125-11.8627929688h11.2822265625v2.1206054688h-8.7216796875v1.5805664062h8.341796875v2.0200195312h-8.341796875v1.6206054688h9.001953125v2.1206054688h-10.6025390625c-.6005859375,0-.9599609375-.2602539062-.9599609375-.8203125v-8.6420898438Z"/><path d="m88.3017578125,65.400390625h10.3427734375v2.140625h-1.9404296875c.6796875.6000976562,1.099609375,1.48046875,1.099609375,2.560546875,0,2.4604492188-1.759765625,4.12109375-4.3203125,4.12109375s-4.361328125-1.6606445312-4.361328125-4.12109375c0-1.080078125.419921875-1.9604492188,1.1005859375-2.560546875h-1.9208984375v-2.140625Zm2.2607421875-3.4204101562h5.8212890625v2.1801757812h-5.8212890625v-2.1801757812Zm1.0400390625,8.1215820312c0,1.240234375.7998046875,2.0205078125,1.880859375,2.0205078125,1.080078125,0,1.8603515625-.7802734375,1.8603515625-2.0205078125s-.7802734375-2.0405273438-1.8603515625-2.0405273438c-1.0810546875,0-1.880859375.8002929688-1.880859375,2.0405273438Zm8.26171875-9.1821289062h2.560546875v6.1416015625h2.3408203125v2.2202148438h-2.3408203125v8.921875h-2.560546875v-17.2836914062Z"/><path d="m104.880859375,74.0825195312h15.84375v2.2202148438h-15.84375v-2.2202148438Zm2.28125-11.8627929688h11.2822265625v2.1206054688h-8.7216796875v1.5805664062h8.341796875v2.0200195312h-8.341796875v1.6206054688h9.001953125v2.1206054688h-10.6025390625c-.6005859375,0-.9599609375-.2602539062-.9599609375-.8203125v-8.6420898438Z"/><path d="m.6787109375,97.982421875h15.84375v2.220703125H.6787109375v-2.220703125Zm2.28125-11.9223632812h2.560546875v2.400390625h6.1611328125v-2.400390625h2.560546875v9.001953125H3.919921875c-.6005859375,0-.9599609375-.240234375-.9599609375-.8002929688v-8.2016601562Zm2.560546875,4.5009765625v2.3203125h6.1611328125v-2.3203125h-6.1611328125Z"/><path d="m17.8515625,98.0825195312h15.84375v2.2202148438h-15.84375v-2.2202148438Zm2.28125-11.8627929688h11.2822265625v5.7211914062h-8.7421875v1.6206054688h9.0224609375v2.1206054688h-10.6025390625c-.6005859375,0-.9599609375-.2602539062-.9599609375-.8203125v-4.9409179688h8.7412109375v-1.5805664062h-8.7412109375v-2.1206054688Z"/><path d="m37.306640625,86.1801757812h2.560546875v6.0009765625h8.9619140625v2.220703125h-4.6015625v3.5205078125h6.6416015625v2.220703125h-15.84375v-2.220703125h6.6416015625v-3.5205078125h-3.400390625c-.6005859375,0-.9599609375-.2602539062-.9599609375-.8203125v-7.4013671875Z"/><path d="m54.345703125,100.8432617188h-1.400390625v-3.0610351562h3.080078125v2.7006835938l-1.3798828125,3.3208007812h-1.5l1.2001953125-2.9604492188Z"/><path d="m62.3447265625,89.5004882812h7.162109375v2.1606445312h-2.2607421875c.16015625,2.2006835938,1.0205078125,3.9008789062,3.0205078125,4.9609375-.400390625.5600585938-.7998046875,1.16015625-1.2001953125,1.740234375-1.48046875-.7197265625-2.720703125-2.2602539062-3.0205078125-3.400390625-.2802734375,1.3203125-1.6005859375,2.8803710938-3.1806640625,3.6606445312-.3798828125-.6000976562-.7802734375-1.2001953125-1.1806640625-1.7802734375,2.0810546875-1.1000976562,2.880859375-2.9208984375,3.041015625-5.1811523438h-2.380859375v-2.1606445312Zm1.1806640625-3.400390625h4.80078125v2.1801757812h-4.80078125v-2.1801757812Zm7.28125-.8803710938h2.400390625v16.4833984375h-2.400390625v-7.0415039062h-1.900390625v-2.080078125h1.900390625v-7.3618164062Zm3.6806640625-.3002929688h2.4404296875v17.2836914062h-2.4404296875v-17.2836914062Z"/><path d="m78.7412109375,97.9223632812h5.44140625v-3.6806640625h2.560546875v3.6806640625h7.841796875v2.220703125h-15.84375v-2.220703125Zm2.2607421875-11.6225585938h11.302734375v2.5205078125c0,2.3608398438-.2197265625,5.1411132812-.66015625,7.2416992188l-2.4208984375-.3198242188c.220703125-1.1806640625.3603515625-2.4809570312.4404296875-3.701171875-.66015625.6401367188-1.9609375.9204101562-3.7412109375.9204101562h-5.140625v-2.1005859375h6.0009765625c1.16015625,0,2.240234375-.080078125,2.9404296875-.3598632812.0205078125-.2802734375.0205078125-.6000976562.0205078125-.8803710938v-1.1401367188h-8.7421875v-2.1806640625Z"/><path d="m0,109.3178710938h1.890625l2.7880859375,7.5083007812,2.787109375-7.5083007812h1.8916015625l-3.6142578125,9.525390625h-2.12890625l-3.6142578125-9.525390625Z"/><path d="m10.1455078125,108.5615234375h1.8212890625v1.8491210938h-1.8212890625v-1.8491210938Zm.0283203125,3.0678710938h1.7783203125v7.2138671875h-1.7783203125v-7.2138671875Z"/><path d="m13.5361328125,108.8979492188h1.7783203125v9.9453125h-1.7783203125v-9.9453125Z"/><path d="m16.8984375,108.8979492188h1.7783203125v9.9453125h-1.7783203125v-9.9453125Z"/><path d="m25.62890625,118.0166015625c-.5322265625.6025390625-1.3173828125.9946289062-2.255859375.9946289062-2.0029296875,0-3.4736328125-1.4848632812-3.4736328125-3.7680664062s1.470703125-3.7817382812,3.4736328125-3.7817382812c.9384765625,0,1.7236328125.40625,2.255859375,1.0083007812v-.8403320312h1.7783203125v7.2138671875h-1.7783203125v-.8266601562Zm0-1.6665039062v-2.2133789062c-.322265625-.6865234375-1.0654296875-1.0927734375-1.86328125-1.0927734375-1.1630859375,0-2.0595703125.798828125-2.0595703125,2.19921875,0,1.38671875.896484375,2.185546875,2.0595703125,2.185546875.7978515625,0,1.541015625-.40625,1.86328125-1.0786132812Z"/><path d="m34.2353515625,110.9150390625h-2.8994140625v-1.5971679688h7.6201171875v1.5971679688h-2.8994140625v7.9282226562h-1.8212890625v-7.9282226562Z"/><path d="m45.5400390625,118.8432617188h-1.779296875v-1.0087890625c-.392578125.64453125-1.1630859375,1.1767578125-2.283203125,1.1767578125-1.876953125,0-2.7451171875-1.2885742188-2.7451171875-3.1376953125v-4.244140625h1.7783203125v4.0483398438c0,1.1484375.546875,1.7509765625,1.5966796875,1.7509765625.8828125,0,1.4716796875-.6025390625,1.6533203125-1.2607421875v-4.5385742188h1.779296875v7.2138671875Z"/><path d="m46.7275390625,114.9072265625c0-2.0732421875,1.2744140625-3.4458007812,3.2919921875-3.4458007812.923828125,0,1.6806640625.40625,2.1845703125,1.0083007812v-.8403320312h1.779296875v5.9814453125c0,2.619140625-1.8349609375,3.8237304688-3.7822265625,3.8237304688-1.7646484375,0-2.787109375-.6723632812-3.333984375-1.4565429688l1.0791015625-1.1206054688c.4765625.6303710938,1.0927734375,1.0502929688,2.1708984375,1.0502929688,1.037109375,0,2.0869140625-.5883789062,2.0869140625-2.1572265625v-.3920898438c-.50390625.5883789062-1.2607421875.9946289062-2.1845703125.9946289062-2.017578125,0-3.2919921875-1.3725585938-3.2919921875-3.4458007812Zm5.4765625.8823242188v-1.7509765625c-.322265625-.658203125-.9658203125-1.0502929688-1.7509765625-1.0502929688-1.17578125,0-1.9189453125.7700195312-1.9189453125,1.9189453125,0,1.1484375.7431640625,1.9189453125,1.9189453125,1.9189453125.78515625,0,1.4287109375-.3920898438,1.7509765625-1.0366210938Z"/><path d="m55.158203125,115.2573242188c0-2.2553710938,1.5263671875-3.7958984375,3.6279296875-3.7958984375s3.4736328125,1.4565429688,3.4736328125,3.5297851562c0,.23828125-.0419921875.57421875-.083984375.8686523438h-5.224609375c.181640625.9663085938.8544921875,1.6245117188,2.1015625,1.6245117188.8818359375,0,1.6240234375-.490234375,2.044921875-1.064453125l.98046875,1.1625976562c-.6728515625.8125-1.7373046875,1.4428710938-3.1103515625,1.4428710938-2.3388671875,0-3.8095703125-1.6669921875-3.8095703125-3.7680664062Zm1.8212890625-.8544921875h3.515625c-.09765625-.9384765625-.7421875-1.470703125-1.708984375-1.470703125-.9248046875,0-1.568359375.5180664062-1.806640625,1.470703125Z"/><path d="m63.458984375,111.6293945312h1.7783203125v1.0083007812c.392578125-.6440429688,1.1630859375-1.1762695312,2.283203125-1.1762695312,1.876953125,0,2.74609375,1.2885742188,2.74609375,3.1376953125v4.244140625h-1.779296875v-4.0483398438c0-1.1484375-.5458984375-1.7509765625-1.5966796875-1.7509765625-.8828125,0-1.470703125.6025390625-1.6533203125,1.2607421875v4.5385742188h-1.7783203125v-7.2138671875Z"/><path d="m77.1171875,118.0166015625c-.5322265625.6025390625-1.3173828125.9946289062-2.255859375.9946289062-2.0029296875,0-3.4736328125-1.4848632812-3.4736328125-3.7680664062s1.470703125-3.7817382812,3.4736328125-3.7817382812c.9384765625,0,1.7236328125.40625,2.255859375,1.0083007812v-3.5717773438h1.7783203125v9.9453125h-1.7783203125v-.8266601562Zm0-1.6665039062v-2.2133789062c-.322265625-.6865234375-1.0654296875-1.0927734375-1.86328125-1.0927734375-1.1630859375,0-2.0595703125.798828125-2.0595703125,2.19921875,0,1.38671875.896484375,2.185546875,2.0595703125,2.185546875.7978515625,0,1.541015625-.40625,1.86328125-1.0786132812Z"/><path d="m80.498046875,108.8979492188h1.7783203125v3.7397460938c.392578125-.6440429688,1.1630859375-1.1762695312,2.283203125-1.1762695312,1.876953125,0,2.74609375,1.2885742188,2.74609375,3.1376953125v4.244140625h-1.779296875v-4.0483398438c0-1.1484375-.5458984375-1.7509765625-1.5966796875-1.7509765625-.953125,0-1.4990234375.7006835938-1.6533203125,1.2607421875v4.5385742188h-1.7783203125v-9.9453125Z"/><path d="m94.1552734375,118.0166015625c-.5322265625.6025390625-1.3173828125.9946289062-2.255859375.9946289062-2.0029296875,0-3.4736328125-1.4848632812-3.4736328125-3.7680664062s1.470703125-3.7817382812,3.4736328125-3.7817382812c.9384765625,0,1.7236328125.40625,2.255859375,1.0083007812v-.8403320312h1.7783203125v7.2138671875h-1.7783203125v-.8266601562Zm0-1.6665039062v-2.2133789062c-.322265625-.6865234375-1.0654296875-1.0927734375-1.86328125-1.0927734375-1.1630859375,0-2.0595703125.798828125-2.0595703125,2.19921875,0,1.38671875.896484375,2.185546875,2.0595703125,2.185546875.7978515625,0,1.541015625-.40625,1.86328125-1.0786132812Z"/><path d="m98,116.083984375v-3.0258789062h-1.205078125v-1.4287109375h1.2607421875v-1.8349609375h1.72265625v1.8349609375h1.6669921875v1.4287109375h-1.6669921875v3.1098632812c0,.9243164062.4345703125,1.2465820312,1.3310546875,1.2465820312h.3359375v1.4287109375c-.23828125.0561523438-.5322265625.083984375-.7978515625.083984375-1.7509765625,0-2.6474609375-.8681640625-2.6474609375-2.8432617188Z"/><path d="m1.0361328125,126.1176757812h3.9365234375c1.9189453125,0,3.109375.9389648438,3.109375,2.5356445312,0,.7841796875-.3916015625,1.470703125-1.091796875,1.9047851562,1.064453125.3364257812,1.806640625,1.0786132812,1.806640625,2.3676757812,0,1.72265625-1.205078125,2.7172851562-3.41796875,2.7172851562H1.0361328125v-9.525390625Zm3.6982421875,3.9223632812c1.064453125,0,1.470703125-.4760742188,1.470703125-1.2045898438s-.40625-1.2045898438-1.470703125-1.2045898438h-1.876953125v2.4091796875h1.876953125Zm.57421875,4.0903320312c1.1064453125,0,1.611328125-.4765625,1.611328125-1.2890625,0-.8120117188-.5048828125-1.2885742188-1.611328125-1.2885742188h-2.451171875v2.5776367188h2.451171875Z"/><path d="m10.052734375,128.4291992188h1.7783203125v1.1206054688c.4208984375-.7705078125,1.12109375-1.2885742188,2.0732421875-1.2885742188h.2099609375v1.6948242188c-1.064453125.0141601562-1.9326171875.322265625-2.283203125,1.4008789062v4.2861328125h-1.7783203125v-7.2138671875Z"/><path d="m14.94921875,128.4291992188h1.7783203125v1.0083007812c.392578125-.6440429688,1.1630859375-1.1762695312,2.283203125-1.1762695312,1.876953125,0,2.74609375,1.2885742188,2.74609375,3.1376953125v4.244140625h-1.779296875v-4.0483398438c0-1.1484375-.5458984375-1.7509765625-1.5966796875-1.7509765625-.8828125,0-1.470703125.6025390625-1.6533203125,1.2607421875v4.5385742188h-1.7783203125v-7.2138671875Z"/><path d="m22.873046875,132.04296875c0-1.9750976562,1.31640625-3.7817382812,3.8232421875-3.7817382812,2.5078125,0,3.82421875,1.806640625,3.82421875,3.7817382812,0,1.9892578125-1.31640625,3.7963867188-3.82421875,3.7963867188-2.5068359375,0-3.8232421875-1.8071289062-3.8232421875-3.7963867188Zm1.806640625,0c0,1.3447265625.8544921875,2.2133789062,2.0166015625,2.2133789062,1.1630859375,0,2.017578125-.8686523438,2.017578125-2.2133789062,0-1.3305664062-.8544921875-2.19921875-2.017578125-2.19921875-1.162109375,0-2.0166015625.8686523438-2.0166015625,2.19921875Z"/><path d="m32.3916015625,136.2734375h-.98046875v-2.1430664062h2.1572265625v1.8911132812l-.966796875,2.3251953125h-1.0498046875l.83984375-2.0732421875Z"/><path d="m37.66796875,130.8803710938c0-2.8432617188,2.03125-4.9584960938,4.8466796875-4.9584960938,1.974609375,0,3.4462890625.9243164062,4.2724609375,2.3393554688l-1.359375,1.0083007812c-.6015625-1.0083007812-1.484375-1.6528320312-2.87109375-1.6528320312-1.8486328125,0-3.01171875,1.4150390625-3.01171875,3.263671875,0,1.8491210938,1.1630859375,3.263671875,3.01171875,3.263671875,1.38671875,0,2.26953125-.6440429688,2.87109375-1.6528320312l1.359375,1.0087890625c-.826171875,1.4145507812-2.2978515625,2.3393554688-4.2724609375,2.3393554688-2.8154296875,0-4.8466796875-2.115234375-4.8466796875-4.958984375Z"/><path d="m47.279296875,134.3681640625l3.740234375-4.5102539062h-3.48828125v-1.4287109375h5.7578125v1.2744140625l-3.7119140625,4.5107421875h3.7958984375v1.4287109375h-6.09375v-1.2749023438Z"/><path d="m53.9990234375,132.0571289062c0-2.2553710938,1.5263671875-3.7958984375,3.6279296875-3.7958984375s3.4736328125,1.4565429688,3.4736328125,3.5297851562c0,.23828125-.0419921875.57421875-.083984375.8686523438h-5.224609375c.181640625.9663085938.8544921875,1.6245117188,2.1015625,1.6245117188.8818359375,0,1.6240234375-.490234375,2.044921875-1.064453125l.98046875,1.1625976562c-.6728515625.8125-1.7373046875,1.4428710938-3.109375,1.4428710938-2.33984375,0-3.810546875-1.6669921875-3.810546875-3.7680664062Zm1.8212890625-.8544921875h3.515625c-.09765625-.9384765625-.7421875-1.470703125-1.708984375-1.470703125-.9248046875,0-1.568359375.5180664062-1.806640625,1.470703125Z"/><path d="m61.90625,132.04296875c0-1.9750976562,1.3583984375-3.7817382812,3.75390625-3.7817382812,1.45703125,0,2.5068359375.6723632812,3.2080078125,1.79296875l-1.2607421875.9663085938c-.392578125-.6865234375-.9951171875-1.1767578125-1.849609375-1.1767578125-1.232421875,0-2.044921875.8544921875-2.044921875,2.19921875,0,1.3310546875.8125,2.185546875,2.044921875,2.185546875.8544921875,0,1.45703125-.4907226562,1.849609375-1.1767578125l1.2607421875.9663085938c-.701171875,1.1206054688-1.7509765625,1.79296875-3.2080078125,1.79296875-2.3955078125,0-3.75390625-1.806640625-3.75390625-3.7680664062Z"/><path d="m69.880859375,125.6977539062h1.7783203125v3.7397460938c.392578125-.6440429688,1.1630859375-1.1762695312,2.283203125-1.1762695312,1.876953125,0,2.74609375,1.2885742188,2.74609375,3.1376953125v4.244140625h-1.779296875v-4.0483398438c0-1.1484375-.5458984375-1.7509765625-1.5966796875-1.7509765625-.953125,0-1.4990234375.7006835938-1.6533203125,1.2607421875v4.5385742188h-1.7783203125v-9.9453125Z"/><path d="m77.8037109375,132.04296875c0-1.9750976562,1.31640625-3.7817382812,3.82421875-3.7817382812,2.5068359375,0,3.8232421875,1.806640625,3.8232421875,3.7817382812,0,1.9892578125-1.31640625,3.7963867188-3.8232421875,3.7963867188-2.5078125,0-3.82421875-1.8071289062-3.82421875-3.7963867188Zm1.806640625,0c0,1.3447265625.8544921875,2.2133789062,2.017578125,2.2133789062,1.162109375,0,2.0166015625-.8686523438,2.0166015625-2.2133789062,0-1.3305664062-.8544921875-2.19921875-2.0166015625-2.19921875-1.1630859375,0-2.017578125.8686523438-2.017578125,2.19921875Z"/><path d="m85.9033203125,134.4243164062l.966796875-1.1206054688c.4765625.5883789062,1.2890625,1.0786132812,2.1435546875,1.0786132812.7705078125,0,1.31640625-.3081054688,1.31640625-.8403320312,0-.4760742188-.4345703125-.6723632812-1.1201171875-.7846679688l-.64453125-.09765625c-1.3447265625-.2241210938-2.1572265625-.966796875-2.1572265625-2.1435546875,0-1.2465820312,1.064453125-2.2548828125,2.87109375-2.2548828125,1.134765625,0,2.0029296875.4760742188,2.5361328125,1.0922851562l-.9384765625,1.134765625c-.462890625-.490234375-1.0087890625-.7705078125-1.6669921875-.7705078125-.6728515625,0-1.0224609375.3081054688-1.0224609375.7006835938,0,.3637695312.279296875.5600585938.7978515625.6440429688l.64453125.0981445312c1.65234375.251953125,2.4794921875,1.0224609375,2.4794921875,2.283203125,0,1.302734375-1.134765625,2.3955078125-3.166015625,2.3955078125-1.3447265625,0-2.380859375-.6303710938-3.0400390625-1.4150390625Z"/><path d="m93.2685546875,125.6977539062h1.7783203125v9.9453125h-1.7783203125v-9.9453125Z"/><path d="m96.2421875,132.04296875c0-1.9750976562,1.31640625-3.7817382812,3.8232421875-3.7817382812,2.5078125,0,3.82421875,1.806640625,3.82421875,3.7817382812,0,1.9892578125-1.31640625,3.7963867188-3.82421875,3.7963867188-2.5068359375,0-3.8232421875-1.8071289062-3.8232421875-3.7963867188Zm1.806640625,0c0,1.3447265625.8544921875,2.2133789062,2.0166015625,2.2133789062,1.1630859375,0,2.017578125-.8686523438,2.017578125-2.2133789062,0-1.3305664062-.8544921875-2.19921875-2.017578125-2.19921875-1.162109375,0-2.0166015625.8686523438-2.0166015625,2.19921875Z"/><path d="m103.97265625,128.4291992188h1.9052734375l1.9189453125,5.0146484375,1.9189453125-5.0146484375h1.9052734375l-2.94140625,7.2138671875h-1.779296875l-2.927734375-7.2138671875Z"/><path d="m117.4560546875,134.81640625c-.5322265625.6025390625-1.3173828125.9946289062-2.255859375.9946289062-2.0029296875,0-3.4736328125-1.4848632812-3.4736328125-3.7680664062s1.470703125-3.7817382812,3.4736328125-3.7817382812c.9384765625,0,1.7236328125.40625,2.255859375,1.0083007812v-.8403320312h1.7783203125v7.2138671875h-1.7783203125v-.8266601562Zm0-1.6665039062v-2.2133789062c-.322265625-.6865234375-1.0654296875-1.0927734375-1.86328125-1.0927734375-1.1630859375,0-2.0595703125.798828125-2.0595703125,2.19921875,0,1.38671875.896484375,2.185546875,2.0595703125,2.185546875.7978515625,0,1.541015625-.40625,1.86328125-1.0786132812Z"/><path d="m120.8369140625,125.6977539062h1.7783203125v5.798828125l2.7880859375-3.0673828125h2.03125v.0561523438l-2.74609375,3.025390625,3.0537109375,4.0903320312v.0419921875h-2.1005859375l-2.0732421875-2.8994140625-.953125,1.0502929688v1.8491210938h-1.7783203125v-9.9453125Z"/><path d="m128.4013671875,125.361328125h1.8212890625v1.8491210938h-1.8212890625v-1.8491210938Zm.0283203125,3.0678710938h1.7783203125v7.2138671875h-1.7783203125v-7.2138671875Z"/><path d="m137.1298828125,134.81640625c-.5322265625.6025390625-1.3173828125.9946289062-2.255859375.9946289062-2.0029296875,0-3.4736328125-1.4848632812-3.4736328125-3.7680664062s1.470703125-3.7817382812,3.4736328125-3.7817382812c.9384765625,0,1.7236328125.40625,2.255859375,1.0083007812v-.8403320312h1.7783203125v7.2138671875h-1.7783203125v-.8266601562Zm0-1.6665039062v-2.2133789062c-.322265625-.6865234375-1.0654296875-1.0927734375-1.86328125-1.0927734375-1.1630859375,0-2.0595703125.798828125-2.0595703125,2.19921875,0,1.38671875.896484375,2.185546875,2.0595703125,2.185546875.7978515625,0,1.541015625-.40625,1.86328125-1.0786132812Z"/><rect class="cls-1" y="0" width="318.1005859375" height="138.3466796875"/></g></svg>