<?xml version="1.0" encoding="UTF-8"?><svg id="_레이어_2" xmlns="http://www.w3.org/2000/svg" viewBox="0 0 318.1005859375 138.3466796875"><defs><style>.cls-1{fill:none;}</style></defs><g id="Layer_1"><path d="m2.0498046875,4.12109375h2.5400390625v1.9404296875c0,.7202148438,0,1.2802734375.1201171875,1.7602539062h1.6806640625c.080078125-.4799804688.099609375-1.0400390625.099609375-1.7602539062v-1.9404296875h2.541015625v1.5405273438c0,1.0400390625-.240234375,1.6801757812-.580078125,2.16015625,1.3994140625-.0200195312,2.599609375-.1596679688,3.5400390625-.6201171875V0h2.560546875v12.9428710938h-2.560546875v-3.9809570312c-1.259765625.7802734375-2.98046875,1.0004882812-4.8603515625,1.0004882812H.6689453125v-2.140625h1.9609375c-.3408203125-.4599609375-.580078125-1.1201171875-.580078125-2.16015625v-1.5405273438ZM.96875,1.0805664062h9.142578125v2.1801757812H.96875V1.0805664062Zm2.78125,10.322265625h2.560546875v3.7807617188h8.681640625v2.1801757812H4.7099609375c-.6005859375,0-.9599609375-.2397460938-.9599609375-.8198242188v-5.1411132812Z"/><path d="m21.6875,7.1616210938h15.84375v1.98046875h-4.041015625v1.3403320312h1.720703125v4.6411132812h-8.6416015625v1.0600585938h9.08203125v1.900390625h-10.6826171875c-.6005859375,0-.9599609375-.259765625-.9599609375-.8203125v-3.9204101562h8.6416015625v-1.0004882812h-8.6416015625v-1.8603515625h1.7197265625v-1.3403320312h-4.041015625v-1.98046875ZM29.609375.2001953125c3.44140625,0,5.4619140625,1.0205078125,5.4619140625,3.1806640625,0,2.140625-2.0205078125,3.1206054688-5.4619140625,3.1206054688-3.4404296875,0-5.4609375-.9799804688-5.4609375-3.1206054688,0-2.16015625,2.0205078125-3.1806640625,5.4609375-3.1806640625Zm0,4.2607421875c1.8603515625,0,2.9013671875-.2998046875,2.9013671875-1.080078125,0-.8002929688-1.041015625-1.080078125-2.9013671875-1.080078125s-2.900390625.2797851562-2.900390625,1.080078125c0,.7802734375,1.0400390625,1.080078125,2.900390625,1.080078125Zm-1.3603515625,4.6811523438v1.3403320312h2.720703125v-1.3403320312h-2.720703125Z"/><path d="m.5458984375,24.3984375h6.5556640625v1.5971679688H2.3671875v2.3813476562h4.2021484375v1.5966796875H2.3671875v3.9501953125H.5458984375v-9.525390625Z"/><path d="m8.078125,23.6420898438h1.8212890625v1.8491210938h-1.8212890625v-1.8491210938Zm.0283203125,3.0678710938h1.7783203125v7.2138671875h-1.7783203125v-7.2138671875Z"/><path d="m11.46875,26.7099609375h1.7783203125v1.0083007812c.392578125-.6440429688,1.1630859375-1.1762695312,2.283203125-1.1762695312,1.876953125,0,2.74609375,1.2885742188,2.74609375,3.1376953125v4.244140625h-1.779296875v-4.0483398438c0-1.1484375-.5458984375-1.7509765625-1.5966796875-1.7509765625-.8828125,0-1.470703125.6025390625-1.6533203125,1.2607421875v4.5385742188h-1.7783203125v-7.2138671875Z"/><path d="m19.8046875,26.7099609375h1.7783203125v1.0083007812c.392578125-.6440429688,1.1630859375-1.1762695312,2.283203125-1.1762695312,1.876953125,0,2.74609375,1.2885742188,2.74609375,3.1376953125v4.244140625h-1.779296875v-4.0483398438c0-1.1484375-.5458984375-1.7509765625-1.5966796875-1.7509765625-.8828125,0-1.470703125.6025390625-1.6533203125,1.2607421875v4.5385742188h-1.7783203125v-7.2138671875Z"/><path d="m30.21875,32.28515625l1.3447265625-1.0229492188c.3642578125.6166992188.8681640625,1.1625976562,1.708984375,1.1625976562,1.302734375,0,1.79296875-.826171875,1.79296875-2.1708984375v-5.85546875h1.8203125v5.9116210938c0,2.2412109375-1.1484375,3.8100585938-3.5712890625,3.8100585938-1.5126953125,0-2.5634765625-.8408203125-3.095703125-1.8349609375Z"/><path d="m45.314453125,33.923828125h-1.779296875v-1.0087890625c-.392578125.64453125-1.1630859375,1.1767578125-2.283203125,1.1767578125-1.876953125,0-2.7451171875-1.2885742188-2.7451171875-3.1376953125v-4.244140625h1.7783203125v4.0483398438c0,1.1484375.546875,1.7509765625,1.5966796875,1.7509765625.8828125,0,1.470703125-.6025390625,1.6533203125-1.2607421875v-4.5385742188h1.779296875v7.2138671875Z"/><path d="m46.90234375,23.978515625h1.7783203125v3.7397460938c.392578125-.6440429688,1.1630859375-1.1762695312,2.283203125-1.1762695312,1.876953125,0,2.74609375,1.2885742188,2.74609375,3.1376953125v4.244140625h-1.779296875v-4.0483398438c0-1.1484375-.5458984375-1.7509765625-1.5966796875-1.7509765625-.953125,0-1.4990234375.7006835938-1.6533203125,1.2607421875v4.5385742188h-1.7783203125v-9.9453125Z"/><path d="m55.2421875,23.978515625h1.7783203125v9.9453125h-1.7783203125v-9.9453125Z"/><path d="m2.0498046875,65.0405273438h2.5400390625v1.9404296875c0,.7202148438,0,1.2802734375.1201171875,1.7602539062h1.6806640625c.080078125-.4799804688.099609375-1.0400390625.099609375-1.7602539062v-1.9404296875h2.541015625v1.5405273438c0,1.0400390625-.240234375,1.6801757812-.580078125,2.16015625,1.3994140625-.0200195312,2.599609375-.1596679688,3.5400390625-.6201171875v-7.2016601562h2.560546875v12.9428710938h-2.560546875v-3.9809570312c-1.259765625.7802734375-2.98046875,1.0004882812-4.8603515625,1.0004882812H.6689453125v-2.140625h1.9609375c-.3408203125-.4599609375-.580078125-1.1201171875-.580078125-2.16015625v-1.5405273438Zm-1.0810546875-3.0405273438h9.142578125v2.1801757812H.96875v-2.1801757812Zm2.78125,10.322265625h2.560546875v3.7807617188h8.681640625v2.1801757812H4.7099609375c-.6005859375,0-.9599609375-.2397460938-.9599609375-.8198242188v-5.1411132812Z"/><path d="m21.6875,68.0810546875h15.84375v1.98046875h-4.041015625v1.3403320312h1.720703125v4.6411132812h-8.6416015625v1.0600585938h9.08203125v1.900390625h-10.6826171875c-.6005859375,0-.9599609375-.259765625-.9599609375-.8203125v-3.9204101562h8.6416015625v-1.0004882812h-8.6416015625v-1.8603515625h1.7197265625v-1.3403320312h-4.041015625v-1.98046875Zm7.921875-6.9614257812c3.44140625,0,5.4619140625,1.0205078125,5.4619140625,3.1806640625,0,2.140625-2.0205078125,3.1206054688-5.4619140625,3.1206054688-3.4404296875,0-5.4609375-.9799804688-5.4609375-3.1206054688,0-2.16015625,2.0205078125-3.1806640625,5.4609375-3.1806640625Zm0,4.2607421875c1.8603515625,0,2.9013671875-.2998046875,2.9013671875-1.080078125,0-.8002929688-1.041015625-1.080078125-2.9013671875-1.080078125s-2.900390625.2797851562-2.900390625,1.080078125c0,.7802734375,1.0400390625,1.080078125,2.900390625,1.080078125Zm-1.3603515625,4.6811523438v1.3403320312h2.720703125v-1.3403320312h-2.720703125Z"/><path d="m42.927734375,65.400390625h10.3427734375v2.140625h-1.9404296875c.6796875.6000976562,1.099609375,1.48046875,1.099609375,2.560546875,0,2.4604492188-1.759765625,4.12109375-4.3203125,4.12109375s-4.361328125-1.6606445312-4.361328125-4.12109375c0-1.080078125.419921875-1.9604492188,1.1005859375-2.560546875h-1.9208984375v-2.140625Zm2.2607421875-3.4204101562h5.8212890625v2.1801757812h-5.8212890625v-2.1801757812Zm1.0400390625,8.1215820312c0,1.240234375.7998046875,2.0205078125,1.880859375,2.0205078125,1.080078125,0,1.8603515625-.7802734375,1.8603515625-2.0205078125s-.7802734375-2.0405273438-1.8603515625-2.0405273438c-1.0810546875,0-1.880859375.8002929688-1.880859375,2.0405273438Zm8.26171875-9.1821289062h2.560546875v6.1416015625h2.3408203125v2.2202148438h-2.3408203125v8.921875h-2.560546875v-17.2836914062Z"/><path d="m59.9072265625,70.8618164062h15.84375v2.2202148438h-6.6416015625v5.201171875h-2.560546875v-5.201171875h-6.6416015625v-2.2202148438Zm7.921875-9.58203125c3.1611328125,0,5.76171875,1.3603515625,5.76171875,4.140625,0,2.7807617188-2.6005859375,4.1010742188-5.76171875,4.1010742188-3.16015625,0-5.7607421875-1.3203125-5.7607421875-4.1010742188,0-2.7802734375,2.6005859375-4.140625,5.7607421875-4.140625Zm0,6.0610351562c1.6806640625,0,3.201171875-.5,3.201171875-1.9204101562,0-1.4399414062-1.5205078125-1.9599609375-3.201171875-1.9599609375-1.6796875,0-3.2001953125.5200195312-3.2001953125,1.9599609375,0,1.4204101562,1.5205078125,1.9204101562,3.2001953125,1.9204101562Z"/><path d="m76.806640625,73.8823242188h15.84375v2.220703125h-15.84375v-2.220703125Zm6.6220703125-11.9223632812h2.6005859375v1.2202148438c0,3.5405273438,2.560546875,5.1411132812,5.5009765625,6.0810546875l-.9599609375,2.0805664062c-2.48046875-.6201171875-5.041015625-2.3203125-5.841796875-4.2607421875-.759765625,1.9404296875-3.3203125,3.6806640625-5.8212890625,4.3408203125l-.9599609375-2.0805664062c2.900390625-.919921875,5.4814453125-2.6206054688,5.4814453125-6.1411132812v-1.240234375Z"/><path d="m.1884765625,97.9223632812h6.6416015625v-2.7407226562c-2.7802734375-.3598632812-4.5810546875-2.0400390625-4.5810546875-4.640625,0-2.9409179688,2.3212890625-4.7412109375,5.861328125-4.7412109375,3.541015625,0,5.861328125,1.8002929688,5.861328125,4.7412109375,0,2.6005859375-1.7998046875,4.2807617188-4.5810546875,4.640625v2.7407226562h6.6416015625v2.220703125H.1884765625v-2.220703125Zm7.921875-4.8208007812c1.9609375,0,3.30078125-.9404296875,3.30078125-2.560546875,0-1.6206054688-1.33984375-2.560546875-3.30078125-2.560546875-1.9599609375,0-3.30078125.9399414062-3.30078125,2.560546875,0,1.6201171875,1.3408203125,2.560546875,3.30078125,2.560546875Z"/><path d="m17.361328125,98.0825195312h15.84375v2.2202148438h-15.84375v-2.2202148438Zm2.28125-11.8627929688h11.2822265625v5.7211914062h-8.7421875v1.6206054688h9.0224609375v2.1206054688h-10.6025390625c-.6005859375,0-.9599609375-.2602539062-.9599609375-.8203125v-4.9409179688h8.7412109375v-1.5805664062h-8.7412109375v-2.1206054688Z"/><path d="m34.53515625,97.8823242188h15.84375v2.220703125h-15.84375v-2.220703125Zm2.28125-11.5825195312h11.2822265625v2.220703125h-8.7216796875v4.0209960938h8.921875v2.2202148438h-10.5224609375c-.6005859375,0-.9599609375-.2602539062-.9599609375-.8203125v-7.6416015625Z"/><path d="m50.7041015625,93.5415039062h15.84375v1.98046875h-6.6416015625v1.5004882812h-2.560546875v-1.5004882812h-6.6416015625v-1.98046875Zm2.3212890625,2.9604492188h2.560546875v1.1806640625h6.0810546875v-1.1806640625h2.560546875v6.1416015625h-10.2421875c-.6005859375,0-.9599609375-.2602539062-.9599609375-.8203125v-5.3212890625Zm.1201171875-10.9819335938h10.9619140625v4.380859375h-8.4013671875v.83984375h8.7216796875v1.80078125h-10.322265625c-.6005859375,0-.9599609375-.240234375-.9599609375-.8002929688v-3.5610351562h8.4013671875v-.7998046875h-8.4013671875v-1.8603515625Zm2.4404296875,14.1025390625v1.0405273438h6.0810546875v-1.0405273438h-6.0810546875Z"/><path d="m68.736328125,100.8432617188h-1.400390625v-3.0610351562h3.080078125v2.7006835938l-1.3798828125,3.3208007812h-1.5l1.2001953125-2.9604492188Z"/><path d="m76.8359375,85.9799804688h6.521484375v2.1201171875h-4.0615234375v5.021484375h1.2001953125c1.220703125,0,2.220703125-.1000976562,3.12109375-.4604492188l.4599609375,1.640625c-1.1806640625.740234375-2.7001953125.9399414062-4.6005859375.9399414062h-1.6611328125c-.6201171875,0-.9794921875-.259765625-.9794921875-.8198242188v-8.4418945312Zm3.2001953125,10.4223632812h2.560546875v3.720703125h9.08203125v2.1801757812h-10.6826171875c-.599609375,0-.9599609375-.259765625-.9599609375-.8198242188v-5.0810546875Zm5.041015625-11.2827148438h2.4208984375v12.0224609375h-2.4208984375v-5.62109375h-2.720703125v-2.0405273438h2.720703125v-4.3608398438Zm3.8212890625-.2001953125h2.4404296875v12.5229492188h-2.4404296875v-12.5229492188Z"/><path d="m93.8291015625,86.5200195312h8.361328125v11.1826171875h-7.4013671875c-.599609375,0-.9599609375-.240234375-.9599609375-.8002929688v-10.3823242188Zm2.5,2.1806640625v6.8212890625h3.4013671875v-6.8212890625h-3.4013671875Zm8.1025390625-3.78125h2.560546875v5.861328125h2.3603515625v2.220703125h-2.3603515625v9.2016601562h-2.560546875v-17.2836914062Z"/><path d="m111.732421875,86.33984375h11.302734375v3.0805664062c0,3.8208007812-.2998046875,6.181640625-1.4404296875,8.421875h3.720703125v2.220703125h-15.84375v-2.220703125h9.962890625c.580078125-1.6000976562.83984375-3.220703125.939453125-4.9008789062-.6396484375.6401367188-1.9404296875.9204101562-3.720703125.9204101562h-5.140625v-2.0805664062h6.0009765625c1.16015625,0,2.240234375-.080078125,2.9404296875-.3603515625.0205078125-.3999023438.0205078125-.8198242188.0205078125-1.2602539062v-1.6401367188h-8.7421875v-2.1806640625Z"/><path d="m128.7685546875,100.8432617188h-1.400390625v-3.0610351562h3.080078125v2.7006835938l-1.3798828125,3.3208007812h-1.5l1.2001953125-2.9604492188Z"/><path d="m139.228515625,89.2407226562l-2.48046875,1.3603515625-.9404296875-1.98046875,4.060546875-2.2807617188h1.900390625v13.6030273438h-2.5400390625v-10.7021484375Z"/><path d="m154.9541015625,92.8012695312c0,4.6411132812-2.4208984375,7.421875-6.2412109375,7.421875-2.1806640625,0-3.7607421875-1.060546875-4.62109375-2.3408203125l1.740234375-1.5600585938c.580078125.8999023438,1.6201171875,1.5400390625,2.880859375,1.5400390625,1.900390625,0,3.3203125-1.2802734375,3.580078125-3.7407226562-.8193359375.900390625-1.9599609375,1.5405273438-3.5205078125,1.5405273438-2.560546875,0-4.7607421875-1.8803710938-4.7607421875-4.7412109375,0-2.8603515625,2.3798828125-4.8608398438,5.28125-4.8608398438,3.720703125,0,5.6611328125,2.8403320312,5.6611328125,6.7412109375Zm-8.322265625-1.9404296875c0,1.3403320312,1.0009765625,2.4604492188,2.6611328125,2.4604492188,1.6396484375,0,2.640625-1.1201171875,2.640625-2.4604492188,0-1.3203125-1.0009765625-2.4404296875-2.640625-2.4404296875-1.66015625,0-2.6611328125,1.1201171875-2.6611328125,2.4404296875Z"/><path d="m156.107421875,94.681640625l6.2412109375-8.341796875h3.30078125v7.9418945312h2.2607421875v2.2602539062h-2.2607421875v3.4008789062h-2.5205078125v-3.4008789062h-7.021484375v-1.8603515625Zm7.021484375-.3999023438v-5.28125l-3.8603515625,5.28125h3.8603515625Z"/><path d="m171.1181640625,89.2407226562l-2.48046875,1.3603515625-.9404296875-1.98046875,4.060546875-2.2807617188h1.900390625v13.6030273438h-2.5400390625v-10.7021484375Z"/><path d="m.5458984375,109.3178710938h6.5556640625v1.5971679688H2.3671875v2.3813476562h4.2021484375v1.5966796875H2.3671875v3.9501953125H.5458984375v-9.525390625Z"/><path d="m8.078125,108.5615234375h1.8212890625v1.8491210938h-1.8212890625v-1.8491210938Zm.0283203125,3.0678710938h1.7783203125v7.2138671875h-1.7783203125v-7.2138671875Z"/><path d="m11.46875,111.6293945312h1.7783203125v1.0083007812c.392578125-.6440429688,1.1630859375-1.1762695312,2.283203125-1.1762695312,1.876953125,0,2.74609375,1.2885742188,2.74609375,3.1376953125v4.244140625h-1.779296875v-4.0483398438c0-1.1484375-.5458984375-1.7509765625-1.5966796875-1.7509765625-.8828125,0-1.470703125.6025390625-1.6533203125,1.2607421875v4.5385742188h-1.7783203125v-7.2138671875Z"/><path d="m19.8046875,111.6293945312h1.7783203125v1.0083007812c.392578125-.6440429688,1.1630859375-1.1762695312,2.283203125-1.1762695312,1.876953125,0,2.74609375,1.2885742188,2.74609375,3.1376953125v4.244140625h-1.779296875v-4.0483398438c0-1.1484375-.5458984375-1.7509765625-1.5966796875-1.7509765625-.8828125,0-1.470703125.6025390625-1.6533203125,1.2607421875v4.5385742188h-1.7783203125v-7.2138671875Z"/><path d="m30.21875,117.2045898438l1.3447265625-1.0229492188c.3642578125.6166992188.8681640625,1.1625976562,1.708984375,1.1625976562,1.302734375,0,1.79296875-.826171875,1.79296875-2.1708984375v-5.85546875h1.8203125v5.9116210938c0,2.2412109375-1.1484375,3.8100585938-3.5712890625,3.8100585938-1.5126953125,0-2.5634765625-.8408203125-3.095703125-1.8349609375Z"/><path d="m45.314453125,118.8432617188h-1.779296875v-1.0087890625c-.392578125.64453125-1.1630859375,1.1767578125-2.283203125,1.1767578125-1.876953125,0-2.7451171875-1.2885742188-2.7451171875-3.1376953125v-4.244140625h1.7783203125v4.0483398438c0,1.1484375.546875,1.7509765625,1.5966796875,1.7509765625.8828125,0,1.470703125-.6025390625,1.6533203125-1.2607421875v-4.5385742188h1.779296875v7.2138671875Z"/><path d="m46.90234375,108.8979492188h1.7783203125v3.7397460938c.392578125-.6440429688,1.1630859375-1.1762695312,2.283203125-1.1762695312,1.876953125,0,2.74609375,1.2885742188,2.74609375,3.1376953125v4.244140625h-1.779296875v-4.0483398438c0-1.1484375-.5458984375-1.7509765625-1.5966796875-1.7509765625-.953125,0-1.4990234375.7006835938-1.6533203125,1.2607421875v4.5385742188h-1.7783203125v-9.9453125Z"/><path d="m55.2421875,108.8979492188h1.7783203125v9.9453125h-1.7783203125v-9.9453125Z"/><path d="m61.7783203125,109.3178710938h1.8212890625v3.9223632812h4.720703125v-3.9223632812h1.8212890625v9.525390625h-1.8212890625v-4.0200195312h-4.720703125v4.0200195312h-1.8212890625v-9.525390625Z"/><path d="m71.5244140625,115.2431640625c0-1.9750976562,1.31640625-3.7817382812,3.82421875-3.7817382812,2.5068359375,0,3.8232421875,1.806640625,3.8232421875,3.7817382812,0,1.9892578125-1.31640625,3.7963867188-3.8232421875,3.7963867188-2.5078125,0-3.82421875-1.8071289062-3.82421875-3.7963867188Zm1.806640625,0c0,1.3447265625.8544921875,2.2133789062,2.017578125,2.2133789062,1.162109375,0,2.0166015625-.8686523438,2.0166015625-2.2133789062,0-1.3305664062-.8544921875-2.19921875-2.0166015625-2.19921875-1.1630859375,0-2.017578125.8686523438-2.017578125,2.19921875Z"/><path d="m87.076171875,118.8432617188h-1.779296875v-1.0087890625c-.392578125.64453125-1.1630859375,1.1767578125-2.283203125,1.1767578125-1.876953125,0-2.7451171875-1.2885742188-2.7451171875-3.1376953125v-4.244140625h1.7783203125v4.0483398438c0,1.1484375.546875,1.7509765625,1.5966796875,1.7509765625.8828125,0,1.470703125-.6025390625,1.6533203125-1.2607421875v-4.5385742188h1.779296875v7.2138671875Z"/><path d="m88.0146484375,117.6245117188l.966796875-1.1206054688c.4765625.5883789062,1.2890625,1.0786132812,2.1435546875,1.0786132812.7705078125,0,1.31640625-.3081054688,1.31640625-.8403320312,0-.4760742188-.4345703125-.6723632812-1.1201171875-.7846679688l-.64453125-.09765625c-1.3447265625-.2241210938-2.1572265625-.966796875-2.1572265625-2.1435546875,0-1.2465820312,1.064453125-2.2548828125,2.87109375-2.2548828125,1.134765625,0,2.0029296875.4760742188,2.5361328125,1.0922851562l-.9384765625,1.134765625c-.462890625-.490234375-1.0087890625-.7705078125-1.6669921875-.7705078125-.6728515625,0-1.0224609375.3081054688-1.0224609375.7006835938,0,.3637695312.279296875.5600585938.7978515625.6440429688l.64453125.0981445312c1.65234375.251953125,2.4794921875,1.0224609375,2.4794921875,2.283203125,0,1.302734375-1.134765625,2.3955078125-3.166015625,2.3955078125-1.3447265625,0-2.380859375-.6303710938-3.0400390625-1.4150390625Z"/><path d="m94.943359375,115.2573242188c0-2.2553710938,1.5263671875-3.7958984375,3.6279296875-3.7958984375s3.4736328125,1.4565429688,3.4736328125,3.5297851562c0,.23828125-.0419921875.57421875-.083984375.8686523438h-5.224609375c.181640625.9663085938.8544921875,1.6245117188,2.1015625,1.6245117188.8818359375,0,1.6240234375-.490234375,2.044921875-1.064453125l.98046875,1.1625976562c-.6728515625.8125-1.7373046875,1.4428710938-3.1103515625,1.4428710938-2.3388671875,0-3.8095703125-1.6669921875-3.8095703125-3.7680664062Zm1.8212890625-.8544921875h3.515625c-.09765625-.9384765625-.7421875-1.470703125-1.708984375-1.470703125-.9248046875,0-1.568359375.5180664062-1.806640625,1.470703125Z"/><path d="m0,130.8803710938c0-2.8432617188,2.03125-4.9584960938,4.8466796875-4.9584960938s4.8466796875,2.115234375,4.8466796875,4.9584960938c0,2.84375-2.03125,4.958984375-4.8466796875,4.958984375s-4.8466796875-2.115234375-4.8466796875-4.958984375Zm1.876953125,0c0,1.8491210938,1.134765625,3.263671875,2.9697265625,3.263671875s2.9697265625-1.4145507812,2.9697265625-3.263671875c0-1.8486328125-1.134765625-3.263671875-2.9697265625-3.263671875s-2.9697265625,1.4150390625-2.9697265625,3.263671875Z"/><path d="m11.037109375,128.4291992188h1.7783203125v1.1206054688c.4208984375-.7705078125,1.12109375-1.2885742188,2.0732421875-1.2885742188h.2099609375v1.6948242188c-1.064453125.0141601562-1.9326171875.322265625-2.283203125,1.4008789062v4.2861328125h-1.7783203125v-7.2138671875Z"/><path d="m21.2861328125,134.81640625c-.5322265625.6025390625-1.3173828125.9946289062-2.255859375.9946289062-2.0029296875,0-3.4736328125-1.4848632812-3.4736328125-3.7680664062s1.470703125-3.7817382812,3.4736328125-3.7817382812c.9384765625,0,1.7236328125.40625,2.255859375,1.0083007812v-3.5717773438h1.7783203125v9.9453125h-1.7783203125v-.8266601562Zm0-1.6665039062v-2.2133789062c-.322265625-.6865234375-1.0654296875-1.0927734375-1.86328125-1.0927734375-1.1630859375,0-2.0595703125.798828125-2.0595703125,2.19921875,0,1.38671875.896484375,2.185546875,2.0595703125,2.185546875.7978515625,0,1.541015625-.40625,1.86328125-1.0786132812Z"/><path d="m24.6669921875,128.4291992188h1.7783203125v1.1206054688c.4208984375-.7705078125,1.12109375-1.2885742188,2.0732421875-1.2885742188h.2099609375v1.6948242188c-1.064453125.0141601562-1.9326171875.322265625-2.283203125,1.4008789062v4.2861328125h-1.7783203125v-7.2138671875Z"/><path d="m36.3291015625,135.6430664062h-1.779296875v-1.0087890625c-.392578125.64453125-1.1630859375,1.1767578125-2.283203125,1.1767578125-1.876953125,0-2.7451171875-1.2885742188-2.7451171875-3.1376953125v-4.244140625h1.7783203125v4.0483398438c0,1.1484375.546875,1.7509765625,1.5966796875,1.7509765625.8828125,0,1.4716796875-.6025390625,1.6533203125-1.2607421875v-4.5385742188h1.779296875v7.2138671875Z"/><path d="m37.9169921875,128.4291992188h1.7783203125v.8544921875c.5185546875-.6025390625,1.3173828125-1.0224609375,2.26953125-1.0224609375,1.9892578125,0,3.4599609375,1.4985351562,3.4599609375,3.7817382812s-1.470703125,3.7680664062-3.4599609375,3.7680664062c-.9521484375,0-1.7509765625-.40625-2.26953125-1.0083007812v3.263671875h-1.7783203125v-9.6372070312Zm5.701171875,3.6137695312c0-1.400390625-.896484375-2.19921875-2.0595703125-2.19921875-.798828125,0-1.541015625.40625-1.86328125,1.0927734375v2.2133789062c.322265625.6723632812,1.064453125,1.0786132812,1.86328125,1.0786132812,1.1630859375,0,2.0595703125-.798828125,2.0595703125-2.185546875Z"/><path d="m47.265625,136.2734375h-.98046875v-2.1430664062h2.1572265625v1.8911132812l-.966796875,2.3251953125h-1.0498046875l.83984375-2.0732421875Z"/><path d="m53.0888671875,126.1176757812h3.8525390625c2.7451171875,0,4.734375,1.6811523438,4.734375,4.7626953125,0,3.08203125-1.9892578125,4.7626953125-4.734375,4.7626953125h-3.8525390625v-9.525390625Zm1.8212890625,1.5830078125v6.359375h1.93359375c1.806640625,0,2.955078125-1.1064453125,2.955078125-3.1796875s-1.1484375-3.1796875-2.955078125-3.1796875h-1.93359375Z"/><path d="m62.6044921875,132.0571289062c0-2.2553710938,1.5263671875-3.7958984375,3.6279296875-3.7958984375s3.4736328125,1.4565429688,3.4736328125,3.5297851562c0,.23828125-.0419921875.57421875-.083984375.8686523438h-5.224609375c.181640625.9663085938.8544921875,1.6245117188,2.1015625,1.6245117188.8818359375,0,1.6240234375-.490234375,2.044921875-1.064453125l.98046875,1.1625976562c-.6728515625.8125-1.7373046875,1.4428710938-3.109375,1.4428710938-2.33984375,0-3.810546875-1.6669921875-3.810546875-3.7680664062Zm1.8212890625-.8544921875h3.515625c-.09765625-.9384765625-.7421875-1.470703125-1.708984375-1.470703125-.9248046875,0-1.568359375.5180664062-1.806640625,1.470703125Z"/><path d="m70.9052734375,128.4291992188h1.7783203125v1.0083007812c.392578125-.6440429688,1.1630859375-1.1762695312,2.283203125-1.1762695312,1.876953125,0,2.74609375,1.2885742188,2.74609375,3.1376953125v4.244140625h-1.779296875v-4.0483398438c0-1.1484375-.5458984375-1.7509765625-1.5966796875-1.7509765625-.8828125,0-1.470703125.6025390625-1.6533203125,1.2607421875v4.5385742188h-1.7783203125v-7.2138671875Z"/><path d="m89.0732421875,131.5947265625c0-1.1484375-.4765625-1.7509765625-1.541015625-1.7509765625-.896484375,0-1.4150390625.6025390625-1.5966796875,1.2607421875v4.5385742188h-1.779296875v-4.0483398438c0-1.1484375-.490234375-1.7509765625-1.541015625-1.7509765625-.8818359375,0-1.4140625.6025390625-1.5966796875,1.2607421875v4.5385742188h-1.7783203125v-7.2138671875h1.7783203125v1.0083007812c.392578125-.6440429688,1.1064453125-1.1762695312,2.2275390625-1.1762695312,1.1904296875,0,1.947265625.5180664062,2.3388671875,1.3725585938.5322265625-.8686523438,1.3447265625-1.3725585938,2.578125-1.3725585938,1.876953125,0,2.689453125,1.2885742188,2.689453125,3.1376953125v4.244140625h-1.779296875v-4.0483398438Z"/><path d="m97.7216796875,134.81640625c-.5322265625.6025390625-1.3173828125.9946289062-2.255859375.9946289062-2.0029296875,0-3.4736328125-1.4848632812-3.4736328125-3.7680664062s1.470703125-3.7817382812,3.4736328125-3.7817382812c.9384765625,0,1.7236328125.40625,2.255859375,1.0083007812v-.8403320312h1.7783203125v7.2138671875h-1.7783203125v-.8266601562Zm0-1.6665039062v-2.2133789062c-.322265625-.6865234375-1.0654296875-1.0927734375-1.86328125-1.0927734375-1.1630859375,0-2.0595703125.798828125-2.0595703125,2.19921875,0,1.38671875.896484375,2.185546875,2.0595703125,2.185546875.7978515625,0,1.541015625-.40625,1.86328125-1.0786132812Z"/><path d="m101.1025390625,128.4291992188h1.7783203125v1.1206054688c.4208984375-.7705078125,1.12109375-1.2885742188,2.0732421875-1.2885742188h.2099609375v1.6948242188c-1.064453125.0141601562-1.9326171875.322265625-2.283203125,1.4008789062v4.2861328125h-1.7783203125v-7.2138671875Z"/><path d="m105.9990234375,125.6977539062h1.7783203125v5.798828125l2.7880859375-3.0673828125h2.03125v.0561523438l-2.74609375,3.025390625,3.0537109375,4.0903320312v.0419921875h-2.1005859375l-2.0732421875-2.8994140625-.953125,1.0502929688v1.8491210938h-1.7783203125v-9.9453125Z"/><path d="m114.6708984375,136.2734375h-.98046875v-2.1430664062h2.1572265625v1.8911132812l-.966796875,2.3251953125h-1.0498046875l.83984375-2.0732421875Z"/><path d="m121.8525390625,128.1489257812l-1.7373046875.9526367188-.658203125-1.38671875,2.84375-1.5971679688h1.330078125v9.525390625h-1.7783203125v-7.494140625Z"/><path d="m132.814453125,130.642578125c0,3.2495117188-1.6943359375,5.1967773438-4.3701171875,5.1967773438-1.52734375,0-2.6337890625-.7426757812-3.236328125-1.6391601562l1.21875-1.0922851562c.40625.6298828125,1.134765625,1.078125,2.017578125,1.078125,1.3310546875,0,2.3251953125-.896484375,2.5068359375-2.619140625-.57421875.6303710938-1.3720703125,1.0786132812-2.46484375,1.0786132812-1.79296875,0-3.333984375-1.3168945312-3.333984375-3.3198242188s1.6669921875-3.4038085938,3.6982421875-3.4038085938c2.60546875,0,3.9638671875,1.9887695312,3.9638671875,4.720703125Zm-5.8271484375-1.3588867188c0,.9384765625.7001953125,1.72265625,1.86328125,1.72265625,1.1484375,0,1.8486328125-.7841796875,1.8486328125-1.72265625,0-.9248046875-.7001953125-1.708984375-1.8486328125-1.708984375-1.1630859375,0-1.86328125.7841796875-1.86328125,1.708984375Z"/><path d="m133.5703125,131.958984375l4.3701171875-5.8413085938h2.3115234375v5.5610351562h1.5830078125v1.5830078125h-1.5830078125v2.3813476562h-1.7646484375v-2.3813476562h-4.9169921875v-1.302734375Zm4.9169921875-.2802734375v-3.6977539062l-2.7041015625,3.6977539062h2.7041015625Z"/><path d="m144.0341796875,128.1489257812l-1.7373046875.9526367188-.658203125-1.38671875,2.84375-1.5971679688h1.330078125v9.525390625h-1.7783203125v-7.494140625Z"/><rect class="cls-1" y="0" width="318.1005859375" height="138.3466796875"/></g></svg>