<?xml version="1.0" encoding="UTF-8"?><svg id="_레이어_2" xmlns="http://www.w3.org/2000/svg" viewBox="0 0 318.1005859375 138.3466796875"><defs><style>.cls-1{fill:none;}</style></defs><g id="Layer_1"><path d="m1.533203125,1.4404296875h2.5v3.4208984375h3.3408203125V1.4404296875h2.4609375v4.541015625h2.7607421875V0h2.560546875v17.2836914062h-2.560546875v-9.1015625h-2.7607421875v4.7006835938H2.513671875c-.6201171875,0-.98046875-.2397460938-.98046875-.8198242188V1.4404296875Zm2.5,5.5615234375v3.7006835938h3.3408203125v-3.7006835938h-3.3408203125Z"/><path d="m17.9658203125,1.4604492188h2.560546875v8.8818359375h4.140625c1.5205078125,0,2.900390625-.1997070312,3.9208984375-.740234375V0h2.560546875v5.7612304688h2.3408203125v2.2006835938h-2.3408203125v9.3217773438h-2.560546875v-5.8608398438c-1.259765625.83984375-3.1201171875,1.1401367188-5.140625,1.1401367188h-4.5009765625c-.6201171875,0-.98046875-.240234375-.98046875-.8203125V1.4604492188Z"/><path d="m33.6845703125,12.962890625h15.84375v2.220703125h-15.84375v-2.220703125Zm2.28125-11.5825195312h11.2822265625v2.220703125h-8.7216796875v4.0209960938h8.921875v2.2202148438h-10.5224609375c-.6005859375,0-.9599609375-.2602539062-.9599609375-.8203125V1.3803710938Z"/><path d="m55.18359375,10.4423828125h15.84375v2.140625h-6.6416015625v4.7807617188h-2.560546875v-4.7807617188h-6.6416015625v-2.140625Zm2.380859375-9.822265625h11.08203125v5.1811523438h-8.541015625v1.1606445312h8.78125v2.080078125h-10.3623046875c-.599609375,0-.9599609375-.2397460938-.9599609375-.8198242188V3.8212890625h8.5419921875v-1.1206054688h-8.5419921875V.6201171875Z"/><path d="m74.546875,1.3803710938h11.2822265625v2.220703125h-8.7216796875v3.9809570312h8.921875v2.2202148438h-4.5615234375v3.2006835938h6.6416015625v2.220703125h-15.84375v-2.220703125h6.6416015625v-3.2006835938h-3.400390625c-.6005859375,0-.9599609375-.259765625-.9599609375-.8203125V1.3803710938Z"/><path d="m89.431640625,13.0830078125h15.86328125v2.1806640625h-15.86328125v-2.1806640625Zm3.8408203125-8.6616210938h2.580078125v2.1401367188c0,.5.0400390625,1.1401367188.1005859375,1.5805664062h2.80078125c.080078125-.4404296875.1201171875-1.0805664062.1201171875-1.5805664062v-2.1401367188h2.580078125v1.580078125c0,.7802734375-.1396484375,1.6206054688-.48046875,2.140625h2.4609375v2.1801757812h-12.142578125v-2.1801757812h2.4609375c-.30078125-.4604492188-.48046875-1.2001953125-.48046875-2.0004882812v-1.7202148438Zm-1.7802734375-3.0209960938h11.7421875v2.2006835938h-11.7421875V1.400390625Z"/><path d="m106.6240234375,12.962890625h15.84375v2.220703125h-15.84375v-2.220703125Zm6.6220703125-11.9223632812h2.6005859375v1.2202148438c0,3.5405273438,2.560546875,5.1411132812,5.5009765625,6.0810546875l-.9599609375,2.0805664062c-2.48046875-.6201171875-5.041015625-2.3203125-5.841796875-4.2607421875-.759765625,1.9404296875-3.3203125,3.6806640625-5.8212890625,4.3408203125l-.9599609375-2.0805664062c2.900390625-.919921875,5.4814453125-2.6206054688,5.4814453125-6.1411132812v-1.240234375Z"/><path d="m124.5341796875,1.5805664062h8.08203125v1.5805664062c0,5.3608398438-2.8212890625,8.4013671875-7.90234375,10.4819335938l-1.1201171875-2.1401367188c2.4208984375-.9404296875,4.3408203125-2.1806640625,5.4619140625-3.9609375-.541015625.2998046875-1.2802734375.4799804688-2.2412109375.4799804688h-2.720703125v-2.0805664062h5.6416015625c.2197265625-.6401367188.3203125-1.3603515625.3203125-2.1401367188h-5.521484375V1.5805664062Zm10.6826171875-1.5805664062h2.560546875v17.2836914062h-2.560546875V0Z"/><path d="m1.0498046875,24.3984375h3.9365234375c1.9189453125,0,3.109375.9389648438,3.109375,2.5356445312,0,.7841796875-.3916015625,1.470703125-1.091796875,1.9047851562,1.064453125.3364257812,1.806640625,1.0786132812,1.806640625,2.3676757812,0,1.72265625-1.205078125,2.7172851562-3.41796875,2.7172851562H1.0498046875v-9.525390625Zm3.6982421875,3.9223632812c1.064453125,0,1.470703125-.4760742188,1.470703125-1.2045898438s-.40625-1.2045898438-1.470703125-1.2045898438h-1.876953125v2.4091796875h1.876953125Zm.57421875,4.0903320312c1.1064453125,0,1.611328125-.4765625,1.611328125-1.2890625,0-.8120117188-.5048828125-1.2885742188-1.611328125-1.2885742188h-2.451171875v2.5776367188h2.451171875Z"/><path d="m9.658203125,30.337890625c0-2.2553710938,1.5263671875-3.7958984375,3.6279296875-3.7958984375s3.4736328125,1.4565429688,3.4736328125,3.5297851562c0,.23828125-.0419921875.57421875-.083984375.8686523438h-5.224609375c.181640625.9663085938.8544921875,1.6245117188,2.1015625,1.6245117188.8818359375,0,1.6240234375-.490234375,2.044921875-1.064453125l.98046875,1.1625976562c-.6728515625.8125-1.7373046875,1.4428710938-3.1103515625,1.4428710938-2.3388671875,0-3.8095703125-1.6669921875-3.8095703125-3.7680664062Zm1.8212890625-.8544921875h3.515625c-.09765625-.9384765625-.7421875-1.470703125-1.708984375-1.470703125-.9248046875,0-1.568359375.5180664062-1.806640625,1.470703125Z"/><path d="m17.958984375,26.7099609375h1.7783203125v1.1206054688c.4208984375-.7705078125,1.12109375-1.2885742188,2.0732421875-1.2885742188h.2099609375v1.6948242188c-1.064453125.0141601562-1.9326171875.322265625-2.283203125,1.4008789062v4.2861328125h-1.7783203125v-7.2138671875Z"/><path d="m22.8564453125,26.7099609375h1.7783203125v1.0083007812c.392578125-.6440429688,1.1630859375-1.1762695312,2.283203125-1.1762695312,1.876953125,0,2.74609375,1.2885742188,2.74609375,3.1376953125v4.244140625h-1.779296875v-4.0483398438c0-1.1484375-.5458984375-1.7509765625-1.5966796875-1.7509765625-.8828125,0-1.470703125.6025390625-1.6533203125,1.2607421875v4.5385742188h-1.7783203125v-7.2138671875Z"/><path d="m36.5146484375,33.0971679688c-.5322265625.6025390625-1.3173828125.9946289062-2.255859375.9946289062-2.0029296875,0-3.4736328125-1.4848632812-3.4736328125-3.7680664062s1.470703125-3.7817382812,3.4736328125-3.7817382812c.9384765625,0,1.7236328125.40625,2.255859375,1.0083007812v-.8403320312h1.7783203125v7.2138671875h-1.7783203125v-.8266601562Zm0-1.6665039062v-2.2133789062c-.322265625-.6865234375-1.0654296875-1.0927734375-1.86328125-1.0927734375-1.1630859375,0-2.0595703125.798828125-2.0595703125,2.19921875,0,1.38671875.896484375,2.185546875,2.0595703125,2.185546875.7978515625,0,1.541015625-.40625,1.86328125-1.0786132812Z"/><path d="m39.89453125,26.7099609375h1.7783203125v1.1206054688c.4208984375-.7705078125,1.12109375-1.2885742188,2.0732421875-1.2885742188h.2099609375v1.6948242188c-1.064453125.0141601562-1.9326171875.322265625-2.283203125,1.4008789062v4.2861328125h-1.7783203125v-7.2138671875Z"/><path d="m50.1435546875,33.0971679688c-.5322265625.6025390625-1.3173828125.9946289062-2.255859375.9946289062-2.0029296875,0-3.4736328125-1.4848632812-3.4736328125-3.7680664062s1.470703125-3.7817382812,3.4736328125-3.7817382812c.9384765625,0,1.7236328125.40625,2.255859375,1.0083007812v-3.5717773438h1.7783203125v9.9453125h-1.7783203125v-.8266601562Zm0-1.6665039062v-2.2133789062c-.322265625-.6865234375-1.0654296875-1.0927734375-1.86328125-1.0927734375-1.1630859375,0-2.0595703125.798828125-2.0595703125,2.19921875,0,1.38671875.896484375,2.185546875,2.0595703125,2.185546875.7978515625,0,1.541015625-.40625,1.86328125-1.0786132812Z"/><path d="m60.01171875,30.0717773438h-1.5126953125v3.8520507812h-1.8212890625v-9.525390625h4.23046875c1.8349609375,0,3.15234375,1.0786132812,3.15234375,2.84375,0,1.4008789062-.8271484375,2.3671875-2.087890625,2.7036132812l3.08203125,3.9360351562v.0419921875h-2.185546875l-2.857421875-3.8520507812Zm.7001953125-1.5830078125c.966796875,0,1.4716796875-.4619140625,1.4716796875-1.2465820312,0-.7841796875-.5048828125-1.2465820312-1.4716796875-1.2465820312h-2.212890625v2.4931640625h2.212890625Z"/><path d="m72.3447265625,33.923828125h-1.779296875v-1.0087890625c-.392578125.64453125-1.1630859375,1.1767578125-2.283203125,1.1767578125-1.876953125,0-2.7451171875-1.2885742188-2.7451171875-3.1376953125v-4.244140625h1.7783203125v4.0483398438c0,1.1484375.546875,1.7509765625,1.5966796875,1.7509765625.8828125,0,1.4716796875-.6025390625,1.6533203125-1.2607421875v-4.5385742188h1.779296875v7.2138671875Z"/><path d="m79.2880859375,33.0971679688c-.5322265625.6025390625-1.3173828125.9946289062-2.255859375.9946289062-2.0029296875,0-3.4736328125-1.4848632812-3.4736328125-3.7680664062s1.470703125-3.7817382812,3.4736328125-3.7817382812c.9384765625,0,1.7236328125.40625,2.255859375,1.0083007812v-3.5717773438h1.7783203125v9.9453125h-1.7783203125v-.8266601562Zm0-1.6665039062v-2.2133789062c-.322265625-.6865234375-1.0654296875-1.0927734375-1.86328125-1.0927734375-1.1630859375,0-2.0595703125.798828125-2.0595703125,2.19921875,0,1.38671875.896484375,2.185546875,2.0595703125,2.185546875.7978515625,0,1.541015625-.40625,1.86328125-1.0786132812Z"/><path d="m82.26171875,30.3237304688c0-1.9750976562,1.31640625-3.7817382812,3.8232421875-3.7817382812,2.5078125,0,3.82421875,1.806640625,3.82421875,3.7817382812,0,1.9892578125-1.31640625,3.7963867188-3.82421875,3.7963867188-2.5068359375,0-3.8232421875-1.8071289062-3.8232421875-3.7963867188Zm1.806640625,0c0,1.3447265625.8544921875,2.2133789062,2.0166015625,2.2133789062,1.1630859375,0,2.017578125-.8686523438,2.017578125-2.2133789062,0-1.3305664062-.8544921875-2.19921875-2.017578125-2.19921875-1.162109375,0-2.0166015625.8686523438-2.0166015625,2.19921875Z"/><path d="m91.505859375,28.138671875h-1.1201171875v-1.4287109375h1.1201171875v-.4204101562c0-1.38671875.8271484375-2.4370117188,2.521484375-2.4370117188.224609375,0,.5048828125.013671875.6728515625.0419921875v1.4428710938h-.30859375c-.671875,0-1.1064453125.2661132812-1.1064453125.9663085938v.40625h1.4150390625v1.4287109375h-1.4150390625v5.78515625h-1.779296875v-5.78515625Z"/><path d="m94.9814453125,32.705078125l.9658203125-1.1206054688c.4765625.5883789062,1.2890625,1.0786132812,2.1435546875,1.0786132812.7705078125,0,1.31640625-.3081054688,1.31640625-.8403320312,0-.4760742188-.4345703125-.6723632812-1.1201171875-.7846679688l-.64453125-.09765625c-1.3447265625-.2241210938-2.1572265625-.966796875-2.1572265625-2.1435546875,0-1.2465820312,1.064453125-2.2548828125,2.87109375-2.2548828125,1.134765625,0,2.00390625.4760742188,2.5361328125,1.0922851562l-.9384765625,1.134765625c-.462890625-.490234375-1.0087890625-.7705078125-1.6669921875-.7705078125-.6728515625,0-1.0224609375.3081054688-1.0224609375.7006835938,0,.3637695312.279296875.5600585938.7978515625.6440429688l.64453125.0981445312c1.6533203125.251953125,2.4794921875,1.0224609375,2.4794921875,2.283203125,0,1.302734375-1.134765625,2.3955078125-3.166015625,2.3955078125-1.3447265625,0-2.380859375-.6303710938-3.0390625-1.4150390625Z"/><path d="m102.32421875,23.978515625h1.7783203125v5.798828125l2.7880859375-3.0673828125h2.03125v.0561523438l-2.74609375,3.025390625,3.0537109375,4.0903320312v.0419921875h-2.1005859375l-2.0732421875-2.8994140625-.953125,1.0502929688v1.8491210938h-1.7783203125v-9.9453125Z"/><path d="m112.2578125,32.9995117188l-2.8857421875-6.2895507812h1.9052734375l1.9189453125,4.314453125,1.779296875-4.314453125h1.9189453125l-4.23046875,9.6372070312h-1.9189453125l1.5126953125-3.34765625Z"/><path d="m1.61328125,62.3798828125h2.560546875v8.8818359375h4.4208984375c1.5205078125,0,2.900390625-.1997070312,3.9208984375-.740234375v-9.6020507812h2.560546875v17.2836914062h-2.560546875v-5.8608398438c-1.2607421875.83984375-3.12109375,1.1401367188-5.1416015625,1.1401367188H2.5927734375c-.6201171875,0-.9794921875-.240234375-.9794921875-.8203125v-10.2822265625Z"/><path d="m19.5693359375,61.3798828125h2.560546875v1.0400390625h5.8408203125v-1.0400390625h2.560546875v5.9013671875h-4.201171875v1.2202148438h6.6416015625v1.98046875h-15.84375v-1.98046875h6.6416015625v-1.2202148438h-3.240234375c-.6005859375,0-.9599609375-.2602539062-.9599609375-.8203125v-5.0810546875Zm-.1201171875,10.1020507812h11.2021484375v4.6010742188h-8.6416015625v1.0200195312h9.08203125v1.900390625h-10.6826171875c-.6005859375,0-.9599609375-.259765625-.9599609375-.8203125v-3.8803710938h8.6416015625v-.9604492188h-8.6416015625v-1.8603515625Zm2.6806640625-7.181640625v1.0205078125h5.8408203125v-1.0205078125h-5.8408203125Z"/><path d="m34.6376953125,62.4599609375h8.28125v6.6616210938h-5.720703125v2.6005859375h4.220703125c1.48046875,0,2.8408203125-.2001953125,3.8408203125-.7202148438v-10.0825195312h2.560546875v5.9614257812h2.3408203125v2.2006835938h-2.3408203125v9.1215820312h-2.560546875v-5.4409179688c-1.259765625.8203125-3.060546875,1.1401367188-5.060546875,1.1401367188h-4.5810546875c-.6201171875,0-.98046875-.2397460938-.98046875-.8203125v-6.0810546875h5.7607421875v-2.3603515625h-5.7607421875v-2.1806640625Z"/><path d="m56.056640625,61.7998046875h8.822265625v2.1806640625h-3.12109375c0,2.16015625,1.2607421875,3.5805664062,3.8408203125,4.6206054688l-1.140625,1.9604492188c-1.9404296875-.6997070312-3.3798828125-1.9604492188-3.8603515625-3.2602539062-.48046875,1.4599609375-1.900390625,2.900390625-4.1005859375,3.80078125l-1.16015625-1.98046875c2.66015625-1.1005859375,3.8408203125-2.9409179688,3.8408203125-5.1411132812h-3.12109375v-2.1806640625Zm8.4013671875,9.6420898438c3.5009765625,0,5.501953125,1.48046875,5.501953125,3.6806640625,0,2.1806640625-2.0009765625,3.6611328125-5.501953125,3.6611328125-3.5205078125,0-5.5205078125-1.48046875-5.5205078125-3.6611328125,0-2.2001953125,2-3.6806640625,5.5205078125-3.6806640625Zm0,5.1811523438c1.900390625,0,2.94140625-.5600585938,2.94140625-1.5004882812,0-.9599609375-1.041015625-1.5200195312-2.94140625-1.5200195312-1.919921875,0-2.9599609375.5600585938-2.9599609375,1.5200195312,0,.9404296875,1.0400390625,1.5004882812,2.9599609375,1.5004882812Zm2.880859375-15.7036132812h2.560546875v10.1225585938h-2.560546875v-3.9008789062h-2.8408203125v-2.1806640625h2.8408203125v-4.041015625Z"/><path d="m71.9921875,68.3813476562h5.94140625c1.599609375,0,3.80078125-.080078125,5.041015625-.5400390625l.2802734375,1.6801757812c-1.201171875.6801757812-2.9609375.8603515625-4.8017578125.9204101562v2.7802734375h-2.560546875v-2.7602539062h-3.900390625v-2.0805664062Zm5.380859375-7.1215820312c2.7412109375,0,4.5810546875,1.240234375,4.5810546875,3.1606445312s-1.83984375,3.140625-4.5810546875,3.140625c-2.740234375,0-4.5810546875-1.2202148438-4.5810546875-3.140625s1.8408203125-3.1606445312,4.5810546875-3.1606445312Zm-2.2001953125,12.6225585938h2.560546875v2.2807617188h9.0615234375v2.1801757812h-10.662109375c-.599609375,0-.9599609375-.2397460938-.9599609375-.8198242188v-3.6411132812Zm2.2001953125-8.3618164062c1.220703125,0,2.041015625-.3598632812,2.041015625-1.1000976562,0-.7602539062-.8203125-1.1000976562-2.041015625-1.1000976562-1.2001953125,0-2.0400390625.33984375-2.0400390625,1.1000976562,0,.740234375.83984375,1.1000976562,2.0400390625,1.1000976562Zm6.44140625-4.6010742188h2.560546875v13.6030273438h-2.560546875v-1.3203125h-3.0205078125v-1.9404296875h3.0205078125v-10.3422851562Z"/><path d="m10.2353515625,92.1010742188c0,2.9409179688-1.1611328125,5.8012695312-4.62109375,5.8012695312-3.44140625,0-4.6416015625-2.8603515625-4.6416015625-5.8012695312,0-2.9204101562,1.2001953125-5.78125,4.6416015625-5.78125,3.4599609375,0,4.62109375,2.8608398438,4.62109375,5.78125Zm-6.7021484375,0c0,1.6206054688.4404296875,3.62109375,2.0810546875,3.62109375,1.6396484375,0,2.099609375-2.0004882812,2.099609375-3.62109375,0-1.6000976562-.4599609375-3.6005859375-2.099609375-3.6005859375-1.640625,0-2.0810546875,2.0004882812-2.0810546875,3.6005859375Zm8.4423828125-7.181640625h2.560546875v5.861328125h2.3603515625v2.220703125h-2.3603515625v9.2016601562h-2.560546875v-17.2836914062Z"/><path d="m18.3837890625,86.5200195312h8.361328125v11.1826171875h-7.4013671875c-.599609375,0-.9599609375-.240234375-.9599609375-.8002929688v-10.3823242188Zm2.5,2.1806640625v6.8212890625h3.4013671875v-6.8212890625h-3.4013671875Zm8.1025390625-3.78125h2.560546875v5.861328125h2.3603515625v2.220703125h-2.3603515625v9.2016601562h-2.560546875v-17.2836914062Z"/><path d="m35.8115234375,85.9799804688h8.2216796875v1.48046875c0,4.640625-3.560546875,7.021484375-8.3017578125,8.021484375l-.740234375-2.2607421875c3.6806640625-.6796875,6.3818359375-2.7202148438,6.4013671875-5.041015625h-5.5810546875v-2.2001953125Zm2.400390625,10.1020507812h2.560546875v4.041015625h8.7822265625v2.1801757812h-10.3828125c-.599609375,0-.9599609375-.259765625-.9599609375-.8198242188v-5.4013671875Zm8.2216796875-11.1625976562h2.560546875v4.5810546875h2.3408203125v2.2006835938h-2.3408203125v5.8413085938h-2.560546875v-12.623046875Z"/><path d="m55.046875,85.5795898438h2.5205078125v1.1606445312c0,2.6206054688.640625,4.2807617188,3.1611328125,5.5610351562-.419921875.66015625-.8603515625,1.3203125-1.30078125,1.98046875-1.3994140625-.6401367188-2.7197265625-2.0805664062-3.0400390625-3.1806640625-.2802734375,1.2001953125-1.6005859375,2.8403320312-3.220703125,3.6206054688-.419921875-.6401367188-.83984375-1.3002929688-1.2802734375-1.9404296875,2.419921875-1.400390625,3.16015625-3.3408203125,3.16015625-5.9213867188v-1.2802734375Zm5.041015625,9.7822265625h2.560546875v.740234375c0,2.1806640625,2.3212890625,3.7407226562,5.12109375,4.4008789062l-.859375,2.1005859375c-2.48046875-.580078125-4.7412109375-2.0004882812-5.4814453125-3.4809570312-.720703125,1.560546875-3.0205078125,2.9809570312-5.6015625,3.5810546875l-.8603515625-2.1005859375c2.8408203125-.6801757812,5.12109375-2.1606445312,5.12109375-4.5009765625v-.740234375Zm1.041015625-10.2421875h2.400390625v9.4018554688h-2.400390625v-4.720703125h-2.140625v-2.1606445312h2.140625v-2.5205078125Zm3.66015625-.2001953125h2.4404296875v10.9423828125h-2.4404296875v-10.9423828125Z"/><path d="m70.90625,100.8432617188h-1.400390625v-3.0610351562h3.080078125v2.7006835938l-1.3798828125,3.3208007812h-1.5l1.2001953125-2.9604492188Z"/><path d="m78.625,94.5615234375h15.84375v2.220703125h-3.5810546875v5.5009765625h-2.580078125v-5.5009765625h-3.48046875v5.5009765625h-2.560546875v-5.5009765625h-3.6416015625v-2.220703125Zm2.380859375-9.0815429688h2.560546875v4.720703125h8.921875v2.220703125h-10.5224609375c-.599609375,0-.9599609375-.240234375-.9599609375-.8203125v-6.12109375Z"/><path d="m95.798828125,93.5815429688h3.8408203125v-2.4404296875c-.8798828125-.5600585938-1.3798828125-1.400390625-1.3798828125-2.4404296875,0-2.140625,2.0205078125-3.5009765625,5.4609375-3.5009765625,3.44140625,0,5.4619140625,1.3603515625,5.4619140625,3.5009765625,0,1.0400390625-.5009765625,1.8803710938-1.380859375,2.4404296875v2.4404296875h3.8408203125v2.0805664062h-15.84375v-2.0805664062Zm2.0810546875,3.4409179688h11.4423828125v5.8208007812h-2.560546875v-3.720703125h-8.8818359375v-2.1000976562Zm5.8408203125-6.921875c1.8603515625,0,2.9013671875-.4799804688,2.9013671875-1.3999023438,0-.9204101562-1.041015625-1.400390625-2.9013671875-1.400390625s-2.900390625.4799804688-2.900390625,1.400390625c0,.919921875,1.0400390625,1.3999023438,2.900390625,1.3999023438Zm-1.5595703125,3.4809570312h3.1201171875v-1.5805664062c-.48046875.080078125-1.0205078125.1201171875-1.560546875.1201171875-.5595703125,0-1.080078125-.0400390625-1.5595703125-.1201171875v1.5805664062Z"/><path d="m113.8310546875,100.8432617188h-1.400390625v-3.0610351562h3.080078125v2.7006835938l-1.3798828125,3.3208007812h-1.5l1.2001953125-2.9604492188Z"/><path d="m122.470703125,86.5h8.3818359375v11.2026367188h-7.40234375c-.6201171875,0-.9794921875-.240234375-.9794921875-.8203125v-10.3823242188Zm2.5,2.1806640625v6.8413085938h3.4208984375v-6.8413085938h-3.4208984375Zm8.40234375-3.7612304688h2.560546875v17.2836914062h-2.560546875v-17.2836914062Z"/><path d="m140.24609375,85.6396484375h11.142578125v1.560546875c0,1.8603515625-.33984375,3.4604492188-1.0205078125,4.7607421875h3.4609375v2.0805664062h-6.6416015625v2.380859375h4.3212890625v6.4208984375h-2.560546875v-4.3208007812h-8.8818359375v-2.1000976562h4.560546875v-2.380859375h-6.6416015625v-2.0805664062h10.1630859375c.4794921875-1.2202148438.6396484375-2.7202148438.6396484375-3.8608398438v-.259765625h-8.5419921875v-2.2006835938Z"/><path d="m156.017578125,100.8432617188h-1.400390625v-3.0610351562h3.080078125v2.7006835938l-1.3798828125,3.3208007812h-1.5l1.2001953125-2.9604492188Z"/><path d="m166.4775390625,89.2407226562l-2.48046875,1.3603515625-.9404296875-1.98046875,4.060546875-2.2807617188h1.900390625v13.6030273438h-2.5400390625v-10.7021484375Z"/><path d="m182.203125,92.8012695312c0,4.6411132812-2.4208984375,7.421875-6.2412109375,7.421875-2.1806640625,0-3.7607421875-1.060546875-4.62109375-2.3408203125l1.740234375-1.5600585938c.580078125.8999023438,1.6201171875,1.5400390625,2.880859375,1.5400390625,1.900390625,0,3.3203125-1.2802734375,3.580078125-3.7407226562-.8193359375.900390625-1.9599609375,1.5405273438-3.5205078125,1.5405273438-2.560546875,0-4.7607421875-1.8803710938-4.7607421875-4.7412109375,0-2.8603515625,2.380859375-4.8608398438,5.28125-4.8608398438,3.720703125,0,5.6611328125,2.8403320312,5.6611328125,6.7412109375Zm-8.322265625-1.9404296875c0,1.3403320312,1.0009765625,2.4604492188,2.6611328125,2.4604492188,1.6396484375,0,2.640625-1.1201171875,2.640625-2.4604492188,0-1.3203125-1.0009765625-2.4404296875-2.640625-2.4404296875-1.66015625,0-2.6611328125,1.1201171875-2.6611328125,2.4404296875Z"/><path d="m183.3564453125,94.681640625l6.2412109375-8.341796875h3.30078125v7.9418945312h2.2607421875v2.2602539062h-2.2607421875v3.4008789062h-2.5205078125v-3.4008789062h-7.021484375v-1.8603515625Zm7.021484375-.3999023438v-5.28125l-3.8603515625,5.28125h3.8603515625Z"/><path d="m207.0654296875,92.8012695312c0,4.6411132812-2.4208984375,7.421875-6.2412109375,7.421875-2.1806640625,0-3.7607421875-1.060546875-4.62109375-2.3408203125l1.740234375-1.5600585938c.580078125.8999023438,1.6201171875,1.5400390625,2.880859375,1.5400390625,1.900390625,0,3.3203125-1.2802734375,3.580078125-3.7407226562-.8193359375.900390625-1.9599609375,1.5405273438-3.5205078125,1.5405273438-2.560546875,0-4.7607421875-1.8803710938-4.7607421875-4.7412109375,0-2.8603515625,2.3798828125-4.8608398438,5.28125-4.8608398438,3.720703125,0,5.6611328125,2.8403320312,5.6611328125,6.7412109375Zm-8.322265625-1.9404296875c0,1.3403320312,1.0009765625,2.4604492188,2.6611328125,2.4604492188,1.6396484375,0,2.640625-1.1201171875,2.640625-2.4604492188,0-1.3203125-1.0009765625-2.4404296875-2.640625-2.4404296875-1.66015625,0-2.6611328125,1.1201171875-2.6611328125,2.4404296875Z"/><path d="m209.2685546875,92.861328125h5.841796875v2.0405273438h-5.841796875v-2.0405273438Z"/><path d="m218.6806640625,89.2407226562l-2.48046875,1.3603515625-.9404296875-1.98046875,4.060546875-2.2807617188h1.900390625v13.6030273438h-2.5400390625v-10.7021484375Z"/><path d="m234.4072265625,92.8012695312c0,4.6411132812-2.4208984375,7.421875-6.2412109375,7.421875-2.1806640625,0-3.7607421875-1.060546875-4.62109375-2.3408203125l1.740234375-1.5600585938c.580078125.8999023438,1.6201171875,1.5400390625,2.880859375,1.5400390625,1.900390625,0,3.3203125-1.2802734375,3.580078125-3.7407226562-.8193359375.900390625-1.9599609375,1.5405273438-3.5205078125,1.5405273438-2.560546875,0-4.7607421875-1.8803710938-4.7607421875-4.7412109375,0-2.8603515625,2.3798828125-4.8608398438,5.28125-4.8608398438,3.720703125,0,5.6611328125,2.8403320312,5.6611328125,6.7412109375Zm-8.322265625-1.9404296875c0,1.3403320312,1.0009765625,2.4604492188,2.6611328125,2.4604492188,1.6396484375,0,2.640625-1.1201171875,2.640625-2.4604492188,0-1.3203125-1.0009765625-2.4404296875-2.640625-2.4404296875-1.66015625,0-2.6611328125,1.1201171875-2.6611328125,2.4404296875Z"/><path d="m235.2998046875,97.9423828125l1.48046875-1.7602539062c.6806640625.8002929688,1.740234375,1.6801757812,3.4404296875,1.6801757812,1.6806640625,0,2.9013671875-.9399414062,2.9013671875-2.48046875,0-1.4204101562-1.080078125-2.3203125-2.5810546875-2.3203125-1.0595703125,0-1.8603515625.33984375-2.5.8002929688l-1.6005859375-.5405273438.6396484375-6.9814453125h7.8818359375v2.2807617188h-5.6611328125l-.2802734375,2.3603515625c.5205078125-.16015625,1.0810546875-.2802734375,1.701171875-.2802734375,2.740234375,0,5.0009765625,1.5405273438,5.0009765625,4.6811523438,0,3.0405273438-2.2412109375,4.8413085938-5.501953125,4.8413085938-2.419921875,0-4.0400390625-1.2802734375-4.9208984375-2.2807617188Z"/><path d="m247.16015625,93.1416015625c0-4.2612304688,2.041015625-7.0815429688,5.7216796875-7.0815429688s5.720703125,2.8203125,5.720703125,7.0815429688c0,4.2607421875-2.0400390625,7.0815429688-5.720703125,7.0815429688s-5.7216796875-2.8208007812-5.7216796875-7.0815429688Zm8.841796875,0c0-2.7607421875-.8798828125-4.7211914062-3.1201171875-4.7211914062s-3.12109375,1.9604492188-3.12109375,4.7211914062c0,2.7602539062.880859375,4.720703125,3.12109375,4.720703125s3.1201171875-1.9604492188,3.1201171875-4.720703125Z"/><path d="m1.0498046875,109.3178710938h1.59765625l5.1826171875,6.5v-6.5h1.8212890625v9.525390625h-1.5830078125l-5.197265625-6.4995117188v6.4995117188h-1.8212890625v-9.525390625Z"/><path d="m11.4130859375,108.5615234375h1.8212890625v1.8491210938h-1.8212890625v-1.8491210938Zm.0283203125,3.0678710938h1.7783203125v7.2138671875h-1.7783203125v-7.2138671875Z"/><path d="m14.005859375,111.6293945312h1.9052734375l1.9189453125,5.0146484375,1.9189453125-5.0146484375h1.9052734375l-2.94140625,7.2138671875h-1.779296875l-2.927734375-7.2138671875Z"/><path d="m21.732421875,115.2431640625c0-1.9750976562,1.31640625-3.7817382812,3.8232421875-3.7817382812,2.5078125,0,3.82421875,1.806640625,3.82421875,3.7817382812,0,1.9892578125-1.31640625,3.7963867188-3.82421875,3.7963867188-2.5068359375,0-3.8232421875-1.8071289062-3.8232421875-3.7963867188Zm1.806640625,0c0,1.3447265625.8544921875,2.2133789062,2.0166015625,2.2133789062,1.1630859375,0,2.017578125-.8686523438,2.017578125-2.2133789062,0-1.3305664062-.8544921875-2.19921875-2.017578125-2.19921875-1.162109375,0-2.0166015625.8686523438-2.0166015625,2.19921875Z"/><path d="m30.5859375,108.8979492188h1.7783203125v9.9453125h-1.7783203125v-9.9453125Z"/><path d="m39.3154296875,118.0166015625c-.5322265625.6025390625-1.3173828125.9946289062-2.255859375.9946289062-2.0029296875,0-3.4736328125-1.4848632812-3.4736328125-3.7680664062s1.470703125-3.7817382812,3.4736328125-3.7817382812c.9384765625,0,1.7236328125.40625,2.255859375,1.0083007812v-.8403320312h1.7783203125v7.2138671875h-1.7783203125v-.8266601562Zm0-1.6665039062v-2.2133789062c-.322265625-.6865234375-1.0654296875-1.0927734375-1.86328125-1.0927734375-1.1630859375,0-2.0595703125.798828125-2.0595703125,2.19921875,0,1.38671875.896484375,2.185546875,2.0595703125,2.185546875.7978515625,0,1.541015625-.40625,1.86328125-1.0786132812Z"/><path d="m45.849609375,109.3178710938h1.8212890625v3.9223632812h4.720703125v-3.9223632812h1.8212890625v9.525390625h-1.8212890625v-4.0200195312h-4.720703125v4.0200195312h-1.8212890625v-9.525390625Z"/><path d="m55.5947265625,115.2431640625c0-1.9750976562,1.31640625-3.7817382812,3.82421875-3.7817382812,2.5068359375,0,3.8232421875,1.806640625,3.8232421875,3.7817382812,0,1.9892578125-1.31640625,3.7963867188-3.8232421875,3.7963867188-2.5078125,0-3.82421875-1.8071289062-3.82421875-3.7963867188Zm1.806640625,0c0,1.3447265625.8544921875,2.2133789062,2.017578125,2.2133789062,1.162109375,0,2.0166015625-.8686523438,2.0166015625-2.2133789062,0-1.3305664062-.8544921875-2.19921875-2.0166015625-2.19921875-1.1630859375,0-2.017578125.8686523438-2.017578125,2.19921875Z"/><path d="m71.1474609375,118.8432617188h-1.779296875v-1.0087890625c-.392578125.64453125-1.1630859375,1.1767578125-2.283203125,1.1767578125-1.876953125,0-2.7451171875-1.2885742188-2.7451171875-3.1376953125v-4.244140625h1.7783203125v4.0483398438c0,1.1484375.546875,1.7509765625,1.5966796875,1.7509765625.8828125,0,1.4716796875-.6025390625,1.6533203125-1.2607421875v-4.5385742188h1.779296875v7.2138671875Z"/><path d="m72.0849609375,117.6245117188l.966796875-1.1206054688c.4765625.5883789062,1.2890625,1.0786132812,2.1435546875,1.0786132812.7705078125,0,1.31640625-.3081054688,1.31640625-.8403320312,0-.4760742188-.4345703125-.6723632812-1.1201171875-.7846679688l-.64453125-.09765625c-1.3447265625-.2241210938-2.1572265625-.966796875-2.1572265625-2.1435546875,0-1.2465820312,1.064453125-2.2548828125,2.87109375-2.2548828125,1.134765625,0,2.0029296875.4760742188,2.5361328125,1.0922851562l-.9384765625,1.134765625c-.462890625-.490234375-1.0087890625-.7705078125-1.6669921875-.7705078125-.6728515625,0-1.0224609375.3081054688-1.0224609375.7006835938,0,.3637695312.279296875.5600585938.7978515625.6440429688l.64453125.0981445312c1.65234375.251953125,2.4794921875,1.0224609375,2.4794921875,2.283203125,0,1.302734375-1.134765625,2.3955078125-3.166015625,2.3955078125-1.3447265625,0-2.380859375-.6303710938-3.0400390625-1.4150390625Z"/><path d="m79.0146484375,115.2573242188c0-2.2553710938,1.5263671875-3.7958984375,3.6279296875-3.7958984375s3.4736328125,1.4565429688,3.4736328125,3.5297851562c0,.23828125-.0419921875.57421875-.083984375.8686523438h-5.224609375c.181640625.9663085938.8544921875,1.6245117188,2.1015625,1.6245117188.8818359375,0,1.6240234375-.490234375,2.044921875-1.064453125l.98046875,1.1625976562c-.6728515625.8125-1.7373046875,1.4428710938-3.109375,1.4428710938-2.33984375,0-3.810546875-1.6669921875-3.810546875-3.7680664062Zm1.8212890625-.8544921875h3.515625c-.09765625-.9384765625-.7421875-1.470703125-1.708984375-1.470703125-.9248046875,0-1.568359375.5180664062-1.806640625,1.470703125Z"/><path d="m87.369140625,113.884765625h4.08984375v1.4287109375h-4.08984375v-1.4287109375Z"/><path d="m92.90234375,114.0805664062c0-2.8432617188,2.0595703125-4.9584960938,4.888671875-4.9584960938,1.947265625,0,3.404296875.8823242188,4.244140625,2.2690429688l-1.3583984375,1.0224609375c-.6025390625-.98046875-1.4853515625-1.5966796875-2.857421875-1.5966796875-1.8349609375,0-3.0400390625,1.4150390625-3.0400390625,3.263671875,0,1.8491210938,1.205078125,3.263671875,3.0537109375,3.263671875.91015625,0,1.8212890625-.251953125,2.353515625-.6440429688v-1.625h-2.1435546875v-1.5830078125h3.9638671875v4.146484375c-.9521484375.7563476562-2.619140625,1.4008789062-4.2158203125,1.4008789062-2.8291015625,0-4.888671875-2.115234375-4.888671875-4.958984375Z"/><path d="m108.8798828125,118.0166015625c-.5322265625.6025390625-1.3173828125.9946289062-2.255859375.9946289062-2.0029296875,0-3.4736328125-1.4848632812-3.4736328125-3.7680664062s1.470703125-3.7817382812,3.4736328125-3.7817382812c.9384765625,0,1.7236328125.40625,2.255859375,1.0083007812v-.8403320312h1.7783203125v7.2138671875h-1.7783203125v-.8266601562Zm0-1.6665039062v-2.2133789062c-.322265625-.6865234375-1.0654296875-1.0927734375-1.86328125-1.0927734375-1.1630859375,0-2.0595703125.798828125-2.0595703125,2.19921875,0,1.38671875.896484375,2.185546875,2.0595703125,2.185546875.7978515625,0,1.541015625-.40625,1.86328125-1.0786132812Z"/><path d="m112.2607421875,111.6293945312h1.7783203125v1.1206054688c.4208984375-.7705078125,1.12109375-1.2885742188,2.0732421875-1.2885742188h.2099609375v1.6948242188c-1.064453125.0141601562-1.9326171875.322265625-2.283203125,1.4008789062v4.2861328125h-1.7783203125v-7.2138671875Z"/><path d="m122.509765625,118.0166015625c-.5322265625.6025390625-1.3173828125.9946289062-2.255859375.9946289062-2.0029296875,0-3.4736328125-1.4848632812-3.4736328125-3.7680664062s1.470703125-3.7817382812,3.4736328125-3.7817382812c.9384765625,0,1.7236328125.40625,2.255859375,1.0083007812v-3.5717773438h1.7783203125v9.9453125h-1.7783203125v-.8266601562Zm0-1.6665039062v-2.2133789062c-.322265625-.6865234375-1.0654296875-1.0927734375-1.86328125-1.0927734375-1.1630859375,0-2.0595703125.798828125-2.0595703125,2.19921875,0,1.38671875.896484375,2.185546875,2.0595703125,2.185546875.7978515625,0,1.541015625-.40625,1.86328125-1.0786132812Z"/><path d="m125.490234375,115.2573242188c0-2.2553710938,1.5263671875-3.7958984375,3.6279296875-3.7958984375s3.4736328125,1.4565429688,3.4736328125,3.5297851562c0,.23828125-.0419921875.57421875-.083984375.8686523438h-5.224609375c.181640625.9663085938.8544921875,1.6245117188,2.1015625,1.6245117188.8818359375,0,1.6240234375-.490234375,2.044921875-1.064453125l.98046875,1.1625976562c-.6728515625.8125-1.7373046875,1.4428710938-3.1103515625,1.4428710938-2.3388671875,0-3.8095703125-1.6669921875-3.8095703125-3.7680664062Zm1.8212890625-.8544921875h3.515625c-.09765625-.9384765625-.7421875-1.470703125-1.708984375-1.470703125-.9248046875,0-1.568359375.5180664062-1.806640625,1.470703125Z"/><path d="m133.7919921875,111.6293945312h1.7783203125v1.0083007812c.392578125-.6440429688,1.1630859375-1.1762695312,2.283203125-1.1762695312,1.876953125,0,2.74609375,1.2885742188,2.74609375,3.1376953125v4.244140625h-1.779296875v-4.0483398438c0-1.1484375-.5458984375-1.7509765625-1.5966796875-1.7509765625-.8828125,0-1.470703125.6025390625-1.6533203125,1.2607421875v4.5385742188h-1.7783203125v-7.2138671875Z"/><path d="m3.7119140625,126.1176757812h2.142578125l3.7119140625,9.525390625h-1.890625l-.7705078125-2.0170898438H2.6611328125l-.7705078125,2.0170898438H0l3.7119140625-9.525390625Zm-.4482421875,5.9252929688h3.025390625l-1.5126953125-3.9780273438-1.5126953125,3.9780273438Z"/><path d="m20.1884765625,131.5947265625c0-1.1484375-.4765625-1.7509765625-1.541015625-1.7509765625-.896484375,0-1.4150390625.6025390625-1.5966796875,1.2607421875v4.5385742188h-1.779296875v-4.0483398438c0-1.1484375-.490234375-1.7509765625-1.541015625-1.7509765625-.8818359375,0-1.4140625.6025390625-1.5966796875,1.2607421875v4.5385742188h-1.7783203125v-7.2138671875h1.7783203125v1.0083007812c.392578125-.6440429688,1.1064453125-1.1762695312,2.2275390625-1.1762695312,1.1904296875,0,1.947265625.5180664062,2.3388671875,1.3725585938.5322265625-.8686523438,1.3447265625-1.3725585938,2.578125-1.3725585938,1.876953125,0,2.689453125,1.2885742188,2.689453125,3.1376953125v4.244140625h-1.779296875v-4.0483398438Z"/><path d="m28.8369140625,134.81640625c-.5322265625.6025390625-1.3173828125.9946289062-2.255859375.9946289062-2.0029296875,0-3.4736328125-1.4848632812-3.4736328125-3.7680664062s1.470703125-3.7817382812,3.4736328125-3.7817382812c.9384765625,0,1.7236328125.40625,2.255859375,1.0083007812v-.8403320312h1.7783203125v7.2138671875h-1.7783203125v-.8266601562Zm0-1.6665039062v-2.2133789062c-.322265625-.6865234375-1.0654296875-1.0927734375-1.86328125-1.0927734375-1.1630859375,0-2.0595703125.798828125-2.0595703125,2.19921875,0,1.38671875.896484375,2.185546875,2.0595703125,2.185546875.7978515625,0,1.541015625-.40625,1.86328125-1.0786132812Z"/><path d="m31.8173828125,131.70703125c0-2.0732421875,1.2744140625-3.4458007812,3.2919921875-3.4458007812.923828125,0,1.6806640625.40625,2.1845703125,1.0083007812v-.8403320312h1.779296875v5.9814453125c0,2.619140625-1.8349609375,3.8237304688-3.7822265625,3.8237304688-1.7646484375,0-2.787109375-.6723632812-3.333984375-1.4565429688l1.0791015625-1.1206054688c.4765625.6303710938,1.0927734375,1.0502929688,2.1708984375,1.0502929688,1.037109375,0,2.0869140625-.5883789062,2.0869140625-2.1572265625v-.3920898438c-.50390625.5883789062-1.2607421875.9946289062-2.1845703125.9946289062-2.017578125,0-3.2919921875-1.3725585938-3.2919921875-3.4458007812Zm5.4765625.8823242188v-1.7509765625c-.322265625-.658203125-.9658203125-1.0502929688-1.7509765625-1.0502929688-1.17578125,0-1.9189453125.7700195312-1.9189453125,1.9189453125,0,1.1484375.7431640625,1.9189453125,1.9189453125,1.9189453125.78515625,0,1.4287109375-.3920898438,1.7509765625-1.0366210938Z"/><path d="m46.001953125,134.81640625c-.5322265625.6025390625-1.3173828125.9946289062-2.255859375.9946289062-2.0029296875,0-3.4736328125-1.4848632812-3.4736328125-3.7680664062s1.470703125-3.7817382812,3.4736328125-3.7817382812c.9384765625,0,1.7236328125.40625,2.255859375,1.0083007812v-.8403320312h1.7783203125v7.2138671875h-1.7783203125v-.8266601562Zm0-1.6665039062v-2.2133789062c-.322265625-.6865234375-1.0654296875-1.0927734375-1.86328125-1.0927734375-1.1630859375,0-2.0595703125.798828125-2.0595703125,2.19921875,0,1.38671875.896484375,2.185546875,2.0595703125,2.185546875.7978515625,0,1.541015625-.40625,1.86328125-1.0786132812Z"/><path d="m49.3818359375,128.4291992188h1.7783203125v1.0083007812c.392578125-.6440429688,1.1630859375-1.1762695312,2.283203125-1.1762695312,1.876953125,0,2.74609375,1.2885742188,2.74609375,3.1376953125v4.244140625h-1.779296875v-4.0483398438c0-1.1484375-.5458984375-1.7509765625-1.5966796875-1.7509765625-.8828125,0-1.470703125.6025390625-1.6533203125,1.2607421875v4.5385742188h-1.7783203125v-7.2138671875Z"/><path d="m57.0224609375,134.4243164062l.9658203125-1.1206054688c.4765625.5883789062,1.2890625,1.0786132812,2.1435546875,1.0786132812.7705078125,0,1.31640625-.3081054688,1.31640625-.8403320312,0-.4760742188-.4345703125-.6723632812-1.1201171875-.7846679688l-.64453125-.09765625c-1.3447265625-.2241210938-2.1572265625-.966796875-2.1572265625-2.1435546875,0-1.2465820312,1.064453125-2.2548828125,2.87109375-2.2548828125,1.134765625,0,2.00390625.4760742188,2.5361328125,1.0922851562l-.9384765625,1.134765625c-.462890625-.490234375-1.0087890625-.7705078125-1.6669921875-.7705078125-.6728515625,0-1.0224609375.3081054688-1.0224609375.7006835938,0,.3637695312.279296875.5600585938.7978515625.6440429688l.64453125.0981445312c1.6533203125.251953125,2.4794921875,1.0224609375,2.4794921875,2.283203125,0,1.302734375-1.134765625,2.3955078125-3.166015625,2.3955078125-1.3447265625,0-2.380859375-.6303710938-3.0390625-1.4150390625Z"/><path d="m63.951171875,132.0571289062c0-2.2553710938,1.5263671875-3.7958984375,3.6279296875-3.7958984375s3.4736328125,1.4565429688,3.4736328125,3.5297851562c0,.23828125-.0419921875.57421875-.083984375.8686523438h-5.224609375c.181640625.9663085938.8544921875,1.6245117188,2.1015625,1.6245117188.8818359375,0,1.6240234375-.490234375,2.044921875-1.064453125l.98046875,1.1625976562c-.6728515625.8125-1.7373046875,1.4428710938-3.1103515625,1.4428710938-2.3388671875,0-3.8095703125-1.6669921875-3.8095703125-3.7680664062Zm1.8212890625-.8544921875h3.515625c-.09765625-.9384765625-.7421875-1.470703125-1.708984375-1.470703125-.9248046875,0-1.568359375.5180664062-1.806640625,1.470703125Z"/><path d="m72.7138671875,132.8837890625v-3.0258789062h-1.205078125v-1.4287109375h1.2607421875v-1.8349609375h1.72265625v1.8349609375h1.6669921875v1.4287109375h-1.6669921875v3.1098632812c0,.9243164062.4345703125,1.2465820312,1.3310546875,1.2465820312h.3359375v1.4287109375c-.23828125.0561523438-.5322265625.083984375-.7978515625.083984375-1.7509765625,0-2.6474609375-.8681640625-2.6474609375-2.8432617188Z"/><path d="m77.962890625,132.8837890625v-3.0258789062h-1.205078125v-1.4287109375h1.2607421875v-1.8349609375h1.72265625v1.8349609375h1.6669921875v1.4287109375h-1.6669921875v3.1098632812c0,.9243164062.4345703125,1.2465820312,1.3310546875,1.2465820312h.3359375v1.4287109375c-.23828125.0561523438-.5322265625.083984375-.7978515625.083984375-1.7509765625,0-2.6474609375-.8681640625-2.6474609375-2.8432617188Z"/><path d="m83.689453125,136.2734375h-.98046875v-2.1430664062h2.1572265625v1.8911132812l-.966796875,2.3251953125h-1.0498046875l.83984375-2.0732421875Z"/><path d="m89.5126953125,126.1176757812h1.59765625l5.1826171875,6.5v-6.5h1.8212890625v9.525390625h-1.5830078125l-5.197265625-6.4995117188v6.4995117188h-1.8212890625v-9.525390625Z"/><path d="m99.5029296875,132.0571289062c0-2.2553710938,1.5263671875-3.7958984375,3.6279296875-3.7958984375s3.4736328125,1.4565429688,3.4736328125,3.5297851562c0,.23828125-.0419921875.57421875-.083984375.8686523438h-5.224609375c.181640625.9663085938.8544921875,1.6245117188,2.1015625,1.6245117188.8818359375,0,1.6240234375-.490234375,2.044921875-1.064453125l.98046875,1.1625976562c-.6728515625.8125-1.7373046875,1.4428710938-3.109375,1.4428710938-2.33984375,0-3.810546875-1.6669921875-3.810546875-3.7680664062Zm1.8212890625-.8544921875h3.515625c-.09765625-.9384765625-.7421875-1.470703125-1.708984375-1.470703125-.9248046875,0-1.568359375.5180664062-1.806640625,1.470703125Z"/><path d="m106.833984375,128.4291992188h1.904296875l1.443359375,4.818359375,1.638671875-4.818359375h1.8916015625l1.638671875,4.818359375,1.4423828125-4.818359375h1.9052734375l-2.3671875,7.2138671875h-1.779296875l-1.79296875-5.0146484375-1.779296875,5.0146484375h-1.7783203125l-2.3671875-7.2138671875Z"/><path d="m125.2021484375,131.6650390625l-3.572265625-5.5048828125v-.0424804688h2.1298828125l2.3525390625,3.7543945312,2.353515625-3.7543945312h2.12890625v.0424804688l-3.5712890625,5.5048828125v3.9780273438h-1.8212890625v-3.9780273438Z"/><path d="m129.8447265625,132.04296875c0-1.9750976562,1.31640625-3.7817382812,3.82421875-3.7817382812,2.5068359375,0,3.8232421875,1.806640625,3.8232421875,3.7817382812,0,1.9892578125-1.31640625,3.7963867188-3.8232421875,3.7963867188-2.5078125,0-3.82421875-1.8071289062-3.82421875-3.7963867188Zm1.806640625,0c0,1.3447265625.8544921875,2.2133789062,2.017578125,2.2133789062,1.162109375,0,2.0166015625-.8686523438,2.0166015625-2.2133789062,0-1.3305664062-.8544921875-2.19921875-2.0166015625-2.19921875-1.1630859375,0-2.017578125.8686523438-2.017578125,2.19921875Z"/><path d="m138.681640625,128.4291992188h1.7783203125v1.1206054688c.4208984375-.7705078125,1.12109375-1.2885742188,2.0732421875-1.2885742188h.2099609375v1.6948242188c-1.064453125.0141601562-1.9326171875.322265625-2.283203125,1.4008789062v4.2861328125h-1.7783203125v-7.2138671875Z"/><path d="m143.5791015625,125.6977539062h1.7783203125v5.798828125l2.7880859375-3.0673828125h2.03125v.0561523438l-2.74609375,3.025390625,3.0537109375,4.0903320312v.0419921875h-2.1005859375l-2.0732421875-2.8994140625-.953125,1.0502929688v1.8491210938h-1.7783203125v-9.9453125Z"/><path d="m152.25,136.2734375h-.98046875v-2.1430664062h2.1572265625v1.8911132812l-.966796875,2.3251953125h-1.0498046875l.83984375-2.0732421875Z"/><path d="m157.9619140625,131.5810546875v-5.4633789062h1.8203125v5.3369140625c0,1.625.64453125,2.689453125,2.2275390625,2.689453125,1.5693359375,0,2.212890625-1.064453125,2.212890625-2.689453125v-5.3369140625h1.8212890625v5.4633789062c0,2.451171875-1.3447265625,4.2583007812-4.0341796875,4.2583007812-2.703125,0-4.0478515625-1.8071289062-4.0478515625-4.2583007812Z"/><path d="m166.9462890625,133.6821289062l1.19140625-1.1625976562c.5458984375.8544921875,1.470703125,1.6806640625,2.9130859375,1.6806640625,1.1767578125,0,1.79296875-.5883789062,1.79296875-1.3305664062,0-.6025390625-.419921875-1.064453125-1.541015625-1.2329101562l-.826171875-.1259765625c-1.6806640625-.251953125-2.8154296875-1.21875-2.8154296875-2.689453125,0-1.6108398438,1.31640625-2.8994140625,3.4462890625-2.8994140625,1.470703125,0,2.6748046875.6440429688,3.361328125,1.5405273438l-1.162109375,1.205078125c-.5888671875-.728515625-1.3876953125-1.1069335938-2.2412109375-1.1069335938-.953125,0-1.513671875.5043945312-1.513671875,1.0786132812,0,.560546875.4208984375.966796875,1.2470703125,1.0927734375l.8125.1259765625c1.9609375.2939453125,3.109375,1.2749023438,3.109375,2.8857421875,0,1.8349609375-1.4990234375,3.095703125-3.6982421875,3.095703125-2.1982421875,0-3.4033203125-1.134765625-4.076171875-2.1572265625Z"/><path d="m178.6552734375,126.1176757812h2.142578125l3.7119140625,9.525390625h-1.890625l-.7705078125-2.0170898438h-4.244140625l-.7705078125,2.0170898438h-1.890625l3.7119140625-9.525390625Zm-.4482421875,5.9252929688h3.025390625l-1.5126953125-3.9780273438-1.5126953125,3.9780273438Z"/><path d="m186.6455078125,136.2734375h-.98046875v-2.1430664062h2.1572265625v1.8911132812l-.966796875,2.3251953125h-1.0498046875l.83984375-2.0732421875Z"/><path d="m193.8271484375,128.1489257812l-1.7373046875.9526367188-.658203125-1.38671875,2.84375-1.5971679688h1.330078125v9.525390625h-1.7783203125v-7.494140625Z"/><path d="m204.7890625,130.642578125c0,3.2495117188-1.6943359375,5.1967773438-4.3701171875,5.1967773438-1.52734375,0-2.6337890625-.7426757812-3.236328125-1.6391601562l1.21875-1.0922851562c.40625.6298828125,1.134765625,1.078125,2.017578125,1.078125,1.3310546875,0,2.3251953125-.896484375,2.5068359375-2.619140625-.57421875.6303710938-1.3720703125,1.0786132812-2.46484375,1.0786132812-1.79296875,0-3.333984375-1.3168945312-3.333984375-3.3198242188s1.6669921875-3.4038085938,3.6982421875-3.4038085938c2.60546875,0,3.9638671875,1.9887695312,3.9638671875,4.720703125Zm-5.8271484375-1.3588867188c0,.9384765625.7001953125,1.72265625,1.86328125,1.72265625,1.1484375,0,1.8486328125-.7841796875,1.8486328125-1.72265625,0-.9248046875-.7001953125-1.708984375-1.8486328125-1.708984375-1.1630859375,0-1.86328125.7841796875-1.86328125,1.708984375Z"/><path d="m205.544921875,131.958984375l4.3701171875-5.8413085938h2.3115234375v5.5610351562h1.5830078125v1.5830078125h-1.5830078125v2.3813476562h-1.7646484375v-2.3813476562h-4.9169921875v-1.302734375Zm4.9169921875-.2802734375v-3.6977539062l-2.7041015625,3.6977539062h2.7041015625Z"/><path d="m222.095703125,130.642578125c0,3.2495117188-1.6943359375,5.1967773438-4.3701171875,5.1967773438-1.52734375,0-2.6337890625-.7426757812-3.236328125-1.6391601562l1.21875-1.0922851562c.40625.6298828125,1.134765625,1.078125,2.017578125,1.078125,1.3310546875,0,2.3251953125-.896484375,2.5068359375-2.619140625-.57421875.6303710938-1.3720703125,1.0786132812-2.46484375,1.0786132812-1.79296875,0-3.333984375-1.3168945312-3.333984375-3.3198242188s1.6669921875-3.4038085938,3.6982421875-3.4038085938c2.60546875,0,3.9638671875,1.9887695312,3.9638671875,4.720703125Zm-5.8271484375-1.3588867188c0,.9384765625.7001953125,1.72265625,1.86328125,1.72265625,1.1484375,0,1.8486328125-.7841796875,1.8486328125-1.72265625,0-.9248046875-.7001953125-1.708984375-1.8486328125-1.708984375-1.1630859375,0-1.86328125.7841796875-1.86328125,1.708984375Z"/><path d="m223.583984375,130.6845703125h4.08984375v1.4287109375h-4.08984375v-1.4287109375Z"/><path d="m230.1318359375,128.1489257812l-1.7373046875.9526367188-.658203125-1.38671875,2.84375-1.5971679688h1.330078125v9.525390625h-1.7783203125v-7.494140625Z"/><path d="m241.0927734375,130.642578125c0,3.2495117188-1.6943359375,5.1967773438-4.3701171875,5.1967773438-1.52734375,0-2.6337890625-.7426757812-3.236328125-1.6391601562l1.21875-1.0922851562c.40625.6298828125,1.134765625,1.078125,2.017578125,1.078125,1.3310546875,0,2.3251953125-.896484375,2.5068359375-2.619140625-.57421875.6303710938-1.3720703125,1.0786132812-2.46484375,1.0786132812-1.79296875,0-3.333984375-1.3168945312-3.333984375-3.3198242188s1.6669921875-3.4038085938,3.6982421875-3.4038085938c2.60546875,0,3.9638671875,1.9887695312,3.9638671875,4.720703125Zm-5.8271484375-1.3588867188c0,.9384765625.7001953125,1.72265625,1.86328125,1.72265625,1.1484375,0,1.8486328125-.7841796875,1.8486328125-1.72265625,0-.9248046875-.7001953125-1.708984375-1.8486328125-1.708984375-1.1630859375,0-1.86328125.7841796875-1.86328125,1.708984375Z"/><path d="m241.66796875,134.2421875l1.037109375-1.232421875c.4755859375.5600585938,1.2177734375,1.1762695312,2.4091796875,1.1762695312,1.1767578125,0,2.03125-.658203125,2.03125-1.7368164062,0-.9946289062-.7568359375-1.6245117188-1.8076171875-1.6245117188-.7421875,0-1.302734375.2377929688-1.7509765625.5600585938l-1.1201171875-.3784179688.4482421875-4.888671875h5.5185546875v1.5971679688h-3.9638671875l-.1962890625,1.6528320312c.3642578125-.1123046875.7568359375-.1962890625,1.1904296875-.1962890625,1.9189453125,0,3.501953125,1.0786132812,3.501953125,3.2778320312,0,2.1293945312-1.568359375,3.3901367188-3.8515625,3.3901367188-1.6953125,0-2.830078125-.896484375-3.4462890625-1.5971679688Z"/><path d="m249.9208984375,130.8803710938c0-2.9833984375,1.4296875-4.9584960938,4.0068359375-4.9584960938s4.005859375,1.9750976562,4.005859375,4.9584960938c0,2.9838867188-1.4287109375,4.958984375-4.005859375,4.958984375s-4.0068359375-1.9750976562-4.0068359375-4.958984375Zm6.19140625,0c0-1.9331054688-.6162109375-3.3056640625-2.1845703125-3.3056640625-1.5693359375,0-2.185546875,1.3725585938-2.185546875,3.3056640625s.6162109375,3.3056640625,2.185546875,3.3056640625c1.568359375,0,2.1845703125-1.3725585938,2.1845703125-3.3056640625Z"/><rect class="cls-1" x="0" y="0" width="318.1005859375" height="138.3466796875"/></g></svg>