<?xml version="1.0" encoding="UTF-8"?><svg id="_레이어_2" xmlns="http://www.w3.org/2000/svg" viewBox="0 0 318.1005859375 138.3466796875"><defs><style>.cls-1{fill:none;}</style></defs><g id="Layer_1"><path d="m8.3544921875,5.4213867188c0,3.0405273438-1.4599609375,4.5610351562-3.7607421875,4.5610351562-2.3203125,0-3.8212890625-1.5205078125-3.8212890625-4.5610351562S2.2734375.8603515625,4.59375.8603515625c2.30078125,0,3.7607421875,1.5205078125,3.7607421875,4.5610351562Zm-5.201171875,0c0,1.6401367188.5205078125,2.4604492188,1.4404296875,2.4604492188.900390625,0,1.419921875-.8203125,1.419921875-2.4604492188,0-1.66015625-.51953125-2.48046875-1.419921875-2.48046875-.919921875,0-1.4404296875.8203125-1.4404296875,2.48046875Zm1.1201171875,5.861328125h2.560546875v3.9208984375h9.08203125v2.1801757812H5.2333984375c-.599609375,0-.9599609375-.259765625-.9599609375-.8198242188v-5.28125ZM9.21484375.2001953125h2.400390625v4.2607421875h1.5205078125V0h2.4404296875v12.3227539062h-2.4404296875v-5.701171875h-1.5205078125v5.4013671875h-2.400390625V.2001953125Z"/><path d="m18.1845703125,1.5805664062h8.421875v2.220703125h-5.861328125v6.6611328125h4.4208984375c1.5205078125,0,2.900390625-.2001953125,3.9208984375-.740234375V0h2.560546875v17.2836914062h-2.560546875v-5.7412109375c-1.2607421875.8403320312-3.12109375,1.140625-5.1416015625,1.140625h-4.78125c-.6201171875,0-.9794921875-.240234375-.9794921875-.8203125V1.5805664062Z"/><path d="m38.9033203125,9.1420898438h5.94140625c1.599609375,0,3.80078125-.080078125,5.041015625-.5400390625l.2802734375,1.7802734375c-1.2001953125.6801757812-2.9609375.900390625-4.8017578125.9604492188v5.6411132812h-2.560546875v-5.62109375h-3.900390625v-2.220703125ZM44.32421875.6201171875c2.720703125,0,4.6015625,1.6806640625,4.6015625,3.8212890625,0,2.2602539062-1.880859375,3.8208007812-4.6015625,3.8208007812s-4.62109375-1.560546875-4.62109375-3.8208007812c0-2.140625,1.900390625-3.8212890625,4.62109375-3.8212890625Zm0,5.4614257812c1.2802734375,0,2.1005859375-.6201171875,2.1005859375-1.6401367188,0-1.0405273438-.8203125-1.640625-2.1005859375-1.640625s-2.1005859375.6000976562-2.1005859375,1.640625c0,1.0200195312.8203125,1.6401367188,2.1005859375,1.6401367188Zm6.4013671875-6.0815429688h2.560546875v17.2836914062h-2.560546875v-2.5405273438h-3.30078125v-2.1201171875h3.30078125V0Z"/><path d="m56.8896484375,2.7607421875h12.6025390625v1.8002929688h-1.880859375c.1806640625.2602539062.2802734375.5405273438.2802734375.8603515625,0,1.4604492188-1.140625,2.3403320312-3.4208984375,2.560546875v.7602539062h6.6416015625v1.9204101562h-15.84375v-1.9204101562h6.6416015625v-.7602539062c-2.2998046875-.2202148438-3.4208984375-1.1000976562-3.4208984375-2.560546875,0-.3198242188.1005859375-.6000976562.30078125-.8603515625h-1.900390625v-1.8002929688Zm.7001953125,8.662109375h11.2021484375v4.140625h-8.6416015625v.8203125h9.08203125v1.7202148438h-10.6826171875c-.6005859375,0-.9599609375-.2397460938-.9599609375-.8002929688v-3.3603515625h8.6416015625v-.7602539062h-8.6416015625v-1.7602539062ZM59.830078125.16015625h6.7412109375v1.8603515625h-6.7412109375V.16015625Zm3.3603515625,6.0415039062c1.541015625,0,2.1806640625-.3002929688,2.1806640625-.8603515625s-.6396484375-.8803710938-2.1806640625-.8803710938c-1.5400390625,0-2.16015625.3203125-2.16015625.8803710938s.6201171875.8603515625,2.16015625.8603515625Z"/><path d="m3.7119140625,24.3984375h2.142578125l3.7119140625,9.525390625h-1.890625l-.7705078125-2.0170898438H2.6611328125l-.7705078125,2.0170898438H0l3.7119140625-9.525390625Zm-.4482421875,5.9252929688h3.025390625l-1.5126953125-3.9780273438-1.5126953125,3.9780273438Z"/><path d="m10.35546875,26.7099609375h1.7783203125v1.0083007812c.392578125-.6440429688,1.1630859375-1.1762695312,2.283203125-1.1762695312,1.876953125,0,2.74609375,1.2885742188,2.74609375,3.1376953125v4.244140625h-1.779296875v-4.0483398438c0-1.1484375-.5458984375-1.7509765625-1.5966796875-1.7509765625-.8828125,0-1.470703125.6025390625-1.6533203125,1.2607421875v4.5385742188h-1.7783203125v-7.2138671875Z"/><path d="m24.0126953125,33.0971679688c-.5322265625.6025390625-1.3173828125.9946289062-2.255859375.9946289062-2.0029296875,0-3.4736328125-1.4848632812-3.4736328125-3.7680664062s1.470703125-3.7817382812,3.4736328125-3.7817382812c.9384765625,0,1.7236328125.40625,2.255859375,1.0083007812v-3.5717773438h1.7783203125v9.9453125h-1.7783203125v-.8266601562Zm0-1.6665039062v-2.2133789062c-.322265625-.6865234375-1.0654296875-1.0927734375-1.86328125-1.0927734375-1.1630859375,0-2.0595703125.798828125-2.0595703125,2.19921875,0,1.38671875.896484375,2.185546875,2.0595703125,2.185546875.7978515625,0,1.541015625-.40625,1.86328125-1.0786132812Z"/><path d="m29.4833984375,32.9995117188l-2.8857421875-6.2895507812h1.9052734375l1.9189453125,4.314453125,1.779296875-4.314453125h1.9189453125l-4.23046875,9.6372070312h-1.9189453125l1.5126953125-3.34765625Z"/><path d="m37.0546875,24.3984375h1.8349609375l1.9755859375,7.1020507812,2.1708984375-7.1020507812h2.017578125l2.1708984375,7.1020507812,1.974609375-7.1020507812h1.8349609375l-2.7451171875,9.525390625h-2.03125l-2.212890625-7.0458984375-2.212890625,7.0458984375h-2.017578125l-2.759765625-9.525390625Z"/><path d="m56.818359375,33.0971679688c-.5322265625.6025390625-1.3173828125.9946289062-2.255859375.9946289062-2.0029296875,0-3.4736328125-1.4848632812-3.4736328125-3.7680664062s1.470703125-3.7817382812,3.4736328125-3.7817382812c.9384765625,0,1.7236328125.40625,2.255859375,1.0083007812v-.8403320312h1.7783203125v7.2138671875h-1.7783203125v-.8266601562Zm0-1.6665039062v-2.2133789062c-.322265625-.6865234375-1.0654296875-1.0927734375-1.86328125-1.0927734375-1.1630859375,0-2.0595703125.798828125-2.0595703125,2.19921875,0,1.38671875.896484375,2.185546875,2.0595703125,2.185546875.7978515625,0,1.541015625-.40625,1.86328125-1.0786132812Z"/><path d="m60.19921875,26.7099609375h1.7783203125v1.1206054688c.4208984375-.7705078125,1.12109375-1.2885742188,2.0732421875-1.2885742188h.2099609375v1.6948242188c-1.064453125.0141601562-1.9326171875.322265625-2.283203125,1.4008789062v4.2861328125h-1.7783203125v-7.2138671875Z"/><path d="m65.095703125,23.978515625h1.7783203125v3.7397460938c.392578125-.6440429688,1.1630859375-1.1762695312,2.283203125-1.1762695312,1.876953125,0,2.74609375,1.2885742188,2.74609375,3.1376953125v4.244140625h-1.779296875v-4.0483398438c0-1.1484375-.5458984375-1.7509765625-1.5966796875-1.7509765625-.953125,0-1.4990234375.7006835938-1.6533203125,1.2607421875v4.5385742188h-1.7783203125v-9.9453125Z"/><path d="m73.01953125,30.3237304688c0-1.9750976562,1.31640625-3.7817382812,3.8232421875-3.7817382812,2.5078125,0,3.82421875,1.806640625,3.82421875,3.7817382812,0,1.9892578125-1.31640625,3.7963867188-3.82421875,3.7963867188-2.5068359375,0-3.8232421875-1.8071289062-3.8232421875-3.7963867188Zm1.806640625,0c0,1.3447265625.8544921875,2.2133789062,2.0166015625,2.2133789062,1.1630859375,0,2.017578125-.8686523438,2.017578125-2.2133789062,0-1.3305664062-.8544921875-2.19921875-2.017578125-2.19921875-1.162109375,0-2.0166015625.8686523438-2.0166015625,2.19921875Z"/><path d="m81.873046875,23.978515625h1.7783203125v9.9453125h-1.7783203125v-9.9453125Z"/><path d="m4.533203125,61.5h2.5810546875v.759765625c0,2.7407226562,1.3203125,4.0610351562,3.9208984375,5.1010742188l-1.140625,2.0205078125c-1.8203125-.6201171875-3.4609375-1.9404296875-3.9404296875-3.3408203125-.48046875,1.5205078125-2.0009765625,2.9609375-4.1611328125,3.7612304688l-1.16015625-2.0205078125c2.6201171875-1.1401367188,3.900390625-2.6806640625,3.900390625-5.3813476562v-.8999023438Zm-.279296875,8.921875h10.822265625v4.9409179688H6.7939453125v1.1401367188h8.7216796875v2.0004882812H5.2138671875c-.6005859375,0-.9599609375-.2602539062-.9599609375-.8203125v-4.220703125h8.28125v-1.080078125H4.25390625v-1.9604492188Zm8.26171875-9.5024414062h2.560546875v8.7021484375h-2.560546875v-8.7021484375Z"/><path d="m17.900390625,62.3598632812h2.5v3.4208984375h3.3408203125v-3.4208984375h2.4609375v4.541015625h2.7607421875v-5.9814453125h2.560546875v17.2836914062h-2.560546875v-9.1015625h-2.7607421875v4.7006835938h-7.3212890625c-.6201171875,0-.98046875-.2397460938-.98046875-.8198242188v-10.6225585938Zm2.5,5.5615234375v3.7006835938h3.3408203125v-3.7006835938h-3.3408203125Z"/><path d="m39.4990234375,64.8203125h2.400390625v2.2407226562c0,.580078125,0,1.0200195312.1005859375,1.48046875h1.0595703125c.080078125-.48046875.1201171875-.900390625.1201171875-1.48046875v-2.2407226562h2.380859375v1.7607421875c0,.8798828125-.2197265625,1.4799804688-.560546875,1.9404296875.80078125-.0200195312,1.5009765625-.1000976562,2.140625-.3403320312v-7.0615234375h2.4208984375v3.880859375h1.419921875v-4.0810546875h2.4404296875v10.5224609375h-2.4404296875v-4.30078125h-1.419921875v4.2006835938h-2.4208984375v-1.3803710938c-1.2197265625.7202148438-3.2607421875.66015625-5.2412109375.66015625h-3.400390625v-2.080078125h1.580078125c-.33984375-.4604492188-.580078125-1.0805664062-.580078125-1.9604492188v-1.7607421875Zm-.7001953125-2.8603515625h7.4619140625v2.1206054688h-7.4619140625v-2.1206054688Zm3.12109375,10.4624023438h11.501953125v6.0610351562h-2.560546875v-3.880859375h-8.94140625v-2.1801757812Z"/><path d="m57.5185546875,62.2197265625h11.2822265625v2.1206054688h-8.7216796875v1.5405273438h8.341796875v2.0205078125h-8.341796875v1.580078125h8.94140625v2.1206054688h-4.5810546875v2.5205078125h6.6416015625v2.2202148438h-15.84375v-2.2202148438h6.6416015625v-2.5205078125h-3.400390625c-.6005859375,0-.9599609375-.2602539062-.9599609375-.8203125v-8.5620117188Z"/><path d="m72.712890625,62.4599609375h8.28125v6.7216796875h-5.720703125v2.5405273438h4.5009765625c1.48046875,0,2.8408203125-.2001953125,3.8408203125-.7202148438v-10.0825195312h2.560546875v17.2836914062h-2.560546875v-5.4409179688c-1.2607421875.8203125-3.060546875,1.1401367188-5.0615234375,1.1401367188h-4.861328125c-.6201171875,0-.9794921875-.2397460938-.9794921875-.8203125v-6.0009765625h5.7607421875v-2.4404296875h-5.7607421875v-2.1806640625Z"/><path d="m.6923828125,94.5615234375h15.84375v2.220703125h-3.5810546875v5.5009765625h-2.580078125v-5.5009765625h-3.48046875v5.5009765625h-2.560546875v-5.5009765625H.6923828125v-2.220703125Zm2.380859375-9.0815429688h2.560546875v4.720703125h8.921875v2.220703125H4.033203125c-.599609375,0-.9599609375-.240234375-.9599609375-.8203125v-6.12109375Z"/><path d="m17.865234375,93.5815429688h3.8408203125v-2.4404296875c-.8798828125-.5600585938-1.3798828125-1.400390625-1.3798828125-2.4404296875,0-2.140625,2.0205078125-3.5009765625,5.4609375-3.5009765625,3.44140625,0,5.4619140625,1.3603515625,5.4619140625,3.5009765625,0,1.0400390625-.5009765625,1.8803710938-1.380859375,2.4404296875v2.4404296875h3.8408203125v2.0805664062h-15.84375v-2.0805664062Zm2.0810546875,3.4409179688h11.4423828125v5.8208007812h-2.560546875v-3.720703125h-8.8818359375v-2.1000976562Zm5.8408203125-6.921875c1.8603515625,0,2.9013671875-.4799804688,2.9013671875-1.3999023438,0-.9204101562-1.041015625-1.400390625-2.9013671875-1.400390625s-2.900390625.4799804688-2.900390625,1.400390625c0,.919921875,1.0400390625,1.3999023438,2.900390625,1.3999023438Zm-1.5595703125,3.4809570312h3.1201171875v-1.5805664062c-.48046875.080078125-1.0205078125.1201171875-1.560546875.1201171875-.5595703125,0-1.080078125-.0400390625-1.5595703125-.1201171875v1.5805664062Z"/><path d="m35.8984375,100.8432617188h-1.400390625v-3.0610351562h3.080078125v2.7006835938l-1.3798828125,3.3208007812h-1.5l1.2001953125-2.9604492188Z"/><path d="m44.5380859375,86.5h8.3818359375v11.2026367188h-7.40234375c-.6201171875,0-.9794921875-.240234375-.9794921875-.8203125v-10.3823242188Zm2.5,2.1806640625v6.8413085938h3.4208984375v-6.8413085938h-3.4208984375Zm8.40234375-3.7612304688h2.560546875v17.2836914062h-2.560546875v-17.2836914062Z"/><path d="m62.3125,85.6396484375h11.142578125v1.560546875c0,1.8603515625-.33984375,3.4604492188-1.0205078125,4.7607421875h3.4609375v2.0805664062h-6.6416015625v2.380859375h4.3212890625v6.4208984375h-2.560546875v-4.3208007812h-8.8818359375v-2.1000976562h4.560546875v-2.380859375h-6.6416015625v-2.0805664062h10.1630859375c.4794921875-1.2202148438.6396484375-2.7202148438.6396484375-3.8608398438v-.259765625h-8.5419921875v-2.2006835938Z"/><path d="m78.0849609375,100.8432617188h-1.400390625v-3.0610351562h3.080078125v2.7006835938l-1.3798828125,3.3208007812h-1.5l1.2001953125-2.9604492188Z"/><path d="m88.544921875,89.2407226562l-2.48046875,1.3603515625-.9404296875-1.98046875,4.060546875-2.2807617188h1.900390625v13.6030273438h-2.5400390625v-10.7021484375Z"/><path d="m104.2705078125,92.8012695312c0,4.6411132812-2.4208984375,7.421875-6.2412109375,7.421875-2.1806640625,0-3.7607421875-1.060546875-4.62109375-2.3408203125l1.740234375-1.5600585938c.580078125.8999023438,1.6201171875,1.5400390625,2.880859375,1.5400390625,1.900390625,0,3.3203125-1.2802734375,3.580078125-3.7407226562-.8193359375.900390625-1.9599609375,1.5405273438-3.5205078125,1.5405273438-2.560546875,0-4.7607421875-1.8803710938-4.7607421875-4.7412109375,0-2.8603515625,2.3798828125-4.8608398438,5.28125-4.8608398438,3.720703125,0,5.6611328125,2.8403320312,5.6611328125,6.7412109375Zm-8.322265625-1.9404296875c0,1.3403320312,1.0009765625,2.4604492188,2.6611328125,2.4604492188,1.6396484375,0,2.640625-1.1201171875,2.640625-2.4604492188,0-1.3203125-1.0009765625-2.4404296875-2.640625-2.4404296875-1.66015625,0-2.6611328125,1.1201171875-2.6611328125,2.4404296875Z"/><path d="m105.8916015625,93.4814453125c0-4.6411132812,2.419921875-7.4213867188,6.2412109375-7.4213867188,2.1806640625,0,3.7607421875,1.0600585938,4.62109375,2.3403320312l-1.740234375,1.560546875c-.580078125-.900390625-1.6201171875-1.5405273438-2.880859375-1.5405273438-1.900390625,0-3.3408203125,1.3002929688-3.6005859375,3.7407226562.8203125-.8999023438,1.98046875-1.5400390625,3.541015625-1.5400390625,2.560546875,0,4.7607421875,1.8803710938,4.7607421875,4.7407226562,0,2.8608398438-2.380859375,4.861328125-5.28125,4.861328125-3.720703125,0-5.6611328125-2.8408203125-5.6611328125-6.7416992188Zm8.3212890625,1.9404296875c0-1.3403320312-1-2.4604492188-2.66015625-2.4604492188-1.640625,0-2.640625,1.1201171875-2.640625,2.4604492188,0,1.3203125,1,2.4404296875,2.640625,2.4404296875,1.66015625,0,2.66015625-1.1201171875,2.66015625-2.4404296875Z"/><path d="m118.037109375,94.681640625l6.2412109375-8.341796875h3.30078125v7.9418945312h2.2607421875v2.2602539062h-2.2607421875v3.4008789062h-2.5205078125v-3.4008789062h-7.021484375v-1.8603515625Zm7.021484375-.3999023438v-5.28125l-3.8603515625,5.28125h3.8603515625Z"/><path d="m131.6982421875,92.861328125h5.841796875v2.0405273438h-5.841796875v-2.0405273438Z"/><path d="m141.1103515625,89.2407226562l-2.48046875,1.3603515625-.9404296875-1.98046875,4.060546875-2.2807617188h1.900390625v13.6030273438h-2.5400390625v-10.7021484375Z"/><path d="m156.8359375,92.8012695312c0,4.6411132812-2.4208984375,7.421875-6.2412109375,7.421875-2.1806640625,0-3.7607421875-1.060546875-4.62109375-2.3408203125l1.740234375-1.5600585938c.580078125.8999023438,1.6201171875,1.5400390625,2.880859375,1.5400390625,1.900390625,0,3.3203125-1.2802734375,3.580078125-3.7407226562-.8193359375.900390625-1.9599609375,1.5405273438-3.5205078125,1.5405273438-2.560546875,0-4.7607421875-1.8803710938-4.7607421875-4.7412109375,0-2.8603515625,2.380859375-4.8608398438,5.28125-4.8608398438,3.720703125,0,5.6611328125,2.8403320312,5.6611328125,6.7412109375Zm-8.322265625-1.9404296875c0,1.3403320312,1.0009765625,2.4604492188,2.6611328125,2.4604492188,1.6396484375,0,2.640625-1.1201171875,2.640625-2.4604492188,0-1.3203125-1.0009765625-2.4404296875-2.640625-2.4404296875-1.66015625,0-2.6611328125,1.1201171875-2.6611328125,2.4404296875Z"/><path d="m158.4580078125,93.4814453125c0-4.6411132812,2.419921875-7.4213867188,6.2412109375-7.4213867188,2.1806640625,0,3.7607421875,1.0600585938,4.62109375,2.3403320312l-1.740234375,1.560546875c-.580078125-.900390625-1.6201171875-1.5405273438-2.880859375-1.5405273438-1.900390625,0-3.3408203125,1.3002929688-3.6005859375,3.7407226562.8203125-.8999023438,1.98046875-1.5400390625,3.541015625-1.5400390625,2.560546875,0,4.7607421875,1.8803710938,4.7607421875,4.7407226562,0,2.8608398438-2.380859375,4.861328125-5.28125,4.861328125-3.720703125,0-5.6611328125-2.8408203125-5.6611328125-6.7416992188Zm8.3212890625,1.9404296875c0-1.3403320312-1-2.4604492188-2.66015625-2.4604492188-1.640625,0-2.640625,1.1201171875-2.640625,2.4604492188,0,1.3203125,1,2.4404296875,2.640625,2.4404296875,1.66015625,0,2.66015625-1.1201171875,2.66015625-2.4404296875Z"/><path d="m171.873046875,99.8828125l5.4013671875-11.2622070312h-6.701171875v-2.2807617188h9.6220703125v1.8403320312l-5.4619140625,11.7626953125h-2.8603515625v-.0600585938Z"/><path d="m.1953125,116.8823242188l1.19140625-1.1625976562c.5458984375.8544921875,1.470703125,1.6806640625,2.9130859375,1.6806640625,1.1767578125,0,1.79296875-.5883789062,1.79296875-1.3305664062,0-.6025390625-.419921875-1.064453125-1.541015625-1.2329101562l-.826171875-.1259765625c-1.6806640625-.251953125-2.8154296875-1.21875-2.8154296875-2.689453125,0-1.6108398438,1.31640625-2.8994140625,3.4462890625-2.8994140625,1.470703125,0,2.6748046875.6440429688,3.361328125,1.5405273438l-1.162109375,1.205078125c-.5888671875-.728515625-1.38671875-1.1069335938-2.2412109375-1.1069335938-.953125,0-1.513671875.5043945312-1.513671875,1.0786132812,0,.560546875.4208984375.966796875,1.2470703125,1.0927734375l.8125.1259765625c1.9609375.2939453125,3.109375,1.2749023438,3.109375,2.8857421875,0,1.8349609375-1.4990234375,3.095703125-3.697265625,3.095703125-2.19921875,0-3.404296875-1.134765625-4.0771484375-2.1572265625Z"/><path d="m9.1494140625,108.5615234375h1.8212890625v1.8491210938h-1.8212890625v-1.8491210938Zm.0283203125,3.0678710938h1.7783203125v7.2138671875h-1.7783203125v-7.2138671875Z"/><path d="m12.5400390625,108.8979492188h1.7783203125v9.9453125h-1.7783203125v-9.9453125Z"/><path d="m15.1044921875,111.6293945312h1.9052734375l1.9189453125,5.0146484375,1.9189453125-5.0146484375h1.9052734375l-2.94140625,7.2138671875h-1.779296875l-2.927734375-7.2138671875Z"/><path d="m22.8447265625,115.2573242188c0-2.2553710938,1.5263671875-3.7958984375,3.6279296875-3.7958984375s3.4736328125,1.4565429688,3.4736328125,3.5297851562c0,.23828125-.0419921875.57421875-.083984375.8686523438h-5.224609375c.181640625.9663085938.8544921875,1.6245117188,2.1015625,1.6245117188.8818359375,0,1.6240234375-.490234375,2.044921875-1.064453125l.98046875,1.1625976562c-.6728515625.8125-1.7373046875,1.4428710938-3.109375,1.4428710938-2.33984375,0-3.810546875-1.6669921875-3.810546875-3.7680664062Zm1.8212890625-.8544921875h3.515625c-.09765625-.9384765625-.7421875-1.470703125-1.708984375-1.470703125-.9248046875,0-1.568359375.5180664062-1.806640625,1.470703125Z"/><path d="m31.1455078125,111.6293945312h1.7783203125v1.1206054688c.4208984375-.7705078125,1.12109375-1.2885742188,2.0732421875-1.2885742188h.2099609375v1.6948242188c-1.064453125.0141601562-1.9326171875.322265625-2.283203125,1.4008789062v4.2861328125h-1.7783203125v-7.2138671875Z"/><path d="m39.2646484375,109.3178710938h6.5556640625v1.5971679688h-4.734375v2.3813476562h4.2021484375v1.5966796875h-4.2021484375v3.9501953125h-1.8212890625v-9.525390625Z"/><path d="m52.078125,118.0166015625c-.5322265625.6025390625-1.3173828125.9946289062-2.255859375.9946289062-2.0029296875,0-3.4736328125-1.4848632812-3.4736328125-3.7680664062s1.470703125-3.7817382812,3.4736328125-3.7817382812c.9384765625,0,1.7236328125.40625,2.255859375,1.0083007812v-.8403320312h1.7783203125v7.2138671875h-1.7783203125v-.8266601562Zm0-1.6665039062v-2.2133789062c-.322265625-.6865234375-1.0654296875-1.0927734375-1.86328125-1.0927734375-1.1630859375,0-2.0595703125.798828125-2.0595703125,2.19921875,0,1.38671875.896484375,2.185546875,2.0595703125,2.185546875.7978515625,0,1.541015625-.40625,1.86328125-1.0786132812Z"/><path d="m55.0517578125,115.2431640625c0-1.9750976562,1.3583984375-3.7817382812,3.75390625-3.7817382812,1.45703125,0,2.5068359375.6723632812,3.20703125,1.79296875l-1.259765625.9663085938c-.392578125-.6865234375-.9951171875-1.1767578125-1.849609375-1.1767578125-1.232421875,0-2.044921875.8544921875-2.044921875,2.19921875,0,1.3310546875.8125,2.185546875,2.044921875,2.185546875.8544921875,0,1.45703125-.4907226562,1.849609375-1.1767578125l1.259765625.9663085938c-.7001953125,1.1206054688-1.75,1.79296875-3.20703125,1.79296875-2.3955078125,0-3.75390625-1.806640625-3.75390625-3.7680664062Z"/><path d="m63.8017578125,116.083984375v-3.0258789062h-1.205078125v-1.4287109375h1.2607421875v-1.8349609375h1.72265625v1.8349609375h1.6669921875v1.4287109375h-1.6669921875v3.1098632812c0,.9243164062.4345703125,1.2465820312,1.3310546875,1.2465820312h.3359375v1.4287109375c-.23828125.0561523438-.5322265625.083984375-.7978515625.083984375-1.7509765625,0-2.6474609375-.8681640625-2.6474609375-2.8432617188Z"/><path d="m67.7919921875,115.2431640625c0-1.9750976562,1.31640625-3.7817382812,3.82421875-3.7817382812,2.5068359375,0,3.8232421875,1.806640625,3.8232421875,3.7817382812,0,1.9892578125-1.31640625,3.7963867188-3.8232421875,3.7963867188-2.5078125,0-3.82421875-1.8071289062-3.82421875-3.7963867188Zm1.806640625,0c0,1.3447265625.8544921875,2.2133789062,2.017578125,2.2133789062,1.162109375,0,2.0166015625-.8686523438,2.0166015625-2.2133789062,0-1.3305664062-.8544921875-2.19921875-2.0166015625-2.19921875-1.1630859375,0-2.017578125.8686523438-2.017578125,2.19921875Z"/><path d="m76.62890625,111.6293945312h1.7783203125v1.1206054688c.4208984375-.7705078125,1.12109375-1.2885742188,2.0732421875-1.2885742188h.2099609375v1.6948242188c-1.064453125.0141601562-1.9326171875.322265625-2.283203125,1.4008789062v4.2861328125h-1.7783203125v-7.2138671875Z"/><path d="m84.0205078125,117.9189453125l-2.8857421875-6.2895507812h1.9052734375l1.9189453125,4.314453125,1.779296875-4.314453125h1.9189453125l-4.23046875,9.6372070312h-1.9189453125l1.5126953125-3.34765625Z"/><path d="m1.0498046875,126.1176757812h1.59765625l5.1826171875,6.5v-6.5h1.8212890625v9.525390625h-1.5830078125l-5.197265625-6.4995117188v6.4995117188h-1.8212890625v-9.525390625Z"/><path d="m11.0400390625,132.0571289062c0-2.2553710938,1.5263671875-3.7958984375,3.6279296875-3.7958984375s3.4736328125,1.4565429688,3.4736328125,3.5297851562c0,.23828125-.0419921875.57421875-.083984375.8686523438h-5.224609375c.181640625.9663085938.8544921875,1.6245117188,2.1015625,1.6245117188.8818359375,0,1.6240234375-.490234375,2.044921875-1.064453125l.98046875,1.1625976562c-.6728515625.8125-1.7373046875,1.4428710938-3.109375,1.4428710938-2.33984375,0-3.810546875-1.6669921875-3.810546875-3.7680664062Zm1.8212890625-.8544921875h3.515625c-.09765625-.9384765625-.7421875-1.470703125-1.708984375-1.470703125-.9248046875,0-1.568359375.5180664062-1.806640625,1.470703125Z"/><path d="m18.3701171875,128.4291992188h1.904296875l1.443359375,4.818359375,1.638671875-4.818359375h1.890625l1.6396484375,4.818359375,1.4423828125-4.818359375h1.9052734375l-2.3671875,7.2138671875h-1.779296875l-1.79296875-5.0146484375-1.779296875,5.0146484375h-1.7783203125l-2.3671875-7.2138671875Z"/><path d="m36.7392578125,131.6650390625l-3.572265625-5.5048828125v-.0424804688h2.1298828125l2.3525390625,3.7543945312,2.353515625-3.7543945312h2.12890625v.0424804688l-3.5712890625,5.5048828125v3.9780273438h-1.8212890625v-3.9780273438Z"/><path d="m41.3818359375,132.04296875c0-1.9750976562,1.31640625-3.7817382812,3.82421875-3.7817382812,2.5068359375,0,3.8232421875,1.806640625,3.8232421875,3.7817382812,0,1.9892578125-1.31640625,3.7963867188-3.8232421875,3.7963867188-2.5078125,0-3.82421875-1.8071289062-3.82421875-3.7963867188Zm1.806640625,0c0,1.3447265625.8544921875,2.2133789062,2.017578125,2.2133789062,1.162109375,0,2.0166015625-.8686523438,2.0166015625-2.2133789062,0-1.3305664062-.8544921875-2.19921875-2.0166015625-2.19921875-1.1630859375,0-2.017578125.8686523438-2.017578125,2.19921875Z"/><path d="m50.21875,128.4291992188h1.7783203125v1.1206054688c.4208984375-.7705078125,1.12109375-1.2885742188,2.0732421875-1.2885742188h.2099609375v1.6948242188c-1.064453125.0141601562-1.9326171875.322265625-2.283203125,1.4008789062v4.2861328125h-1.7783203125v-7.2138671875Z"/><path d="m55.1162109375,125.6977539062h1.7783203125v5.798828125l2.7880859375-3.0673828125h2.03125v.0561523438l-2.74609375,3.025390625,3.0537109375,4.0903320312v.0419921875h-2.1005859375l-2.0732421875-2.8994140625-.953125,1.0502929688v1.8491210938h-1.7783203125v-9.9453125Z"/><path d="m63.787109375,136.2734375h-.98046875v-2.1430664062h2.1572265625v1.8911132812l-.966796875,2.3251953125h-1.0498046875l.83984375-2.0732421875Z"/><path d="m69.4990234375,131.5810546875v-5.4633789062h1.8203125v5.3369140625c0,1.625.64453125,2.689453125,2.2275390625,2.689453125,1.5693359375,0,2.212890625-1.064453125,2.212890625-2.689453125v-5.3369140625h1.8212890625v5.4633789062c0,2.451171875-1.3447265625,4.2583007812-4.0341796875,4.2583007812-2.703125,0-4.0478515625-1.8071289062-4.0478515625-4.2583007812Z"/><path d="m78.482421875,133.6821289062l1.19140625-1.1625976562c.5458984375.8544921875,1.470703125,1.6806640625,2.9130859375,1.6806640625,1.1767578125,0,1.79296875-.5883789062,1.79296875-1.3305664062,0-.6025390625-.419921875-1.064453125-1.541015625-1.2329101562l-.826171875-.1259765625c-1.6806640625-.251953125-2.8154296875-1.21875-2.8154296875-2.689453125,0-1.6108398438,1.31640625-2.8994140625,3.4462890625-2.8994140625,1.470703125,0,2.6748046875.6440429688,3.361328125,1.5405273438l-1.162109375,1.205078125c-.5888671875-.728515625-1.38671875-1.1069335938-2.2412109375-1.1069335938-.953125,0-1.513671875.5043945312-1.513671875,1.0786132812,0,.560546875.4208984375.966796875,1.2470703125,1.0927734375l.8125.1259765625c1.9609375.2939453125,3.109375,1.2749023438,3.109375,2.8857421875,0,1.8349609375-1.4990234375,3.095703125-3.697265625,3.095703125-2.19921875,0-3.404296875-1.134765625-4.0771484375-2.1572265625Z"/><path d="m90.1923828125,126.1176757812h2.142578125l3.7119140625,9.525390625h-1.890625l-.7705078125-2.0170898438h-4.244140625l-.7705078125,2.0170898438h-1.890625l3.7119140625-9.525390625Zm-.4482421875,5.9252929688h3.025390625l-1.5126953125-3.9780273438-1.5126953125,3.9780273438Z"/><path d="m98.181640625,136.2734375h-.98046875v-2.1430664062h2.1572265625v1.8911132812l-.966796875,2.3251953125h-1.0498046875l.83984375-2.0732421875Z"/><path d="m105.3642578125,128.1489257812l-1.7373046875.9526367188-.658203125-1.38671875,2.84375-1.5971679688h1.330078125v9.525390625h-1.7783203125v-7.494140625Z"/><path d="m116.326171875,130.642578125c0,3.2495117188-1.6943359375,5.1967773438-4.3701171875,5.1967773438-1.52734375,0-2.6337890625-.7426757812-3.236328125-1.6391601562l1.21875-1.0922851562c.40625.6298828125,1.134765625,1.078125,2.017578125,1.078125,1.3310546875,0,2.3251953125-.896484375,2.5068359375-2.619140625-.57421875.6303710938-1.3720703125,1.0786132812-2.46484375,1.0786132812-1.79296875,0-3.333984375-1.3168945312-3.333984375-3.3198242188s1.6669921875-3.4038085938,3.6982421875-3.4038085938c2.60546875,0,3.9638671875,1.9887695312,3.9638671875,4.720703125Zm-5.8271484375-1.3588867188c0,.9384765625.7001953125,1.72265625,1.86328125,1.72265625,1.1484375,0,1.8486328125-.7841796875,1.8486328125-1.72265625,0-.9248046875-.7001953125-1.708984375-1.8486328125-1.708984375-1.1630859375,0-1.86328125.7841796875-1.86328125,1.708984375Z"/><path d="m117.4091796875,131.1186523438c0-3.25,1.6953125-5.1967773438,4.3701171875-5.1967773438,1.52734375,0,2.6337890625.7421875,3.236328125,1.638671875l-1.21875,1.0927734375c-.40625-.6303710938-1.134765625-1.0786132812-2.017578125-1.0786132812-1.330078125,0-2.3388671875.9106445312-2.521484375,2.6196289062.5751953125-.6303710938,1.3876953125-1.0786132812,2.4794921875-1.0786132812,1.79296875,0,3.333984375,1.31640625,3.333984375,3.3198242188,0,2.0029296875-1.6669921875,3.4038085938-3.6982421875,3.4038085938-2.60546875,0-3.9638671875-1.9892578125-3.9638671875-4.720703125Zm5.8271484375,1.3588867188c0-.9384765625-.7001953125-1.7231445312-1.86328125-1.7231445312-1.1484375,0-1.8486328125.7846679688-1.8486328125,1.7231445312,0,.9243164062.7001953125,1.7084960938,1.8486328125,1.7084960938,1.1630859375,0,1.86328125-.7841796875,1.86328125-1.7084960938Z"/><path d="m125.8623046875,131.958984375l4.3701171875-5.8413085938h2.3115234375v5.5610351562h1.5830078125v1.5830078125h-1.5830078125v2.3813476562h-1.7646484375v-2.3813476562h-4.9169921875v-1.302734375Zm4.9169921875-.2802734375v-3.6977539062l-2.7041015625,3.6977539062h2.7041015625Z"/><path d="m135.373046875,130.6845703125h4.08984375v1.4287109375h-4.08984375v-1.4287109375Z"/><path d="m141.919921875,128.1489257812l-1.7373046875.9526367188-.658203125-1.38671875,2.84375-1.5971679688h1.330078125v9.525390625h-1.7783203125v-7.494140625Z"/><path d="m152.8818359375,130.642578125c0,3.2495117188-1.6943359375,5.1967773438-4.3701171875,5.1967773438-1.52734375,0-2.6337890625-.7426757812-3.236328125-1.6391601562l1.21875-1.0922851562c.40625.6298828125,1.134765625,1.078125,2.017578125,1.078125,1.3310546875,0,2.3251953125-.896484375,2.5068359375-2.619140625-.57421875.6303710938-1.3720703125,1.0786132812-2.46484375,1.0786132812-1.79296875,0-3.333984375-1.3168945312-3.333984375-3.3198242188s1.6669921875-3.4038085938,3.6982421875-3.4038085938c2.60546875,0,3.9638671875,1.9887695312,3.9638671875,4.720703125Zm-5.8271484375-1.3588867188c0,.9384765625.7001953125,1.72265625,1.86328125,1.72265625,1.1484375,0,1.8486328125-.7841796875,1.8486328125-1.72265625,0-.9248046875-.7001953125-1.708984375-1.8486328125-1.708984375-1.1630859375,0-1.86328125.7841796875-1.86328125,1.708984375Z"/><path d="m153.9658203125,131.1186523438c0-3.25,1.6953125-5.1967773438,4.3701171875-5.1967773438,1.52734375,0,2.6337890625.7421875,3.236328125,1.638671875l-1.21875,1.0927734375c-.40625-.6303710938-1.134765625-1.0786132812-2.017578125-1.0786132812-1.330078125,0-2.3388671875.9106445312-2.521484375,2.6196289062.5751953125-.6303710938,1.3876953125-1.0786132812,2.4794921875-1.0786132812,1.79296875,0,3.333984375,1.31640625,3.333984375,3.3198242188,0,2.0029296875-1.6669921875,3.4038085938-3.6982421875,3.4038085938-2.60546875,0-3.9638671875-1.9892578125-3.9638671875-4.720703125Zm5.8271484375,1.3588867188c0-.9384765625-.7001953125-1.7231445312-1.86328125-1.7231445312-1.1484375,0-1.8486328125.7846679688-1.8486328125,1.7231445312,0,.9243164062.7001953125,1.7084960938,1.8486328125,1.7084960938,1.1630859375,0,1.86328125-.7841796875,1.86328125-1.7084960938Z"/><path d="m163.3076171875,135.6010742188l3.7822265625-7.8862304688h-4.6923828125v-1.5971679688h6.7373046875v1.2890625l-3.82421875,8.236328125h-2.0029296875v-.0419921875Z"/><rect class="cls-1" y="0" width="318.1005859375" height="138.3466796875"/></g></svg>