<?xml version="1.0" encoding="UTF-8"?><svg id="_레이어_2" xmlns="http://www.w3.org/2000/svg" viewBox="0 0 318.1005859375 135.8393554688"><defs><style>.cls-1{fill:none;}</style></defs><g id="Layer_1"><path d="m1.3603515625,1.6005859375h8.361328125v11.1826171875H2.3203125c-.599609375,0-.9599609375-.240234375-.9599609375-.8002929688V1.6005859375Zm2.5,2.1806640625v6.8212890625h3.4013671875V3.78125h-3.4013671875ZM11.962890625,0h2.560546875v5.861328125h2.3603515625v2.220703125h-2.3603515625v9.2016601562h-2.560546875V0Z"/><path d="m17.66796875,1.6005859375h8.2021484375v1.48046875c0,5.0009765625-2.80078125,8.3217773438-7.9619140625,10.3818359375l-1.060546875-2.2202148438c3.80078125-1.4604492188,6.4619140625-4.1010742188,6.4619140625-7.44140625h-5.6416015625V1.6005859375Zm10.6025390625-1.6005859375h2.560546875v5.861328125h2.3603515625v2.220703125h-2.3603515625v9.2016601562h-2.560546875V0Z"/><path d="m34.53125,1.5805664062h6.0009765625v6.521484375h-3.560546875v2.4404296875h1.5205078125c1.240234375,0,2.2802734375-.080078125,3.16015625-.3798828125l.419921875,1.6801757812c-1.1796875.7202148438-2.7001953125.8603515625-4.6005859375.8603515625h-1.9609375c-.6201171875,0-.9794921875-.2602539062-.9794921875-.8203125v-5.8212890625h3.6201171875v-2.3403320312h-3.6201171875V1.5805664062Zm8.3212890625-1.2802734375h2.4208984375v16.4833984375h-2.4208984375V7.1416015625h-1.640625v-2.1801757812h1.640625V.3002929688Zm3.7412109375-.3002929688h2.4404296875v17.2836914062h-2.4404296875V0Z"/><path d="m51.5078125,1.5805664062h6.1806640625v2.1606445312h-3.7607421875v2.3403320312h3.2607421875v2.0405273438h-3.2607421875v2.4404296875h1.7001953125c1.1611328125,0,2.1005859375-.1201171875,2.94140625-.3999023438.1396484375.580078125.259765625,1.1401367188.419921875,1.7001953125-1.1806640625.7001953125-2.6611328125.8403320312-4.5615234375.8403320312h-1.9599609375c-.6005859375,0-.9599609375-.240234375-.9599609375-.8203125V1.5805664062Zm8.3212890625-1.2802734375h2.400390625v16.4833984375h-2.400390625V7.8017578125h-1.8603515625v-2.1801757812h1.8603515625V.3002929688Zm3.720703125-.3002929688h2.4404296875v17.2836914062h-2.4404296875V0Z"/><path d="m72.7666015625,9.7021484375h7.921875c1.48046875,0,2.8603515625-.1201171875,3.900390625-.580078125V0h2.560546875v17.2836914062h-2.560546875v-6.3413085938c-1.2998046875.7602539062-3.080078125.9604492188-4.9609375.98046875v5.0610351562h-2.560546875v-5.0610351562h-4.30078125v-2.220703125Zm4.1611328125-8.9018554688h2.6005859375v.9604492188c0,2.060546875,1.4599609375,3.560546875,3.9208984375,4.2407226562l-.9609375,2.0805664062c-1.9599609375-.4599609375-3.720703125-1.8203125-4.1806640625-3.1005859375-.4599609375,1.3603515625-2.140625,2.8002929688-4.3408203125,3.3803710938l-.98046875-2.1201171875c2.48046875-.7802734375,3.94140625-2.4008789062,3.94140625-4.4208984375V.8002929688Z"/><path d="m89.8037109375,1.5805664062h6.1806640625v2.1606445312h-3.7607421875v2.3403320312h3.2607421875v2.0405273438h-3.2607421875v2.4404296875h1.7001953125c1.1611328125,0,2.1005859375-.1201171875,2.94140625-.3999023438.1396484375.580078125.259765625,1.1401367188.419921875,1.7001953125-1.1806640625.7001953125-2.6611328125.8403320312-4.5615234375.8403320312h-1.9599609375c-.6005859375,0-.9599609375-.240234375-.9599609375-.8203125V1.5805664062Zm8.3212890625-1.2802734375h2.400390625v16.4833984375h-2.400390625V7.8017578125h-1.8603515625v-2.1801757812h1.8603515625V.3002929688Zm3.720703125-.3002929688h2.4404296875v17.2836914062h-2.4404296875V0Z"/><path d="m106.7900390625,7.9418945312h5.841796875v2.0405273438h-5.841796875v-2.0405273438Z"/><path d="m115.068359375,1.5405273438h8.28125v6.7216796875h-5.720703125v2.5405273438h4.5009765625c1.48046875,0,2.8408203125-.2001953125,3.8408203125-.7202148438V0h2.560546875v17.2836914062h-2.560546875v-5.4409179688c-1.2607421875.8203125-3.060546875,1.1401367188-5.0615234375,1.1401367188h-4.861328125c-.6201171875,0-.9794921875-.2397460938-.9794921875-.8203125v-6.0009765625h5.7607421875v-2.4404296875h-5.7607421875V1.5405273438Z"/><path d="m131.8037109375,4.2211914062h13.4033203125v2.1005859375h-2.3212890625c.4404296875.4599609375.7001953125,1.0400390625.7001953125,1.7202148438,0,1.900390625-1.3603515625,3.2607421875-3.80078125,3.6005859375v1.6005859375h6.6416015625v2.2202148438h-15.84375v-2.2202148438h6.6416015625v-1.6005859375c-2.4599609375-.33984375-3.7802734375-1.7001953125-3.7802734375-3.6005859375,0-.6801757812.259765625-1.2602539062.7001953125-1.7202148438h-2.3408203125v-2.1005859375Zm3.060546875-3.4409179688h7.3017578125v2.1806640625h-7.3017578125V.7802734375Zm3.640625,8.8818359375c1.740234375,0,2.5810546875-.66015625,2.5810546875-1.6201171875,0-.98046875-.8408203125-1.640625-2.5810546875-1.640625s-2.560546875.66015625-2.560546875,1.640625c0,.9599609375.8203125,1.6201171875,2.560546875,1.6201171875Z"/><path d="m147.7490234375,13.203125h15.86328125v2.2001953125h-15.86328125v-2.2001953125Zm2.0400390625-9.0219726562h11.783203125v2.1206054688h-4.4208984375c.5595703125,1.6401367188,2.640625,2.66015625,5.12109375,3.0205078125-.2607421875.7001953125-.5,1.3803710938-.7802734375,2.0805664062-2.5009765625-.400390625-5.021484375-1.6005859375-5.8017578125-3.220703125-.7998046875,1.66015625-3.2802734375,2.8203125-5.80078125,3.2407226562l-.7802734375-2.0805664062c2.4404296875-.3603515625,4.5205078125-1.400390625,5.0810546875-3.0405273438h-4.4013671875v-2.1206054688Zm2.28125-3.4008789062h7.220703125v2.1806640625h-7.220703125V.7802734375Z"/><path d="m165.62890625,1.5805664062h8.08203125v1.5805664062c0,5.3608398438-2.8212890625,8.4013671875-7.90234375,10.4819335938l-1.1201171875-2.1401367188c2.4208984375-.9404296875,4.3408203125-2.1806640625,5.4619140625-3.9609375-.541015625.2998046875-1.2802734375.4799804688-2.2412109375.4799804688h-2.720703125v-2.0805664062h5.6416015625c.2197265625-.6401367188.3203125-1.3603515625.3203125-2.1401367188h-5.521484375V1.5805664062Zm10.6826171875-1.5805664062h2.560546875v17.2836914062h-2.560546875V0Z"/><path d="m1.037109375,24.3984375h2.4375l2.830078125,7.1860351562,2.8427734375-7.1860351562h2.4375v9.525390625h-1.8203125v-6.7377929688l-2.6337890625,6.7377929688h-1.638671875l-2.6337890625-6.7377929688v6.7377929688h-1.8212890625v-9.525390625Z"/><path d="m18.734375,33.0971679688c-.5322265625.6025390625-1.3173828125.9946289062-2.255859375.9946289062-2.0029296875,0-3.4736328125-1.4848632812-3.4736328125-3.7680664062s1.470703125-3.7817382812,3.4736328125-3.7817382812c.9384765625,0,1.7236328125.40625,2.255859375,1.0083007812v-.8403320312h1.7783203125v7.2138671875h-1.7783203125v-.8266601562Zm0-1.6665039062v-2.2133789062c-.322265625-.6865234375-1.0654296875-1.0927734375-1.86328125-1.0927734375-1.1630859375,0-2.0595703125.798828125-2.0595703125,2.19921875,0,1.38671875.896484375,2.185546875,2.0595703125,2.185546875.7978515625,0,1.541015625-.40625,1.86328125-1.0786132812Z"/><path d="m22.1142578125,26.7099609375h1.7783203125v1.1206054688c.4208984375-.7705078125,1.12109375-1.2885742188,2.0732421875-1.2885742188h.2099609375v1.6948242188c-1.064453125.0141601562-1.9326171875.322265625-2.283203125,1.4008789062v4.2861328125h-1.7783203125v-7.2138671875Z"/><path d="m26.6875,29.9877929688c0-2.0732421875,1.2744140625-3.4458007812,3.2919921875-3.4458007812.923828125,0,1.6806640625.40625,2.1845703125,1.0083007812v-.8403320312h1.779296875v5.9814453125c0,2.619140625-1.8349609375,3.8237304688-3.7822265625,3.8237304688-1.7646484375,0-2.787109375-.6723632812-3.333984375-1.4565429688l1.0791015625-1.1206054688c.4765625.6303710938,1.0927734375,1.0502929688,2.1708984375,1.0502929688,1.037109375,0,2.0869140625-.5883789062,2.0869140625-2.1572265625v-.3920898438c-.50390625.5883789062-1.2607421875.9946289062-2.1845703125.9946289062-2.017578125,0-3.2919921875-1.3725585938-3.2919921875-3.4458007812Zm5.4765625.8823242188v-1.7509765625c-.322265625-.658203125-.9658203125-1.0502929688-1.7509765625-1.0502929688-1.17578125,0-1.9189453125.7700195312-1.9189453125,1.9189453125,0,1.1484375.7431640625,1.9189453125,1.9189453125,1.9189453125.78515625,0,1.4287109375-.3920898438,1.7509765625-1.0366210938Z"/><path d="m40.87109375,33.0971679688c-.5322265625.6025390625-1.3173828125.9946289062-2.255859375.9946289062-2.0029296875,0-3.4736328125-1.4848632812-3.4736328125-3.7680664062s1.470703125-3.7817382812,3.4736328125-3.7817382812c.9384765625,0,1.7236328125.40625,2.255859375,1.0083007812v-.8403320312h1.7783203125v7.2138671875h-1.7783203125v-.8266601562Zm0-1.6665039062v-2.2133789062c-.322265625-.6865234375-1.0654296875-1.0927734375-1.86328125-1.0927734375-1.1630859375,0-2.0595703125.798828125-2.0595703125,2.19921875,0,1.38671875.896484375,2.185546875,2.0595703125,2.185546875.7978515625,0,1.541015625-.40625,1.86328125-1.0786132812Z"/><path d="m44.251953125,26.7099609375h1.7783203125v1.1206054688c.4208984375-.7705078125,1.12109375-1.2885742188,2.0732421875-1.2885742188h.2099609375v1.6948242188c-1.064453125.0141601562-1.9326171875.322265625-2.283203125,1.4008789062v4.2861328125h-1.7783203125v-7.2138671875Z"/><path d="m48.7578125,30.337890625c0-2.2553710938,1.5263671875-3.7958984375,3.6279296875-3.7958984375s3.4736328125,1.4565429688,3.4736328125,3.5297851562c0,.23828125-.0419921875.57421875-.083984375.8686523438h-5.224609375c.181640625.9663085938.8544921875,1.6245117188,2.1015625,1.6245117188.8818359375,0,1.6240234375-.490234375,2.044921875-1.064453125l.98046875,1.1625976562c-.6728515625.8125-1.7373046875,1.4428710938-3.109375,1.4428710938-2.33984375,0-3.810546875-1.6669921875-3.810546875-3.7680664062Zm1.8212890625-.8544921875h3.515625c-.09765625-.9384765625-.7421875-1.470703125-1.708984375-1.470703125-.9248046875,0-1.568359375.5180664062-1.806640625,1.470703125Z"/><path d="m57.5205078125,31.1645507812v-3.0258789062h-1.205078125v-1.4287109375h1.2607421875v-1.8349609375h1.72265625v1.8349609375h1.6669921875v1.4287109375h-1.6669921875v3.1098632812c0,.9243164062.4345703125,1.2465820312,1.3310546875,1.2465820312h.3359375v1.4287109375c-.23828125.0561523438-.5322265625.083984375-.7978515625.083984375-1.7509765625,0-2.6474609375-.8681640625-2.6474609375-2.8432617188Z"/><path d="m61.5185546875,30.337890625c0-2.2553710938,1.5263671875-3.7958984375,3.6279296875-3.7958984375s3.4736328125,1.4565429688,3.4736328125,3.5297851562c0,.23828125-.0419921875.57421875-.083984375.8686523438h-5.224609375c.181640625.9663085938.8544921875,1.6245117188,2.1015625,1.6245117188.8818359375,0,1.6240234375-.490234375,2.044921875-1.064453125l.98046875,1.1625976562c-.6728515625.8125-1.7373046875,1.4428710938-3.1103515625,1.4428710938-2.3388671875,0-3.8095703125-1.6669921875-3.8095703125-3.7680664062Zm1.8212890625-.8544921875h3.515625c-.09765625-.9384765625-.7421875-1.470703125-1.708984375-1.470703125-.9248046875,0-1.568359375.5180664062-1.806640625,1.470703125Z"/><path d="m72.087890625,31.962890625l1.19140625-1.1625976562c.5458984375.8544921875,1.470703125,1.6806640625,2.9130859375,1.6806640625,1.1767578125,0,1.79296875-.5883789062,1.79296875-1.3305664062,0-.6025390625-.419921875-1.064453125-1.541015625-1.2329101562l-.826171875-.1259765625c-1.6806640625-.251953125-2.8154296875-1.21875-2.8154296875-2.689453125,0-1.6108398438,1.31640625-2.8994140625,3.4462890625-2.8994140625,1.470703125,0,2.6748046875.6440429688,3.361328125,1.5405273438l-1.162109375,1.205078125c-.5888671875-.728515625-1.3876953125-1.1069335938-2.2412109375-1.1069335938-.953125,0-1.513671875.5043945312-1.513671875,1.0786132812,0,.560546875.4208984375.966796875,1.2470703125,1.0927734375l.8125.1259765625c1.9609375.2939453125,3.109375,1.2749023438,3.109375,2.8857421875,0,1.8349609375-1.4990234375,3.095703125-3.6982421875,3.095703125-2.1982421875,0-3.4033203125-1.134765625-4.076171875-2.1572265625Z"/><path d="m80.6787109375,30.3237304688c0-1.9750976562,1.3583984375-3.7817382812,3.75390625-3.7817382812,1.45703125,0,2.5068359375.6723632812,3.2080078125,1.79296875l-1.2607421875.9663085938c-.392578125-.6865234375-.9951171875-1.1767578125-1.849609375-1.1767578125-1.232421875,0-2.044921875.8544921875-2.044921875,2.19921875,0,1.3310546875.8125,2.185546875,2.044921875,2.185546875.8544921875,0,1.45703125-.4907226562,1.849609375-1.1767578125l1.2607421875.9663085938c-.701171875,1.1206054688-1.7509765625,1.79296875-3.2080078125,1.79296875-2.3955078125,0-3.75390625-1.806640625-3.75390625-3.7680664062Z"/><path d="m88.6533203125,23.978515625h1.7783203125v3.7397460938c.392578125-.6440429688,1.1630859375-1.1762695312,2.283203125-1.1762695312,1.876953125,0,2.74609375,1.2885742188,2.74609375,3.1376953125v4.244140625h-1.779296875v-4.0483398438c0-1.1484375-.5458984375-1.7509765625-1.5966796875-1.7509765625-.953125,0-1.4990234375.7006835938-1.6533203125,1.2607421875v4.5385742188h-1.7783203125v-9.9453125Z"/><path d="m103.6875,33.923828125h-1.779296875v-1.0087890625c-.392578125.64453125-1.1630859375,1.1767578125-2.283203125,1.1767578125-1.876953125,0-2.7451171875-1.2885742188-2.7451171875-3.1376953125v-4.244140625h1.7783203125v4.0483398438c0,1.1484375.546875,1.7509765625,1.5966796875,1.7509765625.8828125,0,1.4716796875-.6025390625,1.6533203125-1.2607421875v-4.5385742188h1.779296875v7.2138671875Zm-5.8837890625-10.1274414062h1.79296875v1.7509765625h-1.79296875v-1.7509765625Zm3.1943359375,0h1.79296875v1.7509765625h-1.79296875v-1.7509765625Z"/><path d="m105.73828125,31.1645507812v-3.0258789062h-1.205078125v-1.4287109375h1.2607421875v-1.8349609375h1.72265625v1.8349609375h1.6669921875v1.4287109375h-1.6669921875v3.1098632812c0,.9243164062.4345703125,1.2465820312,1.3310546875,1.2465820312h.3359375v1.4287109375c-.23828125.0561523438-.5322265625.083984375-.7978515625.083984375-1.7509765625,0-2.6474609375-.8681640625-2.6474609375-2.8432617188Z"/><path d="m110.9873046875,31.1645507812v-3.0258789062h-1.205078125v-1.4287109375h1.2607421875v-1.8349609375h1.72265625v1.8349609375h1.6669921875v1.4287109375h-1.6669921875v3.1098632812c0,.9243164062.4345703125,1.2465820312,1.3310546875,1.2465820312h.3359375v1.4287109375c-.23828125.0561523438-.5322265625.083984375-.7978515625.083984375-1.7509765625,0-2.6474609375-.8681640625-2.6474609375-2.8432617188Z"/><path d="m114.984375,30.337890625c0-2.2553710938,1.5263671875-3.7958984375,3.6279296875-3.7958984375s3.4736328125,1.4565429688,3.4736328125,3.5297851562c0,.23828125-.0419921875.57421875-.083984375.8686523438h-5.224609375c.181640625.9663085938.8544921875,1.6245117188,2.1015625,1.6245117188.8818359375,0,1.6240234375-.490234375,2.044921875-1.064453125l.98046875,1.1625976562c-.6728515625.8125-1.7373046875,1.4428710938-3.109375,1.4428710938-2.33984375,0-3.810546875-1.6669921875-3.810546875-3.7680664062Zm1.8212890625-.8544921875h3.515625c-.09765625-.9384765625-.7421875-1.470703125-1.708984375-1.470703125-.9248046875,0-1.568359375.5180664062-1.806640625,1.470703125Z"/><path d="m123.3388671875,28.9653320312h4.08984375v1.4287109375h-4.08984375v-1.4287109375Z"/><path d="m129.1884765625,24.3984375h1.8212890625v7.9287109375h4.6083984375v1.5966796875h-6.4296875v-9.525390625Z"/><path d="m136.4833984375,23.6420898438h1.8212890625v1.8491210938h-1.8212890625v-1.8491210938Zm.0283203125,3.0678710938h1.7783203125v7.2138671875h-1.7783203125v-7.2138671875Z"/><path d="m139.8740234375,23.978515625h1.7783203125v3.7397460938c.392578125-.6440429688,1.1630859375-1.1762695312,2.283203125-1.1762695312,1.876953125,0,2.74609375,1.2885742188,2.74609375,3.1376953125v4.244140625h-1.779296875v-4.0483398438c0-1.1484375-.5458984375-1.7509765625-1.5966796875-1.7509765625-.953125,0-1.4990234375.7006835938-1.6533203125,1.2607421875v4.5385742188h-1.7783203125v-9.9453125Z"/><path d="m147.796875,30.3237304688c0-1.9750976562,1.31640625-3.7817382812,3.82421875-3.7817382812,2.5068359375,0,3.8232421875,1.806640625,3.8232421875,3.7817382812,0,1.9892578125-1.31640625,3.7963867188-3.8232421875,3.7963867188-2.5078125,0-3.82421875-1.8071289062-3.82421875-3.7963867188Zm1.806640625,0c0,1.3447265625.8544921875,2.2133789062,2.017578125,2.2133789062,1.162109375,0,2.0166015625-.8686523438,2.0166015625-2.2133789062,0-1.3305664062-.8544921875-2.19921875-2.0166015625-2.19921875-1.1630859375,0-2.017578125.8686523438-2.017578125,2.19921875Z"/><path d="m157.0478515625,31.1645507812v-3.0258789062h-1.205078125v-1.4287109375h1.2607421875v-1.8349609375h1.72265625v1.8349609375h1.6669921875v1.4287109375h-1.6669921875v3.1098632812c0,.9243164062.4345703125,1.2465820312,1.3310546875,1.2465820312h.3359375v1.4287109375c-.23828125.0561523438-.5322265625.083984375-.7978515625.083984375-1.7509765625,0-2.6474609375-.8681640625-2.6474609375-2.8432617188Z"/><path d="m161.1767578125,32.6489257812l3.740234375-4.5102539062h-3.48828125v-1.4287109375h5.7578125v1.2744140625l-3.7119140625,4.5107421875h3.7958984375v1.4287109375h-6.09375v-1.2749023438Z"/><path d="m168.4638671875,23.978515625h1.7783203125v5.798828125l2.7880859375-3.0673828125h2.03125v.0561523438l-2.74609375,3.025390625,3.0537109375,4.0903320312v.0419921875h-2.1005859375l-2.0732421875-2.8994140625-.953125,1.0502929688v1.8491210938h-1.7783203125v-9.9453125Z"/><path d="m178.3974609375,32.9995117188l-2.8857421875-6.2895507812h1.9052734375l1.9189453125,4.314453125,1.779296875-4.314453125h1.9189453125l-4.23046875,9.6372070312h-1.9189453125l1.5126953125-3.34765625Z"/><path d="m.66015625,74.0024414062h15.86328125v2.1806640625H.66015625v-2.1806640625Zm3.8408203125-8.6616210938h2.580078125v2.1401367188c0,.5.0400390625,1.1401367188.1005859375,1.5805664062h2.80078125c.080078125-.4404296875.1201171875-1.0805664062.1201171875-1.5805664062v-2.1401367188h2.580078125v1.580078125c0,.7802734375-.1396484375,1.6206054688-.48046875,2.140625h2.4609375v2.1801757812H2.5205078125v-2.1801757812h2.4609375c-.30078125-.4604492188-.48046875-1.2001953125-.48046875-2.0004882812v-1.7202148438Zm-1.7802734375-3.0209960938h11.7421875v2.2006835938H2.720703125v-2.2006835938Z"/><path d="m17.3857421875,61.7797851562h8.28125v5.3012695312h-5.720703125v1.3203125h4.220703125c1.48046875,0,2.8408203125-.2001953125,3.8408203125-.7202148438v-6.76171875h2.560546875v3.9208984375h2.3408203125v2.220703125h-2.3408203125v4.1606445312h-2.560546875v-1.900390625c-1.259765625.8203125-3.060546875,1.140625-5.060546875,1.140625h-4.5810546875c-.6201171875,0-.98046875-.240234375-.98046875-.8203125v-4.541015625h5.7607421875v-1.240234375h-5.7607421875v-2.0805664062Zm7.8818359375,9.8422851562c3.5205078125,0,5.48046875,1.4399414062,5.48046875,3.6005859375,0,2.140625-1.9599609375,3.5610351562-5.48046875,3.5610351562s-5.4814453125-1.4204101562-5.4814453125-3.5610351562c0-2.1606445312,1.9609375-3.6005859375,5.4814453125-3.6005859375Zm0,5.0009765625c1.900390625,0,2.919921875-.5,2.919921875-1.400390625,0-.919921875-1.01953125-1.4404296875-2.919921875-1.4404296875s-2.9208984375.5205078125-2.9208984375,1.4404296875c0,.900390625,1.0205078125,1.400390625,2.9208984375,1.400390625Z"/><path d="m35.228515625,62.33984375h11.302734375v3.0805664062c0,3.8208007812-.2998046875,6.181640625-1.4404296875,8.421875h3.720703125v2.220703125h-15.84375v-2.220703125h9.962890625c.580078125-1.6000976562.83984375-3.220703125.939453125-4.9008789062-.6396484375.6401367188-1.9404296875.9204101562-3.720703125.9204101562h-5.140625v-2.0805664062h6.0009765625c1.16015625,0,2.240234375-.080078125,2.9404296875-.3603515625.0205078125-.3999023438.0205078125-.8198242188.0205078125-1.2602539062v-1.6401367188h-8.7421875v-2.1806640625Z"/><path d="m49.9521484375,70.9819335938h15.86328125v2.2001953125h-6.6416015625v5.1010742188h-2.580078125v-5.1010742188h-6.6416015625v-2.2001953125Zm3.880859375-6.5415039062h2.6005859375v1.4404296875c0,.4399414062.01953125.83984375.080078125,1.2001953125h2.740234375c.0400390625-.3603515625.080078125-.7602539062.080078125-1.2001953125v-1.4404296875h2.6005859375v1.0200195312c0,.6201171875-.1396484375,1.2001953125-.419921875,1.6206054688h2.3408203125v2.1801757812h-11.943359375v-2.1801757812h2.3212890625c-.240234375-.400390625-.400390625-.8803710938-.400390625-1.5205078125v-1.1201171875Zm-1.720703125-2.8408203125h11.54296875v2.2006835938h-11.54296875v-2.2006835938Z"/><path d="m66.8701171875,74.0825195312h15.84375v2.2202148438h-15.84375v-2.2202148438Zm2.28125-11.8627929688h11.2822265625v5.7211914062h-8.7421875v1.6206054688h9.0224609375v2.1206054688h-10.6025390625c-.6005859375,0-.9599609375-.2602539062-.9599609375-.8203125v-4.9409179688h8.7412109375v-1.5805664062h-8.7412109375v-2.1206054688Z"/><path d="m84.0439453125,74.0825195312h15.84375v2.2202148438h-15.84375v-2.2202148438Zm2.28125-11.8627929688h11.2822265625v2.1206054688h-8.7216796875v1.5805664062h8.341796875v2.0200195312h-8.341796875v1.6206054688h9.001953125v2.1206054688h-10.6025390625c-.6005859375,0-.9599609375-.2602539062-.9599609375-.8203125v-8.6420898438Z"/><path d="m106.68359375,62.5h8.08203125v1.5805664062c0,5.3608398438-2.8212890625,8.4013671875-7.90234375,10.4819335938l-1.1201171875-2.1401367188c2.4208984375-.9404296875,4.3408203125-2.1806640625,5.4619140625-3.9609375-.541015625.2998046875-1.2802734375.4799804688-2.2412109375.4799804688h-2.720703125v-2.0805664062h5.6416015625c.2197265625-.6401367188.3203125-1.3603515625.3203125-2.1401367188h-5.521484375v-2.220703125Zm10.6826171875-1.5805664062h2.560546875v17.2836914062h-2.560546875v-17.2836914062Z"/><path d="m122.69921875,64.4204101562h8.8818359375v2.0805664062h-3.1005859375c.2802734375,1.66015625,1.7607421875,2.7006835938,3.8408203125,3.2407226562l-1.01953125,1.9604492188c-1.98046875-.5205078125-3.541015625-1.720703125-4.041015625-2.9409179688-.5,1.2602539062-2.0810546875,2.6806640625-4.2607421875,3.3608398438l-1.041015625-1.98046875c2.1806640625-.66015625,3.6611328125-1.900390625,3.861328125-3.640625h-3.12109375v-2.0805664062Zm1.5205078125-3.0805664062h5.841796875v2.1206054688h-5.841796875v-2.1206054688Zm1.3408203125,11.1821289062h2.560546875v3.6010742188h8.701171875v2.1801757812h-10.3017578125c-.6005859375,0-.9599609375-.259765625-.9599609375-.8198242188v-4.9614257812Zm8.26171875-11.6025390625h2.560546875v12.9428710938h-2.560546875v-12.9428710938Z"/><path d="m3.4208984375,89.2407226562l-2.48046875,1.3603515625-.9404296875-1.98046875,4.060546875-2.2807617188h1.900390625v13.6030273438h-2.5400390625v-10.7021484375Z"/><path d="m19.146484375,92.8012695312c0,4.6411132812-2.4208984375,7.421875-6.2412109375,7.421875-2.1806640625,0-3.7607421875-1.060546875-4.62109375-2.3408203125l1.740234375-1.5600585938c.580078125.8999023438,1.6201171875,1.5400390625,2.880859375,1.5400390625,1.900390625,0,3.3203125-1.2802734375,3.580078125-3.7407226562-.8193359375.900390625-1.9599609375,1.5405273438-3.5205078125,1.5405273438-2.560546875,0-4.7607421875-1.8803710938-4.7607421875-4.7412109375,0-2.8603515625,2.3798828125-4.8608398438,5.28125-4.8608398438,3.720703125,0,5.6611328125,2.8403320312,5.6611328125,6.7412109375Zm-8.322265625-1.9404296875c0,1.3403320312,1.0009765625,2.4604492188,2.6611328125,2.4604492188,1.6396484375,0,2.640625-1.1201171875,2.640625-2.4604492188,0-1.3203125-1.0009765625-2.4404296875-2.640625-2.4404296875-1.66015625,0-2.6611328125,1.1201171875-2.6611328125,2.4404296875Z"/><path d="m20.2275390625,98.0024414062c1.6806640625-3.220703125,6.8017578125-4.701171875,6.8017578125-7.3813476562,0-1.1606445312-.6396484375-2.2006835938-2.3603515625-2.2006835938-1.240234375,0-2.0400390625.6801757812-2.4208984375,1.8203125l-1.9599609375-1.080078125c.48046875-1.400390625,1.80078125-3.1005859375,4.5009765625-3.1005859375,3.060546875,0,4.78125,1.9404296875,4.78125,4.4008789062,0,4.0009765625-4.7216796875,5.4208984375-5.9814453125,7.2016601562h6.2412109375v2.2802734375h-9.6025390625v-1.9404296875Z"/><path d="m31.26171875,93.4814453125c0-4.6411132812,2.419921875-7.4213867188,6.2412109375-7.4213867188,2.1806640625,0,3.7607421875,1.0600585938,4.62109375,2.3403320312l-1.740234375,1.560546875c-.580078125-.900390625-1.6201171875-1.5405273438-2.880859375-1.5405273438-1.900390625,0-3.3408203125,1.3002929688-3.6005859375,3.7407226562.8203125-.8999023438,1.98046875-1.5400390625,3.541015625-1.5400390625,2.560546875,0,4.7607421875,1.8803710938,4.7607421875,4.7407226562,0,2.8608398438-2.380859375,4.861328125-5.28125,4.861328125-3.720703125,0-5.6611328125-2.8408203125-5.6611328125-6.7416992188Zm8.3212890625,1.9404296875c0-1.3403320312-1-2.4604492188-2.66015625-2.4604492188-1.640625,0-2.640625,1.1201171875-2.640625,2.4604492188,0,1.3203125,1,2.4404296875,2.640625,2.4404296875,1.66015625,0,2.66015625-1.1201171875,2.66015625-2.4404296875Z"/><path d="m1.037109375,109.3178710938h6.5556640625v1.5971679688H2.8583984375v2.3813476562h4.2021484375v1.5966796875H2.8583984375v3.9501953125h-1.8212890625v-9.525390625Z"/><path d="m8.341796875,111.6293945312h1.7783203125v1.1206054688c.4208984375-.7705078125,1.12109375-1.2885742188,2.0732421875-1.2885742188h.2099609375v1.6948242188c-1.064453125.0141601562-1.9326171875.322265625-2.283203125,1.4008789062v4.2861328125h-1.7783203125v-7.2138671875Z"/><path d="m18.5908203125,118.0166015625c-.5322265625.6025390625-1.3173828125.9946289062-2.255859375.9946289062-2.0029296875,0-3.4736328125-1.4848632812-3.4736328125-3.7680664062s1.470703125-3.7817382812,3.4736328125-3.7817382812c.9384765625,0,1.7236328125.40625,2.255859375,1.0083007812v-.8403320312h1.7783203125v7.2138671875h-1.7783203125v-.8266601562Zm0-1.6665039062v-2.2133789062c-.322265625-.6865234375-1.0654296875-1.0927734375-1.86328125-1.0927734375-1.1630859375,0-2.0595703125.798828125-2.0595703125,2.19921875,0,1.38671875.896484375,2.185546875,2.0595703125,2.185546875.7978515625,0,1.541015625-.40625,1.86328125-1.0786132812Z"/><path d="m21.9716796875,111.6293945312h1.7783203125v1.0083007812c.392578125-.6440429688,1.1630859375-1.1762695312,2.283203125-1.1762695312,1.876953125,0,2.74609375,1.2885742188,2.74609375,3.1376953125v4.244140625h-1.779296875v-4.0483398438c0-1.1484375-.5458984375-1.7509765625-1.5966796875-1.7509765625-.8828125,0-1.470703125.6025390625-1.6533203125,1.2607421875v4.5385742188h-1.7783203125v-7.2138671875Z"/><path d="m30.306640625,108.8979492188h1.7783203125v5.798828125l2.7880859375-3.0673828125h2.03125v.0561523438l-2.74609375,3.025390625,3.0537109375,4.0903320312v.0419921875h-2.1005859375l-2.0732421875-2.8994140625-.953125,1.0502929688v1.8491210938h-1.7783203125v-9.9453125Z"/><path d="m38.6064453125,113.0581054688h-1.1201171875v-1.4287109375h1.1201171875v-.4204101562c0-1.38671875.8271484375-2.4370117188,2.521484375-2.4370117188.224609375,0,.5048828125.013671875.6728515625.0419921875v1.4428710938h-.30859375c-.671875,0-1.1064453125.2661132812-1.1064453125.9663085938v.40625h1.4150390625v1.4287109375h-1.4150390625v5.78515625h-1.779296875v-5.78515625Z"/><path d="m49.4296875,118.8432617188h-1.779296875v-1.0087890625c-.392578125.64453125-1.1630859375,1.1767578125-2.283203125,1.1767578125-1.876953125,0-2.7451171875-1.2885742188-2.7451171875-3.1376953125v-4.244140625h1.7783203125v4.0483398438c0,1.1484375.546875,1.7509765625,1.5966796875,1.7509765625.8828125,0,1.4716796875-.6025390625,1.6533203125-1.2607421875v-4.5385742188h1.779296875v7.2138671875Z"/><path d="m51.017578125,111.6293945312h1.7783203125v1.1206054688c.4208984375-.7705078125,1.12109375-1.2885742188,2.0732421875-1.2885742188h.2099609375v1.6948242188c-1.064453125.0141601562-1.9326171875.322265625-2.283203125,1.4008789062v4.2861328125h-1.7783203125v-7.2138671875Z"/><path d="m56.7841796875,116.083984375v-3.0258789062h-1.205078125v-1.4287109375h1.2607421875v-1.8349609375h1.72265625v1.8349609375h1.6669921875v1.4287109375h-1.6669921875v3.1098632812c0,.9243164062.4345703125,1.2465820312,1.3310546875,1.2465820312h.3359375v1.4287109375c-.23828125.0561523438-.5322265625.083984375-.7978515625.083984375-1.7509765625,0-2.6474609375-.8681640625-2.6474609375-2.8432617188Z"/><path d="m64.482421875,109.3178710938h1.8212890625v4.46875l3.8525390625-4.46875h2.19921875v.0424804688l-3.5302734375,3.9916992188,3.7255859375,5.44921875v.0419921875h-2.12890625l-2.8017578125-4.1181640625-1.31640625,1.4848632812v2.6333007812h-1.8212890625v-9.525390625Z"/><path d="m73.283203125,108.5615234375h1.8212890625v1.8491210938h-1.8212890625v-1.8491210938Zm.0283203125,3.0678710938h1.7783203125v7.2138671875h-1.7783203125v-7.2138671875Z"/><path d="m77.1376953125,116.083984375v-3.0258789062h-1.205078125v-1.4287109375h1.2607421875v-1.8349609375h1.72265625v1.8349609375h1.6669921875v1.4287109375h-1.6669921875v3.1098632812c0,.9243164062.4345703125,1.2465820312,1.3310546875,1.2465820312h.3359375v1.4287109375c-.23828125.0561523438-.5322265625.083984375-.7978515625.083984375-1.7509765625,0-2.6474609375-.8681640625-2.6474609375-2.8432617188Z"/><path d="m81.12890625,115.2431640625c0-1.9750976562,1.3583984375-3.7817382812,3.75390625-3.7817382812,1.45703125,0,2.5068359375.6723632812,3.20703125,1.79296875l-1.259765625.9663085938c-.392578125-.6865234375-.9951171875-1.1767578125-1.849609375-1.1767578125-1.232421875,0-2.044921875.8544921875-2.044921875,2.19921875,0,1.3310546875.8125,2.185546875,2.044921875,2.185546875.8544921875,0,1.45703125-.4907226562,1.849609375-1.1767578125l1.259765625.9663085938c-.7001953125,1.1206054688-1.75,1.79296875-3.20703125,1.79296875-2.3955078125,0-3.75390625-1.806640625-3.75390625-3.7680664062Z"/><path d="m89.103515625,108.8979492188h1.7783203125v3.7397460938c.392578125-.6440429688,1.1630859375-1.1762695312,2.283203125-1.1762695312,1.876953125,0,2.74609375,1.2885742188,2.74609375,3.1376953125v4.244140625h-1.779296875v-4.0483398438c0-1.1484375-.5458984375-1.7509765625-1.5966796875-1.7509765625-.953125,0-1.4990234375.7006835938-1.6533203125,1.2607421875v4.5385742188h-1.7783203125v-9.9453125Z"/><path d="m97.0322265625,115.2573242188c0-2.2553710938,1.5263671875-3.7958984375,3.6279296875-3.7958984375s3.4736328125,1.4565429688,3.4736328125,3.5297851562c0,.23828125-.0419921875.57421875-.083984375.8686523438h-5.224609375c.181640625.9663085938.8544921875,1.6245117188,2.1015625,1.6245117188.8818359375,0,1.6240234375-.490234375,2.044921875-1.064453125l.98046875,1.1625976562c-.6728515625.8125-1.7373046875,1.4428710938-3.1103515625,1.4428710938-2.3388671875,0-3.8095703125-1.6669921875-3.8095703125-3.7680664062Zm1.8212890625-.8544921875h3.515625c-.09765625-.9384765625-.7421875-1.470703125-1.708984375-1.470703125-.9248046875,0-1.568359375.5180664062-1.806640625,1.470703125Z"/><path d="m105.3330078125,111.6293945312h1.7783203125v1.0083007812c.392578125-.6440429688,1.1630859375-1.1762695312,2.283203125-1.1762695312,1.876953125,0,2.74609375,1.2885742188,2.74609375,3.1376953125v4.244140625h-1.779296875v-4.0483398438c0-1.1484375-.5458984375-1.7509765625-1.5966796875-1.7509765625-.8828125,0-1.470703125.6025390625-1.6533203125,1.2607421875v4.5385742188h-1.7783203125v-7.2138671875Z"/><path d="m114.638671875,119.4736328125h-.98046875v-2.1430664062h2.1572265625v1.8911132812l-.966796875,2.3251953125h-1.0498046875l.83984375-2.0732421875Z"/><path d="m2.396484375,128.1489257812l-1.7373046875.9526367188L.0009765625,127.71484375l2.84375-1.5971679688h1.330078125v9.525390625h-1.7783203125v-7.494140625Z"/><path d="m13.3583984375,130.642578125c0,3.2495117188-1.6943359375,5.1967773438-4.3701171875,5.1967773438-1.52734375,0-2.6337890625-.7426757812-3.236328125-1.6391601562l1.21875-1.0922851562c.40625.6298828125,1.134765625,1.078125,2.017578125,1.078125,1.3310546875,0,2.3251953125-.896484375,2.5068359375-2.619140625-.57421875.6303710938-1.3720703125,1.0786132812-2.46484375,1.0786132812-1.79296875,0-3.333984375-1.3168945312-3.333984375-3.3198242188s1.6669921875-3.4038085938,3.6982421875-3.4038085938c2.60546875,0,3.9638671875,1.9887695312,3.9638671875,4.720703125Zm-5.8271484375-1.3588867188c0,.9384765625.7001953125,1.72265625,1.86328125,1.72265625,1.1484375,0,1.8486328125-.7841796875,1.8486328125-1.72265625,0-.9248046875-.7001953125-1.708984375-1.8486328125-1.708984375-1.1630859375,0-1.86328125.7841796875-1.86328125,1.708984375Z"/><path d="m14.0654296875,134.2841796875c1.1767578125-2.2548828125,4.7626953125-3.2915039062,4.7626953125-5.1684570312,0-.8125-.4482421875-1.541015625-1.6533203125-1.541015625-.8681640625,0-1.4287109375.4760742188-1.6953125,1.2749023438l-1.3720703125-.7568359375c.3359375-.98046875,1.2607421875-2.1708984375,3.1513671875-2.1708984375,2.1435546875,0,3.34765625,1.3588867188,3.34765625,3.0815429688,0,2.8017578125-3.3056640625,3.7958984375-4.1884765625,5.04296875h4.37109375v1.5966796875h-6.7236328125v-1.3588867188Z"/><path d="m21.740234375,131.1186523438c0-3.25,1.6953125-5.1967773438,4.3701171875-5.1967773438,1.52734375,0,2.6337890625.7421875,3.236328125,1.638671875l-1.21875,1.0927734375c-.40625-.6303710938-1.134765625-1.0786132812-2.017578125-1.0786132812-1.330078125,0-2.3388671875.9106445312-2.521484375,2.6196289062.5751953125-.6303710938,1.3876953125-1.0786132812,2.4794921875-1.0786132812,1.79296875,0,3.333984375,1.31640625,3.333984375,3.3198242188,0,2.0029296875-1.6669921875,3.4038085938-3.6982421875,3.4038085938-2.60546875,0-3.9638671875-1.9892578125-3.9638671875-4.720703125Zm5.8271484375,1.3588867188c0-.9384765625-.7001953125-1.7231445312-1.86328125-1.7231445312-1.1484375,0-1.8486328125.7846679688-1.8486328125,1.7231445312,0,.9243164062.7001953125,1.7084960938,1.8486328125,1.7084960938,1.1630859375,0,1.86328125-.7841796875,1.86328125-1.7084960938Z"/><rect class="cls-1" width="318.1005859375" height="135.8393554688"/></g></svg>