<?xml version="1.0" encoding="UTF-8"?><svg id="_레이어_2" xmlns="http://www.w3.org/2000/svg" viewBox="0 0 318.1005859375 98.9028320313"><defs><style>.cls-1{fill:none;}</style></defs><g id="Layer_1"><path d="m.97265625,2.4387207031h7.0615234375v2.2006835938h-2.240234375v.4599609375c0,3.0805664062.6005859375,5.0610351562,3.0009765625,6.8413085938l-1.400390625,1.7602539062c-1.400390625-.9799804688-2.400390625-2.2202148438-2.7607421875-3.3803710938-.33984375,1.3203125-1.419921875,2.7802734375-2.9208984375,3.80078125l-1.400390625-1.7807617188c2.400390625-1.7802734375,3.0009765625-3.8408203125,3.0009765625-6.9614257812v-.7397460938H.97265625v-2.2006835938Zm8.4619140625-1.3203125h2.400390625v16.4833984375h-2.400390625v-8.841796875h-2.1201171875v-2.2202148438h2.1201171875V1.1184082031Zm3.6806640625-.3002929688h2.4404296875v17.2836914062h-2.4404296875V.8181152344Z"/><path d="m17.369140625,13.7810058594h15.84375v2.220703125h-15.84375v-2.220703125ZM23.9912109375,1.8586425781h2.6005859375v1.2202148438c0,3.5405273438,2.560546875,5.1411132812,5.5009765625,6.0810546875l-.9599609375,2.0805664062c-2.48046875-.6201171875-5.041015625-2.3203125-5.841796875-4.2607421875-.759765625,1.9404296875-3.3203125,3.6806640625-5.8212890625,4.3408203125l-.9599609375-2.0805664062c2.900390625-.919921875,5.4814453125-2.6206054688,5.4814453125-6.1411132812v-1.240234375Z"/><path d="m36.1220703125,5.4992675781h2.5400390625v3.5810546875c0,.919921875,0,1.8803710938.1201171875,2.4404296875h1.5c.1005859375-.580078125.1201171875-1.5205078125.1201171875-2.4404296875v-3.5810546875h2.541015625v2.9409179688c0,1.2001953125-.2001953125,2.3203125-.5400390625,3.0004882812.8798828125-.080078125,1.7001953125-.2202148438,2.3203125-.4599609375l.4599609375,1.7202148438c-1.3203125.8002929688-3.2001953125,1-5.380859375,1h-5.0615234375v-2.1801757812h1.98046875c-.3603515625-.5600585938-.599609375-1.7006835938-.599609375-2.9208984375v-3.1005859375Zm-1.0810546875-3.0805664062h8.982421875v2.2006835938h-8.982421875v-2.2006835938Zm11.1826171875-1.6005859375h2.560546875v17.2836914062h-2.560546875v-9.1616210938h-2.33984375v-2.1806640625h2.33984375V.8181152344Z"/><path d="m58.12109375,2.1984863281h11.2822265625v8.501953125h-4.361328125v3.1206054688h6.6416015625v2.220703125h-15.84375v-2.220703125h6.6416015625v-3.1206054688h-3.400390625c-.6005859375,0-.9599609375-.2602539062-.9599609375-.8203125V2.1984863281Zm2.560546875,2.1806640625v4.140625h6.1611328125v-4.140625h-6.1611328125Z"/><path d="m73.4091796875,2.3586425781h8.28125v6.7216796875h-5.720703125v2.5405273438h4.5009765625c1.48046875,0,2.8408203125-.2001953125,3.8408203125-.7202148438V.8181152344h2.560546875v17.2836914062h-2.560546875v-5.4409179688c-1.2607421875.8203125-3.060546875,1.1401367188-5.0615234375,1.1401367188h-4.861328125c-.6201171875,0-.9794921875-.2397460938-.9794921875-.8203125v-6.0009765625h5.7607421875v-2.4404296875h-5.7607421875v-2.1806640625Z"/><path d="m88.9140625,9.6003417969h15.86328125v2.080078125h-15.86328125v-2.080078125Zm6.62109375-8.4018554688h2.6005859375v.7001953125c0,2.3203125,2.0009765625,3.7807617188,5.201171875,4.2807617188-.2001953125.7202148438-.3994140625,1.4404296875-.580078125,2.1606445312-2.5205078125-.3203125-5.1005859375-1.7407226562-5.9013671875-3.380859375-.8203125,1.66015625-3.3603515625,3.1005859375-5.880859375,3.4208984375l-.6005859375-2.140625c3.1806640625-.5,5.1611328125-2.0004882812,5.1611328125-4.3408203125v-.7001953125Zm-4.2802734375,11.7822265625h2.560546875v3.0810546875h8.861328125v2.1801757812h-10.4619140625c-.6005859375,0-.9599609375-.2397460938-.9599609375-.8198242188v-4.44140625Z"/><path d="m0,33.1032714844l1.3447265625-1.0229492188c.3642578125.6166992188.8681640625,1.1625976562,1.708984375,1.1625976562,1.302734375,0,1.79296875-.826171875,1.79296875-2.1708984375v-5.85546875h1.8203125v5.9116210938c0,2.2412109375-1.1484375,3.8100585938-3.5712890625,3.8100585938C1.5830078125,34.9382324219.5322265625,34.0974121094,0,33.1032714844Z"/><path d="m13.681640625,33.9152832031c-.5322265625.6025390625-1.3173828125.9946289062-2.255859375.9946289062-2.0029296875,0-3.4736328125-1.4848632812-3.4736328125-3.7680664062s1.470703125-3.7817382812,3.4736328125-3.7817382812c.9384765625,0,1.7236328125.40625,2.255859375,1.0083007812v-.8403320312h1.7783203125v7.2138671875h-1.7783203125v-.8266601562Zm0-1.6665039062v-2.2133789062c-.322265625-.6865234375-1.0654296875-1.0927734375-1.86328125-1.0927734375-1.1630859375,0-2.0595703125.798828125-2.0595703125,2.19921875,0,1.38671875.896484375,2.185546875,2.0595703125,2.185546875.7978515625,0,1.541015625-.40625,1.86328125-1.0786132812Z"/><path d="m16.4130859375,33.5231933594l.9658203125-1.1206054688c.4765625.5883789062,1.2890625,1.0786132812,2.1435546875,1.0786132812.7705078125,0,1.31640625-.3081054688,1.31640625-.8403320312,0-.4760742188-.4345703125-.6723632812-1.1201171875-.7846679688l-.64453125-.09765625c-1.3447265625-.2241210938-2.1572265625-.966796875-2.1572265625-2.1435546875,0-1.2465820312,1.064453125-2.2548828125,2.87109375-2.2548828125,1.134765625,0,2.00390625.4760742188,2.5361328125,1.0922851562l-.9384765625,1.134765625c-.462890625-.490234375-1.0087890625-.7705078125-1.6669921875-.7705078125-.6728515625,0-1.0224609375.3081054688-1.0224609375.7006835938,0,.3637695312.279296875.5600585938.7978515625.6440429688l.64453125.0981445312c1.6533203125.251953125,2.4794921875,1.0224609375,2.4794921875,2.283203125,0,1.302734375-1.134765625,2.3955078125-3.166015625,2.3955078125-1.3447265625,0-2.380859375-.6303710938-3.0390625-1.4150390625Z"/><path d="m23.755859375,27.5280761719h1.7783203125v.8544921875c.5185546875-.6025390625,1.3173828125-1.0224609375,2.26953125-1.0224609375,1.9892578125,0,3.4599609375,1.4985351562,3.4599609375,3.7817382812s-1.470703125,3.7680664062-3.4599609375,3.7680664062c-.9521484375,0-1.7509765625-.40625-2.26953125-1.0083007812v3.263671875h-1.7783203125v-9.6372070312Zm5.701171875,3.6137695312c0-1.400390625-.896484375-2.19921875-2.0595703125-2.19921875-.798828125,0-1.541015625.40625-1.86328125,1.0927734375v2.2133789062c.322265625.6723632812,1.064453125,1.0786132812,1.86328125,1.0786132812,1.1630859375,0,2.0595703125-.798828125,2.0595703125-2.185546875Z"/><path d="m32.0966796875,31.1560058594c0-2.2553710938,1.5263671875-3.7958984375,3.6279296875-3.7958984375s3.4736328125,1.4565429688,3.4736328125,3.5297851562c0,.23828125-.0419921875.57421875-.083984375.8686523438h-5.224609375c.181640625.9663085938.8544921875,1.6245117188,2.1015625,1.6245117188.8818359375,0,1.6240234375-.490234375,2.044921875-1.064453125l.98046875,1.1625976562c-.6728515625.8125-1.7373046875,1.4428710938-3.109375,1.4428710938-2.33984375,0-3.810546875-1.6669921875-3.810546875-3.7680664062Zm1.8212890625-.8544921875h3.515625c-.09765625-.9384765625-.7421875-1.470703125-1.708984375-1.470703125-.9248046875,0-1.568359375.5180664062-1.806640625,1.470703125Z"/><path d="m40.3955078125,27.5280761719h1.7783203125v1.1206054688c.4208984375-.7705078125,1.12109375-1.2885742188,2.0732421875-1.2885742188h.2099609375v1.6948242188c-1.064453125.0141601562-1.9326171875.322265625-2.283203125,1.4008789062v4.2861328125h-1.7783203125v-7.2138671875Z"/><path d="m48.5146484375,25.2165527344h2.4375l2.830078125,7.1860351562,2.8427734375-7.1860351562h2.4375v9.525390625h-1.8203125v-6.7377929688l-2.6337890625,6.7377929688h-1.638671875l-2.6337890625-6.7377929688v6.7377929688h-1.8212890625v-9.525390625Z"/><path d="m60.4521484375,31.1418457031c0-1.9750976562,1.31640625-3.7817382812,3.82421875-3.7817382812,2.5068359375,0,3.8232421875,1.806640625,3.8232421875,3.7817382812,0,1.9892578125-1.31640625,3.7963867188-3.8232421875,3.7963867188-2.5078125,0-3.82421875-1.8071289062-3.82421875-3.7963867188Zm1.806640625,0c0,1.3447265625.8544921875,2.2133789062,2.017578125,2.2133789062,1.162109375,0,2.0166015625-.8686523438,2.0166015625-2.2133789062,0-1.3305664062-.8544921875-2.19921875-2.0166015625-2.19921875-1.1630859375,0-2.017578125.8686523438-2.017578125,2.19921875Z"/><path d="m69.2880859375,27.5280761719h1.7783203125v1.1206054688c.4208984375-.7705078125,1.12109375-1.2885742188,2.0732421875-1.2885742188h.2099609375v1.6948242188c-1.064453125.0141601562-1.9326171875.322265625-2.283203125,1.4008789062v4.2861328125h-1.7783203125v-7.2138671875Z"/><path d="m74.185546875,27.5280761719h1.7783203125v1.1206054688c.4208984375-.7705078125,1.12109375-1.2885742188,2.0732421875-1.2885742188h.2099609375v1.6948242188c-1.064453125.0141601562-1.9326171875.322265625-2.283203125,1.4008789062v4.2861328125h-1.7783203125v-7.2138671875Z"/><path d="m79.0537109375,24.4602050781h1.8212890625v1.8491210938h-1.8212890625v-1.8491210938Zm.0283203125,3.0678710938h1.7783203125v7.2138671875h-1.7783203125v-7.2138671875Z"/><path d="m81.8037109375,33.5231933594l.9658203125-1.1206054688c.4765625.5883789062,1.2890625,1.0786132812,2.1435546875,1.0786132812.7705078125,0,1.31640625-.3081054688,1.31640625-.8403320312,0-.4760742188-.4345703125-.6723632812-1.1201171875-.7846679688l-.64453125-.09765625c-1.3447265625-.2241210938-2.1572265625-.966796875-2.1572265625-2.1435546875,0-1.2465820312,1.064453125-2.2548828125,2.87109375-2.2548828125,1.134765625,0,2.00390625.4760742188,2.5361328125,1.0922851562l-.9384765625,1.134765625c-.462890625-.490234375-1.0087890625-.7705078125-1.6669921875-.7705078125-.6728515625,0-1.0224609375.3081054688-1.0224609375.7006835938,0,.3637695312.279296875.5600585938.7978515625.6440429688l.64453125.0981445312c1.6533203125.251953125,2.4794921875,1.0224609375,2.4794921875,2.283203125,0,1.302734375-1.134765625,2.3955078125-3.166015625,2.3955078125-1.3447265625,0-2.380859375-.6303710938-3.0390625-1.4150390625Z"/><path d="m88.7255859375,31.1418457031c0-1.9750976562,1.31640625-3.7817382812,3.82421875-3.7817382812,2.5068359375,0,3.8232421875,1.806640625,3.8232421875,3.7817382812,0,1.9892578125-1.31640625,3.7963867188-3.8232421875,3.7963867188-2.5078125,0-3.82421875-1.8071289062-3.82421875-3.7963867188Zm1.806640625,0c0,1.3447265625.8544921875,2.2133789062,2.017578125,2.2133789062,1.162109375,0,2.0166015625-.8686523438,2.0166015625-2.2133789062,0-1.3305664062-.8544921875-2.19921875-2.0166015625-2.19921875-1.1630859375,0-2.017578125.8686523438-2.017578125,2.19921875Z"/><path d="m97.5625,27.5280761719h1.7783203125v1.0083007812c.392578125-.6440429688,1.1630859375-1.1762695312,2.283203125-1.1762695312,1.876953125,0,2.74609375,1.2885742188,2.74609375,3.1376953125v4.244140625h-1.779296875v-4.0483398438c0-1.1484375-.5458984375-1.7509765625-1.5966796875-1.7509765625-.8828125,0-1.470703125.6025390625-1.6533203125,1.2607421875v4.5385742188h-1.7783203125v-7.2138671875Z"/><path d="m.6923828125,69.4191894531h5.44140625v-3.0405273438h2.560546875v3.0405273438h7.841796875v2.0805664062H.6923828125v-2.0805664062Zm2.2412109375-7.0014648438h11.08203125v1.5205078125c0,1.5805664062-.1396484375,3.4208984375-.5205078125,4.6411132812l-2.3603515625-.2802734375c.2001953125-.8999023438.3203125-2.1005859375.3203125-3.5004882812v-.2602539062H2.93359375v-2.1206054688Zm5.6806640625,10.3422851562c3.4609375,0,5.541015625,1.3603515625,5.541015625,3.5810546875,0,2.240234375-2.080078125,3.6005859375-5.541015625,3.6005859375s-5.541015625-1.3603515625-5.541015625-3.6005859375c0-2.220703125,2.080078125-3.5810546875,5.541015625-3.5810546875Zm0,5.12109375c1.900390625,0,2.98046875-.5600585938,2.98046875-1.5400390625,0-.98046875-1.080078125-1.5405273438-2.98046875-1.5405273438-1.919921875,0-2.98046875.5600585938-2.98046875,1.5405273438,0,.9799804688,1.060546875,1.5400390625,2.98046875,1.5400390625Z"/><path d="m18.6181640625,62.7980957031h8.2216796875v1.48046875c0,4.640625-3.560546875,7.021484375-8.3017578125,8.021484375l-.740234375-2.2607421875c3.6806640625-.6796875,6.3818359375-2.7202148438,6.4013671875-5.041015625h-5.5810546875v-2.2001953125Zm2.400390625,10.1020507812h2.560546875v4.041015625h8.7822265625v2.1801757812h-10.3828125c-.599609375,0-.9599609375-.259765625-.9599609375-.8198242188v-5.4013671875Zm8.2216796875-11.1625976562h2.560546875v4.5810546875h2.3408203125v2.2006835938h-2.3408203125v5.8413085938h-2.560546875v-12.623046875Z"/><path d="m35.0595703125,73.2404785156h7.921875c1.48046875,0,2.8603515625-.1000976562,3.900390625-.560546875v-10.9423828125h2.560546875v17.2836914062h-2.560546875v-4.5004882812c-1.33984375.7797851562-3.2001953125.9599609375-5.140625.9599609375h-6.681640625v-2.240234375Zm5.4013671875-10.6826171875c2.919921875,0,4.7607421875,1.7602539062,4.7607421875,4.30078125,0,2.541015625-1.8408203125,4.28125-4.7607421875,4.28125-2.9208984375,0-4.8017578125-1.740234375-4.8017578125-4.28125,0-2.5405273438,1.880859375-4.30078125,4.8017578125-4.30078125Zm0,6.4213867188c1.3203125,0,2.240234375-.8403320312,2.240234375-2.1206054688,0-1.2998046875-.919921875-2.1201171875-2.240234375-2.1201171875-1.3408203125,0-2.2607421875.8203125-2.2607421875,2.1201171875,0,1.2802734375.919921875,2.1206054688,2.2607421875,2.1206054688Z"/><path d="m66.220703125,68.9191894531c0,2.9409179688-1.1806640625,5.8012695312-4.62109375,5.8012695312-3.4609375,0-4.6611328125-2.8603515625-4.6611328125-5.8012695312,0-2.9404296875,1.2001953125-5.8012695312,4.6611328125-5.8012695312,3.4404296875,0,4.62109375,2.8608398438,4.62109375,5.8012695312Zm-6.7216796875,0c0,1.6206054688.4599609375,3.62109375,2.1005859375,3.62109375s2.080078125-2.0004882812,2.080078125-3.62109375c0-1.6201171875-.439453125-3.6206054688-2.080078125-3.6206054688s-2.1005859375,2.0004882812-2.1005859375,3.6206054688Zm8.7421875-7.181640625h2.560546875v17.2836914062h-2.560546875v-17.2836914062Z"/><path d="m72.794921875,66.3186035156h8.1416015625v2.140625h-1.5205078125c.7001953125.6201171875,1.16015625,1.5205078125,1.16015625,2.560546875,0,2.2602539062-1.5,3.9208984375-3.701171875,3.9208984375-2.2001953125,0-3.7001953125-1.6606445312-3.7001953125-3.9208984375,0-1.0400390625.439453125-1.9404296875,1.1396484375-2.560546875h-1.51953125v-2.140625Zm1.6396484375-3.4204101562h4.880859375v2.1801757812h-4.880859375v-2.1801757812Zm1.080078125,8.1215820312c0,1.16015625.560546875,1.900390625,1.3603515625,1.900390625.80078125,0,1.3603515625-.740234375,1.3603515625-1.900390625s-.5595703125-1.900390625-1.3603515625-1.900390625c-.7998046875,0-1.3603515625.740234375-1.3603515625,1.900390625Zm5.94140625-8.9819335938h2.4208984375v5.78125h1.48046875v-6.0815429688h2.4404296875v17.2836914062h-2.4404296875v-8.9819335938h-1.48046875v8.4819335938h-2.4208984375v-16.4833984375Z"/><path d="m3.7119140625,86.1359863281h2.142578125l3.7119140625,9.525390625h-1.890625l-.7705078125-2.0170898438H2.6611328125l-.7705078125,2.0170898438H0l3.7119140625-9.525390625Zm-.4482421875,5.9252929688h3.025390625l-1.5126953125-3.9780273438-1.5126953125,3.9780273438Z"/><path d="m12.599609375,93.7004394531l1.19140625-1.1625976562c.5458984375.8544921875,1.470703125,1.6806640625,2.9130859375,1.6806640625,1.1767578125,0,1.79296875-.5883789062,1.79296875-1.3305664062,0-.6025390625-.419921875-1.064453125-1.541015625-1.2329101562l-.826171875-.1259765625c-1.6806640625-.251953125-2.8154296875-1.21875-2.8154296875-2.689453125,0-1.6108398438,1.31640625-2.8994140625,3.4462890625-2.8994140625,1.470703125,0,2.6748046875.6440429688,3.361328125,1.5405273438l-1.162109375,1.205078125c-.5888671875-.728515625-1.38671875-1.1069335938-2.2412109375-1.1069335938-.953125,0-1.513671875.5043945312-1.513671875,1.0786132812,0,.560546875.4208984375.966796875,1.2470703125,1.0927734375l.8125.1259765625c1.9609375.2939453125,3.109375,1.2749023438,3.109375,2.8857421875,0,1.8349609375-1.4990234375,3.095703125-3.697265625,3.095703125-2.19921875,0-3.404296875-1.134765625-4.0771484375-2.1572265625Z"/><path d="m21.197265625,92.0754394531c0-2.2553710938,1.5263671875-3.7958984375,3.6279296875-3.7958984375s3.4736328125,1.4565429688,3.4736328125,3.5297851562c0,.23828125-.0419921875.57421875-.083984375.8686523438h-5.224609375c.181640625.9663085938.8544921875,1.6245117188,2.1015625,1.6245117188.8818359375,0,1.6240234375-.490234375,2.044921875-1.064453125l.98046875,1.1625976562c-.6728515625.8125-1.7373046875,1.4428710938-3.1103515625,1.4428710938-2.3388671875,0-3.8095703125-1.6669921875-3.8095703125-3.7680664062Zm1.8212890625-.8544921875h3.515625c-.09765625-.9384765625-.7421875-1.470703125-1.708984375-1.470703125-.9248046875,0-1.568359375.5180664062-1.806640625,1.470703125Z"/><path d="m29.498046875,88.4475097656h1.7783203125v1.0083007812c.392578125-.6440429688,1.1630859375-1.1762695312,2.283203125-1.1762695312,1.876953125,0,2.74609375,1.2885742188,2.74609375,3.1376953125v4.244140625h-1.779296875v-4.0483398438c0-1.1484375-.5458984375-1.7509765625-1.5966796875-1.7509765625-.8828125,0-1.470703125.6025390625-1.6533203125,1.2607421875v4.5385742188h-1.7783203125v-7.2138671875Z"/><path d="m37.1376953125,94.4426269531l.966796875-1.1206054688c.4765625.5883789062,1.2890625,1.0786132812,2.1435546875,1.0786132812.7705078125,0,1.31640625-.3081054688,1.31640625-.8403320312,0-.4760742188-.4345703125-.6723632812-1.1201171875-.7846679688l-.64453125-.09765625c-1.3447265625-.2241210938-2.1572265625-.966796875-2.1572265625-2.1435546875,0-1.2465820312,1.064453125-2.2548828125,2.87109375-2.2548828125,1.134765625,0,2.0029296875.4760742188,2.5361328125,1.0922851562l-.9384765625,1.134765625c-.462890625-.490234375-1.0087890625-.7705078125-1.6669921875-.7705078125-.6728515625,0-1.0224609375.3081054688-1.0224609375.7006835938,0,.3637695312.279296875.5600585938.7978515625.6440429688l.64453125.0981445312c1.65234375.251953125,2.4794921875,1.0224609375,2.4794921875,2.283203125,0,1.302734375-1.134765625,2.3955078125-3.166015625,2.3955078125-1.3447265625,0-2.380859375-.6303710938-3.0400390625-1.4150390625Z"/><path d="m44.0673828125,92.0754394531c0-2.2553710938,1.5263671875-3.7958984375,3.6279296875-3.7958984375s3.4736328125,1.4565429688,3.4736328125,3.5297851562c0,.23828125-.0419921875.57421875-.083984375.8686523438h-5.224609375c.181640625.9663085938.8544921875,1.6245117188,2.1015625,1.6245117188.8818359375,0,1.6240234375-.490234375,2.044921875-1.064453125l.98046875,1.1625976562c-.6728515625.8125-1.7373046875,1.4428710938-3.109375,1.4428710938-2.33984375,0-3.810546875-1.6669921875-3.810546875-3.7680664062Zm1.8212890625-.8544921875h3.515625c-.09765625-.9384765625-.7421875-1.470703125-1.708984375-1.470703125-.9248046875,0-1.568359375.5180664062-1.806640625,1.470703125Z"/><path d="m54.8896484375,92.0612792969c0-1.9750976562,1.31640625-3.7817382812,3.82421875-3.7817382812,2.5068359375,0,3.8232421875,1.806640625,3.8232421875,3.7817382812,0,1.9892578125-1.31640625,3.7963867188-3.8232421875,3.7963867188-2.5078125,0-3.82421875-1.8071289062-3.82421875-3.7963867188Zm1.806640625,0c0,1.3447265625.8544921875,2.2133789062,2.017578125,2.2133789062,1.162109375,0,2.0166015625-.8686523438,2.0166015625-2.2133789062,0-1.3305664062-.8544921875-2.19921875-2.0166015625-2.19921875-1.1630859375,0-2.017578125.8686523438-2.017578125,2.19921875Z"/><path d="m64.1328125,89.8762207031h-1.1201171875v-1.4287109375h1.1201171875v-.4204101562c0-1.38671875.8271484375-2.4370117188,2.521484375-2.4370117188.224609375,0,.5048828125.013671875.6728515625.0419921875v1.4428710938h-.30859375c-.671875,0-1.1064453125.2661132812-1.1064453125.9663085938v.40625h1.4150390625v1.4287109375h-1.4150390625v5.78515625h-1.779296875v-5.78515625Z"/><path d="m70.5859375,93.7004394531l1.19140625-1.1625976562c.5458984375.8544921875,1.470703125,1.6806640625,2.9130859375,1.6806640625,1.1767578125,0,1.79296875-.5883789062,1.79296875-1.3305664062,0-.6025390625-.419921875-1.064453125-1.541015625-1.2329101562l-.826171875-.1259765625c-1.6806640625-.251953125-2.8154296875-1.21875-2.8154296875-2.689453125,0-1.6108398438,1.31640625-2.8994140625,3.4462890625-2.8994140625,1.470703125,0,2.6748046875.6440429688,3.361328125,1.5405273438l-1.162109375,1.205078125c-.5888671875-.728515625-1.38671875-1.1069335938-2.2412109375-1.1069335938-.953125,0-1.513671875.5043945312-1.513671875,1.0786132812,0,.560546875.4208984375.966796875,1.2470703125,1.0927734375l.8125.1259765625c1.9609375.2939453125,3.109375,1.2749023438,3.109375,2.8857421875,0,1.8349609375-1.4990234375,3.095703125-3.697265625,3.095703125-2.19921875,0-3.404296875-1.134765625-4.0771484375-2.1572265625Z"/><path d="m79.58203125,88.4475097656h1.7783203125v.8544921875c.5185546875-.6025390625,1.3173828125-1.0224609375,2.26953125-1.0224609375,1.9892578125,0,3.4599609375,1.4985351562,3.4599609375,3.7817382812s-1.470703125,3.7680664062-3.4599609375,3.7680664062c-.9521484375,0-1.7509765625-.40625-2.26953125-1.0083007812v3.263671875h-1.7783203125v-9.6372070312Zm5.701171875,3.6137695312c0-1.400390625-.896484375-2.19921875-2.0595703125-2.19921875-.798828125,0-1.541015625.40625-1.86328125,1.0927734375v2.2133789062c.322265625.6723632812,1.064453125,1.0786132812,1.86328125,1.0786132812,1.1630859375,0,2.0595703125-.798828125,2.0595703125-2.185546875Z"/><path d="m93.65234375,94.8347167969c-.5322265625.6025390625-1.3173828125.9946289062-2.255859375.9946289062-2.0029296875,0-3.4736328125-1.4848632812-3.4736328125-3.7680664062s1.470703125-3.7817382812,3.4736328125-3.7817382812c.9384765625,0,1.7236328125.40625,2.255859375,1.0083007812v-.8403320312h1.7783203125v7.2138671875h-1.7783203125v-.8266601562Zm0-1.6665039062v-2.2133789062c-.322265625-.6865234375-1.0654296875-1.0927734375-1.86328125-1.0927734375-1.1630859375,0-2.0595703125.798828125-2.0595703125,2.19921875,0,1.38671875.896484375,2.185546875,2.0595703125,2.185546875.7978515625,0,1.541015625-.40625,1.86328125-1.0786132812Z"/><path d="m96.6259765625,92.0612792969c0-1.9750976562,1.3583984375-3.7817382812,3.75390625-3.7817382812,1.45703125,0,2.5068359375.6723632812,3.20703125,1.79296875l-1.259765625.9663085938c-.392578125-.6865234375-.9951171875-1.1767578125-1.849609375-1.1767578125-1.232421875,0-2.044921875.8544921875-2.044921875,2.19921875,0,1.3310546875.8125,2.185546875,2.044921875,2.185546875.8544921875,0,1.45703125-.4907226562,1.849609375-1.1767578125l1.259765625.9663085938c-.7001953125,1.1206054688-1.75,1.79296875-3.20703125,1.79296875-2.3955078125,0-3.75390625-1.806640625-3.75390625-3.7680664062Z"/><path d="m104.12890625,92.0754394531c0-2.2553710938,1.5263671875-3.7958984375,3.6279296875-3.7958984375s3.4736328125,1.4565429688,3.4736328125,3.5297851562c0,.23828125-.0419921875.57421875-.083984375.8686523438h-5.224609375c.181640625.9663085938.8544921875,1.6245117188,2.1015625,1.6245117188.8818359375,0,1.6240234375-.490234375,2.044921875-1.064453125l.98046875,1.1625976562c-.6728515625.8125-1.7373046875,1.4428710938-3.1103515625,1.4428710938-2.3388671875,0-3.8095703125-1.6669921875-3.8095703125-3.7680664062Zm1.8212890625-.8544921875h3.515625c-.09765625-.9384765625-.7421875-1.470703125-1.708984375-1.470703125-.9248046875,0-1.568359375.5180664062-1.806640625,1.470703125Z"/><rect class="cls-1" x="0" y="0" width="318.1005859375" height="98.9028320313"/></g></svg>