<?xml version="1.0" encoding="UTF-8"?><svg id="_레이어_2" xmlns="http://www.w3.org/2000/svg" viewBox="0 0 318.1005859375 138.3466796875"><defs><style>.cls-1{fill:none;}</style></defs><g id="Layer_1"><path d="m3.3935546875,1.3803710938h2.5v2.7407226562c0,3.060546875.580078125,4.9609375,3.1806640625,6.5615234375l-1.3994140625,1.9204101562c-1.48046875-.8803710938-2.6806640625-2.3408203125-2.9609375-3.4208984375-.259765625,1.240234375-1.5205078125,2.880859375-3.1005859375,3.80078125l-1.380859375-1.8603515625c2.560546875-1.7202148438,3.1611328125-3.8408203125,3.1611328125-6.8813476562V1.3803710938ZM9.4345703125.3002929688h2.400390625v16.4833984375h-2.400390625V6.8217773438h-2.2001953125v-2.220703125h2.2001953125V.3002929688Zm3.701171875-.3002929688h2.4404296875v17.2836914062h-2.4404296875V0Z"/><path d="m21.25.5805664062h2.5810546875v.759765625c0,2.7407226562,1.3203125,4.0610351562,3.9208984375,5.1010742188l-1.140625,2.0205078125c-1.8203125-.6201171875-3.4609375-1.9404296875-3.9404296875-3.3408203125-.48046875,1.5205078125-2.0009765625,2.9609375-4.1611328125,3.7612304688l-1.16015625-2.0205078125c2.6201171875-1.1401367188,3.900390625-2.6806640625,3.900390625-5.3813476562v-.8999023438Zm-.279296875,8.921875h10.822265625v4.9409179688h-8.2822265625v1.1401367188h8.7216796875v2.0004882812h-10.3017578125c-.6005859375,0-.9599609375-.2602539062-.9599609375-.8203125v-4.220703125h8.28125v-1.080078125h-8.28125v-1.9604492188ZM29.232421875,0h2.560546875v8.7021484375h-2.560546875V0Z"/><path d="m39.8291015625,1.4404296875h2.5v3.4208984375h3.4208984375V1.4404296875h2.4609375v11.4423828125h-7.40234375c-.6201171875,0-.9794921875-.2397460938-.9794921875-.8198242188V1.4404296875Zm2.5,5.5615234375v3.7006835938h3.4208984375v-3.7006835938h-3.4208984375ZM50.7314453125,0h2.560546875v17.2836914062h-2.560546875V0Z"/><path d="m55.3447265625,9.6020507812h15.84375v2.0004882812h-15.84375v-2.0004882812Zm2.3212890625,3.1611328125h2.560546875v2.6000976562h8.8818359375v2.0805664062h-10.482421875c-.6005859375,0-.9599609375-.259765625-.9599609375-.8198242188v-3.8608398438Zm.1201171875-12.0830078125h10.9619140625v1.8608398438h-8.4013671875v1.0600585938h8.021484375v1.7202148438h-8.021484375v1.1000976562h8.7216796875v1.80078125h-10.322265625c-.6005859375,0-.9599609375-.240234375-.9599609375-.8002929688V.6801757812Z"/><path d="m.50390625,29.1611328125c0-2.8432617188,2.03125-4.9584960938,4.8466796875-4.9584960938,1.974609375,0,3.4462890625.9243164062,4.2724609375,2.3393554688l-1.359375,1.0083007812c-.6015625-1.0083007812-1.484375-1.6528320312-2.87109375-1.6528320312-1.8486328125,0-3.01171875,1.4150390625-3.01171875,3.263671875,0,1.8491210938,1.1630859375,3.263671875,3.01171875,3.263671875,1.38671875,0,2.26953125-.6440429688,2.87109375-1.6528320312l1.359375,1.0087890625c-.826171875,1.4145507812-2.2978515625,2.3393554688-4.2724609375,2.3393554688-2.8154296875,0-4.8466796875-2.115234375-4.8466796875-4.958984375Z"/><path d="m10.2763671875,30.337890625c0-2.2553710938,1.5263671875-3.7958984375,3.6279296875-3.7958984375s3.4736328125,1.4565429688,3.4736328125,3.5297851562c0,.23828125-.0419921875.57421875-.083984375.8686523438h-5.224609375c.181640625.9663085938.8544921875,1.6245117188,2.1015625,1.6245117188.8818359375,0,1.6240234375-.490234375,2.044921875-1.064453125l.98046875,1.1625976562c-.6728515625.8125-1.7373046875,1.4428710938-3.109375,1.4428710938-2.33984375,0-3.810546875-1.6669921875-3.810546875-3.7680664062Zm1.8212890625-.8544921875h3.515625c-.09765625-.9384765625-.7421875-1.470703125-1.708984375-1.470703125-.9248046875,0-1.568359375.5180664062-1.806640625,1.470703125Z"/><path d="m18.1845703125,30.3237304688c0-1.9750976562,1.3583984375-3.7817382812,3.75390625-3.7817382812,1.45703125,0,2.5068359375.6723632812,3.20703125,1.79296875l-1.259765625.9663085938c-.392578125-.6865234375-.9951171875-1.1767578125-1.849609375-1.1767578125-1.232421875,0-2.044921875.8544921875-2.044921875,2.19921875,0,1.3310546875.8125,2.185546875,2.044921875,2.185546875.8544921875,0,1.45703125-.4907226562,1.849609375-1.1767578125l1.259765625.9663085938c-.7001953125,1.1206054688-1.75,1.79296875-3.20703125,1.79296875-2.3955078125,0-3.75390625-1.806640625-3.75390625-3.7680664062Z"/><path d="m26.14453125,23.6420898438h1.8212890625v1.8491210938h-1.8212890625v-1.8491210938Zm.0283203125,3.0678710938h1.7783203125v7.2138671875h-1.7783203125v-7.2138671875Z"/><path d="m29.53515625,23.978515625h1.7783203125v9.9453125h-1.7783203125v-9.9453125Z"/><path d="m36.072265625,24.3984375h3.9365234375c1.9189453125,0,3.109375.9389648438,3.109375,2.5356445312,0,.7841796875-.3916015625,1.470703125-1.091796875,1.9047851562,1.064453125.3364257812,1.806640625,1.0786132812,1.806640625,2.3676757812,0,1.72265625-1.205078125,2.7172851562-3.41796875,2.7172851562h-4.3427734375v-9.525390625Zm3.6982421875,3.9223632812c1.064453125,0,1.470703125-.4760742188,1.470703125-1.2045898438s-.40625-1.2045898438-1.470703125-1.2045898438h-1.876953125v2.4091796875h1.876953125Zm.57421875,4.0903320312c1.1064453125,0,1.611328125-.4765625,1.611328125-1.2890625,0-.8120117188-.5048828125-1.2885742188-1.611328125-1.2885742188h-2.451171875v2.5776367188h2.451171875Z"/><path d="m44.6806640625,30.337890625c0-2.2553710938,1.5263671875-3.7958984375,3.6279296875-3.7958984375s3.4736328125,1.4565429688,3.4736328125,3.5297851562c0,.23828125-.0419921875.57421875-.083984375.8686523438h-5.224609375c.181640625.9663085938.8544921875,1.6245117188,2.1015625,1.6245117188.8818359375,0,1.6240234375-.490234375,2.044921875-1.064453125l.98046875,1.1625976562c-.6728515625.8125-1.7373046875,1.4428710938-3.109375,1.4428710938-2.33984375,0-3.810546875-1.6669921875-3.810546875-3.7680664062Zm1.8212890625-.8544921875h3.515625c-.09765625-.9384765625-.7421875-1.470703125-1.708984375-1.470703125-.9248046875,0-1.568359375.5180664062-1.806640625,1.470703125Z"/><path d="m58.32421875,33.0971679688c-.5322265625.6025390625-1.3173828125.9946289062-2.255859375.9946289062-2.0029296875,0-3.4736328125-1.4848632812-3.4736328125-3.7680664062s1.470703125-3.7817382812,3.4736328125-3.7817382812c.9384765625,0,1.7236328125.40625,2.255859375,1.0083007812v-.8403320312h1.7783203125v7.2138671875h-1.7783203125v-.8266601562Zm0-1.6665039062v-2.2133789062c-.322265625-.6865234375-1.0654296875-1.0927734375-1.86328125-1.0927734375-1.1630859375,0-2.0595703125.798828125-2.0595703125,2.19921875,0,1.38671875.896484375,2.185546875,2.0595703125,2.185546875.7978515625,0,1.541015625-.40625,1.86328125-1.0786132812Z"/><path d="m62.1689453125,31.1645507812v-3.0258789062h-1.205078125v-1.4287109375h1.2607421875v-1.8349609375h1.72265625v1.8349609375h1.6669921875v1.4287109375h-1.6669921875v3.1098632812c0,.9243164062.4345703125,1.2465820312,1.3310546875,1.2465820312h.3359375v1.4287109375c-.23828125.0561523438-.5322265625.083984375-.7978515625.083984375-1.7509765625,0-2.6474609375-.8681640625-2.6474609375-2.8432617188Z"/><path d="m66.1591796875,30.3237304688c0-1.9750976562,1.31640625-3.7817382812,3.82421875-3.7817382812,2.5068359375,0,3.8232421875,1.806640625,3.8232421875,3.7817382812,0,1.9892578125-1.31640625,3.7963867188-3.8232421875,3.7963867188-2.5078125,0-3.82421875-1.8071289062-3.82421875-3.7963867188Zm1.806640625,0c0,1.3447265625.8544921875,2.2133789062,2.017578125,2.2133789062,1.162109375,0,2.0166015625-.8686523438,2.0166015625-2.2133789062,0-1.3305664062-.8544921875-2.19921875-2.0166015625-2.19921875-1.1630859375,0-2.017578125.8686523438-2.017578125,2.19921875Z"/><path d="m74.99609375,26.7099609375h1.7783203125v1.0083007812c.392578125-.6440429688,1.1630859375-1.1762695312,2.283203125-1.1762695312,1.876953125,0,2.74609375,1.2885742188,2.74609375,3.1376953125v4.244140625h-1.779296875v-4.0483398438c0-1.1484375-.5458984375-1.7509765625-1.5966796875-1.7509765625-.8828125,0-1.470703125.6025390625-1.6533203125,1.2607421875v4.5385742188h-1.7783203125v-7.2138671875Z"/><path d="m8.314453125,68.0009765625c0,3.701171875-1.33984375,5.6215820312-3.7607421875,5.6215820312s-3.80078125-1.9204101562-3.80078125-5.6215820312c0-3.7006835938,1.3798828125-5.6411132812,3.80078125-5.6411132812s3.7607421875,1.9404296875,3.7607421875,5.6411132812Zm-5.1611328125,0c0,2.140625.4599609375,3.4809570312,1.400390625,3.4809570312s1.419921875-1.3403320312,1.419921875-3.4809570312c0-2.1401367188-.4794921875-3.5004882812-1.419921875-3.5004882812s-1.400390625,1.3603515625-1.400390625,3.5004882812Zm6.041015625-6.78125h2.4208984375v5.5610351562h1.5v-5.861328125h2.4404296875v17.2836914062h-2.4404296875v-9.2016601562h-1.5v8.7016601562h-2.4208984375v-16.4833984375Z"/><path d="m17.4404296875,70.6215820312h7.921875c1.48046875,0,2.8603515625-.1201171875,3.900390625-.580078125v-9.1220703125h2.560546875v17.2836914062h-2.560546875v-6.3413085938c-1.2998046875.7602539062-3.080078125.9604492188-4.9609375.98046875v5.0610351562h-2.560546875v-5.0610351562h-4.30078125v-2.220703125Zm4.1611328125-8.9018554688h2.6005859375v.9604492188c0,2.060546875,1.4599609375,3.560546875,3.9208984375,4.2407226562l-.9609375,2.0805664062c-1.9599609375-.4599609375-3.720703125-1.8203125-4.1806640625-3.1005859375-.4599609375,1.3603515625-2.140625,2.8002929688-4.3408203125,3.3803710938l-.98046875-2.1201171875c2.48046875-.7802734375,3.94140625-2.4008789062,3.94140625-4.4208984375v-1.0205078125Z"/><path d="m33.8046875,69.4213867188h5.44140625v-1.7001953125h2.560546875v1.7001953125h7.841796875v2.0805664062h-15.84375v-2.0805664062Zm2.4208984375-7.8618164062h10.982421875v2.0004882812c0,1.5805664062-.1396484375,3.7607421875-.5205078125,4.9814453125l-2.3603515625-.2802734375c.1005859375-.5200195312.2001953125-1.2602539062.2607421875-2.060546875-.6806640625.580078125-1.9404296875.8002929688-3.701171875.8002929688h-4.880859375v-2.0205078125h5.7607421875c1.1005859375,0,2.1806640625-.0200195312,2.880859375-.259765625v-1.0405273438h-8.421875v-2.1206054688Zm-.099609375,11.22265625h11.2021484375v5.8212890625h-10.2421875c-.6005859375,0-.9599609375-.2602539062-.9599609375-.8203125v-5.0009765625Zm2.560546875,2.060546875v1.6801757812h6.0810546875v-1.6801757812h-6.0810546875Z"/><path d="m.8125,91.6611328125h6.94140625c1.900390625,0,3.62109375-.0200195312,4.8818359375-.580078125v-6.1616210938h2.560546875v9.9223632812h-2.560546875v-2.220703125c-1.2607421875.740234375-2.9609375.9404296875-4.8017578125.9404296875h-.3798828125v1.48046875h-2.560546875v-1.48046875H.8125v-1.900390625Zm5.4013671875-6.4213867188c2.7412109375,0,4.5810546875,1.0400390625,4.5810546875,2.9404296875,0,1.8803710938-1.83984375,2.9409179688-4.5810546875,2.9409179688-2.740234375,0-4.5810546875-1.060546875-4.5810546875-2.9409179688,0-1.900390625,1.8408203125-2.9404296875,4.5810546875-2.9404296875Zm0,3.9609375c1.2001953125,0,2.0205078125-.2802734375,2.0205078125-1.0205078125,0-.759765625-.8203125-1.0200195312-2.0205078125-1.0200195312-1.2197265625,0-2.0400390625.2602539062-2.0400390625,1.0200195312,0,.740234375.8203125,1.0205078125,2.0400390625,1.0205078125Zm-2,6.44140625h10.982421875v4.4809570312H6.75390625v.9799804688h8.8818359375v1.8803710938H5.173828125c-.6005859375,0-.9599609375-.2397460938-.9599609375-.8198242188v-3.78125h8.44140625v-.919921875H4.2138671875v-1.8203125Z"/><path d="m17.1875,98.0825195312h15.84375v2.2202148438h-15.84375v-2.2202148438Zm2.28125-11.8627929688h11.2822265625v2.1206054688h-8.7216796875v1.5805664062h8.341796875v2.0200195312h-8.341796875v1.6206054688h9.001953125v2.1206054688h-10.6025390625c-.6005859375,0-.9599609375-.2602539062-.9599609375-.8203125v-8.6420898438Z"/><path d="m37.65625,86.259765625h2.580078125v2.560546875c0,3.2006835938.98046875,5.3012695312,3.9609375,7.0014648438l-1.3408203125,2.0805664062c-1.759765625-.8798828125-3.3798828125-2.7006835938-3.8203125-4.1606445312-.4599609375,1.6000976562-2.0205078125,3.4404296875-3.98046875,4.4609375l-1.3408203125-2.060546875c3.060546875-1.7602539062,3.94140625-4.1010742188,3.94140625-7.2016601562v-2.6806640625Zm4.98046875,1.6606445312h3.201171875v-3.0009765625h2.560546875v17.2836914062h-2.560546875v-8.2416992188h-3.201171875v-2.1801757812h3.201171875v-1.6806640625h-3.201171875v-2.1801757812Z"/><path d="m52.533203125,100.8432617188h-1.400390625v-3.0610351562h3.080078125v2.7006835938l-1.3798828125,3.3208007812h-1.5l1.2001953125-2.9604492188Z"/><path d="m72.1552734375,84.9194335938h2.560546875v9.90234375h-2.560546875v-2.0205078125h-3.361328125c-.7802734375.8603515625-2,1.3403320312-3.5400390625,1.3403320312-2.9208984375,0-4.7412109375-1.7202148438-4.7412109375-4.2607421875s1.8203125-4.2612304688,4.7412109375-4.2612304688c1.6201171875,0,2.900390625.560546875,3.7001953125,1.48046875h3.201171875v-2.1806640625Zm-6.9013671875,7.0615234375c1.2998046875,0,2.16015625-.7998046875,2.16015625-2.1000976562s-.8603515625-2.1005859375-2.16015625-2.1005859375c-1.3203125,0-2.1806640625.8002929688-2.1806640625,2.1005859375s.8603515625,2.1000976562,2.1806640625,2.1000976562Zm4,3.2407226562c3.521484375,0,5.521484375,1.5205078125,5.521484375,3.80078125,0,2.2807617188-2,3.7612304688-5.521484375,3.7612304688-3.5205078125,0-5.5205078125-1.48046875-5.5205078125-3.7612304688,0-2.2802734375,2-3.80078125,5.5205078125-3.80078125Zm0,5.4013671875c1.900390625,0,2.9609375-.6000976562,2.9609375-1.6005859375,0-1.0200195312-1.060546875-1.6401367188-2.9609375-1.6401367188s-2.9599609375.6201171875-2.9599609375,1.6401367188c0,1.0004882812,1.0595703125,1.6005859375,2.9599609375,1.6005859375Zm.6005859375-11.3623046875c.0400390625.1997070312.0400390625.3999023438.0400390625.6201171875,0,.2797851562-.0205078125.5200195312-.060546875.7797851562h2.3212890625v-1.3999023438h-2.30078125Z"/><path d="m78.98828125,85.6396484375h11.142578125v1.560546875c0,1.8603515625-.33984375,3.4604492188-1.0205078125,4.7607421875h3.4609375v2.0805664062h-6.6416015625v2.380859375h4.3212890625v6.4208984375h-2.560546875v-4.3208007812h-8.8818359375v-2.1000976562h4.560546875v-2.380859375h-6.6416015625v-2.0805664062h10.1630859375c.4794921875-1.2202148438.6396484375-2.7202148438.6396484375-3.8608398438v-.259765625h-8.5419921875v-2.2006835938Z"/><path d="m94.759765625,100.8432617188h-1.400390625v-3.0610351562h3.080078125v2.7006835938l-1.3798828125,3.3208007812h-1.5l1.2001953125-2.9604492188Z"/><path d="m105.2197265625,89.2407226562l-2.48046875,1.3603515625-.9404296875-1.98046875,4.060546875-2.2807617188h1.900390625v13.6030273438h-2.5400390625v-10.7021484375Z"/><path d="m120.9453125,92.8012695312c0,4.6411132812-2.4208984375,7.421875-6.2412109375,7.421875-2.1806640625,0-3.7607421875-1.060546875-4.62109375-2.3408203125l1.740234375-1.5600585938c.580078125.8999023438,1.6201171875,1.5400390625,2.880859375,1.5400390625,1.900390625,0,3.3203125-1.2802734375,3.580078125-3.7407226562-.8193359375.900390625-1.9599609375,1.5405273438-3.5205078125,1.5405273438-2.560546875,0-4.7607421875-1.8803710938-4.7607421875-4.7412109375,0-2.8603515625,2.380859375-4.8608398438,5.28125-4.8608398438,3.720703125,0,5.6611328125,2.8403320312,5.6611328125,6.7412109375Zm-8.322265625-1.9404296875c0,1.3403320312,1.0009765625,2.4604492188,2.6611328125,2.4604492188,1.6396484375,0,2.640625-1.1201171875,2.640625-2.4604492188,0-1.3203125-1.0009765625-2.4404296875-2.640625-2.4404296875-1.66015625,0-2.6611328125,1.1201171875-2.6611328125,2.4404296875Z"/><path d="m121.544921875,97.9423828125l1.48046875-1.7602539062c.6796875.8002929688,1.759765625,1.6801757812,3.4404296875,1.6801757812s2.900390625-.7202148438,2.900390625-2.0205078125c0-1.1801757812-.9404296875-1.8403320312-2.8603515625-1.8403320312h-1.3408203125v-2.240234375h1.3408203125c1.48046875,0,2.140625-.8002929688,2.140625-1.7006835938,0-1.080078125-.9404296875-1.6401367188-2.0810546875-1.6401367188-1.4599609375,0-2.3203125.6401367188-2.83984375,1.3803710938l-1.5205078125-1.6005859375c.8798828125-1.1401367188,2.419921875-2.1401367188,4.3603515625-2.1401367188,2.9208984375,0,4.681640625,1.419921875,4.681640625,3.8208007812,0,1.1000976562-.66015625,2.16015625-1.740234375,2.8002929688,1.580078125.5205078125,2.4599609375,1.7807617188,2.4599609375,3.380859375,0,2.560546875-2.419921875,4.1611328125-5.5009765625,4.1611328125-2.4208984375,0-4.041015625-1.2802734375-4.9208984375-2.2807617188Z"/><path d="m133.455078125,93.1416015625c0-4.2612304688,2.041015625-7.0815429688,5.7216796875-7.0815429688s5.720703125,2.8203125,5.720703125,7.0815429688c0,4.2607421875-2.0400390625,7.0815429688-5.720703125,7.0815429688s-5.7216796875-2.8208007812-5.7216796875-7.0815429688Zm8.841796875,0c0-2.7607421875-.8798828125-4.7211914062-3.1201171875-4.7211914062s-3.12109375,1.9604492188-3.12109375,4.7211914062c0,2.7602539062.880859375,4.720703125,3.12109375,4.720703125s3.1201171875-1.9604492188,3.1201171875-4.720703125Z"/><path d="m147.1328125,92.861328125h5.841796875v2.0405273438h-5.841796875v-2.0405273438Z"/><path d="m156.544921875,89.2407226562l-2.48046875,1.3603515625-.9404296875-1.98046875,4.060546875-2.2807617188h1.900390625v13.6030273438h-2.5400390625v-10.7021484375Z"/><path d="m172.271484375,92.8012695312c0,4.6411132812-2.4208984375,7.421875-6.2412109375,7.421875-2.1806640625,0-3.7607421875-1.060546875-4.62109375-2.3408203125l1.740234375-1.5600585938c.580078125.8999023438,1.6201171875,1.5400390625,2.880859375,1.5400390625,1.900390625,0,3.3203125-1.2802734375,3.580078125-3.7407226562-.8193359375.900390625-1.9599609375,1.5405273438-3.5205078125,1.5405273438-2.560546875,0-4.7607421875-1.8803710938-4.7607421875-4.7412109375,0-2.8603515625,2.380859375-4.8608398438,5.28125-4.8608398438,3.720703125,0,5.6611328125,2.8403320312,5.6611328125,6.7412109375Zm-8.322265625-1.9404296875c0,1.3403320312,1.0009765625,2.4604492188,2.6611328125,2.4604492188,1.6396484375,0,2.640625-1.1201171875,2.640625-2.4604492188,0-1.3203125-1.0009765625-2.4404296875-2.640625-2.4404296875-1.66015625,0-2.6611328125,1.1201171875-2.6611328125,2.4404296875Z"/><path d="m173.423828125,94.681640625l6.2412109375-8.341796875h3.30078125v7.9418945312h2.2607421875v2.2602539062h-2.2607421875v3.4008789062h-2.5205078125v-3.4008789062h-7.021484375v-1.8603515625Zm7.021484375-.3999023438v-5.28125l-3.8603515625,5.28125h3.8603515625Z"/><path d="m185.74609375,97.9423828125l1.48046875-1.7602539062c.6806640625.8002929688,1.740234375,1.6801757812,3.4404296875,1.6801757812,1.6806640625,0,2.9013671875-.9399414062,2.9013671875-2.48046875,0-1.4204101562-1.0810546875-2.3203125-2.5810546875-2.3203125-1.060546875,0-1.8603515625.33984375-2.5.8002929688l-1.6005859375-.5405273438.6396484375-6.9814453125h7.8818359375v2.2807617188h-5.6611328125l-.2802734375,2.3603515625c.5205078125-.16015625,1.0810546875-.2802734375,1.701171875-.2802734375,2.740234375,0,5.0009765625,1.5405273438,5.0009765625,4.6811523438,0,3.0405273438-2.2412109375,4.8413085938-5.501953125,4.8413085938-2.419921875,0-4.0400390625-1.2802734375-4.9208984375-2.2807617188Z"/><path d="m3.7119140625,109.3178710938h2.142578125l3.7119140625,9.525390625h-1.890625l-.7705078125-2.0170898438H2.6611328125l-.7705078125,2.0170898438H0l3.7119140625-9.525390625Zm-.4482421875,5.9252929688h3.025390625l-1.5126953125-3.9780273438-1.5126953125,3.9780273438Z"/><path d="m9.8564453125,117.6245117188l.966796875-1.1206054688c.4765625.5883789062,1.2890625,1.0786132812,2.1435546875,1.0786132812.7705078125,0,1.31640625-.3081054688,1.31640625-.8403320312,0-.4760742188-.4345703125-.6723632812-1.1201171875-.7846679688l-.64453125-.09765625c-1.3447265625-.2241210938-2.1572265625-.966796875-2.1572265625-2.1435546875,0-1.2465820312,1.064453125-2.2548828125,2.87109375-2.2548828125,1.134765625,0,2.0029296875.4760742188,2.5361328125,1.0922851562l-.9384765625,1.134765625c-.462890625-.490234375-1.0087890625-.7705078125-1.6669921875-.7705078125-.6728515625,0-1.0224609375.3081054688-1.0224609375.7006835938,0,.3637695312.279296875.5600585938.7978515625.6440429688l.64453125.0981445312c1.65234375.251953125,2.4794921875,1.0224609375,2.4794921875,2.283203125,0,1.302734375-1.134765625,2.3955078125-3.166015625,2.3955078125-1.3447265625,0-2.380859375-.6303710938-3.0400390625-1.4150390625Z"/><path d="m17.2001953125,108.8979492188h1.7783203125v3.7397460938c.392578125-.6440429688,1.1630859375-1.1762695312,2.283203125-1.1762695312,1.876953125,0,2.74609375,1.2885742188,2.74609375,3.1376953125v4.244140625h-1.779296875v-4.0483398438c0-1.1484375-.5458984375-1.7509765625-1.5966796875-1.7509765625-.953125,0-1.4990234375.7006835938-1.6533203125,1.2607421875v4.5385742188h-1.7783203125v-9.9453125Z"/><path d="m25.123046875,115.2431640625c0-1.9750976562,1.3583984375-3.7817382812,3.75390625-3.7817382812,1.45703125,0,2.5068359375.6723632812,3.2080078125,1.79296875l-1.2607421875.9663085938c-.392578125-.6865234375-.9951171875-1.1767578125-1.849609375-1.1767578125-1.232421875,0-2.044921875.8544921875-2.044921875,2.19921875,0,1.3310546875.8125,2.185546875,2.044921875,2.185546875.8544921875,0,1.45703125-.4907226562,1.849609375-1.1767578125l1.2607421875.9663085938c-.701171875,1.1206054688-1.7509765625,1.79296875-3.2080078125,1.79296875-2.3955078125,0-3.75390625-1.806640625-3.75390625-3.7680664062Z"/><path d="m32.615234375,115.2431640625c0-1.9750976562,1.31640625-3.7817382812,3.8232421875-3.7817382812,2.5078125,0,3.82421875,1.806640625,3.82421875,3.7817382812,0,1.9892578125-1.31640625,3.7963867188-3.82421875,3.7963867188-2.5068359375,0-3.8232421875-1.8071289062-3.8232421875-3.7963867188Zm1.806640625,0c0,1.3447265625.8544921875,2.2133789062,2.0166015625,2.2133789062,1.1630859375,0,2.017578125-.8686523438,2.017578125-2.2133789062,0-1.3305664062-.8544921875-2.19921875-2.017578125-2.19921875-1.162109375,0-2.0166015625.8686523438-2.0166015625,2.19921875Z"/><path d="m51.2841796875,114.794921875c0-1.1484375-.4765625-1.7509765625-1.541015625-1.7509765625-.896484375,0-1.4150390625.6025390625-1.5966796875,1.2607421875v4.5385742188h-1.779296875v-4.0483398438c0-1.1484375-.490234375-1.7509765625-1.541015625-1.7509765625-.8818359375,0-1.4140625.6025390625-1.5966796875,1.2607421875v4.5385742188h-1.7783203125v-7.2138671875h1.7783203125v1.0083007812c.392578125-.6440429688,1.1064453125-1.1762695312,2.2275390625-1.1762695312,1.1904296875,0,1.947265625.5180664062,2.3388671875,1.3725585938.5322265625-.8686523438,1.3447265625-1.3725585938,2.578125-1.3725585938,1.876953125,0,2.689453125,1.2885742188,2.689453125,3.1376953125v4.244140625h-1.779296875v-4.0483398438Z"/><path d="m56.396484375,118.8432617188h-1.779296875v-9.9453125h1.779296875v3.5717773438c.517578125-.6020507812,1.302734375-1.0083007812,2.2548828125-1.0083007812,2.0029296875,0,3.4736328125,1.4985351562,3.4736328125,3.7817382812s-1.470703125,3.7680664062-3.4736328125,3.7680664062c-.9521484375,0-1.7373046875-.3920898438-2.2548828125-.9946289062v.8266601562Zm3.921875-3.6000976562c0-1.400390625-.896484375-2.19921875-2.0595703125-2.19921875-.7978515625,0-1.5400390625.40625-1.8623046875,1.0927734375v2.2133789062c.322265625.6723632812,1.064453125,1.0786132812,1.8623046875,1.0786132812,1.1630859375,0,2.0595703125-.798828125,2.0595703125-2.185546875Z"/><path d="m62.9580078125,115.2573242188c0-2.2553710938,1.5263671875-3.7958984375,3.6279296875-3.7958984375s3.4736328125,1.4565429688,3.4736328125,3.5297851562c0,.23828125-.0419921875.57421875-.083984375.8686523438h-5.224609375c.181640625.9663085938.8544921875,1.6245117188,2.1015625,1.6245117188.8818359375,0,1.6240234375-.490234375,2.044921875-1.064453125l.98046875,1.1625976562c-.6728515625.8125-1.7373046875,1.4428710938-3.109375,1.4428710938-2.33984375,0-3.810546875-1.6669921875-3.810546875-3.7680664062Zm1.8212890625-.8544921875h3.515625c-.09765625-.9384765625-.7421875-1.470703125-1.708984375-1.470703125-.9248046875,0-1.568359375.5180664062-1.806640625,1.470703125Z"/><path d="m.0693359375,126.1176757812h1.8349609375l1.9755859375,7.1020507812,2.1708984375-7.1020507812h2.017578125l2.1708984375,7.1020507812,1.974609375-7.1020507812h1.8349609375l-2.7451171875,9.525390625h-2.03125l-2.212890625-7.0458984375-2.212890625,7.0458984375h-2.017578125L.0693359375,126.1176757812Z"/><path d="m14.876953125,125.361328125h1.8212890625v1.8491210938h-1.8212890625v-1.8491210938Zm.0283203125,3.0678710938h1.7783203125v7.2138671875h-1.7783203125v-7.2138671875Z"/><path d="m18.267578125,125.6977539062h1.7783203125v9.9453125h-1.7783203125v-9.9453125Z"/><path d="m22.1201171875,132.8837890625v-3.0258789062h-1.205078125v-1.4287109375h1.2607421875v-1.8349609375h1.72265625v1.8349609375h1.6669921875v1.4287109375h-1.6669921875v3.1098632812c0,.9243164062.4345703125,1.2465820312,1.3310546875,1.2465820312h.3359375v1.4287109375c-.23828125.0561523438-.5322265625.083984375-.7978515625.083984375-1.7509765625,0-2.6474609375-.8681640625-2.6474609375-2.8432617188Z"/><path d="m26.1923828125,134.4243164062l.9658203125-1.1206054688c.4765625.5883789062,1.2890625,1.0786132812,2.1435546875,1.0786132812.7705078125,0,1.31640625-.3081054688,1.31640625-.8403320312,0-.4760742188-.4345703125-.6723632812-1.1201171875-.7846679688l-.64453125-.09765625c-1.3447265625-.2241210938-2.1572265625-.966796875-2.1572265625-2.1435546875,0-1.2465820312,1.064453125-2.2548828125,2.87109375-2.2548828125,1.134765625,0,2.00390625.4760742188,2.5361328125,1.0922851562l-.9384765625,1.134765625c-.462890625-.490234375-1.0087890625-.7705078125-1.6669921875-.7705078125-.6728515625,0-1.0224609375.3081054688-1.0224609375.7006835938,0,.3637695312.279296875.5600585938.7978515625.6440429688l.64453125.0981445312c1.6533203125.251953125,2.4794921875,1.0224609375,2.4794921875,2.283203125,0,1.302734375-1.134765625,2.3955078125-3.166015625,2.3955078125-1.3447265625,0-2.380859375-.6303710938-3.0390625-1.4150390625Z"/><path d="m33.5341796875,125.6977539062h1.7783203125v3.7397460938c.392578125-.6440429688,1.1630859375-1.1762695312,2.283203125-1.1762695312,1.876953125,0,2.74609375,1.2885742188,2.74609375,3.1376953125v4.244140625h-1.779296875v-4.0483398438c0-1.1484375-.5458984375-1.7509765625-1.5966796875-1.7509765625-.953125,0-1.4990234375.7006835938-1.6533203125,1.2607421875v4.5385742188h-1.7783203125v-9.9453125Z"/><path d="m41.828125,125.361328125h1.8212890625v1.8491210938h-1.8212890625v-1.8491210938Zm.0283203125,3.0678710938h1.7783203125v7.2138671875h-1.7783203125v-7.2138671875Z"/><path d="m45.2197265625,128.4291992188h1.7783203125v1.1206054688c.4208984375-.7705078125,1.12109375-1.2885742188,2.0732421875-1.2885742188h.2099609375v1.6948242188c-1.064453125.0141601562-1.9326171875.322265625-2.283203125,1.4008789062v4.2861328125h-1.7783203125v-7.2138671875Z"/><path d="m49.724609375,132.0571289062c0-2.2553710938,1.5263671875-3.7958984375,3.6279296875-3.7958984375s3.4736328125,1.4565429688,3.4736328125,3.5297851562c0,.23828125-.0419921875.57421875-.083984375.8686523438h-5.224609375c.181640625.9663085938.8544921875,1.6245117188,2.1015625,1.6245117188.8818359375,0,1.6240234375-.490234375,2.044921875-1.064453125l.98046875,1.1625976562c-.6728515625.8125-1.7373046875,1.4428710938-3.1103515625,1.4428710938-2.3388671875,0-3.8095703125-1.6669921875-3.8095703125-3.7680664062Zm1.8212890625-.8544921875h3.515625c-.09765625-.9384765625-.7421875-1.470703125-1.708984375-1.470703125-.9248046875,0-1.568359375.5180664062-1.806640625,1.470703125Z"/><path d="m58.87890625,136.2734375h-.98046875v-2.1430664062h2.1572265625v1.8911132812l-.966796875,2.3251953125h-1.0498046875l.83984375-2.0732421875Z"/><path d="m64.701171875,126.1176757812h6.6962890625v1.5971679688h-4.875v2.3251953125h4.2021484375v1.5830078125h-4.2021484375v2.4233398438h4.875v1.5966796875h-6.6962890625v-9.525390625Z"/><path d="m72.73046875,128.4291992188h1.7783203125v1.0083007812c.392578125-.6440429688,1.1630859375-1.1762695312,2.283203125-1.1762695312,1.876953125,0,2.74609375,1.2885742188,2.74609375,3.1376953125v4.244140625h-1.779296875v-4.0483398438c0-1.1484375-.5458984375-1.7509765625-1.5966796875-1.7509765625-.8828125,0-1.470703125.6025390625-1.6533203125,1.2607421875v4.5385742188h-1.7783203125v-7.2138671875Z"/><path d="m80.6328125,131.70703125c0-2.0732421875,1.2744140625-3.4458007812,3.2919921875-3.4458007812.923828125,0,1.6806640625.40625,2.1845703125,1.0083007812v-.8403320312h1.779296875v5.9814453125c0,2.619140625-1.8349609375,3.8237304688-3.7822265625,3.8237304688-1.7646484375,0-2.787109375-.6723632812-3.333984375-1.4565429688l1.0791015625-1.1206054688c.4765625.6303710938,1.0927734375,1.0502929688,2.1708984375,1.0502929688,1.037109375,0,2.0869140625-.5883789062,2.0869140625-2.1572265625v-.3920898438c-.50390625.5883789062-1.2607421875.9946289062-2.1845703125.9946289062-2.017578125,0-3.2919921875-1.3725585938-3.2919921875-3.4458007812Zm5.4765625.8823242188v-1.7509765625c-.3212890625-.658203125-.9658203125-1.0502929688-1.7509765625-1.0502929688-1.17578125,0-1.9189453125.7700195312-1.9189453125,1.9189453125,0,1.1484375.7431640625,1.9189453125,1.9189453125,1.9189453125.78515625,0,1.4296875-.3920898438,1.7509765625-1.0366210938Z"/><path d="m89.4560546875,125.6977539062h1.7783203125v9.9453125h-1.7783203125v-9.9453125Z"/><path d="m98.18359375,134.81640625c-.5322265625.6025390625-1.3173828125.9946289062-2.255859375.9946289062-2.0029296875,0-3.4736328125-1.4848632812-3.4736328125-3.7680664062s1.470703125-3.7817382812,3.4736328125-3.7817382812c.9384765625,0,1.7236328125.40625,2.255859375,1.0083007812v-.8403320312h1.7783203125v7.2138671875h-1.7783203125v-.8266601562Zm0-1.6665039062v-2.2133789062c-.322265625-.6865234375-1.0654296875-1.0927734375-1.86328125-1.0927734375-1.1630859375,0-2.0595703125.798828125-2.0595703125,2.19921875,0,1.38671875.896484375,2.185546875,2.0595703125,2.185546875.7978515625,0,1.541015625-.40625,1.86328125-1.0786132812Z"/><path d="m101.564453125,128.4291992188h1.7783203125v1.0083007812c.392578125-.6440429688,1.1630859375-1.1762695312,2.283203125-1.1762695312,1.876953125,0,2.74609375,1.2885742188,2.74609375,3.1376953125v4.244140625h-1.779296875v-4.0483398438c0-1.1484375-.5458984375-1.7509765625-1.5966796875-1.7509765625-.8828125,0-1.470703125.6025390625-1.6533203125,1.2607421875v4.5385742188h-1.7783203125v-7.2138671875Z"/><path d="m115.22265625,134.81640625c-.5322265625.6025390625-1.3173828125.9946289062-2.255859375.9946289062-2.0029296875,0-3.4736328125-1.4848632812-3.4736328125-3.7680664062s1.470703125-3.7817382812,3.4736328125-3.7817382812c.9384765625,0,1.7236328125.40625,2.255859375,1.0083007812v-3.5717773438h1.7783203125v9.9453125h-1.7783203125v-.8266601562Zm0-1.6665039062v-2.2133789062c-.322265625-.6865234375-1.0654296875-1.0927734375-1.86328125-1.0927734375-1.1630859375,0-2.0595703125.798828125-2.0595703125,2.19921875,0,1.38671875.896484375,2.185546875,2.0595703125,2.185546875.7978515625,0,1.541015625-.40625,1.86328125-1.0786132812Z"/><path d="m119.5556640625,136.2734375h-.98046875v-2.1430664062h2.1572265625v1.8911132812l-.966796875,2.3251953125h-1.0498046875l.83984375-2.0732421875Z"/><path d="m126.73828125,128.1489257812l-1.7373046875.9526367188-.658203125-1.38671875,2.84375-1.5971679688h1.330078125v9.525390625h-1.7783203125v-7.494140625Z"/><path d="m137.7001953125,130.642578125c0,3.2495117188-1.6943359375,5.1967773438-4.3701171875,5.1967773438-1.52734375,0-2.6337890625-.7426757812-3.236328125-1.6391601562l1.21875-1.0922851562c.40625.6298828125,1.134765625,1.078125,2.017578125,1.078125,1.3310546875,0,2.3251953125-.896484375,2.5068359375-2.619140625-.57421875.6303710938-1.3720703125,1.0786132812-2.46484375,1.0786132812-1.79296875,0-3.333984375-1.3168945312-3.333984375-3.3198242188s1.6669921875-3.4038085938,3.6982421875-3.4038085938c2.60546875,0,3.9638671875,1.9887695312,3.9638671875,4.720703125Zm-5.8271484375-1.3588867188c0,.9384765625.7001953125,1.72265625,1.86328125,1.72265625,1.1484375,0,1.8486328125-.7841796875,1.8486328125-1.72265625,0-.9248046875-.7001953125-1.708984375-1.8486328125-1.708984375-1.1630859375,0-1.86328125.7841796875-1.86328125,1.708984375Z"/><path d="m138.072265625,134.2421875l1.0361328125-1.232421875c.4765625.5600585938,1.232421875,1.1762695312,2.4091796875,1.1762695312s2.03125-.50390625,2.03125-1.4145507812c0-.8266601562-.658203125-1.2885742188-2.0029296875-1.2885742188h-.9384765625v-1.5688476562h.9384765625c1.037109375,0,1.4990234375-.560546875,1.4990234375-1.1909179688,0-.7563476562-.658203125-1.1484375-1.45703125-1.1484375-1.0224609375,0-1.625.4482421875-1.9892578125.9663085938l-1.064453125-1.1206054688c.6162109375-.7983398438,1.6953125-1.4985351562,3.0537109375-1.4985351562,2.044921875,0,3.2783203125.9946289062,3.2783203125,2.6752929688,0,.7705078125-.462890625,1.5126953125-1.21875,1.9609375,1.1064453125.3642578125,1.72265625,1.2470703125,1.72265625,2.3676757812,0,1.79296875-1.6953125,2.9135742188-3.8525390625,2.9135742188-1.6943359375,0-2.8291015625-.896484375-3.4453125-1.5971679688Z"/><path d="m146.359375,130.8803710938c0-2.9833984375,1.4287109375-4.9584960938,4.0068359375-4.9584960938,2.5771484375,0,4.005859375,1.9750976562,4.005859375,4.9584960938,0,2.9838867188-1.4287109375,4.958984375-4.005859375,4.958984375-2.578125,0-4.0068359375-1.9750976562-4.0068359375-4.958984375Zm6.19140625,0c0-1.9331054688-.6162109375-3.3056640625-2.1845703125-3.3056640625-1.5693359375,0-2.185546875,1.3725585938-2.185546875,3.3056640625s.6162109375,3.3056640625,2.185546875,3.3056640625c1.568359375,0,2.1845703125-1.3725585938,2.1845703125-3.3056640625Z"/><path d="m155.8837890625,130.6845703125h4.08984375v1.4287109375h-4.08984375v-1.4287109375Z"/><path d="m162.4306640625,128.1489257812l-1.7373046875.9526367188-.658203125-1.38671875,2.84375-1.5971679688h1.330078125v9.525390625h-1.7783203125v-7.494140625Z"/><path d="m173.392578125,130.642578125c0,3.2495117188-1.6943359375,5.1967773438-4.3701171875,5.1967773438-1.52734375,0-2.6337890625-.7426757812-3.236328125-1.6391601562l1.21875-1.0922851562c.40625.6298828125,1.134765625,1.078125,2.017578125,1.078125,1.3310546875,0,2.3251953125-.896484375,2.5068359375-2.619140625-.57421875.6303710938-1.3720703125,1.0786132812-2.46484375,1.0786132812-1.79296875,0-3.333984375-1.3168945312-3.333984375-3.3198242188s1.6669921875-3.4038085938,3.6982421875-3.4038085938c2.60546875,0,3.9638671875,1.9887695312,3.9638671875,4.720703125Zm-5.8271484375-1.3588867188c0,.9384765625.7001953125,1.72265625,1.86328125,1.72265625,1.1484375,0,1.8486328125-.7841796875,1.8486328125-1.72265625,0-.9248046875-.7001953125-1.708984375-1.8486328125-1.708984375-1.1630859375,0-1.86328125.7841796875-1.86328125,1.708984375Z"/><path d="m174.1484375,131.958984375l4.3701171875-5.8413085938h2.3115234375v5.5610351562h1.5830078125v1.5830078125h-1.5830078125v2.3813476562h-1.7646484375v-2.3813476562h-4.9169921875v-1.302734375Zm4.9169921875-.2802734375v-3.6977539062l-2.7041015625,3.6977539062h2.7041015625Z"/><path d="m182.7265625,134.2421875l1.037109375-1.232421875c.4755859375.5600585938,1.2177734375,1.1762695312,2.4091796875,1.1762695312,1.1767578125,0,2.03125-.658203125,2.03125-1.7368164062,0-.9946289062-.7568359375-1.6245117188-1.8076171875-1.6245117188-.7421875,0-1.302734375.2377929688-1.7509765625.5600585938l-1.1201171875-.3784179688.4482421875-4.888671875h5.5185546875v1.5971679688h-3.9638671875l-.1962890625,1.6528320312c.3642578125-.1123046875.7568359375-.1962890625,1.1904296875-.1962890625,1.9189453125,0,3.501953125,1.0786132812,3.501953125,3.2778320312,0,2.1293945312-1.568359375,3.3901367188-3.8515625,3.3901367188-1.6953125,0-2.830078125-.896484375-3.4462890625-1.5971679688Z"/><rect class="cls-1" y="0" width="318.1005859375" height="138.3466796875"/></g></svg>