<?xml version="1.0" encoding="UTF-8"?><svg id="_레이어_2" xmlns="http://www.w3.org/2000/svg" viewBox="0 0 318.1005859375 135.8393554688"><defs><style>.cls-1{fill:none;}</style></defs><g id="Layer_1"><path d="m9.4814453125.3002929688h2.419921875v16.4833984375h-2.419921875v-8.7216796875h-1.220703125c-.2197265625,3.0405273438-1.5205078125,4.6411132812-3.701171875,4.6411132812-2.419921875,0-3.80078125-1.9404296875-3.80078125-5.6416015625C.7587890625,3.380859375,2.1396484375,1.4204101562,4.5595703125,1.4204101562c2.140625,0,3.4208984375,1.5805664062,3.701171875,4.4609375h1.220703125V.3002929688ZM3.1396484375,7.0615234375c0,2.140625.4599609375,3.5009765625,1.419921875,3.5009765625.9404296875,0,1.400390625-1.3603515625,1.400390625-3.5009765625,0-2.1401367188-.4599609375-3.48046875-1.400390625-3.48046875-.9599609375,0-1.419921875,1.3403320312-1.419921875,3.48046875ZM13.1220703125,0h2.4404296875v17.2836914062h-2.4404296875V0Z"/><path d="m17.3662109375,9.6020507812h15.84375v2.0004882812h-15.84375v-2.0004882812Zm2.3212890625,3.1611328125h2.560546875v2.6000976562h8.8818359375v2.0805664062h-10.482421875c-.6005859375,0-.9599609375-.259765625-.9599609375-.8198242188v-3.8608398438Zm.1201171875-12.0830078125h10.9619140625v4.6411132812h-8.4013671875v1.1000976562h8.7216796875v1.80078125h-10.322265625c-.6005859375,0-.9599609375-.240234375-.9599609375-.8002929688v-3.8208007812h8.4013671875v-1.0600585938h-8.4013671875V.6801757812Z"/><path d="m33.9912109375,12.962890625h15.84375v2.220703125h-15.84375v-2.220703125Zm6.6220703125-11.9223632812h2.6005859375v1.2202148438c0,3.5405273438,2.560546875,5.1411132812,5.5009765625,6.0810546875l-.9599609375,2.0805664062c-2.48046875-.6201171875-5.041015625-2.3203125-5.841796875-4.2607421875-.759765625,1.9404296875-3.3203125,3.6806640625-5.8212890625,4.3408203125l-.9599609375-2.0805664062c2.900390625-.919921875,5.4814453125-2.6206054688,5.4814453125-6.1411132812v-1.240234375Z"/><path d="m51.1640625,13.1630859375h15.84375v2.2202148438h-15.84375v-2.2202148438Zm2.28125-11.8627929688h11.2822265625v2.1206054688h-8.7216796875v1.5805664062h8.341796875v2.0200195312h-8.341796875v1.6206054688h9.001953125v2.1206054688h-10.6025390625c-.6005859375,0-.9599609375-.2602539062-.9599609375-.8203125V1.3002929688Z"/><path d="m73.0439453125,1.6206054688h6.880859375v4.2407226562h1.541015625V.3002929688h2.419921875v16.4833984375h-2.419921875v-8.7216796875h-1.541015625v4.4208984375h-5.9013671875c-.6201171875,0-.9794921875-.240234375-.9794921875-.8203125V1.6206054688Zm2.400390625,2.1606445312v6.541015625h2.1201171875V3.78125h-2.1201171875Zm9.662109375-3.78125h2.4404296875v17.2836914062h-2.4404296875V0Z"/><path d="m98.892578125,7.181640625c0,2.9409179688-1.1806640625,5.8012695312-4.62109375,5.8012695312-3.4609375,0-4.6611328125-2.8603515625-4.6611328125-5.8012695312,0-2.9404296875,1.2001953125-5.8012695312,4.6611328125-5.8012695312,3.4404296875,0,4.62109375,2.8608398438,4.62109375,5.8012695312Zm-6.7216796875,0c0,1.6206054688.4599609375,3.62109375,2.1005859375,3.62109375s2.080078125-2.0004882812,2.080078125-3.62109375c0-1.6201171875-.439453125-3.6206054688-2.080078125-3.6206054688s-2.1005859375,2.0004882812-2.1005859375,3.6206054688Zm8.7421875-7.181640625h2.560546875v17.2836914062h-2.560546875V0Z"/><path d="m117.154296875,0h2.560546875v6.26171875h2.240234375v2.2001953125h-2.240234375v8.8217773438h-2.560546875v-4.30078125c-1.3408203125.7802734375-3.1611328125.9604492188-5.0810546875.9604492188h-6.4619140625v-2.2407226562h4.1611328125v-2.5004882812c-2.1806640625-.419921875-3.5009765625-1.98046875-3.5009765625-4.1206054688,0-2.5405273438,1.8603515625-4.2612304688,4.78125-4.2612304688s4.720703125,1.720703125,4.720703125,4.2612304688c0,2.1401367188-1.2998046875,3.7006835938-3.4404296875,4.1206054688v2.5004882812h.9599609375c1.5,0,2.8203125-.1000976562,3.861328125-.5600585938V0Zm-6.1015625,7.1616210938c1.3203125,0,2.220703125-.7998046875,2.220703125-2.080078125,0-1.3002929688-.900390625-2.0805664062-2.220703125-2.0805664062-1.3408203125,0-2.220703125.7802734375-2.220703125,2.0805664062,0,1.2802734375.8798828125,2.080078125,2.220703125,2.080078125Z"/><path d="m129.291015625,1.5805664062h11.322265625v2.640625c0,3.3408203125-.3603515625,6.0810546875-1.400390625,8.4819335938h3.8408203125v2.2202148438h-15.84375v-2.2202148438h9.7626953125c.8203125-2.48046875,1.0400390625-5.3813476562,1.0400390625-8.0219726562v-.8798828125h-8.7216796875V1.5805664062Z"/><path d="m148.8505859375,11.7026367188h4.1611328125v-2.5004882812c-2.1806640625-.419921875-3.541015625-1.98046875-3.541015625-4.1206054688,0-2.5405273438,1.900390625-4.2612304688,4.8212890625-4.2612304688,2.919921875,0,4.7607421875,1.720703125,4.7607421875,4.2612304688,0,2.1401367188-1.3203125,3.7006835938-3.48046875,4.1206054688v2.5004882812h1.2001953125c1.48046875,0,2.8603515625-.1000976562,3.900390625-.5600585938V0h2.560546875v17.2836914062h-2.560546875v-4.30078125c-1.33984375.7802734375-3.2001953125.9604492188-5.140625.9604492188h-6.681640625v-2.2407226562Zm5.44140625-4.541015625c1.3203125,0,2.259765625-.7998046875,2.259765625-2.080078125,0-1.3002929688-.939453125-2.0805664062-2.259765625-2.0805664062-1.3408203125,0-2.2607421875.7802734375-2.2607421875,2.0805664062,0,1.2802734375.919921875,2.080078125,2.2607421875,2.080078125Z"/><path d="m170.0908203125,8.4418945312h2.7001953125v-3.3403320312h2.560546875v3.3403320312h2.66015625c1.4208984375,0,2.640625-.1401367188,3.62109375-.5600585938V0h2.560546875v5.0615234375h2.2607421875v2.2202148438h-2.2607421875v5.8413085938h-2.560546875v-3.4809570312c-1.2802734375.7602539062-2.98046875.9404296875-4.861328125.9604492188h-6.6806640625v-2.1606445312Zm.919921875-7.5615234375h8.8017578125v1.7001953125c0,1.640625-.240234375,3.6611328125-.580078125,4.9814453125l-2.3603515625-.3002929688c.259765625-1.080078125.3798828125-2.6206054688.3798828125-3.6606445312v-.580078125h-6.2412109375V.8803710938Zm2.080078125,10.982421875h2.560546875v3.380859375h9.1025390625v2.1801757812h-10.703125c-.599609375,0-.9599609375-.259765625-.9599609375-.8198242188v-4.7412109375Z"/><path d="m187.3212890625,1.6206054688h6.701171875v1.6000976562c0,.1000976562,0,.5205078125-.0205078125.6005859375h1.560546875V.3002929688h2.4208984375v16.4833984375h-2.4208984375v-6.0810546875h-2.33984375v-2.1206054688h2.33984375v-2.640625h-1.83984375c-.7001953125,3.060546875-2.6611328125,5.44140625-5.78125,7.1616210938l-1.3408203125-2.0004882812c3.140625-1.7001953125,4.9609375-4.2807617188,4.9609375-7.3012695312h-4.240234375V1.6206054688Zm12.0625-1.6206054688h2.4404296875v17.2836914062h-2.4404296875V0Z"/><path d="m204.2099609375,1.5205078125h8.90234375v2.2006835938h-3.1611328125c0,3.4204101562.83984375,5.6611328125,3.880859375,7.5014648438l-1.3603515625,1.9404296875c-1.8603515625-1.0400390625-3.2001953125-2.7407226562-3.720703125-4.2407226562-.5205078125,1.66015625-1.9404296875,3.4204101562-3.900390625,4.560546875l-1.3603515625-1.9404296875c3.080078125-1.8803710938,3.880859375-4.3408203125,3.880859375-7.8212890625h-3.1611328125V1.5205078125Zm10.8427734375-1.5205078125h2.560546875v5.9614257812h2.3603515625v2.220703125h-2.3603515625v9.1015625h-2.560546875V0Z"/><path d="m1.0361328125,24.3984375h6.6962890625v1.5971679688H2.857421875v2.3251953125h4.2021484375v1.5830078125H2.857421875v2.4233398438h4.875v1.5966796875H1.0361328125v-9.525390625Z"/><path d="m9.0634765625,26.7099609375h1.7783203125v1.1206054688c.4208984375-.7705078125,1.12109375-1.2885742188,2.0732421875-1.2885742188h.2099609375v1.6948242188c-1.064453125.0141601562-1.9326171875.322265625-2.283203125,1.4008789062v4.2861328125h-1.7783203125v-7.2138671875Z"/><path d="m13.9609375,26.7099609375h1.7783203125v1.0083007812c.392578125-.6440429688,1.1630859375-1.1762695312,2.283203125-1.1762695312,1.876953125,0,2.74609375,1.2885742188,2.74609375,3.1376953125v4.244140625h-1.779296875v-4.0483398438c0-1.1484375-.5458984375-1.7509765625-1.5966796875-1.7509765625-.8828125,0-1.470703125.6025390625-1.6533203125,1.2607421875v4.5385742188h-1.7783203125v-7.2138671875Z"/><path d="m21.6005859375,32.705078125l.966796875-1.1206054688c.4765625.5883789062,1.2890625,1.0786132812,2.1435546875,1.0786132812.7705078125,0,1.31640625-.3081054688,1.31640625-.8403320312,0-.4760742188-.4345703125-.6723632812-1.1201171875-.7846679688l-.64453125-.09765625c-1.3447265625-.2241210938-2.1572265625-.966796875-2.1572265625-2.1435546875,0-1.2465820312,1.064453125-2.2548828125,2.87109375-2.2548828125,1.134765625,0,2.0029296875.4760742188,2.5361328125,1.0922851562l-.9384765625,1.134765625c-.462890625-.490234375-1.0087890625-.7705078125-1.6669921875-.7705078125-.6728515625,0-1.0224609375.3081054688-1.0224609375.7006835938,0,.3637695312.279296875.5600585938.7978515625.6440429688l.64453125.0981445312c1.65234375.251953125,2.4794921875,1.0224609375,2.4794921875,2.283203125,0,1.302734375-1.134765625,2.3955078125-3.166015625,2.3955078125-1.3447265625,0-2.380859375-.6303710938-3.0400390625-1.4150390625Z"/><path d="m29.4892578125,31.1645507812v-3.0258789062h-1.205078125v-1.4287109375h1.2607421875v-1.8349609375h1.72265625v1.8349609375h1.6669921875v1.4287109375h-1.6669921875v3.1098632812c0,.9243164062.4345703125,1.2465820312,1.3310546875,1.2465820312h.3359375v1.4287109375c-.23828125.0561523438-.5322265625.083984375-.7978515625.083984375-1.7509765625,0-2.6474609375-.8681640625-2.6474609375-2.8432617188Z"/><path d="m37.1884765625,24.3984375h2.4375l2.830078125,7.1860351562,2.8427734375-7.1860351562h2.4375v9.525390625h-1.8203125v-6.7377929688l-2.6337890625,6.7377929688h-1.638671875l-2.6337890625-6.7377929688v6.7377929688h-1.8212890625v-9.525390625Z"/><path d="m54.8857421875,33.0971679688c-.5322265625.6025390625-1.3173828125.9946289062-2.255859375.9946289062-2.0029296875,0-3.4736328125-1.4848632812-3.4736328125-3.7680664062s1.470703125-3.7817382812,3.4736328125-3.7817382812c.9384765625,0,1.7236328125.40625,2.255859375,1.0083007812v-.8403320312h1.7783203125v7.2138671875h-1.7783203125v-.8266601562Zm0-1.6665039062v-2.2133789062c-.322265625-.6865234375-1.0654296875-1.0927734375-1.86328125-1.0927734375-1.1630859375,0-2.0595703125.798828125-2.0595703125,2.19921875,0,1.38671875.896484375,2.185546875,2.0595703125,2.185546875.7978515625,0,1.541015625-.40625,1.86328125-1.0786132812Z"/><path d="m60.35546875,32.9995117188l-2.8857421875-6.2895507812h1.9052734375l1.9189453125,4.314453125,1.779296875-4.314453125h1.9189453125l-4.23046875,9.6372070312h-1.9189453125l1.5126953125-3.34765625Z"/><path d="m75.4365234375,33.923828125h-1.779296875v-1.0087890625c-.392578125.64453125-1.1630859375,1.1767578125-2.283203125,1.1767578125-1.876953125,0-2.7451171875-1.2885742188-2.7451171875-3.1376953125v-4.244140625h1.7783203125v4.0483398438c0,1.1484375.546875,1.7509765625,1.5966796875,1.7509765625.8828125,0,1.4716796875-.6025390625,1.6533203125-1.2607421875v-4.5385742188h1.779296875v7.2138671875Z"/><path d="m77.0234375,26.7099609375h1.7783203125v1.0083007812c.392578125-.6440429688,1.1630859375-1.1762695312,2.283203125-1.1762695312,1.876953125,0,2.74609375,1.2885742188,2.74609375,3.1376953125v4.244140625h-1.779296875v-4.0483398438c0-1.1484375-.5458984375-1.7509765625-1.5966796875-1.7509765625-.8828125,0-1.470703125.6025390625-1.6533203125,1.2607421875v4.5385742188h-1.7783203125v-7.2138671875Z"/><path d="m90.681640625,33.0971679688c-.5322265625.6025390625-1.3173828125.9946289062-2.255859375.9946289062-2.0029296875,0-3.4736328125-1.4848632812-3.4736328125-3.7680664062s1.470703125-3.7817382812,3.4736328125-3.7817382812c.9384765625,0,1.7236328125.40625,2.255859375,1.0083007812v-3.5717773438h1.7783203125v9.9453125h-1.7783203125v-.8266601562Zm0-1.6665039062v-2.2133789062c-.322265625-.6865234375-1.0654296875-1.0927734375-1.86328125-1.0927734375-1.1630859375,0-2.0595703125.798828125-2.0595703125,2.19921875,0,1.38671875.896484375,2.185546875,2.0595703125,2.185546875.7978515625,0,1.541015625-.40625,1.86328125-1.0786132812Z"/><path d="m102.357421875,33.0971679688c-.5322265625.6025390625-1.3173828125.9946289062-2.255859375.9946289062-2.0029296875,0-3.4736328125-1.4848632812-3.4736328125-3.7680664062s1.470703125-3.7817382812,3.4736328125-3.7817382812c.9384765625,0,1.7236328125.40625,2.255859375,1.0083007812v-.8403320312h1.7783203125v7.2138671875h-1.7783203125v-.8266601562Zm0-1.6665039062v-2.2133789062c-.322265625-.6865234375-1.0654296875-1.0927734375-1.86328125-1.0927734375-1.1630859375,0-2.0595703125.798828125-2.0595703125,2.19921875,0,1.38671875.896484375,2.185546875,2.0595703125,2.185546875.7978515625,0,1.541015625-.40625,1.86328125-1.0786132812Z"/><path d="m105.7373046875,26.7099609375h1.7783203125v1.0083007812c.392578125-.6440429688,1.1630859375-1.1762695312,2.283203125-1.1762695312,1.876953125,0,2.74609375,1.2885742188,2.74609375,3.1376953125v4.244140625h-1.779296875v-4.0483398438c0-1.1484375-.5458984375-1.7509765625-1.5966796875-1.7509765625-.8828125,0-1.470703125.6025390625-1.6533203125,1.2607421875v4.5385742188h-1.7783203125v-7.2138671875Z"/><path d="m119.3955078125,33.0971679688c-.5322265625.6025390625-1.3173828125.9946289062-2.255859375.9946289062-2.0029296875,0-3.4736328125-1.4848632812-3.4736328125-3.7680664062s1.470703125-3.7817382812,3.4736328125-3.7817382812c.9384765625,0,1.7236328125.40625,2.255859375,1.0083007812v-3.5717773438h1.7783203125v9.9453125h-1.7783203125v-.8266601562Zm0-1.6665039062v-2.2133789062c-.322265625-.6865234375-1.0654296875-1.0927734375-1.86328125-1.0927734375-1.1630859375,0-2.0595703125.798828125-2.0595703125,2.19921875,0,1.38671875.896484375,2.185546875,2.0595703125,2.185546875.7978515625,0,1.541015625-.40625,1.86328125-1.0786132812Z"/><path d="m122.376953125,30.337890625c0-2.2553710938,1.5263671875-3.7958984375,3.6279296875-3.7958984375s3.4736328125,1.4565429688,3.4736328125,3.5297851562c0,.23828125-.0419921875.57421875-.083984375.8686523438h-5.224609375c.181640625.9663085938.8544921875,1.6245117188,2.1015625,1.6245117188.8818359375,0,1.6240234375-.490234375,2.044921875-1.064453125l.98046875,1.1625976562c-.6728515625.8125-1.7373046875,1.4428710938-3.1103515625,1.4428710938-2.3388671875,0-3.8095703125-1.6669921875-3.8095703125-3.7680664062Zm1.8212890625-.8544921875h3.515625c-.09765625-.9384765625-.7421875-1.470703125-1.708984375-1.470703125-.9248046875,0-1.568359375.5180664062-1.806640625,1.470703125Z"/><path d="m130.677734375,26.7099609375h1.7783203125v1.1206054688c.4208984375-.7705078125,1.12109375-1.2885742188,2.0732421875-1.2885742188h.2099609375v1.6948242188c-1.064453125.0141601562-1.9326171875.322265625-2.283203125,1.4008789062v4.2861328125h-1.7783203125v-7.2138671875Z"/><path d="m135.18359375,30.337890625c0-2.2553710938,1.5263671875-3.7958984375,3.6279296875-3.7958984375s3.4736328125,1.4565429688,3.4736328125,3.5297851562c0,.23828125-.0419921875.57421875-.083984375.8686523438h-5.224609375c.181640625.9663085938.8544921875,1.6245117188,2.1015625,1.6245117188.8818359375,0,1.6240234375-.490234375,2.044921875-1.064453125l.98046875,1.1625976562c-.6728515625.8125-1.7373046875,1.4428710938-3.1103515625,1.4428710938-2.3388671875,0-3.8095703125-1.6669921875-3.8095703125-3.7680664062Zm1.8212890625-.8544921875h3.515625c-.09765625-.9384765625-.7421875-1.470703125-1.708984375-1.470703125-.9248046875,0-1.568359375.5180664062-1.806640625,1.470703125Z"/><path d="m149.9970703125,24.3984375h1.6396484375l-4.2724609375,9.525390625h-1.625l4.2578125-9.525390625Z"/><path d="m160.8486328125,33.0971679688c-.5322265625.6025390625-1.3173828125.9946289062-2.255859375.9946289062-2.0029296875,0-3.4736328125-1.4848632812-3.4736328125-3.7680664062s1.470703125-3.7817382812,3.4736328125-3.7817382812c.9384765625,0,1.7236328125.40625,2.255859375,1.0083007812v-.8403320312h1.7783203125v7.2138671875h-1.7783203125v-.8266601562Zm0-1.6665039062v-2.2133789062c-.322265625-.6865234375-1.0654296875-1.0927734375-1.86328125-1.0927734375-1.1630859375,0-2.0595703125.798828125-2.0595703125,2.19921875,0,1.38671875.896484375,2.185546875,2.0595703125,2.185546875.7978515625,0,1.541015625-.40625,1.86328125-1.0786132812Z"/><path d="m164.2294921875,26.7099609375h1.7783203125v1.0083007812c.392578125-.6440429688,1.1630859375-1.1762695312,2.283203125-1.1762695312,1.876953125,0,2.74609375,1.2885742188,2.74609375,3.1376953125v4.244140625h-1.779296875v-4.0483398438c0-1.1484375-.5458984375-1.7509765625-1.5966796875-1.7509765625-.8828125,0-1.470703125.6025390625-1.6533203125,1.2607421875v4.5385742188h-1.7783203125v-7.2138671875Z"/><path d="m177.88671875,33.0971679688c-.5322265625.6025390625-1.3173828125.9946289062-2.255859375.9946289062-2.0029296875,0-3.4736328125-1.4848632812-3.4736328125-3.7680664062s1.470703125-3.7817382812,3.4736328125-3.7817382812c.9384765625,0,1.7236328125.40625,2.255859375,1.0083007812v-3.5717773438h1.7783203125v9.9453125h-1.7783203125v-.8266601562Zm0-1.6665039062v-2.2133789062c-.322265625-.6865234375-1.0654296875-1.0927734375-1.86328125-1.0927734375-1.1630859375,0-2.0595703125.798828125-2.0595703125,2.19921875,0,1.38671875.896484375,2.185546875,2.0595703125,2.185546875.7978515625,0,1.541015625-.40625,1.86328125-1.0786132812Z"/><path d="m183.8193359375,30.3237304688c0-1.9750976562,1.31640625-3.7817382812,3.82421875-3.7817382812,2.5068359375,0,3.8232421875,1.806640625,3.8232421875,3.7817382812,0,1.9892578125-1.31640625,3.7963867188-3.8232421875,3.7963867188-2.5078125,0-3.82421875-1.8071289062-3.82421875-3.7963867188Zm1.806640625,0c0,1.3447265625.8544921875,2.2133789062,2.017578125,2.2133789062,1.162109375,0,2.0166015625-.8686523438,2.0166015625-2.2133789062,0-1.3305664062-.8544921875-2.19921875-2.0166015625-2.19921875-1.1630859375,0-2.017578125.8686523438-2.017578125,2.19921875Z"/><path d="m193.0703125,31.1645507812v-3.0258789062h-1.205078125v-1.4287109375h1.2607421875v-1.8349609375h1.72265625v1.8349609375h1.6669921875v1.4287109375h-1.6669921875v3.1098632812c0,.9243164062.4345703125,1.2465820312,1.3310546875,1.2465820312h.3359375v1.4287109375c-.23828125.0561523438-.5322265625.083984375-.7978515625.083984375-1.7509765625,0-2.6474609375-.8681640625-2.6474609375-2.8432617188Z"/><path d="m197.6748046875,23.978515625h1.7783203125v3.7397460938c.392578125-.6440429688,1.1630859375-1.1762695312,2.283203125-1.1762695312,1.876953125,0,2.74609375,1.2885742188,2.74609375,3.1376953125v4.244140625h-1.779296875v-4.0483398438c0-1.1484375-.5458984375-1.7509765625-1.5966796875-1.7509765625-.953125,0-1.4990234375.7006835938-1.6533203125,1.2607421875v4.5385742188h-1.7783203125v-9.9453125Z"/><path d="m205.603515625,30.337890625c0-2.2553710938,1.5263671875-3.7958984375,3.6279296875-3.7958984375s3.4736328125,1.4565429688,3.4736328125,3.5297851562c0,.23828125-.0419921875.57421875-.083984375.8686523438h-5.224609375c.181640625.9663085938.8544921875,1.6245117188,2.1015625,1.6245117188.8818359375,0,1.6240234375-.490234375,2.044921875-1.064453125l.98046875,1.1625976562c-.6728515625.8125-1.7373046875,1.4428710938-3.1103515625,1.4428710938-2.3388671875,0-3.8095703125-1.6669921875-3.8095703125-3.7680664062Zm1.8212890625-.8544921875h3.515625c-.09765625-.9384765625-.7421875-1.470703125-1.708984375-1.470703125-.9248046875,0-1.568359375.5180664062-1.806640625,1.470703125Z"/><path d="m213.904296875,26.7099609375h1.7783203125v1.1206054688c.4208984375-.7705078125,1.12109375-1.2885742188,2.0732421875-1.2885742188h.2099609375v1.6948242188c-1.064453125.0141601562-1.9326171875.322265625-2.283203125,1.4008789062v4.2861328125h-1.7783203125v-7.2138671875Z"/><path d="m218.2333984375,32.705078125l.966796875-1.1206054688c.4765625.5883789062,1.2890625,1.0786132812,2.1435546875,1.0786132812.7705078125,0,1.31640625-.3081054688,1.31640625-.8403320312,0-.4760742188-.4345703125-.6723632812-1.1201171875-.7846679688l-.64453125-.09765625c-1.3447265625-.2241210938-2.1572265625-.966796875-2.1572265625-2.1435546875,0-1.2465820312,1.064453125-2.2548828125,2.87109375-2.2548828125,1.134765625,0,2.0029296875.4760742188,2.5361328125,1.0922851562l-.9384765625,1.134765625c-.462890625-.490234375-1.0087890625-.7705078125-1.6669921875-.7705078125-.6728515625,0-1.0224609375.3081054688-1.0224609375.7006835938,0,.3637695312.279296875.5600585938.7978515625.6440429688l.64453125.0981445312c1.65234375.251953125,2.4794921875,1.0224609375,2.4794921875,2.283203125,0,1.302734375-1.134765625,2.3955078125-3.166015625,2.3955078125-1.3447265625,0-2.380859375-.6303710938-3.0400390625-1.4150390625Z"/><path d="m.6787109375,70.5615234375h15.84375v2.220703125h-3.5810546875v5.5009765625h-2.580078125v-5.5009765625h-3.48046875v5.5009765625h-2.560546875v-5.5009765625H.6787109375v-2.220703125Zm2.380859375-9.0815429688h2.560546875v4.720703125h8.921875v2.220703125H4.01953125c-.599609375,0-.9599609375-.240234375-.9599609375-.8203125v-6.12109375Z"/><path d="m22.158203125,74.0024414062h15.86328125v2.1806640625h-15.86328125v-2.1806640625Zm3.8408203125-8.6616210938h2.580078125v2.1401367188c0,.5.0400390625,1.1401367188.1005859375,1.5805664062h2.80078125c.080078125-.4404296875.1201171875-1.0805664062.1201171875-1.5805664062v-2.1401367188h2.580078125v1.580078125c0,.7802734375-.1396484375,1.6206054688-.48046875,2.140625h2.4609375v2.1801757812h-12.142578125v-2.1801757812h2.4609375c-.30078125-.4604492188-.48046875-1.2001953125-.48046875-2.0004882812v-1.7202148438Zm-1.7802734375-3.0209960938h11.7421875v2.2006835938h-11.7421875v-2.2006835938Z"/><path d="m38.884765625,61.7797851562h8.28125v5.3012695312h-5.720703125v1.3203125h4.220703125c1.48046875,0,2.8408203125-.2001953125,3.8408203125-.7202148438v-6.76171875h2.560546875v3.9208984375h2.3408203125v2.220703125h-2.3408203125v4.1606445312h-2.560546875v-1.900390625c-1.259765625.8203125-3.060546875,1.140625-5.060546875,1.140625h-4.5810546875c-.6201171875,0-.98046875-.240234375-.98046875-.8203125v-4.541015625h5.7607421875v-1.240234375h-5.7607421875v-2.0805664062Zm7.8818359375,9.8422851562c3.5205078125,0,5.48046875,1.4399414062,5.48046875,3.6005859375,0,2.140625-1.9599609375,3.5610351562-5.48046875,3.5610351562s-5.4814453125-1.4204101562-5.4814453125-3.5610351562c0-2.1606445312,1.9609375-3.6005859375,5.4814453125-3.6005859375Zm0,5.0009765625c1.900390625,0,2.919921875-.5,2.919921875-1.400390625,0-.919921875-1.01953125-1.4404296875-2.919921875-1.4404296875s-2.9208984375.5205078125-2.9208984375,1.4404296875c0,.900390625,1.0205078125,1.400390625,2.9208984375,1.400390625Z"/><path d="m56.7275390625,62.33984375h11.302734375v3.0805664062c0,3.8208007812-.2998046875,6.181640625-1.4404296875,8.421875h3.720703125v2.220703125h-15.84375v-2.220703125h9.962890625c.580078125-1.6000976562.83984375-3.220703125.939453125-4.9008789062-.6396484375.6401367188-1.9404296875.9204101562-3.720703125.9204101562h-5.140625v-2.0805664062h6.0009765625c1.16015625,0,2.240234375-.080078125,2.9404296875-.3603515625.0205078125-.3999023438.0205078125-.8198242188.0205078125-1.2602539062v-1.6401367188h-8.7421875v-2.1806640625Z"/><path d="m71.451171875,70.9819335938h15.86328125v2.2001953125h-6.6416015625v5.1010742188h-2.580078125v-5.1010742188h-6.6416015625v-2.2001953125Zm3.880859375-6.5415039062h2.6005859375v1.4404296875c0,.4399414062.01953125.83984375.080078125,1.2001953125h2.740234375c.0400390625-.3603515625.080078125-.7602539062.080078125-1.2001953125v-1.4404296875h2.6005859375v1.0200195312c0,.6201171875-.1396484375,1.2001953125-.419921875,1.6206054688h2.3408203125v2.1801757812h-11.943359375v-2.1801757812h2.3212890625c-.240234375-.400390625-.400390625-.8803710938-.400390625-1.5205078125v-1.1201171875Zm-1.720703125-2.8408203125h11.54296875v2.2006835938h-11.54296875v-2.2006835938Z"/><path d="m88.369140625,74.0825195312h15.84375v2.2202148438h-15.84375v-2.2202148438Zm2.28125-11.8627929688h11.2822265625v5.7211914062h-8.7421875v1.6206054688h9.0224609375v2.1206054688h-10.6025390625c-.6005859375,0-.9599609375-.2602539062-.9599609375-.8203125v-4.9409179688h8.7412109375v-1.5805664062h-8.7412109375v-2.1206054688Z"/><path d="m105.54296875,74.0825195312h15.84375v2.2202148438h-15.84375v-2.2202148438Zm2.28125-11.8627929688h11.2822265625v2.1206054688h-8.7216796875v1.5805664062h8.341796875v2.0200195312h-8.341796875v1.6206054688h9.001953125v2.1206054688h-10.6025390625c-.6005859375,0-.9599609375-.2602539062-.9599609375-.8203125v-8.6420898438Z"/><path d="m.6591796875,98.0024414062h15.86328125v2.1806640625H.6591796875v-2.1806640625Zm3.8408203125-8.6616210938h2.580078125v2.1401367188c0,.5.0400390625,1.1401367188.1005859375,1.5805664062h2.80078125c.080078125-.4404296875.1201171875-1.0805664062.1201171875-1.5805664062v-2.1401367188h2.580078125v1.580078125c0,.7802734375-.1396484375,1.6206054688-.48046875,2.140625h2.4609375v2.1801757812H2.51953125v-2.1801757812h2.4609375c-.30078125-.4604492188-.48046875-1.2001953125-.48046875-2.0004882812v-1.7202148438Zm-1.7802734375-3.0209960938h11.7421875v2.2006835938H2.7197265625v-2.2006835938Z"/><path d="m17.384765625,85.7797851562h8.28125v5.3012695312h-5.720703125v1.3203125h4.220703125c1.48046875,0,2.8408203125-.2001953125,3.8408203125-.7202148438v-6.76171875h2.560546875v3.9208984375h2.3408203125v2.220703125h-2.3408203125v4.1606445312h-2.560546875v-1.900390625c-1.259765625.8203125-3.060546875,1.140625-5.060546875,1.140625h-4.5810546875c-.6201171875,0-.98046875-.240234375-.98046875-.8203125v-4.541015625h5.7607421875v-1.240234375h-5.7607421875v-2.0805664062Zm7.8818359375,9.8422851562c3.5205078125,0,5.48046875,1.4399414062,5.48046875,3.6005859375,0,2.140625-1.9599609375,3.5610351562-5.48046875,3.5610351562s-5.4814453125-1.4204101562-5.4814453125-3.5610351562c0-2.1606445312,1.9609375-3.6005859375,5.4814453125-3.6005859375Zm0,5.0009765625c1.900390625,0,2.919921875-.5,2.919921875-1.400390625,0-.919921875-1.01953125-1.4404296875-2.919921875-1.4404296875s-2.9208984375.5205078125-2.9208984375,1.4404296875c0,.900390625,1.0205078125,1.400390625,2.9208984375,1.400390625Z"/><path d="m35.2275390625,86.33984375h11.302734375v3.0805664062c0,3.8208007812-.2998046875,6.181640625-1.4404296875,8.421875h3.720703125v2.220703125h-15.84375v-2.220703125h9.962890625c.580078125-1.6000976562.83984375-3.220703125.939453125-4.9008789062-.6396484375.6401367188-1.9404296875.9204101562-3.720703125.9204101562h-5.140625v-2.0805664062h6.0009765625c1.16015625,0,2.240234375-.080078125,2.9404296875-.3603515625.0205078125-.3999023438.0205078125-.8198242188.0205078125-1.2602539062v-1.6401367188h-8.7421875v-2.1806640625Z"/><path d="m49.951171875,94.9819335938h15.86328125v2.2001953125h-6.6416015625v5.1010742188h-2.580078125v-5.1010742188h-6.6416015625v-2.2001953125Zm3.880859375-6.5415039062h2.6005859375v1.4404296875c0,.4399414062.01953125.83984375.080078125,1.2001953125h2.740234375c.0400390625-.3603515625.080078125-.7602539062.080078125-1.2001953125v-1.4404296875h2.6005859375v1.0200195312c0,.6201171875-.1396484375,1.2001953125-.419921875,1.6206054688h2.3408203125v2.1801757812h-11.943359375v-2.1801757812h2.3212890625c-.240234375-.400390625-.400390625-.8803710938-.400390625-1.5205078125v-1.1201171875Zm-1.720703125-2.8408203125h11.54296875v2.2006835938h-11.54296875v-2.2006835938Z"/><path d="m66.869140625,98.0825195312h15.84375v2.2202148438h-15.84375v-2.2202148438Zm2.28125-11.8627929688h11.2822265625v5.7211914062h-8.7421875v1.6206054688h9.0224609375v2.1206054688h-10.6025390625c-.6005859375,0-.9599609375-.2602539062-.9599609375-.8203125v-4.9409179688h8.7412109375v-1.5805664062h-8.7412109375v-2.1206054688Z"/><path d="m84.04296875,98.0825195312h15.84375v2.2202148438h-15.84375v-2.2202148438Zm2.28125-11.8627929688h11.2822265625v2.1206054688h-8.7216796875v1.5805664062h8.341796875v2.0200195312h-8.341796875v1.6206054688h9.001953125v2.1206054688h-10.6025390625c-.6005859375,0-.9599609375-.2602539062-.9599609375-.8203125v-8.6420898438Z"/><path d="m110.423828125,85.6196289062c2.900390625,0,4.720703125,1.7006835938,4.720703125,4.2412109375s-1.8203125,4.2407226562-4.720703125,4.2407226562c-2.9208984375,0-4.78125-1.7001953125-4.78125-4.2407226562s1.8603515625-4.2412109375,4.78125-4.2412109375Zm0,6.3212890625c1.2998046875,0,2.2001953125-.7797851562,2.2001953125-2.080078125s-.900390625-2.0805664062-2.2001953125-2.0805664062c-1.3203125,0-2.220703125.7802734375-2.220703125,2.0805664062s.900390625,2.080078125,2.220703125,2.080078125Zm-1.80078125,3.541015625h10.7822265625v6.94140625h-9.822265625c-.599609375,0-.9599609375-.259765625-.9599609375-.8203125v-6.12109375Zm2.560546875,2.1606445312v2.6005859375h5.6611328125v-2.6005859375h-5.6611328125Zm5.6611328125-12.7231445312h2.560546875v3.7211914062h2.3408203125v2.2001953125h-2.3408203125v3.7006835938h-2.560546875v-9.6220703125Z"/><path d="m123.234375,86.5200195312h8.361328125v11.1826171875h-7.4013671875c-.599609375,0-.9599609375-.240234375-.9599609375-.8002929688v-10.3823242188Zm2.5,2.1806640625v6.8212890625h3.4013671875v-6.8212890625h-3.4013671875Zm8.1025390625-3.78125h2.560546875v5.861328125h2.3603515625v2.220703125h-2.3603515625v9.2016601562h-2.560546875v-17.2836914062Z"/><path d="m144.8408203125,85.7797851562c2.9208984375,0,4.7412109375,1.8603515625,4.7412109375,4.5610351562,0,2.720703125-1.8203125,4.5810546875-4.7412109375,4.5810546875s-4.7607421875-1.8603515625-4.7607421875-4.5810546875c0-2.7006835938,1.83984375-4.5610351562,4.7607421875-4.5610351562Zm0,6.9814453125c1.3203125,0,2.2001953125-.9799804688,2.2001953125-2.4204101562,0-1.4204101562-.8798828125-2.400390625-2.2001953125-2.400390625s-2.2001953125.9799804688-2.2001953125,2.400390625c0,1.4404296875.8798828125,2.4204101562,2.2001953125,2.4204101562Zm-1.5400390625,3.3608398438h2.560546875v3.9809570312h8.681640625v2.1801757812h-10.2822265625c-.6005859375,0-.9599609375-.2397460938-.9599609375-.8198242188v-5.3413085938Zm8.2412109375-11.2026367188h2.560546875v12.7431640625h-2.560546875v-12.7431640625Z"/><path d="m158.33203125,100.8432617188h-1.400390625v-3.0610351562h3.080078125v2.7006835938l-1.3798828125,3.3208007812h-1.5l1.2001953125-2.9604492188Z"/><path d="m168.4921875,85.599609375h10.9619140625v2.1206054688h-8.4013671875v2.0205078125h8.6015625v2.0805664062h-4.4013671875v1.7202148438h6.6416015625v2.0805664062h-15.84375v-2.0805664062h6.6416015625v-1.7202148438h-3.240234375c-.6005859375,0-.9599609375-.240234375-.9599609375-.8002929688v-5.4213867188Zm-.3603515625,11.4228515625h11.4423828125v5.8208007812h-2.560546875v-3.720703125h-8.8818359375v-2.1000976562Z"/><path d="m187.138671875,85.5395507812c2.94140625,0,4.7216796875,1.6806640625,4.7216796875,3.9409179688,0,2.2607421875-1.7802734375,3.9409179688-4.7216796875,3.9409179688-2.9599609375,0-4.7802734375-1.6801757812-4.7802734375-3.9409179688,0-2.2602539062,1.8203125-3.9409179688,4.7802734375-3.9409179688Zm0,5.78125c1.3408203125,0,2.201171875-.7197265625,2.201171875-1.8403320312,0-1.1201171875-.8603515625-1.8403320312-2.201171875-1.8403320312-1.359375,0-2.2197265625.7202148438-2.2197265625,1.8403320312,0,1.1206054688.8603515625,1.8403320312,2.2197265625,1.8403320312Zm-1.5595703125,3.1010742188h10.822265625v4.9409179688h-8.2822265625v1.1401367188h8.7216796875v2.0004882812h-10.3017578125c-.6005859375,0-.9599609375-.2602539062-.9599609375-.8203125v-4.220703125h8.28125v-1.080078125h-8.28125v-1.9604492188Zm8.26171875-9.5024414062h2.560546875v8.7021484375h-2.560546875v-8.7021484375Z"/><path d="m200.587890625,100.8432617188h-1.400390625v-3.0610351562h3.080078125v2.7006835938l-1.3798828125,3.3208007812h-1.5l1.2001953125-2.9604492188Z"/><path d="m211.0478515625,89.2407226562l-2.48046875,1.3603515625-.9404296875-1.98046875,4.060546875-2.2807617188h1.900390625v13.6030273438h-2.5400390625v-10.7021484375Z"/><path d="m226.7734375,92.8012695312c0,4.6411132812-2.4208984375,7.421875-6.2412109375,7.421875-2.1806640625,0-3.7607421875-1.060546875-4.62109375-2.3408203125l1.740234375-1.5600585938c.580078125.8999023438,1.6201171875,1.5400390625,2.880859375,1.5400390625,1.900390625,0,3.3203125-1.2802734375,3.580078125-3.7407226562-.8193359375.900390625-1.9599609375,1.5405273438-3.5205078125,1.5405273438-2.560546875,0-4.7607421875-1.8803710938-4.7607421875-4.7412109375,0-2.8603515625,2.380859375-4.8608398438,5.28125-4.8608398438,3.720703125,0,5.6611328125,2.8403320312,5.6611328125,6.7412109375Zm-8.322265625-1.9404296875c0,1.3403320312,1.0009765625,2.4604492188,2.6611328125,2.4604492188,1.6396484375,0,2.640625-1.1201171875,2.640625-2.4604492188,0-1.3203125-1.0009765625-2.4404296875-2.640625-2.4404296875-1.66015625,0-2.6611328125,1.1201171875-2.6611328125,2.4404296875Z"/><path d="m227.8544921875,98.0024414062c1.6806640625-3.220703125,6.8017578125-4.701171875,6.8017578125-7.3813476562,0-1.1606445312-.6396484375-2.2006835938-2.3603515625-2.2006835938-1.240234375,0-2.0400390625.6801757812-2.4208984375,1.8203125l-1.9599609375-1.080078125c.48046875-1.400390625,1.80078125-3.1005859375,4.5009765625-3.1005859375,3.060546875,0,4.78125,1.9404296875,4.78125,4.4008789062,0,4.0009765625-4.7216796875,5.4208984375-5.9814453125,7.2016601562h6.2412109375v2.2802734375h-9.6025390625v-1.9404296875Z"/><path d="m238.888671875,93.4814453125c0-4.6411132812,2.419921875-7.4213867188,6.2412109375-7.4213867188,2.1806640625,0,3.7607421875,1.0600585938,4.62109375,2.3403320312l-1.740234375,1.560546875c-.580078125-.900390625-1.62109375-1.5405273438-2.880859375-1.5405273438-1.900390625,0-3.3408203125,1.3002929688-3.6005859375,3.7407226562.8203125-.8999023438,1.98046875-1.5400390625,3.541015625-1.5400390625,2.560546875,0,4.7607421875,1.8803710938,4.7607421875,4.7407226562,0,2.8608398438-2.380859375,4.861328125-5.28125,4.861328125-3.720703125,0-5.6611328125-2.8408203125-5.6611328125-6.7416992188Zm8.3212890625,1.9404296875c0-1.3403320312-1-2.4604492188-2.66015625-2.4604492188-1.640625,0-2.640625,1.1201171875-2.640625,2.4604492188,0,1.3203125,1,2.4404296875,2.640625,2.4404296875,1.66015625,0,2.66015625-1.1201171875,2.66015625-2.4404296875Z"/><path d="m251.9130859375,92.861328125h5.841796875v2.0405273438h-5.841796875v-2.0405273438Z"/><path d="m261.3251953125,89.2407226562l-2.48046875,1.3603515625-.9404296875-1.98046875,4.060546875-2.2807617188h1.900390625v13.6030273438h-2.5400390625v-10.7021484375Z"/><path d="m277.05078125,92.8012695312c0,4.6411132812-2.4208984375,7.421875-6.2412109375,7.421875-2.1806640625,0-3.7607421875-1.060546875-4.62109375-2.3408203125l1.740234375-1.5600585938c.580078125.8999023438,1.6201171875,1.5400390625,2.880859375,1.5400390625,1.900390625,0,3.3203125-1.2802734375,3.580078125-3.7407226562-.8193359375.900390625-1.9599609375,1.5405273438-3.5205078125,1.5405273438-2.560546875,0-4.7607421875-1.8803710938-4.7607421875-4.7412109375,0-2.8603515625,2.380859375-4.8608398438,5.28125-4.8608398438,3.720703125,0,5.6611328125,2.8403320312,5.6611328125,6.7412109375Zm-8.322265625-1.9404296875c0,1.3403320312,1.0009765625,2.4604492188,2.6611328125,2.4604492188,1.6396484375,0,2.640625-1.1201171875,2.640625-2.4604492188,0-1.3203125-1.0009765625-2.4404296875-2.640625-2.4404296875-1.66015625,0-2.6611328125,1.1201171875-2.6611328125,2.4404296875Z"/><path d="m277.650390625,97.9423828125l1.48046875-1.7602539062c.6796875.8002929688,1.759765625,1.6801757812,3.4404296875,1.6801757812s2.900390625-.7202148438,2.900390625-2.0205078125c0-1.1801757812-.9404296875-1.8403320312-2.8603515625-1.8403320312h-1.3408203125v-2.240234375h1.3408203125c1.48046875,0,2.140625-.8002929688,2.140625-1.7006835938,0-1.080078125-.9404296875-1.6401367188-2.0810546875-1.6401367188-1.4599609375,0-2.3203125.6401367188-2.83984375,1.3803710938l-1.5205078125-1.6005859375c.8798828125-1.1401367188,2.419921875-2.1401367188,4.3603515625-2.1401367188,2.9208984375,0,4.681640625,1.419921875,4.681640625,3.8208007812,0,1.1000976562-.66015625,2.16015625-1.740234375,2.8002929688,1.580078125.5205078125,2.4599609375,1.7807617188,2.4599609375,3.380859375,0,2.560546875-2.419921875,4.1611328125-5.5009765625,4.1611328125-2.4208984375,0-4.041015625-1.2802734375-4.9208984375-2.2807617188Z"/><path d="m292.103515625,89.2407226562l-2.48046875,1.3603515625-.9404296875-1.98046875,4.060546875-2.2807617188h1.900390625v13.6030273438h-2.5400390625v-10.7021484375Z"/><path d="m1.0361328125,109.3178710938h6.5556640625v1.5971679688H2.857421875v2.3813476562h4.2021484375v1.5966796875H2.857421875v3.9501953125h-1.8212890625v-9.525390625Z"/><path d="m8.3408203125,111.6293945312h1.7783203125v1.1206054688c.4208984375-.7705078125,1.12109375-1.2885742188,2.0732421875-1.2885742188h.2099609375v1.6948242188c-1.064453125.0141601562-1.9326171875.322265625-2.283203125,1.4008789062v4.2861328125h-1.7783203125v-7.2138671875Z"/><path d="m18.58984375,118.0166015625c-.5322265625.6025390625-1.3173828125.9946289062-2.255859375.9946289062-2.0029296875,0-3.4736328125-1.4848632812-3.4736328125-3.7680664062s1.470703125-3.7817382812,3.4736328125-3.7817382812c.9384765625,0,1.7236328125.40625,2.255859375,1.0083007812v-.8403320312h1.7783203125v7.2138671875h-1.7783203125v-.8266601562Zm0-1.6665039062v-2.2133789062c-.322265625-.6865234375-1.0654296875-1.0927734375-1.86328125-1.0927734375-1.1630859375,0-2.0595703125.798828125-2.0595703125,2.19921875,0,1.38671875.896484375,2.185546875,2.0595703125,2.185546875.7978515625,0,1.541015625-.40625,1.86328125-1.0786132812Z"/><path d="m21.970703125,111.6293945312h1.7783203125v1.0083007812c.392578125-.6440429688,1.1630859375-1.1762695312,2.283203125-1.1762695312,1.876953125,0,2.74609375,1.2885742188,2.74609375,3.1376953125v4.244140625h-1.779296875v-4.0483398438c0-1.1484375-.5458984375-1.7509765625-1.5966796875-1.7509765625-.8828125,0-1.470703125.6025390625-1.6533203125,1.2607421875v4.5385742188h-1.7783203125v-7.2138671875Z"/><path d="m30.3056640625,108.8979492188h1.7783203125v5.798828125l2.7880859375-3.0673828125h2.03125v.0561523438l-2.74609375,3.025390625,3.0537109375,4.0903320312v.0419921875h-2.1005859375l-2.0732421875-2.8994140625-.953125,1.0502929688v1.8491210938h-1.7783203125v-9.9453125Z"/><path d="m38.60546875,113.0581054688h-1.1201171875v-1.4287109375h1.1201171875v-.4204101562c0-1.38671875.8271484375-2.4370117188,2.521484375-2.4370117188.224609375,0,.5048828125.013671875.6728515625.0419921875v1.4428710938h-.30859375c-.671875,0-1.1064453125.2661132812-1.1064453125.9663085938v.40625h1.4150390625v1.4287109375h-1.4150390625v5.78515625h-1.779296875v-5.78515625Z"/><path d="m49.4287109375,118.8432617188h-1.779296875v-1.0087890625c-.392578125.64453125-1.1630859375,1.1767578125-2.283203125,1.1767578125-1.876953125,0-2.7451171875-1.2885742188-2.7451171875-3.1376953125v-4.244140625h1.7783203125v4.0483398438c0,1.1484375.546875,1.7509765625,1.5966796875,1.7509765625.8828125,0,1.4716796875-.6025390625,1.6533203125-1.2607421875v-4.5385742188h1.779296875v7.2138671875Z"/><path d="m51.0166015625,111.6293945312h1.7783203125v1.1206054688c.4208984375-.7705078125,1.12109375-1.2885742188,2.0732421875-1.2885742188h.2099609375v1.6948242188c-1.064453125.0141601562-1.9326171875.322265625-2.283203125,1.4008789062v4.2861328125h-1.7783203125v-7.2138671875Z"/><path d="m56.783203125,116.083984375v-3.0258789062h-1.205078125v-1.4287109375h1.2607421875v-1.8349609375h1.72265625v1.8349609375h1.6669921875v1.4287109375h-1.6669921875v3.1098632812c0,.9243164062.4345703125,1.2465820312,1.3310546875,1.2465820312h.3359375v1.4287109375c-.23828125.0561523438-.5322265625.083984375-.7978515625.083984375-1.7509765625,0-2.6474609375-.8681640625-2.6474609375-2.8432617188Z"/><path d="m69.623046875,118.0166015625c-.5322265625.6025390625-1.3173828125.9946289062-2.255859375.9946289062-2.0029296875,0-3.4736328125-1.4848632812-3.4736328125-3.7680664062s1.470703125-3.7817382812,3.4736328125-3.7817382812c.9384765625,0,1.7236328125.40625,2.255859375,1.0083007812v-.8403320312h1.7783203125v7.2138671875h-1.7783203125v-.8266601562Zm0-1.6665039062v-2.2133789062c-.322265625-.6865234375-1.0654296875-1.0927734375-1.86328125-1.0927734375-1.1630859375,0-2.0595703125.798828125-2.0595703125,2.19921875,0,1.38671875.896484375,2.185546875,2.0595703125,2.185546875.7978515625,0,1.541015625-.40625,1.86328125-1.0786132812Z"/><path d="m82.8369140625,114.794921875c0-1.1484375-.4765625-1.7509765625-1.541015625-1.7509765625-.896484375,0-1.4150390625.6025390625-1.5966796875,1.2607421875v4.5385742188h-1.779296875v-4.0483398438c0-1.1484375-.490234375-1.7509765625-1.541015625-1.7509765625-.8818359375,0-1.4140625.6025390625-1.5966796875,1.2607421875v4.5385742188h-1.7783203125v-7.2138671875h1.7783203125v1.0083007812c.392578125-.6440429688,1.1064453125-1.1762695312,2.2275390625-1.1762695312,1.1904296875,0,1.947265625.5180664062,2.3388671875,1.3725585938.5322265625-.8686523438,1.3447265625-1.3725585938,2.578125-1.3725585938,1.876953125,0,2.689453125,1.2885742188,2.689453125,3.1376953125v4.244140625h-1.779296875v-4.0483398438Z"/><path d="m89.2705078125,109.3178710938h2.4375l2.830078125,7.1860351562,2.8427734375-7.1860351562h2.4375v9.525390625h-1.8203125v-6.7377929688l-2.6337890625,6.7377929688h-1.638671875l-2.6337890625-6.7377929688v6.7377929688h-1.8212890625v-9.525390625Z"/><path d="m106.9677734375,118.0166015625c-.5322265625.6025390625-1.3173828125.9946289062-2.255859375.9946289062-2.0029296875,0-3.4736328125-1.4848632812-3.4736328125-3.7680664062s1.470703125-3.7817382812,3.4736328125-3.7817382812c.9384765625,0,1.7236328125.40625,2.255859375,1.0083007812v-.8403320312h1.7783203125v7.2138671875h-1.7783203125v-.8266601562Zm0-1.6665039062v-2.2133789062c-.322265625-.6865234375-1.0654296875-1.0927734375-1.86328125-1.0927734375-1.1630859375,0-2.0595703125.798828125-2.0595703125,2.19921875,0,1.38671875.896484375,2.185546875,2.0595703125,2.185546875.7978515625,0,1.541015625-.40625,1.86328125-1.0786132812Z"/><path d="m110.3232421875,108.5615234375h1.8212890625v1.8491210938h-1.8212890625v-1.8491210938Zm.0283203125,3.0678710938h1.7783203125v7.2138671875h-1.7783203125v-7.2138671875Z"/><path d="m113.7138671875,111.6293945312h1.7783203125v1.0083007812c.392578125-.6440429688,1.1630859375-1.1762695312,2.283203125-1.1762695312,1.876953125,0,2.74609375,1.2885742188,2.74609375,3.1376953125v4.244140625h-1.779296875v-4.0483398438c0-1.1484375-.5458984375-1.7509765625-1.5966796875-1.7509765625-.8828125,0-1.470703125.6025390625-1.6533203125,1.2607421875v4.5385742188h-1.7783203125v-7.2138671875Z"/><path d="m123.0185546875,119.4736328125h-.98046875v-2.1430664062h2.1572265625v1.8911132812l-.966796875,2.3251953125h-1.0498046875l.83984375-2.0732421875Z"/><path d="m128.2958984375,114.0805664062c0-2.8432617188,2.0595703125-4.9584960938,4.888671875-4.9584960938,1.947265625,0,3.404296875.8823242188,4.244140625,2.2690429688l-1.3583984375,1.0224609375c-.6025390625-.98046875-1.4853515625-1.5966796875-2.857421875-1.5966796875-1.8349609375,0-3.0400390625,1.4150390625-3.0400390625,3.263671875,0,1.8491210938,1.205078125,3.263671875,3.0537109375,3.263671875.91015625,0,1.8212890625-.251953125,2.353515625-.6440429688v-1.625h-2.1435546875v-1.5830078125h3.9638671875v4.146484375c-.9521484375.7563476562-2.619140625,1.4008789062-4.2158203125,1.4008789062-2.8291015625,0-4.888671875-2.115234375-4.888671875-4.958984375Z"/><path d="m138.5439453125,115.2573242188c0-2.2553710938,1.5263671875-3.7958984375,3.6279296875-3.7958984375s3.4736328125,1.4565429688,3.4736328125,3.5297851562c0,.23828125-.0419921875.57421875-.083984375.8686523438h-5.224609375c.181640625.9663085938.8544921875,1.6245117188,2.1015625,1.6245117188.8818359375,0,1.6240234375-.490234375,2.044921875-1.064453125l.98046875,1.1625976562c-.6728515625.8125-1.7373046875,1.4428710938-3.109375,1.4428710938-2.33984375,0-3.810546875-1.6669921875-3.810546875-3.7680664062Zm1.8212890625-.8544921875h3.515625c-.09765625-.9384765625-.7421875-1.470703125-1.708984375-1.470703125-.9248046875,0-1.568359375.5180664062-1.806640625,1.470703125Z"/><path d="m146.8447265625,111.6293945312h1.7783203125v1.1206054688c.4208984375-.7705078125,1.12109375-1.2885742188,2.0732421875-1.2885742188h.2099609375v1.6948242188c-1.064453125.0141601562-1.9326171875.322265625-2.283203125,1.4008789062v4.2861328125h-1.7783203125v-7.2138671875Z"/><path d="m161.57421875,114.794921875c0-1.1484375-.4765625-1.7509765625-1.541015625-1.7509765625-.896484375,0-1.4150390625.6025390625-1.5966796875,1.2607421875v4.5385742188h-1.779296875v-4.0483398438c0-1.1484375-.490234375-1.7509765625-1.541015625-1.7509765625-.8818359375,0-1.4140625.6025390625-1.5966796875,1.2607421875v4.5385742188h-1.7783203125v-7.2138671875h1.7783203125v1.0083007812c.392578125-.6440429688,1.1064453125-1.1762695312,2.2275390625-1.1762695312,1.1904296875,0,1.947265625.5180664062,2.3388671875,1.3725585938.5322265625-.8686523438,1.3447265625-1.3725585938,2.578125-1.3725585938,1.876953125,0,2.689453125,1.2885742188,2.689453125,3.1376953125v4.244140625h-1.779296875v-4.0483398438Z"/><path d="m170.2236328125,118.0166015625c-.5322265625.6025390625-1.3173828125.9946289062-2.255859375.9946289062-2.0029296875,0-3.4736328125-1.4848632812-3.4736328125-3.7680664062s1.470703125-3.7817382812,3.4736328125-3.7817382812c.9384765625,0,1.7236328125.40625,2.255859375,1.0083007812v-.8403320312h1.7783203125v7.2138671875h-1.7783203125v-.8266601562Zm0-1.6665039062v-2.2133789062c-.322265625-.6865234375-1.0654296875-1.0927734375-1.86328125-1.0927734375-1.1630859375,0-2.0595703125.798828125-2.0595703125,2.19921875,0,1.38671875.896484375,2.185546875,2.0595703125,2.185546875.7978515625,0,1.541015625-.40625,1.86328125-1.0786132812Z"/><path d="m173.603515625,111.6293945312h1.7783203125v1.0083007812c.392578125-.6440429688,1.1630859375-1.1762695312,2.283203125-1.1762695312,1.876953125,0,2.74609375,1.2885742188,2.74609375,3.1376953125v4.244140625h-1.779296875v-4.0483398438c0-1.1484375-.5458984375-1.7509765625-1.5966796875-1.7509765625-.8828125,0-1.470703125.6025390625-1.6533203125,1.2607421875v4.5385742188h-1.7783203125v-7.2138671875Z"/><path d="m183.66015625,117.9189453125l-2.8857421875-6.2895507812h1.9052734375l1.9189453125,4.314453125,1.779296875-4.314453125h1.9189453125l-4.23046875,9.6372070312h-1.9189453125l1.5126953125-3.34765625Z"/><path d="m189.005859375,119.4736328125h-.98046875v-2.1430664062h2.1572265625v1.8911132812l-.966796875,2.3251953125h-1.0498046875l.83984375-2.0732421875Z"/><path d="m2.3955078125,128.1489257812l-1.7373046875.9526367188-.658203125-1.38671875,2.84375-1.5971679688h1.330078125v9.525390625h-1.7783203125v-7.494140625Z"/><path d="m13.357421875,130.642578125c0,3.2495117188-1.6943359375,5.1967773438-4.3701171875,5.1967773438-1.52734375,0-2.6337890625-.7426757812-3.236328125-1.6391601562l1.21875-1.0922851562c.40625.6298828125,1.134765625,1.078125,2.017578125,1.078125,1.3310546875,0,2.3251953125-.896484375,2.5068359375-2.619140625-.57421875.6303710938-1.3720703125,1.0786132812-2.46484375,1.0786132812-1.79296875,0-3.333984375-1.3168945312-3.333984375-3.3198242188s1.6669921875-3.4038085938,3.6982421875-3.4038085938c2.60546875,0,3.9638671875,1.9887695312,3.9638671875,4.720703125Zm-5.8271484375-1.3588867188c0,.9384765625.7001953125,1.72265625,1.86328125,1.72265625,1.1484375,0,1.8486328125-.7841796875,1.8486328125-1.72265625,0-.9248046875-.7001953125-1.708984375-1.8486328125-1.708984375-1.1630859375,0-1.86328125.7841796875-1.86328125,1.708984375Z"/><path d="m14.064453125,134.2841796875c1.1767578125-2.2548828125,4.7626953125-3.2915039062,4.7626953125-5.1684570312,0-.8125-.4482421875-1.541015625-1.6533203125-1.541015625-.8681640625,0-1.4287109375.4760742188-1.6953125,1.2749023438l-1.3720703125-.7568359375c.3359375-.98046875,1.2607421875-2.1708984375,3.1513671875-2.1708984375,2.1435546875,0,3.34765625,1.3588867188,3.34765625,3.0815429688,0,2.8017578125-3.3056640625,3.7958984375-4.1884765625,5.04296875h4.37109375v1.5966796875h-6.7236328125v-1.3588867188Z"/><path d="m21.7392578125,131.1186523438c0-3.25,1.6953125-5.1967773438,4.3701171875-5.1967773438,1.52734375,0,2.6337890625.7421875,3.236328125,1.638671875l-1.21875,1.0927734375c-.40625-.6303710938-1.134765625-1.0786132812-2.017578125-1.0786132812-1.330078125,0-2.3388671875.9106445312-2.521484375,2.6196289062.5751953125-.6303710938,1.3876953125-1.0786132812,2.4794921875-1.0786132812,1.79296875,0,3.333984375,1.31640625,3.333984375,3.3198242188,0,2.0029296875-1.6669921875,3.4038085938-3.6982421875,3.4038085938-2.60546875,0-3.9638671875-1.9892578125-3.9638671875-4.720703125Zm5.8271484375,1.3588867188c0-.9384765625-.7001953125-1.7231445312-1.86328125-1.7231445312-1.1484375,0-1.8486328125.7846679688-1.8486328125,1.7231445312,0,.9243164062.7001953125,1.7084960938,1.8486328125,1.7084960938,1.1630859375,0,1.86328125-.7841796875,1.86328125-1.7084960938Z"/><path d="m30.8046875,130.6845703125h4.08984375v1.4287109375h-4.08984375v-1.4287109375Z"/><path d="m37.3515625,128.1489257812l-1.7373046875.9526367188-.658203125-1.38671875,2.84375-1.5971679688h1.330078125v9.525390625h-1.7783203125v-7.494140625Z"/><path d="m48.3125,130.642578125c0,3.2495117188-1.6943359375,5.1967773438-4.3701171875,5.1967773438-1.52734375,0-2.6337890625-.7426757812-3.236328125-1.6391601562l1.21875-1.0922851562c.40625.6298828125,1.134765625,1.078125,2.017578125,1.078125,1.3310546875,0,2.3251953125-.896484375,2.5068359375-2.619140625-.57421875.6303710938-1.3720703125,1.0786132812-2.46484375,1.0786132812-1.79296875,0-3.333984375-1.3168945312-3.333984375-3.3198242188s1.6669921875-3.4038085938,3.6982421875-3.4038085938c2.60546875,0,3.9638671875,1.9887695312,3.9638671875,4.720703125Zm-5.8271484375-1.3588867188c0,.9384765625.7001953125,1.72265625,1.86328125,1.72265625,1.1484375,0,1.8486328125-.7841796875,1.8486328125-1.72265625,0-.9248046875-.7001953125-1.708984375-1.8486328125-1.708984375-1.1630859375,0-1.86328125.7841796875-1.86328125,1.708984375Z"/><path d="m48.685546875,134.2421875l1.0361328125-1.232421875c.4765625.5600585938,1.232421875,1.1762695312,2.4091796875,1.1762695312s2.03125-.50390625,2.03125-1.4145507812c0-.8266601562-.658203125-1.2885742188-2.0029296875-1.2885742188h-.9384765625v-1.5688476562h.9384765625c1.037109375,0,1.4990234375-.560546875,1.4990234375-1.1909179688,0-.7563476562-.658203125-1.1484375-1.45703125-1.1484375-1.0224609375,0-1.625.4482421875-1.9892578125.9663085938l-1.064453125-1.1206054688c.6162109375-.7983398438,1.6953125-1.4985351562,3.0537109375-1.4985351562,2.044921875,0,3.2783203125.9946289062,3.2783203125,2.6752929688,0,.7705078125-.462890625,1.5126953125-1.21875,1.9609375,1.1064453125.3642578125,1.72265625,1.2470703125,1.72265625,2.3676757812,0,1.79296875-1.6953125,2.9135742188-3.8525390625,2.9135742188-1.6943359375,0-2.8291015625-.896484375-3.4453125-1.5971679688Z"/><path d="m58.7548828125,128.1489257812l-1.7373046875.9526367188-.658203125-1.38671875,2.84375-1.5971679688h1.330078125v9.525390625h-1.7783203125v-7.494140625Z"/><rect class="cls-1" width="318.1005859375" height="135.8393554688"/></g></svg>