<?xml version="1.0" encoding="UTF-8"?><svg id="_레이어_2" xmlns="http://www.w3.org/2000/svg" viewBox="0 0 318.1005859375 138.3466796875"><defs><style>.cls-1{fill:none;}</style></defs><g id="Layer_1"><path d="m12.595703125,0h2.560546875v17.2836914062h-2.560546875v-9.0815429688h-2.3212890625c-.2392578125,2.560546875-1.4794921875,4.7807617188-4.5205078125,4.7807617188-3.4609375,0-4.62109375-2.8603515625-4.62109375-5.8012695312C1.1328125,4.2412109375,2.29296875,1.3803710938,5.75390625,1.3803710938c2.98046875,0,4.220703125,2.1606445312,4.5009765625,4.6411132812h2.3408203125V0ZM3.693359375,7.181640625c0,1.6206054688.419921875,3.62109375,2.060546875,3.62109375s2.0400390625-2.0004882812,2.0400390625-3.62109375c0-1.6201171875-.3994140625-3.6206054688-2.0400390625-3.6206054688s-2.060546875,2.0004882812-2.060546875,3.6206054688Z"/><path d="m18.7021484375.7602539062h2.2412109375v1.2602539062c0,1.9404296875.1396484375,3.5209960938.8798828125,4.380859375.759765625-1.080078125.8603515625-2.48046875.8603515625-4.380859375V.7602539062h2.240234375v1.2001953125c0,2.5805664062.259765625,4.2211914062,1.640625,5.2612304688-.2802734375.66015625-.6005859375,1.3203125-.8798828125,2.0004882812-1.041015625-.7202148438-1.8212890625-2.0004882812-1.9404296875-3.0004882812-.2607421875,1.6201171875-1.62109375,2.900390625-1.9208984375,3.2006835938-.9404296875-.8403320312-1.8408203125-2.1806640625-1.9404296875-3.2006835938-.1201171875,1.0400390625-.900390625,2.2802734375-1.9404296875,3.0004882812l-1.0205078125-2.0004882812c1.5009765625-1.1401367188,1.7802734375-2.6206054688,1.7802734375-5.2612304688V.7602539062Zm3.380859375,16.7236328125c-.6201171875,0-.9599609375-.2397460938-.9599609375-.8203125v-5.9809570312h11.3427734375v6.8012695312h-10.3828125Zm1.6005859375-2.16015625h6.2216796875v-2.5009765625h-6.2216796875v2.5009765625Zm3.1611328125-5.3413085938v-5.361328125h-1.3603515625v-2.16015625h1.3603515625V.2001953125h2.2802734375v9.7822265625h-2.2802734375Zm3.30078125.0400390625V0h2.3203125v10.0224609375h-2.3203125Z"/><path d="m34.1904296875,7.4619140625h15.84375v1.98046875h-15.84375v-1.98046875Zm2.3212890625,3.1005859375h11.2021484375v4.6010742188h-8.6416015625v1.0200195312h9.08203125v1.900390625h-10.6826171875c-.6005859375,0-.9599609375-.259765625-.9599609375-.8203125v-3.8803710938h8.6416015625v-.9604492188h-8.6416015625v-1.8603515625Zm.1201171875-10.1020507812h2.560546875v1.0400390625h5.8408203125V.4604492188h2.560546875v5.9013671875h-10.001953125c-.6005859375,0-.9599609375-.2602539062-.9599609375-.8203125V.4604492188Zm2.560546875,2.9204101562v1.0205078125h5.8408203125v-1.0205078125h-5.8408203125Z"/><path d="m3.7119140625,24.3984375h2.142578125l3.7119140625,9.525390625h-1.890625l-.7705078125-2.0170898438H2.6611328125l-.7705078125,2.0170898438H0l3.7119140625-9.525390625Zm-.4482421875,5.9252929688h3.025390625l-1.5126953125-3.9780273438-1.5126953125,3.9780273438Z"/><path d="m9.8564453125,32.705078125l.966796875-1.1206054688c.4765625.5883789062,1.2890625,1.0786132812,2.1435546875,1.0786132812.7705078125,0,1.31640625-.3081054688,1.31640625-.8403320312,0-.4760742188-.4345703125-.6723632812-1.1201171875-.7846679688l-.64453125-.09765625c-1.3447265625-.2241210938-2.1572265625-.966796875-2.1572265625-2.1435546875,0-1.2465820312,1.064453125-2.2548828125,2.87109375-2.2548828125,1.134765625,0,2.0029296875.4760742188,2.5361328125,1.0922851562l-.9384765625,1.134765625c-.462890625-.490234375-1.0087890625-.7705078125-1.6669921875-.7705078125-.6728515625,0-1.0224609375.3081054688-1.0224609375.7006835938,0,.3637695312.279296875.5600585938.7978515625.6440429688l.64453125.0981445312c1.65234375.251953125,2.4794921875,1.0224609375,2.4794921875,2.283203125,0,1.302734375-1.134765625,2.3955078125-3.166015625,2.3955078125-1.3447265625,0-2.380859375-.6303710938-3.0400390625-1.4150390625Z"/><path d="m16.6455078125,32.705078125l.966796875-1.1206054688c.4765625.5883789062,1.2890625,1.0786132812,2.1435546875,1.0786132812.7705078125,0,1.31640625-.3081054688,1.31640625-.8403320312,0-.4760742188-.4345703125-.6723632812-1.1201171875-.7846679688l-.64453125-.09765625c-1.3447265625-.2241210938-2.1572265625-.966796875-2.1572265625-2.1435546875,0-1.2465820312,1.064453125-2.2548828125,2.87109375-2.2548828125,1.134765625,0,2.0029296875.4760742188,2.5361328125,1.0922851562l-.9384765625,1.134765625c-.462890625-.490234375-1.0087890625-.7705078125-1.6669921875-.7705078125-.6728515625,0-1.0224609375.3081054688-1.0224609375.7006835938,0,.3637695312.279296875.5600585938.7978515625.6440429688l.64453125.0981445312c1.65234375.251953125,2.4794921875,1.0224609375,2.4794921875,2.283203125,0,1.302734375-1.134765625,2.3955078125-3.166015625,2.3955078125-1.3447265625,0-2.380859375-.6303710938-3.0400390625-1.4150390625Z"/><path d="m23.5751953125,30.337890625c0-2.2553710938,1.5263671875-3.7958984375,3.6279296875-3.7958984375s3.4736328125,1.4565429688,3.4736328125,3.5297851562c0,.23828125-.0419921875.57421875-.083984375.8686523438h-5.224609375c.181640625.9663085938.8544921875,1.6245117188,2.1015625,1.6245117188.8818359375,0,1.6240234375-.490234375,2.044921875-1.064453125l.98046875,1.1625976562c-.6728515625.8125-1.7373046875,1.4428710938-3.109375,1.4428710938-2.33984375,0-3.810546875-1.6669921875-3.810546875-3.7680664062Zm1.8212890625-.8544921875h3.515625c-.09765625-.9384765625-.7421875-1.470703125-1.708984375-1.470703125-.9248046875,0-1.568359375.5180664062-1.806640625,1.470703125Z"/><path d="m41.708984375,29.8754882812c0-1.1484375-.4765625-1.7509765625-1.541015625-1.7509765625-.896484375,0-1.4150390625.6025390625-1.5966796875,1.2607421875v4.5385742188h-1.779296875v-4.0483398438c0-1.1484375-.490234375-1.7509765625-1.541015625-1.7509765625-.8818359375,0-1.4140625.6025390625-1.5966796875,1.2607421875v4.5385742188h-1.7783203125v-7.2138671875h1.7783203125v1.0083007812c.392578125-.6440429688,1.1064453125-1.1762695312,2.2275390625-1.1762695312,1.1904296875,0,1.947265625.5180664062,2.3388671875,1.3725585938.5322265625-.8686523438,1.3447265625-1.3725585938,2.578125-1.3725585938,1.876953125,0,2.689453125,1.2885742188,2.689453125,3.1376953125v4.244140625h-1.779296875v-4.0483398438Z"/><path d="m46.8212890625,33.923828125h-1.779296875v-9.9453125h1.779296875v3.5717773438c.517578125-.6020507812,1.302734375-1.0083007812,2.2548828125-1.0083007812,2.0029296875,0,3.4736328125,1.4985351562,3.4736328125,3.7817382812s-1.470703125,3.7680664062-3.4736328125,3.7680664062c-.9521484375,0-1.7373046875-.3920898438-2.2548828125-.9946289062v.8266601562Zm3.921875-3.6000976562c0-1.400390625-.896484375-2.19921875-2.0595703125-2.19921875-.7978515625,0-1.5400390625.40625-1.8623046875,1.0927734375v2.2133789062c.322265625.6723632812,1.064453125,1.0786132812,1.8623046875,1.0786132812,1.1630859375,0,2.0595703125-.798828125,2.0595703125-2.185546875Z"/><path d="m53.763671875,23.978515625h1.7783203125v9.9453125h-1.7783203125v-9.9453125Z"/><path d="m56.7431640625,30.337890625c0-2.2553710938,1.5263671875-3.7958984375,3.6279296875-3.7958984375s3.4736328125,1.4565429688,3.4736328125,3.5297851562c0,.23828125-.0419921875.57421875-.083984375.8686523438h-5.224609375c.181640625.9663085938.8544921875,1.6245117188,2.1015625,1.6245117188.8818359375,0,1.6240234375-.490234375,2.044921875-1.064453125l.98046875,1.1625976562c-.6728515625.8125-1.7373046875,1.4428710938-3.109375,1.4428710938-2.33984375,0-3.810546875-1.6669921875-3.810546875-3.7680664062Zm1.8212890625-.8544921875h3.515625c-.09765625-.9384765625-.7421875-1.470703125-1.708984375-1.470703125-.9248046875,0-1.568359375.5180664062-1.806640625,1.470703125Z"/><path d="m2.7734375,62.5h11.322265625v2.640625c0,3.3408203125-.3603515625,6.0810546875-1.400390625,8.4819335938h3.8408203125v2.2202148438H.6923828125v-2.2202148438h9.7626953125c.8203125-2.48046875,1.0400390625-5.3813476562,1.0400390625-8.0219726562v-.8798828125H2.7734375v-2.220703125Z"/><path d="m17.32421875,61.9399414062h6.5810546875v5.6611328125h-4.140625v1.66015625h2.400390625c1.2197265625,0,2.30078125-.1596679688,3.2001953125-.66015625v-7.4814453125h2.4013671875v4.4609375h1.6201171875v-4.6611328125h2.4404296875v12.623046875h-2.4404296875v-5.8012695312h-1.6201171875v5.5009765625h-2.4013671875v-2.98046875c-1.0595703125.740234375-2.400390625,1.080078125-4.16015625,1.080078125h-2.9013671875c-.6201171875,0-.9794921875-.2397460938-.9794921875-.8203125v-4.9208984375h4.1806640625v-1.5600585938h-4.1806640625v-2.1005859375Zm3.2001953125,10.662109375h2.560546875v3.5209960938h9.08203125v2.1801757812h-10.6826171875c-.599609375,0-.9599609375-.259765625-.9599609375-.8198242188v-4.8813476562Z"/><path d="m34.435546875,62.3598632812h2.5v3.4208984375h3.4208984375v-3.4208984375h2.4609375v11.4423828125h-7.40234375c-.6201171875,0-.9794921875-.2397460938-.9794921875-.8198242188v-10.6225585938Zm2.5,5.5615234375v3.7006835938h3.4208984375v-3.7006835938h-3.4208984375Zm8.40234375-7.001953125h2.560546875v17.2836914062h-2.560546875v-17.2836914062Z"/><path d="m58.8349609375,65.3408203125h2.6005859375v2.080078125c0,.5004882812.0400390625,1.140625.099609375,1.6005859375h2.78125c.080078125-.4599609375.1201171875-1.1000976562.1201171875-1.6005859375v-2.080078125h2.6005859375v1.66015625c0,.8203125-.2001953125,1.5405273438-.48046875,2.0205078125h2.4609375v2.1801757812h-4.8017578125v2.8208007812h6.6416015625v2.220703125h-15.84375v-2.220703125h6.6416015625v-2.8208007812h-4.80078125v-2.1801757812h2.4609375c-.2802734375-.4799804688-.48046875-1.2001953125-.48046875-2.0205078125v-1.66015625Zm-1.7802734375-3.041015625h11.7626953125v2.2006835938h-11.7626953125v-2.2006835938Z"/><path d="m76.513671875,73.8823242188h15.84375v2.220703125h-15.84375v-2.220703125Zm6.6220703125-11.9223632812h2.6005859375v1.2202148438c0,3.5405273438,2.560546875,5.1411132812,5.5009765625,6.0810546875l-.9599609375,2.0805664062c-2.48046875-.6201171875-5.041015625-2.3203125-5.841796875-4.2607421875-.759765625,1.9404296875-3.3203125,3.6806640625-5.8212890625,4.3408203125l-.9599609375-2.0805664062c2.900390625-.919921875,5.4814453125-2.6206054688,5.4814453125-6.1411132812v-1.240234375Z"/><path d="m93.6884765625,74.0825195312h15.84375v2.2202148438h-15.84375v-2.2202148438Zm2.28125-11.8627929688h11.2822265625v2.1206054688h-8.7216796875v1.5805664062h8.341796875v2.0200195312h-8.341796875v1.6206054688h9.001953125v2.1206054688h-10.6025390625c-.6005859375,0-.9599609375-.2602539062-.9599609375-.8203125v-8.6420898438Z"/><path d="m111.1640625,62.4599609375h8.28125v6.7216796875h-5.720703125v2.5405273438h4.5009765625c1.48046875,0,2.8408203125-.2001953125,3.8408203125-.7202148438v-10.0825195312h2.560546875v17.2836914062h-2.560546875v-5.4409179688c-1.2607421875.8203125-3.060546875,1.1401367188-5.0615234375,1.1401367188h-4.861328125c-.6201171875,0-.9794921875-.2397460938-.9794921875-.8203125v-6.0009765625h5.7607421875v-2.4404296875h-5.7607421875v-2.1806640625Z"/><path d="m126.6787109375,74.0825195312h15.84375v2.2202148438h-15.84375v-2.2202148438Zm2.28125-11.8627929688h11.2822265625v2.1206054688h-8.7216796875v1.5805664062h8.341796875v2.0200195312h-8.341796875v1.6206054688h9.001953125v2.1206054688h-10.6025390625c-.6005859375,0-.9599609375-.2602539062-.9599609375-.8203125v-8.6420898438Z"/><path d="m1.61328125,86.4599609375h8.28125v6.7216796875h-5.720703125v2.5405273438h4.5009765625c1.48046875,0,2.8408203125-.2001953125,3.8408203125-.7202148438v-10.0825195312h2.560546875v17.2836914062h-2.560546875v-5.4409179688c-1.2607421875.8203125-3.060546875,1.1401367188-5.0615234375,1.1401367188H2.5927734375c-.6201171875,0-.9794921875-.2397460938-.9794921875-.8203125v-6.0009765625h5.7607421875v-2.4404296875H1.61328125v-2.1806640625Z"/><path d="m18.0244140625,86.3598632812h2.5v3.4208984375h3.3408203125v-3.4208984375h2.4609375v4.541015625h2.7607421875v-5.9814453125h2.560546875v17.2836914062h-2.560546875v-9.1015625h-2.7607421875v4.7006835938h-7.3212890625c-.6201171875,0-.98046875-.2397460938-.98046875-.8198242188v-10.6225585938Zm2.5,5.5615234375v3.7006835938h3.3408203125v-3.7006835938h-3.3408203125Z"/><path d="m33.6494140625,92.28125h15.86328125v1.98046875h-6.6416015625v1.240234375h4.30078125v4.5810546875h-8.62109375v1h9.0615234375v1.900390625h-10.662109375c-.6005859375,0-.9599609375-.2397460938-.9599609375-.8198242188v-3.8608398438h8.62109375v-.9604492188h-8.62109375v-1.8403320312h4.30078125v-1.240234375h-6.6416015625v-1.98046875Zm3.9208984375-4.3608398438h2.6005859375v.7202148438c0,.2797851562.01953125.5200195312.0595703125.7397460938h2.6806640625c.0400390625-.2197265625.080078125-.4599609375.080078125-.7397460938v-.7202148438h2.6005859375v.4599609375c0,.3999023438-.1201171875.740234375-.2998046875,1h2.2001953125v1.9008789062h-11.822265625v-1.9008789062h2.1806640625c-.16015625-.259765625-.2802734375-.6000976562-.2802734375-1v-.4599609375Zm-1.7001953125-2.380859375h11.421875v1.9404296875h-11.421875v-1.9404296875Z"/><path d="m51.7734375,100.8432617188h-1.400390625v-3.0610351562h3.080078125v2.7006835938l-1.3798828125,3.3208007812h-1.5l1.2001953125-2.9604492188Z"/><path d="m71.3955078125,84.9194335938h2.560546875v9.90234375h-2.560546875v-2.0205078125h-3.361328125c-.7802734375.8603515625-2,1.3403320312-3.5400390625,1.3403320312-2.9208984375,0-4.7412109375-1.7202148438-4.7412109375-4.2607421875s1.8203125-4.2612304688,4.7412109375-4.2612304688c1.6201171875,0,2.900390625.560546875,3.7001953125,1.48046875h3.201171875v-2.1806640625Zm-6.9013671875,7.0615234375c1.2998046875,0,2.16015625-.7998046875,2.16015625-2.1000976562s-.8603515625-2.1005859375-2.16015625-2.1005859375c-1.3203125,0-2.1806640625.8002929688-2.1806640625,2.1005859375s.8603515625,2.1000976562,2.1806640625,2.1000976562Zm4,3.2407226562c3.521484375,0,5.521484375,1.5205078125,5.521484375,3.80078125,0,2.2807617188-2,3.7612304688-5.521484375,3.7612304688-3.5205078125,0-5.5205078125-1.48046875-5.5205078125-3.7612304688,0-2.2802734375,2-3.80078125,5.5205078125-3.80078125Zm0,5.4013671875c1.900390625,0,2.9609375-.6000976562,2.9609375-1.6005859375,0-1.0200195312-1.060546875-1.6401367188-2.9609375-1.6401367188s-2.9599609375.6201171875-2.9599609375,1.6401367188c0,1.0004882812,1.0595703125,1.6005859375,2.9599609375,1.6005859375Zm.6005859375-11.3623046875c.0400390625.1997070312.0400390625.3999023438.0400390625.6201171875,0,.2797851562-.0205078125.5200195312-.060546875.7797851562h2.3212890625v-1.3999023438h-2.30078125Z"/><path d="m78.2275390625,85.6396484375h11.142578125v1.560546875c0,1.8603515625-.33984375,3.4604492188-1.0205078125,4.7607421875h3.4609375v2.0805664062h-6.6416015625v2.380859375h4.3212890625v6.4208984375h-2.560546875v-4.3208007812h-8.8818359375v-2.1000976562h4.560546875v-2.380859375h-6.6416015625v-2.0805664062h10.1630859375c.4794921875-1.2202148438.6396484375-2.7202148438.6396484375-3.8608398438v-.259765625h-8.5419921875v-2.2006835938Z"/><path d="m94,100.8432617188h-1.400390625v-3.0610351562h3.080078125v2.7006835938l-1.3798828125,3.3208007812h-1.5l1.2001953125-2.9604492188Z"/><path d="m101.71875,98.0024414062c1.6806640625-3.220703125,6.8017578125-4.701171875,6.8017578125-7.3813476562,0-1.1606445312-.6396484375-2.2006835938-2.3603515625-2.2006835938-1.240234375,0-2.0400390625.6801757812-2.4208984375,1.8203125l-1.9599609375-1.080078125c.48046875-1.400390625,1.80078125-3.1005859375,4.5009765625-3.1005859375,3.060546875,0,4.78125,1.9404296875,4.78125,4.4008789062,0,4.0009765625-4.7216796875,5.4208984375-5.9814453125,7.2016601562h6.2412109375v2.2802734375h-9.6025390625v-1.9404296875Z"/><path d="m112.759765625,93.1416015625c0-4.2612304688,2.041015625-7.0815429688,5.7216796875-7.0815429688s5.720703125,2.8203125,5.720703125,7.0815429688c0,4.2607421875-2.0400390625,7.0815429688-5.720703125,7.0815429688s-5.7216796875-2.8208007812-5.7216796875-7.0815429688Zm8.841796875,0c0-2.7607421875-.8798828125-4.7211914062-3.1201171875-4.7211914062s-3.12109375,1.9604492188-3.12109375,4.7211914062c0,2.7602539062.880859375,4.720703125,3.12109375,4.720703125s3.1201171875-1.9604492188,3.1201171875-4.720703125Z"/><path d="m128.263671875,89.2407226562l-2.48046875,1.3603515625-.9404296875-1.98046875,4.060546875-2.2807617188h1.900390625v13.6030273438h-2.5400390625v-10.7021484375Z"/><path d="m132.314453125,97.9423828125l1.48046875-1.7602539062c.6796875.8002929688,1.759765625,1.6801757812,3.4404296875,1.6801757812s2.900390625-.7202148438,2.900390625-2.0205078125c0-1.1801757812-.9404296875-1.8403320312-2.8603515625-1.8403320312h-1.3408203125v-2.240234375h1.3408203125c1.48046875,0,2.140625-.8002929688,2.140625-1.7006835938,0-1.080078125-.9404296875-1.6401367188-2.0810546875-1.6401367188-1.4599609375,0-2.3203125.6401367188-2.83984375,1.3803710938l-1.5205078125-1.6005859375c.8798828125-1.1401367188,2.419921875-2.1401367188,4.3603515625-2.1401367188,2.9208984375,0,4.681640625,1.419921875,4.681640625,3.8208007812,0,1.1000976562-.66015625,2.16015625-1.740234375,2.8002929688,1.580078125.5205078125,2.4599609375,1.7807617188,2.4599609375,3.380859375,0,2.560546875-2.419921875,4.1611328125-5.5009765625,4.1611328125-2.4208984375,0-4.041015625-1.2802734375-4.9208984375-2.2807617188Z"/><path d="m144.61328125,85.8798828125h2.560546875v7.26171875h1.8203125c1.66015625,0,3.3408203125-.1801757812,4.400390625-.5600585938l.4609375,1.6401367188c-1.3603515625.8203125-3.3408203125,1.0400390625-5.58203125,1.0400390625h-2.6796875c-.6201171875,0-.98046875-.2397460938-.98046875-.8198242188v-8.5620117188Zm2.640625,10.4223632812h2.560546875v3.8208007812h8.861328125v2.1801757812h-10.4619140625c-.6005859375,0-.9599609375-.259765625-.9599609375-.8198242188v-5.1811523438Zm4.1806640625-9.8022460938h4.2412109375v-1.5805664062h2.560546875v12.8227539062h-2.560546875v-5.9208984375h-4.2412109375v-2.060546875h4.2412109375v-1.2001953125h-4.2412109375v-2.060546875Z"/><path d="m160.2470703125,94.9619140625h15.84375v2.2202148438h-6.6416015625v5.1010742188h-2.560546875v-5.1010742188h-6.6416015625v-2.2202148438Zm2.380859375-9.501953125h2.560546875v1.8002929688h5.9609375v-1.8002929688h2.560546875v7.8012695312h-10.1220703125c-.599609375,0-.9599609375-.2397460938-.9599609375-.8198242188v-6.9814453125Zm2.560546875,3.9008789062v1.7202148438h5.9609375v-1.7202148438h-5.9609375Z"/><path d="m177.8369140625,86.4799804688h7.76171875v2.1806640625h-5.201171875v2.400390625h4.400390625v2.1206054688h-4.400390625v2.5205078125h1.98046875c1.66015625,0,3.3203125-.1801757812,4.400390625-.580078125l.4599609375,1.7202148438c-1.2998046875.8203125-3.1806640625,1.0600585938-5.3603515625,1.0600585938h-3.0810546875c-.599609375,0-.9599609375-.2397460938-.9599609375-.8002929688v-10.6220703125Zm11.0419921875-1.560546875h2.560546875v17.2836914062h-2.560546875v-9.5419921875h-2.8408203125v-2.1801757812h2.8408203125v-5.5615234375Z"/><path d="m.50390625,114.0805664062c0-2.8432617188,2.0595703125-4.9584960938,4.888671875-4.9584960938,1.947265625,0,3.404296875.8823242188,4.244140625,2.2690429688l-1.3583984375,1.0224609375c-.6025390625-.98046875-1.4853515625-1.5966796875-2.857421875-1.5966796875-1.8349609375,0-3.0400390625,1.4150390625-3.0400390625,3.263671875,0,1.8491210938,1.205078125,3.263671875,3.0537109375,3.263671875.91015625,0,1.8212890625-.251953125,2.353515625-.6440429688v-1.625h-2.1435546875v-1.5830078125h3.9638671875v4.146484375c-.9521484375.7563476562-2.619140625,1.4008789062-4.2158203125,1.4008789062-2.8291015625,0-4.888671875-2.115234375-4.888671875-4.958984375Z"/><path d="m11.1591796875,111.6293945312h1.7783203125v1.1206054688c.4208984375-.7705078125,1.12109375-1.2885742188,2.0732421875-1.2885742188h.2099609375v1.6948242188c-1.064453125.0141601562-1.9326171875.322265625-2.283203125,1.4008789062v4.2861328125h-1.7783203125v-7.2138671875Z"/><path d="m21.4091796875,118.0166015625c-.5322265625.6025390625-1.3173828125.9946289062-2.255859375.9946289062-2.0029296875,0-3.4736328125-1.4848632812-3.4736328125-3.7680664062s1.470703125-3.7817382812,3.4736328125-3.7817382812c.9384765625,0,1.7236328125.40625,2.255859375,1.0083007812v-.8403320312h1.7783203125v7.2138671875h-1.7783203125v-.8266601562Zm0-1.6665039062v-2.2133789062c-.322265625-.6865234375-1.0654296875-1.0927734375-1.86328125-1.0927734375-1.1630859375,0-2.0595703125.798828125-2.0595703125,2.19921875,0,1.38671875.896484375,2.185546875,2.0595703125,2.185546875.7978515625,0,1.541015625-.40625,1.86328125-1.0786132812Z"/><path d="m24.7890625,111.6293945312h1.7783203125v1.0083007812c.392578125-.6440429688,1.1630859375-1.1762695312,2.283203125-1.1762695312,1.876953125,0,2.74609375,1.2885742188,2.74609375,3.1376953125v4.244140625h-1.779296875v-4.0483398438c0-1.1484375-.5458984375-1.7509765625-1.5966796875-1.7509765625-.8828125,0-1.470703125.6025390625-1.6533203125,1.2607421875v4.5385742188h-1.7783203125v-7.2138671875Z"/><path d="m34.912109375,118.8432617188h-1.779296875v-9.9453125h1.779296875v3.5717773438c.517578125-.6020507812,1.302734375-1.0083007812,2.2548828125-1.0083007812,2.0029296875,0,3.4736328125,1.4985351562,3.4736328125,3.7817382812s-1.470703125,3.7680664062-3.4736328125,3.7680664062c-.9521484375,0-1.7373046875-.3920898438-2.2548828125-.9946289062v.8266601562Zm3.921875-3.6000976562c0-1.400390625-.896484375-2.19921875-2.0595703125-2.19921875-.7978515625,0-1.5400390625.40625-1.8623046875,1.0927734375v2.2133789062c.322265625.6723632812,1.064453125,1.0786132812,1.8623046875,1.0786132812,1.1630859375,0,2.0595703125-.798828125,2.0595703125-2.185546875Z"/><path d="m43.595703125,117.9189453125l-2.8857421875-6.2895507812h1.9052734375l1.9189453125,4.314453125,1.779296875-4.314453125h1.9189453125l-4.23046875,9.6372070312h-1.9189453125l1.5126953125-3.34765625Z"/><path d="m52.1474609375,109.3178710938h6.5556640625v1.5971679688h-4.734375v2.3813476562h4.2021484375v1.5966796875h-4.2021484375v3.9501953125h-1.8212890625v-9.525390625Z"/><path d="m59.2255859375,115.2431640625c0-1.9750976562,1.31640625-3.7817382812,3.82421875-3.7817382812,2.5068359375,0,3.8232421875,1.806640625,3.8232421875,3.7817382812,0,1.9892578125-1.31640625,3.7963867188-3.8232421875,3.7963867188-2.5078125,0-3.82421875-1.8071289062-3.82421875-3.7963867188Zm1.806640625,0c0,1.3447265625.8544921875,2.2133789062,2.017578125,2.2133789062,1.162109375,0,2.0166015625-.8686523438,2.0166015625-2.2133789062,0-1.3305664062-.8544921875-2.19921875-2.0166015625-2.19921875-1.1630859375,0-2.017578125.8686523438-2.017578125,2.19921875Z"/><path d="m74.77734375,118.8432617188h-1.779296875v-1.0087890625c-.392578125.64453125-1.1630859375,1.1767578125-2.283203125,1.1767578125-1.876953125,0-2.7451171875-1.2885742188-2.7451171875-3.1376953125v-4.244140625h1.7783203125v4.0483398438c0,1.1484375.546875,1.7509765625,1.5966796875,1.7509765625.8828125,0,1.470703125-.6025390625,1.6533203125-1.2607421875v-4.5385742188h1.779296875v7.2138671875Z"/><path d="m76.36328125,111.6293945312h1.7783203125v1.1206054688c.4208984375-.7705078125,1.12109375-1.2885742188,2.0732421875-1.2885742188h.2099609375v1.6948242188c-1.064453125.0141601562-1.9326171875.322265625-2.283203125,1.4008789062v4.2861328125h-1.7783203125v-7.2138671875Z"/><path d="m83.6279296875,116.8823242188l1.19140625-1.1625976562c.5458984375.8544921875,1.470703125,1.6806640625,2.9130859375,1.6806640625,1.1767578125,0,1.79296875-.5883789062,1.79296875-1.3305664062,0-.6025390625-.419921875-1.064453125-1.541015625-1.2329101562l-.826171875-.1259765625c-1.6806640625-.251953125-2.8154296875-1.21875-2.8154296875-2.689453125,0-1.6108398438,1.31640625-2.8994140625,3.4462890625-2.8994140625,1.470703125,0,2.6748046875.6440429688,3.361328125,1.5405273438l-1.162109375,1.205078125c-.5888671875-.728515625-1.3876953125-1.1069335938-2.2412109375-1.1069335938-.953125,0-1.513671875.5043945312-1.513671875,1.0786132812,0,.560546875.4208984375.966796875,1.2470703125,1.0927734375l.8125.1259765625c1.9609375.2939453125,3.109375,1.2749023438,3.109375,2.8857421875,0,1.8349609375-1.4990234375,3.095703125-3.6982421875,3.095703125-2.1982421875,0-3.4033203125-1.134765625-4.076171875-2.1572265625Z"/><path d="m92.9140625,116.083984375v-3.0258789062h-1.205078125v-1.4287109375h1.2607421875v-1.8349609375h1.72265625v1.8349609375h1.6669921875v1.4287109375h-1.6669921875v3.1098632812c0,.9243164062.4345703125,1.2465820312,1.3310546875,1.2465820312h.3359375v1.4287109375c-.23828125.0561523438-.5322265625.083984375-.7978515625.083984375-1.7509765625,0-2.6474609375-.8681640625-2.6474609375-2.8432617188Z"/><path d="m97.5185546875,111.6293945312h1.7783203125v1.1206054688c.4208984375-.7705078125,1.12109375-1.2885742188,2.0732421875-1.2885742188h.2099609375v1.6948242188c-1.064453125.0141601562-1.9326171875.322265625-2.283203125,1.4008789062v4.2861328125h-1.7783203125v-7.2138671875Z"/><path d="m102.0244140625,115.2573242188c0-2.2553710938,1.5263671875-3.7958984375,3.6279296875-3.7958984375s3.4736328125,1.4565429688,3.4736328125,3.5297851562c0,.23828125-.0419921875.57421875-.083984375.8686523438h-5.224609375c.181640625.9663085938.8544921875,1.6245117188,2.1015625,1.6245117188.8818359375,0,1.6240234375-.490234375,2.044921875-1.064453125l.98046875,1.1625976562c-.6728515625.8125-1.7373046875,1.4428710938-3.109375,1.4428710938-2.33984375,0-3.810546875-1.6669921875-3.810546875-3.7680664062Zm1.8212890625-.8544921875h3.515625c-.09765625-.9384765625-.7421875-1.470703125-1.708984375-1.470703125-.9248046875,0-1.568359375.5180664062-1.806640625,1.470703125Z"/><path d="m109.9384765625,115.2573242188c0-2.2553710938,1.5263671875-3.7958984375,3.6279296875-3.7958984375s3.4736328125,1.4565429688,3.4736328125,3.5297851562c0,.23828125-.0419921875.57421875-.083984375.8686523438h-5.224609375c.181640625.9663085938.8544921875,1.6245117188,2.1015625,1.6245117188.8818359375,0,1.6240234375-.490234375,2.044921875-1.064453125l.98046875,1.1625976562c-.6728515625.8125-1.7373046875,1.4428710938-3.109375,1.4428710938-2.33984375,0-3.810546875-1.6669921875-3.810546875-3.7680664062Zm1.8212890625-.8544921875h3.515625c-.09765625-.9384765625-.7421875-1.470703125-1.708984375-1.470703125-.9248046875,0-1.568359375.5180664062-1.806640625,1.470703125Z"/><path d="m118.701171875,116.083984375v-3.0258789062h-1.205078125v-1.4287109375h1.2607421875v-1.8349609375h1.72265625v1.8349609375h1.6669921875v1.4287109375h-1.6669921875v3.1098632812c0,.9243164062.4345703125,1.2465820312,1.3310546875,1.2465820312h.3359375v1.4287109375c-.23828125.0561523438-.5322265625.083984375-.7978515625.083984375-1.7509765625,0-2.6474609375-.8681640625-2.6474609375-2.8432617188Z"/><path d="m122.7724609375,117.6245117188l.966796875-1.1206054688c.4765625.5883789062,1.2890625,1.0786132812,2.1435546875,1.0786132812.7705078125,0,1.31640625-.3081054688,1.31640625-.8403320312,0-.4760742188-.4345703125-.6723632812-1.1201171875-.7846679688l-.64453125-.09765625c-1.3447265625-.2241210938-2.1572265625-.966796875-2.1572265625-2.1435546875,0-1.2465820312,1.064453125-2.2548828125,2.87109375-2.2548828125,1.134765625,0,2.0029296875.4760742188,2.5361328125,1.0922851562l-.9384765625,1.134765625c-.462890625-.490234375-1.0087890625-.7705078125-1.6669921875-.7705078125-.6728515625,0-1.0224609375.3081054688-1.0224609375.7006835938,0,.3637695312.279296875.5600585938.7978515625.6440429688l.64453125.0981445312c1.65234375.251953125,2.4794921875,1.0224609375,2.4794921875,2.283203125,0,1.302734375-1.134765625,2.3955078125-3.166015625,2.3955078125-1.3447265625,0-2.380859375-.6303710938-3.0400390625-1.4150390625Z"/><path d="m1.0498046875,126.1176757812h1.8212890625v7.9287109375h4.6083984375v1.5966796875H1.0498046875v-9.525390625Z"/><path d="m8.34375,125.361328125h1.8212890625v1.8491210938h-1.8212890625v-1.8491210938Zm.0283203125,3.0678710938h1.7783203125v7.2138671875h-1.7783203125v-7.2138671875Z"/><path d="m10.9375,128.4291992188h1.9052734375l1.9189453125,5.0146484375,1.9189453125-5.0146484375h1.9052734375l-2.94140625,7.2138671875h-1.779296875l-2.927734375-7.2138671875Z"/><path d="m18.6767578125,132.0571289062c0-2.2553710938,1.5263671875-3.7958984375,3.6279296875-3.7958984375s3.4736328125,1.4565429688,3.4736328125,3.5297851562c0,.23828125-.0419921875.57421875-.083984375.8686523438h-5.224609375c.181640625.9663085938.8544921875,1.6245117188,2.1015625,1.6245117188.8818359375,0,1.6240234375-.490234375,2.044921875-1.064453125l.98046875,1.1625976562c-.6728515625.8125-1.7373046875,1.4428710938-3.109375,1.4428710938-2.33984375,0-3.810546875-1.6669921875-3.810546875-3.7680664062Zm1.8212890625-.8544921875h3.515625c-.09765625-.9384765625-.7421875-1.470703125-1.708984375-1.470703125-.9248046875,0-1.568359375.5180664062-1.806640625,1.470703125Z"/><path d="m26.9775390625,128.4291992188h1.7783203125v1.1206054688c.4208984375-.7705078125,1.12109375-1.2885742188,2.0732421875-1.2885742188h.2099609375v1.6948242188c-1.064453125.0141601562-1.9326171875.322265625-2.283203125,1.4008789062v4.2861328125h-1.7783203125v-7.2138671875Z"/><path d="m31.875,128.4291992188h1.7783203125v.8544921875c.5185546875-.6025390625,1.3173828125-1.0224609375,2.26953125-1.0224609375,1.9892578125,0,3.4599609375,1.4985351562,3.4599609375,3.7817382812s-1.470703125,3.7680664062-3.4599609375,3.7680664062c-.9521484375,0-1.7509765625-.40625-2.26953125-1.0083007812v3.263671875h-1.7783203125v-9.6372070312Zm5.701171875,3.6137695312c0-1.400390625-.896484375-2.19921875-2.0595703125-2.19921875-.798828125,0-1.541015625.40625-1.86328125,1.0927734375v2.2133789062c.322265625.6723632812,1.064453125,1.0786132812,1.86328125,1.0786132812,1.1630859375,0,2.0595703125-.798828125,2.0595703125-2.185546875Z"/><path d="m40.208984375,132.04296875c0-1.9750976562,1.31640625-3.7817382812,3.8232421875-3.7817382812,2.5078125,0,3.82421875,1.806640625,3.82421875,3.7817382812,0,1.9892578125-1.31640625,3.7963867188-3.82421875,3.7963867188-2.5068359375,0-3.8232421875-1.8071289062-3.8232421875-3.7963867188Zm1.806640625,0c0,1.3447265625.8544921875,2.2133789062,2.0166015625,2.2133789062,1.1630859375,0,2.017578125-.8686523438,2.017578125-2.2133789062,0-1.3305664062-.8544921875-2.19921875-2.017578125-2.19921875-1.162109375,0-2.0166015625.8686523438-2.0166015625,2.19921875Z"/><path d="m48.6416015625,132.04296875c0-1.9750976562,1.31640625-3.7817382812,3.82421875-3.7817382812,2.5068359375,0,3.8232421875,1.806640625,3.8232421875,3.7817382812,0,1.9892578125-1.31640625,3.7963867188-3.8232421875,3.7963867188-2.5078125,0-3.82421875-1.8071289062-3.82421875-3.7963867188Zm1.806640625,0c0,1.3447265625.8544921875,2.2133789062,2.017578125,2.2133789062,1.162109375,0,2.0166015625-.8686523438,2.0166015625-2.2133789062,0-1.3305664062-.8544921875-2.19921875-2.0166015625-2.19921875-1.1630859375,0-2.017578125.8686523438-2.017578125,2.19921875Z"/><path d="m57.4951171875,125.6977539062h1.7783203125v9.9453125h-1.7783203125v-9.9453125Z"/><path d="m61.8056640625,136.2734375h-.98046875v-2.1430664062h2.1572265625v1.8911132812l-.966796875,2.3251953125h-1.0498046875l.83984375-2.0732421875Z"/><path d="m67.62890625,126.1176757812h6.6962890625v1.5971679688h-4.875v2.3251953125h4.2021484375v1.5830078125h-4.2021484375v2.4233398438h4.875v1.5966796875h-6.6962890625v-9.525390625Z"/><path d="m75.65625,128.4291992188h1.7783203125v1.0083007812c.392578125-.6440429688,1.1630859375-1.1762695312,2.283203125-1.1762695312,1.876953125,0,2.74609375,1.2885742188,2.74609375,3.1376953125v4.244140625h-1.779296875v-4.0483398438c0-1.1484375-.5458984375-1.7509765625-1.5966796875-1.7509765625-.8828125,0-1.470703125.6025390625-1.6533203125,1.2607421875v4.5385742188h-1.7783203125v-7.2138671875Z"/><path d="m83.5595703125,131.70703125c0-2.0732421875,1.2744140625-3.4458007812,3.2919921875-3.4458007812.923828125,0,1.6806640625.40625,2.1845703125,1.0083007812v-.8403320312h1.779296875v5.9814453125c0,2.619140625-1.8349609375,3.8237304688-3.7822265625,3.8237304688-1.7646484375,0-2.787109375-.6723632812-3.333984375-1.4565429688l1.0791015625-1.1206054688c.4765625.6303710938,1.0927734375,1.0502929688,2.1708984375,1.0502929688,1.037109375,0,2.0869140625-.5883789062,2.0869140625-2.1572265625v-.3920898438c-.50390625.5883789062-1.2607421875.9946289062-2.1845703125.9946289062-2.017578125,0-3.2919921875-1.3725585938-3.2919921875-3.4458007812Zm5.4765625.8823242188v-1.7509765625c-.322265625-.658203125-.9658203125-1.0502929688-1.7509765625-1.0502929688-1.17578125,0-1.9189453125.7700195312-1.9189453125,1.9189453125,0,1.1484375.7431640625,1.9189453125,1.9189453125,1.9189453125.78515625,0,1.4287109375-.3920898438,1.7509765625-1.0366210938Z"/><path d="m92.3828125,125.6977539062h1.7783203125v9.9453125h-1.7783203125v-9.9453125Z"/><path d="m101.1103515625,134.81640625c-.5322265625.6025390625-1.3173828125.9946289062-2.255859375.9946289062-2.0029296875,0-3.4736328125-1.4848632812-3.4736328125-3.7680664062s1.470703125-3.7817382812,3.4736328125-3.7817382812c.9384765625,0,1.7236328125.40625,2.255859375,1.0083007812v-.8403320312h1.7783203125v7.2138671875h-1.7783203125v-.8266601562Zm0-1.6665039062v-2.2133789062c-.322265625-.6865234375-1.0654296875-1.0927734375-1.86328125-1.0927734375-1.1630859375,0-2.0595703125.798828125-2.0595703125,2.19921875,0,1.38671875.896484375,2.185546875,2.0595703125,2.185546875.7978515625,0,1.541015625-.40625,1.86328125-1.0786132812Z"/><path d="m104.490234375,128.4291992188h1.7783203125v1.0083007812c.392578125-.6440429688,1.1630859375-1.1762695312,2.283203125-1.1762695312,1.876953125,0,2.74609375,1.2885742188,2.74609375,3.1376953125v4.244140625h-1.779296875v-4.0483398438c0-1.1484375-.5458984375-1.7509765625-1.5966796875-1.7509765625-.8828125,0-1.470703125.6025390625-1.6533203125,1.2607421875v4.5385742188h-1.7783203125v-7.2138671875Z"/><path d="m118.1484375,134.81640625c-.5322265625.6025390625-1.3173828125.9946289062-2.255859375.9946289062-2.0029296875,0-3.4736328125-1.4848632812-3.4736328125-3.7680664062s1.470703125-3.7817382812,3.4736328125-3.7817382812c.9384765625,0,1.7236328125.40625,2.255859375,1.0083007812v-3.5717773438h1.7783203125v9.9453125h-1.7783203125v-.8266601562Zm0-1.6665039062v-2.2133789062c-.322265625-.6865234375-1.0654296875-1.0927734375-1.86328125-1.0927734375-1.1630859375,0-2.0595703125.798828125-2.0595703125,2.19921875,0,1.38671875.896484375,2.185546875,2.0595703125,2.185546875.7978515625,0,1.541015625-.40625,1.86328125-1.0786132812Z"/><path d="m122.482421875,136.2734375h-.98046875v-2.1430664062h2.1572265625v1.8911132812l-.966796875,2.3251953125h-1.0498046875l.83984375-2.0732421875Z"/><path d="m127.4931640625,134.4243164062l.9658203125-1.1206054688c.4765625.5883789062,1.2890625,1.0786132812,2.1435546875,1.0786132812.7705078125,0,1.31640625-.3081054688,1.31640625-.8403320312,0-.4760742188-.4345703125-.6723632812-1.1201171875-.7846679688l-.64453125-.09765625c-1.3447265625-.2241210938-2.1572265625-.966796875-2.1572265625-2.1435546875,0-1.2465820312,1.064453125-2.2548828125,2.87109375-2.2548828125,1.134765625,0,2.00390625.4760742188,2.5361328125,1.0922851562l-.9384765625,1.134765625c-.462890625-.490234375-1.0087890625-.7705078125-1.6669921875-.7705078125-.6728515625,0-1.0224609375.3081054688-1.0224609375.7006835938,0,.3637695312.279296875.5600585938.7978515625.6440429688l.64453125.0981445312c1.6533203125.251953125,2.4794921875,1.0224609375,2.4794921875,2.283203125,0,1.302734375-1.134765625,2.3955078125-3.166015625,2.3955078125-1.3447265625,0-2.380859375-.6303710938-3.0390625-1.4150390625Z"/><path d="m134.7958984375,125.361328125h1.8212890625v1.8491210938h-1.8212890625v-1.8491210938Zm.0283203125,3.0678710938h1.7783203125v7.2138671875h-1.7783203125v-7.2138671875Z"/><path d="m138.1865234375,128.4291992188h1.7783203125v1.0083007812c.392578125-.6440429688,1.1630859375-1.1762695312,2.283203125-1.1762695312,1.876953125,0,2.74609375,1.2885742188,2.74609375,3.1376953125v4.244140625h-1.779296875v-4.0483398438c0-1.1484375-.5458984375-1.7509765625-1.5966796875-1.7509765625-.8828125,0-1.470703125.6025390625-1.6533203125,1.2607421875v4.5385742188h-1.7783203125v-7.2138671875Z"/><path d="m146.1103515625,132.04296875c0-1.9750976562,1.3583984375-3.7817382812,3.75390625-3.7817382812,1.45703125,0,2.5068359375.6723632812,3.20703125,1.79296875l-1.259765625.9663085938c-.392578125-.6865234375-.9951171875-1.1767578125-1.849609375-1.1767578125-1.232421875,0-2.044921875.8544921875-2.044921875,2.19921875,0,1.3310546875.8125,2.185546875,2.044921875,2.185546875.8544921875,0,1.45703125-.4907226562,1.849609375-1.1767578125l1.259765625.9663085938c-.7001953125,1.1206054688-1.75,1.79296875-3.20703125,1.79296875-2.3955078125,0-3.75390625-1.806640625-3.75390625-3.7680664062Z"/><path d="m153.6123046875,132.0571289062c0-2.2553710938,1.5263671875-3.7958984375,3.6279296875-3.7958984375s3.4736328125,1.4565429688,3.4736328125,3.5297851562c0,.23828125-.0419921875.57421875-.083984375.8686523438h-5.224609375c.181640625.9663085938.8544921875,1.6245117188,2.1015625,1.6245117188.8818359375,0,1.6240234375-.490234375,2.044921875-1.064453125l.98046875,1.1625976562c-.6728515625.8125-1.7373046875,1.4428710938-3.109375,1.4428710938-2.33984375,0-3.810546875-1.6669921875-3.810546875-3.7680664062Zm1.8212890625-.8544921875h3.515625c-.09765625-.9384765625-.7421875-1.470703125-1.708984375-1.470703125-.9248046875,0-1.568359375.5180664062-1.806640625,1.470703125Z"/><path d="m164.4765625,134.2841796875c1.1767578125-2.2548828125,4.7626953125-3.2915039062,4.7626953125-5.1684570312,0-.8125-.4482421875-1.541015625-1.6533203125-1.541015625-.8681640625,0-1.4287109375.4760742188-1.6953125,1.2749023438l-1.3720703125-.7568359375c.3359375-.98046875,1.2607421875-2.1708984375,3.1513671875-2.1708984375,2.1435546875,0,3.34765625,1.3588867188,3.34765625,3.0815429688,0,2.8017578125-3.3056640625,3.7958984375-4.1884765625,5.04296875h4.37109375v1.5966796875h-6.7236328125v-1.3588867188Z"/><path d="m172.158203125,130.8803710938c0-2.9833984375,1.4287109375-4.9584960938,4.0068359375-4.9584960938,2.5771484375,0,4.005859375,1.9750976562,4.005859375,4.9584960938,0,2.9838867188-1.4287109375,4.958984375-4.005859375,4.958984375-2.578125,0-4.0068359375-1.9750976562-4.0068359375-4.958984375Zm6.19140625,0c0-1.9331054688-.6162109375-3.3056640625-2.1845703125-3.3056640625-1.5693359375,0-2.185546875,1.3725585938-2.185546875,3.3056640625s.6162109375,3.3056640625,2.185546875,3.3056640625c1.568359375,0,2.1845703125-1.3725585938,2.1845703125-3.3056640625Z"/><path d="m182.962890625,128.1489257812l-1.7373046875.9526367188-.658203125-1.38671875,2.84375-1.5971679688h1.330078125v9.525390625h-1.7783203125v-7.494140625Z"/><path d="m185.75,134.2421875l1.0361328125-1.232421875c.4765625.5600585938,1.232421875,1.1762695312,2.4091796875,1.1762695312s2.03125-.50390625,2.03125-1.4145507812c0-.8266601562-.658203125-1.2885742188-2.0029296875-1.2885742188h-.9384765625v-1.5688476562h.9384765625c1.037109375,0,1.4990234375-.560546875,1.4990234375-1.1909179688,0-.7563476562-.658203125-1.1484375-1.45703125-1.1484375-1.0224609375,0-1.625.4482421875-1.9892578125.9663085938l-1.064453125-1.1206054688c.6162109375-.7983398438,1.6953125-1.4985351562,3.0537109375-1.4985351562,2.044921875,0,3.2783203125.9946289062,3.2783203125,2.6752929688,0,.7705078125-.462890625,1.5126953125-1.21875,1.9609375,1.1064453125.3642578125,1.72265625,1.2470703125,1.72265625,2.3676757812,0,1.79296875-1.6953125,2.9135742188-3.8525390625,2.9135742188-1.6943359375,0-2.8291015625-.896484375-3.4453125-1.5971679688Z"/><rect class="cls-1" x="0" y="0" width="318.1005859375" height="138.06640625"/></g></svg>