<?xml version="1.0" encoding="UTF-8"?><svg id="_레이어_2" xmlns="http://www.w3.org/2000/svg" viewBox="0 0 318.1005859375 138.3466796875"><defs><style>.cls-1{fill:none;}</style></defs><g id="Layer_1"><path d="m.6806640625,1.6005859375h8.361328125v11.1826171875H1.640625c-.599609375,0-.9599609375-.240234375-.9599609375-.8002929688V1.6005859375Zm2.5,2.1806640625v6.8212890625h3.4013671875V3.78125h-3.4013671875ZM11.283203125,0h2.560546875v5.861328125h2.3603515625v2.220703125h-2.3603515625v9.2016601562h-2.560546875V0Z"/><path d="m26.8955078125,7.181640625c0,2.9409179688-1.1806640625,5.8012695312-4.62109375,5.8012695312-3.4609375,0-4.6611328125-2.8603515625-4.6611328125-5.8012695312,0-2.9404296875,1.2001953125-5.8012695312,4.6611328125-5.8012695312,3.4404296875,0,4.62109375,2.8608398438,4.62109375,5.8012695312Zm-6.7216796875,0c0,1.6206054688.4599609375,3.62109375,2.1005859375,3.62109375s2.080078125-2.0004882812,2.080078125-3.62109375c0-1.6201171875-.439453125-3.6206054688-2.080078125-3.6206054688s-2.1005859375,2.0004882812-2.1005859375,3.6206054688ZM28.916015625,0h2.560546875v17.2836914062h-2.560546875V0Z"/><path d="m35.94921875.6005859375h10.982421875v1.6000976562c0,1.8403320312-.2197265625,3.6206054688-1.080078125,5.0810546875h3.5205078125v2.0004882812h-15.84375v-2.0004882812h10.1630859375c.3193359375-.6801757812.4794921875-1.5004882812.580078125-2.2602539062-.640625.6000976562-1.9404296875.8598632812-3.7412109375.8598632812h-4.80078125v-1.8803710938h5.6806640625c1.16015625,0,2.2607421875-.0200195312,2.94140625-.2797851562.01953125-.0600585938.01953125-.400390625.01953125-.4604492188v-.66015625h-8.421875V.6005859375Zm-.099609375,9.8818359375h11.2021484375v4.6411132812h-8.6416015625v1.0600585938h9.08203125v1.900390625h-10.6826171875c-.6005859375,0-.9599609375-.259765625-.9599609375-.8203125v-3.9204101562h8.6416015625v-1.0004882812h-8.6416015625v-1.8603515625Z"/><path d="m57.1083984375,1.5805664062h11.322265625v2.640625c0,3.3408203125-.3603515625,6.0810546875-1.400390625,8.4819335938h3.8408203125v2.2202148438h-15.84375v-2.2202148438h9.7626953125c.8203125-2.48046875,1.0400390625-5.3813476562,1.0400390625-8.0219726562v-.8798828125h-8.7216796875V1.5805664062Z"/><path d="m72.2880859375,1.5805664062h6.0009765625v6.521484375h-3.560546875v2.4404296875h1.5205078125c1.240234375,0,2.2802734375-.080078125,3.16015625-.3798828125l.419921875,1.6801757812c-1.1796875.7202148438-2.7001953125.8603515625-4.6005859375.8603515625h-1.9609375c-.6201171875,0-.9794921875-.2602539062-.9794921875-.8203125v-5.8212890625h3.6201171875v-2.3403320312h-3.6201171875V1.5805664062Zm8.3212890625-1.2802734375h2.4208984375v16.4833984375h-2.4208984375V7.1416015625h-1.640625v-2.1801757812h1.640625V.3002929688Zm3.7412109375-.3002929688h2.4404296875v17.2836914062h-2.4404296875V0Z"/><path d="m98.1357421875,7.181640625c0,2.9409179688-1.1806640625,5.8012695312-4.62109375,5.8012695312-3.4609375,0-4.6611328125-2.8603515625-4.6611328125-5.8012695312,0-2.9404296875,1.2001953125-5.8012695312,4.6611328125-5.8012695312,3.4404296875,0,4.62109375,2.8608398438,4.62109375,5.8012695312Zm-6.7216796875,0c0,1.6206054688.4599609375,3.62109375,2.1005859375,3.62109375s2.080078125-2.0004882812,2.080078125-3.62109375c0-1.6201171875-.439453125-3.6206054688-2.080078125-3.6206054688s-2.1005859375,2.0004882812-2.1005859375,3.6206054688Zm8.7421875-7.181640625h2.560546875v17.2836914062h-2.560546875V0Z"/><path d="m104.7685546875,13.0629882812h15.84375v2.220703125h-15.84375v-2.220703125Zm2.28125-11.9223632812h2.560546875v2.400390625h6.1611328125V1.140625h2.560546875v9.001953125h-10.322265625c-.6005859375,0-.9599609375-.240234375-.9599609375-.8002929688V1.140625Zm2.560546875,4.5009765625v2.3203125h6.1611328125v-2.3203125h-6.1611328125Z"/><path d="m121.94140625,12.962890625h15.84375v2.220703125h-15.84375v-2.220703125Zm6.6220703125-11.9223632812h2.6005859375v1.2202148438c0,3.5405273438,2.560546875,5.1411132812,5.5009765625,6.0810546875l-.9599609375,2.0805664062c-2.48046875-.6201171875-5.041015625-2.3203125-5.841796875-4.2607421875-.759765625,1.9404296875-3.3203125,3.6806640625-5.8212890625,4.3408203125l-.9599609375-2.0805664062c2.900390625-.919921875,5.4814453125-2.6206054688,5.4814453125-6.1411132812v-1.240234375Z"/><path d="m.357421875,24.3984375h2.4375l2.830078125,7.1860351562,2.8427734375-7.1860351562h2.4375v9.525390625h-1.8203125v-6.7377929688l-2.6337890625,6.7377929688h-1.638671875l-2.6337890625-6.7377929688v6.7377929688H.357421875v-9.525390625Z"/><path d="m12.677734375,23.6420898438h1.8212890625v1.8491210938h-1.8212890625v-1.8491210938Zm.0283203125,3.0678710938h1.7783203125v7.2138671875h-1.7783203125v-7.2138671875Z"/><path d="m15.64453125,30.3237304688c0-1.9750976562,1.3583984375-3.7817382812,3.75390625-3.7817382812,1.45703125,0,2.5068359375.6723632812,3.20703125,1.79296875l-1.259765625.9663085938c-.392578125-.6865234375-.9951171875-1.1767578125-1.849609375-1.1767578125-1.232421875,0-2.044921875.8544921875-2.044921875,2.19921875,0,1.3310546875.8125,2.185546875,2.044921875,2.185546875.8544921875,0,1.45703125-.4907226562,1.849609375-1.1767578125l1.259765625.9663085938c-.7001953125,1.1206054688-1.75,1.79296875-3.20703125,1.79296875-2.3955078125,0-3.75390625-1.806640625-3.75390625-3.7680664062Z"/><path d="m23.623046875,23.978515625h1.7783203125v3.7397460938c.392578125-.6440429688,1.1630859375-1.1762695312,2.283203125-1.1762695312,1.876953125,0,2.74609375,1.2885742188,2.74609375,3.1376953125v4.244140625h-1.779296875v-4.0483398438c0-1.1484375-.5458984375-1.7509765625-1.5966796875-1.7509765625-.953125,0-1.4990234375.7006835938-1.6533203125,1.2607421875v4.5385742188h-1.7783203125v-9.9453125Z"/><path d="m37.28125,33.0971679688c-.5322265625.6025390625-1.3173828125.9946289062-2.255859375.9946289062-2.0029296875,0-3.4736328125-1.4848632812-3.4736328125-3.7680664062s1.470703125-3.7817382812,3.4736328125-3.7817382812c.9384765625,0,1.7236328125.40625,2.255859375,1.0083007812v-.8403320312h1.7783203125v7.2138671875h-1.7783203125v-.8266601562Zm0-1.6665039062v-2.2133789062c-.322265625-.6865234375-1.0654296875-1.0927734375-1.86328125-1.0927734375-1.1630859375,0-2.0595703125.798828125-2.0595703125,2.19921875,0,1.38671875.896484375,2.185546875,2.0595703125,2.185546875.7978515625,0,1.541015625-.40625,1.86328125-1.0786132812Z"/><path d="m40.2626953125,30.337890625c0-2.2553710938,1.5263671875-3.7958984375,3.6279296875-3.7958984375s3.4736328125,1.4565429688,3.4736328125,3.5297851562c0,.23828125-.0419921875.57421875-.083984375.8686523438h-5.224609375c.181640625.9663085938.8544921875,1.6245117188,2.1015625,1.6245117188.8818359375,0,1.6240234375-.490234375,2.044921875-1.064453125l.98046875,1.1625976562c-.6728515625.8125-1.7373046875,1.4428710938-3.1103515625,1.4428710938-2.3388671875,0-3.8095703125-1.6669921875-3.8095703125-3.7680664062Zm1.8212890625-.8544921875h3.515625c-.09765625-.9384765625-.7421875-1.470703125-1.708984375-1.470703125-.9248046875,0-1.568359375.5180664062-1.806640625,1.470703125Z"/><path d="m48.5771484375,23.978515625h1.7783203125v9.9453125h-1.7783203125v-9.9453125Z"/><path d="m54.568359375,29.1611328125c0-2.8432617188,2.0595703125-4.9584960938,4.888671875-4.9584960938,1.947265625,0,3.404296875.8823242188,4.244140625,2.2690429688l-1.3583984375,1.0224609375c-.6025390625-.98046875-1.4853515625-1.5966796875-2.857421875-1.5966796875-1.8349609375,0-3.0400390625,1.4150390625-3.0400390625,3.263671875,0,1.8491210938,1.205078125,3.263671875,3.0537109375,3.263671875.91015625,0,1.8212890625-.251953125,2.353515625-.6440429688v-1.625h-2.1435546875v-1.5830078125h3.9638671875v4.146484375c-.9521484375.7563476562-2.619140625,1.4008789062-4.2158203125,1.4008789062-2.8291015625,0-4.888671875-2.115234375-4.888671875-4.958984375Z"/><path d="m65.2236328125,26.7099609375h1.7783203125v1.1206054688c.4208984375-.7705078125,1.12109375-1.2885742188,2.0732421875-1.2885742188h.2099609375v1.6948242188c-1.064453125.0141601562-1.9326171875.322265625-2.283203125,1.4008789062v4.2861328125h-1.7783203125v-7.2138671875Z"/><path d="m75.47265625,33.0971679688c-.5322265625.6025390625-1.3173828125.9946289062-2.255859375.9946289062-2.0029296875,0-3.4736328125-1.4848632812-3.4736328125-3.7680664062s1.470703125-3.7817382812,3.4736328125-3.7817382812c.9384765625,0,1.7236328125.40625,2.255859375,1.0083007812v-.8403320312h1.7783203125v7.2138671875h-1.7783203125v-.8266601562Zm0-1.6665039062v-2.2133789062c-.322265625-.6865234375-1.0654296875-1.0927734375-1.86328125-1.0927734375-1.1630859375,0-2.0595703125.798828125-2.0595703125,2.19921875,0,1.38671875.896484375,2.185546875,2.0595703125,2.185546875.7978515625,0,1.541015625-.40625,1.86328125-1.0786132812Z"/><path d="m78.0576171875,26.7099609375h1.9052734375l1.9189453125,5.0146484375,1.9189453125-5.0146484375h1.9052734375l-2.94140625,7.2138671875h-1.779296875l-2.927734375-7.2138671875Z"/><path d="m85.796875,30.337890625c0-2.2553710938,1.5263671875-3.7958984375,3.6279296875-3.7958984375s3.4736328125,1.4565429688,3.4736328125,3.5297851562c0,.23828125-.0419921875.57421875-.083984375.8686523438h-5.224609375c.181640625.9663085938.8544921875,1.6245117188,2.1015625,1.6245117188.8818359375,0,1.6240234375-.490234375,2.044921875-1.064453125l.98046875,1.1625976562c-.6728515625.8125-1.7373046875,1.4428710938-3.109375,1.4428710938-2.33984375,0-3.810546875-1.6669921875-3.810546875-3.7680664062Zm1.8212890625-.8544921875h3.515625c-.09765625-.9384765625-.7421875-1.470703125-1.708984375-1.470703125-.9248046875,0-1.568359375.5180664062-1.806640625,1.470703125Z"/><path d="m93.474609375,32.705078125l.9658203125-1.1206054688c.4765625.5883789062,1.2890625,1.0786132812,2.1435546875,1.0786132812.7705078125,0,1.31640625-.3081054688,1.31640625-.8403320312,0-.4760742188-.4345703125-.6723632812-1.1201171875-.7846679688l-.64453125-.09765625c-1.3447265625-.2241210938-2.1572265625-.966796875-2.1572265625-2.1435546875,0-1.2465820312,1.064453125-2.2548828125,2.87109375-2.2548828125,1.134765625,0,2.00390625.4760742188,2.5361328125,1.0922851562l-.9384765625,1.134765625c-.462890625-.490234375-1.0087890625-.7705078125-1.6669921875-.7705078125-.6728515625,0-1.0224609375.3081054688-1.0224609375.7006835938,0,.3637695312.279296875.5600585938.7978515625.6440429688l.64453125.0981445312c1.6533203125.251953125,2.4794921875,1.0224609375,2.4794921875,2.283203125,0,1.302734375-1.134765625,2.3955078125-3.166015625,2.3955078125-1.3447265625,0-2.380859375-.6303710938-3.0390625-1.4150390625Z"/><path d="m.6806640625,62.4599609375h8.28125v6.6616210938H3.2412109375v2.6005859375h4.220703125c1.48046875,0,2.8408203125-.2001953125,3.8408203125-.7202148438v-10.0825195312h2.560546875v5.9614257812h2.3408203125v2.2006835938h-2.3408203125v9.1215820312h-2.560546875v-5.4409179688c-1.259765625.8203125-3.060546875,1.1401367188-5.060546875,1.1401367188H1.6611328125c-.6201171875,0-.98046875-.2397460938-.98046875-.8203125v-6.0810546875h5.7607421875v-2.3603515625H.6806640625v-2.1806640625Z"/><path d="m22.287109375,61.7797851562c2.9208984375,0,4.7412109375,1.8603515625,4.7412109375,4.5610351562,0,2.720703125-1.8203125,4.5810546875-4.7412109375,4.5810546875s-4.7607421875-1.8603515625-4.7607421875-4.5810546875c0-2.7006835938,1.83984375-4.5610351562,4.7607421875-4.5610351562Zm0,6.9814453125c1.3203125,0,2.2001953125-.9799804688,2.2001953125-2.4204101562,0-1.4204101562-.8798828125-2.400390625-2.2001953125-2.400390625s-2.2001953125.9799804688-2.2001953125,2.400390625c0,1.4404296875.8798828125,2.4204101562,2.2001953125,2.4204101562Zm-1.5400390625,3.3608398438h2.560546875v3.9809570312h8.681640625v2.1801757812h-10.2822265625c-.6005859375,0-.9599609375-.2397460938-.9599609375-.8198242188v-5.3413085938Zm8.2412109375-11.2026367188h2.560546875v12.7431640625h-2.560546875v-12.7431640625Z"/><path d="m35.2314453125,63.6801757812h12.6025390625v1.8002929688h-1.880859375c.1806640625.2602539062.2802734375.5405273438.2802734375.8603515625,0,1.4604492188-1.1396484375,2.3403320312-3.4208984375,2.560546875v.7602539062h6.6416015625v1.9204101562h-15.84375v-1.9204101562h6.6416015625v-.7602539062c-2.2998046875-.2202148438-3.4208984375-1.1000976562-3.4208984375-2.560546875,0-.3198242188.1005859375-.6000976562.30078125-.8603515625h-1.900390625v-1.8002929688Zm.7001953125,8.662109375h11.2021484375v4.140625h-8.6416015625v.8203125h9.08203125v1.7202148438h-10.6826171875c-.6005859375,0-.9599609375-.2397460938-.9599609375-.8002929688v-3.3603515625h8.6416015625v-.7602539062h-8.6416015625v-1.7602539062Zm2.240234375-11.2626953125h6.7412109375v1.8603515625h-6.7412109375v-1.8603515625Zm3.3603515625,6.0415039062c1.541015625,0,2.1806640625-.3002929688,2.1806640625-.8603515625s-.6396484375-.8803710938-2.1806640625-.8803710938c-1.5400390625,0-2.16015625.3203125-2.16015625.8803710938s.6201171875.8603515625,2.16015625.8603515625Z"/><path d="m49.8720703125,73.8823242188h15.84375v2.220703125h-15.84375v-2.220703125Zm2.28125-11.5825195312h11.2822265625v2.220703125h-8.7216796875v4.0209960938h8.921875v2.2202148438h-10.5224609375c-.6005859375,0-.9599609375-.2602539062-.9599609375-.8203125v-7.6416015625Z"/><path d="m80.9140625,68.1010742188c0,2.9409179688-1.1611328125,5.8012695312-4.62109375,5.8012695312-3.44140625,0-4.6416015625-2.8603515625-4.6416015625-5.8012695312,0-2.9204101562,1.2001953125-5.78125,4.6416015625-5.78125,3.4599609375,0,4.62109375,2.8608398438,4.62109375,5.78125Zm-6.7021484375,0c0,1.6206054688.4404296875,3.62109375,2.0810546875,3.62109375,1.6396484375,0,2.099609375-2.0004882812,2.099609375-3.62109375,0-1.6000976562-.4599609375-3.6005859375-2.099609375-3.6005859375-1.640625,0-2.0810546875,2.0004882812-2.0810546875,3.6005859375Zm8.4423828125-7.181640625h2.560546875v5.861328125h2.3603515625v2.220703125h-2.3603515625v9.2016601562h-2.560546875v-17.2836914062Z"/><path d="m89.5283203125,65.6005859375h2.5400390625v3.5810546875c0,.919921875,0,1.8803710938.1201171875,2.4404296875h1.6806640625c.080078125-.5600585938.099609375-1.5205078125.099609375-2.4404296875v-3.5810546875h2.541015625v3.1005859375c0,1.2202148438-.240234375,2.3608398438-.580078125,2.9208984375,1.2802734375-.0400390625,2.3798828125-.1801757812,3.2607421875-.6000976562v-10.1025390625h2.560546875v5.9213867188h2.3603515625v2.220703125h-2.3603515625v9.1416015625h-2.560546875v-5.380859375c-1.240234375.7602539062-2.9609375.9599609375-4.78125.9799804688h-6.26171875v-2.1801757812h1.98046875c-.359375-.5600585938-.599609375-1.7006835938-.599609375-2.9208984375v-3.1005859375Zm-1.080078125-3.0805664062h9.1416015625v2.2006835938h-9.1416015625v-2.2006835938Z"/><path d="m104.2265625,74.0825195312h15.84375v2.2202148438h-15.84375v-2.2202148438Zm2.28125-11.8627929688h11.2822265625v2.1206054688h-8.7216796875v1.5805664062h8.341796875v2.0200195312h-8.341796875v1.6206054688h9.001953125v2.1206054688h-10.6025390625c-.6005859375,0-.9599609375-.2602539062-.9599609375-.8203125v-8.6420898438Z"/><path d="m0,94.5615234375h15.84375v2.220703125h-3.5810546875v5.5009765625h-2.580078125v-5.5009765625h-3.48046875v5.5009765625h-2.560546875v-5.5009765625H0v-2.220703125Zm2.380859375-9.0815429688h2.560546875v4.720703125h8.921875v2.220703125H3.3408203125c-.599609375,0-.9599609375-.240234375-.9599609375-.8203125v-6.12109375Z"/><path d="m17.1728515625,93.5815429688h3.8408203125v-2.4404296875c-.8798828125-.5600585938-1.3798828125-1.400390625-1.3798828125-2.4404296875,0-2.140625,2.0205078125-3.5009765625,5.4609375-3.5009765625,3.44140625,0,5.4619140625,1.3603515625,5.4619140625,3.5009765625,0,1.0400390625-.5009765625,1.8803710938-1.380859375,2.4404296875v2.4404296875h3.8408203125v2.0805664062h-15.84375v-2.0805664062Zm2.0810546875,3.4409179688h11.4423828125v5.8208007812h-2.560546875v-3.720703125h-8.8818359375v-2.1000976562Zm5.8408203125-6.921875c1.8603515625,0,2.9013671875-.4799804688,2.9013671875-1.3999023438,0-.9204101562-1.041015625-1.400390625-2.9013671875-1.400390625s-2.900390625.4799804688-2.900390625,1.400390625c0,.919921875,1.0400390625,1.3999023438,2.900390625,1.3999023438Zm-1.5595703125,3.4809570312h3.1201171875v-1.5805664062c-.48046875.080078125-1.0205078125.1201171875-1.560546875.1201171875-.5595703125,0-1.080078125-.0400390625-1.5595703125-.1201171875v1.5805664062Z"/><path d="m35.2060546875,100.8432617188h-1.400390625v-3.0610351562h3.080078125v2.7006835938l-1.3798828125,3.3208007812h-1.5l1.2001953125-2.9604492188Z"/><path d="m43.845703125,86.5h8.3818359375v11.2026367188h-7.40234375c-.6201171875,0-.9794921875-.240234375-.9794921875-.8203125v-10.3823242188Zm2.5,2.1806640625v6.8413085938h3.4208984375v-6.8413085938h-3.4208984375Zm8.40234375-3.7612304688h2.560546875v17.2836914062h-2.560546875v-17.2836914062Z"/><path d="m61.6201171875,85.6396484375h11.142578125v1.560546875c0,1.8603515625-.33984375,3.4604492188-1.0205078125,4.7607421875h3.4609375v2.0805664062h-6.6416015625v2.380859375h4.3212890625v6.4208984375h-2.560546875v-4.3208007812h-8.8818359375v-2.1000976562h4.560546875v-2.380859375h-6.6416015625v-2.0805664062h10.1630859375c.4794921875-1.2202148438.6396484375-2.7202148438.6396484375-3.8608398438v-.259765625h-8.5419921875v-2.2006835938Z"/><path d="m77.392578125,100.8432617188h-1.400390625v-3.0610351562h3.080078125v2.7006835938l-1.3798828125,3.3208007812h-1.5l1.2001953125-2.9604492188Z"/><path d="m87.8525390625,89.2407226562l-2.48046875,1.3603515625-.9404296875-1.98046875,4.060546875-2.2807617188h1.900390625v13.6030273438h-2.5400390625v-10.7021484375Z"/><path d="m103.578125,92.8012695312c0,4.6411132812-2.4208984375,7.421875-6.2412109375,7.421875-2.1806640625,0-3.7607421875-1.060546875-4.62109375-2.3408203125l1.740234375-1.5600585938c.580078125.8999023438,1.6201171875,1.5400390625,2.880859375,1.5400390625,1.900390625,0,3.3203125-1.2802734375,3.580078125-3.7407226562-.8193359375.900390625-1.9599609375,1.5405273438-3.5205078125,1.5405273438-2.560546875,0-4.7607421875-1.8803710938-4.7607421875-4.7412109375,0-2.8603515625,2.3798828125-4.8608398438,5.28125-4.8608398438,3.720703125,0,5.6611328125,2.8403320312,5.6611328125,6.7412109375Zm-8.322265625-1.9404296875c0,1.3403320312,1.0009765625,2.4604492188,2.6611328125,2.4604492188,1.6396484375,0,2.640625-1.1201171875,2.640625-2.4604492188,0-1.3203125-1.0009765625-2.4404296875-2.640625-2.4404296875-1.66015625,0-2.6611328125,1.1201171875-2.6611328125,2.4404296875Z"/><path d="m105.6357421875,99.8828125l5.4013671875-11.2622070312h-6.701171875v-2.2807617188h9.6220703125v1.8403320312l-5.4619140625,11.7626953125h-2.8603515625v-.0600585938Z"/><path d="m125.76953125,92.8012695312c0,4.6411132812-2.4208984375,7.421875-6.2412109375,7.421875-2.1806640625,0-3.7607421875-1.060546875-4.62109375-2.3408203125l1.740234375-1.5600585938c.580078125.8999023438,1.6201171875,1.5400390625,2.880859375,1.5400390625,1.900390625,0,3.3203125-1.2802734375,3.580078125-3.7407226562-.8193359375.900390625-1.9599609375,1.5405273438-3.5205078125,1.5405273438-2.560546875,0-4.7607421875-1.8803710938-4.7607421875-4.7412109375,0-2.8603515625,2.3798828125-4.8608398438,5.28125-4.8608398438,3.720703125,0,5.6611328125,2.8403320312,5.6611328125,6.7412109375Zm-8.322265625-1.9404296875c0,1.3403320312,1.0009765625,2.4604492188,2.6611328125,2.4604492188,1.6396484375,0,2.640625-1.1201171875,2.640625-2.4604492188,0-1.3203125-1.0009765625-2.4404296875-2.640625-2.4404296875-1.66015625,0-2.6611328125,1.1201171875-2.6611328125,2.4404296875Z"/><path d="m127.97265625,92.861328125h5.841796875v2.0405273438h-5.841796875v-2.0405273438Z"/><path d="m137.3857421875,89.2407226562l-2.48046875,1.3603515625-.9404296875-1.98046875,4.060546875-2.2807617188h1.900390625v13.6030273438h-2.5400390625v-10.7021484375Z"/><path d="m153.111328125,92.8012695312c0,4.6411132812-2.4208984375,7.421875-6.2412109375,7.421875-2.1806640625,0-3.7607421875-1.060546875-4.62109375-2.3408203125l1.740234375-1.5600585938c.580078125.8999023438,1.6201171875,1.5400390625,2.880859375,1.5400390625,1.900390625,0,3.3203125-1.2802734375,3.580078125-3.7407226562-.8193359375.900390625-1.9599609375,1.5405273438-3.5205078125,1.5405273438-2.560546875,0-4.7607421875-1.8803710938-4.7607421875-4.7412109375,0-2.8603515625,2.3798828125-4.8608398438,5.28125-4.8608398438,3.720703125,0,5.6611328125,2.8403320312,5.6611328125,6.7412109375Zm-8.322265625-1.9404296875c0,1.3403320312,1.0009765625,2.4604492188,2.6611328125,2.4604492188,1.6396484375,0,2.640625-1.1201171875,2.640625-2.4604492188,0-1.3203125-1.0009765625-2.4404296875-2.640625-2.4404296875-1.66015625,0-2.6611328125,1.1201171875-2.6611328125,2.4404296875Z"/><path d="m154.533203125,96.08203125c0-1.6201171875.98046875-2.98046875,2.5205078125-3.4609375-1.1806640625-.6000976562-1.7607421875-1.6000976562-1.7607421875-2.8603515625,0-2.0004882812,1.62109375-3.7006835938,4.78125-3.7006835938,3.1611328125,0,4.78125,1.7001953125,4.78125,3.7006835938,0,1.2602539062-.580078125,2.2602539062-1.7607421875,2.8603515625,1.541015625.48046875,2.5205078125,1.8408203125,2.5205078125,3.4609375,0,2.3603515625-1.8603515625,4.1411132812-5.541015625,4.1411132812s-5.541015625-1.7807617188-5.541015625-4.1411132812Zm2.6005859375-.2202148438c0,1.1005859375.9404296875,2.0405273438,2.9404296875,2.0405273438,2.0009765625,0,2.9404296875-.9399414062,2.9404296875-2.0405273438,0-1.1000976562-.939453125-2.0400390625-2.9404296875-2.0400390625-2,0-2.9404296875.9399414062-2.9404296875,2.0400390625Zm.759765625-5.880859375c0,.9799804688.900390625,1.6000976562,2.1806640625,1.6000976562s2.1806640625-.6201171875,2.1806640625-1.6000976562c0-.98046875-.900390625-1.6005859375-2.1806640625-1.6005859375s-2.1806640625.6201171875-2.1806640625,1.6005859375Z"/><path d="m169.6259765625,89.2407226562l-2.48046875,1.3603515625-.9404296875-1.98046875,4.060546875-2.2807617188h1.900390625v13.6030273438h-2.5400390625v-10.7021484375Z"/><path d="m3.69140625,114.9912109375h-1.5126953125v3.8520507812H.357421875v-9.525390625h4.23046875c1.8349609375,0,3.15234375,1.0786132812,3.15234375,2.84375,0,1.4008789062-.8271484375,2.3671875-2.087890625,2.7036132812l3.08203125,3.9360351562v.0419921875h-2.185546875l-2.857421875-3.8520507812Zm.7001953125-1.5830078125c.966796875,0,1.4716796875-.4619140625,1.4716796875-1.2465820312,0-.7841796875-.5048828125-1.2465820312-1.4716796875-1.2465820312h-2.212890625v2.4931640625h2.212890625Z"/><path d="m8.8203125,115.2573242188c0-2.2553710938,1.5263671875-3.7958984375,3.6279296875-3.7958984375s3.4736328125,1.4565429688,3.4736328125,3.5297851562c0,.23828125-.0419921875.57421875-.083984375.8686523438h-5.224609375c.181640625.9663085938.8544921875,1.6245117188,2.1015625,1.6245117188.8818359375,0,1.6240234375-.490234375,2.044921875-1.064453125l.98046875,1.1625976562c-.6728515625.8125-1.7373046875,1.4428710938-3.109375,1.4428710938-2.33984375,0-3.810546875-1.6669921875-3.810546875-3.7680664062Zm1.8212890625-.8544921875h3.515625c-.09765625-.9384765625-.7421875-1.470703125-1.708984375-1.470703125-.9248046875,0-1.568359375.5180664062-1.806640625,1.470703125Z"/><path d="m17.080078125,108.5615234375h1.8212890625v1.8491210938h-1.8212890625v-1.8491210938Zm.0283203125,3.0678710938h1.7783203125v7.2138671875h-1.7783203125v-7.2138671875Z"/><path d="m20.470703125,111.6293945312h1.7783203125v1.0083007812c.392578125-.6440429688,1.1630859375-1.1762695312,2.283203125-1.1762695312,1.876953125,0,2.74609375,1.2885742188,2.74609375,3.1376953125v4.244140625h-1.779296875v-4.0483398438c0-1.1484375-.5458984375-1.7509765625-1.5966796875-1.7509765625-.8828125,0-1.470703125.6025390625-1.6533203125,1.2607421875v4.5385742188h-1.7783203125v-7.2138671875Z"/><path d="m28.8056640625,108.8979492188h1.7783203125v3.7397460938c.392578125-.6440429688,1.1630859375-1.1762695312,2.283203125-1.1762695312,1.876953125,0,2.74609375,1.2885742188,2.74609375,3.1376953125v4.244140625h-1.779296875v-4.0483398438c0-1.1484375-.5458984375-1.7509765625-1.5966796875-1.7509765625-.953125,0-1.4990234375.7006835938-1.6533203125,1.2607421875v4.5385742188h-1.7783203125v-9.9453125Z"/><path d="m36.7294921875,115.2431640625c0-1.9750976562,1.31640625-3.7817382812,3.8232421875-3.7817382812,2.5078125,0,3.82421875,1.806640625,3.82421875,3.7817382812,0,1.9892578125-1.31640625,3.7963867188-3.82421875,3.7963867188-2.5068359375,0-3.8232421875-1.8071289062-3.8232421875-3.7963867188Zm1.806640625,0c0,1.3447265625.8544921875,2.2133789062,2.0166015625,2.2133789062,1.1630859375,0,2.017578125-.8686523438,2.017578125-2.2133789062,0-1.3305664062-.8544921875-2.19921875-2.017578125-2.19921875-1.162109375,0-2.0166015625.8686523438-2.0166015625,2.19921875Z"/><path d="m45.5830078125,108.8979492188h1.7783203125v9.9453125h-1.7783203125v-9.9453125Z"/><path d="m54.3125,118.0166015625c-.5322265625.6025390625-1.3173828125.9946289062-2.255859375.9946289062-2.0029296875,0-3.4736328125-1.4848632812-3.4736328125-3.7680664062s1.470703125-3.7817382812,3.4736328125-3.7817382812c.9384765625,0,1.7236328125.40625,2.255859375,1.0083007812v-3.5717773438h1.7783203125v9.9453125h-1.7783203125v-.8266601562Zm0-1.6665039062v-2.2133789062c-.322265625-.6865234375-1.0654296875-1.0927734375-1.86328125-1.0927734375-1.1630859375,0-2.0595703125.798828125-2.0595703125,2.19921875,0,1.38671875.896484375,2.185546875,2.0595703125,2.185546875.7978515625,0,1.541015625-.40625,1.86328125-1.0786132812Z"/><path d="m63.5087890625,109.3178710938h2.142578125l3.7119140625,9.525390625h-1.890625l-.7705078125-2.0170898438h-4.244140625l-.7705078125,2.0170898438h-1.890625l3.7119140625-9.525390625Zm-.4482421875,5.9252929688h3.025390625l-1.5126953125-3.9780273438-1.5126953125,3.9780273438Z"/><path d="m70.15234375,111.6293945312h1.7783203125v.8544921875c.5185546875-.6025390625,1.3173828125-1.0224609375,2.26953125-1.0224609375,1.9892578125,0,3.4599609375,1.4985351562,3.4599609375,3.7817382812s-1.470703125,3.7680664062-3.4599609375,3.7680664062c-.9521484375,0-1.7509765625-.40625-2.26953125-1.0083007812v3.263671875h-1.7783203125v-9.6372070312Zm5.701171875,3.6137695312c0-1.400390625-.896484375-2.19921875-2.0595703125-2.19921875-.798828125,0-1.541015625.40625-1.86328125,1.0927734375v2.2133789062c.322265625.6723632812,1.064453125,1.0786132812,1.86328125,1.0786132812,1.1630859375,0,2.0595703125-.798828125,2.0595703125-2.185546875Z"/><path d="m84.2216796875,118.0166015625c-.5322265625.6025390625-1.3173828125.9946289062-2.255859375.9946289062-2.0029296875,0-3.4736328125-1.4848632812-3.4736328125-3.7680664062s1.470703125-3.7817382812,3.4736328125-3.7817382812c.9384765625,0,1.7236328125.40625,2.255859375,1.0083007812v-.8403320312h1.7783203125v7.2138671875h-1.7783203125v-.8266601562Zm0-1.6665039062v-2.2133789062c-.322265625-.6865234375-1.0654296875-1.0927734375-1.86328125-1.0927734375-1.1630859375,0-2.0595703125.798828125-2.0595703125,2.19921875,0,1.38671875.896484375,2.185546875,2.0595703125,2.185546875.7978515625,0,1.541015625-.40625,1.86328125-1.0786132812Z"/><path d="m87.6025390625,111.6293945312h1.7783203125v1.1206054688c.4208984375-.7705078125,1.12109375-1.2885742188,2.0732421875-1.2885742188h.2099609375v1.6948242188c-1.064453125.0141601562-1.9326171875.322265625-2.283203125,1.4008789062v4.2861328125h-1.7783203125v-7.2138671875Z"/><path d="m93.369140625,116.083984375v-3.0258789062h-1.205078125v-1.4287109375h1.2607421875v-1.8349609375h1.72265625v1.8349609375h1.6669921875v1.4287109375h-1.6669921875v3.1098632812c0,.9243164062.4345703125,1.2465820312,1.3310546875,1.2465820312h.3359375v1.4287109375c-.23828125.0561523438-.5322265625.083984375-.7978515625.083984375-1.7509765625,0-2.6474609375-.8681640625-2.6474609375-2.8432617188Z"/><path d="m107.806640625,114.794921875c0-1.1484375-.4765625-1.7509765625-1.541015625-1.7509765625-.896484375,0-1.4150390625.6025390625-1.5966796875,1.2607421875v4.5385742188h-1.779296875v-4.0483398438c0-1.1484375-.490234375-1.7509765625-1.541015625-1.7509765625-.8818359375,0-1.4140625.6025390625-1.5966796875,1.2607421875v4.5385742188h-1.7783203125v-7.2138671875h1.7783203125v1.0083007812c.392578125-.6440429688,1.1064453125-1.1762695312,2.2275390625-1.1762695312,1.1904296875,0,1.947265625.5180664062,2.3388671875,1.3725585938.5322265625-.8686523438,1.3447265625-1.3725585938,2.578125-1.3725585938,1.876953125,0,2.689453125,1.2885742188,2.689453125,3.1376953125v4.244140625h-1.779296875v-4.0483398438Z"/><path d="m110.7255859375,115.2573242188c0-2.2553710938,1.5263671875-3.7958984375,3.6279296875-3.7958984375s3.4736328125,1.4565429688,3.4736328125,3.5297851562c0,.23828125-.0419921875.57421875-.083984375.8686523438h-5.224609375c.181640625.9663085938.8544921875,1.6245117188,2.1015625,1.6245117188.8818359375,0,1.6240234375-.490234375,2.044921875-1.064453125l.98046875,1.1625976562c-.6728515625.8125-1.7373046875,1.4428710938-3.1103515625,1.4428710938-2.3388671875,0-3.8095703125-1.6669921875-3.8095703125-3.7680664062Zm1.8212890625-.8544921875h3.515625c-.09765625-.9384765625-.7421875-1.470703125-1.708984375-1.470703125-.9248046875,0-1.568359375.5180664062-1.806640625,1.470703125Z"/><path d="m119.0263671875,111.6293945312h1.7783203125v1.0083007812c.392578125-.6440429688,1.1630859375-1.1762695312,2.283203125-1.1762695312,1.876953125,0,2.74609375,1.2885742188,2.74609375,3.1376953125v4.244140625h-1.779296875v-4.0483398438c0-1.1484375-.5458984375-1.7509765625-1.5966796875-1.7509765625-.8828125,0-1.470703125.6025390625-1.6533203125,1.2607421875v4.5385742188h-1.7783203125v-7.2138671875Z"/><path d="m127.7529296875,116.083984375v-3.0258789062h-1.205078125v-1.4287109375h1.2607421875v-1.8349609375h1.72265625v1.8349609375h1.6669921875v1.4287109375h-1.6669921875v3.1098632812c0,.9243164062.4345703125,1.2465820312,1.3310546875,1.2465820312h.3359375v1.4287109375c-.23828125.0561523438-.5322265625.083984375-.7978515625.083984375-1.7509765625,0-2.6474609375-.8681640625-2.6474609375-2.8432617188Z"/><path d="m.357421875,126.1176757812h1.59765625l5.1826171875,6.5v-6.5h1.8212890625v9.525390625h-1.5830078125l-5.197265625-6.4995117188v6.4995117188H.357421875v-9.525390625Z"/><path d="m10.34765625,132.0571289062c0-2.2553710938,1.5263671875-3.7958984375,3.6279296875-3.7958984375s3.4736328125,1.4565429688,3.4736328125,3.5297851562c0,.23828125-.0419921875.57421875-.083984375.8686523438h-5.224609375c.181640625.9663085938.8544921875,1.6245117188,2.1015625,1.6245117188.8818359375,0,1.6240234375-.490234375,2.044921875-1.064453125l.98046875,1.1625976562c-.6728515625.8125-1.7373046875,1.4428710938-3.109375,1.4428710938-2.33984375,0-3.810546875-1.6669921875-3.810546875-3.7680664062Zm1.8212890625-.8544921875h3.515625c-.09765625-.9384765625-.7421875-1.470703125-1.708984375-1.470703125-.9248046875,0-1.568359375.5180664062-1.806640625,1.470703125Z"/><path d="m17.677734375,128.4291992188h1.904296875l1.443359375,4.818359375,1.638671875-4.818359375h1.890625l1.6396484375,4.818359375,1.4423828125-4.818359375h1.9052734375l-2.3671875,7.2138671875h-1.779296875l-1.79296875-5.0146484375-1.779296875,5.0146484375h-1.7783203125l-2.3671875-7.2138671875Z"/><path d="m36.046875,131.6650390625l-3.572265625-5.5048828125v-.0424804688h2.1298828125l2.3525390625,3.7543945312,2.353515625-3.7543945312h2.12890625v.0424804688l-3.5712890625,5.5048828125v3.9780273438h-1.8212890625v-3.9780273438Z"/><path d="m40.689453125,132.04296875c0-1.9750976562,1.31640625-3.7817382812,3.82421875-3.7817382812,2.5068359375,0,3.8232421875,1.806640625,3.8232421875,3.7817382812,0,1.9892578125-1.31640625,3.7963867188-3.8232421875,3.7963867188-2.5078125,0-3.82421875-1.8071289062-3.82421875-3.7963867188Zm1.806640625,0c0,1.3447265625.8544921875,2.2133789062,2.017578125,2.2133789062,1.162109375,0,2.0166015625-.8686523438,2.0166015625-2.2133789062,0-1.3305664062-.8544921875-2.19921875-2.0166015625-2.19921875-1.1630859375,0-2.017578125.8686523438-2.017578125,2.19921875Z"/><path d="m49.5263671875,128.4291992188h1.7783203125v1.1206054688c.4208984375-.7705078125,1.12109375-1.2885742188,2.0732421875-1.2885742188h.2099609375v1.6948242188c-1.064453125.0141601562-1.9326171875.322265625-2.283203125,1.4008789062v4.2861328125h-1.7783203125v-7.2138671875Z"/><path d="m54.423828125,125.6977539062h1.7783203125v5.798828125l2.7880859375-3.0673828125h2.03125v.0561523438l-2.74609375,3.025390625,3.0537109375,4.0903320312v.0419921875h-2.1005859375l-2.0732421875-2.8994140625-.953125,1.0502929688v1.8491210938h-1.7783203125v-9.9453125Z"/><path d="m63.0947265625,136.2734375h-.98046875v-2.1430664062h2.1572265625v1.8911132812l-.966796875,2.3251953125h-1.0498046875l.83984375-2.0732421875Z"/><path d="m68.806640625,131.5810546875v-5.4633789062h1.8203125v5.3369140625c0,1.625.64453125,2.689453125,2.2275390625,2.689453125,1.5693359375,0,2.212890625-1.064453125,2.212890625-2.689453125v-5.3369140625h1.8212890625v5.4633789062c0,2.451171875-1.3447265625,4.2583007812-4.0341796875,4.2583007812-2.703125,0-4.0478515625-1.8071289062-4.0478515625-4.2583007812Z"/><path d="m77.7900390625,133.6821289062l1.19140625-1.1625976562c.5458984375.8544921875,1.470703125,1.6806640625,2.9130859375,1.6806640625,1.1767578125,0,1.79296875-.5883789062,1.79296875-1.3305664062,0-.6025390625-.419921875-1.064453125-1.541015625-1.2329101562l-.826171875-.1259765625c-1.6806640625-.251953125-2.8154296875-1.21875-2.8154296875-2.689453125,0-1.6108398438,1.31640625-2.8994140625,3.4462890625-2.8994140625,1.470703125,0,2.6748046875.6440429688,3.361328125,1.5405273438l-1.162109375,1.205078125c-.5888671875-.728515625-1.38671875-1.1069335938-2.2412109375-1.1069335938-.953125,0-1.513671875.5043945312-1.513671875,1.0786132812,0,.560546875.4208984375.966796875,1.2470703125,1.0927734375l.8125.1259765625c1.9609375.2939453125,3.109375,1.2749023438,3.109375,2.8857421875,0,1.8349609375-1.4990234375,3.095703125-3.697265625,3.095703125-2.19921875,0-3.404296875-1.134765625-4.0771484375-2.1572265625Z"/><path d="m89.5,126.1176757812h2.142578125l3.7119140625,9.525390625h-1.890625l-.7705078125-2.0170898438h-4.244140625l-.7705078125,2.0170898438h-1.890625l3.7119140625-9.525390625Zm-.4482421875,5.9252929688h3.025390625l-1.5126953125-3.9780273438-1.5126953125,3.9780273438Z"/><path d="m97.4892578125,136.2734375h-.98046875v-2.1430664062h2.1572265625v1.8911132812l-.966796875,2.3251953125h-1.0498046875l.83984375-2.0732421875Z"/><path d="m104.671875,128.1489257812l-1.7373046875.9526367188-.658203125-1.38671875,2.84375-1.5971679688h1.330078125v9.525390625h-1.7783203125v-7.494140625Z"/><path d="m115.6337890625,130.642578125c0,3.2495117188-1.6943359375,5.1967773438-4.3701171875,5.1967773438-1.52734375,0-2.6337890625-.7426757812-3.236328125-1.6391601562l1.21875-1.0922851562c.40625.6298828125,1.134765625,1.078125,2.017578125,1.078125,1.3310546875,0,2.3251953125-.896484375,2.5068359375-2.619140625-.57421875.6303710938-1.3720703125,1.0786132812-2.46484375,1.0786132812-1.79296875,0-3.333984375-1.3168945312-3.333984375-3.3198242188s1.6669921875-3.4038085938,3.6982421875-3.4038085938c2.60546875,0,3.9638671875,1.9887695312,3.9638671875,4.720703125Zm-5.8271484375-1.3588867188c0,.9384765625.7001953125,1.72265625,1.86328125,1.72265625,1.1484375,0,1.8486328125-.7841796875,1.8486328125-1.72265625,0-.9248046875-.7001953125-1.708984375-1.8486328125-1.708984375-1.1630859375,0-1.86328125.7841796875-1.86328125,1.708984375Z"/><path d="m117.025390625,135.6010742188l3.7822265625-7.8862304688h-4.6923828125v-1.5971679688h6.7373046875v1.2890625l-3.82421875,8.236328125h-2.0029296875v-.0419921875Z"/><path d="m131.0751953125,130.642578125c0,3.2495117188-1.6943359375,5.1967773438-4.3701171875,5.1967773438-1.52734375,0-2.6337890625-.7426757812-3.236328125-1.6391601562l1.21875-1.0922851562c.40625.6298828125,1.134765625,1.078125,2.017578125,1.078125,1.3310546875,0,2.3251953125-.896484375,2.5068359375-2.619140625-.57421875.6303710938-1.3720703125,1.0786132812-2.46484375,1.0786132812-1.79296875,0-3.333984375-1.3168945312-3.333984375-3.3198242188s1.6669921875-3.4038085938,3.6982421875-3.4038085938c2.60546875,0,3.9638671875,1.9887695312,3.9638671875,4.720703125Zm-5.8271484375-1.3588867188c0,.9384765625.7001953125,1.72265625,1.86328125,1.72265625,1.1484375,0,1.8486328125-.7841796875,1.8486328125-1.72265625,0-.9248046875-.7001953125-1.708984375-1.8486328125-1.708984375-1.1630859375,0-1.86328125.7841796875-1.86328125,1.708984375Z"/><path d="m132.5634765625,130.6845703125h4.08984375v1.4287109375h-4.08984375v-1.4287109375Z"/><path d="m139.111328125,128.1489257812l-1.7373046875.9526367188-.658203125-1.38671875,2.84375-1.5971679688h1.330078125v9.525390625h-1.7783203125v-7.494140625Z"/><path d="m150.072265625,130.642578125c0,3.2495117188-1.6943359375,5.1967773438-4.3701171875,5.1967773438-1.52734375,0-2.6337890625-.7426757812-3.236328125-1.6391601562l1.21875-1.0922851562c.40625.6298828125,1.134765625,1.078125,2.017578125,1.078125,1.3310546875,0,2.3251953125-.896484375,2.5068359375-2.619140625-.57421875.6303710938-1.3720703125,1.0786132812-2.46484375,1.0786132812-1.79296875,0-3.333984375-1.3168945312-3.333984375-3.3198242188s1.6669921875-3.4038085938,3.6982421875-3.4038085938c2.60546875,0,3.9638671875,1.9887695312,3.9638671875,4.720703125Zm-5.8271484375-1.3588867188c0,.9384765625.7001953125,1.72265625,1.86328125,1.72265625,1.1484375,0,1.8486328125-.7841796875,1.8486328125-1.72265625,0-.9248046875-.7001953125-1.708984375-1.8486328125-1.708984375-1.1630859375,0-1.86328125.7841796875-1.86328125,1.708984375Z"/><path d="m151.0166015625,132.939453125c0-1.1342773438.6865234375-2.0869140625,1.7646484375-2.4233398438-.826171875-.419921875-1.232421875-1.1206054688-1.232421875-2.0029296875,0-1.4008789062,1.134765625-2.5913085938,3.34765625-2.5913085938s3.34765625,1.1904296875,3.34765625,2.5913085938c0,.8823242188-.40625,1.5830078125-1.232421875,2.0029296875,1.078125.3364257812,1.7646484375,1.2890625,1.7646484375,2.4233398438,0,1.6528320312-1.302734375,2.8999023438-3.8798828125,2.8999023438s-3.8798828125-1.2470703125-3.8798828125-2.8999023438Zm1.8203125-.1538085938c0,.7705078125.6591796875,1.4287109375,2.0595703125,1.4287109375s2.05859375-.658203125,2.05859375-1.4287109375-.658203125-1.4287109375-2.05859375-1.4287109375-2.0595703125.658203125-2.0595703125,1.4287109375Zm.5322265625-4.1181640625c0,.6860351562.630859375,1.1206054688,1.52734375,1.1206054688s1.5263671875-.4345703125,1.5263671875-1.1206054688c0-.6865234375-.6298828125-1.1206054688-1.5263671875-1.1206054688s-1.52734375.4340820312-1.52734375,1.1206054688Z"/><path d="m161.533203125,128.1489257812l-1.7373046875.9526367188-.658203125-1.38671875,2.84375-1.5971679688h1.330078125v9.525390625h-1.7783203125v-7.494140625Z"/><rect class="cls-1" y="0" width="318.1005859375" height="138.3466796875"/></g></svg>