<?xml version="1.0" encoding="UTF-8"?><svg id="_레이어_2" xmlns="http://www.w3.org/2000/svg" viewBox="0 0 318.1005859375 138.3466796875"><defs><style>.cls-1{fill:none;}</style></defs><g id="Layer_1"><path d="m2.609375.6005859375h10.982421875v1.6000976562c0,1.8403320312-.2197265625,3.6206054688-1.080078125,5.0810546875h3.5205078125v2.0004882812H.1884765625v-2.0004882812h10.1630859375c.3193359375-.6801757812.4794921875-1.5004882812.580078125-2.2602539062-.640625.6000976562-1.9404296875.8598632812-3.7412109375.8598632812H2.3896484375v-1.8803710938h5.6806640625c1.16015625,0,2.2607421875-.0200195312,2.94140625-.2797851562.01953125-.0600585938.01953125-.400390625.01953125-.4604492188v-.66015625H2.609375V.6005859375Zm-.099609375,9.8818359375h11.2021484375v4.6411132812H5.0703125v1.0600585938h9.08203125v1.900390625H3.4697265625c-.6005859375,0-.9599609375-.259765625-.9599609375-.8203125v-3.9204101562h8.6416015625v-1.0004882812H2.509765625v-1.8603515625Z"/><path d="m18.5224609375,1.3002929688h11.2822265625v5.681640625h-8.7421875v1.580078125h9.0224609375v2.1206054688h-4.6416015625v2.5205078125h6.6416015625v2.2202148438h-15.84375v-2.2202148438h6.6416015625v-2.5205078125h-3.400390625c-.6005859375,0-.9599609375-.2602539062-.9599609375-.8203125v-4.9008789062h8.7412109375v-1.5405273438h-8.7412109375V1.3002929688Z"/><path d="m33.4150390625,12.962890625h15.84375v2.220703125h-15.84375v-2.220703125Zm2.28125-11.5825195312h11.2822265625v2.220703125h-8.7216796875v4.0209960938h8.921875v2.2202148438h-10.5224609375c-.6005859375,0-.9599609375-.2602539062-.9599609375-.8203125V1.3803710938Z"/><path d="m56.53515625,4.6811523438h2.5400390625v3.5810546875c0,.919921875,0,1.8803710938.1201171875,2.4404296875h1.6806640625c.080078125-.5600585938.099609375-1.5205078125.099609375-2.4404296875v-3.5810546875h2.541015625v3.1005859375c0,1.2202148438-.240234375,2.3608398438-.580078125,2.9208984375,1.2802734375-.0400390625,2.3798828125-.1801757812,3.2607421875-.6000976562V0h2.560546875v5.9213867188h2.3603515625v2.220703125h-2.3603515625v9.1416015625h-2.560546875v-5.380859375c-1.240234375.7602539062-2.9609375.9599609375-4.78125.9799804688h-6.26171875v-2.1801757812h1.98046875c-.359375-.5600585938-.599609375-1.7006835938-.599609375-2.9208984375v-3.1005859375Zm-1.080078125-3.0805664062h9.1416015625v2.2006835938h-9.1416015625V1.6005859375Z"/><path d="m72.458984375.8603515625h6.5810546875v5.3212890625h-4.140625v1.3203125h2.400390625c1.2197265625,0,2.30078125-.16015625,3.2001953125-.66015625V.2001953125h2.4013671875v3.9008789062h1.6201171875V0h2.4404296875v10.3823242188h-2.4404296875v-4.1606445312h-1.6201171875v3.6806640625h-2.4013671875v-1.400390625c-1.0595703125.740234375-2.400390625,1.080078125-4.16015625,1.080078125h-2.9013671875c-.6201171875,0-.9794921875-.2397460938-.9794921875-.8198242188v-4.5810546875h4.1806640625v-1.2202148438h-4.1806640625V.8603515625Zm8.8818359375,9.9223632812c3.5205078125,0,5.5810546875,1.3798828125,5.5810546875,3.5405273438s-2.060546875,3.541015625-5.5810546875,3.541015625c-3.521484375,0-5.5810546875-1.3803710938-5.5810546875-3.541015625s2.0595703125-3.5405273438,5.5810546875-3.5405273438Zm0,4.9208984375c1.900390625,0,3.0205078125-.4799804688,3.0205078125-1.3803710938s-1.1201171875-1.3803710938-3.0205078125-1.3803710938-3.0205078125.4799804688-3.0205078125,1.3803710938,1.1201171875,1.3803710938,3.0205078125,1.3803710938Z"/><path d="m0,29.1611328125c0-2.8432617188,2.03125-4.9584960938,4.8466796875-4.9584960938,1.974609375,0,3.4462890625.9243164062,4.2724609375,2.3393554688l-1.359375,1.0083007812c-.6015625-1.0083007812-1.484375-1.6528320312-2.87109375-1.6528320312-1.8486328125,0-3.01171875,1.4150390625-3.01171875,3.263671875,0,1.8491210938,1.1630859375,3.263671875,3.01171875,3.263671875,1.38671875,0,2.26953125-.6440429688,2.87109375-1.6528320312l1.359375,1.0087890625c-.826171875,1.4145507812-2.2978515625,2.3393554688-4.2724609375,2.3393554688-2.8154296875,0-4.8466796875-2.115234375-4.8466796875-4.958984375Z"/><path d="m10.0908203125,23.978515625h1.7783203125v9.9453125h-1.7783203125v-9.9453125Z"/><path d="m18.8212890625,33.0971679688c-.5322265625.6025390625-1.3173828125.9946289062-2.255859375.9946289062-2.0029296875,0-3.4736328125-1.4848632812-3.4736328125-3.7680664062s1.470703125-3.7817382812,3.4736328125-3.7817382812c.9384765625,0,1.7236328125.40625,2.255859375,1.0083007812v-.8403320312h1.7783203125v7.2138671875h-1.7783203125v-.8266601562Zm0-1.6665039062v-2.2133789062c-.322265625-.6865234375-1.0654296875-1.0927734375-1.86328125-1.0927734375-1.1630859375,0-2.0595703125.798828125-2.0595703125,2.19921875,0,1.38671875.896484375,2.185546875,2.0595703125,2.185546875.7978515625,0,1.541015625-.40625,1.86328125-1.0786132812Z"/><path d="m28.94921875,33.923828125h-1.779296875v-1.0087890625c-.392578125.64453125-1.1630859375,1.1767578125-2.283203125,1.1767578125-1.876953125,0-2.7451171875-1.2885742188-2.7451171875-3.1376953125v-4.244140625h1.7783203125v4.0483398438c0,1.1484375.546875,1.7509765625,1.5966796875,1.7509765625.8828125,0,1.470703125-.6025390625,1.6533203125-1.2607421875v-4.5385742188h1.779296875v7.2138671875Z"/><path d="m35.892578125,33.0971679688c-.5322265625.6025390625-1.3173828125.9946289062-2.255859375.9946289062-2.0029296875,0-3.4736328125-1.4848632812-3.4736328125-3.7680664062s1.470703125-3.7817382812,3.4736328125-3.7817382812c.9384765625,0,1.7236328125.40625,2.255859375,1.0083007812v-3.5717773438h1.7783203125v9.9453125h-1.7783203125v-.8266601562Zm0-1.6665039062v-2.2133789062c-.322265625-.6865234375-1.0654296875-1.0927734375-1.86328125-1.0927734375-1.1630859375,0-2.0595703125.798828125-2.0595703125,2.19921875,0,1.38671875.896484375,2.185546875,2.0595703125,2.185546875.7978515625,0,1.541015625-.40625,1.86328125-1.0786132812Z"/><path d="m38.873046875,30.337890625c0-2.2553710938,1.5263671875-3.7958984375,3.6279296875-3.7958984375s3.4736328125,1.4565429688,3.4736328125,3.5297851562c0,.23828125-.0419921875.57421875-.083984375.8686523438h-5.224609375c.181640625.9663085938.8544921875,1.6245117188,2.1015625,1.6245117188.8818359375,0,1.6240234375-.490234375,2.044921875-1.064453125l.98046875,1.1625976562c-.6728515625.8125-1.7373046875,1.4428710938-3.1103515625,1.4428710938-2.3388671875,0-3.8095703125-1.6669921875-3.8095703125-3.7680664062Zm1.8212890625-.8544921875h3.515625c-.09765625-.9384765625-.7421875-1.470703125-1.708984375-1.470703125-.9248046875,0-1.568359375.5180664062-1.806640625,1.470703125Z"/><path d="m50.296875,24.3984375h3.7548828125c2.0166015625,0,3.4033203125.9526367188,3.4033203125,2.9838867188s-1.38671875,2.9833984375-3.4033203125,2.9833984375h-1.93359375v3.5581054688h-1.8212890625v-9.525390625Zm3.5302734375,4.3706054688c1.0791015625,0,1.7509765625-.3642578125,1.7509765625-1.38671875s-.671875-1.38671875-1.7509765625-1.38671875h-1.708984375v2.7734375h1.708984375Z"/><path d="m63.7333984375,33.0971679688c-.5322265625.6025390625-1.3173828125.9946289062-2.255859375.9946289062-2.0029296875,0-3.4736328125-1.4848632812-3.4736328125-3.7680664062s1.470703125-3.7817382812,3.4736328125-3.7817382812c.9384765625,0,1.7236328125.40625,2.255859375,1.0083007812v-.8403320312h1.7783203125v7.2138671875h-1.7783203125v-.8266601562Zm0-1.6665039062v-2.2133789062c-.322265625-.6865234375-1.0654296875-1.0927734375-1.86328125-1.0927734375-1.1630859375,0-2.0595703125.798828125-2.0595703125,2.19921875,0,1.38671875.896484375,2.185546875,2.0595703125,2.185546875.7978515625,0,1.541015625-.40625,1.86328125-1.0786132812Z"/><path d="m67.1142578125,26.7099609375h1.7783203125v1.1206054688c.4208984375-.7705078125,1.12109375-1.2885742188,2.0732421875-1.2885742188h.2099609375v1.6948242188c-1.064453125.0141601562-1.9326171875.322265625-2.283203125,1.4008789062v4.2861328125h-1.7783203125v-7.2138671875Z"/><path d="m71.6201171875,30.337890625c0-2.2553710938,1.5263671875-3.7958984375,3.6279296875-3.7958984375s3.4736328125,1.4565429688,3.4736328125,3.5297851562c0,.23828125-.0419921875.57421875-.083984375.8686523438h-5.224609375c.181640625.9663085938.8544921875,1.6245117188,2.1015625,1.6245117188.8818359375,0,1.6240234375-.490234375,2.044921875-1.064453125l.98046875,1.1625976562c-.6728515625.8125-1.7373046875,1.4428710938-3.109375,1.4428710938-2.33984375,0-3.810546875-1.6669921875-3.810546875-3.7680664062Zm1.8212890625-.8544921875h3.515625c-.09765625-.9384765625-.7421875-1.470703125-1.708984375-1.470703125-.9248046875,0-1.568359375.5180664062-1.806640625,1.470703125Z"/><path d="m79.9208984375,26.7099609375h1.7783203125v1.0083007812c.392578125-.6440429688,1.1630859375-1.1762695312,2.283203125-1.1762695312,1.876953125,0,2.74609375,1.2885742188,2.74609375,3.1376953125v4.244140625h-1.779296875v-4.0483398438c0-1.1484375-.5458984375-1.7509765625-1.5966796875-1.7509765625-.8828125,0-1.470703125.6025390625-1.6533203125,1.2607421875v4.5385742188h-1.7783203125v-7.2138671875Z"/><path d="m88.646484375,31.1645507813v-3.0258789062h-1.205078125v-1.4287109375h1.2607421875v-1.8349609375h1.72265625v1.8349609375h1.6669921875v1.4287109375h-1.6669921875v3.1098632812c0,.9243164062.4345703125,1.2465820312,1.3310546875,1.2465820312h.3359375v1.4287109375c-.23828125.0561523438-.5322265625.083984375-.7978515625.083984375-1.7509765625,0-2.6474609375-.8681640625-2.6474609375-2.8432617188Z"/><path d="m.5693359375,62.5400390625h6.880859375v4.2407226562h1.541015625v-5.5610351562h2.419921875v16.4833984375h-2.419921875v-8.7216796875h-1.541015625v4.4208984375H1.548828125c-.6201171875,0-.9794921875-.240234375-.9794921875-.8203125v-10.0419921875Zm2.400390625,2.1606445312v6.541015625h2.1201171875v-6.541015625h-2.1201171875Zm9.662109375-3.78125h2.4404296875v17.2836914062h-2.4404296875v-17.2836914062Z"/><path d="m16.8759765625,69.44140625h6.6416015625v-1.8403320312h2.560546875v1.8403320312h6.6416015625v2.0805664062h-15.84375v-2.0805664062Zm2.3212890625-7.8818359375h11.2216796875v2.1005859375h-4.16015625c.51953125,1.5405273438,2.3798828125,2.220703125,4.8603515625,2.5205078125l-.5595703125,2.0805664062c-2.5009765625-.240234375-4.94140625-1.0200195312-5.76171875-2.640625-.83984375,1.6206054688-3.220703125,2.400390625-5.7412109375,2.640625l-.5595703125-2.060546875c2.4599609375-.2998046875,4.3203125-1,4.8408203125-2.5405273438h-4.140625v-2.1005859375Zm5.6005859375,10.90234375c3.4609375,0,5.541015625,1.2407226562,5.541015625,3.3208007812,0,2.1005859375-2.080078125,3.3408203125-5.541015625,3.3408203125s-5.541015625-1.240234375-5.541015625-3.3408203125c0-2.080078125,2.080078125-3.3208007812,5.541015625-3.3208007812Zm0,4.6010742188c1.900390625,0,2.98046875-.3999023438,2.98046875-1.2802734375,0-.8798828125-1.080078125-1.2802734375-2.98046875-1.2802734375-1.919921875,0-2.98046875.400390625-2.98046875,1.2802734375,0,.8803710938,1.060546875,1.2802734375,2.98046875,1.2802734375Z"/><path d="m39.99609375,65.6005859375h2.5400390625v3.5810546875c0,.919921875,0,1.8803710938.1201171875,2.4404296875h1.6806640625c.080078125-.5600585938.099609375-1.5205078125.099609375-2.4404296875v-3.5810546875h2.541015625v3.1005859375c0,1.2202148438-.240234375,2.3608398438-.580078125,2.9208984375,1.2802734375-.0400390625,2.3798828125-.1801757812,3.2607421875-.6000976562v-10.1025390625h2.560546875v5.9213867188h2.3603515625v2.220703125h-2.3603515625v9.1416015625h-2.560546875v-5.380859375c-1.240234375.7602539062-2.9609375.9599609375-4.78125.9799804688h-6.26171875v-2.1801757812h1.98046875c-.359375-.5600585938-.599609375-1.7006835938-.599609375-2.9208984375v-3.1005859375Zm-1.080078125-3.0805664062h9.1416015625v2.2006835938h-9.1416015625v-2.2006835938Z"/><path d="m55.919921875,61.7797851563h6.5810546875v5.3212890625h-4.140625v1.3203125h2.400390625c1.2197265625,0,2.30078125-.16015625,3.2001953125-.66015625v-6.6416015625h2.4013671875v3.9008789062h1.6201171875v-4.1010742188h2.4404296875v10.3823242188h-2.4404296875v-4.1606445312h-1.6201171875v3.6806640625h-2.4013671875v-1.400390625c-1.0595703125.740234375-2.400390625,1.080078125-4.16015625,1.080078125h-2.9013671875c-.6201171875,0-.9794921875-.2397460938-.9794921875-.8198242188v-4.5810546875h4.1806640625v-1.2202148438h-4.1806640625v-2.1005859375Zm8.8818359375,9.9223632812c3.5205078125,0,5.5810546875,1.3798828125,5.5810546875,3.5405273438s-2.060546875,3.541015625-5.5810546875,3.541015625c-3.521484375,0-5.5810546875-1.3803710938-5.5810546875-3.541015625s2.0595703125-3.5405273438,5.5810546875-3.5405273438Zm0,4.9208984375c1.900390625,0,3.0205078125-.4799804688,3.0205078125-1.3803710938s-1.1201171875-1.3803710938-3.0205078125-1.3803710938-3.0205078125.4799804688-3.0205078125,1.3803710938,1.1201171875,1.3803710938,3.0205078125,1.3803710938Z"/><path d="m1.3291015625,86.0400390625h2.560546875v5.4008789062h6.3818359375v2.2006835938h-3.220703125v2.7807617188h1.2001953125c1.48046875,0,2.8603515625-.1000976562,3.900390625-.560546875v-10.9423828125h2.560546875v17.2836914062h-2.560546875v-4.5004882812c-1.33984375.7797851562-3.2001953125.9599609375-5.140625.9599609375H.3291015625v-2.240234375h4.1611328125v-2.7807617188h-2.1806640625c-.6201171875,0-.98046875-.2602539062-.98046875-.8203125v-6.78125Z"/><path d="m26.232421875,92.1010742188c0,2.9409179688-1.1806640625,5.8012695312-4.62109375,5.8012695312-3.4609375,0-4.6611328125-2.8603515625-4.6611328125-5.8012695312,0-2.9404296875,1.2001953125-5.8012695312,4.6611328125-5.8012695312,3.4404296875,0,4.62109375,2.8608398438,4.62109375,5.8012695312Zm-6.7216796875,0c0,1.6206054688.4599609375,3.62109375,2.1005859375,3.62109375s2.080078125-2.0004882812,2.080078125-3.62109375c0-1.6201171875-.439453125-3.6206054688-2.080078125-3.6206054688s-2.1005859375,2.0004882812-2.1005859375,3.6206054688Zm8.7421875-7.181640625h2.560546875v17.2836914062h-2.560546875v-17.2836914062Z"/><path d="m32.93359375,94.6215820313h7.921875c1.48046875,0,2.8603515625-.1201171875,3.900390625-.580078125v-9.1220703125h2.560546875v17.2836914062h-2.560546875v-6.3413085938c-1.2998046875.7602539062-3.080078125.9604492188-4.9609375.98046875v5.0610351562h-2.560546875v-5.0610351562h-4.30078125v-2.220703125Zm4.1611328125-8.9018554688h2.6005859375v.9604492188c0,2.060546875,1.4599609375,3.560546875,3.9208984375,4.2407226562l-.9609375,2.0805664062c-1.9599609375-.4599609375-3.720703125-1.8203125-4.1806640625-3.1005859375-.4599609375,1.3603515625-2.140625,2.8002929688-4.3408203125,3.3803710938l-.98046875-2.1201171875c2.48046875-.7802734375,3.94140625-2.4008789062,3.94140625-4.4208984375v-1.0205078125Z"/><path d="m49.2978515625,98.0825195313h15.84375v2.2202148438h-15.84375v-2.2202148438Zm2.28125-11.8627929688h11.2822265625v5.7211914062h-8.7421875v1.6206054688h9.0224609375v2.1206054688h-10.6025390625c-.6005859375,0-.9599609375-.2602539062-.9599609375-.8203125v-4.9409179688h8.7412109375v-1.5805664062h-8.7412109375v-2.1206054688Z"/><path d="m68.392578125,85.7397460938h2.5v1.48046875c0,2.6806640625.66015625,4.541015625,3.1806640625,5.8413085938l-1.2998046875,1.9604492188c-1.419921875-.66015625-2.740234375-2.2006835938-3.041015625-3.3608398438-.2998046875,1.2802734375-1.6201171875,2.9204101562-3.220703125,3.7407226562l-1.2802734375-1.9604492188c2.400390625-1.4204101562,3.1611328125-3.4604492188,3.1611328125-6.1010742188v-1.6005859375Zm.8798828125,10.4624023438h2.560546875v3.9208984375h9.08203125v2.1801757812h-10.6826171875c-.599609375,0-.9599609375-.259765625-.9599609375-.8198242188v-5.28125Zm5.181640625-11.0825195312h2.419921875v11.8227539062h-2.419921875v-6.6616210938h-2.12109375v-2.1606445312h2.12109375v-3.0004882812Zm3.6806640625-.2001953125h2.4404296875v12.3227539062h-2.4404296875v-12.3227539062Z"/><path d="m84.4638671875,100.8432617188h-1.400390625v-3.0610351562h3.080078125v2.7006835938l-1.3798828125,3.3208007812h-1.5l1.2001953125-2.9604492188Z"/><path d="m92.1630859375,98.0024414063h15.86328125v2.1806640625h-15.86328125v-2.1806640625Zm3.8408203125-8.6616210938h2.580078125v2.1401367188c0,.5.0400390625,1.1401367188.1005859375,1.5805664062h2.80078125c.080078125-.4404296875.1201171875-1.0805664062.1201171875-1.5805664062v-2.1401367188h2.580078125v1.580078125c0,.7802734375-.1396484375,1.6206054688-.48046875,2.140625h2.4609375v2.1801757812h-12.142578125v-2.1801757812h2.4609375c-.30078125-.4604492188-.48046875-1.2001953125-.48046875-2.0004882812v-1.7202148438Zm-1.7802734375-3.0209960938h11.7421875v2.2006835938h-11.7421875v-2.2006835938Z"/><path d="m108.888671875,85.7797851563h8.28125v5.3012695312h-5.720703125v1.3203125h4.220703125c1.48046875,0,2.8408203125-.2001953125,3.8408203125-.7202148438v-6.76171875h2.560546875v3.9208984375h2.3408203125v2.220703125h-2.3408203125v4.1606445312h-2.560546875v-1.900390625c-1.259765625.8203125-3.060546875,1.140625-5.060546875,1.140625h-4.5810546875c-.6201171875,0-.98046875-.240234375-.98046875-.8203125v-4.541015625h5.7607421875v-1.240234375h-5.7607421875v-2.0805664062Zm7.8818359375,9.8422851562c3.5205078125,0,5.48046875,1.4399414062,5.48046875,3.6005859375,0,2.140625-1.9599609375,3.5610351562-5.48046875,3.5610351562s-5.4814453125-1.4204101562-5.4814453125-3.5610351562c0-2.1606445312,1.9609375-3.6005859375,5.4814453125-3.6005859375Zm0,5.0009765625c1.900390625,0,2.919921875-.5,2.919921875-1.400390625,0-.919921875-1.01953125-1.4404296875-2.919921875-1.4404296875s-2.9208984375.5205078125-2.9208984375,1.4404296875c0,.900390625,1.0205078125,1.400390625,2.9208984375,1.400390625Z"/><path d="m124.470703125,97.8823242188h15.84375v2.220703125h-15.84375v-2.220703125Zm6.6220703125-11.9223632812h2.6005859375v1.2202148438c0,3.5405273438,2.560546875,5.1411132812,5.5009765625,6.0810546875l-.9599609375,2.0805664062c-2.48046875-.6201171875-5.041015625-2.3203125-5.841796875-4.2607421875-.759765625,1.9404296875-3.3203125,3.6806640625-5.8212890625,4.3408203125l-.9599609375-2.0805664062c2.900390625-.919921875,5.4814453125-2.6206054688,5.4814453125-6.1411132812v-1.240234375Z"/><path d="m143.767578125,100.8432617188h-1.400390625v-3.0610351562h3.080078125v2.7006835938l-1.3798828125,3.3208007812h-1.5l1.2001953125-2.9604492188Z"/><path d="m154.2275390625,89.2407226563l-2.48046875,1.3603515625-.9404296875-1.98046875,4.060546875-2.2807617188h1.900390625v13.6030273438h-2.5400390625v-10.7021484375Z"/><path d="m169.953125,92.8012695313c0,4.6411132812-2.4208984375,7.421875-6.2412109375,7.421875-2.1806640625,0-3.7607421875-1.060546875-4.62109375-2.3408203125l1.740234375-1.5600585938c.580078125.8999023438,1.6201171875,1.5400390625,2.880859375,1.5400390625,1.900390625,0,3.3203125-1.2802734375,3.580078125-3.7407226562-.8193359375.900390625-1.9599609375,1.5405273438-3.5205078125,1.5405273438-2.560546875,0-4.7607421875-1.8803710938-4.7607421875-4.7412109375,0-2.8603515625,2.380859375-4.8608398438,5.28125-4.8608398438,3.720703125,0,5.6611328125,2.8403320312,5.6611328125,6.7412109375Zm-8.322265625-1.9404296875c0,1.3403320312,1.0009765625,2.4604492188,2.6611328125,2.4604492188,1.6396484375,0,2.640625-1.1201171875,2.640625-2.4604492188,0-1.3203125-1.0009765625-2.4404296875-2.640625-2.4404296875-1.66015625,0-2.6611328125,1.1201171875-2.6611328125,2.4404296875Z"/><path d="m172.0107421875,99.8828125l5.4013671875-11.2622070312h-6.701171875v-2.2807617188h9.6220703125v1.8403320312l-5.4609375,11.7626953125h-2.861328125v-.0600585938Z"/><path d="m180.896484375,97.9423828125l1.48046875-1.7602539062c.6796875.8002929688,1.759765625,1.6801757812,3.4404296875,1.6801757812s2.900390625-.7202148438,2.900390625-2.0205078125c0-1.1801757812-.9404296875-1.8403320312-2.8603515625-1.8403320312h-1.3408203125v-2.240234375h1.3408203125c1.48046875,0,2.140625-.8002929688,2.140625-1.7006835938,0-1.080078125-.9404296875-1.6401367188-2.0810546875-1.6401367188-1.4599609375,0-2.3203125.6401367188-2.83984375,1.3803710938l-1.5205078125-1.6005859375c.8798828125-1.1401367188,2.419921875-2.1401367188,4.3603515625-2.1401367188,2.9208984375,0,4.681640625,1.419921875,4.681640625,3.8208007812,0,1.1000976562-.66015625,2.16015625-1.740234375,2.8002929688,1.580078125.5205078125,2.4599609375,1.7807617188,2.4599609375,3.380859375,0,2.560546875-2.419921875,4.1611328125-5.5009765625,4.1611328125-2.4208984375,0-4.041015625-1.2802734375-4.9208984375-2.2807617188Z"/><path d="m193.162109375,92.861328125h5.841796875v2.0405273438h-5.841796875v-2.0405273438Z"/><path d="m202.57421875,89.2407226563l-2.48046875,1.3603515625-.9404296875-1.98046875,4.060546875-2.2807617188h1.900390625v13.6030273438h-2.5400390625v-10.7021484375Z"/><path d="m218.30078125,92.8012695313c0,4.6411132812-2.4208984375,7.421875-6.2412109375,7.421875-2.1806640625,0-3.7607421875-1.060546875-4.62109375-2.3408203125l1.740234375-1.5600585938c.580078125.8999023438,1.6201171875,1.5400390625,2.880859375,1.5400390625,1.900390625,0,3.3203125-1.2802734375,3.580078125-3.7407226562-.8193359375.900390625-1.9599609375,1.5405273438-3.5205078125,1.5405273438-2.560546875,0-4.7607421875-1.8803710938-4.7607421875-4.7412109375,0-2.8603515625,2.380859375-4.8608398438,5.28125-4.8608398438,3.720703125,0,5.6611328125,2.8403320312,5.6611328125,6.7412109375Zm-8.322265625-1.9404296875c0,1.3403320312,1.0009765625,2.4604492188,2.6611328125,2.4604492188,1.6396484375,0,2.640625-1.1201171875,2.640625-2.4604492188,0-1.3203125-1.0009765625-2.4404296875-2.640625-2.4404296875-1.66015625,0-2.6611328125,1.1201171875-2.6611328125,2.4404296875Z"/><path d="m220.357421875,99.8828125l5.4013671875-11.2622070312h-6.701171875v-2.2807617188h9.6220703125v1.8403320312l-5.4619140625,11.7626953125h-2.8603515625v-.0600585938Z"/><path d="m228.1416015625,94.681640625l6.2412109375-8.341796875h3.30078125v7.9418945312h2.2607421875v2.2602539062h-2.2607421875v3.4008789062h-2.5205078125v-3.4008789062h-7.021484375v-1.8603515625Zm7.021484375-.3999023438v-5.28125l-3.8603515625,5.28125h3.8603515625Z"/><path d="m.5458984375,109.3178710938h2.4375l2.830078125,7.1860351562,2.8427734375-7.1860351562h2.4375v9.525390625h-1.8203125v-6.7377929688l-2.6337890625,6.7377929688h-1.638671875l-2.6337890625-6.7377929688v6.7377929688H.5458984375v-9.525390625Z"/><path d="m18.2431640625,118.0166015625c-.5322265625.6025390625-1.3173828125.9946289062-2.255859375.9946289062-2.0029296875,0-3.4736328125-1.4848632812-3.4736328125-3.7680664062s1.470703125-3.7817382812,3.4736328125-3.7817382812c.9384765625,0,1.7236328125.40625,2.255859375,1.0083007812v-.8403320312h1.7783203125v7.2138671875h-1.7783203125v-.8266601562Zm0-1.6665039062v-2.2133789062c-.322265625-.6865234375-1.0654296875-1.0927734375-1.86328125-1.0927734375-1.1630859375,0-2.0595703125.798828125-2.0595703125,2.19921875,0,1.38671875.896484375,2.185546875,2.0595703125,2.185546875.7978515625,0,1.541015625-.40625,1.86328125-1.0786132812Z"/><path d="m21.59765625,108.5615234375h1.8212890625v1.8491210938h-1.8212890625v-1.8491210938Zm.0283203125,3.0678710938h1.7783203125v7.2138671875h-1.7783203125v-7.2138671875Z"/><path d="m24.3466796875,117.6245117188l.966796875-1.1206054688c.4765625.5883789062,1.2890625,1.0786132812,2.1435546875,1.0786132812.7705078125,0,1.31640625-.3081054688,1.31640625-.8403320312,0-.4760742188-.4345703125-.6723632812-1.1201171875-.7846679688l-.64453125-.09765625c-1.3447265625-.2241210938-2.1572265625-.966796875-2.1572265625-2.1435546875,0-1.2465820312,1.064453125-2.2548828125,2.87109375-2.2548828125,1.134765625,0,2.0029296875.4760742188,2.5361328125,1.0922851562l-.9384765625,1.134765625c-.462890625-.490234375-1.0087890625-.7705078125-1.6669921875-.7705078125-.6728515625,0-1.0224609375.3081054688-1.0224609375.7006835938,0,.3637695312.279296875.5600585938.7978515625.6440429688l.64453125.0981445312c1.65234375.251953125,2.4794921875,1.0224609375,2.4794921875,2.283203125,0,1.302734375-1.134765625,2.3955078125-3.166015625,2.3955078125-1.3447265625,0-2.380859375-.6303710938-3.0400390625-1.4150390625Z"/><path d="m31.26953125,115.2431640625c0-1.9750976562,1.31640625-3.7817382812,3.8232421875-3.7817382812,2.5078125,0,3.82421875,1.806640625,3.82421875,3.7817382812,0,1.9892578125-1.31640625,3.7963867188-3.82421875,3.7963867188-2.5068359375,0-3.8232421875-1.8071289062-3.8232421875-3.7963867188Zm1.806640625,0c0,1.3447265625.8544921875,2.2133789062,2.0166015625,2.2133789062,1.1630859375,0,2.017578125-.8686523438,2.017578125-2.2133789062,0-1.3305664062-.8544921875-2.19921875-2.017578125-2.19921875-1.162109375,0-2.0166015625.8686523438-2.0166015625,2.19921875Z"/><path d="m40.1064453125,111.6293945313h1.7783203125v1.0083007812c.392578125-.6440429688,1.1630859375-1.1762695312,2.283203125-1.1762695312,1.876953125,0,2.74609375,1.2885742188,2.74609375,3.1376953125v4.244140625h-1.779296875v-4.0483398438c0-1.1484375-.5458984375-1.7509765625-1.5966796875-1.7509765625-.8828125,0-1.470703125.6025390625-1.6533203125,1.2607421875v4.5385742188h-1.7783203125v-7.2138671875Z"/><path d="m51.5703125,109.3178710938h3.7548828125c2.0166015625,0,3.4033203125.9526367188,3.4033203125,2.9838867188s-1.38671875,2.9833984375-3.4033203125,2.9833984375h-1.93359375v3.5581054688h-1.8212890625v-9.525390625Zm3.5302734375,4.3706054688c1.0791015625,0,1.7509765625-.3642578125,1.7509765625-1.38671875s-.671875-1.38671875-1.7509765625-1.38671875h-1.708984375v2.7734375h1.708984375Z"/><path d="m65.0078125,118.0166015625c-.5322265625.6025390625-1.3173828125.9946289062-2.255859375.9946289062-2.0029296875,0-3.4736328125-1.4848632812-3.4736328125-3.7680664062s1.470703125-3.7817382812,3.4736328125-3.7817382812c.9384765625,0,1.7236328125.40625,2.255859375,1.0083007812v-.8403320312h1.7783203125v7.2138671875h-1.7783203125v-.8266601562Zm0-1.6665039062v-2.2133789062c-.322265625-.6865234375-1.0654296875-1.0927734375-1.86328125-1.0927734375-1.1630859375,0-2.0595703125.798828125-2.0595703125,2.19921875,0,1.38671875.896484375,2.185546875,2.0595703125,2.185546875.7978515625,0,1.541015625-.40625,1.86328125-1.0786132812Z"/><path d="m68.3876953125,111.6293945313h1.7783203125v1.1206054688c.4208984375-.7705078125,1.12109375-1.2885742188,2.0732421875-1.2885742188h.2099609375v1.6948242188c-1.064453125.0141601562-1.9326171875.322265625-2.283203125,1.4008789062v4.2861328125h-1.7783203125v-7.2138671875Z"/><path d="m72.8935546875,115.2573242188c0-2.2553710938,1.5263671875-3.7958984375,3.6279296875-3.7958984375s3.4736328125,1.4565429688,3.4736328125,3.5297851562c0,.23828125-.0419921875.57421875-.083984375.8686523438h-5.224609375c.181640625.9663085938.8544921875,1.6245117188,2.1015625,1.6245117188.8818359375,0,1.6240234375-.490234375,2.044921875-1.064453125l.98046875,1.1625976562c-.6728515625.8125-1.7373046875,1.4428710938-3.109375,1.4428710938-2.33984375,0-3.810546875-1.6669921875-3.810546875-3.7680664062Zm1.8212890625-.8544921875h3.515625c-.09765625-.9384765625-.7421875-1.470703125-1.708984375-1.470703125-.9248046875,0-1.568359375.5180664062-1.806640625,1.470703125Z"/><path d="m81.1943359375,111.6293945313h1.7783203125v1.0083007812c.392578125-.6440429688,1.1630859375-1.1762695312,2.283203125-1.1762695312,1.876953125,0,2.74609375,1.2885742188,2.74609375,3.1376953125v4.244140625h-1.779296875v-4.0483398438c0-1.1484375-.5458984375-1.7509765625-1.5966796875-1.7509765625-.8828125,0-1.470703125.6025390625-1.6533203125,1.2607421875v4.5385742188h-1.7783203125v-7.2138671875Z"/><path d="m89.9208984375,116.083984375v-3.0258789062h-1.205078125v-1.4287109375h1.2607421875v-1.8349609375h1.72265625v1.8349609375h1.6669921875v1.4287109375h-1.6669921875v3.1098632812c0,.9243164062.4345703125,1.2465820312,1.3310546875,1.2465820312h.3359375v1.4287109375c-.23828125.0561523438-.5322265625.083984375-.7978515625.083984375-1.7509765625,0-2.6474609375-.8681640625-2.6474609375-2.8432617188Z"/><path d="m.5458984375,126.1176757813h1.59765625l5.1826171875,6.5v-6.5h1.8212890625v9.525390625h-1.5830078125l-5.197265625-6.4995117188v6.4995117188H.5458984375v-9.525390625Z"/><path d="m10.5361328125,132.0571289063c0-2.2553710938,1.5263671875-3.7958984375,3.6279296875-3.7958984375s3.4736328125,1.4565429688,3.4736328125,3.5297851562c0,.23828125-.0419921875.57421875-.083984375.8686523438h-5.224609375c.181640625.9663085938.8544921875,1.6245117188,2.1015625,1.6245117188.8818359375,0,1.6240234375-.490234375,2.044921875-1.064453125l.98046875,1.1625976562c-.6728515625.8125-1.7373046875,1.4428710938-3.109375,1.4428710938-2.33984375,0-3.810546875-1.6669921875-3.810546875-3.7680664062Zm1.8212890625-.8544921875h3.515625c-.09765625-.9384765625-.7421875-1.470703125-1.708984375-1.470703125-.9248046875,0-1.568359375.5180664062-1.806640625,1.470703125Z"/><path d="m25.5537109375,135.6430664063h-1.779296875v-1.0087890625c-.392578125.64453125-1.1630859375,1.1767578125-2.283203125,1.1767578125-1.876953125,0-2.7451171875-1.2885742188-2.7451171875-3.1376953125v-4.244140625h1.7783203125v4.0483398438c0,1.1484375.546875,1.7509765625,1.5966796875,1.7509765625.8828125,0,1.4716796875-.6025390625,1.6533203125-1.2607421875v-4.5385742188h1.779296875v7.2138671875Z"/><path d="m27.1162109375,125.361328125h1.8212890625v1.8491210938h-1.8212890625v-1.8491210938Zm.0283203125,3.0678710938h1.7783203125v7.2138671875h-1.7783203125v-7.2138671875Z"/><path d="m30.5068359375,125.6977539063h1.7783203125v9.9453125h-1.7783203125v-9.9453125Z"/><path d="m33.869140625,125.6977539063h1.7783203125v9.9453125h-1.7783203125v-9.9453125Z"/><path d="m39.3193359375,134.71875l-2.8857421875-6.2895507812h1.9052734375l1.9189453125,4.314453125,1.779296875-4.314453125h1.9189453125l-4.23046875,9.6372070312h-1.9189453125l1.5126953125-3.34765625Z"/><path d="m44.3427734375,130.6845703125h4.08984375v1.4287109375h-4.08984375v-1.4287109375Z"/><path d="m49.1220703125,134.4243164063l.966796875-1.1206054688c.4765625.5883789062,1.2890625,1.0786132812,2.1435546875,1.0786132812.7705078125,0,1.31640625-.3081054688,1.31640625-.8403320312,0-.4760742188-.4345703125-.6723632812-1.1201171875-.7846679688l-.64453125-.09765625c-1.3447265625-.2241210938-2.1572265625-.966796875-2.1572265625-2.1435546875,0-1.2465820312,1.064453125-2.2548828125,2.87109375-2.2548828125,1.134765625,0,2.0029296875.4760742188,2.5361328125,1.0922851562l-.9384765625,1.134765625c-.462890625-.490234375-1.0087890625-.7705078125-1.6669921875-.7705078125-.6728515625,0-1.0224609375.3081054688-1.0224609375.7006835938,0,.3637695312.279296875.5600585938.7978515625.6440429688l.64453125.0981445312c1.65234375.251953125,2.4794921875,1.0224609375,2.4794921875,2.283203125,0,1.302734375-1.134765625,2.3955078125-3.166015625,2.3955078125-1.3447265625,0-2.380859375-.6303710938-3.0400390625-1.4150390625Z"/><path d="m63.1494140625,135.6430664063h-1.779296875v-1.0087890625c-.392578125.64453125-1.1630859375,1.1767578125-2.283203125,1.1767578125-1.876953125,0-2.7451171875-1.2885742188-2.7451171875-3.1376953125v-4.244140625h1.7783203125v4.0483398438c0,1.1484375.546875,1.7509765625,1.5966796875,1.7509765625.8828125,0,1.4716796875-.6025390625,1.6533203125-1.2607421875v-4.5385742188h1.779296875v7.2138671875Z"/><path d="m64.7373046875,128.4291992188h1.7783203125v1.1206054688c.4208984375-.7705078125,1.12109375-1.2885742188,2.0732421875-1.2885742188h.2099609375v1.6948242188c-1.064453125.0141601562-1.9326171875.322265625-2.283203125,1.4008789062v4.2861328125h-1.7783203125v-7.2138671875Z"/><path d="m69.3623046875,130.6845703125h4.08984375v1.4287109375h-4.08984375v-1.4287109375Z"/><path d="m74.029296875,133.6821289063l1.19140625-1.1625976562c.5458984375.8544921875,1.470703125,1.6806640625,2.9130859375,1.6806640625,1.1767578125,0,1.79296875-.5883789062,1.79296875-1.3305664062,0-.6025390625-.419921875-1.064453125-1.541015625-1.2329101562l-.826171875-.1259765625c-1.6806640625-.251953125-2.8154296875-1.21875-2.8154296875-2.689453125,0-1.6108398438,1.31640625-2.8994140625,3.4462890625-2.8994140625,1.470703125,0,2.6748046875.6440429688,3.361328125,1.5405273438l-1.162109375,1.205078125c-.5888671875-.728515625-1.38671875-1.1069335938-2.2412109375-1.1069335938-.953125,0-1.513671875.5043945312-1.513671875,1.0786132812,0,.560546875.4208984375.966796875,1.2470703125,1.0927734375l.8125.1259765625c1.9609375.2939453125,3.109375,1.2749023438,3.109375,2.8857421875,0,1.8349609375-1.4990234375,3.095703125-3.697265625,3.095703125-2.19921875,0-3.404296875-1.134765625-4.0771484375-2.1572265625Z"/><path d="m82.626953125,132.0571289063c0-2.2553710938,1.5263671875-3.7958984375,3.6279296875-3.7958984375s3.4736328125,1.4565429688,3.4736328125,3.5297851562c0,.23828125-.0419921875.57421875-.083984375.8686523438h-5.224609375c.181640625.9663085938.8544921875,1.6245117188,2.1015625,1.6245117188.8818359375,0,1.6240234375-.490234375,2.044921875-1.064453125l.98046875,1.1625976562c-.6728515625.8125-1.7373046875,1.4428710938-3.1103515625,1.4428710938-2.3388671875,0-3.8095703125-1.6669921875-3.8095703125-3.7680664062Zm1.8212890625-.8544921875h3.515625c-.09765625-.9384765625-.7421875-1.470703125-1.708984375-1.470703125-.9248046875,0-1.568359375.5180664062-1.806640625,1.470703125Z"/><path d="m90.88671875,125.361328125h1.8212890625v1.8491210938h-1.8212890625v-1.8491210938Zm.0283203125,3.0678710938h1.7783203125v7.2138671875h-1.7783203125v-7.2138671875Z"/><path d="m94.2783203125,128.4291992188h1.7783203125v1.0083007812c.392578125-.6440429688,1.1630859375-1.1762695312,2.283203125-1.1762695312,1.876953125,0,2.74609375,1.2885742188,2.74609375,3.1376953125v4.244140625h-1.779296875v-4.0483398438c0-1.1484375-.5458984375-1.7509765625-1.5966796875-1.7509765625-.8828125,0-1.470703125.6025390625-1.6533203125,1.2607421875v4.5385742188h-1.7783203125v-7.2138671875Z"/><path d="m102.2060546875,132.0571289063c0-2.2553710938,1.5263671875-3.7958984375,3.6279296875-3.7958984375s3.4736328125,1.4565429688,3.4736328125,3.5297851562c0,.23828125-.0419921875.57421875-.083984375.8686523438h-5.224609375c.181640625.9663085938.8544921875,1.6245117188,2.1015625,1.6245117188.8818359375,0,1.6240234375-.490234375,2.044921875-1.064453125l.98046875,1.1625976562c-.6728515625.8125-1.7373046875,1.4428710938-3.109375,1.4428710938-2.33984375,0-3.810546875-1.6669921875-3.810546875-3.7680664062Zm1.8212890625-.8544921875h3.515625c-.09765625-.9384765625-.7421875-1.470703125-1.708984375-1.470703125-.9248046875,0-1.568359375.5180664062-1.806640625,1.470703125Z"/><path d="m111.359375,136.2734375h-.98046875v-2.1430664062h2.1572265625v1.8911132812l-.966796875,2.3251953125h-1.0498046875l.83984375-2.0732421875Z"/><path d="m117.029296875,126.1176757813h6.5556640625v1.5971679688h-4.734375v2.3813476562h4.2021484375v1.5966796875h-4.2021484375v3.9501953125h-1.8212890625v-9.525390625Z"/><path d="m124.3330078125,128.4291992188h1.7783203125v1.1206054688c.4208984375-.7705078125,1.12109375-1.2885742188,2.0732421875-1.2885742188h.2099609375v1.6948242188c-1.064453125.0141601562-1.9326171875.322265625-2.283203125,1.4008789062v4.2861328125h-1.7783203125v-7.2138671875Z"/><path d="m134.5830078125,134.81640625c-.5322265625.6025390625-1.3173828125.9946289062-2.255859375.9946289062-2.0029296875,0-3.4736328125-1.4848632812-3.4736328125-3.7680664062s1.470703125-3.7817382812,3.4736328125-3.7817382812c.9384765625,0,1.7236328125.40625,2.255859375,1.0083007812v-.8403320312h1.7783203125v7.2138671875h-1.7783203125v-.8266601562Zm0-1.6665039062v-2.2133789062c-.322265625-.6865234375-1.0654296875-1.0927734375-1.86328125-1.0927734375-1.1630859375,0-2.0595703125.798828125-2.0595703125,2.19921875,0,1.38671875.896484375,2.185546875,2.0595703125,2.185546875.7978515625,0,1.541015625-.40625,1.86328125-1.0786132812Z"/><path d="m137.962890625,128.4291992188h1.7783203125v1.0083007812c.392578125-.6440429688,1.1630859375-1.1762695312,2.283203125-1.1762695312,1.876953125,0,2.74609375,1.2885742188,2.74609375,3.1376953125v4.244140625h-1.779296875v-4.0483398438c0-1.1484375-.5458984375-1.7509765625-1.5966796875-1.7509765625-.8828125,0-1.470703125.6025390625-1.6533203125,1.2607421875v4.5385742188h-1.7783203125v-7.2138671875Z"/><path d="m145.88671875,132.04296875c0-1.9750976562,1.3583984375-3.7817382812,3.75390625-3.7817382812,1.45703125,0,2.5068359375.6723632812,3.2080078125,1.79296875l-1.2607421875.9663085938c-.392578125-.6865234375-.9951171875-1.1767578125-1.849609375-1.1767578125-1.232421875,0-2.044921875.8544921875-2.044921875,2.19921875,0,1.3310546875.8125,2.185546875,2.044921875,2.185546875.8544921875,0,1.45703125-.4907226562,1.849609375-1.1767578125l1.2607421875.9663085938c-.701171875,1.1206054688-1.7509765625,1.79296875-3.2080078125,1.79296875-2.3955078125,0-3.75390625-1.806640625-3.75390625-3.7680664062Z"/><path d="m153.388671875,132.0571289063c0-2.2553710938,1.5263671875-3.7958984375,3.6279296875-3.7958984375s3.4736328125,1.4565429688,3.4736328125,3.5297851562c0,.23828125-.0419921875.57421875-.083984375.8686523438h-5.224609375c.181640625.9663085938.8544921875,1.6245117188,2.1015625,1.6245117188.8818359375,0,1.6240234375-.490234375,2.044921875-1.064453125l.98046875,1.1625976562c-.6728515625.8125-1.7373046875,1.4428710938-3.1103515625,1.4428710938-2.3388671875,0-3.8095703125-1.6669921875-3.8095703125-3.7680664062Zm1.8212890625-.8544921875h3.515625c-.09765625-.9384765625-.7421875-1.470703125-1.708984375-1.470703125-.9248046875,0-1.568359375.5180664062-1.806640625,1.470703125Z"/><path d="m162.5419921875,136.2734375h-.98046875v-2.1430664062h2.1572265625v1.8911132812l-.966796875,2.3251953125h-1.0498046875l.83984375-2.0732421875Z"/><path d="m169.724609375,128.1489257813l-1.7373046875.9526367188-.658203125-1.38671875,2.84375-1.5971679688h1.330078125v9.525390625h-1.7783203125v-7.494140625Z"/><path d="m180.6865234375,130.642578125c0,3.2495117188-1.6943359375,5.1967773438-4.3701171875,5.1967773438-1.52734375,0-2.6337890625-.7426757812-3.236328125-1.6391601562l1.21875-1.0922851562c.40625.6298828125,1.134765625,1.078125,2.017578125,1.078125,1.3310546875,0,2.3251953125-.896484375,2.5068359375-2.619140625-.57421875.6303710938-1.3720703125,1.0786132812-2.46484375,1.0786132812-1.79296875,0-3.333984375-1.3168945312-3.333984375-3.3198242188s1.6669921875-3.4038085938,3.6982421875-3.4038085938c2.60546875,0,3.9638671875,1.9887695312,3.9638671875,4.720703125Zm-5.8271484375-1.3588867188c0,.9384765625.7001953125,1.72265625,1.86328125,1.72265625,1.1484375,0,1.8486328125-.7841796875,1.8486328125-1.72265625,0-.9248046875-.7001953125-1.708984375-1.8486328125-1.708984375-1.1630859375,0-1.86328125.7841796875-1.86328125,1.708984375Z"/><path d="m182.078125,135.6010742188l3.7822265625-7.8862304688h-4.693359375v-1.5971679688h6.73828125v1.2890625l-3.82421875,8.236328125h-2.0029296875v-.0419921875Z"/><path d="m188.2470703125,134.2421875l1.0361328125-1.232421875c.4765625.5600585938,1.2333984375,1.1762695312,2.4091796875,1.1762695312,1.1767578125,0,2.03125-.50390625,2.03125-1.4145507812,0-.8266601562-.658203125-1.2885742188-2.0029296875-1.2885742188h-.9384765625v-1.5688476562h.9384765625c1.0361328125,0,1.4990234375-.560546875,1.4990234375-1.1909179688,0-.7563476562-.658203125-1.1484375-1.45703125-1.1484375-1.0224609375,0-1.625.4482421875-1.9892578125.9663085938l-1.064453125-1.1206054688c.6162109375-.7983398438,1.6953125-1.4985351562,3.0537109375-1.4985351562,2.044921875,0,3.2783203125.9946289062,3.2783203125,2.6752929688,0,.7705078125-.462890625,1.5126953125-1.21875,1.9609375,1.1064453125.3642578125,1.72265625,1.2470703125,1.72265625,2.3676757812,0,1.79296875-1.6953125,2.9135742188-3.8525390625,2.9135742188-1.6943359375,0-2.8291015625-.896484375-3.4453125-1.5971679688Z"/><path d="m196.783203125,130.6845703125h4.08984375v1.4287109375h-4.08984375v-1.4287109375Z"/><path d="m203.330078125,128.1489257813l-1.7373046875.9526367188-.658203125-1.38671875,2.84375-1.5971679688h1.330078125v9.525390625h-1.7783203125v-7.494140625Z"/><path d="m214.2919921875,130.642578125c0,3.2495117188-1.6943359375,5.1967773438-4.3701171875,5.1967773438-1.52734375,0-2.6337890625-.7426757812-3.236328125-1.6391601562l1.21875-1.0922851562c.40625.6298828125,1.134765625,1.078125,2.017578125,1.078125,1.3310546875,0,2.3251953125-.896484375,2.5068359375-2.619140625-.57421875.6303710938-1.3720703125,1.0786132812-2.46484375,1.0786132812-1.79296875,0-3.333984375-1.3168945312-3.333984375-3.3198242188s1.6669921875-3.4038085938,3.6982421875-3.4038085938c2.60546875,0,3.9638671875,1.9887695312,3.9638671875,4.720703125Zm-5.8271484375-1.3588867188c0,.9384765625.7001953125,1.72265625,1.86328125,1.72265625,1.1484375,0,1.8486328125-.7841796875,1.8486328125-1.72265625,0-.9248046875-.7001953125-1.708984375-1.8486328125-1.708984375-1.1630859375,0-1.86328125.7841796875-1.86328125,1.708984375Z"/><path d="m215.68359375,135.6010742188l3.7822265625-7.8862304688h-4.693359375v-1.5971679688h6.73828125v1.2890625l-3.82421875,8.236328125h-2.0029296875v-.0419921875Z"/><path d="m221.0908203125,131.958984375l4.3701171875-5.8413085938h2.3115234375v5.5610351562h1.5830078125v1.5830078125h-1.5830078125v2.3813476562h-1.7646484375v-2.3813476562h-4.9169921875v-1.302734375Zm4.9169921875-.2802734375v-3.6977539062l-2.7041015625,3.6977539062h2.7041015625Z"/><rect class="cls-1" width="318.1005859375" height="138.3466796875"/></g></svg>