<?xml version="1.0" encoding="UTF-8"?><svg id="_레이어_2" xmlns="http://www.w3.org/2000/svg" viewBox="0 0 318.1005859375 138.3466796875"><defs><style>.cls-1{fill:none;}</style></defs><g id="Layer_1"><path d="m8.72265625.2001953125h2.419921875v8.4418945312h-2.419921875v-3.0805664062h-1.240234375c-.3408203125,1.8603515625-1.6806640625,2.9204101562-3.6611328125,2.9204101562C1.5009765625,8.4819335938,0,7.0615234375,0,4.5610351562S1.5009765625.6201171875,3.8212890625.6201171875c1.9599609375,0,3.30078125,1.0405273438,3.6611328125,2.8608398438h1.240234375V.2001953125ZM2.380859375,4.5610351562c0,1.1801757812.5205078125,1.900390625,1.4404296875,1.900390625.900390625,0,1.419921875-.7202148438,1.419921875-1.900390625,0-1.2001953125-.51953125-1.9204101562-1.419921875-1.9204101562-.919921875,0-1.4404296875.7202148438-1.4404296875,1.9204101562Zm1.240234375,5.0209960938h11.1826171875v4.9013671875H6.162109375v1.1000976562h9.08203125v2.0004882812H4.5810546875c-.599609375,0-.9599609375-.2602539062-.9599609375-.8203125v-4.1806640625h8.6416015625v-1.0405273438H3.62109375v-1.9604492188ZM12.36328125,0h2.4404296875v8.7421875h-2.4404296875V0Z"/><path d="m17.3798828125,1.5405273438h8.28125v6.7216796875h-5.720703125v2.5405273438h4.5009765625c1.48046875,0,2.8408203125-.2001953125,3.8408203125-.7202148438V0h2.560546875v17.2836914062h-2.560546875v-5.4409179688c-1.2607421875.8203125-3.060546875,1.1401367188-5.0615234375,1.1401367188h-4.861328125c-.6201171875,0-.9794921875-.2397460938-.9794921875-.8203125v-6.0009765625h5.7607421875v-2.4404296875h-5.7607421875V1.5405273438Z"/><path d="m0,24.3984375h6.6962890625v1.5971679688H1.8212890625v2.3251953125h4.2021484375v1.5830078125H1.8212890625v2.4233398438h4.875v1.5966796875H0v-9.525390625Z"/><path d="m8.044921875,23.978515625h1.7783203125v9.9453125h-1.7783203125v-9.9453125Z"/><path d="m11.37890625,23.6420898438h1.8212890625v1.8491210938h-1.8212890625v-1.8491210938Zm.0283203125,3.0678710938h1.7783203125v7.2138671875h-1.7783203125v-7.2138671875Z"/><path d="m14.7412109375,23.6420898438h1.8212890625v1.8491210938h-1.8212890625v-1.8491210938Zm.0283203125,3.0678710938h1.7783203125v7.2138671875h-1.7783203125v-7.2138671875Z"/><path d="m0,73.9223632812h3.6015625v-2.560546875h2.5400390625v2.560546875h3.560546875v-2.560546875h2.5205078125v2.560546875h3.62109375v2.220703125H0v-2.220703125Zm7.921875-12.1225585938c3.541015625,0,5.861328125,1.7602539062,5.861328125,4.5810546875s-2.3203125,4.5209960938-5.861328125,4.5209960938c-3.5400390625,0-5.861328125-1.7001953125-5.861328125-4.5209960938s2.3212890625-4.5810546875,5.861328125-4.5810546875Zm0,6.9614257812c1.9609375,0,3.30078125-.8999023438,3.30078125-2.3803710938s-1.33984375-2.400390625-3.30078125-2.400390625c-1.9599609375,0-3.30078125.919921875-3.30078125,2.400390625s1.3408203125,2.3803710938,3.30078125,2.3803710938Z"/><path d="m17.490234375,62.4399414062h8.9013671875v2.2006835938h-3.16015625c0,3.4204101562.83984375,5.6611328125,3.880859375,7.5014648438l-1.3603515625,1.9404296875c-1.8603515625-1.0400390625-3.201171875-2.7407226562-3.720703125-4.2407226562-.5205078125,1.66015625-1.9404296875,3.4204101562-3.9013671875,4.560546875l-1.3603515625-1.9404296875c3.0810546875-1.8803710938,3.880859375-4.3408203125,3.880859375-7.8212890625h-3.16015625v-2.2006835938Zm11.1220703125-1.5205078125h2.560546875v17.2836914062h-2.560546875v-17.2836914062Z"/><path d="m33.787109375,61.9799804688h6.701171875v1.5c0,.8002929688-.099609375,1.5405273438-.2998046875,2.220703125h1.83984375v-4.5810546875h2.4208984375v11.7026367188h-2.4208984375v-4.9609375h-2.8203125c-1.080078125,1.6000976562-2.8203125,2.8002929688-5.0615234375,3.6005859375l-1.080078125-2.0405273438c3.041015625-1,4.9609375-3.2006835938,4.9609375-5.28125h-4.240234375v-2.16015625Zm3.2001953125,10.0219726562h2.560546875v4.12109375h9.08203125v2.1801757812h-10.6826171875c-.599609375,0-.9599609375-.259765625-.9599609375-.8198242188v-5.4814453125Zm8.8623046875-11.0825195312h2.4404296875v12.2026367188h-2.4404296875v-12.2026367188Z"/><path d="m58.7265625,65.3408203125h2.6005859375v2.080078125c0,.5004882812.0400390625,1.140625.099609375,1.6005859375h2.78125c.080078125-.4599609375.1201171875-1.1000976562.1201171875-1.6005859375v-2.080078125h2.6005859375v1.66015625c0,.8203125-.2001953125,1.5405273438-.48046875,2.0205078125h2.4609375v2.1801757812h-4.8017578125v2.8208007812h6.6416015625v2.220703125h-15.84375v-2.220703125h6.6416015625v-2.8208007812h-4.80078125v-2.1801757812h2.4609375c-.2802734375-.4799804688-.48046875-1.2001953125-.48046875-2.0205078125v-1.66015625Zm-1.7802734375-3.041015625h11.7626953125v2.2006835938h-11.7626953125v-2.2006835938Z"/><path d="m72.2265625,62.5600585938h6.541015625v1.6000976562c0,1.1206054688-.119140625,2.1606445312-.3193359375,3.1010742188h1.83984375v-6.0415039062h2.400390625v16.4833984375h-2.400390625v-8.26171875h-2.560546875c-.9404296875,2.0004882812-2.560546875,3.5610351562-4.9404296875,4.78125l-1.2802734375-1.9404296875c2.0400390625-1.0405273438,3.419921875-2.380859375,4.140625-4.0610351562-.419921875.3603515625-1,.6000976562-1.9404296875.6000976562h-1.900390625v-2.060546875h4.3203125c.1005859375-.5200195312.1806640625-1.080078125.1806640625-1.7001953125v-.3198242188h-4.0810546875v-2.1806640625Zm11.8623046875-1.640625h2.4404296875v17.2836914062h-2.4404296875v-17.2836914062Z"/><path d="m90.6240234375,62.2197265625h11.2822265625v2.1206054688h-8.7216796875v1.5405273438h8.341796875v2.0205078125h-8.341796875v1.580078125h8.94140625v2.1206054688h-4.5810546875v2.5205078125h6.6416015625v2.2202148438h-15.84375v-2.2202148438h6.6416015625v-2.5205078125h-3.400390625c-.6005859375,0-.9599609375-.2602539062-.9599609375-.8203125v-8.5620117188Z"/><path d="m.6806640625,86.5200195312h8.361328125v11.1826171875H1.640625c-.599609375,0-.9599609375-.240234375-.9599609375-.8002929688v-10.3823242188Zm2.5,2.1806640625v6.8212890625h3.4013671875v-6.8212890625h-3.4013671875Zm8.1025390625-3.78125h2.560546875v5.861328125h2.3603515625v2.220703125h-2.3603515625v9.2016601562h-2.560546875v-17.2836914062Z"/><path d="m16.3994140625,97.8823242188h15.84375v2.220703125h-15.84375v-2.220703125Zm2.28125-11.5825195312h11.2822265625v2.220703125h-8.7216796875v4.0209960938h8.921875v2.2202148438h-10.5224609375c-.6005859375,0-.9599609375-.2602539062-.9599609375-.8203125v-7.6416015625Z"/><path d="m33.9677734375,86.4599609375h8.28125v6.7216796875h-5.720703125v2.5405273438h4.5009765625c1.48046875,0,2.8408203125-.2001953125,3.8408203125-.7202148438v-10.0825195312h2.560546875v17.2836914062h-2.560546875v-5.4409179688c-1.2607421875.8203125-3.060546875,1.1401367188-5.0615234375,1.1401367188h-4.861328125c-.6201171875,0-.9794921875-.2397460938-.9794921875-.8203125v-6.0009765625h5.7607421875v-2.4404296875h-5.7607421875v-2.1806640625Z"/><path d="m49.4814453125,97.8823242188h15.84375v2.220703125h-15.84375v-2.220703125Zm2.28125-11.5825195312h11.2822265625v2.220703125h-8.7216796875v4.0209960938h8.921875v2.2202148438h-10.5224609375c-.6005859375,0-.9599609375-.2602539062-.9599609375-.8203125v-7.6416015625Z"/><path d="m68.7783203125,100.8432617188h-1.400390625v-3.0610351562h3.080078125v2.7006835938l-1.3798828125,3.3208007812h-1.5l1.2001953125-2.9604492188Z"/><path d="m76.4970703125,97.8823242188h15.84375v2.220703125h-15.84375v-2.220703125Zm6.6220703125-11.9223632812h2.6005859375v1.2202148438c0,3.5405273438,2.560546875,5.1411132812,5.5009765625,6.0810546875l-.9599609375,2.0805664062c-2.48046875-.6201171875-5.041015625-2.3203125-5.841796875-4.2607421875-.759765625,1.9404296875-3.3203125,3.6806640625-5.8212890625,4.3408203125l-.9599609375-2.0805664062c2.900390625-.919921875,5.4814453125-2.6206054688,5.4814453125-6.1411132812v-1.240234375Z"/><path d="m94.642578125,89.5805664062h2.3603515625v3.640625c0,.8403320312.0205078125,1.720703125.1005859375,2.2607421875h.4794921875c.1806640625,0,.3408203125,0,.5205078125-.0200195312.080078125-.5200195312.099609375-1.400390625.099609375-2.2407226562v-3.640625h2.361328125v3.0205078125c0,1.1806640625-.240234375,2.220703125-.5400390625,2.8208007812.599609375-.0400390625,1.1201171875-.1401367188,1.6396484375-.3198242188l.3798828125,1.66015625c-1.1201171875.6801757812-2.2802734375.8203125-4.1005859375.8203125h-4.30078125v-2.1005859375h1.560546875c-.3203125-.5600585938-.560546875-1.6005859375-.560546875-2.7407226562v-3.1606445312Zm-.7001953125-3.0205078125h7.322265625v2.140625h-7.322265625v-2.140625Zm8.642578125-1.3403320312h2.419921875v16.4833984375h-2.419921875v-8.681640625h-1.3203125v-2.1806640625h1.3203125v-5.62109375Zm3.5400390625-.3002929688h2.4404296875v17.2836914062h-2.4404296875v-17.2836914062Z"/><path d="m115.30859375,85.7797851562c2.9208984375,0,4.7412109375,1.8603515625,4.7412109375,4.5610351562,0,2.720703125-1.8203125,4.5810546875-4.7412109375,4.5810546875s-4.7607421875-1.8603515625-4.7607421875-4.5810546875c0-2.7006835938,1.83984375-4.5610351562,4.7607421875-4.5610351562Zm0,6.9814453125c1.3203125,0,2.2001953125-.9799804688,2.2001953125-2.4204101562,0-1.4204101562-.8798828125-2.400390625-2.2001953125-2.400390625s-2.2001953125.9799804688-2.2001953125,2.400390625c0,1.4404296875.8798828125,2.4204101562,2.2001953125,2.4204101562Zm-1.5400390625,3.3608398438h2.560546875v3.9809570312h8.681640625v2.1801757812h-10.2822265625c-.6005859375,0-.9599609375-.2397460938-.9599609375-.8198242188v-5.3413085938Zm8.2412109375-11.2026367188h2.560546875v12.7431640625h-2.560546875v-12.7431640625Z"/><path d="m128.7998046875,100.8432617188h-1.400390625v-3.0610351562h3.080078125v2.7006835938l-1.3798828125,3.3208007812h-1.5l1.2001953125-2.9604492188Z"/><path d="m136.5185546875,98.0024414062c1.6806640625-3.220703125,6.8017578125-4.701171875,6.8017578125-7.3813476562,0-1.1606445312-.6396484375-2.2006835938-2.3603515625-2.2006835938-1.240234375,0-2.0400390625.6801757812-2.4208984375,1.8203125l-1.9599609375-1.080078125c.48046875-1.400390625,1.80078125-3.1005859375,4.5009765625-3.1005859375,3.060546875,0,4.78125,1.9404296875,4.78125,4.4008789062,0,4.0009765625-4.7216796875,5.4208984375-5.9814453125,7.2016601562h6.2412109375v2.2802734375h-9.6025390625v-1.9404296875Z"/><path d="m147.560546875,93.1416015625c0-4.2612304688,2.041015625-7.0815429688,5.7216796875-7.0815429688s5.720703125,2.8203125,5.720703125,7.0815429688c0,4.2607421875-2.0400390625,7.0815429688-5.720703125,7.0815429688s-5.7216796875-2.8208007812-5.7216796875-7.0815429688Zm8.841796875,0c0-2.7607421875-.8798828125-4.7211914062-3.1201171875-4.7211914062s-3.12109375,1.9604492188-3.12109375,4.7211914062c0,2.7602539062.880859375,4.720703125,3.12109375,4.720703125s3.1201171875-1.9604492188,3.1201171875-4.720703125Z"/><path d="m163.0634765625,89.2407226562l-2.48046875,1.3603515625-.9404296875-1.98046875,4.060546875-2.2807617188h1.900390625v13.6030273438h-2.5400390625v-10.7021484375Z"/><path d="m168.4345703125,99.8828125l5.4013671875-11.2622070312h-6.701171875v-2.2807617188h9.6220703125v1.8403320312l-5.4619140625,11.7626953125h-2.8603515625v-.0600585938Z"/><path d="m3.572265625,114.865234375L0,109.3603515625v-.0424804688h2.1298828125l2.3525390625,3.7543945312,2.353515625-3.7543945312h2.12890625v.0424804688l-3.5712890625,5.5048828125v3.9780273438h-1.8212890625v-3.9780273438Z"/><path d="m8.21484375,115.2431640625c0-1.9750976562,1.31640625-3.7817382812,3.8232421875-3.7817382812,2.5078125,0,3.82421875,1.806640625,3.82421875,3.7817382812,0,1.9892578125-1.31640625,3.7963867188-3.82421875,3.7963867188-2.5068359375,0-3.8232421875-1.8071289062-3.8232421875-3.7963867188Zm1.806640625,0c0,1.3447265625.8544921875,2.2133789062,2.0166015625,2.2133789062,1.1630859375,0,2.017578125-.8686523438,2.017578125-2.2133789062,0-1.3305664062-.8544921875-2.19921875-2.017578125-2.19921875-1.162109375,0-2.0166015625.8686523438-2.0166015625,2.19921875Z"/><path d="m15.8896484375,120.2578125c.6865234375-.5322265625,1.12109375-1.0361328125,1.12109375-2.12890625v-6.4995117188h1.7783203125v6.5556640625c0,1.7788085938-.8125,2.703125-1.8623046875,3.3056640625l-1.037109375-1.2329101562Zm1.0791015625-11.6962890625h1.8203125v1.8491210938h-1.8203125v-1.8491210938Z"/><path d="m20.341796875,108.5615234375h1.8212890625v1.8491210938h-1.8212890625v-1.8491210938Zm.0283203125,3.0678710938h1.7783203125v7.2138671875h-1.7783203125v-7.2138671875Z"/><path d="m23.33984375,114.9072265625c0-2.0732421875,1.2744140625-3.4458007812,3.2919921875-3.4458007812.923828125,0,1.6806640625.40625,2.1845703125,1.0083007812v-.8403320312h1.779296875v5.9814453125c0,2.619140625-1.8349609375,3.8237304688-3.7822265625,3.8237304688-1.7646484375,0-2.787109375-.6723632812-3.333984375-1.4565429688l1.0791015625-1.1206054688c.4765625.6303710938,1.0927734375,1.0502929688,2.1708984375,1.0502929688,1.037109375,0,2.0869140625-.5883789062,2.0869140625-2.1572265625v-.3920898438c-.50390625.5883789062-1.2607421875.9946289062-2.1845703125.9946289062-2.017578125,0-3.2919921875-1.3725585938-3.2919921875-3.4458007812Zm5.4765625.8823242188v-1.7509765625c-.3212890625-.658203125-.9658203125-1.0502929688-1.7509765625-1.0502929688-1.17578125,0-1.9189453125.7700195312-1.9189453125,1.9189453125,0,1.1484375.7431640625,1.9189453125,1.9189453125,1.9189453125.78515625,0,1.4296875-.3920898438,1.7509765625-1.0366210938Z"/><path d="m31.7705078125,115.2573242188c0-2.2553710938,1.5263671875-3.7958984375,3.6279296875-3.7958984375s3.4736328125,1.4565429688,3.4736328125,3.5297851562c0,.23828125-.0419921875.57421875-.083984375.8686523438h-5.224609375c.181640625.9663085938.8544921875,1.6245117188,2.1015625,1.6245117188.8818359375,0,1.6240234375-.490234375,2.044921875-1.064453125l.98046875,1.1625976562c-.6728515625.8125-1.7373046875,1.4428710938-3.109375,1.4428710938-2.33984375,0-3.810546875-1.6669921875-3.810546875-3.7680664062Zm1.8212890625-.8544921875h3.515625c-.09765625-.9384765625-.7421875-1.470703125-1.708984375-1.470703125-.9248046875,0-1.568359375.5180664062-1.806640625,1.470703125Z"/><path d="m40.0712890625,111.6293945312h1.7783203125v1.0083007812c.392578125-.6440429688,1.1630859375-1.1762695312,2.283203125-1.1762695312,1.876953125,0,2.74609375,1.2885742188,2.74609375,3.1376953125v4.244140625h-1.779296875v-4.0483398438c0-1.1484375-.5458984375-1.7509765625-1.5966796875-1.7509765625-.8828125,0-1.470703125.6025390625-1.6533203125,1.2607421875v4.5385742188h-1.7783203125v-7.2138671875Z"/><path d="m51.5361328125,109.3178710938h3.7548828125c2.0166015625,0,3.4033203125.9526367188,3.4033203125,2.9838867188s-1.38671875,2.9833984375-3.4033203125,2.9833984375h-1.93359375v3.5581054688h-1.8212890625v-9.525390625Zm3.5302734375,4.3706054688c1.0791015625,0,1.7509765625-.3642578125,1.7509765625-1.38671875s-.671875-1.38671875-1.7509765625-1.38671875h-1.708984375v2.7734375h1.708984375Z"/><path d="m59.22265625,115.2431640625c0-1.9750976562,1.31640625-3.7817382812,3.8232421875-3.7817382812,2.5078125,0,3.82421875,1.806640625,3.82421875,3.7817382812,0,1.9892578125-1.31640625,3.7963867188-3.82421875,3.7963867188-2.5068359375,0-3.8232421875-1.8071289062-3.8232421875-3.7963867188Zm1.806640625,0c0,1.3447265625.8544921875,2.2133789062,2.0166015625,2.2133789062,1.1630859375,0,2.017578125-.8686523438,2.017578125-2.2133789062,0-1.3305664062-.8544921875-2.19921875-2.017578125-2.19921875-1.162109375,0-2.0166015625.8686523438-2.0166015625,2.19921875Z"/><path d="m68.0595703125,108.8979492188h1.7783203125v5.798828125l2.7880859375-3.0673828125h2.03125v.0561523438l-2.74609375,3.025390625,3.0537109375,4.0903320312v.0419921875h-2.1005859375l-2.0732421875-2.8994140625-.953125,1.0502929688v1.8491210938h-1.7783203125v-9.9453125Z"/><path d="m74.845703125,115.2573242188c0-2.2553710938,1.5263671875-3.7958984375,3.6279296875-3.7958984375s3.4736328125,1.4565429688,3.4736328125,3.5297851562c0,.23828125-.0419921875.57421875-.083984375.8686523438h-5.224609375c.181640625.9663085938.8544921875,1.6245117188,2.1015625,1.6245117188.8818359375,0,1.6240234375-.490234375,2.044921875-1.064453125l.98046875,1.1625976562c-.6728515625.8125-1.7373046875,1.4428710938-3.1103515625,1.4428710938-2.3388671875,0-3.8095703125-1.6669921875-3.8095703125-3.7680664062Zm1.8212890625-.8544921875h3.515625c-.09765625-.9384765625-.7421875-1.470703125-1.708984375-1.470703125-.9248046875,0-1.568359375.5180664062-1.806640625,1.470703125Z"/><path d="m83.609375,116.083984375v-3.0258789062h-1.205078125v-1.4287109375h1.2607421875v-1.8349609375h1.72265625v1.8349609375h1.6669921875v1.4287109375h-1.6669921875v3.1098632812c0,.9243164062.4345703125,1.2465820312,1.3310546875,1.2465820312h.3359375v1.4287109375c-.23828125.0561523438-.5322265625.083984375-.7978515625.083984375-1.7509765625,0-2.6474609375-.8681640625-2.6474609375-2.8432617188Z"/><path d="m88.857421875,116.083984375v-3.0258789062h-1.205078125v-1.4287109375h1.2607421875v-1.8349609375h1.72265625v1.8349609375h1.6669921875v1.4287109375h-1.6669921875v3.1098632812c0,.9243164062.4345703125,1.2465820312,1.3310546875,1.2465820312h.3359375v1.4287109375c-.23828125.0561523438-.5322265625.083984375-.7978515625.083984375-1.7509765625,0-2.6474609375-.8681640625-2.6474609375-2.8432617188Z"/><path d="m92.8486328125,115.2431640625c0-1.9750976562,1.31640625-3.7817382812,3.82421875-3.7817382812,2.5068359375,0,3.8232421875,1.806640625,3.8232421875,3.7817382812,0,1.9892578125-1.31640625,3.7963867188-3.8232421875,3.7963867188-2.5078125,0-3.82421875-1.8071289062-3.82421875-3.7963867188Zm1.806640625,0c0,1.3447265625.8544921875,2.2133789062,2.017578125,2.2133789062,1.162109375,0,2.0166015625-.8686523438,2.0166015625-2.2133789062,0-1.3305664062-.8544921875-2.19921875-2.0166015625-2.19921875-1.1630859375,0-2.017578125.8686523438-2.017578125,2.19921875Z"/><path d="m1.0224609375,126.1176757812h2.4375l2.830078125,7.1860351562,2.8427734375-7.1860351562h2.4375v9.525390625h-1.8203125v-6.7377929688l-2.6337890625,6.7377929688h-1.638671875l-2.6337890625-6.7377929688v6.7377929688h-1.8212890625v-9.525390625Z"/><path d="m18.7197265625,134.81640625c-.5322265625.6025390625-1.3173828125.9946289062-2.255859375.9946289062-2.0029296875,0-3.4736328125-1.4848632812-3.4736328125-3.7680664062s1.470703125-3.7817382812,3.4736328125-3.7817382812c.9384765625,0,1.7236328125.40625,2.255859375,1.0083007812v-.8403320312h1.7783203125v7.2138671875h-1.7783203125v-.8266601562Zm0-1.6665039062v-2.2133789062c-.322265625-.6865234375-1.0654296875-1.0927734375-1.86328125-1.0927734375-1.1630859375,0-2.0595703125.798828125-2.0595703125,2.19921875,0,1.38671875.896484375,2.185546875,2.0595703125,2.185546875.7978515625,0,1.541015625-.40625,1.86328125-1.0786132812Z"/><path d="m27.455078125,134.81640625c-.5322265625.6025390625-1.3173828125.9946289062-2.255859375.9946289062-2.0029296875,0-3.4736328125-1.4848632812-3.4736328125-3.7680664062s1.470703125-3.7817382812,3.4736328125-3.7817382812c.9384765625,0,1.7236328125.40625,2.255859375,1.0083007812v-3.5717773438h1.7783203125v9.9453125h-1.7783203125v-.8266601562Zm0-1.6665039062v-2.2133789062c-.322265625-.6865234375-1.0654296875-1.0927734375-1.86328125-1.0927734375-1.1630859375,0-2.0595703125.798828125-2.0595703125,2.19921875,0,1.38671875.896484375,2.185546875,2.0595703125,2.185546875.7978515625,0,1.541015625-.40625,1.86328125-1.0786132812Z"/><path d="m30.8359375,128.4291992188h1.7783203125v1.1206054688c.4208984375-.7705078125,1.12109375-1.2885742188,2.0732421875-1.2885742188h.2099609375v1.6948242188c-1.064453125.0141601562-1.9326171875.322265625-2.283203125,1.4008789062v4.2861328125h-1.7783203125v-7.2138671875Z"/><path d="m35.7041015625,125.361328125h1.8212890625v1.8491210938h-1.8212890625v-1.8491210938Zm.0283203125,3.0678710938h1.7783203125v7.2138671875h-1.7783203125v-7.2138671875Z"/><path d="m44.431640625,134.81640625c-.5322265625.6025390625-1.3173828125.9946289062-2.255859375.9946289062-2.0029296875,0-3.4736328125-1.4848632812-3.4736328125-3.7680664062s1.470703125-3.7817382812,3.4736328125-3.7817382812c.9384765625,0,1.7236328125.40625,2.255859375,1.0083007812v-3.5717773438h1.7783203125v9.9453125h-1.7783203125v-.8266601562Zm0-1.6665039062v-2.2133789062c-.322265625-.6865234375-1.0654296875-1.0927734375-1.86328125-1.0927734375-1.1630859375,0-2.0595703125.798828125-2.0595703125,2.19921875,0,1.38671875.896484375,2.185546875,2.0595703125,2.185546875.7978515625,0,1.541015625-.40625,1.86328125-1.0786132812Z"/><path d="m48.765625,136.2734375h-.98046875v-2.1430664062h2.1572265625v1.8911132812l-.966796875,2.3251953125h-1.0498046875l.83984375-2.0732421875Z"/><path d="m53.734375,133.6821289062l1.19140625-1.1625976562c.5458984375.8544921875,1.470703125,1.6806640625,2.9130859375,1.6806640625,1.1767578125,0,1.79296875-.5883789062,1.79296875-1.3305664062,0-.6025390625-.419921875-1.064453125-1.541015625-1.2329101562l-.826171875-.1259765625c-1.6806640625-.251953125-2.8154296875-1.21875-2.8154296875-2.689453125,0-1.6108398438,1.31640625-2.8994140625,3.4462890625-2.8994140625,1.470703125,0,2.6748046875.6440429688,3.361328125,1.5405273438l-1.162109375,1.205078125c-.5888671875-.728515625-1.38671875-1.1069335938-2.2412109375-1.1069335938-.953125,0-1.513671875.5043945312-1.513671875,1.0786132812,0,.560546875.4208984375.966796875,1.2470703125,1.0927734375l.8125.1259765625c1.9609375.2939453125,3.109375,1.2749023438,3.109375,2.8857421875,0,1.8349609375-1.4990234375,3.095703125-3.697265625,3.095703125-2.19921875,0-3.404296875-1.134765625-4.0771484375-2.1572265625Z"/><path d="m62.73046875,128.4291992188h1.7783203125v.8544921875c.5185546875-.6025390625,1.3173828125-1.0224609375,2.26953125-1.0224609375,1.9892578125,0,3.4599609375,1.4985351562,3.4599609375,3.7817382812s-1.470703125,3.7680664062-3.4599609375,3.7680664062c-.9521484375,0-1.7509765625-.40625-2.26953125-1.0083007812v3.263671875h-1.7783203125v-9.6372070312Zm5.701171875,3.6137695312c0-1.400390625-.896484375-2.19921875-2.0595703125-2.19921875-.798828125,0-1.541015625.40625-1.86328125,1.0927734375v2.2133789062c.322265625.6723632812,1.064453125,1.0786132812,1.86328125,1.0786132812,1.1630859375,0,2.0595703125-.798828125,2.0595703125-2.185546875Z"/><path d="m76.80078125,134.81640625c-.5322265625.6025390625-1.3173828125.9946289062-2.255859375.9946289062-2.0029296875,0-3.4736328125-1.4848632812-3.4736328125-3.7680664062s1.470703125-3.7817382812,3.4736328125-3.7817382812c.9384765625,0,1.7236328125.40625,2.255859375,1.0083007812v-.8403320312h1.7783203125v7.2138671875h-1.7783203125v-.8266601562Zm0-1.6665039062v-2.2133789062c-.322265625-.6865234375-1.0654296875-1.0927734375-1.86328125-1.0927734375-1.1630859375,0-2.0595703125.798828125-2.0595703125,2.19921875,0,1.38671875.896484375,2.185546875,2.0595703125,2.185546875.7978515625,0,1.541015625-.40625,1.86328125-1.0786132812Z"/><path d="m80.1552734375,125.361328125h1.8212890625v1.8491210938h-1.8212890625v-1.8491210938Zm.0283203125,3.0678710938h1.7783203125v7.2138671875h-1.7783203125v-7.2138671875Z"/><path d="m83.546875,128.4291992188h1.7783203125v1.0083007812c.392578125-.6440429688,1.1630859375-1.1762695312,2.283203125-1.1762695312,1.876953125,0,2.74609375,1.2885742188,2.74609375,3.1376953125v4.244140625h-1.779296875v-4.0483398438c0-1.1484375-.5458984375-1.7509765625-1.5966796875-1.7509765625-.8828125,0-1.470703125.6025390625-1.6533203125,1.2607421875v4.5385742188h-1.7783203125v-7.2138671875Z"/><path d="m92.8515625,136.2734375h-.98046875v-2.1430664062h2.1572265625v1.8911132812l-.966796875,2.3251953125h-1.0498046875l.83984375-2.0732421875Z"/><path d="m98.115234375,134.2841796875c1.1767578125-2.2548828125,4.7626953125-3.2915039062,4.7626953125-5.1684570312,0-.8125-.4482421875-1.541015625-1.6533203125-1.541015625-.8681640625,0-1.4287109375.4760742188-1.6953125,1.2749023438l-1.3720703125-.7568359375c.3359375-.98046875,1.2607421875-2.1708984375,3.1513671875-2.1708984375,2.1435546875,0,3.34765625,1.3588867188,3.34765625,3.0815429688,0,2.8017578125-3.3056640625,3.7958984375-4.1884765625,5.04296875h4.37109375v1.5966796875h-6.7236328125v-1.3588867188Z"/><path d="m105.7958984375,130.8803710938c0-2.9833984375,1.4296875-4.9584960938,4.0068359375-4.9584960938s4.005859375,1.9750976562,4.005859375,4.9584960938c0,2.9838867188-1.4287109375,4.958984375-4.005859375,4.958984375s-4.0068359375-1.9750976562-4.0068359375-4.958984375Zm6.19140625,0c0-1.9331054688-.6162109375-3.3056640625-2.1845703125-3.3056640625-1.5693359375,0-2.185546875,1.3725585938-2.185546875,3.3056640625s.6162109375,3.3056640625,2.185546875,3.3056640625c1.568359375,0,2.1845703125-1.3725585938,2.1845703125-3.3056640625Z"/><path d="m116.6015625,128.1489257812l-1.7373046875.9526367188-.658203125-1.38671875,2.84375-1.5971679688h1.330078125v9.525390625h-1.7783203125v-7.494140625Z"/><path d="m120.3125,135.6010742188l3.7822265625-7.8862304688h-4.693359375v-1.5971679688h6.73828125v1.2890625l-3.82421875,8.236328125h-2.0029296875v-.0419921875Z"/><rect class="cls-1" x="0" y="0" width="318.1005859375" height="138.3466796875"/></g></svg>