<?xml version="1.0" encoding="UTF-8"?><svg id="_레이어_2" xmlns="http://www.w3.org/2000/svg" viewBox="0 0 318.1005859375 138.3466796875"><defs><style>.cls-1{fill:none;}</style></defs><g id="Layer_1"><path d="m1.0595703125,1.48046875h2.400390625v3.2807617188h2.1201171875V1.48046875h2.3603515625v4.4208984375h1.541015625V.3002929688h2.419921875v16.4833984375h-2.419921875v-8.681640625h-1.541015625v4.4809570312H2.0390625c-.6201171875,0-.9794921875-.240234375-.9794921875-.8203125V1.48046875Zm2.400390625,5.361328125v3.5805664062h2.1201171875v-3.5805664062h-2.1201171875ZM13.1220703125,0h2.4404296875v17.2836914062h-2.4404296875V0Z"/><path d="m17.3662109375,13.1630859375h15.84375v2.2202148438h-15.84375v-2.2202148438Zm2.28125-11.8627929688h11.2822265625v5.7211914062h-8.7421875v1.6206054688h9.0224609375v2.1206054688h-10.6025390625c-.6005859375,0-.9599609375-.2602539062-.9599609375-.8203125v-4.9409179688h8.7412109375v-1.5805664062h-8.7412109375V1.3002929688Z"/><path d="m34.6123046875,1.4604492188h2.560546875v8.9018554688h2.0205078125c1.6796875,0,3.3408203125-.2397460938,4.400390625-.66015625.140625.580078125.30078125,1.16015625.4599609375,1.7407226562-1.3203125.8198242188-3.1806640625,1.1201171875-5.3603515625,1.1201171875h-3.12109375c-.599609375,0-.9599609375-.240234375-.9599609375-.8002929688V1.4604492188Zm6.4013671875,3.220703125h4.640625V0h2.560546875v17.2836914062h-2.560546875V6.8618164062h-4.640625v-2.1806640625Z"/><path d="m56.2109375,3.9809570312h2.400390625v2.4008789062c0,.6000976562,0,1.080078125.1005859375,1.5600585938h1.0595703125c.080078125-.4799804688.1201171875-.9799804688.1201171875-1.5600585938v-2.4008789062h2.380859375v1.9204101562c0,.8803710938-.2197265625,1.560546875-.560546875,2.0205078125.80078125-.0200195312,1.5009765625-.1000976562,2.140625-.33984375V.2001953125h2.4208984375v4.380859375h1.419921875V0h2.4404296875v12.54296875h-2.4404296875v-5.8212890625h-1.419921875v5.5209960938h-2.4208984375v-2.8803710938c-1.1201171875.66015625-2.8603515625.66015625-4.78125.66015625h-3.8603515625v-2.0805664062h1.580078125c-.33984375-.4599609375-.580078125-1.1401367188-.580078125-2.0405273438v-1.9204101562Zm-.7001953125-2.900390625h7.4619140625v2.1201171875h-7.4619140625V1.0805664062Zm3.3408203125,10.40234375h2.560546875v3.7006835938h9.0625v2.1801757812h-10.6630859375c-.599609375,0-.9599609375-.2397460938-.9599609375-.8198242188v-5.0610351562Z"/><path d="m74.3896484375.6801757812h10.9619140625v1.8608398438h-8.4013671875v1.0600585938h8.021484375v1.7202148438h-8.021484375v1.1000976562h8.7216796875v1.80078125h-4.521484375v1.5600585938h6.6416015625v1.98046875h-15.84375v-1.98046875h6.6416015625v-1.5600585938h-3.240234375c-.6005859375,0-.9599609375-.240234375-.9599609375-.8002929688V.6801757812Zm-.1201171875,12.0830078125h2.560546875v2.6000976562h8.8818359375v2.0805664062h-10.482421875c-.6005859375,0-.9599609375-.259765625-.9599609375-.8198242188v-3.8608398438Z"/><path d="m0,24.3984375h1.890625l2.7880859375,7.5083007812,2.787109375-7.5083007812h1.8916015625l-3.6142578125,9.525390625h-2.12890625L0,24.3984375Z"/><path d="m9.0791015625,30.337890625c0-2.2553710938,1.5263671875-3.7958984375,3.6279296875-3.7958984375s3.4736328125,1.4565429688,3.4736328125,3.5297851562c0,.23828125-.0419921875.57421875-.083984375.8686523438h-5.224609375c.181640625.9663085938.8544921875,1.6245117188,2.1015625,1.6245117188.8818359375,0,1.6240234375-.490234375,2.044921875-1.064453125l.98046875,1.1625976562c-.6728515625.8125-1.7373046875,1.4428710938-3.109375,1.4428710938-2.33984375,0-3.810546875-1.6669921875-3.810546875-3.7680664062Zm1.8212890625-.8544921875h3.515625c-.09765625-.9384765625-.7421875-1.470703125-1.708984375-1.470703125-.9248046875,0-1.568359375.5180664062-1.806640625,1.470703125Z"/><path d="m17.380859375,26.7099609375h1.7783203125v1.1206054688c.4208984375-.7705078125,1.12109375-1.2885742188,2.0732421875-1.2885742188h.2099609375v1.6948242188c-1.064453125.0141601562-1.9326171875.322265625-2.283203125,1.4008789062v4.2861328125h-1.7783203125v-7.2138671875Z"/><path d="m22.27734375,26.7099609375h1.7783203125v1.0083007812c.392578125-.6440429688,1.1630859375-1.1762695312,2.2831921091-1.1762695312,1.8769641409,0,2.7461047659,1.2885742188,2.7461047659,3.1376953125v4.244140625h-1.779296875v-4.0483398438c0-1.1484375-.5458984375-1.7509765625-1.5966796875-1.7509765625-.8828125,0-1.470703125.6025390625-1.6533203125,1.2607421875v4.5385742188h-1.7783203125v-7.2138671875Z"/><path d="m30.2060546875,30.337890625c0-2.2553710938,1.5263671875-3.7958984375,3.6279296875-3.7958984375s3.4736328125,1.4565429688,3.4736328125,3.5297851562c0,.23828125-.0419921875.57421875-.083984375.8686523438h-5.224609375c.181640625.9663085938.8544921875,1.6245117188,2.1015625,1.6245117188.8818359375,0,1.6240234375-.490234375,2.044921875-1.064453125l.98046875,1.1625976562c-.6728515625.8125-1.7373046875,1.4428710938-3.109375,1.4428710938-2.33984375,0-3.810546875-1.6669921875-3.810546875-3.7680664062Zm1.8212890625-.8544921875h3.515625c-.09765625-.9384765625-.7421875-1.470703125-1.708984375-1.470703125-.9248046875,0-1.568359375.5180664062-1.806640625,1.470703125Z"/><path d="m38.5068359375,26.7099609375h1.7783203125v1.1206054688c.4208984375-.7705078125,1.12109375-1.2885742188,2.0732421875-1.2885742188h.2099609375v1.6948242188c-1.064453125.0141601562-1.9326171875.322265625-2.283203125,1.4008789062v4.2861328125h-1.7783203125v-7.2138671875Z"/><path d="m46.6259765625,24.3984375h3.7548828125c2.0166015625,0,3.4033203125.9526367188,3.4033203125,2.9838867188s-1.38671875,2.9833984375-3.4033203125,2.9833984375h-1.93359375v3.5581054688h-1.8212890625v-9.525390625Zm3.5302734375,4.3706054688c1.0791015625,0,1.7509765625-.3642578125,1.7509765625-1.38671875s-.671875-1.38671875-1.7509765625-1.38671875h-1.708984375v2.7734375h1.708984375Z"/><path d="m60.0625,33.0971679688c-.5322265625.6025390625-1.3173828125.9946289062-2.255859375.9946289062-2.0029296875,0-3.4736328125-1.4848632812-3.4736328125-3.7680664062s1.470703125-3.7817382812,3.4736328125-3.7817382812c.9384765625,0,1.7236328125.40625,2.255859375,1.0083007812v-.8403320312h1.7783203125v7.2138671875h-1.7783203125v-.8266601562Zm0-1.6665039062v-2.2133789062c-.322265625-.6865234375-1.0654296875-1.0927734375-1.86328125-1.0927734375-1.1630859375,0-2.0595703125.798828125-2.0595703125,2.19921875,0,1.38671875.896484375,2.185546875,2.0595703125,2.185546875.7978515625,0,1.541015625-.40625,1.86328125-1.0786132812Z"/><path d="m63.443359375,26.7099609375h1.7783203125v1.0083007812c.392578125-.6440429688,1.1630859375-1.1762695312,2.283203125-1.1762695312,1.876953125,0,2.74609375,1.2885742188,2.74609375,3.1376953125v4.244140625h-1.779296875v-4.0483398438c0-1.1484375-.5458984375-1.7509765625-1.5966796875-1.7509765625-.8828125,0-1.470703125.6025390625-1.6533203125,1.2607421875v4.5385742188h-1.7783203125v-7.2138671875Z"/><path d="m72.1689453125,31.1645507812v-3.0258789062h-1.2050902682v-1.4287109375h1.2607543307v-1.8349609375h1.72265625v1.8349609375h1.6669921875v1.4287109375h-1.6669921875v3.1098632812c0,.9243164062.4345703125,1.2465820312,1.3310546875,1.2465820312h.3359375v1.4287109375c-.23828125.0561523438-.5322265625.083984375-.7978515625.083984375-1.7509765625,0-2.6474609375-.8681640625-2.6474609375-2.8432617188Z"/><path d="m76.16015625,30.3237304688c0-1.9750976562,1.31640625-3.7817382812,3.8232421875-3.7817382812,2.5078125,0,3.82421875,1.806640625,3.82421875,3.7817382812,0,1.9892578125-1.31640625,3.7963867188-3.82421875,3.7963867188-2.5068359375,0-3.8232421875-1.8071289062-3.8232421875-3.7963867188Zm1.806640625,0c0,1.3447265625.8544921875,2.2133789062,2.0166015625,2.2133789062,1.1630859375,0,2.017578125-.8686523438,2.017578125-2.2133789062,0-1.3305664062-.8544921875-2.19921875-2.017578125-2.19921875-1.162109375,0-2.0166015625.8686523438-2.0166015625,2.19921875Z"/><path d="m84.9970703125,26.7099609375h1.7783203125v1.0083007812c.392578125-.6440429688,1.1630859375-1.1762695312,2.283203125-1.1762695312,1.876953125,0,2.74609375,1.2885742188,2.74609375,3.1376953125v4.244140625h-1.779296875v-4.0483398438c0-1.1484375-.5458984375-1.7509765625-1.5966796875-1.7509765625-.8828125,0-1.470703125.6025390625-1.6533203125,1.2607421875v4.5385742188h-1.7783203125v-7.2138671875Z"/><path d="m1.0595703125,62.3999023438h2.400390625v3.2807617188h2.1201171875v-3.2807617188h2.3603515625v4.4208984375h1.541015625v-5.6010742188h2.419921875v16.4833984375h-2.419921875v-8.681640625h-1.541015625v4.4809570312H2.0390625c-.6201171875,0-.9794921875-.240234375-.9794921875-.8203125v-10.2822265625Zm2.400390625,5.361328125v3.5805664062h2.1201171875v-3.5805664062h-2.1201171875Zm9.662109375-6.841796875h2.4404296875v17.2836914062h-2.4404296875v-17.2836914062Z"/><path d="m17.3662109375,74.0825195312h15.84375v2.2202148438h-15.84375v-2.2202148438Zm2.28125-11.8627929688h11.2822265625v5.7211914062h-8.7421875v1.6206054688h9.0224609375v2.1206054688h-10.6025390625c-.6005859375,0-.9599609375-.2602539062-.9599609375-.8203125v-4.9409179688h8.7412109375v-1.5805664062h-8.7412109375v-2.1206054688Z"/><path d="m34.6123046875,62.3798828125h2.560546875v8.9018554688h2.0205078125c1.6796875,0,3.3408203125-.2397460938,4.400390625-.66015625.140625.580078125.30078125,1.16015625.4599609375,1.7407226562-1.3203125.8198242188-3.1806640625,1.1201171875-5.3603515625,1.1201171875h-3.12109375c-.599609375,0-.9599609375-.240234375-.9599609375-.8002929688v-10.3022460938Zm6.4013671875,3.220703125h4.640625v-4.6811523438h2.560546875v17.2836914062h-2.560546875v-10.421875h-4.640625v-2.1806640625Z"/><path d="m56.2109375,64.900390625h2.400390625v2.4008789062c0,.6000976562,0,1.080078125.1005859375,1.5600585938h1.0595703125c.080078125-.4799804688.1201171875-.9799804688.1201171875-1.5600585938v-2.4008789062h2.380859375v1.9204101562c0,.8803710938-.2197265625,1.560546875-.560546875,2.0205078125.80078125-.0200195312,1.5009765625-.1000976562,2.140625-.33984375v-7.3818359375h2.4208984375v4.380859375h1.419921875v-4.5810546875h2.4404296875v12.54296875h-2.4404296875v-5.8212890625h-1.419921875v5.5209960938h-2.4208984375v-2.8803710938c-1.1201171875.66015625-2.8603515625.66015625-4.78125.66015625h-3.8603515625v-2.0805664062h1.580078125c-.33984375-.4599609375-.580078125-1.1401367188-.580078125-2.0405273438v-1.9204101562Zm-.7001953125-2.900390625h7.4619140625v2.1201171875h-7.4619140625v-2.1201171875Zm3.3408203125,10.40234375h2.560546875v3.7006835938h9.0625v2.1801757812h-10.6630859375c-.599609375,0-.9599609375-.2397460938-.9599609375-.8198242188v-5.0610351562Z"/><path d="m74.3896484375,61.599609375h10.9619140625v1.8608398438h-8.4013671875v1.0600585938h8.021484375v1.7202148438h-8.021484375v1.1000976562h8.7216796875v1.80078125h-4.521484375v1.5600585938h6.6416015625v1.98046875h-15.84375v-1.98046875h6.6416015625v-1.5600585938h-3.240234375c-.6005859375,0-.9599609375-.240234375-.9599609375-.8002929688v-6.7416992188Zm-.1201171875,12.0830078125h2.560546875v2.6000976562h8.8818359375v2.0805664062h-10.482421875c-.6005859375,0-.9599609375-.259765625-.9599609375-.8198242188v-3.8608398438Z"/><path d="m93.1875,65.400390625h10.3427734375v2.140625h-1.9404296875c.6796875.6000976562,1.099609375,1.48046875,1.099609375,2.560546875,0,2.4604492188-1.759765625,4.12109375-4.3203125,4.12109375s-4.361328125-1.6606445312-4.361328125-4.12109375c0-1.080078125.419921875-1.9604492188,1.1005859375-2.560546875h-1.9208984375v-2.140625Zm2.2607421875-3.4204101562h5.8212890625v2.1801757812h-5.8212890625v-2.1801757812Zm1.0400390625,8.1215820312c0,1.240234375.7998046875,2.0205078125,1.880859375,2.0205078125,1.080078125,0,1.8603515625-.7802734375,1.8603515625-2.0205078125s-.7802734375-2.0405273438-1.8603515625-2.0405273438c-1.0810546875,0-1.880859375.8002929688-1.880859375,2.0405273438Zm8.26171875-9.1821289062h2.560546875v6.1416015625h2.3408203125v2.2202148438h-2.3408203125v8.921875h-2.560546875v-17.2836914062Z"/><path d="m110.16796875,70.8618164062h15.84375v2.2202148438h-6.6416015625v5.201171875h-2.560546875v-5.201171875h-6.6416015625v-2.2202148438Zm7.921875-9.58203125c3.1611328125,0,5.76171875,1.3603515625,5.76171875,4.140625,0,2.7807617188-2.6005859375,4.1010742188-5.76171875,4.1010742188-3.16015625,0-5.7607421875-1.3203125-5.7607421875-4.1010742188,0-2.7802734375,2.6005859375-4.140625,5.7607421875-4.140625Zm0,6.0610351562c1.6806640625,0,3.201171875-.5,3.201171875-1.9204101562,0-1.4399414062-1.5205078125-1.9599609375-3.201171875-1.9599609375-1.6796875,0-3.2001953125.5200195312-3.2001953125,1.9599609375,0,1.4204101562,1.5205078125,1.9204101562,3.2001953125,1.9204101562Z"/><path d="m127.06640625,73.8823242188h15.84375v2.220703125h-15.84375v-2.220703125Zm6.6220703125-11.9223632812h2.6005859375v1.2202148438c0,3.5405273438,2.560546875,5.1411132812,5.5009765625,6.0810546875l-.9599609375,2.0805664062c-2.48046875-.6201171875-5.041015625-2.3203125-5.841796875-4.2607421875-.759765625,1.9404296875-3.3203125,3.6806640625-5.8212890625,4.3408203125l-.9599609375-2.0805664062c2.900390625-.919921875,5.4814453125-2.6206054688,5.4814453125-6.1411132812v-1.240234375Z"/><path d="m.6787109375,97.8823242188h15.84375v2.220703125H.6787109375v-2.220703125Zm6.6220703125-11.9223632812h2.6005859375v1.2202148438c0,3.5405273438,2.560546875,5.1411132812,5.5009765625,6.0810546875l-.9599609375,2.0805664062c-2.48046875-.6201171875-5.041015625-2.3203125-5.841796875-4.2607421875-.759765625,1.9404296875-3.3203125,3.6806640625-5.8212890625,4.3408203125l-.9599609375-2.0805664062c2.900390625-.919921875,5.4814453125-2.6206054688,5.4814453125-6.1411132812v-1.240234375Z"/><path d="m17.55859375,94.6215820312h7.921875c1.48046875,0,2.8603515625-.1201171875,3.900390625-.580078125v-9.1220703125h2.560546875v17.2836914062h-2.560546875v-6.3413085938c-1.2998046875.7602539062-3.080078125.9604492188-4.9609375.98046875v5.0610351562h-2.560546875v-5.0610351562h-4.30078125v-2.220703125Zm5.4208984375-9.08203125c2.720703125,0,4.6015625,1.720703125,4.6015625,3.9208984375,0,2.3208007812-1.880859375,3.9208984375-4.6015625,3.9208984375s-4.62109375-1.6000976562-4.62109375-3.9208984375c0-2.2001953125,1.900390625-3.9208984375,4.62109375-3.9208984375Zm0,5.6616210938c1.2802734375,0,2.1005859375-.66015625,2.1005859375-1.7407226562,0-1.1000976562-.8203125-1.740234375-2.1005859375-1.740234375s-2.1005859375.6401367188-2.1005859375,1.740234375c0,1.0805664062.8203125,1.7407226562,2.1005859375,1.7407226562Z"/><path d="m33.9228515625,97.8823242188h15.84375v2.220703125h-15.84375v-2.220703125Zm6.6220703125-11.9223632812h2.6005859375v1.2202148438c0,3.5405273438,2.560546875,5.1411132812,5.5009765625,6.0810546875l-.9599609375,2.0805664062c-2.48046875-.6201171875-5.041015625-2.3203125-5.841796875-4.2607421875-.759765625,1.9404296875-3.3203125,3.6806640625-5.8212890625,4.3408203125l-.9599609375-2.0805664062c2.9003793155-.919921875,5.4814453125-2.6206054688,5.4814453125-6.1411132812v-1.240234375Z"/><path d="m53.2197265625,100.8432617188h-1.400390625v-3.0610351562h3.080078125v2.7006835938l-1.3798828125,3.3208007812h-1.5l1.2001953125-2.9604492188Z"/><path d="m63.6796875,89.2407226562l-2.48046875,1.3603515625-.9404296875-1.98046875,4.060546875-2.2807617188h1.900390625v13.6030273438h-2.5400390625v-10.7021484375Z"/><path d="m79.4052734375,92.8012695312c0,4.6411132812-2.4208984375,7.421875-6.2412109375,7.421875-2.1806640625,0-3.7607421875-1.060546875-4.62109375-2.3408203125l1.740234375-1.5600585938c.580078125.8999023438,1.6201171875,1.5400390625,2.880859375,1.5400390625,1.900390625,0,3.3203125-1.2802734375,3.580078125-3.7407226562-.8193359375.900390625-1.9599609375,1.5405273438-3.5205078125,1.5405273438-2.560546875,0-4.7607421875-1.8803710938-4.7607421875-4.7412109375,0-2.8603515625,2.3798828125-4.8608398438,5.28125-4.8608398438,3.720703125,0,5.6611328125,2.8403320312,5.6611328125,6.7412109375Zm-8.322265625-1.9404296875c0,1.3403320312,1.0009765625,2.4604492188,2.6611328125,2.4604492188,1.6396484375,0,2.640625-1.1201171875,2.640625-2.4604492188,0-1.3203125-1.0009765625-2.4404296875-2.640625-2.4404296875-1.66015625,0-2.6611328125,1.1201171875-2.6611328125,2.4404296875Z"/><path d="m81.462890625,99.8828125l5.4013671875-11.2622070312h-6.701171875v-2.2807617188h9.6220703125v1.8403320312l-5.4619140625,11.7626953125h-2.8603515625v-.0600585938Z"/><path d="m90.728515625,98.0024414062c1.6806640625-3.220703125,6.8017578125-4.701171875,6.8017578125-7.3813476562,0-1.1606445312-.6396484375-2.2006835938-2.3603515625-2.2006835938-1.240234375,0-2.0400390625.6801757812-2.4208984375,1.8203125l-1.9599609375-1.080078125c.48046875-1.400390625,1.80078125-3.1005859375,4.5009765625-3.1005859375,3.060546875,0,4.78125,1.9404296875,4.78125,4.4008789062,0,4.0009765625-4.7216796875,5.4208984375-5.9814453125,7.2016601562h6.2412109375v2.2802734375h-9.6025390625v-1.9404296875Z"/><path d="m101.76171875,92.861328125h5.841796875v2.0405273438h-5.841796875v-2.0405273438Z"/><path d="m111.1748046875,89.2407226562l-2.48046875,1.3603515625-.9404296875-1.98046875,4.060546875-2.2807617188h1.900390625v13.6030273438h-2.5400390625v-10.7021484375Z"/><path d="m126.900390625,92.8012695312c0,4.6411132812-2.4208984375,7.421875-6.2412109375,7.421875-2.1806640625,0-3.7607421875-1.060546875-4.62109375-2.3408203125l1.740234375-1.5600585938c.580078125.8999023438,1.6201171875,1.5400390625,2.880859375,1.5400390625,1.900390625,0,3.3203125-1.2802734375,3.580078125-3.7407226562-.8193359375.900390625-1.9599609375,1.5405273438-3.5205078125,1.5405273438-2.560546875,0-4.7607421875-1.8803710938-4.7607421875-4.7412109375,0-2.8603515625,2.380846035-4.8608398438,5.28125-4.8608398438,3.720703125,0,5.6611328125,2.8403320312,5.6611328125,6.7412109375Zm-8.322265625-1.9404296875c0,1.3403320312,1.0009765625,2.4604492188,2.6611328125,2.4604492188,1.6396484375,0,2.640625-1.1201171875,2.640625-2.4604492188,0-1.3203125-1.0009765625-2.4404296875-2.640625-2.4404296875-1.66015625,0-2.6611328125,1.1201171875-2.6611328125,2.4404296875Z"/><path d="m128.3212890625,96.08203125c0-1.6201171875.98046875-2.98046875,2.5205078125-3.4609375-1.1806640625-.6000976562-1.7607421875-1.6000976562-1.7607421875-2.8603515625,0-2.0004882812,1.62109375-3.7006835938,4.78125-3.7006835938,3.1611328125,0,4.78125,1.7001953125,4.78125,3.7006835938,0,1.2602539062-.580078125,2.2602539062-1.7607421875,2.8603515625,1.541015625.48046875,2.5205078125,1.8408203125,2.5205078125,3.4609375,0,2.3603515625-1.8603515625,4.1411132812-5.541015625,4.1411132812s-5.541015625-1.7807617188-5.541015625-4.1411132812Zm2.6005859375-.2202148438c0,1.1005859375.9404296875,2.0405273438,2.9404296875,2.0405273438,2.0009765625,0,2.9404296875-.9399414062,2.9404296875-2.0405273438,0-1.1000976562-.939453125-2.0400390625-2.9404296875-2.0400390625-2,0-2.9404296875.9399414062-2.9404296875,2.0400390625Zm.759765625-5.880859375c0,.9799804688.900390625,1.6000976562,2.1806640625,1.6000976562s2.1806640625-.6201171875,2.1806640625-1.6000976562c0-.98046875-.900390625-1.6005859375-2.1806640625-1.6005859375s-2.1806640625.6201171875-2.1806640625,1.6005859375Z"/><path d="m141.431640625,99.8828125l5.4013671875-11.2622070312h-6.701171875v-2.2807617188h9.6220703125v1.8403320312l-5.4619140625,11.7626953125h-2.8603515625v-.0600585938Z"/><path d="m0,109.3178710938h1.890625l2.7880859375,7.5083007812,2.787109375-7.5083007812h1.8916015625l-3.6142578125,9.525390625h-2.12890625l-3.6142578125-9.525390625Z"/><path d="m9.0791015625,115.2573242188c0-2.2553710938,1.5263671875-3.7958984375,3.6279296875-3.7958984375s3.4736328125,1.4565429688,3.4736328125,3.5297851562c0,.23828125-.0419921875.57421875-.083984375.8686523438h-5.224609375c.181640625.9663085938.8544921875,1.6245117188,2.1015625,1.6245117188.8818359375,0,1.6240234375-.490234375,2.044921875-1.064453125l.98046875,1.1625976562c-.6728515625.8125-1.7373046875,1.4428710938-3.109375,1.4428710938-2.33984375,0-3.810546875-1.6669921875-3.810546875-3.7680664062Zm1.8212890625-.8544921875h3.515625c-.09765625-.9384765625-.7421875-1.470703125-1.708984375-1.470703125-.9248046875,0-1.568359375.5180664062-1.806640625,1.470703125Z"/><path d="m17.380859375,111.6293945312h1.7783203125v1.1206054688c.4208984375-.7705078125,1.12109375-1.2885742188,2.0732421875-1.2885742188h.2099609375v1.6948242188c-1.064453125.0141601562-1.9326171875.322265625-2.283203125,1.4008789062v4.2861328125h-1.7783203125v-7.2138671875Z"/><path d="m22.27734375,111.6293945312h1.7783203125v1.0083007812c.392578125-.6440429688,1.1630859375-1.1762695312,2.2831921091-1.1762695312,1.8769641409,0,2.7461047659,1.2885742188,2.7461047659,3.1376953125v4.244140625h-1.779296875v-4.0483398438c0-1.1484375-.5458984375-1.7509765625-1.5966796875-1.7509765625-.8828125,0-1.470703125.6025390625-1.6533203125,1.2607421875v4.5385742188h-1.7783203125v-7.2138671875Z"/><path d="m30.2060546875,115.2573242188c0-2.2553710938,1.5263671875-3.7958984375,3.6279296875-3.7958984375s3.4736328125,1.4565429688,3.4736328125,3.5297851562c0,.23828125-.0419921875.57421875-.083984375.8686523438h-5.224609375c.181640625.9663085938.8544921875,1.6245117188,2.1015625,1.6245117188.8818359375,0,1.6240234375-.490234375,2.044921875-1.064453125l.98046875,1.1625976562c-.6728515625.8125-1.7373046875,1.4428710938-3.109375,1.4428710938-2.33984375,0-3.810546875-1.6669921875-3.810546875-3.7680664062Zm1.8212890625-.8544921875h3.515625c-.09765625-.9384765625-.7421875-1.470703125-1.708984375-1.470703125-.9248046875,0-1.568359375.5180664062-1.806640625,1.470703125Z"/><path d="m38.5068359375,111.6293945312h1.7783203125v1.1206054688c.4208984375-.7705078125,1.12109375-1.2885742188,2.0732421875-1.2885742188h.2099609375v1.6948242188c-1.064453125.0141601562-1.9326171875.322265625-2.283203125,1.4008789062v4.2861328125h-1.7783203125v-7.2138671875Z"/><path d="m46.6259765625,109.3178710938h3.7548828125c2.0166015625,0,3.4033203125.9526367188,3.4033203125,2.9838867188s-1.38671875,2.9833984375-3.4033203125,2.9833984375h-1.93359375v3.5581054688h-1.8212890625v-9.525390625Zm3.5302734375,4.3706054688c1.0791015625,0,1.7509765625-.3642578125,1.7509765625-1.38671875s-.671875-1.38671875-1.7509765625-1.38671875h-1.708984375v2.7734375h1.708984375Z"/><path d="m60.0625,118.0166015625c-.5322265625.6025390625-1.3173828125.9946289062-2.255859375.9946289062-2.0029296875,0-3.4736328125-1.4848632812-3.4736328125-3.7680664062s1.470703125-3.7817382812,3.4736328125-3.7817382812c.9384765625,0,1.7236328125.40625,2.255859375,1.0083007812v-.8403320312h1.7783203125v7.2138671875h-1.7783203125v-.8266601562Zm0-1.6665039062v-2.2133789062c-.322265625-.6865234375-1.0654296875-1.0927734375-1.86328125-1.0927734375-1.1630859375,0-2.0595703125.798828125-2.0595703125,2.19921875,0,1.38671875.896484375,2.185546875,2.0595703125,2.185546875.7978515625,0,1.541015625-.40625,1.86328125-1.0786132812Z"/><path d="m63.443359375,111.6293945312h1.7783203125v1.0083007812c.392578125-.6440429688,1.1630859375-1.1762695312,2.283203125-1.1762695312,1.876953125,0,2.74609375,1.2885742188,2.74609375,3.1376953125v4.244140625h-1.779296875v-4.0483398438c0-1.1484375-.5458984375-1.7509765625-1.5966796875-1.7509765625-.8828125,0-1.470703125.6025390625-1.6533203125,1.2607421875v4.5385742188h-1.7783203125v-7.2138671875Z"/><path d="m72.1689453125,116.083984375v-3.0258789062h-1.2050902682v-1.4287109375h1.2607543307v-1.8349609375h1.72265625v1.8349609375h1.6669921875v1.4287109375h-1.6669921875v3.1098632812c0,.9243164062.4345703125,1.2465820312,1.3310546875,1.2465820312h.3359375v1.4287109375c-.23828125.0561523438-.5322265625.083984375-.7978515625.083984375-1.7509765625,0-2.6474609375-.8681640625-2.6474609375-2.8432617188Z"/><path d="m76.16015625,115.2431640625c0-1.9750976562,1.31640625-3.7817382812,3.8232421875-3.7817382812,2.5078125,0,3.82421875,1.806640625,3.82421875,3.7817382812,0,1.9892578125-1.31640625,3.7963867188-3.82421875,3.7963867188-2.5068359375,0-3.8232421875-1.8071289062-3.8232421875-3.7963867188Zm1.806640625,0c0,1.3447265625.8544921875,2.2133789062,2.0166015625,2.2133789062,1.1630859375,0,2.017578125-.8686523438,2.017578125-2.2133789062,0-1.3305664062-.8544921875-2.19921875-2.017578125-2.19921875-1.162109375,0-2.0166015625.8686523438-2.0166015625,2.19921875Z"/><path d="m84.9970703125,111.6293945312h1.7783203125v1.0083007812c.392578125-.6440429688,1.1630859375-1.1762695312,2.283203125-1.1762695312,1.876953125,0,2.74609375,1.2885742188,2.74609375,3.1376953125v4.244140625h-1.779296875v-4.0483398438c0-1.1484375-.5458984375-1.7509765625-1.5966796875-1.7509765625-.8828125,0-1.470703125.6025390625-1.6533203125,1.2607421875v4.5385742188h-1.7783203125v-7.2138671875Z"/><path d="m92.921875,115.2573242188c0-2.2553710938,1.5263671875-3.7958984375,3.6279296875-3.7958984375s3.4736328125,1.4565429688,3.4736328125,3.5297851562c0,.23828125-.0419921875.57421875-.083984375.8686523438h-5.224609375c.181640625.9663085938.8544921875,1.6245117188,2.1015625,1.6245117188.8818359375,0,1.6240234375-.490234375,2.044921875-1.064453125l.98046875,1.1625976562c-.6728515625.8125-1.7373046875,1.4428710938-3.1103515625,1.4428710938-2.3388671875,0-3.8095703125-1.6669921875-3.8095703125-3.7680664062Zm1.8212890625-.8544921875h3.515625c-.09765625-.9384765625-.7421875-1.470703125-1.708984375-1.470703125-.9248046875,0-1.568359375.5180664062-1.806640625,1.470703125Z"/><path d="m104.345703125,109.3178710938h1.8212890625v3.9223632812h4.720703125v-3.9223632812h1.8212890625v9.525390625h-1.8212890625v-4.0200195312h-4.720703125v4.0200195312h-1.8212890625v-9.525390625Z"/><path d="m114.0908203125,115.2431640625c0-1.9750976562,1.31640625-3.7817382812,3.82421875-3.7817382812,2.5068359375,0,3.8232421875,1.806640625,3.8232421875,3.7817382812,0,1.9892578125-1.31640625,3.7963867188-3.8232421875,3.7963867188-2.5078125,0-3.82421875-1.8071289062-3.82421875-3.7963867188Zm1.806640625,0c0,1.3447265625.8544921875,2.2133789062,2.017578125,2.2133789062,1.162109375,0,2.0166015625-.8686523438,2.0166015625-2.2133789062,0-1.3305664062-.8544921875-2.19921875-2.0166015625-2.19921875-1.1630859375,0-2.017578125.8686523438-2.017578125,2.19921875Z"/><path d="m129.6435546875,118.8432617188h-1.779296875v-1.0087890625c-.392578125.64453125-1.1630859375,1.1767578125-2.283203125,1.1767578125-1.876953125,0-2.7451171875-1.2885742188-2.7451171875-3.1376953125v-4.244140625h1.7783203125v4.0483398438c0,1.1484375.546875,1.7509765625,1.5966796875,1.7509765625.8828125,0,1.4716796875-.6025390625,1.6533203125-1.2607421875v-4.5385742188h1.779296875v7.2138671875Z"/><path d="m130.5810546875,117.6245117188l.966796875-1.1206054688c.4765625.5883789062,1.2890625,1.0786132812,2.1435546875,1.0786132812.7705078125,0,1.31640625-.3081054688,1.31640625-.8403320312,0-.4760742188-.4345703125-.6723632812-1.1201171875-.7846679688l-.64453125-.09765625c-1.3447265625-.2241210938-2.1572265625-.966796875-2.1572265625-2.1435546875,0-1.2465820312,1.064453125-2.2548828125,2.87109375-2.2548828125,1.134765625,0,2.0029296875.4760742188,2.5361328125,1.0922851562l-.9384765625,1.134765625c-.462890625-.490234375-1.0087890625-.7705078125-1.6669921875-.7705078125-.6728515625,0-1.0224609375.3081054688-1.0224609375.7006835938,0,.3637695312.279296875.5600585938.7978515625.6440429688l.64453125.0981445312c1.65234375.251953125,2.4794921875,1.0224609375,2.4794921875,2.283203125,0,1.302734375-1.134765625,2.3955078125-3.166015625,2.3955078125-1.3447265625,0-2.380859375-.6303710938-3.0400390625-1.4150390625Z"/><path d="m137.5107421875,115.2573242188c0-2.2553710938,1.5263671875-3.7958984375,3.6279296875-3.7958984375s3.4736328125,1.4565429688,3.4736328125,3.5297851562c0,.23828125-.0419921875.57421875-.083984375.8686523438h-5.224609375c.181640625.9663085938.8544921875,1.6245117188,2.1015625,1.6245117188.8818359375,0,1.6240234375-.490234375,2.044921875-1.064453125l.98046875,1.1625976562c-.6728515625.8125-1.7373046875,1.4428710938-3.109375,1.4428710938-2.33984375,0-3.810546875-1.6669921875-3.810546875-3.7680664062Zm1.8212890625-.8544921875h3.515625c-.09765625-.9384765625-.7421875-1.470703125-1.708984375-1.470703125-.9248185801,0-1.568359375.5180664062-1.806640625,1.470703125Z"/><path d="m.181640625,133.6821289062l1.19140625-1.1625976562c.5458984375.8544921875,1.470703125,1.6806640625,2.9130859375,1.6806640625,1.1767578125,0,1.79296875-.5883789062,1.79296875-1.3305664062,0-.6025390625-.419921875-1.064453125-1.541015625-1.2329101562l-.826171875-.1259765625c-1.6806640625-.251953125-2.8154296875-1.21875-2.8154296875-2.689453125,0-1.6108398438,1.31640625-2.8994140625,3.4462890625-2.8994140625,1.470703125,0,2.6748046875.6440429688,3.361328125,1.5405273438l-1.162109375,1.205078125c-.5888671875-.728515625-1.38671875-1.1069335938-2.2412109375-1.1069335938-.953125,0-1.513671875.5043945312-1.513671875,1.0786132812,0,.560546875.4208984375.966796875,1.2470703125,1.0927734375l.8125.1259765625c1.9609375.2939453125,3.109375,1.2749023438,3.109375,2.8857421875,0,1.8349609375-1.4990234375,3.095703125-3.697265625,3.095703125-2.19921875,0-3.404296875-1.134765625-4.0771484375-2.1572265625Z"/><path d="m8.1640625,128.4291992188h1.904296875l1.443359375,4.818359375,1.638671875-4.818359375h1.8916015625l1.638671875,4.818359375,1.4423828125-4.818359375h1.9052734375l-2.3671875,7.2138671875h-1.779296875l-1.7929794564-5.0146484375-1.7792861686,5.0146484375h-1.7783203125l-2.3671875-7.2138671875Z"/><path d="m20.810546875,125.361328125h1.8212890625v1.8491210938h-1.8212890625v-1.8491210938Zm.0283094356,3.0678710938h1.7783311894v7.2138671875h-1.7783311894v-7.2138671875Z"/><path d="m24.6650390625,132.8837890625v-3.0258789062h-1.205078125v-1.4287109375h1.2607421875v-1.8349609375h1.72265625v1.8349609375h1.6669921875v1.4287109375h-1.6669921875v3.1098632812c0,.9243164062.4345703125,1.2465820312,1.3310546875,1.2465820312h.3359375v1.4287109375c-.23828125.0561523438-.5322265625.083984375-.7978515625.083984375-1.7509765625,0-2.6474609375-.8681640625-2.6474609375-2.8432617188Z"/><path d="m28.7939453125,134.3681640625l3.740234375-4.5102539062h-3.48828125v-1.4287109375h5.7578125v1.2744140625l-3.7119140625,4.5107421875h3.7958984375v1.4287109375h-6.09375v-1.2749023438Z"/><path d="m35.513671875,132.0571289062c0-2.2553710938,1.5263671875-3.7958984375,3.6279296875-3.7958984375s3.4736328125,1.4565429688,3.4736328125,3.5297851562c0,.23828125-.0419921875.57421875-.083984375.8686523438h-5.224609375c.181640625.9663085938.8544921875,1.6245117188,2.1015625,1.6245117188.8818359375,0,1.6240234375-.490234375,2.044921875-1.064453125l.98046875,1.1625976562c-.6728515625.8125-1.7373046875,1.4428710938-3.1103515625,1.4428710938-2.3388671875,0-3.8095703125-1.6669921875-3.8095703125-3.7680664062Zm1.8212890625-.8544921875h3.515625c-.09765625-.9384765625-.7421875-1.470703125-1.708984375-1.470703125-.9248046875,0-1.568359375.5180664062-1.806640625,1.470703125Z"/><path d="m43.814453125,128.4291992188h1.7783203125v1.1206054688c.4208984375-.7705078125,1.1210822194-1.2885742188,2.0732421875-1.2885742188h.2099609375v1.6948242188c-1.064453125.0141601562-1.9326171875.322265625-2.283203125,1.4008789062v4.2861328125h-1.7783203125v-7.2138671875Z"/><path d="m48.7109375,125.6977539062h1.7783203125v9.9453125h-1.7783203125v-9.9453125Z"/><path d="m57.44140625,134.81640625c-.5322265625.6025390625-1.3173828125.9946289062-2.255859375.9946289062-2.0029296875,0-3.4736328125-1.4848632812-3.4736328125-3.7680664062s1.470703125-3.7817382812,3.4736328125-3.7817382812c.9384765625,0,1.7236328125.40625,2.255859375,1.0083007812v-.8403320312h1.7783203125v7.2138671875h-1.7783203125v-.8266601562Zm0-1.6665039062v-2.2133789062c-.322265625-.6865234375-1.0654296875-1.0927734375-1.86328125-1.0927734375-1.1630859375,0-2.0595703125.798828125-2.0595703125,2.19921875,0,1.38671875.896484375,2.185546875,2.0595703125,2.185546875.7978515625,0,1.541015625-.40625,1.86328125-1.0786132812Z"/><path d="m60.822265625,128.4291992188h1.7783203125v1.0083007812c.392578125-.6440429688,1.1630859375-1.1762695312,2.283203125-1.1762695312,1.876953125,0,2.74609375,1.2885742188,2.74609375,3.1376953125v4.244140625h-1.779296875v-4.0483398438c0-1.1484375-.5458984375-1.7509765625-1.5966796875-1.7509765625-.8828125,0-1.470703125.6025390625-1.6533203125,1.2607421875v4.5385742188h-1.7783203125v-7.2138671875Z"/><path d="m74.4794921875,134.81640625c-.5322265625.6025390625-1.3173828125.9946289062-2.255859375.9946289062-2.0029296875,0-3.4736328125-1.4848632812-3.4736328125-3.7680664062s1.470703125-3.7817382812,3.4736328125-3.7817382812c.9384765625,0,1.7236328125.40625,2.255859375,1.0083007812v-3.5717773438h1.7783203125v9.9453125h-1.7783203125v-.8266601562Zm0-1.6665039062v-2.2133789062c-.322265625-.6865234375-1.0654296875-1.0927734375-1.86328125-1.0927734375-1.1630859375,0-2.0595703125.798828125-2.0595703125,2.19921875,0,1.38671875.896484375,2.185546875,2.0595703125,2.185546875.7978515625,0,1.541015625-.40625,1.86328125-1.0786132812Z"/><path d="m78.8134765625,136.2734375h-.98046875v-2.1430664062h2.1572265625v1.8911132812l-.966796875,2.3251953125h-1.0498046875l.83984375-2.0732421875Z"/><path d="m85.99609375,128.1489257812l-1.7373046875.9526367188-.658203125-1.38671875,2.84375-1.5971679688h1.330078125v9.525390625h-1.7783203125v-7.494140625Z"/><path d="m96.9580078125,130.642578125c0,3.2495117188-1.6943359375,5.1967773438-4.3701171875,5.1967773438-1.52734375,0-2.6337890625-.7426757812-3.236328125-1.6391601562l1.21875-1.0922851562c.40625.6298828125,1.134765625,1.078125,2.017578125,1.078125,1.3310546875,0,2.3251953125-.896484375,2.5068359375-2.619140625-.57421875.6303710938-1.3720703125,1.0786132812-2.46484375,1.0786132812-1.79296875,0-3.333984375-1.3168945312-3.333984375-3.3198242188s1.6669921875-3.4038085938,3.6982421875-3.4038085938c2.60546875,0,3.9638671875,1.9887695312,3.9638671875,4.720703125Zm-5.8271484375-1.3588867188c0,.9384765625.7001953125,1.72265625,1.86328125,1.72265625,1.1484375,0,1.8486328125-.7841796875,1.8486328125-1.72265625,0-.9248046875-.7001953125-1.708984375-1.8486328125-1.708984375-1.1630859375,0-1.86328125.7841796875-1.86328125,1.708984375Z"/><path d="m98.349609375,135.6010742188l3.7822265625-7.8862304688h-4.693359375v-1.5971679688h6.73828125v1.2890625l-3.82421875,8.236328125h-2.0029296875v-.0419921875Z"/><path d="m104.7861328125,134.2841796875c1.1767578125-2.2548828125,4.7626953125-3.2915039062,4.7626953125-5.1684570312,0-.8125-.4482421875-1.541015625-1.6533203125-1.541015625-.8681640625,0-1.4287109375.4760742188-1.6953125,1.2749023438l-1.3720703125-.7568359375c.3359375-.98046875,1.260729157-2.1708984375,3.1513671875-2.1708984375,2.1435546875,0,3.34765625,1.3588867188,3.34765625,3.0815429688,0,2.8017578125-3.3056640625,3.7958984375-4.1884765625,5.04296875h4.37109375v1.5966796875h-6.7236328125v-1.3588867188Z"/><path d="m112.462890625,130.6845703125h4.08984375v1.4287109375h-4.08984375v-1.4287109375Z"/><path d="m119.009765625,128.1489257812l-1.7373046875.9526367188-.658203125-1.38671875,2.84375-1.5971679688h1.330078125v9.525390625h-1.7783203125v-7.494140625Z"/><path d="m129.9716796875,130.642578125c0,3.2495117188-1.6943359375,5.1967773438-4.3701171875,5.1967773438-1.52734375,0-2.6337890625-.7426757812-3.236328125-1.6391601562l1.21875-1.0922851562c.40625.6298828125,1.134765625,1.078125,2.017578125,1.078125,1.3310546875,0,2.3251953125-.896484375,2.5068359375-2.619140625-.57421875.6303710938-1.3720703125,1.0786132812-2.46484375,1.0786132812-1.79296875,0-3.333984375-1.3168945312-3.333984375-3.3198242188s1.6669921875-3.4038085938,3.6982421875-3.4038085938c2.60546875,0,3.9638671875,1.9887695312,3.9638671875,4.720703125Zm-5.8271484375-1.3588867188c0,.9384765625.7001953125,1.72265625,1.86328125,1.72265625,1.1484375,0,1.8486328125-.7841796875,1.8486328125-1.72265625,0-.9248046875-.7001953125-1.708984375-1.8486328125-1.708984375-1.1630859375,0-1.86328125.7841796875-1.86328125,1.708984375Z"/><path d="m130.9150390625,132.939453125c0-1.1342773438.6865234375-2.0869140625,1.7646484375-2.4233398438-.826171875-.419921875-1.232421875-1.1206054688-1.232421875-2.0029296875,0-1.4008789062,1.134765625-2.5913085938,3.34765625-2.5913085938s3.34765625,1.1904296875,3.34765625,2.5913085938c0,.8823242188-.40625,1.5830078125-1.232421875,2.0029296875,1.078125.3364257812,1.7646484375,1.2890625,1.7646484375,2.4233398438,0,1.6528320312-1.302734375,2.8999023438-3.8798828125,2.8999023438s-3.8798828125-1.2470703125-3.8798828125-2.8999023438Zm1.8203125-.1538085938c0,.7705078125.6591796875,1.4287109375,2.0595703125,1.4287109375s2.05859375-.658203125,2.05859375-1.4287109375-.658203125-1.4287109375-2.05859375-1.4287109375-2.0595703125.658203125-2.0595703125,1.4287109375Zm.5322265625-4.1181640625c0,.6860351562.630859375,1.1206054688,1.52734375,1.1206054688s1.5263671875-.4345703125,1.5263671875-1.1206054688c0-.6865234375-.6298828125-1.1206054688-1.5263671875-1.1206054688s-1.52734375.4340820312-1.52734375,1.1206054688Z"/><path d="m140.0458984375,135.6010742188l3.7822265625-7.8862304688h-4.6923828125v-1.5971679688h6.7373046875v1.2890625l-3.82421875,8.236328125h-2.0029296875v-.0419921875Z"/><rect class="cls-1" y="0" width="318.1005859375" height="138.3466796875"/></g></svg>