<?xml version="1.0" encoding="UTF-8"?><svg id="_레이어_2" xmlns="http://www.w3.org/2000/svg" viewBox="0 0 318.1005859375 95.0112304688"><defs><style>.cls-1{fill:none;}</style></defs><g id="Layer_1"><path d="m.6923828125,13.0629882813h15.84375v2.220703125H.6923828125v-2.220703125ZM2.9736328125,1.140625h2.560546875v2.400390625h6.1611328125V1.140625h2.560546875v9.001953125H3.93359375c-.6005859375,0-.9599609375-.240234375-.9599609375-.8002929688V1.140625Zm2.560546875,4.5009765625v2.3203125h6.1611328125v-2.3203125h-6.1611328125Z"/><path d="m17.47265625,1.0205078125h8.28125v5.6411132812h-5.720703125v1.66015625h4.220703125c1.48046875,0,2.8408203125-.1997070312,3.8408203125-.7197265625V0h2.560546875v4.7412109375h2.3408203125v2.220703125h-2.3408203125v5.9809570312h-2.560546875v-3.7006835938c-1.259765625.8203125-3.060546875,1.1401367188-5.060546875,1.1401367188h-4.5810546875c-.6201171875,0-.98046875-.2397460938-.98046875-.8198242188v-4.8813476562h5.7607421875v-1.580078125h-5.7607421875V1.0205078125Zm2.400390625,10.58203125h2.560546875v3.6010742188h8.7822265625v2.1801757812h-10.3828125c-.599609375,0-.9599609375-.259765625-.9599609375-.8198242188v-4.9614257812Z"/><path d="m34.056640625,7.3017578125h15.84375v1.98046875h-15.84375v-1.98046875Zm2.3212890625,3.1806640625h11.2021484375v4.6411132812h-8.6416015625v1.0600585938h9.08203125v1.900390625h-10.6826171875c-.6005859375,0-.9599609375-.259765625-.9599609375-.8203125v-3.9204101562h8.6416015625v-1.0004882812h-8.6416015625v-1.8603515625Zm.1201171875-9.8818359375h10.9619140625v2.0200195312h-8.4013671875v1.5004882812h8.6015625v1.98046875h-10.2021484375c-.6005859375,0-.9599609375-.240234375-.9599609375-.8002929688V.6005859375Z"/><path d="m50.681640625,10.8227539063h15.84375v2.16015625h-6.6416015625v4.380859375h-2.560546875v-4.380859375h-6.6416015625v-2.16015625Zm1.5009765625-7.421875h12.8427734375v2.0405273438h-2.0810546875c.3408203125.3598632812.5205078125.7802734375.5205078125,1.2602539062,0,1.9404296875-1.720703125,3.3608398438-4.861328125,3.3608398438s-4.8408203125-1.4204101562-4.8408203125-3.3608398438c0-.4799804688.1796875-.900390625.5-1.2602539062h-2.080078125v-2.0405273438Zm2.880859375-3.1206054688h7.0810546875v2.1005859375h-7.0810546875V.2802734375Zm3.5400390625,7.7216796875c1.640625,0,2.3408203125-.580078125,2.3408203125-1.3002929688,0-.7001953125-.7001953125-1.3002929688-2.3408203125-1.3002929688-1.6396484375,0-2.3203125.6000976562-2.3203125,1.3002929688,0,.7202148438.6806640625,1.3002929688,2.3203125,1.3002929688Z"/><path d="m68.2724609375,1.4404296875h2.5v3.4208984375h3.3408203125V1.4404296875h2.4609375v4.541015625h2.7607421875V0h2.560546875v17.2836914062h-2.560546875v-9.1015625h-2.7607421875v4.7006835938h-7.3212890625c-.6201171875,0-.98046875-.2397460938-.98046875-.8198242188V1.4404296875Zm2.5,5.5615234375v3.7006835938h3.3408203125v-3.7006835938h-3.3408203125Z"/><path d="m93.1318359375,10.0825195313h-3.66015625v-2.2407226562h3.66015625v-3.6606445312h2.240234375v3.6606445312h3.6611328125v2.2407226562h-3.6611328125v3.6606445312h-2.240234375v-3.6606445312Z"/><path d="m114.033203125.2001953125h2.419921875v9.3623046875h-2.419921875v-3.5610351562h-1.220703125c-.3203125,2.1206054688-1.7001953125,3.2006835938-3.6806640625,3.2006835938-2.3203125,0-3.8212890625-1.4404296875-3.8212890625-4.2407226562,0-2.8208007812,1.5009765625-4.2612304688,3.8212890625-4.2612304688,1.98046875,0,3.3408203125,1.0805664062,3.6806640625,3.1806640625h1.220703125V.2001953125Zm-6.341796875,4.7612304688c0,1.4599609375.5205078125,2.1401367188,1.4404296875,2.1401367188.900390625,0,1.419921875-.6801757812,1.419921875-2.1401367188,0-1.5004882812-.51953125-2.1806640625-1.419921875-2.1806640625-.919921875,0-1.4404296875.6801757812-1.4404296875,2.1806640625Zm1.240234375,5.6411132812h11.1826171875v6.9013671875h-10.22265625c-.599609375,0-.9599609375-.259765625-.9599609375-.8203125v-6.0810546875Zm2.560546875,2.1606445312v2.560546875h6.0615234375v-2.560546875h-6.0615234375ZM117.673828125,0h2.4404296875v9.662109375h-2.4404296875V0Z"/><path d="m121.9169921875,12.962890625h15.84375v2.220703125h-15.84375v-2.220703125Zm2.28125-11.5825195312h11.2822265625v2.220703125h-8.7216796875v4.0209960938h8.921875v2.2202148438h-10.5224609375c-.6005859375,0-.9599609375-.2602539062-.9599609375-.8203125V1.3803710938Z"/><path d="m141.2138671875,15.923828125h-1.400390625v-3.0610351562h3.080078125v2.7006835938l-1.3798828125,3.3208007812h-1.5l1.2001953125-2.9604492188Z"/><path d="m149.7734375.7001953125h2.5v1.6206054688h3.3408203125V.7001953125h2.4609375v2.7807617188h2.7607421875V0h2.560546875v8.8022460938h-2.560546875v-3.1606445312h-2.7607421875v2.7001953125h-7.3212890625c-.6201171875,0-.98046875-.259765625-.98046875-.8198242188V.7001953125Zm2.5,3.7211914062v1.7802734375h3.3408203125v-1.7802734375h-3.3408203125Zm.140625,5.1806640625h10.982421875v4.8813476562h-8.4423828125v1.1000976562h8.8818359375v2.0004882812h-10.4619140625c-.6005859375,0-.9599609375-.2602539062-.9599609375-.8203125v-4.1606445312h8.44140625v-1.0405273438h-8.44140625v-1.9604492188Z"/><path d="m167.849609375.6801757813h10.9619140625v4.6411132812h-8.4013671875v1.1000976562h8.7216796875v1.80078125h-4.521484375v1.5600585938h6.6416015625v1.98046875h-15.84375v-1.98046875h6.6416015625v-1.5600585938h-3.240234375c-.6005859375,0-.9599609375-.240234375-.9599609375-.8002929688v-3.8208007812h8.4013671875v-1.0600585938h-8.4013671875V.6801757813Zm-.1201171875,12.0830078125h2.560546875v2.6000976562h8.8818359375v2.0805664062h-10.482421875c-.6005859375,0-.9599609375-.259765625-.9599609375-.8198242188v-3.8608398438Z"/><path d="m1.0498046875,24.3984375h3.9365234375c1.9189453125,0,3.109375.9389648438,3.109375,2.5356445312,0,.7841796875-.3916015625,1.470703125-1.091796875,1.9047851562,1.064453125.3364257812,1.806640625,1.0786132812,1.806640625,2.3676757812,0,1.72265625-1.205078125,2.7172851562-3.41796875,2.7172851562H1.0498046875v-9.525390625Zm3.6982421875,3.9223632812c1.064453125,0,1.470703125-.4760742188,1.470703125-1.2045898438s-.40625-1.2045898438-1.470703125-1.2045898438h-1.876953125v2.4091796875h1.876953125Zm.57421875,4.0903320312c1.1064453125,0,1.611328125-.4765625,1.611328125-1.2890625,0-.8120117188-.5048828125-1.2885742188-1.611328125-1.2885742188h-2.451171875v2.5776367188h2.451171875Z"/><path d="m10.06640625,26.7099609375h1.7783203125v1.1206054688c.4208984375-.7705078125,1.12109375-1.2885742188,2.0732421875-1.2885742188h.2099609375v1.6948242188c-1.064453125.0141601562-1.9326171875.322265625-2.283203125,1.4008789062v4.2861328125h-1.7783203125v-7.2138671875Z"/><path d="m20.3154296875,33.0971679688c-.5322265625.6025390625-1.3173828125.9946289062-2.255859375.9946289062-2.0029296875,0-3.4736328125-1.4848632812-3.4736328125-3.7680664062s1.470703125-3.7817382812,3.4736328125-3.7817382812c.9384765625,0,1.7236328125.40625,2.255859375,1.0083007812v-.8403320312h1.7783203125v7.2138671875h-1.7783203125v-.8266601562Zm0-1.6665039062v-2.2133789062c-.322265625-.6865234375-1.0654296875-1.0927734375-1.86328125-1.0927734375-1.1630859375,0-2.0595703125.798828125-2.0595703125,2.19921875,0,1.38671875.896484375,2.185546875,2.0595703125,2.185546875.7978515625,0,1.541015625-.40625,1.86328125-1.0786132812Z"/><path d="m23.6962890625,26.7099609375h1.7783203125v1.0083007812c.392578125-.6440429688,1.1630859375-1.1762695312,2.283203125-1.1762695312,1.876953125,0,2.74609375,1.2885742188,2.74609375,3.1376953125v4.244140625h-1.779296875v-4.0483398438c0-1.1484375-.5458984375-1.7509765625-1.5966796875-1.7509765625-.8828125,0-1.470703125.6025390625-1.6533203125,1.2607421875v4.5385742188h-1.7783203125v-7.2138671875Z"/><path d="m37.3544921875,33.0971679688c-.5322265625.6025390625-1.3173828125.9946289062-2.255859375.9946289062-2.0029296875,0-3.4736328125-1.4848632812-3.4736328125-3.7680664062s1.470703125-3.7817382812,3.4736328125-3.7817382812c.9384765625,0,1.7236328125.40625,2.255859375,1.0083007812v-3.5717773438h1.7783203125v9.9453125h-1.7783203125v-.8266601562Zm0-1.6665039062v-2.2133789062c-.322265625-.6865234375-1.0654296875-1.0927734375-1.86328125-1.0927734375-1.1630859375,0-2.0595703125.798828125-2.0595703125,2.19921875,0,1.38671875.896484375,2.185546875,2.0595703125,2.185546875.7978515625,0,1.541015625-.40625,1.86328125-1.0786132812Z"/><path d="m40.73046875,23.978515625h1.7783203125v9.9453125h-1.7783203125v-9.9453125Z"/><path d="m44.0888671875,23.978515625h1.7783203125v3.7397460938c.392578125-.6440429688,1.1630859375-1.1762695312,2.283203125-1.1762695312,1.876953125,0,2.74609375,1.2885742188,2.74609375,3.1376953125v4.244140625h-1.779296875v-4.0483398438c0-1.1484375-.5458984375-1.7509765625-1.5966796875-1.7509765625-.953125,0-1.4990234375.7006835938-1.6533203125,1.2607421875v4.5385742188h-1.7783203125v-9.9453125Z"/><path d="m59.1220703125,33.923828125h-1.779296875v-1.0087890625c-.392578125.64453125-1.1630859375,1.1767578125-2.283203125,1.1767578125-1.876953125,0-2.7451171875-1.2885742188-2.7451171875-3.1376953125v-4.244140625h1.7783203125v4.0483398438c0,1.1484375.546875,1.7509765625,1.5966796875,1.7509765625.8828125,0,1.4716796875-.6025390625,1.6533203125-1.2607421875v-4.5385742188h1.779296875v7.2138671875Z"/><path d="m62.49609375,33.923828125h-1.779296875v-9.9453125h1.779296875v3.5717773438c.517578125-.6020507812,1.302734375-1.0083007812,2.2548828125-1.0083007812,2.0029296875,0,3.4736328125,1.4985351562,3.4736328125,3.7817382812s-1.470703125,3.7680664062-3.4736328125,3.7680664062c-.9521484375,0-1.7373046875-.3920898438-2.2548828125-.9946289062v.8266601562Zm3.921875-3.6000976562c0-1.400390625-.896484375-2.19921875-2.0595703125-2.19921875-.7978515625,0-1.5400390625.40625-1.8623046875,1.0927734375v2.2133789062c.322265625.6723632812,1.064453125,1.0786132812,1.8623046875,1.0786132812,1.1630859375,0,2.0595703125-.798828125,2.0595703125-2.185546875Z"/><path d="m69.056640625,30.337890625c0-2.2553710938,1.5263671875-3.7958984375,3.6279296875-3.7958984375s3.4736328125,1.4565429688,3.4736328125,3.5297851562c0,.23828125-.0419921875.57421875-.083984375.8686523438h-5.224609375c.181640625.9663085938.8544921875,1.6245117188,2.1015625,1.6245117188.8818359375,0,1.6240234375-.490234375,2.044921875-1.064453125l.98046875,1.1625976562c-.6728515625.8125-1.7373046875,1.4428710938-3.1103515625,1.4428710938-2.3388671875,0-3.8095703125-1.6669921875-3.8095703125-3.7680664062Zm1.8212890625-.8544921875h3.515625c-.09765625-.9384765625-.7421875-1.470703125-1.708984375-1.470703125-.9248046875,0-1.568359375.5180664062-1.806640625,1.470703125Z"/><path d="m77.3564453125,26.7099609375h1.7783203125v1.1206054688c.4208984375-.7705078125,1.12109375-1.2885742188,2.0732421875-1.2885742188h.2099609375v1.6948242188c-1.064453125.0141601562-1.9326171875.322265625-2.283203125,1.4008789062v4.2861328125h-1.7783203125v-7.2138671875Z"/><path d="m87.857421875,30.4638671875h-2.5634765625v-1.5688476562h2.5634765625v-2.5634765625h1.568359375v2.5634765625h2.5634765625v1.5688476562h-2.5634765625v2.5634765625h-1.568359375v-2.5634765625Z"/><path d="m96.744140625,24.3984375h6.6962890625v1.5971679688h-4.875v2.3251953125h4.2021484375v1.5830078125h-4.2021484375v2.4233398438h4.875v1.5966796875h-6.6962890625v-9.525390625Z"/><path d="m114.60546875,29.8754882813c0-1.1484375-.4765625-1.7509765625-1.541015625-1.7509765625-.896484375,0-1.4150390625.6025390625-1.5966796875,1.2607421875v4.5385742188h-1.779296875v-4.0483398438c0-1.1484375-.490234375-1.7509765625-1.541015625-1.7509765625-.8818359375,0-1.4140625.6025390625-1.5966796875,1.2607421875v4.5385742188h-1.7783203125v-7.2138671875h1.7783203125v1.0083007812c.392578125-.6440429688,1.1064453125-1.1762695312,2.2275390625-1.1762695312,1.1904296875,0,1.947265625.5180664062,2.3388671875,1.3725585938.5322265625-.8686523438,1.3447265625-1.3725585938,2.578125-1.3725585938,1.876953125,0,2.689453125,1.2885742188,2.689453125,3.1376953125v4.244140625h-1.779296875v-4.0483398438Z"/><path d="m123.25390625,33.0971679688c-.5322265625.6025390625-1.3173828125.9946289062-2.255859375.9946289062-2.0029296875,0-3.4736328125-1.4848632812-3.4736328125-3.7680664062s1.470703125-3.7817382812,3.4736328125-3.7817382812c.9384765625,0,1.7236328125.40625,2.255859375,1.0083007812v-3.5717773438h1.7783203125v9.9453125h-1.7783203125v-.8266601562Zm0-1.6665039062v-2.2133789062c-.322265625-.6865234375-1.0654296875-1.0927734375-1.86328125-1.0927734375-1.1630859375,0-2.0595703125.798828125-2.0595703125,2.19921875,0,1.38671875.896484375,2.185546875,2.0595703125,2.185546875.7978515625,0,1.541015625-.40625,1.86328125-1.0786132812Z"/><path d="m126.2353515625,30.337890625c0-2.2553710938,1.5263671875-3.7958984375,3.6279296875-3.7958984375s3.4736328125,1.4565429688,3.4736328125,3.5297851562c0,.23828125-.0419921875.57421875-.083984375.8686523438h-5.224609375c.181640625.9663085938.8544921875,1.6245117188,2.1015625,1.6245117188.8818359375,0,1.6240234375-.490234375,2.044921875-1.064453125l.98046875,1.1625976562c-.6728515625.8125-1.7373046875,1.4428710938-3.109375,1.4428710938-2.33984375,0-3.810546875-1.6669921875-3.810546875-3.7680664062Zm1.8212890625-.8544921875h3.515625c-.09765625-.9384765625-.7421875-1.470703125-1.708984375-1.470703125-.9248046875,0-1.568359375.5180664062-1.806640625,1.470703125Z"/><path d="m135.388671875,34.5541992188h-.98046875v-2.1430664062h2.1572265625v1.8911132812l-.966796875,2.3251953125h-1.0498046875l.83984375-2.0732421875Z"/><path d="m141.2109375,24.3984375h3.9365234375c1.9189453125,0,3.109375.9389648438,3.109375,2.5356445312,0,.7841796875-.3916015625,1.470703125-1.091796875,1.9047851562,1.064453125.3364257812,1.806640625,1.0786132812,1.806640625,2.3676757812,0,1.72265625-1.205078125,2.7172851562-3.41796875,2.7172851562h-4.3427734375v-9.525390625Zm3.6982421875,3.9223632812c1.064453125,0,1.470703125-.4760742188,1.470703125-1.2045898438s-.40625-1.2045898438-1.470703125-1.2045898438h-1.876953125v2.4091796875h1.876953125Zm.57421875,4.0903320312c1.1064453125,0,1.611328125-.4765625,1.611328125-1.2890625,0-.8120117188-.5048828125-1.2885742188-1.611328125-1.2885742188h-2.451171875v2.5776367188h2.451171875Z"/><path d="m156.9375,33.923828125h-1.779296875v-1.0087890625c-.392578125.64453125-1.1630859375,1.1767578125-2.283203125,1.1767578125-1.876953125,0-2.7451171875-1.2885742188-2.7451171875-3.1376953125v-4.244140625h1.7783203125v4.0483398438c0,1.1484375.546875,1.7509765625,1.5966796875,1.7509765625.8828125,0,1.470703125-.6025390625,1.6533203125-1.2607421875v-4.5385742188h1.779296875v7.2138671875Z"/><path d="m158.525390625,26.7099609375h1.7783203125v1.1206054688c.4208984375-.7705078125,1.12109375-1.2885742188,2.0732421875-1.2885742188h.2099609375v1.6948242188c-1.064453125.0141601562-1.9326171875.322265625-2.283203125,1.4008789062v4.2861328125h-1.7783203125v-7.2138671875Z"/><path d="m163.421875,23.978515625h1.7783203125v9.9453125h-1.7783203125v-9.9453125Z"/><path d="m166.3955078125,30.3237304688c0-1.9750976562,1.31640625-3.7817382812,3.82421875-3.7817382812,2.5068359375,0,3.8232421875,1.806640625,3.8232421875,3.7817382812,0,1.9892578125-1.31640625,3.7963867188-3.8232421875,3.7963867188-2.5078125,0-3.82421875-1.8071289062-3.82421875-3.7963867188Zm1.806640625,0c0,1.3447265625.8544921875,2.2133789062,2.017578125,2.2133789062,1.162109375,0,2.0166015625-.8686523438,2.0166015625-2.2133789062,0-1.3305664062-.8544921875-2.19921875-2.0166015625-2.19921875-1.1630859375,0-2.017578125.8686523438-2.017578125,2.19921875Z"/><path d="m175.2314453125,26.7099609375h1.7783203125v1.0083007812c.392578125-.6440429688,1.1630859375-1.1762695312,2.283203125-1.1762695312,1.876953125,0,2.74609375,1.2885742188,2.74609375,3.1376953125v4.244140625h-1.779296875v-4.0483398438c0-1.1484375-.5458984375-1.7509765625-1.5966796875-1.7509765625-.8828125,0-1.470703125.6025390625-1.6533203125,1.2607421875v4.5385742188h-1.7783203125v-7.2138671875Z"/><path d="m5.5537109375,61.7797851563c2.9208984375,0,4.7412109375,1.8603515625,4.7412109375,4.5610351562,0,2.720703125-1.8203125,4.5810546875-4.7412109375,4.5810546875s-4.7607421875-1.8603515625-4.7607421875-4.5810546875c0-2.7006835938,1.83984375-4.5610351562,4.7607421875-4.5610351562Zm0,6.9814453125c1.3203125,0,2.2001953125-.9799804688,2.2001953125-2.4204101562,0-1.4204101562-.8798828125-2.400390625-2.2001953125-2.400390625s-2.2001953125.9799804688-2.2001953125,2.400390625c0,1.4404296875.8798828125,2.4204101562,2.2001953125,2.4204101562Zm-1.7802734375,3.3608398438h2.560546875v3.9809570312h8.76171875v2.1801757812H4.7333984375c-.599609375,0-.9599609375-.2397460938-.9599609375-.8198242188v-5.3413085938Zm8.2021484375-11.2026367188h2.560546875v4.6411132812h2.3603515625v2.220703125h-2.3603515625v5.8813476562h-2.560546875v-12.7431640625Z"/><path d="m18.5048828125,62.4599609375h8.421875v2.1806640625h-5.861328125v2.400390625h5.361328125v2.1206054688h-5.361328125v2.560546875h4.5009765625c1.48046875,0,2.8408203125-.2001953125,3.8408203125-.7202148438v-10.0825195312h2.560546875v17.2836914062h-2.560546875v-5.4409179688c-1.2607421875.8203125-3.060546875,1.1401367188-5.0615234375,1.1401367188h-4.861328125c-.6201171875,0-.9794921875-.2397460938-.9794921875-.8203125v-10.6220703125Z"/><path d="m34.69140625,61.6196289063h2.5v1.6206054688h3.4208984375v-1.6206054688h2.4609375v7.6416015625h-7.40234375c-.6201171875,0-.9794921875-.259765625-.9794921875-.8198242188v-6.8217773438Zm2.5,3.7211914062v1.7802734375h3.4208984375v-1.7802734375h-3.4208984375Zm.140625,5.1806640625h10.822265625v4.8813476562h-8.2822265625v1.1000976562h8.7216796875v2.0004882812h-10.3017578125c-.6005859375,0-.9599609375-.2602539062-.9599609375-.8203125v-4.1606445312h8.28125v-1.0405273438h-8.28125v-1.9604492188Zm8.26171875-9.6020507812h2.560546875v8.8022460938h-2.560546875v-8.8022460938Z"/><path d="m50.8583984375,62.4599609375h8.28125v6.6616210938h-5.720703125v2.6005859375h4.220703125c1.48046875,0,2.8408203125-.2001953125,3.8408203125-.7202148438v-10.0825195312h2.560546875v5.9614257812h2.3408203125v2.2006835938h-2.3408203125v9.1215820312h-2.560546875v-5.4409179688c-1.259765625.8203125-3.060546875,1.1401367188-5.060546875,1.1401367188h-4.5810546875c-.6201171875,0-.98046875-.2397460938-.98046875-.8203125v-6.0810546875h5.7607421875v-2.3603515625h-5.7607421875v-2.1806640625Z"/><path d="m3.7119140625,85.3178710938h2.142578125l3.7119140625,9.525390625h-1.890625l-.7705078125-2.0170898438H2.6611328125l-.7705078125,2.0170898438H0l3.7119140625-9.525390625Zm-.4482421875,5.9252929688h3.025390625l-1.5126953125-3.9780273438-1.5126953125,3.9780273438Z"/><path d="m10.35546875,87.6293945313h1.7783203125v1.0083007812c.392578125-.6440429688,1.1630859375-1.1762695312,2.283203125-1.1762695312,1.876953125,0,2.74609375,1.2885742188,2.74609375,3.1376953125v4.244140625h-1.779296875v-4.0483398438c0-1.1484375-.5458984375-1.7509765625-1.5966796875-1.7509765625-.8828125,0-1.470703125.6025390625-1.6533203125,1.2607421875v4.5385742188h-1.7783203125v-7.2138671875Z"/><path d="m19.0810546875,92.083984375v-3.0258789062h-1.205078125v-1.4287109375h1.2607421875v-1.8349609375h1.72265625v1.8349609375h1.6669921875v1.4287109375h-1.6669921875v3.1098632812c0,.9243164062.4345703125,1.2465820312,1.3310546875,1.2465820312h.3359375v1.4287109375c-.23828125.0561523438-.5322265625.083984375-.7978515625.083984375-1.7509765625,0-2.6474609375-.8681640625-2.6474609375-2.8432617188Z"/><path d="m23.6220703125,84.5615234375h1.8212890625v1.8491210938h-1.8212890625v-1.8491210938Zm.0283203125,3.0678710938h1.7783203125v7.2138671875h-1.7783203125v-7.2138671875Z"/><path d="m26.21484375,87.6293945313h1.9052734375l1.9189453125,5.0146484375,1.9189453125-5.0146484375h1.9052734375l-2.94140625,7.2138671875h-1.779296875l-2.927734375-7.2138671875Z"/><path d="m34.6279296875,84.5615234375h1.8212890625v1.8491210938h-1.8212890625v-1.8491210938Zm.0283203125,3.0678710938h1.7783203125v7.2138671875h-1.7783203125v-7.2138671875Z"/><path d="m38.01953125,84.8979492188h1.7783203125v9.9453125h-1.7783203125v-9.9453125Z"/><path d="m41.3818359375,84.8979492188h1.7783203125v9.9453125h-1.7783203125v-9.9453125Z"/><path d="m50.111328125,94.0166015625c-.5322265625.6025390625-1.3173828125.9946289062-2.255859375.9946289062-2.0029296875,0-3.4736328125-1.4848632812-3.4736328125-3.7680664062s1.470703125-3.7817382812,3.4736328125-3.7817382812c.9384765625,0,1.7236328125.40625,2.255859375,1.0083007812v-.8403320312h1.7783203125v7.2138671875h-1.7783203125v-.8266601562Zm0-1.6665039062v-2.2133789062c-.322265625-.6865234375-1.0654296875-1.0927734375-1.86328125-1.0927734375-1.1630859375,0-2.0595703125.798828125-2.0595703125,2.19921875,0,1.38671875.896484375,2.185546875,2.0595703125,2.185546875.7978515625,0,1.541015625-.40625,1.86328125-1.0786132812Z"/><rect class="cls-1" width="318.1005859375" height="95.0112304688"/></g></svg>