<?xml version="1.0" encoding="UTF-8"?><svg id="_레이어_2" xmlns="http://www.w3.org/2000/svg" viewBox="0 0 318.1005859375 138.3466796875"><defs><style>.cls-1{fill:none;}</style></defs><g id="Layer_1"><path d="m10.4951171875,7.181640625c0,2.9409179688-1.1806640625,5.8012695312-4.62109375,5.8012695312-3.4609375,0-4.6611328125-2.8603515625-4.6611328125-5.8012695312C1.212890625,4.2412109375,2.4130859375,1.3803710938,5.8740234375,1.3803710938c3.4404296875,0,4.62109375,2.8608398438,4.62109375,5.8012695312Zm-6.7216796875,0c0,1.6206054688.4599609375,3.62109375,2.1005859375,3.62109375s2.080078125-2.0004882812,2.080078125-3.62109375c0-1.6201171875-.439453125-3.6206054688-2.080078125-3.6206054688s-2.1005859375,2.0004882812-2.1005859375,3.6206054688ZM12.515625,0h2.560546875v17.2836914062h-2.560546875V0Z"/><path d="m17.81640625,1.640625h6.541015625v1.6000976562c0,1.1206054688-.119140625,2.1606445312-.3193359375,3.1010742188h1.83984375V.3002929688h2.400390625v16.4833984375h-2.400390625v-8.26171875h-2.560546875c-.9404296875,2.0004882812-2.560546875,3.5610351562-4.9404296875,4.78125l-1.2802734375-1.9404296875c2.0400390625-1.0405273438,3.419921875-2.380859375,4.140625-4.0610351562-.419921875.3603515625-1,.6000976562-1.9404296875.6000976562h-1.900390625v-2.060546875h4.3203125c.1005859375-.5200195312.1806640625-1.080078125.1806640625-1.7001953125v-.3198242188h-4.0810546875V1.640625ZM29.6787109375,0h2.4404296875v17.2836914062h-2.4404296875V0Z"/><path d="m43.333984375,7.181640625c0,2.9409179688-1.1611328125,5.8012695312-4.62109375,5.8012695312-3.44140625,0-4.6416015625-2.8603515625-4.6416015625-5.8012695312,0-2.9204101562,1.2001953125-5.78125,4.6416015625-5.78125,3.4599609375,0,4.62109375,2.8608398438,4.62109375,5.78125Zm-6.7021484375,0c0,1.6206054688.4404296875,3.62109375,2.0810546875,3.62109375,1.6396484375,0,2.099609375-2.0004882812,2.099609375-3.62109375,0-1.6000976562-.4599609375-3.6005859375-2.099609375-3.6005859375-1.640625,0-2.0810546875,2.0004882812-2.0810546875,3.6005859375ZM45.07421875,0h2.560546875v5.861328125h2.3603515625v2.220703125h-2.3603515625v9.2016601562h-2.560546875V0Z"/><path d="m1.0498046875,24.3984375h1.8212890625v9.525390625h-1.8212890625v-9.525390625Z"/><path d="m4.8310546875,24.3984375h1.8212890625v4.46875l3.8525390625-4.46875h2.19921875v.0424804688l-3.5302734375,3.9916992188,3.7255859375,5.44921875v.0419921875h-2.12890625l-2.8017578125-4.1181640625-1.31640625,1.4848632812v2.6333007812h-1.8212890625v-9.525390625Z"/><path d="m13.7802734375,24.3984375h6.6962890625v1.5971679688h-4.875v2.3251953125h4.2021484375v1.5830078125h-4.2021484375v2.4233398438h4.875v1.5966796875h-6.6962890625v-9.525390625Z"/><path d="m24.8740234375,24.3984375h2.142578125l3.7119140625,9.525390625h-1.890625l-.7705078125-2.0170898438h-4.244140625l-.7705078125,2.0170898438h-1.890625l3.7119140625-9.525390625Zm-.4482421875,5.9252929688h3.025390625l-1.5126953125-3.9780273438-1.5126953125,3.9780273438Z"/><path d="m9.4951171875,61.1196289063h2.419921875v8.4418945312h-2.419921875v-3.0805664062h-1.240234375c-.3408203125,1.8603515625-1.6806640625,2.9204101562-3.6611328125,2.9204101562-2.3203125,0-3.8212890625-1.4204101562-3.8212890625-3.9208984375s1.5009765625-3.9409179688,3.8212890625-3.9409179688c1.9599609375,0,3.30078125,1.0405273438,3.6611328125,2.8608398438h1.240234375v-3.2807617188Zm-6.341796875,4.3608398438c0,1.1801757812.5205078125,1.900390625,1.4404296875,1.900390625.900390625,0,1.419921875-.7202148438,1.419921875-1.900390625,0-1.2001953125-.51953125-1.9204101562-1.419921875-1.9204101562-.919921875,0-1.4404296875.7202148438-1.4404296875,1.9204101562Zm1.240234375,5.0209960938h11.1826171875v4.9013671875H6.9345703125v1.1000976562h9.08203125v2.0004882812H5.353515625c-.599609375,0-.9599609375-.2602539062-.9599609375-.8203125v-4.1806640625h8.6416015625v-1.0405273438H4.3935546875v-1.9604492188Zm8.7421875-9.58203125h2.4404296875v8.7421875h-2.4404296875v-8.7421875Z"/><path d="m17.3818359375,69.94140625h15.84375v1.98046875h-15.84375v-1.98046875Zm2.3212890625,3.220703125h11.2021484375v5.44140625h-10.2421875c-.6005859375,0-.9599609375-.2602539062-.9599609375-.8203125v-4.62109375Zm.1201171875-11.6420898438h10.9619140625v4.4609375h-8.4013671875v.919921875h8.7216796875v1.8002929688h-10.322265625c-.6005859375,0-.9599609375-.2397460938-.9599609375-.7998046875v-3.6411132812h8.4013671875v-.8798828125h-8.4013671875v-1.8603515625Zm2.4404296875,13.6025390625v1.5004882812h6.0810546875v-1.5004882812h-6.0810546875Z"/><path d="m34.5546875,69.44140625h15.84375v1.9204101562h-6.6416015625v.98046875h4.3212890625v4.140625h-8.6416015625v.8203125h9.08203125v1.7202148438h-10.6826171875c-.6005859375,0-.9599609375-.2397460938-.9599609375-.8002929688v-3.3603515625h8.6416015625v-.7602539062h-8.6416015625v-1.7602539062h4.3203125v-.98046875h-6.6416015625v-1.9204101562Zm1.62109375-5.7612304688h12.6025390625v1.8002929688h-1.880859375c.1806640625.2602539062.2802734375.5405273438.2802734375.8603515625,0,1.7202148438-1.560546875,2.6005859375-4.701171875,2.6005859375s-4.701171875-.8803710938-4.701171875-2.6005859375c0-.3198242188.1005859375-.6000976562.30078125-.8603515625h-1.900390625v-1.8002929688Zm2.9404296875-2.6005859375h6.7412109375v1.8603515625h-6.7412109375v-1.8603515625Zm3.3603515625,6.0415039062c1.541015625,0,2.1806640625-.3002929688,2.1806640625-.8603515625s-.6396484375-.8803710938-2.1806640625-.8803710938c-1.5400390625,0-2.16015625.3203125-2.16015625.8803710938s.6201171875.8603515625,2.16015625.8603515625Z"/><path d="m50.6904296875,74.0825195313h15.84375v2.2202148438h-15.84375v-2.2202148438Zm2.28125-11.8627929688h11.2822265625v2.1206054688h-8.7216796875v1.5805664062h8.341796875v2.0200195312h-8.341796875v1.6206054688h9.001953125v2.1206054688h-10.6025390625c-.6005859375,0-.9599609375-.2602539062-.9599609375-.8203125v-8.6420898438Z"/><path d="m.6923828125,97.8823242188h15.84375v2.220703125H.6923828125v-2.220703125Zm6.6220703125-11.9223632812h2.6005859375v1.2202148438c0,3.5405273438,2.560546875,5.1411132812,5.5009765625,6.0810546875l-.9599609375,2.0805664062c-2.48046875-.6201171875-5.041015625-2.3203125-5.841796875-4.2607421875-.759765625,1.9404296875-3.3203125,3.6806640625-5.8212890625,4.3408203125l-.9599609375-2.0805664062c2.900390625-.919921875,5.4814453125-2.6206054688,5.4814453125-6.1411132812v-1.240234375Z"/><path d="m17.23046875,93.7416992188h6.5205078125c.9208984375,0,1.720703125-.0400390625,2.44140625-.3203125v-8.2016601562h2.419921875v16.4833984375h-2.419921875v-2.5205078125h-2.12109375v-2.0405273438h2.12109375v-1.8603515625c-.720703125.4404296875-1.7412109375.6401367188-2.9814453125.6401367188h-.4794921875v5.5815429688h-2.4609375v-5.5815429688h-3.0400390625v-2.1801757812Zm4.2802734375-8.08203125c2.30078125,0,3.7607421875,1.48046875,3.7607421875,3.6411132812,0,2.16015625-1.4599609375,3.6206054688-3.7607421875,3.6206054688s-3.8408203125-1.4604492188-3.8408203125-3.6206054688c0-2.1606445312,1.5400390625-3.6411132812,3.8408203125-3.6411132812Zm0,5.1611328125c.900390625,0,1.48046875-.6000976562,1.48046875-1.5200195312,0-.9404296875-.580078125-1.5405273438-1.48046875-1.5405273438-.919921875,0-1.48046875.6000976562-1.48046875,1.5405273438,0,.919921875.560546875,1.5200195312,1.48046875,1.5200195312Zm8.3017578125-5.9013671875h2.4404296875v17.2836914062h-2.4404296875v-17.2836914062Z"/><path d="m34.5400390625,85.9799804688h6.521484375v2.1201171875h-4.0615234375v5.021484375h1.2001953125c1.220703125,0,2.220703125-.1000976562,3.12109375-.4604492188l.4599609375,1.640625c-1.1806640625.740234375-2.7001953125.9399414062-4.6005859375.9399414062h-1.6611328125c-.6201171875,0-.9794921875-.259765625-.9794921875-.8198242188v-8.4418945312Zm3.2001953125,10.4223632812h2.560546875v3.720703125h9.08203125v2.1801757812h-10.6826171875c-.599609375,0-.9599609375-.259765625-.9599609375-.8198242188v-5.0810546875Zm5.041015625-11.2827148438h2.4208984375v12.0224609375h-2.4208984375v-5.62109375h-2.720703125v-2.0405273438h2.720703125v-4.3608398438Zm3.8212890625-.2001953125h2.4404296875v12.5229492188h-2.4404296875v-12.5229492188Z"/><path d="m52.931640625,100.8432617188h-1.400390625v-3.0610351562h3.080078125v2.7006835938l-1.3798828125,3.3208007812h-1.5l1.2001953125-2.9604492188Z"/><path d="m63.3916015625,89.2407226563l-2.48046875,1.3603515625-.9404296875-1.98046875,4.060546875-2.2807617188h1.900390625v13.6030273438h-2.5400390625v-10.7021484375Z"/><path d="m79.1171875,92.8012695313c0,4.6411132812-2.4208984375,7.421875-6.2412109375,7.421875-2.1806640625,0-3.7607421875-1.060546875-4.62109375-2.3408203125l1.740234375-1.5600585938c.580078125.8999023438,1.6201171875,1.5400390625,2.880859375,1.5400390625,1.900390625,0,3.3203125-1.2802734375,3.580078125-3.7407226562-.8193359375.900390625-1.9599609375,1.5405273438-3.5205078125,1.5405273438-2.560546875,0-4.7607421875-1.8803710938-4.7607421875-4.7412109375,0-2.8603515625,2.380859375-4.8608398438,5.28125-4.8608398438,3.720703125,0,5.6611328125,2.8403320312,5.6611328125,6.7412109375Zm-8.322265625-1.9404296875c0,1.3403320312,1.0009765625,2.4604492188,2.6611328125,2.4604492188,1.6396484375,0,2.640625-1.1201171875,2.640625-2.4604492188,0-1.3203125-1.0009765625-2.4404296875-2.640625-2.4404296875-1.66015625,0-2.6611328125,1.1201171875-2.6611328125,2.4404296875Z"/><path d="m80.2705078125,94.681640625l6.2412109375-8.341796875h3.30078125v7.9418945312h2.2607421875v2.2602539062h-2.2607421875v3.4008789062h-2.5205078125v-3.4008789062h-7.021484375v-1.8603515625Zm7.021484375-.3999023438v-5.28125l-3.8603515625,5.28125h3.8603515625Z"/><path d="m92.5849609375,97.9423828125l1.48046875-1.7602539062c.6796875.8002929688,1.759765625,1.6801757812,3.4404296875,1.6801757812s2.900390625-.7202148438,2.900390625-2.0205078125c0-1.1801757812-.9404296875-1.8403320312-2.8603515625-1.8403320312h-1.3408203125v-2.240234375h1.3408203125c1.48046875,0,2.140625-.8002929688,2.140625-1.7006835938,0-1.080078125-.9404296875-1.6401367188-2.0810546875-1.6401367188-1.4599609375,0-2.3203125.6401367188-2.83984375,1.3803710938l-1.5205078125-1.6005859375c.8798828125-1.1401367188,2.419921875-2.1401367188,4.3603515625-2.1401367188,2.9208984375,0,4.681640625,1.419921875,4.681640625,3.8208007812,0,1.1000976562-.66015625,2.16015625-1.740234375,2.8002929688,1.580078125.5205078125,2.4599609375,1.7807617188,2.4599609375,3.380859375,0,2.560546875-2.419921875,4.1611328125-5.5009765625,4.1611328125-2.4208984375,0-4.041015625-1.2802734375-4.9208984375-2.2807617188Z"/><path d="m104.8828125,85.8798828125h2.560546875v7.26171875h1.8203125c1.66015625,0,3.3408203125-.1801757812,4.400390625-.5600585938l.4609375,1.6401367188c-1.3603515625.8203125-3.3408203125,1.0400390625-5.58203125,1.0400390625h-2.6796875c-.6201171875,0-.98046875-.2397460938-.98046875-.8198242188v-8.5620117188Zm2.640625,10.4223632812h2.560546875v3.8208007812h8.861328125v2.1801757812h-10.4619140625c-.6005859375,0-.9599609375-.259765625-.9599609375-.8198242188v-5.1811523438Zm4.1806640625-9.8022460938h4.2412109375v-1.5805664062h2.560546875v12.8227539062h-2.560546875v-5.9208984375h-4.2412109375v-2.060546875h4.2412109375v-1.2001953125h-4.2412109375v-2.060546875Z"/><path d="m126.0029296875,88.1801757813h8.8818359375v2.0805664062h-3.0205078125c.3994140625,1.4404296875,1.8203125,2.2607421875,3.7607421875,2.720703125l-1.0205078125,1.9604492188c-1.98046875-.4599609375-3.5205078125-1.560546875-4.041015625-2.7807617188-.5,1.2802734375-2.080078125,2.6606445312-4.2607421875,3.30078125l-1.0400390625-1.98046875c2.060546875-.6000976562,3.4599609375-1.66015625,3.7802734375-3.220703125h-3.0400390625v-2.0805664062Zm1.51953125-3.0004882812h5.841796875v2.1206054688h-5.841796875v-2.1206054688Zm6.58203125,10.4423828125c3.5205078125,0,5.48046875,1.4399414062,5.48046875,3.6005859375,0,2.140625-1.9599609375,3.5610351562-5.48046875,3.5610351562s-5.4814453125-1.4204101562-5.4814453125-3.5610351562c0-2.1606445312,1.9609375-3.6005859375,5.4814453125-3.6005859375Zm0,5.0009765625c1.900390625,0,2.919921875-.5,2.919921875-1.400390625,0-.919921875-1.01953125-1.4404296875-2.919921875-1.4404296875s-2.9208984375.5205078125-2.9208984375,1.4404296875c0,.900390625,1.0205078125,1.400390625,2.9208984375,1.400390625Zm2.740234375-15.7036132812h2.560546875v4.0009765625h2.3408203125v2.220703125h-2.3408203125v4.0805664062h-2.560546875v-10.3022460938Z"/><path d="m143.35546875,85.7797851563h8.28125v5.201171875h-5.720703125v1.2202148438h4.5009765625c1.48046875,0,2.8408203125-.2001953125,3.8408203125-.7202148438v-6.5615234375h2.560546875v9.7221679688h-2.560546875v-1.5200195312c-1.2607421875.8198242188-3.060546875,1.1401367188-5.0615234375,1.1401367188h-4.861328125c-.6201171875,0-.9794921875-.240234375-.9794921875-.8203125v-4.4409179688h5.7607421875v-1.1401367188h-5.7607421875v-2.0805664062Zm2.640625,9.662109375h2.560546875v1.3403320312h5.701171875v-1.3403320312h2.560546875v7.021484375h-9.8623046875c-.6005859375,0-.9599609375-.2602539062-.9599609375-.8203125v-6.201171875Zm2.560546875,3.4609375v1.3798828125h5.701171875v-1.3798828125h-5.701171875Z"/><path d="m3.7119140625,109.3178710938h2.142578125l3.7119140625,9.525390625h-1.890625l-.7705078125-2.0170898438H2.6611328125l-.7705078125,2.0170898438H0l3.7119140625-9.525390625Zm-1.4150390625-2.8432617188h1.79296875v1.7509765625h-1.79296875v-1.7509765625Zm.966796875,8.7685546875h3.025390625l-1.5126953125-3.9780273438-1.5126953125,3.9780273438Zm2.2265625-8.7685546875h1.79296875v1.7509765625h-1.79296875v-1.7509765625Z"/><path d="m10.35546875,108.8979492188h1.7783203125v9.9453125h-1.7783203125v-9.9453125Z"/><path d="m23.5458984375,114.794921875c0-1.1484375-.4765625-1.7509765625-1.541015625-1.7509765625-.896484375,0-1.4150390625.6025390625-1.5966796875,1.2607421875v4.5385742188h-1.779296875v-4.0483398438c0-1.1484375-.490234375-1.7509765625-1.541015625-1.7509765625-.8818359375,0-1.4140625.6025390625-1.5966796875,1.2607421875v4.5385742188h-1.7783203125v-7.2138671875h1.7783203125v1.0083007812c.392578125-.6440429688,1.1064453125-1.1762695312,2.2275390625-1.1762695312,1.1904296875,0,1.947265625.5180664062,2.3388671875,1.3725585938.5322265625-.8686523438,1.3447265625-1.3725585938,2.578125-1.3725585938,1.876953125,0,2.689453125,1.2885742188,2.689453125,3.1376953125v4.244140625h-1.779296875v-4.0483398438Z"/><path d="m26.8720703125,108.8979492188h1.7783203125v3.7397460938c.392578125-.6440429688,1.1630859375-1.1762695312,2.283203125-1.1762695312,1.876953125,0,2.74609375,1.2885742188,2.74609375,3.1376953125v4.244140625h-1.779296875v-4.0483398438c0-1.1484375-.5458984375-1.7509765625-1.5966796875-1.7509765625-.953125,0-1.4990234375.7006835938-1.6533203125,1.2607421875v4.5385742188h-1.7783203125v-9.9453125Z"/><path d="m41.9052734375,118.8432617188h-1.779296875v-1.0087890625c-.392578125.64453125-1.1630859375,1.1767578125-2.283203125,1.1767578125-1.876953125,0-2.7451171875-1.2885742188-2.7451171875-3.1376953125v-4.244140625h1.7783203125v4.0483398438c0,1.1484375.546875,1.7509765625,1.5966796875,1.7509765625.8828125,0,1.4716796875-.6025390625,1.6533203125-1.2607421875v-4.5385742188h1.779296875v7.2138671875Z"/><path d="m43.4921875,108.8979492188h1.7783203125v9.9453125h-1.7783203125v-9.9453125Z"/><path d="m47.3447265625,116.083984375v-3.0258789062h-1.205078125v-1.4287109375h1.2607421875v-1.8349609375h1.72265625v1.8349609375h1.6669921875v1.4287109375h-1.6669921875v3.1098632812c0,.9243164062.4345703125,1.2465820312,1.3310546875,1.2465820312h.3359375v1.4287109375c-.23828125.0561523438-.5322265625.083984375-.7978515625.083984375-1.7509765625,0-2.6474609375-.8681640625-2.6474609375-2.8432617188Z"/><path d="m.1953125,133.6821289063l1.19140625-1.1625976562c.5458984375.8544921875,1.470703125,1.6806640625,2.9130859375,1.6806640625,1.1767578125,0,1.79296875-.5883789062,1.79296875-1.3305664062,0-.6025390625-.419921875-1.064453125-1.541015625-1.2329101562l-.826171875-.1259765625c-1.6806640625-.251953125-2.8154296875-1.21875-2.8154296875-2.689453125,0-1.6108398438,1.31640625-2.8994140625,3.4462890625-2.8994140625,1.470703125,0,2.6748046875.6440429688,3.361328125,1.5405273438l-1.162109375,1.205078125c-.5888671875-.728515625-1.38671875-1.1069335938-2.2412109375-1.1069335938-.953125,0-1.513671875.5043945312-1.513671875,1.0786132812,0,.560546875.4208984375.966796875,1.2470703125,1.0927734375l.8125.1259765625c1.9609375.2939453125,3.109375,1.2749023438,3.109375,2.8857421875,0,1.8349609375-1.4990234375,3.095703125-3.697265625,3.095703125-2.19921875,0-3.404296875-1.134765625-4.0771484375-2.1572265625Z"/><path d="m8.787109375,132.04296875c0-1.9750976562,1.3583984375-3.7817382812,3.75390625-3.7817382812,1.45703125,0,2.5068359375.6723632812,3.2080078125,1.79296875l-1.2607421875.9663085938c-.392578125-.6865234375-.9951171875-1.1767578125-1.849609375-1.1767578125-1.232421875,0-2.044921875.8544921875-2.044921875,2.19921875,0,1.3310546875.8125,2.185546875,2.044921875,2.185546875.8544921875,0,1.45703125-.4907226562,1.849609375-1.1767578125l1.2607421875.9663085938c-.701171875,1.1206054688-1.7509765625,1.79296875-3.2080078125,1.79296875-2.3955078125,0-3.75390625-1.806640625-3.75390625-3.7680664062Z"/><path d="m16.76171875,125.6977539063h1.7783203125v3.7397460938c.392578125-.6440429688,1.1630859375-1.1762695312,2.283203125-1.1762695312,1.876953125,0,2.74609375,1.2885742188,2.74609375,3.1376953125v4.244140625h-1.779296875v-4.0483398438c0-1.1484375-.5458984375-1.7509765625-1.5966796875-1.7509765625-.953125,0-1.4990234375.7006835938-1.6533203125,1.2607421875v4.5385742188h-1.7783203125v-9.9453125Z"/><path d="m24.09765625,128.4291992188h1.904296875l1.443359375,4.818359375,1.638671875-4.818359375h1.8916015625l1.638671875,4.818359375,1.4423828125-4.818359375h1.9052734375l-2.3671875,7.2138671875h-1.779296875l-1.79296875-5.0146484375-1.779296875,5.0146484375h-1.7783203125l-2.3671875-7.2138671875Z"/><path d="m36.1669921875,132.0571289063c0-2.2553710938,1.5263671875-3.7958984375,3.6279296875-3.7958984375s3.4736328125,1.4565429688,3.4736328125,3.5297851562c0,.23828125-.0419921875.57421875-.083984375.8686523438h-5.224609375c.181640625.9663085938.8544921875,1.6245117188,2.1015625,1.6245117188.8818359375,0,1.6240234375-.490234375,2.044921875-1.064453125l.98046875,1.1625976562c-.6728515625.8125-1.7373046875,1.4428710938-3.109375,1.4428710938-2.33984375,0-3.810546875-1.6669921875-3.810546875-3.7680664062Zm1.8212890625-.8544921875h3.515625c-.09765625-.9384765625-.7421875-1.470703125-1.708984375-1.470703125-.9248046875,0-1.568359375.5180664062-1.806640625,1.470703125Z"/><path d="m49.810546875,134.81640625c-.5322265625.6025390625-1.3173828125.9946289062-2.255859375.9946289062-2.0029296875,0-3.4736328125-1.4848632812-3.4736328125-3.7680664062s1.470703125-3.7817382812,3.4736328125-3.7817382812c.9384765625,0,1.7236328125.40625,2.255859375,1.0083007812v-3.5717773438h1.7783203125v9.9453125h-1.7783203125v-.8266601562Zm0-1.6665039062v-2.2133789062c-.322265625-.6865234375-1.0654296875-1.0927734375-1.86328125-1.0927734375-1.1630859375,0-2.0595703125.798828125-2.0595703125,2.19921875,0,1.38671875.896484375,2.185546875,2.0595703125,2.185546875.7978515625,0,1.541015625-.40625,1.86328125-1.0786132812Z"/><path d="m52.791015625,132.0571289063c0-2.2553710938,1.5263671875-3.7958984375,3.6279296875-3.7958984375s3.4736328125,1.4565429688,3.4736328125,3.5297851562c0,.23828125-.0419921875.57421875-.083984375.8686523438h-5.224609375c.181640625.9663085938.8544921875,1.6245117188,2.1015625,1.6245117188.8818359375,0,1.6240234375-.490234375,2.044921875-1.064453125l.98046875,1.1625976562c-.6728515625.8125-1.7373046875,1.4428710938-3.1103515625,1.4428710938-2.3388671875,0-3.8095703125-1.6669921875-3.8095703125-3.7680664062Zm1.8212890625-.8544921875h3.515625c-.09765625-.9384765625-.7421875-1.470703125-1.708984375-1.470703125-.9248046875,0-1.568359375.5180664062-1.806640625,1.470703125Z"/><path d="m61.091796875,128.4291992188h1.7783203125v1.0083007812c.392578125-.6440429688,1.1630859375-1.1762695312,2.283203125-1.1762695312,1.876953125,0,2.74609375,1.2885742188,2.74609375,3.1376953125v4.244140625h-1.779296875v-4.0483398438c0-1.1484375-.5458984375-1.7509765625-1.5966796875-1.7509765625-.8828125,0-1.470703125.6025390625-1.6533203125,1.2607421875v4.5385742188h-1.7783203125v-7.2138671875Z"/><path d="m70.3974609375,136.2734375h-.98046875v-2.1430664062h2.1572265625v1.8911132812l-.966796875,2.3251953125h-1.0498046875l.83984375-2.0732421875Z"/><path d="m75.4072265625,134.4243164063l.966796875-1.1206054688c.4765625.5883789062,1.2890625,1.0786132812,2.1435546875,1.0786132812.7705078125,0,1.31640625-.3081054688,1.31640625-.8403320312,0-.4760742188-.4345703125-.6723632812-1.1201171875-.7846679688l-.64453125-.09765625c-1.3447265625-.2241210938-2.1572265625-.966796875-2.1572265625-2.1435546875,0-1.2465820312,1.064453125-2.2548828125,2.87109375-2.2548828125,1.134765625,0,2.0029296875.4760742188,2.5361328125,1.0922851562l-.9384765625,1.134765625c-.462890625-.490234375-1.0087890625-.7705078125-1.6669921875-.7705078125-.6728515625,0-1.0224609375.3081054688-1.0224609375.7006835938,0,.3637695312.279296875.5600585938.7978515625.6440429688l.64453125.0981445312c1.65234375.251953125,2.4794921875,1.0224609375,2.4794921875,2.283203125,0,1.302734375-1.134765625,2.3955078125-3.166015625,2.3955078125-1.3447265625,0-2.380859375-.6303710938-3.0400390625-1.4150390625Z"/><path d="m82.7109375,125.361328125h1.8212890625v1.8491210938h-1.8212890625v-1.8491210938Zm.0283203125,3.0678710938h1.7783203125v7.2138671875h-1.7783203125v-7.2138671875Z"/><path d="m86.1015625,128.4291992188h1.7783203125v1.0083007812c.392578125-.6440429688,1.1630859375-1.1762695312,2.283203125-1.1762695312,1.876953125,0,2.74609375,1.2885742188,2.74609375,3.1376953125v4.244140625h-1.779296875v-4.0483398438c0-1.1484375-.5458984375-1.7509765625-1.5966796875-1.7509765625-.8828125,0-1.470703125.6025390625-1.6533203125,1.2607421875v4.5385742188h-1.7783203125v-7.2138671875Z"/><path d="m94.025390625,132.04296875c0-1.9750976562,1.3583984375-3.7817382812,3.75390625-3.7817382812,1.45703125,0,2.5068359375.6723632812,3.2080078125,1.79296875l-1.2607421875.9663085938c-.392578125-.6865234375-.9951171875-1.1767578125-1.849609375-1.1767578125-1.232421875,0-2.044921875.8544921875-2.044921875,2.19921875,0,1.3310546875.8125,2.185546875,2.044921875,2.185546875.8544921875,0,1.45703125-.4907226562,1.849609375-1.1767578125l1.2607421875.9663085938c-.701171875,1.1206054688-1.7509765625,1.79296875-3.2080078125,1.79296875-2.3955078125,0-3.75390625-1.806640625-3.75390625-3.7680664062Z"/><path d="m101.52734375,132.0571289063c0-2.2553710938,1.5263671875-3.7958984375,3.6279296875-3.7958984375s3.4736328125,1.4565429688,3.4736328125,3.5297851562c0,.23828125-.0419921875.57421875-.083984375.8686523438h-5.224609375c.181640625.9663085938.8544921875,1.6245117188,2.1015625,1.6245117188.8818359375,0,1.6240234375-.490234375,2.044921875-1.064453125l.98046875,1.1625976562c-.6728515625.8125-1.7373046875,1.4428710938-3.1103515625,1.4428710938-2.3388671875,0-3.8095703125-1.6669921875-3.8095703125-3.7680664062Zm1.8212890625-.8544921875h3.515625c-.09765625-.9384765625-.7421875-1.470703125-1.708984375-1.470703125-.9248046875,0-1.568359375.5180664062-1.806640625,1.470703125Z"/><path d="m114.310546875,128.1489257813l-1.7373046875.9526367188-.658203125-1.38671875,2.84375-1.5971679688h1.330078125v9.525390625h-1.7783203125v-7.494140625Z"/><path d="m125.2724609375,130.642578125c0,3.2495117188-1.6943359375,5.1967773438-4.3701171875,5.1967773438-1.52734375,0-2.6337890625-.7426757812-3.236328125-1.6391601562l1.21875-1.0922851562c.40625.6298828125,1.134765625,1.078125,2.017578125,1.078125,1.3310546875,0,2.3251953125-.896484375,2.5068359375-2.619140625-.57421875.6303710938-1.3720703125,1.0786132812-2.46484375,1.0786132812-1.79296875,0-3.333984375-1.3168945312-3.333984375-3.3198242188s1.6669921875-3.4038085938,3.6982421875-3.4038085938c2.60546875,0,3.9638671875,1.9887695312,3.9638671875,4.720703125Zm-5.8271484375-1.3588867188c0,.9384765625.7001953125,1.72265625,1.86328125,1.72265625,1.1484375,0,1.8486328125-.7841796875,1.8486328125-1.72265625,0-.9248046875-.7001953125-1.708984375-1.8486328125-1.708984375-1.1630859375,0-1.86328125.7841796875-1.86328125,1.708984375Z"/><path d="m126.02734375,131.958984375l4.3701171875-5.8413085938h2.3115234375v5.5610351562h1.5830078125v1.5830078125h-1.5830078125v2.3813476562h-1.7646484375v-2.3813476562h-4.9169921875v-1.302734375Zm4.9169921875-.2802734375v-3.6977539062l-2.7041015625,3.6977539062h2.7041015625Z"/><path d="m134.5986328125,134.2421875l1.0361328125-1.232421875c.4765625.5600585938,1.2333984375,1.1762695312,2.4091796875,1.1762695312,1.1767578125,0,2.03125-.50390625,2.03125-1.4145507812,0-.8266601562-.658203125-1.2885742188-2.0029296875-1.2885742188h-.9384765625v-1.5688476562h.9384765625c1.0361328125,0,1.4990234375-.560546875,1.4990234375-1.1909179688,0-.7563476562-.658203125-1.1484375-1.45703125-1.1484375-1.0224609375,0-1.625.4482421875-1.9892578125.9663085938l-1.064453125-1.1206054688c.6162109375-.7983398438,1.6953125-1.4985351562,3.0537109375-1.4985351562,2.044921875,0,3.2783203125.9946289062,3.2783203125,2.6752929688,0,.7705078125-.462890625,1.5126953125-1.21875,1.9609375,1.1064453125.3642578125,1.72265625,1.2470703125,1.72265625,2.3676757812,0,1.79296875-1.6953125,2.9135742188-3.8525390625,2.9135742188-1.6943359375,0-2.8291015625-.896484375-3.4453125-1.5971679688Z"/><rect class="cls-1" x="0" width="318.1005859375" height="138.3466796875"/></g></svg>