<?xml version="1.0" encoding="UTF-8"?><svg id="_레이어_2" xmlns="http://www.w3.org/2000/svg" viewBox="0 0 541.6689453125 247.3315429688"><defs><style>.cls-1{fill:#ffe800;}.cls-2{fill:none;}</style></defs><g id="Layer_1"><path class="cls-1" d="m2.759765625,1.7197265625h3.2392578125l16.6376953125,21.0361328125V1.7197265625h3.6787109375v27.1953125h-3.2392578125L6.439453125,7.87890625v21.0361328125h-3.6796875V1.7197265625Z"/><path class="cls-1" d="m31.7470538969,0h3.8789226656v4.3193359375h-3.8789226656V0Zm.1601726656,8.8779296875h3.599609375v20.037109375h-3.599609375V8.8779296875Z"/><path class="cls-1" d="m38.0283203125,28.794921875l7.3583984375-10.1181640625-6.958984375-9.638671875v-.16015625h4.0791015625l5.279296875,7.439453125,5.279296875-7.439453125h4.119140625v.16015625l-6.958984375,9.638671875,7.359375,10.1181640625v.1201171875h-4.1201171875l-5.6787109375-7.9189453125-5.638671875,7.9189453125h-4.119140625v-.1201171875Z"/><path class="cls-1" d="m58.19921875,18.9169921875c0-5.798828125,3.919921875-10.478515625,10.318359375-10.478515625,6.3994140625,0,10.318359375,4.6796875,10.318359375,10.478515625,0,5.7587890625-3.9189453125,10.4775390625-10.318359375,10.4775390625-6.3984375,0-10.318359375-4.71875-10.318359375-10.4775390625Zm16.95703125,0c0-4.3994140625-2.9189453125-7.19921875-6.638671875-7.19921875s-6.638671875,2.7998046875-6.638671875,7.19921875,2.9189453125,7.1982421875,6.638671875,7.1982421875,6.638671875-2.798828125,6.638671875-7.1982421875Z"/><path class="cls-1" d="m82.6064453125,8.8779296875h3.599609375v3.0400390625c1.0390625-1.759765625,3.2392578125-3.4794921875,6.5986328125-3.4794921875,5.19921875,0,7.9580078125,3.359375,7.9580078125,8.798828125v11.677734375h-3.5986328125v-11.318359375c0-3.8388671875-1.919921875-5.87890625-5.3193359375-5.87890625-3,0-5.0390625,1.919921875-5.638671875,4.119140625v13.078125h-3.599609375V8.8779296875Z"/><path class="cls-1" d="m130.4833984375,26.0751953125c-1.5595703125,2-4,3.279296875-6.8388671875,3.279296875-5.6396484375,0-9.798828125-4.2392578125-9.798828125-10.4775390625,0-6.19921875,4.1591796875-10.4384765625,9.798828125-10.4384765625,2.8388671875,0,5.279296875,1.2802734375,6.8388671875,3.279296875v-2.83984375h3.5986328125v20.037109375h-3.5986328125v-2.83984375Zm0-3.6787109375v-6.958984375c-1.0400390625-2.240234375-3.3994140625-3.7197265625-6.19921875-3.7197265625-3.759765625,0-6.7587890625,2.7197265625-6.7587890625,7.1591796875,0,4.4794921875,2.9990234375,7.1982421875,6.7587890625,7.1982421875,2.7998046875,0,5.1591796875-1.4794921875,6.19921875-3.6787109375Z"/><path class="cls-1" d="m138.9775390625,8.8779296875h3.599609375v3.0400390625c1.0390625-1.759765625,3.2392578125-3.4794921875,6.5986328125-3.4794921875,5.19921875,0,7.9580078125,3.359375,7.9580078125,8.798828125v11.677734375h-3.5986328125v-11.318359375c0-3.8388671875-1.919921875-5.87890625-5.3193359375-5.87890625-3,0-5.0390625,1.919921875-5.638671875,4.119140625v13.078125h-3.599609375V8.8779296875Z"/><path class="cls-1" d="m177.3056640625,26.0751953125c-1.5595703125,2-4,3.279296875-6.8388671875,3.279296875-5.6396484375,0-9.798828125-4.2392578125-9.798828125-10.4775390625,0-6.19921875,4.1591796875-10.4384765625,9.798828125-10.4384765625,2.8388671875,0,5.279296875,1.2802734375,6.8388671875,3.279296875V.51953125h3.5986328125v28.3955078125h-3.5986328125v-2.83984375Zm0-3.7587890625v-6.798828125c-1.0400390625-2.2802734375-3.3994140625-3.7998046875-6.19921875-3.7998046875-3.759765625,0-6.7587890625,2.6796875-6.7587890625,7.1591796875,0,4.5185546875,2.9990234375,7.1982421875,6.7587890625,7.1982421875,2.7998046875,0,5.1591796875-1.51953125,6.19921875-3.7587890625Z"/><path class="cls-1" d="m196.107421875,1.7197265625h3.6796875v14.1171875l13.0771484375-14.1171875h4.5595703125v.16015625l-10.5986328125,11.357421875,11.1181640625,15.5576171875v.1201171875h-4.4384765625l-9.2392578125-12.9580078125-4.478515625,4.83984375v8.1181640625h-3.6796875V1.7197265625Z"/><path class="cls-1" d="m220.4384765625.51953125h3.599609375v11.478515625c1.0390625-1.759765625,3.2392578125-3.5595703125,6.5986328125-3.5595703125,5.19921875,0,7.9580078125,3.359375,7.9580078125,8.798828125v11.677734375h-3.5986328125v-11.318359375c0-3.8388671875-1.919921875-5.87890625-5.3193359375-5.87890625s-5.2392578125,2.51953125-5.638671875,4.119140625v13.078125h-3.599609375V.51953125Z"/><path class="cls-1" d="m243.3466796875,8.8779296875h3.599609375v3.439453125c1.119140625-2.19921875,3.2392578125-3.87890625,6.318359375-3.87890625h.4404296875v3.4794921875c-3.240234375.080078125-5.6796875,1.3994140625-6.7587890625,4.51953125v12.4775390625h-3.599609375V8.8779296875Z"/><path class="cls-1" d="m274.4072265625,28.9150390625h-3.599609375v-3.0390625c-1.0400390625,1.7587890625-3.2392578125,3.478515625-6.5986328125,3.478515625-5.19921875,0-7.958984375-3.359375-7.958984375-8.7978515625v-11.6787109375h3.599609375v11.318359375c0,3.83984375,1.919921875,5.87890625,5.3193359375,5.87890625,2.9990234375,0,5.0390625-1.9189453125,5.638671875-4.119140625v-13.078125h3.599609375v20.037109375Z"/><path class="cls-1" d="m277.337890625,25.1953125l2.3193359375-2.439453125c1.240234375,1.83984375,3.5595703125,3.359375,6.19921875,3.359375,2.599609375,0,4.6396484375-1.0390625,4.6396484375-3.119140625,0-1.599609375-1.5205078125-2.4794921875-3.9599609375-2.83984375l-1.759765625-.279296875c-3.55859375-.560546875-5.87890625-2.3603515625-5.87890625-5.5595703125,0-3.1591796875,2.5995866501-5.87890625,7.439453125-5.87890625,3.0791015625,0,5.5185546875,1.359375,6.998046875,3.2392578125l-2.2392578125,2.439453125c-1.2802734375-1.51953125-2.8798828125-2.3994140625-4.8388671875-2.3994140625-2.4794921875,0-3.6796875,1.2001953125-3.6796875,2.51953125,0,1.3603515625,1.1201171875,2.0400390625,2.9599609375,2.3193359375l1.798828125.2802734375c4.359375.6396484375,6.8388671875,2.6796875,6.8388671875,6.0791015625,0,3.599609375-3.1591796875,6.478515625-8.3984375,6.478515625-3.8388671875,0-6.7587890625-1.958984375-8.4384765625-4.19921875Z"/><path class="cls-1" d="m297.6884765625.51953125h3.599609375v11.478515625c1.0390625-1.759765625,3.2392578125-3.5595703125,6.5986328125-3.5595703125,5.19921875,0,7.9580078125,3.359375,7.9580078125,8.798828125v11.677734375h-3.5986328125v-11.318359375c0-3.8388671875-1.919921875-5.87890625-5.3193359375-5.87890625s-5.2392578125,2.51953125-5.638671875,4.119140625v13.078125h-3.599609375V.51953125Z"/><path class="cls-1" d="m319.3798828125,18.876953125c0-5.7587890625,4-10.4384765625,10.23828125-10.4384765625,3.9599609375,0,7.0390625,1.919921875,8.8388671875,5.0791015625l-2.6796875,1.8798828125c-1.2001953125-2.240234375-3.359375-3.6796875-6.0390625-3.6796875-3.8388671875,0-6.6787109375,2.759765625-6.6787109375,7.1591796875,0,4.439453125,2.83984375,7.1982421875,6.6787109375,7.1982421875,2.6796875,0,4.8388671875-1.439453125,6.0390625-3.6787109375l2.6796875,1.87890625c-1.7998046875,3.16015625-4.87890625,5.0791015625-8.8388671875,5.0791015625-6.23828125,0-10.23828125-4.6787109375-10.23828125-10.4775390625Z"/><path class="cls-1" d="m341.755859375.51953125h3.599609375v11.478515625c1.0390625-1.759765625,3.2392578125-3.5595703125,6.5986328125-3.5595703125,5.19921875,0,7.9580078125,3.359375,7.9580078125,8.798828125v11.677734375h-3.5986328125v-11.318359375c0-3.8388671875-1.919921875-5.87890625-5.3193359375-5.87890625s-5.2392578125,2.51953125-5.638671875,4.119140625v13.078125h-3.599609375V.51953125Z"/><path class="cls-1" d="m363.466796875,18.9169921875c0-6.19921875,4.0791015625-10.478515625,9.87890625-10.478515625,5.7587890625,0,9.59765625,4.279296875,9.59765625,9.837890625,0,.560546875-.080078125,1.3203125-.1591796875,1.8798828125h-15.677734375c.439453125,3.6396484375,2.7998046875,5.9990234375,6.6787109375,5.9990234375,2.6796875,0,5.119140625-1.439453125,6.5185546875-3.51953125l2.2001953125,2.2802734375c-2,2.6796875-5.0390625,4.478515625-8.87890625,4.478515625-6.119140625,0-10.158203125-4.5185546875-10.158203125-10.4775390625Zm3.6796875-1.759765625h12.158203125c-.240234375-3.439453125-2.7197265625-5.5595703125-5.958984375-5.5595703125-3.2802734375,0-5.6396484375,2.0400390625-6.19921875,5.5595703125Z"/><path class="cls-1" d="m383.50390625,8.8779296875h3.83984375l6.279296875,15.4775390625,6.318359375-15.4775390625h3.83984375l-8.3984375,20.037109375h-3.4794921875l-8.3994140625-20.037109375Z"/><path class="cls-1" d="m1.919921875,45.2001953125h3.87890625v4.3193359375H1.919921875v-4.3193359375Zm.16015625,8.8779296875h3.599609375v20.037109375h-3.599609375v-20.037109375Z"/><path class="cls-1" d="m10.5439453125,54.078125h3.599609375v3.0400390625c1.0390625-1.759765625,3.2392578125-3.4794921875,6.5986328125-3.4794921875,5.19921875,0,7.9580078125,3.359375,7.9580078125,8.798828125v11.677734375h-3.5986328125v-11.318359375c0-3.8388671875-1.919921875-5.87890625-5.3193359375-5.87890625-3,0-5.0390625,1.919921875-5.638671875,4.119140625v13.078125h-3.599609375v-20.037109375Z"/><path class="cls-1" d="m44.4228515625,67.076171875v-10.0380859375h-3.4794921875v-2.9599609375h3.5595703125v-5.1982421875h3.51953125v5.1982421875h4.9189453125v2.9599609375h-4.9189453125v10.158203125c0,2.9599609375,1.3193359375,3.9990234375,4.279296875,3.9990234375h.6396484375v2.9599609375c-.439453125.080078125-1.0400390625.16015625-1.599609375.16015625-4.5595703125,0-6.9189453125-2.240234375-6.9189453125-7.2392578125Z"/><path class="cls-1" d="m55.982421875,45.7197265625h3.599609375v11.478515625c1.0390625-1.759765625,3.2392578125-3.5595703125,6.5986328125-3.5595703125,5.19921875,0,7.9580078125,3.359375,7.9580078125,8.798828125v11.677734375h-3.5986328125v-11.318359375c0-3.8388671875-1.919921875-5.87890625-5.3193359375-5.87890625s-5.2392578125,2.51953125-5.638671875,4.119140625v13.078125h-3.599609375v-28.3955078125Z"/><path class="cls-1" d="m77.6943359375,64.1171875c0-6.19921875,4.0791015625-10.478515625,9.87890625-10.478515625,5.7587890625,0,9.59765625,4.279296875,9.59765625,9.837890625,0,.560546875-.080078125,1.3203125-.1591796875,1.8798828125h-15.677734375c.439453125,3.6396484375,2.7998046875,5.9990234375,6.6787109375,5.9990234375,2.6796875,0,5.119140625-1.439453125,6.5185546875-3.51953125l2.2001953125,2.2802734375c-2,2.6796875-5.0390625,4.478515625-8.87890625,4.478515625-6.119140625,0-10.158203125-4.5185546875-10.158203125-10.4775390625Zm3.6796875-1.759765625h12.158203125c-.240234375-3.439453125-2.7197265625-5.5595703125-5.958984375-5.5595703125-3.2802734375,0-5.6396484375,2.0400390625-6.19921875,5.5595703125Z"/><path class="cls-1" d="m118.8115234375,46.919921875h4.1591796875l10.9580078125,27.1953125h-3.87890625l-2.6396484375-6.55859375h-13.1181640625l-2.599609375,6.55859375h-3.87890625l10.998046875-27.1953125Zm-3.19921875,17.357421875h10.517578125l-5.2392578125-13.1982421875-5.2783203125,13.1982421875Z"/><path class="cls-1" d="m165.2353515625,62.796875c0-3.8388671875-1.83984375-5.87890625-5.2392578125-5.87890625-2.958984375,0-4.87890625,1.919921875-5.5185546875,4.119140625v13.078125h-3.599609375v-11.318359375c0-3.8388671875-1.83984375-5.87890625-5.2392578125-5.87890625-2.958984375,0-4.9189453125,1.919921875-5.5185546875,4.119140625v13.078125h-3.599609375v-20.037109375h3.599609375v3.0400390625c1.0390625-1.759765625,3.1591796875-3.4794921875,6.5185546875-3.4794921875,3.439453125,0,5.7587890625,1.4794921875,6.9189453125,4.0791015625,1.3193359375-2.3994140625,3.9189453125-4.0791015625,7.4384765625-4.0791015625,5.1591796875,0,7.8388671875,3.359375,7.8388671875,8.798828125v11.677734375h-3.599609375v-11.318359375Z"/><path class="cls-1" d="m173.6484375,54.078125h3.599609375v2.83984375c1.5595703125-2,3.9189453125-3.279296875,6.798828125-3.279296875,5.638671875,0,9.7978515625,4.2392578125,9.7978515625,10.4384765625,0,6.23828125-4.1591796875,10.4775390625-9.7978515625,10.4775390625-2.8798828125,0-5.2392578125-1.279296875-6.798828125-3.2392578125v10.158203125h-3.599609375v-27.3955078125Zm16.5166015625,9.9990234375c0-4.4794921875-2.9990234375-7.1591796875-6.7587890625-7.1591796875-2.798828125,0-5.119140625,1.4794921875-6.158203125,3.6796875v6.9990234375c1.0390625,2.19921875,3.359375,3.6787109375,6.158203125,3.6787109375,3.759765625,0,6.7587890625-2.6796875,6.7587890625-7.1982421875Z"/><path class="cls-1" d="m196.396484375,64.1171875c0-6.19921875,4.0791015625-10.478515625,9.87890625-10.478515625,5.7587890625,0,9.59765625,4.279296875,9.59765625,9.837890625,0,.560546875-.080078125,1.3203125-.1591796875,1.8798828125h-15.677734375c.439453125,3.6396484375,2.7998046875,5.9990234375,6.6787109375,5.9990234375,2.6796875,0,5.119140625-1.439453125,6.5185546875-3.51953125l2.2001953125,2.2802734375c-2,2.6796875-5.0390625,4.478515625-8.87890625,4.478515625-6.119140625,0-10.158203125-4.5185546875-10.158203125-10.4775390625Zm3.6796875-1.759765625h12.158203125c-.240234375-3.439453125-2.7197265625-5.5595703125-5.958984375-5.5595703125-3.2802734375,0-5.6396484375,2.0400390625-6.19921875,5.5595703125Z"/><path class="cls-1" d="m216.5576171875,73.9951171875l7.3583984375-10.1181640625-6.958984375-9.638671875v-.16015625h4.0791015625l5.279296875,7.439453125,5.279296875-7.439453125h4.119140625v.16015625l-6.958984375,9.638671875,7.359375,10.1181640625v.1201171875h-4.1201171875l-5.6787109375-7.9189453125-5.638671875,7.9189453125h-4.119140625v-.1201171875Z"/><path class="cls-1" d="m254.8349609375,50.19921875h-8.5986328125v-3.279296875h20.876953125v3.279296875h-8.5986328125v23.916015625h-3.6796875v-23.916015625Z"/><path class="cls-1" d="m268.79296875,46.919921875h3.87890625l9.0380859375,22.916015625,8.9990234375-22.916015625h3.87890625l-10.7978515625,27.1953125h-4.1591796875l-10.837890625-27.1953125Z"/><path class="cls-1" d="m304.6708984375,70.3955078125l2.3193359375-2.439453125c1.240234375,1.83984375,3.5595703125,3.359375,6.19921875,3.359375,2.599609375,0,4.6396484375-1.0400390625,4.6396484375-3.119140625,0-1.599609375-1.5205078125-2.4794921875-3.9599609375-2.83984375l-1.759765625-.279296875c-3.55859375-.560546875-5.87890625-2.3603515625-5.87890625-5.5595703125,0-3.1591796875,2.599609375-5.87890625,7.439453125-5.87890625,3.0791015625,0,5.5185546875,1.359375,6.998046875,3.2392578125l-2.2392578125,2.439453125c-1.2802734375-1.51953125-2.8798828125-2.3994140625-4.8388671875-2.3994140625-2.4794921875,0-3.6796875,1.2001953125-3.6796875,2.51953125,0,1.3603515625,1.1201171875,2.0400390625,2.958984375,2.3193359375l1.7998046875.2802734375c4.359375.6396484375,6.8388671875,2.6796875,6.8388671875,6.0791015625,0,3.599609375-3.1591796875,6.478515625-8.3984375,6.478515625-3.8388671875,0-6.7587890625-1.958984375-8.4384765625-4.19921875Z"/><path class="cls-1" d="m326.521484375,67.076171875v-10.0380859375h-3.4794921875v-2.9599609375h3.5595703125v-5.1982421875h3.51953125v5.1982421875h4.9189453125v2.9599609375h-4.9189453125v10.158203125c0,2.9599609375,1.3193359375,3.9990234375,4.279296875,3.9990234375h.6396484375v2.9599609375c-.439453125.080078125-1.0400390625.16015625-1.599609375.16015625-4.5595703125,0-6.9189453125-2.240234375-6.9189453125-7.2392578125Z"/><path class="cls-1" d="m355.951171875,74.115234375h-3.599609375v-3.0390625c-1.0400390625,1.759765625-3.2392578125,3.478515625-6.5986328125,3.478515625-5.19921875,0-7.958984375-3.359375-7.958984375-8.7978515625v-11.6787109375h3.599609375v11.318359375c0,3.83984375,1.919921875,5.87890625,5.3193359375,5.87890625,2.9990234375,0,5.0390625-1.9189453125,5.638671875-4.119140625v-13.078125h3.599609375v20.037109375Z"/><path class="cls-1" d="m376.359375,71.275390625c-1.5595703125,2-4,3.279296875-6.8388671875,3.279296875-5.6396484375,0-9.798828125-4.2392578125-9.798828125-10.4775390625,0-6.19921875,4.1591796875-10.4384765625,9.798828125-10.4384765625,2.8388671875,0,5.279296875,1.279296875,6.8388671875,3.279296875v-11.1982421875h3.599609375v28.3955078125h-3.599609375v-2.83984375Zm0-3.7587890625v-6.798828125c-1.0400390625-2.2802734375-3.3994140625-3.7998046875-6.19921875-3.7998046875-3.759765625,0-6.7587890625,2.6796875-6.7587890625,7.1591796875,0,4.5185546875,2.9990234375,7.1982421875,6.7587890625,7.1982421875,2.7998046875,0,5.1591796875-1.51953125,6.19921875-3.7587890625Z"/><path class="cls-1" d="m384.705078125,45.2001953125h3.87890625v4.3193359375h-3.87890625v-4.3193359375Zm.16015625,8.8779296875h3.599609375v20.037109375h-3.599609375v-20.037109375Z"/><path class="cls-1" d="m392.11328125,64.1171875c0-5.798828125,3.919921875-10.478515625,10.318359375-10.478515625,6.3994140625,0,10.318359375,4.6796875,10.318359375,10.478515625,0,5.7587890625-3.9189453125,10.4775390625-10.318359375,10.4775390625-6.3984375,0-10.318359375-4.71875-10.318359375-10.4775390625Zm16.95703125,0c0-4.3994140625-2.9189453125-7.19921875-6.638671875-7.19921875s-6.638671875,2.7998046875-6.638671875,7.19921875,2.9189453125,7.1982421875,6.638671875,7.1982421875,6.638671875-2.798828125,6.638671875-7.1982421875Z"/><path class="cls-1" d="m441.4296875,71.275390625c-1.5595703125,2-4,3.279296875-6.8388671875,3.279296875-5.6396484375,0-9.798828125-4.2392578125-9.798828125-10.4775390625,0-6.19921875,4.1591796875-10.4384765625,9.798828125-10.4384765625,2.8388671875,0,5.279296875,1.279296875,6.8388671875,3.279296875v-2.83984375h3.599609375v20.037109375h-3.599609375v-2.83984375Zm0-3.6787109375v-6.958984375c-1.0400390625-2.240234375-3.3994140625-3.7197265625-6.19921875-3.7197265625-3.759765625,0-6.7587890625,2.7197265625-6.7587890625,7.1591796875,0,4.4794921875,2.9990234375,7.1982421875,6.7587890625,7.1982421875,2.7998046875,0,5.1591796875-1.4794921875,6.19921875-3.6787109375Z"/><path class="cls-1" d="m451.2109375,67.076171875v-10.0380859375h-3.4794921875v-2.9599609375h3.5595703125v-5.1982421875h3.51953125v5.1982421875h4.9189453125v2.9599609375h-4.9189453125v10.158203125c0,2.9599609375,1.3193359375,3.9990234375,4.279296875,3.9990234375h.6396484375v2.9599609375c-.439453125.080078125-1.0400390625.16015625-1.599609375.16015625-4.5595703125,0-6.9189453125-2.240234375-6.9189453125-7.2392578125Z"/><path class="cls-1" d="m3.4794921875,112.2763671875v-10.0380859375H0v-2.9599609375h3.5595703125v-5.1982421875h3.51953125v5.1982421875h4.9189453125v2.9599609375h-4.9189453125v10.158203125c0,2.9599609375,1.3193359375,3.9990234375,4.279296875,3.9990234375h.6396484375v2.9599609375c-.439453125.080078125-1.0400390625.16015625-1.599609375.16015625-4.5595703125,0-6.9189453125-2.240234375-6.9189453125-7.2392578125Z"/><path class="cls-1" d="m15.0400390625,90.919921875h3.599609375v11.478515625c1.0390625-1.759765625,3.2392578125-3.5595703125,6.5986328125-3.5595703125,5.19921875,0,7.9580078125,3.359375,7.9580078125,8.798828125v11.677734375h-3.5986328125v-11.318359375c0-3.8388671875-1.919921875-5.87890625-5.3193359375-5.87890625s-5.2392578125,2.51953125-5.638671875,4.119140625v13.078125h-3.599609375v-28.3955078125Z"/><path class="cls-1" d="m36.7509765625,109.3173828125c0-6.19921875,4.0791015625-10.478515625,9.87890625-10.478515625,5.7587890625,0,9.59765625,4.279296875,9.59765625,9.837890625,0,.560546875-.080078125,1.3203125-.1591796875,1.8798828125h-15.677734375c.439453125,3.6396484375,2.7998046875,5.9990234375,6.6787109375,5.9990234375,2.6796875,0,5.119140625-1.439453125,6.5185546875-3.51953125l2.2001953125,2.2802734375c-2,2.6796875-5.0390625,4.478515625-8.87890625,4.478515625-6.119140625,0-10.158203125-4.5185546875-10.158203125-10.4775390625Zm3.6796875-1.759765625h12.158203125c-.240234375-3.439453125-2.7197265625-5.5595703125-5.958984375-5.5595703125-3.2802734375,0-5.6396484375,2.0400390625-6.19921875,5.5595703125Z"/><path class="cls-1" d="m77.8701171875,92.1201171875h4.1591796875l10.9580078125,27.1953125h-3.87890625l-2.6396484375-6.55859375h-13.1181640625l-2.599609375,6.55859375h-3.878923553l10.998064178-27.1953125Zm-3.19921875,17.357421875h10.517578125l-5.2392578125-13.1982421875-5.2783203125,13.1982421875Z"/><path class="cls-1" d="m124.2939453125,107.9970703125c0-3.8388671875-1.83984375-5.87890625-5.2392578125-5.87890625-2.958984375,0-4.87890625,1.919921875-5.5185546875,4.119140625v13.078125h-3.599609375v-11.318359375c0-3.8388671875-1.83984375-5.87890625-5.2392578125-5.87890625-2.958984375,0-4.9189453125,1.919921875-5.5185546875,4.119140625v13.078125h-3.599609375v-20.037109375h3.599609375v3.0400390625c1.0390625-1.759765625,3.1591796875-3.4794921875,6.5185546875-3.4794921875,3.439453125,0,5.7587890625,1.4794921875,6.9189453125,4.0791015625,1.3193359375-2.3994140625,3.9189453125-4.0791015625,7.4384765625-4.0791015625,5.1591796875,0,7.8388671875,3.359375,7.8388671875,8.798828125v11.677734375h-3.599609375v-11.318359375Z"/><path class="cls-1" d="m131.509765625,109.3173828125c0-6.19921875,4.0791015625-10.478515625,9.87890625-10.478515625,5.7587890625,0,9.59765625,4.279296875,9.59765625,9.837890625,0,.560546875-.080078125,1.3203125-.1591796875,1.8798828125h-15.677734375c.439453125,3.6396484375,2.7998046875,5.9990234375,6.6787109375,5.9990234375,2.6796875,0,5.119140625-1.439453125,6.5185546875-3.51953125l2.2001953125,2.2802734375c-2,2.6796875-5.0390625,4.478515625-8.87890625,4.478515625-6.119140625,0-10.158203125-4.5185546875-10.158203125-10.4775390625Zm3.6796875-1.759765625h12.158203125c-.240234375-3.439453125-2.7197265625-5.5595703125-5.958984375-5.5595703125-3.2802734375,0-5.6396484375,2.0400390625-6.19921875,5.5595703125Z"/><path class="cls-1" d="m154.6826171875,99.2783203125h3.599609375v3.439453125c1.119140625-2.19921875,3.2392578125-3.87890625,6.318359375-3.87890625h.4404296875v3.4794921875c-3.240234375.080078125-5.6796875,1.3994140625-6.7587890625,4.51953125v12.4775390625h-3.599609375v-20.037109375Z"/><path class="cls-1" d="m167.5224609375,90.400390625h3.87890625v4.3193359375h-3.87890625v-4.3193359375Zm.16015625,8.8779296875h3.599609375v20.037109375h-3.599609375v-20.037109375Z"/><path class="cls-1" d="m174.9306640625,109.27734375c0-5.7587890625,4-10.4384765625,10.23828125-10.4384765625,3.9599609375,0,7.0390625,1.919921875,8.8388671875,5.0791015625l-2.6796875,1.8798828125c-1.2001953125-2.240234375-3.359375-3.6796875-6.0390625-3.6796875-3.8388671875,0-6.6787109375,2.759765625-6.6787109375,7.1591796875,0,4.439453125,2.83984375,7.1982421875,6.6787109375,7.1982421875,2.6796875,0,4.8388671875-1.439453125,6.0390625-3.6787109375l2.6796875,1.87890625c-1.7998046875,3.16015625-4.87890625,5.0791015625-8.8388671875,5.0791015625-6.23828125,0-10.23828125-4.6787109375-10.23828125-10.4775390625Z"/><path class="cls-1" d="m212.5234375,116.4755859375c-1.5595703125,2-4,3.279296875-6.8388671875,3.279296875-5.6396484375,0-9.798828125-4.2392578125-9.798828125-10.4775390625,0-6.19921875,4.1591796875-10.4384765625,9.798828125-10.4384765625,2.8388671875,0,5.279296875,1.2802734375,6.8388671875,3.279296875v-2.83984375h3.599609375v20.037109375h-3.599609375v-2.83984375Zm0-3.6787109375v-6.958984375c-1.0400390625-2.240234375-3.3994140625-3.7197265625-6.19921875-3.7197265625-3.759765625,0-6.7587890625,2.7197265625-6.7587890625,7.1591796875,0,4.4794921875,2.9990234375,7.1982421875,6.7587890625,7.1982421875,2.7998046875,0,5.1591796875-1.4794921875,6.19921875-3.6787109375Z"/><path class="cls-1" d="m221.017578125,99.2783203125h3.599609375v3.0400390625c1.0390625-1.759765625,3.2392578125-3.4794921875,6.5986328125-3.4794921875,5.19921875,0,7.9580078125,3.359375,7.9580078125,8.798828125v11.677734375h-3.5986328125v-11.318359375c0-3.8388671875-1.919921875-5.87890625-5.3193359375-5.87890625-3,0-5.0390625,1.919921875-5.638671875,4.119140625v13.078125h-3.599609375v-20.037109375Z"/><path class="cls-1" d="m254.1767578125,92.1201171875h3.2392578125l16.6376953125,21.0361328125v-21.0361328125h3.6787109375v27.1953125h-3.2392578125l-16.63671875-21.0361328125v21.0361328125h-3.6796875v-27.1953125Z"/><path class="cls-1" d="m298.826171875,116.4755859375c-1.5595703125,2-4,3.279296875-6.8388671875,3.279296875-5.6396484375,0-9.798828125-4.2392578125-9.798828125-10.4775390625,0-6.19921875,4.1591796875-10.4384765625,9.798828125-10.4384765625,2.8388671875,0,5.279296875,1.2802734375,6.8388671875,3.279296875v-2.83984375h3.599609375v20.037109375h-3.599609375v-2.83984375Zm0-3.6787109375v-6.958984375c-1.0400390625-2.240234375-3.3994140625-3.7197265625-6.19921875-3.7197265625-3.759765625,0-6.7587890625,2.7197265625-6.7587890625,7.1591796875,0,4.4794921875,2.9990234375,7.1982421875,6.7587890625,7.1982421875,2.7998046875,0,5.1591796875-1.4794921875,6.19921875-3.6787109375Z"/><path class="cls-1" d="m308.607421875,112.2763671875v-10.0380859375h-3.4794921875v-2.9599609375h3.5595703125v-5.1982421875h3.51953125v5.1982421875h4.9189453125v2.9599609375h-4.9189453125v10.158203125c0,2.9599609375,1.3193359375,3.9990234375,4.279296875,3.9990234375h.6396484375v2.9599609375c-.439453125.080078125-1.0400390625.16015625-1.599609375.16015625-4.5595703125,0-6.9189453125-2.240234375-6.9189453125-7.2392578125Z"/><path class="cls-1" d="m319.8154296875,90.400390625h3.87890625v4.3193359375h-3.87890625v-4.3193359375Zm.16015625,8.8779296875h3.599609375v20.037109375h-3.599609375v-20.037109375Z"/><path class="cls-1" d="m327.2236328125,109.3173828125c0-5.798828125,3.919921875-10.478515625,10.318359375-10.478515625,6.3994140625,0,10.318359375,4.6796875,10.318359375,10.478515625,0,5.7587890625-3.9189453125,10.4775390625-10.318359375,10.4775390625-6.3984375,0-10.318359375-4.71875-10.318359375-10.4775390625Zm16.95703125,0c0-4.3994140625-2.9189453125-7.19921875-6.638671875-7.19921875s-6.638671875,2.7998046875-6.638671875,7.19921875,2.9189453125,7.1982421875,6.638671875,7.1982421875,6.638671875-2.798828125,6.638671875-7.1982421875Z"/><path class="cls-1" d="m351.6318359375,99.2783203125h3.599609375v3.0400390625c1.0390625-1.759765625,3.2392578125-3.4794921875,6.5986328125-3.4794921875,5.19921875,0,7.9580078125,3.359375,7.9580078125,8.798828125v11.677734375h-3.5986328125v-11.318359375c0-3.8388671875-1.919921875-5.87890625-5.3193359375-5.87890625-3,0-5.0390625,1.919921875-5.638671875,4.119140625v13.078125h-3.599609375v-20.037109375Z"/><path class="cls-1" d="m389.9599609375,116.4755859375c-1.5595703125,2-4,3.279296875-6.8388671875,3.279296875-5.6396484375,0-9.798828125-4.2392578125-9.798828125-10.4775390625,0-6.19921875,4.1591796875-10.4384765625,9.798828125-10.4384765625,2.8388671875,0,5.279296875,1.2802734375,6.8388671875,3.279296875v-2.83984375h3.5986328125v20.037109375h-3.5986328125v-2.83984375Zm0-3.6787109375v-6.958984375c-1.0400390625-2.240234375-3.3994140625-3.7197265625-6.19921875-3.7197265625-3.759765625,0-6.7587890625,2.7197265625-6.7587890625,7.1591796875,0,4.4794921875,2.9990234375,7.1982421875,6.7587890625,7.1982421875,2.7998046875,0,5.1591796875-1.4794921875,6.19921875-3.6787109375Z"/><path class="cls-1" d="m398.4541015625,90.919921875h3.599609375v28.3955078125h-3.599609375v-28.3955078125Z"/><path class="cls-1" d="m2.759765625,137.3193359375h18.4365234375v3.279296875H6.439453125v8.55859375h12.91796875v3.279296875H6.439453125v8.798828125h14.7568359375v3.279296875H2.759765625v-27.1953125Z"/><path class="cls-1" d="m23.4248046875,164.39453125l7.3583984375-10.1181640625-6.958984375-9.638671875v-.16015625h4.0791015625l5.279296875,7.439453125,5.279296875-7.439453125h4.119140625v.16015625l-6.9590008885,9.638671875,7.3593915135,10.1181640625v.1201171875h-4.1201171875l-5.6787109375-7.9189453125-5.638671875,7.9189453125h-4.119140625v-.1201171875Z"/><path class="cls-1" d="m45.546875,136.119140625h3.599609375v11.478515625c1.0390625-1.759765625,3.2392578125-3.5595703125,6.5986328125-3.5595703125,5.19921875,0,7.9580078125,3.359375,7.9580078125,8.798828125v11.677734375h-3.5986328125v-11.318359375c0-3.8388671875-1.919921875-5.87890625-5.3193359375-5.87890625s-5.2392578125,2.51953125-5.638671875,4.119140625v13.078125h-3.599609375v-28.3955078125Z"/><path class="cls-1" d="m68.22265625,135.599609375h3.87890625v4.3193359375h-3.87890625v-4.3193359375Zm.16015625,8.8779296875h3.599609375v20.037109375h-3.599609375v-20.037109375Z"/><path class="cls-1" d="m80.4462890625,164.5146484375h-3.599609375v-28.3955078125h3.599609375v11.1982421875c1.5595703125-1.9990234375,3.9990234375-3.279296875,6.8388671875-3.279296875,5.638671875,0,9.7978515625,4.2392578125,9.7978515625,10.4384765625,0,6.23828125-4.1591796875,10.4775390625-9.7978515625,10.4775390625-2.83984375,0-5.279296875-1.279296875-6.8388671875-3.279296875v2.83984375Zm12.95703125-10.0380859375c0-4.4794921875-2.9990234375-7.1591796875-6.7587890625-7.1591796875-2.798828125,0-5.1591796875,1.51953125-6.1982421875,3.7998046875v6.798828125c1.0390625,2.2392578125,3.3994140625,3.7587890625,6.1982421875,3.7587890625,3.759765625,0,6.7587890625-2.6796875,6.7587890625-7.1982421875Z"/><path class="cls-1" d="m100.658203125,135.599609375h3.87890625v4.3193359375h-3.87890625v-4.3193359375Zm.16015625,8.8779296875h3.599609375v20.037109375h-3.599609375v-20.037109375Z"/><path class="cls-1" d="m110.5537109375,157.4755859375v-10.0380859375h-3.4794921875v-2.9599609375h3.5595703125v-5.1982421875h3.51953125v5.1982421875h4.9189453125v2.9599609375h-4.9189453125v10.158203125c0,2.9599609375,1.3193359375,3.9990234375,4.279296875,3.9990234375h.6396484375v2.9599609375c-.439453125.080078125-1.0400390625.16015625-1.599609375.16015625-4.5595703125,0-6.9189453125-2.240234375-6.9189453125-7.2392578125Z"/><path class="cls-1" d="m121.76171875,135.599609375h3.87890625v4.3193359375h-3.87890625v-4.3193359375Zm.16015625,8.8779296875h3.599609375v20.037109375h-3.599609375v-20.037109375Z"/><path class="cls-1" d="m129.169921875,154.5166015625c0-5.798828125,3.919921875-10.478515625,10.318359375-10.478515625,6.3994140625,0,10.318359375,4.6796875,10.318359375,10.478515625,0,5.7587890625-3.9189453125,10.4775390625-10.318359375,10.4775390625-6.3984375,0-10.318359375-4.71875-10.318359375-10.4775390625Zm16.95703125,0c0-4.3994140625-2.9189453125-7.19921875-6.638671875-7.19921875s-6.638671875,2.7998046875-6.638671875,7.19921875,2.9189453125,7.1982421875,6.638671875,7.1982421875,6.638671875-2.798828125,6.638671875-7.1982421875Z"/><path class="cls-1" d="m153.578125,144.4775390625h3.599609375v3.0400390625c1.0390625-1.759765625,3.2392578125-3.4794921875,6.5986328125-3.4794921875,5.19921875,0,7.9580078125,3.359375,7.9580078125,8.798828125v11.677734375h-3.5986328125v-11.318359375c0-3.8388671875-1.919921875-5.87890625-5.3193359375-5.87890625-3,0-5.0390625,1.919921875-5.638671875,4.119140625v13.078125h-3.599609375v-20.037109375Z"/><path class="cls-1" d="m185.896484375,135.599609375h3.87890625v4.3193359375h-3.87890625v-4.3193359375Zm.16015625,8.8779296875h3.599609375v20.037109375h-3.599609375v-20.037109375Z"/><path class="cls-1" d="m194.521484375,144.4775390625h3.599609375v3.0400390625c1.0390625-1.759765625,3.2392578125-3.4794921875,6.5986328125-3.4794921875,5.19921875,0,7.9580078125,3.359375,7.9580078125,8.798828125v11.677734375h-3.5986328125v-11.318359375c0-3.8388671875-1.919921875-5.87890625-5.3193359375-5.87890625-3,0-5.0390625,1.919921875-5.638671875,4.119140625v13.078125h-3.599609375v-20.037109375Z"/><path class="cls-1" d="m227.6796875,137.3193359375h4.9189453125l9.638671875,22.4765625,9.638671875-22.4765625h4.9189453125v27.1953125h-3.6796875v-21.5166015625l-9.1982421875,21.5166015625h-3.359375l-9.1982421875-21.5166015625v21.5166015625h-3.6796875v-27.1953125Z"/><path class="cls-1" d="m261.2001953125,154.5166015625c0-5.798828125,3.919921875-10.478515625,10.318359375-10.478515625,6.3994140625,0,10.318359375,4.6796875,10.318359375,10.478515625,0,5.7587890625-3.9189453125,10.4775390625-10.318359375,10.4775390625-6.3984375,0-10.318359375-4.71875-10.318359375-10.4775390625Zm16.95703125,0c0-4.3994140625-2.9189453125-7.19921875-6.638671875-7.19921875s-6.638671875,2.7998046875-6.638671875,7.19921875,2.9189453125,7.1982421875,6.638671875,7.1982421875,6.638671875-2.798828125,6.638671875-7.1982421875Z"/><path class="cls-1" d="m283.3037109375,160.794921875l2.3193359375-2.439453125c1.240234375,1.83984375,3.5595703125,3.359375,6.19921875,3.359375,2.599609375,0,4.6396484375-1.0390625,4.6396484375-3.119140625,0-1.599609375-1.5205078125-2.4794921875-3.9599609375-2.83984375l-1.759765625-.279296875c-3.55859375-.560546875-5.87890625-2.3603515625-5.87890625-5.5595703125,0-3.1591796875,2.599609375-5.87890625,7.439453125-5.87890625,3.0791015625,0,5.5185546875,1.359375,6.998046875,3.2392578125l-2.2392578125,2.439453125c-1.2802734375-1.51953125-2.8798828125-2.3994140625-4.8388671875-2.3994140625-2.4794921875,0-3.6796875,1.2001953125-3.6796875,2.51953125,0,1.3603515625,1.1201171875,2.0400390625,2.958984375,2.3193359375l1.7998046875.2802734375c4.359375.6396484375,6.8388671875,2.6796875,6.8388671875,6.0791015625,0,3.599609375-3.1591796875,6.478515625-8.3984375,6.478515625-3.8388671875,0-6.7587890625-1.958984375-8.4384765625-4.19921875Z"/><path class="cls-1" d="m302.3876953125,154.4765625c0-5.7587890625,4-10.4384765625,10.23828125-10.4384765625,3.9599609375,0,7.0390625,1.919921875,8.8388671875,5.0791015625l-2.6796875,1.8798828125c-1.2001953125-2.240234375-3.359375-3.6796875-6.0390625-3.6796875-3.8388671875,0-6.6787109375,2.759765625-6.6787109375,7.1591796875,0,4.439453125,2.83984375,7.1982421875,6.6787109375,7.1982421875,2.6796875,0,4.8388671875-1.439453125,6.0390625-3.6787109375l2.6796875,1.87890625c-1.7998046875,3.16015625-4.87890625,5.0791015625-8.8388671875,5.0791015625-6.23828125,0-10.23828125-4.6787109375-10.23828125-10.4775390625Z"/><path class="cls-1" d="m323.298828125,154.5166015625c0-5.798828125,3.919921875-10.478515625,10.318359375-10.478515625,6.3994140625,0,10.318359375,4.6796875,10.318359375,10.478515625,0,5.7587890625-3.9189453125,10.4775390625-10.318359375,10.4775390625-6.3984375,0-10.318359375-4.71875-10.318359375-10.4775390625Zm16.95703125,0c0-4.3994140625-2.9189453125-7.19921875-6.638671875-7.19921875s-6.638671875,2.7998046875-6.638671875,7.19921875,2.9189453125,7.1982421875,6.638671875,7.1982421875,6.638671875-2.798828125,6.638671875-7.1982421875Z"/><path class="cls-1" d="m344.7548828125,144.4775390625h3.7998046875l4.8388671875,15.158203125,5.439453125-15.158203125h3.6396484375l5.4384765625,15.158203125,4.83984375-15.158203125h3.798828125l-6.71875,20.037109375h-3.4794921875l-5.6787109375-15.517578125-5.7197265625,15.517578125h-3.478515625l-6.7197265625-20.037109375Z"/><path class="cls-1" d="m379.466796875,166.314453125h-2.16015625v-4.759765625h4.759765625v4.2001953125l-2.16015625,6.638671875h-2.3994140625l1.9599609375-6.0791015625Z"/><path class="cls-1" d="m400.7841796875,141.4384765625l-5.798828125,3.279296875-1.359375-2.87890625,7.958984375-4.51953125h2.798828125v27.1953125h-3.599609375v-23.076171875Z"/><path class="cls-1" d="m430.0810546875,150.2373046875c0,9.2783203125-4.71875,14.7568359375-12.0380859375,14.7568359375-4.1591796875,0-7.158203125-2.119140625-8.837890625-4.6787109375l2.5595703125-2.16015625c1.279296875,2.0400390625,3.51953125,3.3994140625,6.2783203125,3.3994140625,4.7197265625,0,7.958984375-3.55859375,8.3193359375-9.5576171875-1.6396484375,2.279296875-4.3193359375,3.9990234375-7.71875,3.9990234375-5.2392578125,0-9.5986328125-3.9189453125-9.5986328125-9.55859375,0-5.55859375,4.5595703125-9.5986328125,10.158203125-9.5986328125,7.0791015625,0,10.8779296875,5.439453125,10.8779296875,13.3984375Zm-17.31640625-3.83984375c0,3.3193359375,2.51953125,6.1591796875,6.3984375,6.1591796875,3.8798828125,0,6.3994140625-2.83984375,6.3994140625-6.1591796875s-2.51953125-6.119140625-6.3994140625-6.119140625c-3.87890625,0-6.3984375,2.7998046875-6.3984375,6.119140625Z"/><path class="cls-1" d="m432.1767578125,160.435546875l2.2392578125-2.51953125c1.48046875,1.7998046875,3.6396484375,3.638671875,7.19921875,3.638671875,3.87890625,0,6.87890625-2.3193359375,6.87890625-6.1982421875,0-3.6796875-2.599609375-5.8388671875-6.1591796875-5.8388671875-2.51953125,0-4.279296875.759765625-5.798828125,1.9990234375l-2.2001953125-.759765625.0400390625-.2001953125,1.3203125-13.2373046875h14.95703125v3.279296875h-11.7578125l-.759765625,6.3994140625c1.240234375-.5205078125,2.6796875-.919921875,4.3994140625-.919921875,5.359375,0,9.6787109375,3.19921875,9.6787109375,9.2783203125,0,5.9189453125-4.4794921875,9.6376953125-10.5986328125,9.6376953125-4.7587890625,0-7.71875-2.5595703125-9.4384765625-4.55859375Z"/><path class="cls-1" d="m475.724609375,150.2373046875c0,9.2783203125-4.71875,14.7568359375-12.0380859375,14.7568359375-4.1591796875,0-7.158203125-2.119140625-8.837890625-4.6787109375l2.5595703125-2.16015625c1.279296875,2.0400390625,3.51953125,3.3994140625,6.2783203125,3.3994140625,4.7197265625,0,7.958984375-3.55859375,8.3193359375-9.5576171875-1.6396484375,2.279296875-4.3193359375,3.9990234375-7.71875,3.9990234375-5.2392578125,0-9.5986328125-3.9189453125-9.5986328125-9.55859375,0-5.55859375,4.5595703125-9.5986328125,10.158203125-9.5986328125,7.0791015625,0,10.8779296875,5.439453125,10.8779296875,13.3984375Zm-17.31640625-3.83984375c0,3.3193359375,2.51953125,6.1591796875,6.3984375,6.1591796875,3.8798828125,0,6.3994140625-2.83984375,6.3994140625-6.1591796875s-2.51953125-6.119140625-6.3994140625-6.119140625c-3.87890625,0-6.3984375,2.7998046875-6.3984375,6.119140625Z"/><path class="cls-1" d="m.208984375,210.6108398438h8.3291015625v-4.3681640625h-4.392578125c-.6240234375,0-1.0078125-.240234375-1.0078125-.8403320312v-8.9287109375h12.9853515625v9.7690429688h-5.376953125v4.3681640625h8.3046875v1.9682617188H.208984375v-1.9682617188Zm5.1611328125-6.2885742188h8.544921875v-5.9282226562H5.3701171875v5.9282226562Z"/><path class="cls-1" d="m20.8681640625,210.5869140625h18.841796875v1.9443359375h-18.841796875v-1.9443359375Zm16.5615234375-3.6962890625c-2.904296875-.6723632812-6.2880859375-2.8803710938-7.1279296875-5.4965820312-.7919921875,2.6884765625-4.12890625,4.8486328125-7.12890625,5.6166992188l-.81640625-1.8481445312c3.408203125-.9604492188,6.79296875-3.1923828125,6.79296875-7.6088867188v-1.6323242188h2.255859375v1.6083984375c0,4.4165039062,3.3125,6.5043945312,6.865234375,7.5126953125l-.8408203125,1.8481445312Z"/><path class="cls-1" d="m41.5263671875,210.5390625h12.09765625c.83984375-2.1123046875,1.271484375-4.3208007812,1.4638671875-6.5766601562-1.1044921875.7919921875-2.7841796875,1.0561523438-5.2802734375,1.0561523438h-5.7841796875v-1.8481445312h5.904296875c2.0634765625,0,3.9599609375-.0961914062,5.255859375-.7202148438.0244140625-.5283203125.0478515625-1.080078125.0478515625-1.6083984375v-2.3999023438h-10.8486328125v-1.9204101562h13.0576171875v3.4326171875c0,4.416015625-.50390625,7.6083984375-1.8486328125,10.5849609375h4.7763671875v1.9438476562h-18.841796875v-1.9438476562Z"/><path class="cls-1" d="m69.646484375,196.4018554688h2.16015625v13.4169921875h-8.5927734375c-.6240234375,0-.984375-.2641601562-.984375-.8642578125v-12.552734375h2.16015625v4.6083984375h5.2568359375v-4.6083984375Zm0,11.4965820312v-4.9682617188h-5.2568359375v4.9682617188h5.2568359375Zm5.7119140625,7.3686523438v-20.6416015625h2.2080078125v7.392578125h3.072265625v1.9443359375h-3.072265625v11.3046875h-2.2080078125Z"/><path class="cls-1" d="m93.126953125,214.6669921875v-10.728515625h-1.9921875c-.2158203125,3.3842773438-1.6318359375,5.736328125-4.392578125,5.736328125-3,0-4.4638671875-2.736328125-4.4638671875-6.6245117188,0-3.9125976562,1.4638671875-6.6245117188,4.4638671875-6.6245117188,2.736328125,0,4.15234375,2.328125,4.369140625,5.5922851562h2.015625v-7.0327148438h2.1123046875v19.681640625h-2.1123046875Zm-4.0322265625-11.6166992188c0-2.6645507812-.744140625-4.728515625-2.3525390625-4.728515625-1.6318359375,0-2.3515625,2.0639648438-2.3515625,4.728515625,0,2.6401367188.7197265625,4.7041015625,2.3515625,4.7041015625,1.6083984375,0,2.3525390625-2.0639648438,2.3525390625-4.7041015625Zm8.400390625,12.216796875v-20.6416015625h2.13671875v20.6416015625h-2.13671875Z"/><path class="cls-1" d="m113.1376953125,209.9868164062c-2.4482421875-1.2241210938-4.34375-3.48046875-4.9443359375-5.5205078125-.6240234375,2.232421875-2.4482421875,4.5122070312-5.064453125,5.8803710938-.3837890625-.6000976562-.767578125-1.1997070312-1.1279296875-1.7998046875,3.6240234375-2.0166015625,5.0166015625-4.9926757812,5.0166015625-8.7368164062v-3.5283203125h2.232421875v3.3842773438c0,3.7680664062,1.439453125,6.6005859375,5.0166015625,8.4965820312l-1.12890625,1.82421875Zm3.865234375,5.2802734375v-12.5048828125h-4.6328125v-1.9682617188h4.6328125v-6.1684570312h2.2080078125v20.6416015625h-2.2080078125Z"/><path class="cls-1" d="m128.2080078125,208.3305664062c4.15234375-2.1123046875,6.45703125-5.4965820312,6.45703125-9.6489257812h-5.5927734375v-1.919921875h7.7529296875v1.4399414062c0,5.3046875-2.5205078125,9.2890625-7.5126953125,11.9052734375l-1.1044921875-1.7763671875Zm15.6494140625,6.9365234375v-11.3530273438h-2.904296875v10.7529296875h-2.1357421875v-19.681640625h2.1357421875v6.9848632812h2.904296875v-7.3447265625h2.13671875v20.6416015625h-2.13671875Z"/><path class="cls-1" d="m163.283203125,215.2670898438v-5.0883789062c-1.9921875,1.080078125-5.16015625,1.15234375-8.13671875,1.15234375h-6.5048828125v-1.9443359375h5.4248046875v-3.072265625h2.2080078125v3.072265625h.888671875c2.279296875,0,4.5839646753-.16796875,6.1201171875-.8642578125v-13.8969726562h2.232421875v20.6416015625h-2.232421875Zm-2.83203125-8.6166992188c-2.5927734375-.6000976562-4.6328125-1.8959960938-5.208984375-3.6240234375-.576171875,1.7998046875-2.591796875,3.2641601562-5.3525390625,4.0561523438l-.8876953125-1.7763671875c2.6162109375-.6958007812,4.416015625-1.9916992188,4.82421875-4.2001953125h-3.984375v-1.8959960938h10.6328125v1.8959960938h-3.9365234375c.4560546875,2.1362304688,2.1845703125,3.1684570312,4.80078125,3.7924804688l-.8876953125,1.751953125Zm-8.712890625-11.0649414062h6.8642578125v1.9204101562h-6.8642578125v-1.9204101562Z"/><path class="cls-1" d="m182.9384765625,210.5146484375v-4.0322265625c-2.0166015625,1.1040039062-5.1845703125,1.15234375-8.13671875,1.15234375h-6.5048828125v-1.8725585938h5.400390625v-2.6640625h-3.0478515625c-.6240234375,0-.984375-.2397460938-.984375-.83984375v-6.5048828125h10.201171875v1.896484375h-7.9931640625v3.6000976562h8.185546875v1.8481445312h-4.15234375v2.6640625h1.8232421875c1.96875-.0478515625,3.865234375-.263671875,5.208984375-.8637695312v-10.2729492188h2.232421875v15.8891601562h-2.232421875Zm-10.5849609375-1.1279296875h2.2080078125v3.9604492188h11.208984375v1.919921875h-12.4091796875c-.6240234375,0-1.0078125-.2397460938-1.0078125-.83984375v-5.0405273438Z"/><path class="cls-1" d="m196.6650390625,209.6987304688c-.6240234375,0-.984375-.2641601562-.984375-.8642578125v-12.1206054688h9.5771484375v12.9848632812h-8.5927734375Zm6.4326171875-11.0649414062h-5.2568359375v9.1450195312h5.2568359375v-9.1450195312Zm6.0478515625,16.6333007812v-20.6416015625h2.2080078125v20.6416015625h-2.2080078125Z"/><path class="cls-1" d="m227.78125,216.03515625v-5.5922851562h-11.041015625v-1.8720703125h5.6884765625v-3.408203125h-8.3046875v-1.8481445312h12.43359375c.744140625-1.5844726562,1.0556640625-3.7924804688,1.0556640625-5.3525390625v-.3842773438h-10.6083984375v-1.9438476562h12.8408203125v.9360351562c0,2.6162109375-.3603515625,4.9682617188-1.2958984375,6.7446289062h4.416015625v1.8481445312h-8.3046875v3.408203125h5.3291015625v7.4643554688h-2.208984375Z"/><path class="cls-1" d="m254.060546875,216.03515625v-5.5922851562h-11.041015625v-1.8720703125h5.6884765625v-3.408203125h-8.3046875v-1.8481445312h12.43359375c.744140625-1.5844726562,1.0556640625-3.7924804688,1.0556640625-5.3525390625v-.3842773438h-10.6083984375v-1.9438476562h12.8408203125v.9360351562c0,2.6162109375-.3603515625,4.9682617188-1.2958984375,6.7446289062h4.416015625v1.8481445312h-8.3046875v3.408203125h5.3291015625v7.4643554688h-2.208984375Z"/><path class="cls-1" d="m275.1279296875,206.2182617188v-2.087890625c-1.51171875.9838867188-3.744140625,1.3920898438-6.1201171875,1.4399414062h-6.3603515625c-.6240234375,0-.984375-.2397460938-.984375-.83984375v-5.0166015625h7.2724609375v-2.0400390625h-7.2724609375v-1.8720703125h9.45703125v5.7124023438h-7.2490234375v2.2080078125h4.583984375c2.544921875,0,5.064453125-.2158203125,6.6728515625-1.1279296875v-7.96875h2.2080078125v11.5927734375h-2.2080078125Zm-9.216796875,9.216796875c-.6240234375,0-1.0078125-.263671875-1.0078125-.8637695312v-7.2729492188h2.2080078125v2.1123046875h8.0166015625v-2.1123046875h2.2080078125v8.13671875h-11.4248046875Zm1.2001953125-1.9438476562h8.0166015625v-2.2084960938h-8.0166015625v2.2084960938Z"/><path class="cls-1" d="m295.0712890625,195.7534179688h2.16015625v10.2250976562h-8.5927734375c-.6240234375,0-.984375-.240234375-.984375-.8403320312v-9.384765625h2.16015625v3.1923828125h5.2568359375v-3.1923828125Zm0,8.3291015625v-3.2407226562h-5.2568359375v3.2407226562h5.2568359375Zm5.7119140625,11.4008789062v-5.064453125h-10.7529296875v-1.9204101562h12.9609375v6.9848632812h-2.2080078125Zm0-8.376953125v-12.4809570312h2.2080078125v5.2802734375h3.072265625v1.9443359375h-3.072265625v5.2563476562h-2.2080078125Z"/><path class="cls-1" d="m321.220703125,206.5786132812v-2.2084960938c-1.5595703125,1.0083007812-3.83984375,1.3920898438-6.2880859375,1.4404296875h-5.8564453125c-.6240234375,0-.984375-.240234375-.984375-.8403320312v-5.1362304688h7.2724609375v-2.16015625h-7.2724609375v-1.8720703125h9.45703125v5.8325195312h-7.2490234375v2.328125h4.296875c2.51953125,0,5.015625-.2163085938,6.6240234375-1.1284179688v-8.2084960938h2.2080078125v5.0166015625h3.072265625v1.9438476562h-3.072265625v4.9926757812h-2.2080078125Zm-10.1767578125,1.3920898438h12.384765625v7.4165039062h-11.376953125c-.6240234375,0-1.0078125-.2641601562-1.0078125-.8642578125v-6.5522460938Zm2.2080078125,5.4721679688h7.96875v-3.5522460938h-7.96875v3.5522460938Z"/><path class="cls-1" d="m335.564453125,207.5625v2.064453125h.888671875c2.255859375,0,4.583984375-.16796875,6.1201171875-.8642578125v-14.1372070312h2.232421875v20.6416015625h-2.232421875v-4.8481445312c-1.583984375.83984375-3.9365234375,1.1040039062-6.3125,1.1518554688h-8.3291015625v-1.9438476562h5.4248046875v-2.064453125c-2.3046875-.3598632812-3.744140625-1.9682617188-3.744140625-3.984375,0-1.0317382812.431640625-1.8959960938,1.2001953125-2.49609375h-2.49609375v-1.8720703125h12.2890625v1.8720703125h-2.544921875c.7685546875.6000976562,1.224609375,1.4643554688,1.224609375,2.49609375,0,2.0161132812-1.4404296875,3.6245117188-3.720703125,3.984375Zm-4.5361328125-12.0971679688h6.8642578125v1.9443359375h-6.8642578125v-1.9443359375Zm3.4326171875,10.3930664062c1.6552734375,0,2.6875-1.0078125,2.6875-2.2802734375,0-1.2958984375-1.0078125-2.3041992188-2.6875-2.3041992188-1.65625,0-2.712890625,1.0083007812-2.712890625,2.3041992188,0,1.2724609375,1.056640625,2.2802734375,2.712890625,2.2802734375Z"/><path class="cls-1" d="m369.4521484375,215.2670898438v-11.47265625h-3.1435546875v10.8725585938h-2.13671875v-6.81640625c-1.48828125.8403320312-3.3125,1.1762695312-5.736328125,1.1762695312h-2.7841796875c-.6240234375,0-.984375-.240234375-.984375-.8403320312v-11.6166992188h2.13671875v10.5366210938h2.83203125c1.728515625,0,3.240234375-.2158203125,4.5361328125-.8881835938v-11.2329101562h2.13671875v6.8647460938h3.1435546875v-7.224609375h2.13671875v20.6416015625h-2.13671875Z"/><path class="cls-1" d="m382.3681640625,215.3154296875v-6.4565429688h-8.3046875v-1.9443359375h18.841796875v1.9443359375h-8.3046875v6.4565429688h-2.232421875Zm-4.248046875-10.9453125c-.6240234375,0-1.0078125-.2397460938-1.0078125-.83984375v-8.2084960938h2.2080078125v2.6401367188h8.3291015625v-2.6401367188h2.2080078125v9.0483398438h-11.7373046875Zm1.2001953125-1.919921875h8.3291015625v-2.6162109375h-8.3291015625v2.6162109375Z"/><path class="cls-1" d="m409.421875,215.2670898438v-5.6401367188c-2.0400390625,1.1279296875-5.2802734375,1.17578125-8.3291015625,1.17578125h-6.3125v-1.9682617188h7.4169921875c2.568359375,0,5.4482421875-.0478515625,7.224609375-.8637695312v-13.3452148438h2.232421875v20.6416015625h-2.232421875Zm-8.28125-19.513671875c3.3603515625,0,5.5693359375,2.1362304688,5.5693359375,5.0166015625s-2.208984375,5.0166015625-5.5693359375,5.0166015625c-3.359375,0-5.591796875-2.1362304688-5.591796875-5.0166015625s2.232421875-5.0166015625,5.591796875-5.0166015625Zm0,8.1127929688c1.9921875,0,3.384765625-1.2958984375,3.384765625-3.0961914062s-1.392578125-3.0961914062-3.384765625-3.0961914062c-1.9912109375,0-3.3837890625,1.2958984375-3.3837890625,3.0961914062s1.392578125,3.0961914062,3.3837890625,3.0961914062Z"/><path class="cls-1" d="m5.994140625,225.5615234375c3.3115234375,0,5.49609375,2.0639648438,5.49609375,4.9443359375,0,2.904296875-2.1845703125,4.96875-5.49609375,4.96875-3.3125,0-5.5205078125-2.064453125-5.5205078125-4.96875,0-2.8803710938,2.2080078125-4.9443359375,5.5205078125-4.9443359375Zm0,7.9926757812c1.9677734375,0,3.3115234375-1.248046875,3.3115234375-3.0483398438,0-1.7758789062-1.34375-3.0483398438-3.3115234375-3.0483398438-1.9443359375,0-3.2880859375,1.2724609375-3.2880859375,3.0483398438,0,1.8002929688,1.34375,3.0483398438,3.2880859375,3.0483398438Zm-1.896484375,3.9365234375h12.384765625v7.896484375H5.10546875c-.6240234375,0-1.0078125-.2641601562-1.0078125-.8642578125v-7.0322265625Zm2.2080078125,5.9521484375h7.96875v-4.0322265625h-7.96875v4.0322265625Zm7.96875-7.3442382812v-11.4731445312h2.2080078125v4.7763671875h3.072265625v1.9443359375h-3.072265625v4.7524414062h-2.2080078125Z"/><path class="cls-1" d="m20.3662109375,234.2744140625h2.0166015625c-.3837890625-.8642578125-.5283203125-1.7763671875-.5283203125-2.9282226562v-2.4243164062h2.064453125v2.9760742188c0,.8403320312.0478515625,1.6323242188.19140625,2.3764648438h1.9443359375c.14453125-.744140625.1923665358-1.5361328125.1923665358-2.3764648438v-2.9760742188h2.0879069017v2.4243164062c0,1.1279296875-.16796875,2.0161132812-.5283203125,2.8798828125.8408203125-.0717773438,1.6083984375-.2158203125,2.2802734375-.4560546875l.3603515625,1.48828125c-1.2958984375.6723632812-2.904296875.8881835938-5.0166015625.8881835938h-5.064453125v-1.8720703125Zm.3603515625-6.384765625v-1.8959960938h8.712890625v1.8959960938h-8.712890625Zm14.9775390625,17.59375v-4.96875h-11.2333984375v-1.919921875h13.44140625v6.888671875h-2.2080078125Zm-4.2490234375-8.4487304688v-5.1606445312h-2.0400390625v-1.8481445312h2.0400390625v-5.16015625h2.1123046875v12.1689453125h-2.1123046875Zm4.3203125.1201171875v-12.529296875h2.13671875v12.529296875h-2.13671875Z"/><path class="cls-1" d="m40.38671875,240.5869140625h18.841796875v1.9443359375h-18.841796875v-1.9443359375Zm16.5615234375-3.6962890625c-2.904296875-.6723632812-6.2880859375-2.8803710938-7.1279296875-5.4965820312-.7919921875,2.6884765625-4.12890625,4.8486328125-7.12890625,5.6166992188l-.81640625-1.8481445312c3.408203125-.9604492188,6.79296875-3.1923828125,6.79296875-7.6088867188v-1.6323242188h2.255859375v1.6083984375c0,4.4165039062,3.3125,6.5043945312,6.865234375,7.5126953125l-.8408203125,1.8481445312Z"/><path class="cls-1" d="m71.37109375,228.25h-5.1611328125v-1.9682617188h12.529296875v1.9682617188h-5.16015625v14.3530273438h-2.2080078125v-14.3530273438Z"/><path class="cls-1" d="m79.955078125,226.2817382812h2.328125l5.423828125,13.7529296875,5.400390625-13.7529296875h2.3291015625l-6.4814453125,16.3212890625h-2.49609375l-6.50390625-16.3212890625Z"/><path class="cls-1" d="m102.154296875,240.5869140625h18.841796875v1.9443359375h-18.841796875v-1.9443359375Zm16.5615234375-3.6962890625c-2.904296875-.6723632812-6.2880859375-2.8803710938-7.1279296875-5.4965820312-.7919921875,2.6884765625-4.12890625,4.8486328125-7.12890625,5.6166992188l-.81640625-1.8481445312c3.408203125-.9604492188,6.79296875-3.1923828125,6.79296875-7.6088867188v-1.6323242188h2.255859375v1.6083984375c0,4.4165039062,3.3125,6.5043945312,6.865234375,7.5126953125l-.8408203125,1.8481445312Z"/><path class="cls-1" d="m134.2646484375,245.3154296875v-6.0966796875h-4.9921875v6.0966796875h-2.232421875v-6.0966796875h-4.7763671875v-1.8959960938h18.841796875v1.8959960938h-4.6318359375v6.0966796875h-2.208984375Zm3.384765625-14.11328125h-10.12890625v2.087890625h10.9208984375v1.8481445312h-12.12109375c-.6240234375,0-1.0078125-.2397460938-1.0078125-.83984375v-8.7846679688h12.7451171875v1.8720703125h-10.537109375v2.0161132812h10.12890625v1.8002929688Z"/><path class="cls-1" d="m156.98828125,245.2670898438v-7.1284179688c-1.751953125,1.1279296875-4.4638671875,1.4399414062-7.2001953125,1.4399414062h-5.2802734375c-.6240234375,0-.984375-.263671875-.984375-.8637695312v-12.0009765625h9.720703125v1.9438476562h-7.5126953125v8.9770507812h4.560546875c2.400390625,0,5.087890625-.2641601562,6.6962890625-1.15234375v-11.8569335938h2.2080078125v20.6416015625h-2.2080078125Z"/><path class="cls-1" d="m161.9658203125,240.634765625h8.3046875v-3.8642578125c-3.19140625-.3359375-5.6884765625-2.1840820312-5.6884765625-5.400390625,0-3.576171875,3.0009765625-5.4965820312,6.8173828125-5.4965820312,3.7919921875,0,6.7919921875,1.9204101562,6.7919921875,5.4965820312,0,3.2163085938-2.49609375,5.064453125-5.6884765625,5.400390625v3.8642578125h8.3046875v1.9443359375h-18.841796875v-1.9443359375Zm9.43359375-5.736328125c2.51953125,0,4.5595703125-1.2001953125,4.5595703125-3.5283203125,0-2.3520507812-2.0400390625-3.576171875-4.5595703125-3.576171875-2.544921875,0-4.5849609375,1.2241210938-4.5849609375,3.576171875,0,2.328125,2.0400390625,3.5283203125,4.5849609375,3.5283203125Z"/><path class="cls-1" d="m192.197265625,244.6669921875v-10.728515625h-1.9921875c-.2158203125,3.3842773438-1.6318359375,5.736328125-4.392578125,5.736328125-3,0-4.4638671875-2.736328125-4.4638671875-6.6245117188,0-3.9125976562,1.4638671875-6.6245117188,4.4638671875-6.6245117188,2.736328125,0,4.15234375,2.328125,4.369140625,5.5922851562h2.015625v-7.0327148438h2.1123046875v19.681640625h-2.1123046875Zm-4.0322265625-11.6166992188c0-2.6645507812-.744140625-4.728515625-2.3525390625-4.728515625-1.6318359375,0-2.3515625,2.0639648438-2.3515625,4.728515625,0,2.6401367188.7197265625,4.7041015625,2.3515625,4.7041015625,1.6083984375,0,2.3525390625-2.0639648438,2.3525390625-4.7041015625Zm8.400390625,12.216796875v-20.6416015625h2.13671875v20.6416015625h-2.13671875Z"/><path class="cls-1" d="m212.2080078125,239.9868164062c-2.4482421875-1.2241210938-4.34375-3.48046875-4.9443359375-5.5205078125-.6240234375,2.232421875-2.4482421875,4.5122070312-5.064453125,5.8803710938-.3837890625-.6000976562-.767578125-1.1997070312-1.1279296875-1.7998046875,3.6240234375-2.0166015625,5.0166015625-4.9926757812,5.0166015625-8.7368164062v-3.5283203125h2.232421875v3.3842773438c0,3.7680664062,1.439453125,6.6005859375,5.0166015625,8.4965820312l-1.12890625,1.82421875Zm3.865234375,5.2802734375v-12.5048828125h-4.6328125v-1.9682617188h4.6328125v-6.1684570312h2.2080078125v20.6416015625h-2.2080078125Z"/><path class="cls-1" d="m235.76171875,245.2670898438v-5.6401367188c-2.0400390625,1.1279296875-5.2802734375,1.17578125-8.3291015625,1.17578125h-6.3125v-1.9682617188h7.4169921875c2.568359375,0,5.4482421875-.0478515625,7.224609375-.8637695312v-13.3452148438h2.232421875v20.6416015625h-2.232421875Zm-8.28125-19.513671875c3.3603515625,0,5.5693359375,2.1362304688,5.5693359375,5.0166015625s-2.208984375,5.0166015625-5.5693359375,5.0166015625c-3.359375,0-5.591796875-2.1362304688-5.591796875-5.0166015625s2.232421875-5.0166015625,5.591796875-5.0166015625Zm0,8.1127929688c1.9921875,0,3.384765625-1.2958984375,3.384765625-3.0961914062s-1.392578125-3.0961914062-3.384765625-3.0961914062c-1.9912109375,0-3.3837890625,1.2958984375-3.3837890625,3.0961914062s1.392578125,3.0961914062,3.3837890625,3.0961914062Z"/><path class="cls-1" d="m261.96875,236.6264648438v-3.1684570312c-1.751953125,1.1284179688-4.4638671875,1.4404296875-7.2001953125,1.4404296875h-5.2802734375c-.6240234375,0-.984375-.240234375-.984375-.8403320312v-8.1845703125h2.2080078125v7.1044921875h4.560546875c2.591796875,0,5.064453125-.1918945312,6.6962890625-1.1518554688v-7.2006835938h2.2080078125v12.0009765625h-2.2080078125Zm0,8.8569335938v-5.5444335938h-10.80078125v-1.9204101562h13.0087890625v7.46484375h-2.2080078125Z"/><path class="cls-1" d="m266.947265625,235.5224609375h18.841796875v1.8481445312h-18.841796875v-1.8481445312Zm16.513671875-2.1362304688c-2.9765625-.3837890625-6.240234375-2.0883789062-7.080078125-4.2724609375-.81640625,2.2084960938-4.033203125,3.9365234375-7.056640625,4.3442382812-.1923828125-.6240234375-.3603515625-1.2719726562-.5283203125-1.8959960938,3.5761493807-.576171875,6.4326171875-2.3041992188,6.4326171875-5.568359375v-.912109375h2.255859375v.8642578125c0,3.3120117188,2.80859375,4.9443359375,6.5048828125,5.5205078125-.1923828125.6479492188-.3603515625,1.2719726562-.5283203125,1.919921875Zm-13.537109375,5.8803710938h2.2080078125v4.1044921875h11.0654296875v1.9443359375h-12.265625c-.6240234375,0-1.0078125-.2641601562-1.0078125-.8642578125v-5.1845703125Z"/><path class="cls-1" d="m301.3857421875,245.2670898438v-5.7602539062c-1.9921875,1.080078125-4.9208984375,1.1762695312-7.9208984375,1.1762695312h-6.384765625v-1.9682617188h3.9609375v-6.2407226562h2.2080078125v6.2407226562h2.2080078125c2.2802734375,0,4.3681640625-.16796875,5.9287109375-.8642578125v-13.2250976562h2.232421875v7.6567382812h3v1.9438476562h-3v11.041015625h-2.232421875Zm-5.5927734375-9.4326171875c.4560546875-2.0161132812.6962890625-4.48828125.6962890625-6.5288085938v-1.0317382812h-8.232421875v-1.9443359375h10.4404296875v1.3920898438c0,2.904296875-.240234375,6.0727539062-.8154296875,8.4248046875-.6962890625-.0961914062-1.392578125-.1918945312-2.0888671875-.3120117188Z"/><path class="cls-1" d="m313.52734375,240.875h18.841796875v1.919921875h-18.841796875v-1.919921875Zm5.0888671875-9.2890625h-3.6240234375v-1.8481445312h15.9130859375v1.8481445312h-3.6484375c1.0322265625.6240234375,1.6083984375,1.5600585938,1.6083984375,2.6884765625,0,2.5439453125-2.2080078125,4.2963867188-5.904296875,4.2963867188-3.720703125,0-5.9287109375-1.7524414062-5.9287109375-4.2963867188,0-1.1284179688.576171875-2.064453125,1.583984375-2.6884765625Zm-.0244140625-5.8325195312h8.712890625v1.9204101562h-8.712890625v-1.9204101562Zm4.369140625,10.9692382812c2.4482421875,0,3.744140625-1.0561523438,3.744140625-2.4482421875s-1.2958984375-2.4721679688-3.744140625-2.4721679688c-2.47265625,0-3.7451171875,1.080078125-3.7451171875,2.4721679688s1.2724609375,2.4482421875,3.7451171875,2.4482421875Z"/><path class="cls-1" d="m341.94140625,245.3154296875v-5.9765625h-8.3046875v-1.896484375h18.841796875v1.896484375h-8.3046875v5.9765625h-2.232421875Zm-5.255859375-15.8657226562h10.537109375v-2.087890625h-10.537109375v-1.8481445312h12.7451171875v5.7124023438h-10.537109375v2.1362304688h10.9208984375v1.8481445312h-12.12109375c-.6240234375,0-1.0078125-.240234375-1.0078125-.8403320312v-4.9204101562Z"/><path class="cls-1" d="m353.8544921875,240.634765625h5.3046875v-3.8403320312h2.2080078125v3.8403320312h3.8408203125v-3.8403320312h2.18359375v3.8403320312h5.3046875v1.9443359375h-18.841796875v-1.9443359375Zm16.5615234375-4.248046875c-2.927734375-.6245117188-6.3359375-2.640625-7.1279296875-5.2568359375-.7919921875,2.6162109375-4.1044921875,4.6567382812-7.12890625,5.3525390625-.2880859375-.6000976562-.5517578125-1.2241210938-.81640625-1.8481445312,3.408203125-.8881835938,6.79296875-2.9760742188,6.79296875-7.3208007812v-1.3920898438h2.255859375v1.3681640625c0,4.3686523438,3.3125,6.3125,6.865234375,7.224609375l-.8408203125,1.8725585938Z"/><path class="cls-1" d="m374.5126953125,240.70703125h18.841796875v1.919921875h-18.841796875v-1.919921875Zm16.5380859375-5.8325195312v1.9438476562h-14.2099609375v-1.9438476562h3.0966796875c-.431640625-.9360351562-.5283203125-2.3525390625-.5283203125-3.3603515625v-2.0161132812h2.232421875v3.0961914062c0,.6958007812.095703125,1.7041015625.2158203125,2.2802734375h4.12890625c.1435546875-.576171875.240234375-1.5844726562.240234375-2.2802734375v-3.0961914062h2.2314453125v2.0161132812c0,1.080078125-.095703125,2.4243164062-.52734375,3.3603515625h3.1201171875Zm-13.9697265625-6.4565429688v-1.9443359375h13.7294921875v1.9443359375h-13.7294921875Z"/><path class="cls-1" d="m397.05859375,243.6831054688h-1.2958984375v-2.8564453125h2.8564453125v2.5205078125l-1.2958984375,3.984375h-1.4404296875l1.17578125-3.6484375Z"/><path class="cls-1" d="m410.0908203125,228.75390625l-3.48046875,1.9682617188-.8154296875-1.728515625,4.7763671875-2.7119140625h1.6796875v16.3212890625h-2.16015625v-13.8491210938Z"/><path class="cls-1" d="m427.90234375,234.0341796875c0,5.568359375-2.8330078125,8.8569335938-7.224609375,8.8569335938-2.4970703125,0-4.296875-1.2719726562-5.3046875-2.8081054688l1.5361328125-1.2963867188c.767578125,1.2241210938,2.1123046875,2.0400390625,3.7685546875,2.0400390625,2.83203125,0,4.7763671875-2.1357421875,4.9921875-5.736328125-.984375,1.3681640625-2.5927734375,2.400390625-4.6328125,2.400390625-3.14453125,0-5.7607421875-2.3525390625-5.7607421875-5.7368164062,0-3.3359375,2.736328125-5.7602539062,6.0966796875-5.7602539062,4.2490234375,0,6.529296875,3.2641601562,6.529296875,8.0405273438Zm-10.3935546875-2.3041992188c0,1.9921875,1.5126953125,3.6962890625,3.8408203125,3.6962890625s3.83984375-1.7041015625,3.83984375-3.6962890625-1.51171875-3.6723632812-3.83984375-3.6723632812-3.8408203125,1.6801757812-3.8408203125,3.6723632812Z"/><path class="cls-1" d="m429.38671875,240.1547851562l1.3447265625-1.5122070312c.8876953125,1.080078125,2.18359375,2.1840820312,4.3203125,2.1840820312,2.328125,0,4.1279296875-1.3920898438,4.1279296875-3.7202148438,0-2.2080078125-1.560546875-3.5043945312-3.6962890625-3.5043945312-1.51171875,0-2.568359375.4560546875-3.48046875,1.2001953125l-1.3203125-.4560546875.0244140625-.1201171875.7919921875-7.9443359375h8.9765625v1.9682617188h-7.056640625l-.4560546875,3.8403320312c.744140625-.3120117188,1.6083984375-.5522460938,2.640625-.5522460938,3.2158203125,0,5.80859375,1.919921875,5.80859375,5.568359375,0,3.5522460938-2.6884765625,5.7846679688-6.3603515625,5.7846679688-2.8564453125,0-4.6328125-1.5361328125-5.6650390625-2.736328125Z"/><path class="cls-1" d="m455.751953125,234.0341796875c0,5.568359375-2.8330078125,8.8569335938-7.224609375,8.8569335938-2.4970703125,0-4.296875-1.2719726562-5.3046875-2.8081054688l1.5361328125-1.2963867188c.767578125,1.2241210938,2.1123046875,2.0400390625,3.7685546875,2.0400390625,2.83203125,0,4.7763671875-2.1357421875,4.9921875-5.736328125-.984375,1.3681640625-2.5927734375,2.400390625-4.6328125,2.400390625-3.14453125,0-5.7607421875-2.3525390625-5.7607421875-5.7368164062,0-3.3359375,2.736328125-5.7602539062,6.0966796875-5.7602539062,4.2490234375,0,6.529296875,3.2641601562,6.529296875,8.0405273438Zm-10.3935546875-2.3041992188c0,1.9921875,1.5126953125,3.6962890625,3.8408203125,3.6962890625s3.83984375-1.7041015625,3.83984375-3.6962890625-1.51171875-3.6723632812-3.83984375-3.6723632812-3.8408203125,1.6801757812-3.8408203125,3.6723632812Z"/><rect class="cls-2" width="541.6689453125" height="247.3315429688"/></g></svg>