<?xml version="1.0" encoding="UTF-8"?><svg id="_레이어_2" xmlns="http://www.w3.org/2000/svg" viewBox="0 0 541.6689453125 153.3530273438"><defs><style>.cls-1{fill:#ffe800;}.cls-2{fill:none;}</style></defs><g id="Layer_1"><path class="cls-1" d="m12.419921875,6.0478515625H.8095703125V1.6201171875h28.1884765625v4.427734375h-11.6103515625v32.29296875h-4.9677734375V6.0478515625Z"/><path class="cls-1" d="m32.529296875,0h4.8603515625v15.498046875c1.404296875-2.3759765625,4.3740234375-4.8056640625,8.91015625-4.8056640625,7.0205078125,0,10.74609375,4.5361328125,10.74609375,11.8798828125v15.7685546875h-4.859375v-15.2822265625c0-5.1845703125-2.5927734375-7.9384765625-7.1826171875-7.9384765625s-7.07421875,3.40234375-7.6142578125,5.5625v17.658203125h-4.8603515625V0Z"/><path class="cls-1" d="m61.6298828125,24.8408203125c0-8.3701171875,5.5078125-14.1484375,13.337890625-14.1484375,7.7763671875,0,12.9599609375,5.7783203125,12.9599609375,13.2841796875,0,.755859375-.107421875,1.7822265625-.2158203125,2.5380859375h-21.16796875c.59375,4.9140625,3.779296875,8.1005859375,9.017578125,8.1005859375,3.6181640625,0,6.912109375-1.9443359375,8.802734375-4.7529296875l2.9697265625,3.078125c-2.7001953125,3.6181640625-6.8046875,6.048828125-11.98828125,6.048828125-8.26171875,0-13.7158203125-6.1025390625-13.7158203125-14.1484375Zm4.9677734375-2.3759765625h16.416015625c-.32421875-4.64453125-3.671875-7.5068359375-8.0458984375-7.5068359375-4.427734375,0-7.6142578125,2.7548828125-8.3701171875,7.5068359375Z"/><path class="cls-1" d="m131.4794921875,23.05859375c0-5.1845703125-2.484375-7.9384765625-7.07421875-7.9384765625-3.99609375,0-6.587890625,2.5927734375-7.4521484375,5.5625v17.658203125h-4.8603515625v-15.2822265625c0-5.1845703125-2.484375-7.9384765625-7.07421875-7.9384765625-3.99609375,0-6.6416015625,2.5927734375-7.4521484375,5.5625v17.658203125h-4.8603515625V11.2861328125h4.8603515625v4.1044921875c1.404296875-2.3759765625,4.2666015625-4.6982421875,8.802734375-4.6982421875,4.6435546875,0,7.775390625,1.998046875,9.341796875,5.5078125,1.7822265625-3.240234375,5.2919921875-5.5078125,10.0439453125-5.5078125,6.9658203125,0,10.583984375,4.5361328125,10.583984375,11.8798828125v15.7685546875h-4.859375v-15.2822265625Z"/><path class="cls-1" d="m142.62890625,11.2861328125h4.8603515625v4.64453125c1.5126953125-2.970703125,4.3740234375-5.23828125,8.5322265625-5.23828125h.59375v4.6982421875c-4.3740234375.107421875-7.66796875,1.8896484375-9.1259765625,6.1015625v16.8486328125h-4.8603515625V11.2861328125Z"/><path class="cls-1" d="m157.8564453125,24.8408203125c0-7.830078125,5.2919921875-14.1484375,13.9326171875-14.1484375,8.6396484375,0,13.931640625,6.318359375,13.931640625,14.1484375,0,7.7763671875-5.2919921875,14.1484375-13.931640625,14.1484375-8.640625,0-13.9326171875-6.3720703125-13.9326171875-14.1484375Zm22.896484375,0c0-5.9404296875-3.9423828125-9.720703125-8.9638671875-9.720703125-5.0224609375,0-8.9638671875,3.7802734375-8.9638671875,9.720703125,0,5.939453125,3.94140625,9.7197265625,8.9638671875,9.7197265625,5.021484375,0,8.9638671875-3.7802734375,8.9638671875-9.7197265625Z"/><path class="cls-1" d="m188.900390625,24.7861328125c0-7.775390625,5.400390625-14.09375,13.82421875-14.09375,5.3466796875,0,9.5048828125,2.591796875,11.9345703125,6.8583984375l-3.6181640625,2.5380859375c-1.6201171875-3.0244140625-4.5361328125-4.96875-8.154296875-4.96875-5.18359375,0-9.017578125,3.7265625-9.017578125,9.666015625,0,5.994140625,3.833984375,9.720703125,9.017578125,9.720703125,3.6181640625,0,6.5341796875-1.9443359375,8.154296875-4.9677734375l3.6181640625,2.5380859375c-2.4296875,4.265625-6.587890625,6.857421875-11.9345703125,6.857421875-8.423828125,0-13.82421875-6.3173828125-13.82421875-14.1484375Z"/><path class="cls-1" d="m221.802734375,40.7705078125h-2.916015625v-6.42578125h6.42578125v5.669921875l-2.916015625,8.9638671875h-3.2392578125l2.6455078125-8.2080078125Z"/><path class="cls-1" d="m9.666015625,66.3828125l-7.830078125,4.427734375-1.8359375-3.8876953125,10.74609375-6.1025390625h3.7802734375v36.720703125h-4.8603515625v-31.158203125Z"/><path class="cls-1" d="m49.0048828125,78.2626953125c0,12.5283203125-6.3720703125,19.9267578125-16.25390625,19.9267578125-5.6162109375,0-9.666015625-2.8623046875-11.9345703125-6.318359375l3.4560546875-2.916015625c1.728515625,2.75390625,4.751953125,4.58984375,8.478515625,4.58984375,6.3720703125,0,10.74609375-4.8056640625,11.232421875-12.90625-2.21484375,3.078125-5.83203125,5.400390625-10.4228515625,5.400390625-7.07421875,0-12.9599609375-5.2919921875-12.9599609375-12.90625,0-7.505859375,6.15625-12.9599609375,13.7158203125-12.9599609375,9.55859375,0,14.6884765625,7.34375,14.6884765625,18.08984375Zm-23.3818359375-5.18359375c0,4.4814453125,3.4013671875,8.3154296875,8.6396484375,8.3154296875s8.640625-3.833984375,8.640625-8.3154296875c0-4.482421875-3.40234375-8.2626953125-8.640625-8.2626953125s-8.6396484375,3.7802734375-8.6396484375,8.2626953125Z"/><path class="cls-1" d="m54.11328125,97.37890625l15.6064453125-32.130859375h-19.4951171875v-4.427734375h25.0029296875v3.7265625l-15.66015625,32.994140625h-5.4541015625v-.162109375Z"/><path class="cls-1" d="m76.4091796875,92.033203125l3.0244140625-3.40234375c1.998046875,2.4296875,4.9677734375,4.9140625,9.7734375,4.9140625,5.2919921875,0,9.1806640625-2.484375,9.1806640625-6.8037109375,0-3.7802734375-2.80859375-6.318359375-9.0185546875-6.318359375h-3.34765625v-4.427734375h3.34765625c4.751953125,0,7.07421875-2.7001953125,7.07421875-5.6162109375,0-3.7802734375-3.34765625-5.5625-7.0205078125-5.5625-3.7255859375,0-6.587890625,1.6201171875-8.099609375,4.0498046875l-3.078125-3.078125c2.2138671875-3.0771484375,6.1025390625-5.615234375,11.177734375-5.615234375,7.291015625,0,12.0966796875,3.671875,12.0966796875,9.935546875,0,3.1318359375-1.8896484375,6.0478515625-4.9140625,7.6142578125,4.3203125,1.404296875,6.8583984375,4.9140625,6.8583984375,9.2880859375,0,6.75-6.15625,11.1787109375-14.2568359375,11.1787109375-6.4794921875,0-10.4755859375-3.4560546875-12.7978515625-6.15625Z"/><path class="cls-1" d="m1.3627929688,130.93359375h7.373046875v1.94921875H3.5620117188v2.2744140625h4.5498046875v1.8745117188H3.5620117188v2.4497070312h1.974609375c1.724609375,0,3.1748046875-.125,4.3994140625-.6000976562l.4248046875,1.5498046875c-1.5498046875.8247070312-3.3994140625.974609375-5.798828125.974609375h-2.173828125c-.650390625,0-1.025390625-.25-1.025390625-.8745117188v-9.59765625Zm4.224609375,12.7216796875h13.396484375v7.6733398438H6.6372070312c-.650390625,0-1.0498046875-.2749023438-1.0498046875-.8999023438v-6.7734375Zm2.298828125,5.6489257812h8.7978515625v-3.6494140625H7.8862304688v3.6494140625Zm4.19921875-7.2236328125v-5.3486328125h-2.7490234375v-1.94921875h2.7490234375v-4.82421875h2.19921875v12.1220703125h-2.19921875Zm4.673828125.125v-12.4965820312h2.224609375v12.4965820312h-2.224609375Z"/><path class="cls-1" d="m21.5610351562,141.7309570312h8.6474609375v-2.2744140625h-4.3486328125c-.6494140625,0-1.0498046875-.25-1.0498046875-.875v-4.3740234375h10.822265625v-1.7744140625h-10.822265625v-1.7744140625h13.1220703125v5.2236328125h-10.822265625v1.8247070312h11.2724609375v1.7495117188h-5.8486328125v2.2744140625h8.6474609375v1.8745117188h-19.6201171875v-1.8745117188Zm14.2216796875,10.2724609375v-4.3989257812h-11.4970703125v-1.8745117188h13.7958984375v6.2734375h-2.298828125Z"/><path class="cls-1" d="m43.7026367188,149.5537109375h-1.349609375v-2.9741210938h2.974609375v2.6245117188l-1.349609375,4.1489257812h-1.5l1.224609375-3.7993164062Z"/><path class="cls-1" d="m57.2778320312,134.0078125l-3.6240234375,2.0493164062-.849609375-1.7993164062,4.9736328125-2.8247070312h1.75v16.99609375h-2.25v-14.4213867188Z"/><path class="cls-1" d="m75.8188476562,139.5063476562c0,5.798828125-2.94921875,9.22265625-7.5224609375,9.22265625-2.599609375,0-4.474609375-1.3247070312-5.5244140625-2.9243164062l1.599609375-1.349609375c.80078125,1.2749023438,2.2001953125,2.1245117188,3.9248046875,2.1245117188,2.94921875,0,4.9736328125-2.224609375,5.1982421875-5.9736328125-1.0244140625,1.4248046875-2.69921875,2.4995117188-4.8232421875,2.4995117188-3.2744140625,0-5.9990234375-2.44921875-5.9990234375-5.9736328125,0-3.4741210938,2.849609375-5.9985351562,6.3486328125-5.9985351562,4.423828125,0,6.7978515625,3.3994140625,6.7978515625,8.373046875Zm-10.822265625-2.3994140625c0,2.0747070312,1.5751953125,3.8491210938,3.9990234375,3.8491210938,2.4248046875,0,3.9990234375-1.7744140625,3.9990234375-3.8491210938,0-2.07421875-1.57421875-3.82421875-3.9990234375-3.82421875-2.423828125,0-3.9990234375,1.75-3.9990234375,3.82421875Z"/><path class="cls-1" d="m78.5483398438,148.3540039062l7.22265625-14.87109375h-9.0224609375v-2.0498046875h11.572265625v1.724609375l-7.248046875,15.271484375h-2.5244140625v-.0751953125Z"/><path class="cls-1" d="m89.1987304688,145.8798828125l1.3994140625-1.5747070312c.9248046875,1.125,2.2998046875,2.2744140625,4.5244140625,2.2744140625,2.44921875,0,4.2490234375-1.1494140625,4.2490234375-3.1494140625,0-1.7495117188-1.2998046875-2.923828125-4.1748046875-2.923828125h-1.548828125v-2.0498046875h1.548828125c2.2001953125,0,3.2744140625-1.2495117188,3.2744140625-2.5991210938,0-1.7495117188-1.5498046875-2.5747070312-3.2490234375-2.5747070312-1.724609375,0-3.048828125.75-3.7490234375,1.8745117188l-1.4248046875-1.4243164062c1.0244140625-1.4248046875,2.82421875-2.599609375,5.173828125-2.599609375,3.3740234375,0,5.5986328125,1.6997070312,5.5986328125,4.5991210938,0,1.4497070312-.875,2.7993164062-2.2744140625,3.5239257812,1.9990234375.6499023438,3.173828125,2.2744140625,3.173828125,4.298828125,0,3.1245117188-2.8486328125,5.173828125-6.59765625,5.173828125-3,0-4.849609375-1.599609375-5.923828125-2.8491210938Z"/><rect class="cls-2" width="541.6689453125" height="153.3266601562"/></g></svg>