<?xml version="1.0" encoding="UTF-8"?><svg id="_레이어_2" xmlns="http://www.w3.org/2000/svg" viewBox="0 0 541.6689453125 153.3266601562"><defs><style>.cls-1{fill:#ffe800;}.cls-2{fill:none;}</style></defs><g id="Layer_1"><path class="cls-1" d="m3.71875,2.322265625h14.0400390625c10.2060546875,0,17.927734375,6.5341796875,17.927734375,18.3603515625s-7.7216796875,18.3603515625-17.927734375,18.3603515625H3.71875V2.322265625Zm4.9677734375,4.427734375v27.865234375h8.748046875c7.9384765625,0,13.1220703125-4.806640625,13.1220703125-13.9326171875s-5.18359375-13.9326171875-13.1220703125-13.9326171875h-8.748046875Z"/><path class="cls-1" d="m40.9013671875,0h5.23828125v5.83203125h-5.23828125V0Zm.2158203125,11.98828125h4.8603515625v27.0546875h-4.8603515625V11.98828125Z"/><path class="cls-1" d="m50.71875,25.54296875c0-8.3701171875,5.5078125-14.1484375,13.337890625-14.1484375,7.7763671875,0,12.9599609375,5.7783203125,12.9599609375,13.2841796875,0,.755859375-.107421875,1.7822265625-.2158203125,2.5380859375h-21.16796875c.59375,4.9140625,3.779296875,8.1005859375,9.017578125,8.1005859375,3.6181640625,0,6.912109375-1.9443359375,8.802734375-4.7529296875l2.9697265625,3.078125c-2.7001953125,3.6181640625-6.8046875,6.048828125-11.98828125,6.048828125-8.26171875,0-13.7158203125-6.1025390625-13.7158203125-14.1484375Zm4.9677734375-2.3759765625h16.416015625c-.32421875-4.64453125-3.671875-7.5068359375-8.0458984375-7.5068359375-4.427734375,0-7.6142578125,2.7548828125-8.3701171875,7.5068359375Z"/><path class="cls-1" d="m95.646484375,2.322265625h24.2998046875v4.427734375h-19.33203125v11.71875h17.3876953125v4.427734375h-17.3876953125v16.146484375h-4.9677734375V2.322265625Z"/><path class="cls-1" d="m122.7109375,11.98828125h4.8603515625v4.64453125c1.5126953125-2.970703125,4.3740234375-5.23828125,8.5322265625-5.23828125h.59375v4.6982421875c-4.3740234375.107421875-7.66796875,1.8896484375-9.1259765625,6.1015625v16.8486328125h-4.8603515625V11.98828125Z"/><path class="cls-1" d="m160.4619140625,35.208984375c-2.1064453125,2.7001953125-5.400390625,4.427734375-9.234375,4.427734375-7.6142578125,0-13.23046875-5.7236328125-13.23046875-14.1484375,0-8.3701171875,5.6162109375-14.09375,13.23046875-14.09375,3.833984375,0,7.1279296875,1.7275390625,9.234375,4.427734375v-3.833984375h4.8603515625v27.0546875h-4.8603515625v-3.833984375Zm0-4.9677734375v-9.396484375c-1.404296875-3.0244140625-4.58984375-5.0224609375-8.3701171875-5.0224609375-5.076171875,0-9.1259765625,3.6728515625-9.1259765625,9.666015625,0,6.048828125,4.0498046875,9.720703125,9.1259765625,9.720703125,3.7802734375,0,6.9658203125-1.998046875,8.3701171875-4.9677734375Z"/><path class="cls-1" d="m171.7197265625,11.98828125h4.8603515625v4.1044921875c1.404296875-2.3759765625,4.3740234375-4.6982421875,8.91015625-4.6982421875,7.0205078125,0,10.74609375,4.5361328125,10.74609375,11.8798828125v15.7685546875h-4.859375v-15.2822265625c0-5.1845703125-2.5927734375-7.9384765625-7.1826171875-7.9384765625-4.0498046875,0-6.8037109375,2.5927734375-7.6142578125,5.5625v17.658203125h-4.8603515625V11.98828125Z"/><path class="cls-1" d="m202.439453125.7021484375h4.8603515625v24.0849609375l12.63671875-12.798828125h5.7236328125v.2158203125l-10.7998046875,11.0166015625,12.3115234375,15.66015625v.162109375h-5.83203125l-9.666015625-12.58203125-4.3740234375,4.4814453125v8.1005859375h-4.8603515625V.7021484375Z"/><path class="cls-1" d="m232.5927734375,15.984375h-4.5361328125v-3.99609375h4.5361328125v-2.9697265625c0-5.0224609375,2.970703125-8.640625,8.802734375-8.640625.6474609375,0,1.4033203125,0,1.943359375.0546875v4.0498046875h-.8095703125c-3.4560546875,0-5.076171875,1.404296875-5.076171875,4.58984375v2.916015625h5.8857421875v3.99609375h-5.8857421875v23.05859375h-4.8603515625V15.984375Z"/><path class="cls-1" d="m271.1337890625,39.04296875h-4.8603515625v-4.1044921875c-1.404296875,2.376953125-4.3740234375,4.6982421875-8.91015625,4.6982421875-7.0205078125,0-10.74609375-4.5361328125-10.74609375-11.8798828125v-15.7685546875h4.8603515625v15.2822265625c0,5.1845703125,2.591796875,7.9384765625,7.181640625,7.9384765625,4.0498046875,0,6.8046875-2.591796875,7.6142578125-5.5625V11.98828125h4.8603515625v27.0546875Z"/><path class="cls-1" d="m277.5302734375,11.98828125h4.8603515625v4.64453125c1.5126953125-2.970703125,4.3740234375-5.23828125,8.5322265625-5.23828125h.59375v4.6982421875c-4.3740234375.107421875-7.66796875,1.8896484375-9.1259765625,6.1015625v16.8486328125h-4.8603515625V11.98828125Z"/><path class="cls-1" d="m298.26171875,29.5390625v-13.5546875h-4.6982421875v-3.99609375h4.8056640625v-7.01953125h4.7529296875v7.01953125h6.6416015625v3.99609375h-6.6416015625v13.716796875c0,3.99609375,1.78125,5.3994140625,5.77734375,5.3994140625h.8642578125v3.99609375c-.59375.1083984375-1.404296875.2158203125-2.16015625.2158203125-6.15625,0-9.341796875-3.0234375-9.341796875-9.7734375Z"/><path class="cls-1" d="m311.248046875,25.54296875c0-8.3701171875,5.5078125-14.1484375,13.337890625-14.1484375,7.7763671875,0,12.9599609375,5.7783203125,12.9599609375,13.2841796875,0,.755859375-.107421875,1.7822265625-.2158203125,2.5380859375h-21.16796875c.59375,4.9140625,3.779296875,8.1005859375,9.017578125,8.1005859375,3.6181640625,0,6.912109375-1.9443359375,8.802734375-4.7529296875l2.9697265625,3.078125c-2.7001953125,3.6181640625-6.8046875,6.048828125-11.98828125,6.048828125-8.26171875,0-13.7158203125-6.1025390625-13.7158203125-14.1484375Zm4.9677734375-2.3759765625h16.416015625c-.32421875-4.64453125-3.671875-7.5068359375-8.0458984375-7.5068359375-4.427734375,0-7.6142578125,2.7548828125-8.3701171875,7.5068359375Z"/><path class="cls-1" d="m342.32421875,11.98828125h4.8603515625v4.64453125c1.5126953125-2.970703125,4.3740234375-5.23828125,8.5322265625-5.23828125h.59375v4.6982421875c-4.3740234375.107421875-7.66796875,1.8896484375-9.1259765625,6.1015625v16.8486328125h-4.8603515625V11.98828125Z"/><path class="cls-1" d="m3.71875,61.5224609375h4.9677734375v19.0625l17.658203125-19.0625h6.15625v.2158203125l-14.310546875,15.3369140625,15.0126953125,21.005859375v.162109375h-5.994140625l-12.474609375-17.49609375-6.0478515625,6.5341796875v10.9619140625H3.71875v-36.720703125Z"/><path class="cls-1" d="m58.787109375,98.2431640625h-4.8603515625v-4.1044921875c-1.404296875,2.3759765625-4.3740234375,4.6982421875-8.91015625,4.6982421875-7.0205078125,0-10.74609375-4.5361328125-10.74609375-11.8798828125v-15.7685546875h4.8603515625v15.2822265625c0,5.1845703125,2.591796875,7.9384765625,7.181640625,7.9384765625,4.0498046875,0,6.8046875-2.591796875,7.6142578125-5.5625v-17.658203125h4.8603515625v27.0546875Zm-21.2763671875-38.232421875h5.7236328125v5.6162109375h-5.7236328125v-5.6162109375Zm12.2578125,0h5.724609375v5.6162109375h-5.724609375v-5.6162109375Z"/><path class="cls-1" d="m63.5751953125,84.6884765625c0-7.775390625,5.400390625-14.09375,13.82421875-14.09375,5.3466796875,0,9.5048828125,2.591796875,11.9345703125,6.8583984375l-3.6181640625,2.5380859375c-1.6201171875-3.0244140625-4.5361328125-4.96875-8.154296875-4.96875-5.18359375,0-9.017578125,3.7265625-9.017578125,9.666015625,0,5.994140625,3.833984375,9.720703125,9.017578125,9.720703125,3.6181640625,0,6.5341796875-1.9443359375,8.154296875-4.9677734375l3.6181640625,2.5380859375c-2.4296875,4.265625-6.587890625,6.857421875-11.9345703125,6.857421875-8.423828125,0-13.82421875-6.3173828125-13.82421875-14.1484375Z"/><path class="cls-1" d="m93.572265625,59.90234375h4.8603515625v15.498046875c1.404296875-2.3759765625,4.3740234375-4.8056640625,8.91015625-4.8056640625,7.0205078125,0,10.74609375,4.5361328125,10.74609375,11.8798828125v15.7685546875h-4.859375v-15.2822265625c0-5.1845703125-2.5927734375-7.9384765625-7.1826171875-7.9384765625s-7.07421875,3.40234375-7.6142578125,5.5625v17.658203125h-4.8603515625v-38.3408203125Z"/><path class="cls-1" d="m122.6728515625,84.7431640625c0-8.3701171875,5.5078125-14.1484375,13.337890625-14.1484375,7.7763671875,0,12.9599609375,5.7783203125,12.9599609375,13.2841796875,0,.755859375-.107421875,1.7822265625-.2158203125,2.5380859375h-21.16796875c.59375,4.9140625,3.779296875,8.1005859375,9.017578125,8.1005859375,3.6181640625,0,6.912109375-1.9443359375,8.802734375-4.7529296875l2.9697265625,3.078125c-2.7001953125,3.6181640625-6.8046875,6.048828125-11.98828125,6.048828125-8.26171875,0-13.7158203125-6.1025390625-13.7158203125-14.1484375Zm4.9677734375-2.3759765625h16.416015625c-.32421875-4.64453125-3.671875-7.5068359375-8.0458984375-7.5068359375-4.427734375,0-7.6142578125,2.7548828125-8.3701171875,7.5068359375Z"/><path class="cls-1" d="m0,147.1567382812h19.6201171875v1.9995117188H0v-1.9995117188Zm17.220703125-6.0732421875v2.0244140625H2.4248046875v-2.0244140625h3.2236328125c-.4501953125-.9750976562-.5498046875-2.4497070312-.5498046875-3.4995117188v-2.0991210938h2.32421875v3.2241210938c0,.724609375.1005859375,1.7744140625.2255859375,2.3745117188h4.298828125c.1494140625-.6000976562.25-1.6499023438.25-2.3745117188v-3.2241210938h2.32421875v2.0991210938c0,1.125-.099609375,2.5244140625-.5498046875,3.4995117188h3.2490234375Zm-14.5458984375-6.7236328125v-2.0244140625h14.2958984375v2.0244140625H2.6748046875Z"/><path class="cls-1" d="m34.4365234375,143.1826171875v-2.6240234375c-1.625,1.0498046875-3.9990234375,1.4497070312-6.548828125,1.4995117188h-6.0986328125c-.6494140625,0-1.0244140625-.25-1.0244140625-.875v-5.3486328125h7.5732421875v-2.2495117188h-7.5732421875v-1.94921875h9.84765625v6.0732421875h-7.5478515625v2.4243164062h4.4736328125c2.6240234375,0,5.2236328125-.224609375,6.8984375-1.1743164062v-8.5478515625h2.2998046875v5.2485351562h3.19921875v2.0244140625h-3.19921875v5.4985351562h-2.2998046875Zm-10.59765625,5.0991210938c0-2.5747070312,2.375-4.3491210938,6.5732421875-4.3491210938,4.19921875,0,6.548828125,1.7744140625,6.548828125,4.3491210938,0,2.5493164062-2.349609375,4.298828125-6.548828125,4.298828125-4.1982421875,0-6.5732421875-1.7495117188-6.5732421875-4.298828125Zm10.822265625,0c0-1.4248046875-1.4248046875-2.349609375-4.2490234375-2.349609375-2.8486328125,0-4.2734375.9248046875-4.2734375,2.349609375,0,1.3745117188,1.4248046875,2.2993164062,4.2734375,2.2993164062,2.82421875,0,4.2490234375-.9248046875,4.2490234375-2.2993164062Z"/><path class="cls-1" d="m40.0498046875,146.9819335938h12.5966796875c.875-2.1997070312,1.3251953125-4.4990234375,1.5244140625-6.8486328125-1.1494140625.8251953125-2.8984375,1.1000976562-5.498046875,1.1000976562h-6.0234375v-1.9248046875h6.1484375c2.1494140625,0,4.1240234375-.099609375,5.4736328125-.7495117188.0244140625-.5498046875.0498046875-1.125.0498046875-1.6748046875v-2.4995117188h-11.296875v-1.9995117188h13.5966796875v3.57421875c0,4.5991210938-.525390625,7.9233398438-1.9248046875,11.0224609375h4.9736328125v2.0244140625h-19.6201171875v-2.0244140625Z"/><path class="cls-1" d="m69.51953125,151.9555664062v-6.7231445312h-8.6474609375v-2.0244140625h19.6201171875v2.0244140625h-8.6474609375v6.7231445312h-2.3251953125Zm8.4482421875-13.396484375v1.9995117188h-14.5712890625v-1.9995117188h3.1240234375c-.375-.7998046875-.474609375-1.974609375-.474609375-2.7993164062v-1.4248046875h2.32421875v2.349609375c0,.5747070312.0751953125,1.349609375.2001953125,1.8745117188h4.2236328125c.1005859375-.5249023438.2001953125-1.2998046875.2001953125-1.8745117188v-2.349609375h2.32421875v1.4248046875c0,.8745117188-.125,1.9995117188-.5,2.7993164062h3.1494140625Zm-14.3212890625-5.1489257812v-2.0244140625h14.0712890625v2.0244140625h-14.0712890625Z"/><path class="cls-1" d="m81.580078125,147.2817382812h19.6201171875v1.9995117188h-19.6201171875v-1.9995117188Zm3.048828125-10.322265625h11.22265625v-2.7744140625h-11.22265625v-1.9497070312h13.5224609375v6.5986328125h-11.22265625v2.8491210938h11.6474609375v1.9248046875h-12.8974609375c-.6494140625,0-1.0498046875-.25-1.0498046875-.875v-5.7734375Z"/><path class="cls-1" d="m103.0927734375,147.2817382812h19.6201171875v1.9995117188h-19.6201171875v-1.9995117188Zm16.146484375-8.4477539062h-10.7978515625v2.82421875h11.6474609375v1.9497070312h-12.8974609375c-.6494140625,0-1.0498046875-.25-1.0498046875-.875v-10.4975585938h13.5224609375v1.974609375h-11.22265625v2.7495117188h10.7978515625v1.8745117188Z"/><path class="cls-1" d="m130.8427734375,145.232421875c3.3486328125-1.2998046875,5.923828125-3.1494140625,7.3232421875-5.7236328125-.6748046875.3247070312-1.599609375.474609375-2.6494140625.474609375h-4.173828125v-1.94921875h7.47265625c.3505859375-1.0249023438.5498046875-2.1748046875.5498046875-3.4243164062h-7.2978515625v-2.0244140625h9.59765625v1.474609375c0,6.5981445312-3.474609375,10.5473632812-9.822265625,13.1215820312l-1-1.94921875Zm14.9208984375,6.6733398438v-21.4946289062h2.2998046875v21.4946289062h-2.2998046875Z"/><path class="cls-1" d="m162.6669921875,143.6577148438c-2.69921875-.724609375-4.748046875-2.2993164062-5.3232421875-4.0991210938-.625,1.8745117188-2.6494140625,3.6494140625-5.4990234375,4.548828125l-.8994140625-1.849609375c2.9990234375-.8745117188,4.94921875-2.69921875,5.1240234375-5.4985351562h-4.2490234375v-1.9243164062h10.8720703125v1.9243164062h-4.2490234375c.224609375,2.7495117188,2.099609375,4.2739257812,5.1240234375,5.0737304688l-.900390625,1.8247070312Zm-8.947265625-12.5717773438h7.0732421875v1.9741210938h-7.0732421875v-1.9741210938Zm1.8740234375,13.8715820312h2.2998046875v4.8984375h11.296875v2.0249023438h-12.546875c-.6494140625,0-1.0498046875-.2749023438-1.0498046875-.8999023438v-6.0234375Zm10.6474609375,1.57421875v-16.1206054688h2.2998046875v16.1206054688h-2.2998046875Z"/><rect class="cls-2" width="541.6689453125" height="153.3266601562"/></g></svg>