<?xml version="1.0" encoding="UTF-8"?><svg id="_레이어_2" xmlns="http://www.w3.org/2000/svg" viewBox="0 0 541.6689453125 202.2875976562"><defs><style>.cls-1{fill:#ffe800;}.cls-2{fill:none;}</style></defs><g id="Layer_1"><path class="cls-1" d="m2.759765625.48046875h3.2392578125l16.6376953125,21.0361328125V.48046875h3.6787109375v27.1953125h-3.2392578125L6.439453125,6.6396484375v21.0361328125h-3.6796875V.48046875Z"/><path class="cls-1" d="m32.5595703125.48046875h10.478515625c5.5986328125,0,8.7578125,2.7197265625,8.7578125,7.1982421875,0,2.3603515625-1.19921875,4.359375-3.3193359375,5.5595703125,3.1201171875.8798828125,5.439453125,2.9189453125,5.439453125,6.798828125,0,4.6787109375-3.279296875,7.638671875-9.5185546875,7.638671875h-11.837890625V.48046875Zm10.0380859375,11.677734375c3.759765625,0,5.3994140625-1.599609375,5.3994140625-4.2392578125s-1.6396484375-4.2392578125-5.3994140625-4.2392578125h-6.3583984375v8.478515625h6.3583984375Zm1.6396484375,12.318359375c4.0400390625,0,5.87890625-1.7197265625,5.87890625-4.5595703125,0-2.8798828125-1.8388671875-4.599609375-5.87890625-4.599609375h-7.998046875v9.1591796875h7.998046875Z"/><path class="cls-1" d="m56.390625,14.078125c0-7.9189453125,5.71875-14.078125,13.6376953125-14.078125,5.51953125,0,9.798828125,2.7998046875,12.078125,7.0390625l-2.8798828125,1.9599609375c-1.7197265625-3.3193359375-4.798828125-5.51953125-9.158203125-5.51953125-5.958984375,0-9.8779296875,4.599609375-9.8779296875,10.5986328125s3.9189453125,10.5986328125,9.8779296875,10.5986328125c4.359375,0,7.4384765625-2.2001953125,9.158203125-5.51953125l2.8798828125,1.9599609375c-2.279296875,4.2392578125-6.55859375,7.0380859375-12.078125,7.0380859375-7.9189453125,0-13.6376953125-6.158203125-13.6376953125-14.0771484375Z"/><path class="cls-1" d="m95.7099609375.48046875h3.2392578125l16.6376953125,21.0361328125V.48046875h3.6787109375v27.1953125h-3.2392578125l-16.63671875-21.0361328125v21.0361328125h-3.6796875V.48046875Z"/><path class="cls-1" d="m123.7412109375,17.677734375c0-6.19921875,4.0791015625-10.478515625,9.87890625-10.478515625,5.7587890625,0,9.59765625,4.279296875,9.59765625,9.837890625,0,.560546875-.080078125,1.3203125-.1591796875,1.8798828125h-15.677734375c.439453125,3.6396484375,2.7998046875,5.9990234375,6.6787109375,5.9990234375,2.6796875,0,5.119140625-1.439453125,6.5185546875-3.51953125l2.2001953125,2.2802734375c-2,2.6796875-5.0390625,4.478515625-8.87890625,4.478515625-6.119140625,0-10.158203125-4.5185546875-10.158203125-10.4775390625Zm3.6796875-1.759765625h12.158203125c-.240234375-3.439453125-2.7197265625-5.5595703125-5.958984375-5.5595703125-3.2802734375,0-5.6396484375,2.0400390625-6.19921875,5.5595703125Z"/><path class="cls-1" d="m144.1005859375,7.638671875h3.7998046875l4.8388671875,15.158203125,5.439453125-15.158203125h3.6396484375l5.4384765625,15.158203125,4.83984375-15.158203125h3.798828125l-6.71875,20.037109375h-3.4794921875l-5.6787109375-15.517578125-5.7197265625,15.517578125h-3.478515625l-6.7197265625-20.037109375Z"/><path class="cls-1" d="m176.1484375,23.9560546875l2.3193359375-2.439453125c1.240234375,1.83984375,3.5595703125,3.359375,6.19921875,3.359375,2.599609375,0,4.6396484375-1.0390625,4.6396484375-3.119140625,0-1.599609375-1.5205078125-2.4794921875-3.9599609375-2.83984375l-1.759765625-.279296875c-3.55859375-.560546875-5.87890625-2.3603515625-5.87890625-5.5595703125,0-3.1591796875,2.599609375-5.87890625,7.439453125-5.87890625,3.0791015625,0,5.5185546875,1.359375,6.998046875,3.2392578125l-2.2392578125,2.439453125c-1.2802734375-1.51953125-2.8798828125-2.3994140625-4.8388671875-2.3994140625-2.4794921875,0-3.6796875,1.2001953125-3.6796875,2.51953125,0,1.3603515625,1.1201171875,2.0400390625,2.9599609375,2.3193359375l1.798828125.2802734375c4.359375.6396484375,6.8388671875,2.6796875,6.8388671875,6.0791015625,0,3.599609375-3.1591796875,6.478515625-8.3984375,6.478515625-3.8388671875,0-6.7587890625-1.958984375-8.4384765625-4.19921875Z"/><path class="cls-1" d="m216.3056640625,16.078125h-5.9189453125v11.59765625h-3.6796875V.48046875h11.2783203125c5.3193359375,0,8.91796875,2.9189453125,8.91796875,7.798828125,0,4.119140625-2.51953125,6.798828125-6.478515625,7.55859375l9.3984375,11.7177734375v.1201171875h-4.4794921875l-9.0380859375-11.59765625Zm1.3193359375-3.2802734375c3.6396484375,0,5.4794921875-1.599609375,5.4794921875-4.5185546875,0-2.8798828125-1.83984375-4.51953125-5.4794921875-4.51953125h-7.23828125v9.0380859375h7.23828125Z"/><path class="cls-1" d="m230.326171875,17.677734375c0-6.19921875,4.0791015625-10.478515625,9.87890625-10.478515625,5.7587890625,0,9.59765625,4.279296875,9.59765625,9.837890625,0,.560546875-.080078125,1.3203125-.1591796875,1.8798828125h-15.677734375c.439453125,3.6396484375,2.7998046875,5.9990234375,6.6787109375,5.9990234375,2.6796875,0,5.119140625-1.439453125,6.5185546875-3.51953125l2.2001953125,2.2802734375c-2,2.6796875-5.0390625,4.478515625-8.87890625,4.478515625-6.119140625,0-10.158203125-4.5185546875-10.158203125-10.4775390625Zm3.6796875-1.759765625h12.158203125c-.240234375-3.439453125-2.7197265625-5.5595703125-5.958984375-5.5595703125-3.2802734375,0-5.6396484375,2.0400390625-6.19921875,5.5595703125Z"/><path class="cls-1" d="m253.4990234375,7.638671875h3.599609375v2.83984375c1.5595703125-1.9990234375,3.9189453125-3.279296875,6.798828125-3.279296875,5.638671875,0,9.7978515625,4.2392578125,9.7978515625,10.4384765625,0,6.23828125-4.1591796875,10.4775390625-9.7978515625,10.4775390625-2.8798828125,0-5.2392578125-1.279296875-6.798828125-3.2392578125v10.158203125h-3.599609375V7.638671875Zm16.5166015625,9.9990234375c0-4.4794921875-2.9990234375-7.1591796875-6.7587890625-7.1591796875-2.798828125,0-5.119140625,1.4794921875-6.158203125,3.6796875v6.9990234375c1.0390625,2.19921875,3.359375,3.6787109375,6.158203125,3.6787109375,3.759765625,0,6.7587890625-2.6796875,6.7587890625-7.1982421875Z"/><path class="cls-1" d="m276.2275390625,17.677734375c0-5.798828125,3.919921875-10.478515625,10.318359375-10.478515625,6.3994140625,0,10.318359375,4.6796875,10.318359375,10.478515625,0,5.7587890625-3.9189453125,10.4775390625-10.318359375,10.4775390625-6.3984375,0-10.318359375-4.71875-10.318359375-10.4775390625Zm16.95703125,0c0-4.3994140625-2.9189453125-7.19921875-6.638671875-7.19921875s-6.638671875,2.7998046875-6.638671875,7.19921875,2.9189453125,7.1982421875,6.638671875,7.1982421875,6.638671875-2.798828125,6.638671875-7.1982421875Z"/><path class="cls-1" d="m300.634765625,7.638671875h3.599609375v3.439453125c1.119140625-2.19921875,3.2392578125-3.87890625,6.318359375-3.87890625h.4404296875v3.4794921875c-3.240234375.080078125-5.6796875,1.3994140625-6.7587890625,4.51953125v12.4775390625h-3.599609375V7.638671875Z"/><path class="cls-1" d="m316.1220703125,20.63671875v-10.0380859375h-3.4794921875v-2.9599609375h3.5595703125V2.4404296875h3.51953125v5.1982421875h4.9189453125v2.9599609375h-4.9189453125v10.158203125c0,2.9599609375,1.3193359375,3.9990234375,4.279296875,3.9990234375h.6396484375v2.9599609375c-.439453125.080078125-1.0400390625.16015625-1.599609375.16015625-4.5595703125,0-6.9189453125-2.240234375-6.9189453125-7.2392578125Z"/><path class="cls-1" d="m336.201171875,17.677734375c0-5.798828125,3.919921875-10.478515625,10.318359375-10.478515625,6.3994140625,0,10.318359375,4.6796875,10.318359375,10.478515625,0,5.7587890625-3.9189453125,10.4775390625-10.318359375,10.4775390625-6.3984375,0-10.318359375-4.71875-10.318359375-10.4775390625Zm16.95703125,0c0-4.3994140625-2.9189453125-7.19921875-6.638671875-7.19921875s-6.638671875,2.7998046875-6.638671875,7.19921875,2.9189453125,7.1982421875,6.638671875,7.1982421875,6.638671875-2.798828125,6.638671875-7.1982421875Z"/><path class="cls-1" d="m360.609375,7.638671875h3.599609375v3.0400390625c1.0390625-1.759765625,3.2392578125-3.4794921875,6.5986328125-3.4794921875,5.19921875,0,7.9580078125,3.359375,7.9580078125,8.798828125v11.677734375h-3.5986328125v-11.318359375c0-3.8388671875-1.919921875-5.87890625-5.3193359375-5.87890625-3,0-5.0390625,1.919921875-5.638671875,4.119140625v13.078125h-3.599609375V7.638671875Z"/><path class="cls-1" d="m3.4794921875,65.8369140625v-10.0380859375H0v-2.9599609375h3.5595703125v-5.1982421875h3.51953125v5.1982421875h4.9189453125v2.9599609375h-4.9189453125v10.158203125c0,2.9599609375,1.3193359375,3.9990234375,4.279296875,3.9990234375h.6396484375v2.9599609375c-.439453125.080078125-1.0400390625.16015625-1.599609375.16015625-4.5595703125,0-6.9189453125-2.240234375-6.9189453125-7.2392578125Z"/><path class="cls-1" d="m15.0400390625,44.48046875h3.599609375v11.478515625c1.0390625-1.759765625,3.2392578125-3.5595703125,6.5986328125-3.5595703125,5.19921875,0,7.9580078125,3.359375,7.9580078125,8.798828125v11.677734375h-3.5986328125v-11.318359375c0-3.8388671875-1.919921875-5.87890625-5.3193359375-5.87890625s-5.2392578125,2.51953125-5.638671875,4.119140625v13.078125h-3.599609375v-28.3955078125Z"/><path class="cls-1" d="m36.7509765625,62.8779296875c0-6.19921875,4.0791015625-10.478515625,9.87890625-10.478515625,5.7587890625,0,9.59765625,4.279296875,9.59765625,9.837890625,0,.560546875-.080078125,1.3203125-.1591796875,1.8798828125h-15.677734375c.439453125,3.6396484375,2.7998046875,5.9990234375,6.6787109375,5.9990234375,2.6796875,0,5.119140625-1.439453125,6.5185546875-3.51953125l2.2001953125,2.2802734375c-2,2.6796875-5.0390625,4.478515625-8.87890625,4.478515625-6.119140625,0-10.158203125-4.5185546875-10.158203125-10.4775390625Zm3.6796875-1.759765625h12.158203125c-.240234375-3.439453125-2.7197265625-5.5595703125-5.958984375-5.5595703125-3.2802734375,0-5.6396484375,2.0400390625-6.19921875,5.5595703125Z"/><path class="cls-1" d="m77.8701171875,45.6806640625h4.1591796875l10.9580078125,27.1953125h-3.87890625l-2.6396484375-6.55859375h-13.1181640625l-2.599609375,6.55859375h-3.87890625l10.998046875-27.1953125Zm-3.19921875,17.357421875h10.517578125l-5.2392578125-13.1982421875-5.2783203125,13.1982421875Z"/><path class="cls-1" d="m124.2939453125,61.5576171875c0-3.8388671875-1.83984375-5.87890625-5.2392578125-5.87890625-2.958984375,0-4.87890625,1.919921875-5.5185546875,4.119140625v13.078125h-3.599609375v-11.318359375c0-3.8388671875-1.83984375-5.87890625-5.2392578125-5.87890625-2.958984375,0-4.9189453125,1.919921875-5.5185546875,4.119140625v13.078125h-3.599609375v-20.037109375h3.599609375v3.0400390625c1.0390625-1.759765625,3.1591796875-3.4794921875,6.5185546875-3.4794921875,3.439453125,0,5.7587890625,1.4794921875,6.9189453125,4.0791015625,1.3193359375-2.3994140625,3.9189453125-4.0791015625,7.4384765625-4.0791015625,5.1591796875,0,7.8388671875,3.359375,7.8388671875,8.798828125v11.677734375h-3.599609375v-11.318359375Z"/><path class="cls-1" d="m131.509765625,62.8779296875c0-6.19921875,4.0791015625-10.478515625,9.87890625-10.478515625,5.7587890625,0,9.59765625,4.279296875,9.59765625,9.837890625,0,.560546875-.080078125,1.3203125-.1591796875,1.8798828125h-15.677734375c.439453125,3.6396484375,2.7998046875,5.9990234375,6.6787109375,5.9990234375,2.6796875,0,5.119140625-1.439453125,6.5185546875-3.51953125l2.2001953125,2.2802734375c-2,2.6796875-5.0390625,4.478515625-8.87890625,4.478515625-6.119140625,0-10.158203125-4.5185546875-10.158203125-10.4775390625Zm3.6796875-1.759765625h12.158203125c-.240234375-3.439453125-2.7197265625-5.5595703125-5.958984375-5.5595703125-3.2802734375,0-5.6396484375,2.0400390625-6.19921875,5.5595703125Z"/><path class="cls-1" d="m154.6826171875,52.8388671875h3.599609375v3.439453125c1.119140625-2.19921875,3.2392578125-3.87890625,6.318359375-3.87890625h.4404296875v3.4794921875c-3.240234375.080078125-5.6796875,1.3994140625-6.7587890625,4.51953125v12.4775390625h-3.599609375v-20.037109375Z"/><path class="cls-1" d="m167.5224609375,43.9609375h3.87890625v4.3193359375h-3.87890625v-4.3193359375Zm.16015625,8.8779296875h3.599609375v20.037109375h-3.599609375v-20.037109375Z"/><path class="cls-1" d="m174.9306640625,62.837890625c0-5.7587890625,4-10.4384765625,10.23828125-10.4384765625,3.9599609375,0,7.0390625,1.919921875,8.8388671875,5.0791015625l-2.6796875,1.8798828125c-1.2001953125-2.240234375-3.359375-3.6796875-6.0390625-3.6796875-3.8388671875,0-6.6787109375,2.759765625-6.6787109375,7.1591796875,0,4.439453125,2.83984375,7.1982421875,6.6787109375,7.1982421875,2.6796875,0,4.8388671875-1.439453125,6.0390625-3.6787109375l2.6796875,1.87890625c-1.7998046875,3.16015625-4.87890625,5.0791015625-8.8388671875,5.0791015625-6.23828125,0-10.23828125-4.6787109375-10.23828125-10.4775390625Z"/><path class="cls-1" d="m212.5234375,70.0361328125c-1.5595703125,2-4,3.279296875-6.8388671875,3.279296875-5.6396484375,0-9.798828125-4.2392578125-9.798828125-10.4775390625,0-6.19921875,4.1591796875-10.4384765625,9.798828125-10.4384765625,2.8388671875,0,5.279296875,1.279296875,6.8388671875,3.279296875v-2.83984375h3.599609375v20.037109375h-3.599609375v-2.83984375Zm0-3.6787109375v-6.958984375c-1.0400390625-2.240234375-3.3994140625-3.7197265625-6.19921875-3.7197265625-3.759765625,0-6.7587890625,2.7197265625-6.7587890625,7.1591796875,0,4.4794921875,2.9990234375,7.1982421875,6.7587890625,7.1982421875,2.7998046875,0,5.1591796875-1.4794921875,6.19921875-3.6787109375Z"/><path class="cls-1" d="m221.017578125,52.8388671875h3.599609375v3.0400390625c1.0390625-1.759765625,3.2392578125-3.4794921875,6.5986328125-3.4794921875,5.19921875,0,7.9580078125,3.359375,7.9580078125,8.798828125v11.677734375h-3.5986328125v-11.318359375c0-3.8388671875-1.919921875-5.87890625-5.3193359375-5.87890625-3,0-5.0390625,1.919921875-5.638671875,4.119140625v13.078125h-3.599609375v-20.037109375Z"/><path class="cls-1" d="m254.1767578125,45.6806640625h3.2392578125l16.6376953125,21.0361328125v-21.0361328125h3.6787109375v27.1953125h-3.2392578125l-16.63671875-21.0361328125v21.0361328125h-3.6796875v-27.1953125Z"/><path class="cls-1" d="m298.826171875,70.0361328125c-1.5595703125,2-4,3.279296875-6.8388671875,3.279296875-5.6396484375,0-9.798828125-4.2392578125-9.798828125-10.4775390625,0-6.19921875,4.1591796875-10.4384765625,9.798828125-10.4384765625,2.8388671875,0,5.279296875,1.279296875,6.8388671875,3.279296875v-2.83984375h3.599609375v20.037109375h-3.599609375v-2.83984375Zm0-3.6787109375v-6.958984375c-1.0400390625-2.240234375-3.3994140625-3.7197265625-6.19921875-3.7197265625-3.759765625,0-6.7587890625,2.7197265625-6.7587890625,7.1591796875,0,4.4794921875,2.9990234375,7.1982421875,6.7587890625,7.1982421875,2.7998046875,0,5.1591796875-1.4794921875,6.19921875-3.6787109375Z"/><path class="cls-1" d="m308.607421875,65.8369140625v-10.0380859375h-3.4794921875v-2.9599609375h3.5595703125v-5.1982421875h3.51953125v5.1982421875h4.9189453125v2.9599609375h-4.9189453125v10.158203125c0,2.9599609375,1.3193359375,3.9990234375,4.279296875,3.9990234375h.6396484375v2.9599609375c-.439453125.080078125-1.0400390625.16015625-1.599609375.16015625-4.5595703125,0-6.9189453125-2.240234375-6.9189453125-7.2392578125Z"/><path class="cls-1" d="m319.8154296875,43.9609375h3.87890625v4.3193359375h-3.87890625v-4.3193359375Zm.16015625,8.8779296875h3.599609375v20.037109375h-3.599609375v-20.037109375Z"/><path class="cls-1" d="m327.2236328125,62.8779296875c0-5.798828125,3.919921875-10.478515625,10.318359375-10.478515625,6.3994140625,0,10.318359375,4.6796875,10.318359375,10.478515625,0,5.7587890625-3.9189453125,10.4775390625-10.318359375,10.4775390625-6.3984375,0-10.318359375-4.71875-10.318359375-10.4775390625Zm16.95703125,0c0-4.3994140625-2.9189453125-7.19921875-6.638671875-7.19921875s-6.638671875,2.7998046875-6.638671875,7.19921875,2.9189453125,7.1982421875,6.638671875,7.1982421875,6.638671875-2.798828125,6.638671875-7.1982421875Z"/><path class="cls-1" d="m351.6318359375,52.8388671875h3.599609375v3.0400390625c1.0390625-1.759765625,3.2392578125-3.4794921875,6.5986328125-3.4794921875,5.19921875,0,7.9580078125,3.359375,7.9580078125,8.798828125v11.677734375h-3.5986328125v-11.318359375c0-3.8388671875-1.919921875-5.87890625-5.3193359375-5.87890625-3,0-5.0390625,1.919921875-5.638671875,4.119140625v13.078125h-3.599609375v-20.037109375Z"/><path class="cls-1" d="m389.9599609375,70.0361328125c-1.5595703125,2-4,3.279296875-6.8388671875,3.279296875-5.6396484375,0-9.798828125-4.2392578125-9.798828125-10.4775390625,0-6.19921875,4.1591796875-10.4384765625,9.798828125-10.4384765625,2.8388671875,0,5.279296875,1.279296875,6.8388671875,3.279296875v-2.83984375h3.5986328125v20.037109375h-3.5986328125v-2.83984375Zm0-3.6787109375v-6.958984375c-1.0400390625-2.240234375-3.3994140625-3.7197265625-6.19921875-3.7197265625-3.759765625,0-6.7587890625,2.7197265625-6.7587890625,7.1591796875,0,4.4794921875,2.9990234375,7.1982421875,6.7587890625,7.1982421875,2.7998046875,0,5.1591796875-1.4794921875,6.19921875-3.6787109375Z"/><path class="cls-1" d="m398.4541015625,44.48046875h3.599609375v28.3955078125h-3.599609375v-28.3955078125Z"/><path class="cls-1" d="m2.759765625,90.880859375h18.4365234375v3.279296875H6.439453125v8.55859375h12.91796875v3.279296875H6.439453125v8.798828125h14.7568359375v3.279296875H2.759765625v-27.1953125Z"/><path class="cls-1" d="m23.4248046875,117.9560546875l7.3583984375-10.1181640625-6.958984375-9.638671875v-.16015625h4.0791015625l5.279296875,7.439453125,5.279296875-7.439453125h4.119140625v.16015625l-6.958984375,9.638671875,7.359375,10.1181640625v.1201171875h-4.1201171875l-5.6787109375-7.9189453125-5.638671875,7.9189453125h-4.119140625v-.1201171875Z"/><path class="cls-1" d="m45.546875,89.6806640625h3.599609375v11.478515625c1.0390625-1.759765625,3.2392578125-3.5595703125,6.5986328125-3.5595703125,5.19921875,0,7.9580078125,3.359375,7.9580078125,8.798828125v11.677734375h-3.5986328125v-11.318359375c0-3.8388671875-1.919921875-5.87890625-5.3193359375-5.87890625s-5.2392578125,2.51953125-5.638671875,4.119140625v13.078125h-3.599609375v-28.3955078125Z"/><path class="cls-1" d="m68.22265625,89.1611328125h3.87890625v4.3193359375h-3.87890625v-4.3193359375Zm.16015625,8.8779296875h3.599609375v20.037109375h-3.599609375v-20.037109375Z"/><path class="cls-1" d="m80.4462890625,118.076171875h-3.599609375v-28.3955078125h3.599609375v11.1982421875c1.5595703125-1.9990234375,3.9990234375-3.279296875,6.8388671875-3.279296875,5.638671875,0,9.7978515625,4.2392578125,9.7978515625,10.4384765625,0,6.23828125-4.1591796875,10.4775390625-9.7978515625,10.4775390625-2.83984375,0-5.279296875-1.279296875-6.8388671875-3.279296875v2.83984375Zm12.95703125-10.0380859375c0-4.4794921875-2.9990234375-7.1591796875-6.7587890625-7.1591796875-2.798828125,0-5.1591796875,1.51953125-6.1982421875,3.7998046875v6.798828125c1.0390625,2.2392578125,3.3994140625,3.7587890625,6.1982421875,3.7587890625,3.759765625,0,6.7587890625-2.6796875,6.7587890625-7.1982421875Z"/><path class="cls-1" d="m100.658203125,89.1611328125h3.87890625v4.3193359375h-3.87890625v-4.3193359375Zm.16015625,8.8779296875h3.599609375v20.037109375h-3.599609375v-20.037109375Z"/><path class="cls-1" d="m110.5537109375,111.037109375v-10.0380859375h-3.4794921875v-2.9599609375h3.5595703125v-5.1982421875h3.51953125v5.1982421875h4.9189453125v2.9599609375h-4.9189453125v10.158203125c0,2.9599609375,1.3193359375,3.9990234375,4.279296875,3.9990234375h.6396484375v2.9599609375c-.439453125.080078125-1.0400390625.16015625-1.599609375.16015625-4.5595703125,0-6.9189453125-2.240234375-6.9189453125-7.2392578125Z"/><path class="cls-1" d="m121.76171875,89.1611328125h3.87890625v4.3193359375h-3.87890625v-4.3193359375Zm.16015625,8.8779296875h3.599609375v20.037109375h-3.599609375v-20.037109375Z"/><path class="cls-1" d="m129.169921875,108.078125c0-5.798828125,3.919921875-10.478515625,10.318359375-10.478515625,6.3994140625,0,10.318359375,4.6796875,10.318359375,10.478515625,0,5.7587890625-3.9189453125,10.4775390625-10.318359375,10.4775390625-6.3984375,0-10.318359375-4.71875-10.318359375-10.4775390625Zm16.95703125,0c0-4.3994140625-2.9189453125-7.19921875-6.638671875-7.19921875s-6.638671875,2.7998046875-6.638671875,7.19921875,2.9189453125,7.1982421875,6.638671875,7.1982421875,6.638671875-2.798828125,6.638671875-7.1982421875Z"/><path class="cls-1" d="m153.578125,98.0390625h3.599609375v3.0400390625c1.0390625-1.759765625,3.2392578125-3.4794921875,6.5986328125-3.4794921875,5.19921875,0,7.9580078125,3.359375,7.9580078125,8.798828125v11.677734375h-3.5986328125v-11.318359375c0-3.8388671875-1.919921875-5.87890625-5.3193359375-5.87890625-3,0-5.0390625,1.919921875-5.638671875,4.119140625v13.078125h-3.599609375v-20.037109375Z"/><path class="cls-1" d="m185.896484375,89.1611328125h3.87890625v4.3193359375h-3.87890625v-4.3193359375Zm.16015625,8.8779296875h3.599609375v20.037109375h-3.599609375v-20.037109375Z"/><path class="cls-1" d="m194.521484375,98.0390625h3.599609375v3.0400390625c1.0390625-1.759765625,3.2392578125-3.4794921875,6.5986328125-3.4794921875,5.19921875,0,7.9580078125,3.359375,7.9580078125,8.798828125v11.677734375h-3.5986328125v-11.318359375c0-3.8388671875-1.919921875-5.87890625-5.3193359375-5.87890625-3,0-5.0390625,1.919921875-5.638671875,4.119140625v13.078125h-3.599609375v-20.037109375Z"/><path class="cls-1" d="m227.6796875,90.880859375h4.9189453125l9.638671875,22.4765625,9.638671875-22.4765625h4.9189453125v27.1953125h-3.6796875v-21.5166015625l-9.1982421875,21.5166015625h-3.359375l-9.1982421875-21.5166015625v21.5166015625h-3.6796875v-27.1953125Z"/><path class="cls-1" d="m261.2001953125,108.078125c0-5.798828125,3.919921875-10.478515625,10.318359375-10.478515625,6.3994140625,0,10.318359375,4.6796875,10.318359375,10.478515625,0,5.7587890625-3.9189453125,10.4775390625-10.318359375,10.4775390625-6.3984375,0-10.318359375-4.71875-10.318359375-10.4775390625Zm16.95703125,0c0-4.3994140625-2.9189453125-7.19921875-6.638671875-7.19921875s-6.638671875,2.7998046875-6.638671875,7.19921875,2.9189453125,7.1982421875,6.638671875,7.1982421875,6.638671875-2.798828125,6.638671875-7.1982421875Z"/><path class="cls-1" d="m283.3037109375,114.3564453125l2.3193359375-2.439453125c1.240234375,1.83984375,3.5595703125,3.359375,6.19921875,3.359375,2.599609375,0,4.6396484375-1.0390625,4.6396484375-3.119140625,0-1.599609375-1.5205078125-2.4794921875-3.9599609375-2.83984375l-1.759765625-.279296875c-3.55859375-.560546875-5.87890625-2.3603515625-5.87890625-5.5595703125,0-3.1591796875,2.599609375-5.87890625,7.439453125-5.87890625,3.0791015625,0,5.5185506535,1.359375,6.998046875,3.2392578125l-2.2392578125,2.439453125c-1.2802734375-1.51953125-2.8798828125-2.3994140625-4.8388671875-2.3994140625-2.4794921875,0-3.6796875,1.2001953125-3.6796875,2.51953125,0,1.3603515625,1.1201171875,2.0400390625,2.958984375,2.3193359375l1.7998046875.2802734375c4.359375.6396484375,6.8388671875,2.6796875,6.8388671875,6.0791015625,0,3.599609375-3.1591796875,6.478515625-8.3984375,6.478515625-3.8388671875,0-6.7587890625-1.958984375-8.4384765625-4.19921875Z"/><path class="cls-1" d="m302.3876953125,108.0380859375c0-5.7587890625,4-10.4384765625,10.23828125-10.4384765625,3.9599609375,0,7.0390625,1.919921875,8.8388671875,5.0791015625l-2.6796875,1.8798828125c-1.2001953125-2.240234375-3.359375-3.6796875-6.0390625-3.6796875-3.8388671875,0-6.6787109375,2.759765625-6.6787109375,7.1591796875,0,4.439453125,2.83984375,7.1982421875,6.6787109375,7.1982421875,2.6796875,0,4.8388671875-1.439453125,6.0390625-3.6787109375l2.6796875,1.87890625c-1.7998046875,3.16015625-4.87890625,5.0791015625-8.8388671875,5.0791015625-6.23828125,0-10.23828125-4.6787109375-10.23828125-10.4775390625Z"/><path class="cls-1" d="m323.298828125,108.078125c0-5.798828125,3.919921875-10.478515625,10.318359375-10.478515625,6.3994140625,0,10.318359375,4.6796875,10.318359375,10.478515625,0,5.7587890625-3.9189453125,10.4775390625-10.318359375,10.4775390625-6.3984375,0-10.318359375-4.71875-10.318359375-10.4775390625Zm16.95703125,0c0-4.3994140625-2.9189453125-7.19921875-6.638671875-7.19921875s-6.638671875,2.7998046875-6.638671875,7.19921875,2.9189453125,7.1982421875,6.638671875,7.1982421875,6.638671875-2.798828125,6.638671875-7.1982421875Z"/><path class="cls-1" d="m344.7548828125,98.0390625h3.7998046875l4.8388671875,15.158203125,5.439453125-15.158203125h3.6396484375l5.4384765625,15.158203125,4.83984375-15.158203125h3.798828125l-6.71875,20.037109375h-3.4794921875l-5.6787109375-15.517578125-5.7197265625,15.517578125h-3.478515625l-6.7197265625-20.037109375Z"/><path class="cls-1" d="m379.466796875,119.8759765625h-2.16015625v-4.759765625h4.759765625v4.2001953125l-2.16015625,6.638671875h-2.3994140625l1.9599609375-6.0791015625Z"/><path class="cls-1" d="m400.7841796875,95l-5.798828125,3.279296875-1.359375-2.87890625,7.958984375-4.51953125h2.798828125v27.1953125h-3.599609375v-23.076171875Z"/><path class="cls-1" d="m430.0810546875,103.798828125c0,9.2783203125-4.71875,14.7568359375-12.0380859375,14.7568359375-4.1591796875,0-7.158203125-2.119140625-8.837890625-4.6787109375l2.5595703125-2.16015625c1.279296875,2.0400390625,3.51953125,3.3994140625,6.2783203125,3.3994140625,4.7197265625,0,7.958984375-3.55859375,8.3193359375-9.5576171875-1.6396484375,2.279296875-4.3193359375,3.9990234375-7.71875,3.9990234375-5.2392578125,0-9.5986328125-3.9189453125-9.5986328125-9.55859375,0-5.55859375,4.5595703125-9.5986328125,10.158203125-9.5986328125,7.0791015625,0,10.8779296875,5.439453125,10.8779296875,13.3984375Zm-17.31640625-3.83984375c0,3.3193359375,2.51953125,6.1591796875,6.3984375,6.1591796875,3.8798828125,0,6.3994140625-2.83984375,6.3994140625-6.1591796875s-2.51953125-6.119140625-6.3994140625-6.119140625c-3.87890625,0-6.3984375,2.7998046875-6.3984375,6.119140625Z"/><path class="cls-1" d="m432.1767578125,113.9970703125l2.2392578125-2.51953125c1.48046875,1.7998046875,3.6396484375,3.638671875,7.19921875,3.638671875,3.87890625,0,6.87890625-2.3193359375,6.87890625-6.1982421875,0-3.6796875-2.599609375-5.8388671875-6.1591796875-5.8388671875-2.51953125,0-4.279296875.759765625-5.798828125,1.9990234375l-2.2001953125-.759765625.0400390625-.2001953125,1.3203049829-13.2373046875h14.9570387671v3.279296875h-11.7578125l-.759765625,6.3994140625c1.240234375-.5205078125,2.6796875-.919921875,4.3994140625-.919921875,5.359375,0,9.6787109375,3.19921875,9.6787109375,9.2783203125,0,5.9189453125-4.4794921875,9.6376953125-10.5986328125,9.6376953125-4.7587890625,0-7.71875-2.5595703125-9.4384765625-4.55859375Z"/><path class="cls-1" d="m475.724609375,103.798828125c0,9.2783203125-4.71875,14.7568359375-12.0380859375,14.7568359375-4.1591796875,0-7.158203125-2.119140625-8.837890625-4.6787109375l2.5595703125-2.16015625c1.279296875,2.0400390625,3.51953125,3.3994140625,6.2783203125,3.3994140625,4.7197265625,0,7.958984375-3.55859375,8.3193359375-9.5576171875-1.6396484375,2.279296875-4.3193359375,3.9990234375-7.71875,3.9990234375-5.2392578125,0-9.5986328125-3.9189453125-9.5986328125-9.55859375,0-5.55859375,4.5595703125-9.5986328125,10.158203125-9.5986328125,7.0791015625,0,10.8779296875,5.439453125,10.8779296875,13.3984375Zm-17.31640625-3.83984375c0,3.3193359375,2.51953125,6.1591796875,6.3984375,6.1591796875,3.8798828125,0,6.3994140625-2.83984375,6.3994140625-6.1591796875s-2.51953125-6.119140625-6.3994140625-6.119140625c-3.87890625,0-6.3984375,2.7998046875-6.3984375,6.119140625Z"/><path class="cls-1" d="m.24609375,165.2890625h8.6728515625v-4.548828125h-4.57421875c-.6494140625,0-1.0498046875-.25-1.0498046875-.8745117188v-9.2978515625h13.5224609375v10.1723632812h-5.5986328125v4.548828125h8.6474609375v2.0498046875H.24609375v-2.0498046875Zm5.3740234375-6.5483398438h8.8974609375v-6.1733398438H5.6201171875v6.1733398438Z"/><path class="cls-1" d="m21.7587890625,165.2641601562h19.6201171875v2.0244140625h-19.6201171875v-2.0244140625Zm17.24609375-3.8491210938c-3.0244140625-.6997070312-6.548828125-2.9990234375-7.423828125-5.7236328125-.82421875,2.7993164062-4.298828125,5.048828125-7.4228515625,5.8486328125l-.849609375-1.9243164062c3.548828125-1,7.0732421875-3.32421875,7.0732421875-7.9233398438v-1.69921875h2.349609375v1.6743164062c0,4.5991210938,3.44921875,6.7734375,7.1474609375,7.8232421875l-.8740234375,1.9243164062Z"/><path class="cls-1" d="m43.271484375,165.2143554688h12.5966796875c.875-2.1997070312,1.3251953125-4.4990234375,1.5244140625-6.8486328125-1.1494140625.8251953125-2.8984375,1.1000976562-5.498046875,1.1000976562h-6.0234375v-1.9248046875h6.1484375c2.1494140625,0,4.1240234375-.099609375,5.4736328125-.7495117188.0244140625-.5498046875.0498046875-1.125.0498046875-1.6748046875v-2.4995117188h-11.296875v-1.9995117188h13.5966796875v3.57421875c0,4.5991210938-.525390625,7.9233398438-1.9248046875,11.0224609375h4.9736328125v2.0244140625h-19.6201171875v-2.0244140625Z"/><path class="cls-1" d="m72.5498046875,150.4926757812h2.2490234375v13.9716796875h-8.9482421875c-.6494140625,0-1.0244140625-.2749023438-1.0244140625-.8994140625v-13.072265625h2.25v4.798828125h5.4736328125v-4.798828125Zm0,11.9721679688v-5.173828125h-5.4736328125v5.173828125h5.4736328125Zm5.9482421875,7.6733398438v-21.4946289062h2.2998046875v7.6977539062h3.19921875v2.0244140625h-3.19921875v11.7724609375h-2.2998046875Z"/><path class="cls-1" d="m97.0029296875,169.5131835938v-11.1723632812h-2.07421875c-.2255859375,3.5244140625-1.7001953125,5.9736328125-4.57421875,5.9736328125-3.1240234375,0-4.6484375-2.8491210938-4.6484375-6.8984375,0-4.0737304688,1.5244140625-6.8979492188,4.6484375-6.8979492188,2.849609375,0,4.32421875,2.4243164062,4.548828125,5.8232421875h2.099609375v-7.3232421875h2.19921875v20.4951171875h-2.19921875Zm-4.19921875-12.0971679688c0-2.7739257812-.7744140625-4.923828125-2.44921875-4.923828125-1.69921875,0-2.44921875,2.1499023438-2.44921875,4.923828125,0,2.7495117188.75,4.8989257812,2.44921875,4.8989257812,1.6748046875,0,2.44921875-2.1494140625,2.44921875-4.8989257812Zm8.748046875,12.7221679688v-21.4946289062h2.224609375v21.4946289062h-2.224609375Z"/><path class="cls-1" d="m117.8408203125,164.6396484375c-2.548828125-1.2749023438-4.5234375-3.6245117188-5.1484375-5.7490234375-.650390625,2.3247070312-2.5498046875,4.69921875-5.2734375,6.1235351562-.400390625-.6245117188-.7998046875-1.2495117188-1.1748046875-1.8745117188,3.7734375-2.0991210938,5.2236328125-5.1987304688,5.2236328125-9.09765625v-3.6743164062h2.32421875v3.5244140625c0,3.923828125,1.5,6.873046875,5.2236328125,8.84765625l-1.1748046875,1.8999023438Zm4.0244140625,5.4985351562v-13.0219726562h-4.82421875v-2.0493164062h4.82421875v-6.4233398438h2.298828125v21.4946289062h-2.298828125Z"/><path class="cls-1" d="m133.5439453125,162.9150390625c4.32421875-2.1997070312,6.7236328125-5.7236328125,6.7236328125-10.0478515625h-5.82421875v-1.9995117188h8.0732421875v1.5c0,5.5234375-2.6240234375,9.6723632812-7.8232421875,12.396484375l-1.1494140625-1.8491210938Zm16.2958984375,7.2231445312v-11.822265625h-3.0244140625v11.197265625h-2.224609375v-20.4951171875h2.224609375v7.2734375h3.0244140625v-7.6479492188h2.224609375v21.4946289062h-2.224609375Z"/><path class="cls-1" d="m170.0673828125,170.1381835938v-5.298828125c-2.07421875,1.125-5.3740234375,1.1997070312-8.47265625,1.1997070312h-6.7734375v-2.0244140625h5.6484375v-3.19921875h2.2998046875v3.19921875h.9248046875c2.3740234375,0,4.7734375-.1748046875,6.373046875-.8999023438v-14.4711914062h2.32421875v21.4946289062h-2.32421875Zm-2.94921875-8.97265625c-2.69921875-.625-4.82421875-1.974609375-5.423828125-3.7744140625-.599609375,1.8745117188-2.69921875,3.3994140625-5.5732421875,4.2241210938l-.9248046875-1.849609375c2.724609375-.724609375,4.5986328125-2.0747070312,5.0234375-4.3740234375h-4.1484375v-1.974609375h11.072265625v1.974609375h-4.099609375c.4755859375,2.224609375,2.2744140625,3.2993164062,4.9990234375,3.94921875l-.9248046875,1.8247070312Zm-9.072265625-11.5224609375h7.1474609375v1.9995117188h-7.1474609375v-1.9995117188Z"/><path class="cls-1" d="m190.5322265625,165.189453125v-4.19921875c-2.099609375,1.1499023438-5.3984375,1.1997070312-8.47265625,1.1997070312h-6.7734375v-1.94921875h5.6240234375v-2.7744140625h-3.1748046875c-.6494140625,0-1.0244140625-.25-1.0244140625-.875v-6.7734375h10.6220703125v1.974609375h-8.3232421875v3.7490234375h8.5234375v1.9248046875h-4.32421875v2.7744140625h1.8994140625c2.0498046875-.0502929688,4.0244140625-.275390625,5.423828125-.8999023438v-10.697265625h2.32421875v16.5458984375h-2.32421875Zm-11.0224609375-1.1748046875h2.2998046875v4.1240234375h11.671875v1.9995117188h-12.921875c-.6494140625,0-1.0498046875-.25-1.0498046875-.875v-5.2485351562Z"/><path class="cls-1" d="m204.8359375,164.3393554688c-.650390625,0-1.025390625-.2749023438-1.025390625-.8994140625v-12.6220703125h9.97265625v13.521484375h-8.947265625Zm6.6982421875-11.5219726562h-5.4736328125v9.5224609375h5.4736328125v-9.5224609375Zm6.2978515625,17.3208007812v-21.4946289062h2.2998046875v21.4946289062h-2.2998046875Z"/><path class="cls-1" d="m237.2353515625,170.9379882812v-5.8237304688h-11.4970703125v-1.9497070312h5.9228515625v-3.548828125h-8.6474609375v-1.9248046875h12.947265625c.7744140625-1.6494140625,1.099609375-3.9487304688,1.099609375-5.5732421875v-.3999023438h-11.0478515625v-2.0249023438h13.3720703125v.9750976562c0,2.7241210938-.375,5.173828125-1.349609375,7.0229492188h4.5986328125v1.9248046875h-8.6474609375v3.548828125h5.5478515625v7.7734375h-2.298828125Z"/><path class="cls-1" d="m264.6103515625,170.9379882812v-5.8237304688h-11.4970703125v-1.9497070312h5.9228515625v-3.548828125h-8.6474609375v-1.9248046875h12.947265625c.7744140625-1.6494140625,1.099609375-3.9487304688,1.099609375-5.5732421875v-.3999023438h-11.0478515625v-2.0249023438h13.3720703125v.9750976562c0,2.7241210938-.375,5.173828125-1.349609375,7.0229492188h4.5986328125v1.9248046875h-8.6474609375v3.548828125h5.5478515625v7.7734375h-2.298828125Z"/><path class="cls-1" d="m286.546875,160.7153320312v-2.1743164062c-1.57421875,1.0249023438-3.8984375,1.4497070312-6.373046875,1.4995117188h-6.623046875c-.650390625,0-1.025390625-.25-1.025390625-.875v-5.2236328125h7.5732421875v-2.1245117188h-7.5732421875v-1.94921875h9.84765625v5.9482421875h-7.5478515625v2.2998046875h4.7734375c2.6494140625,0,5.2744140625-.2250976562,6.9482421875-1.1748046875v-8.2978515625h2.2998046875v12.0717773438h-2.2998046875Zm-9.59765625,9.59765625c-.6494140625,0-1.0498046875-.2749023438-1.0498046875-.8999023438v-7.5727539062h2.2998046875v2.19921875h8.34765625v-2.19921875h2.2998046875v8.47265625h-11.8974609375Zm1.25-2.0244140625h8.34765625v-2.2993164062h-8.34765625v2.2993164062Z"/><path class="cls-1" d="m307.32421875,149.8178710938h2.2490234375v10.6474609375h-8.9482421875c-.6494140625,0-1.0244140625-.25-1.0244140625-.8745117188v-9.7729492188h2.25v3.32421875h5.4736328125v-3.32421875Zm0,8.6728515625v-3.3740234375h-5.4736328125v3.3740234375h5.4736328125Zm5.9482421875,11.8720703125v-5.2734375h-11.197265625v-1.9995117188h13.4970703125v7.2729492188h-2.2998046875Zm0-8.72265625v-12.9965820312h2.2998046875v5.4985351562h3.19921875v2.0244140625h-3.19921875v5.4736328125h-2.2998046875Z"/><path class="cls-1" d="m334.5546875,161.0903320312v-2.2993164062c-1.625,1.0498046875-3.9990234375,1.4497070312-6.548828125,1.4995117188h-6.0986328125c-.6494140625,0-1.0244140625-.25-1.0244140625-.875v-5.3486328125h7.5732421875v-2.2495117188h-7.5732421875v-1.94921875h9.84765625v6.0732421875h-7.5478515625v2.4243164062h4.4736328125c2.6240234375,0,5.2236328125-.224609375,6.8984375-1.1743164062v-8.5478515625h2.2998046875v5.2236328125h3.19921875v2.0244140625h-3.19921875v5.1987304688h-2.2998046875Zm-10.59765625,1.4497070312h12.8974609375v7.7231445312h-11.84765625c-.6494140625,0-1.0498046875-.2749023438-1.0498046875-.8999023438v-6.8232421875Zm2.2998046875,5.6987304688h8.2978515625v-3.69921875h-8.2978515625v3.69921875Z"/><path class="cls-1" d="m349.494140625,162.115234375v2.1494140625h.9248046875c2.349609375,0,4.7734375-.1752929688,6.373046875-.8999023438v-14.7211914062h2.32421875v21.4946289062h-2.32421875v-5.048828125c-1.6494140625.875-4.0986328125,1.1499023438-6.5732421875,1.1997070312h-8.6728515625v-2.0244140625h5.6484375v-2.1494140625c-2.3994140625-.375-3.8984375-2.0498046875-3.8984375-4.1489257812,0-1.0751953125.44921875-1.974609375,1.2490234375-2.599609375h-2.599609375v-1.9497070312h12.796875v1.9497070312h-2.6494140625c.80078125.625,1.275390625,1.5244140625,1.275390625,2.599609375,0,2.0991210938-1.5,3.7739257812-3.8740234375,4.1489257812Zm-4.7236328125-12.5971679688h7.1474609375v2.0244140625h-7.1474609375v-2.0244140625Zm3.5732421875,10.822265625c1.724609375,0,2.7998046875-1.0498046875,2.7998046875-2.3740234375,0-1.3500976562-1.0498046875-2.3994140625-2.7998046875-2.3994140625-1.724609375,0-2.82421875,1.0493164062-2.82421875,2.3994140625,0,1.32421875,1.099609375,2.3740234375,2.82421875,2.3740234375Z"/><path class="cls-1" d="m1.470703125,180.3676757812h2.0244140625l10.3974609375,13.1469726562v-13.1469726562h2.2998046875v16.99609375h-2.0244140625l-10.3974609375-13.1469726562v13.1469726562H1.470703125v-16.99609375Z"/><path class="cls-1" d="m20.3330078125,180.3676757812h6.548828125c3.4990234375,0,5.4736328125,1.6997070312,5.4736328125,4.4990234375,0,1.474609375-.75,2.724609375-2.0751953125,3.4741210938,1.9501953125.5498046875,3.3994140625,1.8247070312,3.3994140625,4.2490234375,0,2.9243164062-2.0498046875,4.7739257812-5.9482421875,4.7739257812h-7.3984375v-16.99609375Zm6.2734375,7.2983398438c2.349609375,0,3.3740234375-.9995117188,3.3740234375-2.6494140625,0-1.6494140625-1.0244140625-2.6489257812-3.3740234375-2.6489257812h-3.9736328125v5.2983398438h3.9736328125Zm1.0244140625,7.6982421875c2.5244140625,0,3.6748046875-1.0747070312,3.6748046875-2.8491210938,0-1.7998046875-1.150390625-2.8745117188-3.6748046875-2.8745117188h-4.998046875v5.7236328125h4.998046875Z"/><path class="cls-1" d="m35.462890625,188.8657226562c0-4.9487304688,3.57421875-8.7978515625,8.5224609375-8.7978515625,3.44921875,0,6.1240234375,1.7495117188,7.548828125,4.3989257812l-1.7998046875,1.224609375c-1.0751953125-2.07421875-2.9990234375-3.4487304688-5.7236328125-3.4487304688-3.7236328125,0-6.173828125,2.8740234375-6.173828125,6.623046875s2.4501953125,6.6235351562,6.173828125,6.6235351562c2.724609375,0,4.6484375-1.3745117188,5.7236328125-3.44921875l1.7998046875,1.224609375c-1.4248046875,2.6494140625-4.099609375,4.3989257812-7.548828125,4.3989257812-4.9482421875,0-8.5224609375-3.8491210938-8.5224609375-8.7978515625Z"/><path class="cls-1" d="m71.5595703125,200.1879882812v-7.2231445312h-5.19921875v7.2231445312h-2.32421875v-7.2231445312h-4.9736328125v-2.0244140625h19.6201171875v2.0244140625h-4.82421875v7.2231445312h-2.298828125Zm-9.3232421875-20.7446289062h2.2998046875v6.2734375h11.47265625v2.0244140625h-12.72265625c-.6494140625,0-1.0498046875-.2749023438-1.0498046875-.8999023438v-7.3979492188Z"/><path class="cls-1" d="m79.6552734375,195.2641601562h19.6201171875v2.0244140625h-19.6201171875v-2.0244140625Zm17.24609375-3.8491210938c-3.0244140625-.6997070312-6.548828125-2.9990234375-7.423828125-5.7236328125-.82421875,2.7993164062-4.298828125,5.048828125-7.4228515625,5.8486328125l-.849609375-1.9243164062c3.548828125-1,7.0732421875-3.32421875,7.0732421875-7.9233398438v-1.69921875h2.349609375v1.6743164062c0,4.5991210938,3.44921875,6.7734375,7.1474609375,7.8232421875l-.8740234375,1.9243164062Z"/><path class="cls-1" d="m122.326171875,200.1381835938v-7.0483398438c-1.82421875,1.1748046875-4.5986328125,1.4995117188-7.4482421875,1.4995117188h-5.5478515625c-.650390625,0-1.025390625-.2749023438-1.025390625-.8999023438v-7.1479492188h7.5732421875v-3.7744140625h-7.5732421875v-1.9990234375h9.84765625v7.748046875h-7.5478515625v4.0737304688h4.7734375c2.6494140625,0,5.2490234375-.25,6.9482421875-1.1997070312v-12.7465820312h2.2998046875v21.4946289062h-2.2998046875Z"/><path class="cls-1" d="m127.5078125,195.439453125h8.6474609375v-4.19921875h-6.22265625v-1.9995117188h3.2236328125c-.349609375-.724609375-.5498046875-1.8745117188-.5498046875-2.8994140625v-2.6240234375h2.32421875v3.1489257812c0,.7250976562.1005859375,1.7495117188.2255859375,2.3745117188h4.298828125c.1494140625-.625.25-1.6494140625.25-2.3745117188v-3.1489257812h2.32421875v2.6240234375c0,1.0249023438-.2001953125,2.1748046875-.5498046875,2.8994140625h3.2490234375v1.9995117188h-6.248046875v4.19921875h8.6474609375v1.9995117188h-19.6201171875v-1.9995117188Zm2.6748046875-12.8471679688v-2.0244140625h14.2958984375v2.0244140625h-14.2958984375Z"/><path class="cls-1" d="m149.0205078125,195.5141601562h19.6201171875v1.9995117188h-19.6201171875v-1.9995117188Zm16.146484375-8.4477539062h-10.7978515625v2.82421875h11.6474609375v1.9497070312h-12.8974609375c-.6494140625,0-1.0498046875-.25-1.0498046875-.875v-10.4975585938h13.5224609375v1.974609375h-11.22265625v2.7495117188h10.7978515625v1.8745117188Z"/><path class="cls-1" d="m172.5,198.48828125h-1.349609375v-2.9741210938h2.974609375v2.6245117188l-1.349609375,4.1489257812h-1.5l1.224609375-3.7993164062Z"/><path class="cls-1" d="m186.0751953125,182.9423828125l-3.6240234375,2.0493164062-.849609375-1.7993164062,4.9736328125-2.8247070312h1.75v16.99609375h-2.25v-14.4213867188Z"/><path class="cls-1" d="m204.6162109375,188.4409179688c0,5.798828125-2.94921875,9.22265625-7.5224609375,9.22265625-2.599609375,0-4.474609375-1.3247070312-5.5244140625-2.9243164062l1.599609375-1.349609375c.80078125,1.2749023438,2.2001953125,2.1245117188,3.9248046875,2.1245117188,2.94921875,0,4.9736328125-2.224609375,5.1982421875-5.9736328125-1.0244140625,1.4248046875-2.69921875,2.4995117188-4.8232421875,2.4995117188-3.2744140625,0-5.9990234375-2.44921875-5.9990234375-5.9736328125,0-3.4741210938,2.849609375-5.9985351562,6.3486328125-5.9985351562,4.423828125,0,6.7978515625,3.3994140625,6.7978515625,8.373046875Zm-10.822265625-2.3994140625c0,2.0747070312,1.5751953125,3.8491210938,3.9990234375,3.8491210938,2.4248046875,0,3.9990234375-1.7744140625,3.9990234375-3.8491210938,0-2.07421875-1.57421875-3.82421875-3.9990234375-3.82421875-2.423828125,0-3.9990234375,1.75-3.9990234375,3.82421875Z"/><path class="cls-1" d="m206.1630859375,194.814453125l1.400390625-1.5747070312c.9248046875,1.125,2.2744140625,2.2744140625,4.4990234375,2.2744140625,2.423828125,0,4.298828125-1.4497070312,4.298828125-3.8740234375,0-2.2993164062-1.625-3.6489257812-3.849609375-3.6489257812-1.57421875,0-2.673828125.474609375-3.6240234375,1.2495117188l-1.3740234375-.474609375.0244140625-.125.8251953125-8.2734375h9.34765625v2.0498046875h-7.3486328125l-.474609375,3.9990234375c.7744140625-.3251953125,1.6748046875-.5747070312,2.7490234375-.5747070312,3.349609375,0,6.048828125,1.9995117188,6.048828125,5.7983398438,0,3.69921875-2.7998046875,6.0234375-6.623046875,6.0234375-2.974609375,0-4.82421875-1.599609375-5.8994140625-2.8491210938Z"/><path class="cls-1" d="m233.6142578125,188.4409179688c0,5.798828125-2.94921875,9.22265625-7.5224609375,9.22265625-2.599609375,0-4.474609375-1.3247070312-5.5244140625-2.9243164062l1.599609375-1.349609375c.80078125,1.2749023438,2.2001953125,2.1245117188,3.9248046875,2.1245117188,2.94921875,0,4.9736328125-2.224609375,5.1982421875-5.9736328125-1.0244140625,1.4248046875-2.69921875,2.4995117188-4.8232421875,2.4995117188-3.2744140625,0-5.9990234375-2.44921875-5.9990234375-5.9736328125,0-3.4741210938,2.849609375-5.9985351562,6.3486328125-5.9985351562,4.423828125,0,6.7978515625,3.3994140625,6.7978515625,8.373046875Zm-10.822265625-2.3994140625c0,2.0747070312,1.5751953125,3.8491210938,3.9990234375,3.8491210938,2.4248046875,0,3.9990234375-1.7744140625,3.9990234375-3.8491210938,0-2.07421875-1.57421875-3.82421875-3.9990234375-3.82421875-2.423828125,0-3.9990234375,1.75-3.9990234375,3.82421875Z"/><rect class="cls-2" width="541.6689453125" height="202.2875976562"/></g></svg>