<?xml version="1.0" encoding="UTF-8"?><svg id="_레이어_2" xmlns="http://www.w3.org/2000/svg" viewBox="0 0 541.6689453125 153.3266601562"><defs><style>.cls-1{fill:#ffe800;}.cls-2{fill:none;}</style></defs><g id="Layer_1"><path class="cls-1" d="m3.603515625,2.2783203125h13.7783203125c7.630859375,0,12.294921875,3.81640625,12.294921875,10.8642578125,0,6.9951171875-4.6640625,10.7578125-12.294921875,10.7578125h-8.9033203125v14.4140625H3.603515625V2.2783203125Zm13.1953125,17.2763671875c5.24609375,0,7.8427734375-2.1201171875,7.8427734375-6.412109375,0-4.345703125-2.5966796875-6.5185546875-7.8427734375-6.5185546875h-8.3203125v12.9306640625h8.3203125Z"/><path class="cls-1" d="m33.4580078125,11.7646484375h4.76953125v4.5576171875c1.484375-2.9150390625,4.29296875-5.140625,8.373046875-5.140625h.5830078125v4.6103515625c-4.2919921875.1064453125-7.525390625,1.8544921875-8.9560546875,5.98828125v16.5341796875h-4.76953125V11.7646484375Z"/><path class="cls-1" d="m48.419921875,25.06640625c0-7.6845703125,5.193359375-13.884765625,13.6728515625-13.884765625,8.478515625,0,13.671875,6.2001953125,13.671875,13.884765625,0,7.630859375-5.193359375,13.8837890625-13.671875,13.8837890625-8.4794921875,0-13.6728515625-6.2529296875-13.6728515625-13.8837890625Zm22.4697265625,0c0-5.830078125-3.869140625-9.5390625-8.796875-9.5390625-4.9287109375,0-8.796875,3.708984375-8.796875,9.5390625,0,5.8291015625,3.8681640625,9.5380859375,8.796875,9.5380859375,4.927734375,0,8.796875-3.708984375,8.796875-9.5380859375Z"/><path class="cls-1" d="m101.0791015625,34.5517578125c-2.0673828125,2.6494140625-5.2998046875,4.345703125-9.0625,4.345703125-7.4716796875,0-12.9833984375-5.6171875-12.9833984375-13.884765625,0-8.2138671875,5.51171875-13.8310546875,12.9833984375-13.8310546875,3.7626953125,0,6.9951171875,1.6962890625,9.0625,4.345703125V.6884765625h4.76953125v37.6259765625h-4.76953125v-3.7626953125Zm0-4.9814453125v-9.0087890625c-1.3779296875-3.0205078125-4.5048828125-5.0341796875-8.21484375-5.0341796875-4.9814453125,0-8.955078125,3.55078125-8.955078125,9.4853515625,0,5.98828125,3.9736328125,9.5390625,8.955078125,9.5390625,3.7099609375,0,6.8369140625-2.013671875,8.21484375-4.9814453125Z"/><path class="cls-1" d="m136.009765625,38.314453125h-4.76953125v-4.02734375c-1.3779296875,2.3310546875-4.29296875,4.6103515625-8.744140625,4.6103515625-6.8896484375,0-10.5458984375-4.451171875-10.5458984375-11.6591796875v-15.4736328125h4.76953125v14.9970703125c0,5.087890625,2.5439453125,7.7900390625,7.0478515625,7.7900390625,3.974609375,0,6.677734375-2.5439453125,7.47265625-5.4580078125V11.7646484375h4.76953125v26.5498046875Z"/><path class="cls-1" d="m140.7236328125,25.0126953125c0-7.630859375,5.2998046875-13.8310546875,13.56640625-13.8310546875,5.24609375,0,9.3271484375,2.5439453125,11.7119140625,6.73046875l-3.55078125,2.490234375c-1.58984375-2.9677734375-4.451171875-4.875-8.001953125-4.875-5.087890625,0-8.849609375,3.65625-8.849609375,9.4853515625,0,5.8828125,3.76171875,9.5390625,8.849609375,9.5390625,3.55078125,0,6.412109375-1.9072265625,8.001953125-4.875l3.55078125,2.490234375c-2.384765625,4.1865234375-6.4658203125,6.73046875-11.7119140625,6.73046875-8.2666015625,0-13.56640625-6.2001953125-13.56640625-13.884765625Z"/><path class="cls-1" d="m172.416015625,28.9873046875v-13.30078125h-4.6103515625v-3.921875h4.7158203125v-6.8896484375h4.6640625v6.8896484375h6.517578125v3.921875h-6.517578125v13.4599609375c0,3.921875,1.748046875,5.2998046875,5.669921875,5.2998046875h.84765625v3.9208984375c-.5830078125.1064453125-1.3779296875.2119140625-2.119140625.2119140625-6.0419921875,0-9.16796875-2.9677734375-9.16796875-9.591796875Z"/><path class="cls-1" d="m187.0703125,0h5.140625v5.7236328125h-5.140625V0Zm.2119140625,11.7646484375h4.76953125v26.5498046875h-4.76953125V11.7646484375Z"/><path class="cls-1" d="m196.6953125,25.06640625c0-7.6845703125,5.193359375-13.884765625,13.6728515625-13.884765625,8.478515625,0,13.671875,6.2001953125,13.671875,13.884765625,0,7.630859375-5.193359375,13.8837890625-13.671875,13.8837890625-8.4794921875,0-13.6728515625-6.2529296875-13.6728515625-13.8837890625Zm22.4697265625,0c0-5.830078125-3.869140625-9.5390625-8.796875-9.5390625-4.9287109375,0-8.796875,3.708984375-8.796875,9.5390625,0,5.8291015625,3.8681640625,9.5380859375,8.796875,9.5380859375,4.927734375,0,8.796875-3.708984375,8.796875-9.5380859375Z"/><path class="cls-1" d="m228.849609375,11.7646484375h4.76953125v4.02734375c1.3779296875-2.33203125,4.29296875-4.6103515625,8.744140625-4.6103515625,6.8896484375,0,10.5458984375,4.451171875,10.5458984375,11.658203125v15.474609375h-4.76953125v-14.9970703125c0-5.087890625-2.5439453125-7.7900390625-7.0478515625-7.7900390625-3.974609375,0-6.677734375,2.5439453125-7.47265625,5.4580078125v17.3291015625h-4.76953125V11.7646484375Z"/><path class="cls-1" d="m270.2421875,25.06640625c0-7.6845703125,5.193359375-13.884765625,13.6728515625-13.884765625,8.478515625,0,13.671875,6.2001953125,13.671875,13.884765625,0,7.630859375-5.193359375,13.8837890625-13.671875,13.8837890625-8.4794921875,0-13.6728515625-6.2529296875-13.6728515625-13.8837890625Zm22.4697265625,0c0-5.830078125-3.869140625-9.5390625-8.796875-9.5390625-4.9287109375,0-8.796875,3.708984375-8.796875,9.5390625,0,5.8291015625,3.8681640625,9.5380859375,8.796875,9.5380859375,4.927734375,0,8.796875-3.708984375,8.796875-9.5380859375Z"/><path class="cls-1" d="m303.3984375,15.6865234375h-4.451171875v-3.921875h4.451171875v-2.9150390625c0-4.927734375,2.9150390625-8.478515625,8.6376953125-8.478515625.6357421875,0,1.3779296875,0,1.908203125.052734375v3.974609375h-.794921875c-3.3916015625,0-4.9814453125,1.3779296875-4.9814453125,4.5048828125v2.861328125h5.7763671875v3.921875h-5.7763671875v22.6279296875h-4.76953125V15.6865234375Z"/><path class="cls-1" d="m331.328125,2.2783203125h23.8466796875v4.345703125h-18.9716796875v11.5h17.064453125v4.345703125h-17.064453125v15.8447265625h-4.875V2.2783203125Z"/><path class="cls-1" d="m358.8291015625,0h5.140625v5.7236328125h-5.140625V0Zm.2119140625,11.7646484375h4.76953125v26.5498046875h-4.76953125V11.7646484375Z"/><path class="cls-1" d="m370.0595703125,11.7646484375h4.76953125v4.5576171875c1.484375-2.9150390625,4.29296875-5.140625,8.373046875-5.140625h.5830078125v4.6103515625c-4.2919921875.1064453125-7.525390625,1.8544921875-8.9560546875,5.98828125v16.5341796875h-4.76953125V11.7646484375Z"/><path class="cls-1" d="m385.1005859375,25.06640625c0-8.21484375,5.4052734375-13.884765625,13.08984375-13.884765625,7.630859375,0,12.71875,5.669921875,12.71875,13.0361328125,0,.7421875-.1064453125,1.7490234375-.2119140625,2.4912109375h-20.7734375c.58203125,4.822265625,3.708984375,7.94921875,8.849609375,7.94921875,3.55078125,0,6.783203125-1.908203125,8.6376953125-4.6640625l2.9150390625,3.0205078125c-2.6494140625,3.55078125-6.677734375,5.935546875-11.7646484375,5.935546875-8.1083984375,0-13.4609375-5.98828125-13.4609375-13.8837890625Zm4.8759765625-2.33203125h16.1103515625c-.318359375-4.5576171875-3.6044921875-7.3662109375-7.896484375-7.3662109375-4.345703125,0-7.4716796875,2.703125-8.2138671875,7.3662109375Z"/><path class="cls-1" d="m415.6181640625,11.7646484375h4.76953125v3.7626953125c2.0673828125-2.6494140625,5.193359375-4.345703125,9.0087890625-4.345703125,7.47265625,0,12.9833984375,5.6171875,12.9833984375,13.8310546875,0,8.267578125-5.5107421875,13.884765625-12.9833984375,13.884765625-3.8154296875,0-6.94140625-1.6962890625-9.0087890625-4.29296875v13.4609375h-4.76953125V11.7646484375Zm21.88671875,13.248046875c0-5.9345703125-3.974609375-9.4853515625-8.9560546875-9.4853515625-3.708984375,0-6.783203125,1.9609375-8.1611328125,4.875v9.2744140625c1.3779296875,2.9140625,4.4521484375,4.875,8.1611328125,4.875,4.9814453125,0,8.9560546875-3.55078125,8.9560546875-9.5390625Z"/><path class="cls-1" d="m447.189453125.6884765625h4.76953125v37.6259765625h-4.76953125V.6884765625Z"/><path class="cls-1" d="m478.8134765625,34.5517578125c-2.0673828125,2.6494140625-5.2998046875,4.345703125-9.0625,4.345703125-7.4716796875,0-12.9833984375-5.6171875-12.9833984375-13.884765625,0-8.2138671875,5.51171875-13.8310546875,12.9833984375-13.8310546875,3.7626953125,0,6.9951171875,1.6962890625,9.0625,4.345703125v-3.7626953125h4.76953125v26.5498046875h-4.76953125v-3.7626953125Zm0-4.875v-9.2216796875c-1.3779296875-2.966796875-4.5048828125-4.927734375-8.21484375-4.927734375-4.9814453125,0-8.955078125,3.603515625-8.955078125,9.4853515625,0,5.935546875,3.9736328125,9.5390625,8.955078125,9.5390625,3.7099609375,0,6.8369140625-1.9609375,8.21484375-4.875Z"/><path class="cls-1" d="m488.2958984375,25.0126953125c0-7.630859375,5.2998046875-13.8310546875,13.56640625-13.8310546875,5.24609375,0,9.3271484375,2.5439453125,11.7119140625,6.73046875l-3.55078125,2.490234375c-1.58984375-2.9677734375-4.451171875-4.875-8.001953125-4.875-5.087890625,0-8.849609375,3.65625-8.849609375,9.4853515625,0,5.8828125,3.76171875,9.5390625,8.849609375,9.5390625,3.55078125,0,6.412109375-1.9072265625,8.001953125-4.875l3.55078125,2.490234375c-2.384765625,4.1865234375-6.4658203125,6.73046875-11.7119140625,6.73046875-8.2666015625,0-13.56640625-6.2001953125-13.56640625-13.884765625Z"/><path class="cls-1" d="m515.8603515625,25.06640625c0-8.21484375,5.4052734375-13.884765625,13.08984375-13.884765625,7.630859375,0,12.71875,5.669921875,12.71875,13.0361328125,0,.7421875-.1064453125,1.7490234375-.2119140625,2.4912109375h-20.7734375c.58203125,4.822265625,3.708984375,7.94921875,8.849609375,7.94921875,3.55078125,0,6.783203125-1.908203125,8.6376953125-4.6640625l2.9150390625,3.0205078125c-2.6494140625,3.55078125-6.677734375,5.935546875-11.7646484375,5.935546875-8.1083984375,0-13.4609375-5.98828125-13.4609375-13.8837890625Zm4.8759765625-2.33203125h16.1103515625c-.318359375-4.5576171875-3.6044921875-7.3662109375-7.896484375-7.3662109375-4.345703125,0-7.4716796875,2.703125-8.2138671875,7.3662109375Z"/><path class="cls-1" d="m0,87.77734375l3.4970703125-3.1259765625c2.013671875,3.4970703125,5.564453125,6.888671875,11.3935546875,6.888671875,5.51171875,0,8.373046875-2.9677734375,8.373046875-6.5185546875,0-3.232421875-2.5966796875-5.1396484375-7.0478515625-5.8291015625l-3.4443359375-.529296875c-5.98828125-.9541015625-10.015625-4.345703125-10.015625-9.6455078125,0-5.4580078125,4.556640625-10.1748046875,12.400390625-10.1748046875,5.4580078125,0,9.8037109375,2.4375,12.1884765625,5.98828125l-3.3916015625,3.1796875c-2.279296875-3.126953125-5.458984375-4.5576171875-8.8505859375-4.5576171875-4.556640625,0-7.3125,2.4384765625-7.3125,5.2470703125,0,2.861328125,2.2255859375,4.6103515625,5.7236328125,5.1396484375l3.4970703125.5302734375c7.0478515625,1.11328125,11.2880859375,4.5576171875,11.2880859375,10.439453125,0,6.4658203125-5.2470703125,11.3408203125-13.4609375,11.3408203125C6.888671875,96.150390625,2.4375,91.8046875,0,87.77734375Z"/><path class="cls-1" d="m56.8447265625,95.5146484375h-4.76953125v-4.02734375c-1.3779296875,2.33203125-4.29296875,4.6103515625-8.744140625,4.6103515625-6.8896484375,0-10.5458984375-4.451171875-10.5458984375-11.6591796875v-15.4736328125h4.76953125v14.9970703125c0,5.087890625,2.5439453125,7.7900390625,7.0478515625,7.7900390625,3.974609375,0,6.677734375-2.5439453125,7.47265625-5.4580078125v-17.3291015625h4.76953125v26.5498046875Z"/><path class="cls-1" d="m87.005859375,95.5146484375h-4.76953125v-4.02734375c-1.3779296875,2.33203125-4.29296875,4.6103515625-8.744140625,4.6103515625-6.8896484375,0-10.5458984375-4.451171875-10.5458984375-11.6591796875v-15.4736328125h4.76953125v14.9970703125c0,5.087890625,2.5439453125,7.7900390625,7.0478515625,7.7900390625,3.974609375,0,6.677734375-2.5439453125,7.47265625-5.4580078125v-17.3291015625h4.76953125v26.5498046875Z"/><path class="cls-1" d="m93.3037109375,68.96484375h4.76953125v4.5576171875c1.484375-2.9150390625,4.29296875-5.140625,8.373046875-5.140625h.5830078125v4.6103515625c-4.2919921875.1064453125-7.525390625,1.8544921875-8.9560546875,5.98828125v16.5341796875h-4.76953125v-26.5498046875Z"/><path class="cls-1" d="m108.265625,82.2666015625c0-7.6845703125,5.193359375-13.884765625,13.6728515625-13.884765625,8.478515625,0,13.671875,6.2001953125,13.671875,13.884765625,0,7.630859375-5.193359375,13.8837890625-13.671875,13.8837890625-8.4794921875,0-13.6728515625-6.2529296875-13.6728515625-13.8837890625Zm22.4697265625,0c0-5.830078125-3.869140625-9.5390625-8.796875-9.5390625-4.9287109375,0-8.796875,3.708984375-8.796875,9.5390625,0,5.8291015625,3.8681640625,9.5380859375,8.796875,9.5380859375,4.927734375,0,8.796875-3.708984375,8.796875-9.5380859375Z"/><path class="cls-1" d="m164.162109375,95.5146484375h-4.76953125v-4.02734375c-1.3779296875,2.33203125-4.29296875,4.6103515625-8.744140625,4.6103515625-6.8896484375,0-10.5458984375-4.451171875-10.5458984375-11.6591796875v-15.4736328125h4.76953125v14.9970703125c0,5.087890625,2.5439453125,7.7900390625,7.0478515625,7.7900390625,3.974609375,0,6.677734375-2.5439453125,7.47265625-5.4580078125v-17.3291015625h4.76953125v26.5498046875Z"/><path class="cls-1" d="m170.4599609375,68.96484375h4.76953125v4.02734375c1.3779296875-2.33203125,4.29296875-4.6103515625,8.744140625-4.6103515625,6.8896484375,0,10.5458984375,4.451171875,10.5458984375,11.658203125v15.474609375h-4.76953125v-14.9970703125c0-5.087890625-2.5439453125-7.7900390625-7.0478515625-7.7900390625-3.974609375,0-6.677734375,2.5439453125-7.47265625,5.4580078125v17.3291015625h-4.76953125v-26.5498046875Z"/><path class="cls-1" d="m221.056640625,91.751953125c-2.0673828125,2.6494140625-5.2998046875,4.345703125-9.0625,4.345703125-7.4716796875,0-12.9833984375-5.6171875-12.9833984375-13.884765625,0-8.2138671875,5.51171875-13.8310546875,12.9833984375-13.8310546875,3.7626953125,0,6.9951171875,1.6953125,9.0625,4.345703125v-14.8388671875h4.7685546875v37.6259765625h-4.7685546875v-3.7626953125Zm0-4.9814453125v-9.0087890625c-1.3779296875-3.0205078125-4.5048828125-5.0341796875-8.21484375-5.0341796875-4.9814453125,0-8.955078125,3.55078125-8.955078125,9.4853515625,0,5.98828125,3.9736328125,9.5390625,8.955078125,9.5390625,3.7099609375,0,6.8369140625-2.013671875,8.21484375-4.9814453125Z"/><path class="cls-1" d="m229.517578125,90.5859375l3.0732421875-3.232421875c1.6435546875,2.4375,4.716796875,4.451171875,8.21484375,4.451171875,3.4443359375,0,6.146484375-1.3779296875,6.146484375-4.1328125,0-2.1201171875-2.013671875-3.2861328125-5.24609375-3.7626953125l-2.33203125-.37109375c-4.7158203125-.7421875-7.7900390625-3.126953125-7.7900390625-7.3662109375,0-4.1865234375,3.4453125-7.7900390625,9.857421875-7.7900390625,4.080078125,0,7.3125,1.8017578125,9.2734375,4.29296875l-2.9677734375,3.232421875c-1.6953125-2.013671875-3.8154296875-3.1796875-6.412109375-3.1796875-3.28515625,0-4.875,1.58984375-4.875,3.3388671875,0,1.8017578125,1.4833984375,2.7021484375,3.921875,3.0732421875l2.3837890625.37109375c5.7763671875.84765625,9.0625,3.55078125,9.0625,8.0546875,0,4.76953125-4.1865234375,8.5849609375-11.12890625,8.5849609375-5.0869140625,0-8.9560546875-2.5966796875-11.181640625-5.564453125Z"/><path class="cls-1" d="m259.1279296875,97.8994140625h-2.8623046875v-6.306640625h6.306640625v5.564453125l-2.8623046875,8.796875h-3.1787109375l2.5966796875-8.0546875Z"/><path class="cls-1" d="m279.583984375,91.8046875c4.5048828125-9.1142578125,19.025390625-13.0888671875,19.025390625-21.568359375,0-3.9208984375-2.384765625-6.8359375-7.3662109375-6.8359375-3.7626953125,0-6.25390625,1.9609375-7.47265625,5.669921875l-3.8154296875-2.013671875c1.21875-3.708984375,4.5576171875-8.2138671875,11.447265625-8.2138671875,7.630859375,0,12.1884765625,4.716796875,12.1884765625,11.234375,0,11.076171875-14.361328125,15.2099609375-17.5947265625,21.091796875h18.177734375v4.345703125h-24.58984375v-3.7099609375Z"/><path class="cls-1" d="m307.609375,77.4970703125c0-11.076171875,5.1943359375-18.654296875,14.626953125-18.654296875s14.6259765625,7.578125,14.6259765625,18.654296875c0,11.0751953125-5.193359375,18.6533203125-14.6259765625,18.6533203125s-14.626953125-7.578125-14.626953125-18.6533203125Zm24.271484375,0c0-8.267578125-2.9140625-14.0966796875-9.64453125-14.0966796875s-9.6455078125,5.8291015625-9.6455078125,14.0966796875c0,8.2666015625,2.9150390625,14.095703125,9.6455078125,14.095703125s9.64453125-5.8291015625,9.64453125-14.095703125Z"/><path class="cls-1" d="m347.8359375,64.9375l-7.68359375,4.345703125-1.8017578125-3.81640625,10.5458984375-5.98828125h3.708984375v36.0361328125h-4.76953125v-30.5771484375Z"/><path class="cls-1" d="m360.216796875,95.35546875l15.3154296875-31.53125h-19.130859375v-4.345703125h24.5361328125v3.6572265625l-15.3681640625,32.37890625h-5.3525390625v-.1591796875Z"/><path class="cls-1" d="m15.3686523438,142.6791992188v-3.1494140625h-4.3740234375v1.974609375H2.1713867188c-.6494140625,0-1.0244140625-.25-1.0244140625-.8745117188v-9.7729492188h2.2490234375v3.32421875h5.3740234375v-3.32421875h2.224609375v2.1997070312h4.3740234375v-3.3740234375h2.298828125v12.9965820312h-2.298828125Zm-6.5986328125-3.1494140625v-3.3740234375H3.3959960938v3.3740234375h5.3740234375Zm6.5986328125,11.8720703125v-5.2734375H3.9213867188v-1.9995117188h13.74609375v7.2729492188h-2.298828125Zm-4.3740234375-13.8461914062h4.3740234375v-2.4995117188h-4.3740234375v2.4995117188Z"/><path class="cls-1" d="m35.0190429688,145.3784179688v-6.0981445312c-2.0244140625,1.2993164062-5.1484375,1.4995117188-8.3984375,1.4995117188h-4.2490234375c-.6494140625,0-1.0244140625-.25-1.0244140625-.875v-8.8725585938h2.2998046875v7.748046875h4.4482421875c2.5751953125,0,5.224609375-.2250976562,6.923828125-1.1997070312v-7.8979492188h2.2998046875v6.0483398438h3.19921875v2.0244140625h-3.19921875v7.623046875h-2.2998046875Zm-10.59765625-1.8994140625h2.2998046875v5.6484375h11.3974609375v2.0249023438h-12.6474609375c-.6494140625,0-1.0498046875-.2749023438-1.0498046875-.8999023438v-6.7734375Z"/><path class="cls-1" d="m40.5825195313,146.6030273438h8.6474609375v-3.8237304688h-4.548828125c-.6494140625,0-1.0498046875-.25-1.0498046875-.875v-5.7236328125h11.22265625v-2.7241210938h-11.22265625v-1.9497070312h13.5224609375v6.5483398438h-11.22265625v2.7993164062h11.6474609375v1.9248046875h-6.0234375v3.8237304688h8.6474609375v2h-19.6201171875v-2Z"/><path class="cls-1" d="m79.3793945313,142.1293945312c-2.7236328125-1.0498046875-4.6484375-3.1240234375-5.173828125-5.2485351562-.57421875,2.2993164062-2.4736328125,4.5239257812-5.3232421875,5.6982421875-.375-.599609375-.75-1.2495117188-1.125-1.8745117188,3.4248046875-1.4497070312,5.19921875-4.2236328125,5.19921875-7.9228515625v-2.0747070312h2.32421875v1.8745117188c0,3.69921875,1.6748046875,6.1987304688,5.173828125,7.6982421875l-1.0751953125,1.849609375Zm-6.873046875,1.599609375h2.2998046875v5.3984375h11.4970703125v2.0249023438h-12.7470703125c-.6494140625,0-1.0498046875-.2749023438-1.0498046875-.8999023438v-6.5234375Zm10.84765625,1.7744140625v-9.3227539062h-4.6240234375v-2.0244140625h4.6240234375v-4.4736328125h2.298828125v15.8208007812h-2.298828125Z"/><path class="cls-1" d="m96.8881835938,130.9072265625h2.2490234375v10.9970703125h-8.9482421875c-.6494140625,0-1.0244140625-.25-1.0244140625-.8745117188v-10.1225585938h2.25v3.4990234375h5.4736328125v-3.4990234375Zm0,9.0224609375v-3.548828125h-5.4736328125v3.548828125h5.4736328125Zm-4.6494140625,4.0493164062h2.2998046875v5.1484375h11.3974609375v2.0249023438h-12.6474609375c-.6494140625,0-1.0498046875-.2749023438-1.0498046875-.8999023438v-6.2734375Zm10.59765625,1.7744140625v-16.0708007812h2.2998046875v6.248046875h3.19921875v2.0249023438h-3.19921875v7.7978515625h-2.2998046875Z"/><path class="cls-1" d="m115.9399414063,131.931640625h8.6474609375v2.0249023438h-3.1494140625v1.3994140625c0,4.0991210938,1.025390625,6.4736328125,4.07421875,8.5727539062-.4248046875.5502929688-.849609375,1.1000976562-1.2490234375,1.6499023438-2-1.3247070312-3.44921875-3.0991210938-3.8740234375-4.8491210938-.400390625,1.9248046875-1.900390625,3.9741210938-3.9990234375,5.3740234375l-1.25-1.6748046875c3.0244140625-2.1245117188,4.048828125-4.673828125,4.048828125-8.8227539062v-1.6494140625h-3.2490234375v-2.0249023438Zm7.873046875,5.1987304688h3.1494140625v-7.0732421875h2.19921875v20.4951171875h-2.19921875v-11.3969726562h-3.1494140625v-2.0249023438Zm7.748046875,14.046875v-21.4946289062h2.224609375v21.4946289062h-2.224609375Z"/><path class="cls-1" d="m137.0903320313,131.0571289062h10.8720703125v2.0244140625h-4.2490234375c.224609375,3.19921875,1.724609375,5.5234375,5.1240234375,6.9731445312l-1.099609375,1.8247070312c-2.6748046875-1.1245117188-4.4990234375-2.8994140625-5.099609375-4.8989257812-.6494140625,2.1245117188-2.423828125,4.0493164062-5.3232421875,5.3486328125-.375-.599609375-.75-1.224609375-1.099609375-1.8491210938,3.4736328125-1.5,4.923828125-4.07421875,5.1240234375-7.3984375h-4.2490234375v-2.0244140625Zm14.0712890625,20.3447265625v-5.2734375h-11.197265625v-1.9995117188h13.4970703125v7.2729492188h-2.2998046875Zm0-8.72265625v-12.9965820312h2.2998046875v5.4985351562h3.19921875v2.0244140625h-3.19921875v5.4736328125h-2.2998046875Z"/><path class="cls-1" d="m158.9243164063,149.52734375h-1.349609375v-2.9741210938h2.974609375v2.6245117188l-1.349609375,4.1489257812h-1.5l1.224609375-3.7993164062Z"/><path class="cls-1" d="m168.8256835938,146.6533203125c2.1240234375-4.298828125,8.97265625-6.1733398438,8.97265625-10.1723632812,0-1.849609375-1.125-3.224609375-3.474609375-3.224609375-1.7744140625,0-2.94921875.9248046875-3.5234375,2.6743164062l-1.7998046875-.9497070312c.5751953125-1.7495117188,2.1494140625-3.8740234375,5.3984375-3.8740234375,3.599609375,0,5.7490234375,2.224609375,5.7490234375,5.298828125,0,5.2236328125-6.7734375,7.1733398438-8.2978515625,9.9477539062h8.572265625v2.0493164062h-11.5966796875v-1.7495117188Z"/><path class="cls-1" d="m182.3793945313,139.9047851562c0-5.2236328125,2.44921875-8.7978515625,6.8984375-8.7978515625,4.4482421875,0,6.8984375,3.57421875,6.8984375,8.7978515625s-2.4501953125,8.7978515625-6.8984375,8.7978515625c-4.44921875,0-6.8984375-3.57421875-6.8984375-8.7978515625Zm11.447265625,0c0-3.8989257812-1.375-6.6484375-4.548828125-6.6484375-3.1748046875,0-4.548828125,2.7495117188-4.548828125,6.6484375,0,3.8994140625,1.3740234375,6.6484375,4.548828125,6.6484375,3.173828125,0,4.548828125-2.7490234375,4.548828125-6.6484375Z"/><path class="cls-1" d="m201.6850585938,133.9814453125l-3.6240234375,2.0493164062-.849609375-1.7993164062,4.9736328125-2.8247070312h1.7490234375v16.99609375h-2.2490234375v-14.4213867188Z"/><path class="cls-1" d="m207.8657226563,148.3276367188l7.22265625-14.87109375h-9.0224609375v-2.0498046875h11.572265625v1.724609375l-7.248046875,15.271484375h-2.5244140625v-.0751953125Z"/><rect class="cls-2" width="541.6689453125" height="153.3266601562"/></g></svg>