<?xml version="1.0" encoding="UTF-8"?><svg id="_레이어_2" xmlns="http://www.w3.org/2000/svg" viewBox="0 0 541.6689453125 128.7960205078"><defs><style>.cls-1{fill:#ffe800;}.cls-2{fill:none;}</style></defs><g id="Layer_1"><path class="cls-1" d="m2.6123046875,1.7197265625h3.6796875v11.837890625h15.63671875V1.7197265625h3.6796875v27.1953125h-3.6796875v-12.078125H6.2919921875v12.078125h-3.6796875V1.7197265625Z"/><path class="cls-1" d="m29.9931640625,18.9169921875c0-5.798828125,3.919921875-10.478515625,10.318359375-10.478515625s10.318359375,4.6796875,10.318359375,10.478515625c0,5.7587890625-3.919921875,10.4775390625-10.318359375,10.4775390625s-10.318359375-4.71875-10.318359375-10.4775390625Zm16.95703125,0c0-4.3994140625-2.919921875-7.19921875-6.638671875-7.19921875-3.720703125,0-6.638671875,2.7998046875-6.638671875,7.19921875s2.91796875,7.1982421875,6.638671875,7.1982421875c3.71875,0,6.638671875-2.798828125,6.638671875-7.1982421875Z"/><path class="cls-1" d="m83.1162109375,17.5966796875c0-3.8388671875-1.83984375-5.87890625-5.240234375-5.87890625-2.958984375,0-4.87890625,1.919921875-5.517578125,4.119140625v13.078125h-3.599609375v-11.318359375c0-3.8388671875-1.83984375-5.87890625-5.240234375-5.87890625-2.958984375,0-4.91796875,1.919921875-5.517578125,4.119140625v13.078125h-3.599609375V8.8779296875h3.599609375v3.0400390625c1.0390625-1.759765625,3.158203125-3.4794921875,6.517578125-3.4794921875,3.439453125,0,5.759765625,1.4794921875,6.919921875,4.0791015625,1.318359375-2.3994140625,3.91796875-4.0791015625,7.4375-4.0791015625,5.16015625,0,7.83984375,3.359375,7.83984375,8.798828125v11.677734375h-3.599609375v-11.318359375Z"/><path class="cls-1" d="m90.3291015625,18.9169921875c0-6.19921875,4.078125-10.478515625,9.87890625-10.478515625,5.7578125,0,9.59765625,4.279296875,9.59765625,9.837890625,0,.560546875-.080078125,1.3203125-.16015625,1.8798828125h-15.677734375c.439453125,3.6396484375,2.80078125,5.9990234375,6.6796875,5.9990234375,2.6796875,0,5.119140625-1.439453125,6.517578125-3.51953125l2.201171875,2.2802734375c-2,2.6796875-5.0390625,4.478515625-8.87890625,4.478515625-6.119140625,0-10.158203125-4.5185546875-10.158203125-10.4775390625Zm3.6796875-1.759765625h12.158203125c-.240234375-3.439453125-2.720703125-5.5595703125-5.958984375-5.5595703125-3.28125,0-5.640625,2.0400390625-6.19921875,5.5595703125Z"/><path class="cls-1" d="m120.8876953125,23.076171875l2.640625-2.359375c1.51953125,2.6396484375,4.19921875,5.19921875,8.59765625,5.19921875,4.16015625,0,6.3203125-2.240234375,6.3203125-4.919921875,0-2.439453125-1.9609375-3.87890625-5.3203125-4.3994140625l-2.599609375-.3994140625c-4.51953125-.7197265625-7.55859375-3.279296875-7.55859375-7.279296875,0-4.119140625,3.439453125-7.6787109375,9.359375-7.6787109375,4.119140625,0,7.3984375,1.83984375,9.197265625,4.51953125l-2.55859375,2.3994140625c-1.720703125-2.359375-4.119140625-3.439453125-6.6796875-3.439453125-3.439453125,0-5.51953125,1.83984375-5.51953125,3.9599609375,0,2.1591796875,1.6796875,3.4794921875,4.3203125,3.87890625l2.638671875.400390625c5.3203125.83984375,8.51953125,3.439453125,8.51953125,7.8779296875,0,4.8798828125-3.958984375,8.55859375-10.158203125,8.55859375-6,0-9.359375-3.279296875-11.19921875-6.318359375Z"/><path class="cls-1" d="m146.6630859375,21.8759765625v-10.0380859375h-3.478515625v-2.9599609375h3.55859375V3.6796875h3.51953125v5.1982421875h4.919921875v2.9599609375h-4.919921875v10.158203125c0,2.9599609375,1.3203125,3.9990234375,4.279296875,3.9990234375h.640625v2.9599609375c-.439453125.080078125-1.041015625.16015625-1.599609375.16015625-4.560546875,0-6.919921875-2.240234375-6.919921875-7.2392578125Z"/><path class="cls-1" d="m156.4189453125,18.9169921875c0-5.798828125,3.919921875-10.478515625,10.318359375-10.478515625,6.400390625,0,10.318359375,4.6796875,10.318359375,10.478515625,0,5.7587890625-3.91796875,10.4775390625-10.318359375,10.4775390625-6.3984375,0-10.318359375-4.71875-10.318359375-10.4775390625Zm16.95703125,0c0-4.3994140625-2.91796875-7.19921875-6.638671875-7.19921875-3.71875,0-6.638671875,2.7998046875-6.638671875,7.19921875s2.919921875,7.1982421875,6.638671875,7.1982421875c3.720703125,0,6.638671875-2.798828125,6.638671875-7.1982421875Z"/><path class="cls-1" d="m180.8271484375,8.8779296875h3.599609375v3.439453125c1.119140625-2.19921875,3.240234375-3.87890625,6.318359375-3.87890625h.44140625v3.4794921875c-3.240234375.080078125-5.6796875,1.3994140625-6.759765625,4.51953125v12.4775390625h-3.599609375V8.8779296875Z"/><path class="cls-1" d="m193.6669921875,0h3.87890625v4.3193359375h-3.87890625V0Zm.16015625,8.8779296875h3.599609375v20.037109375h-3.599609375V8.8779296875Z"/><path class="cls-1" d="m201.0947265625,18.9169921875c0-6.19921875,4.080078125-10.478515625,9.87890625-10.478515625,5.759765625,0,9.59765625,4.279296875,9.59765625,9.837890625,0,.560546875-.080078125,1.3203125-.158203125,1.8798828125h-15.677734375c.439453125,3.6396484375,2.798828125,5.9990234375,6.677734375,5.9990234375,2.6796875,0,5.119140625-1.439453125,6.51953125-3.51953125l2.19921875,2.2802734375c-2,2.6796875-5.0390625,4.478515625-8.87890625,4.478515625-6.119140625,0-10.158203125-4.5185546875-10.158203125-10.4775390625Zm3.6796875-1.759765625h12.158203125c-.240234375-3.439453125-2.71875-5.5595703125-5.958984375-5.5595703125-3.279296875,0-5.638671875,2.0400390625-6.19921875,5.5595703125Z"/><path class="cls-1" d="m222.4111328125,25.1953125l2.3203125-2.439453125c1.240234375,1.83984375,3.55859375,3.359375,6.19921875,3.359375,2.599609375,0,4.638671875-1.0390625,4.638671875-3.119140625,0-1.599609375-1.51953125-2.4794921875-3.958984375-2.83984375l-1.759765625-.279296875c-3.55859375-.560546875-5.87890625-2.3603515625-5.87890625-5.5595703125,0-3.1591796875,2.599609375-5.87890625,7.439453125-5.87890625,3.078125,0,5.517578125,1.359375,6.998046875,3.2392578125l-2.240234375,2.439453125c-1.279296875-1.51953125-2.87890625-2.3994140625-4.837890625-2.3994140625-2.48046875,0-3.6796875,1.2001953125-3.6796875,2.51953125,0,1.3603515625,1.119140625,2.0400390625,2.958984375,2.3193359375l1.798828125.2802734375c4.359375.6396484375,6.83984375,2.6796875,6.83984375,6.0791015625,0,3.599609375-3.16015625,6.478515625-8.3984375,6.478515625-3.83984375,0-6.759765625-1.958984375-8.439453125-4.19921875Z"/><path class="cls-1" d="m2.6123046875,46.919921875h4.919921875l9.638671875,22.4765625,9.638671875-22.4765625h4.91796875v27.1953125h-3.6796875v-21.5166015625l-9.197265625,21.5166015625h-3.359375l-9.19921875-21.5166015625v21.5166015625h-3.6796875v-27.1953125Z"/><path class="cls-1" d="m52.8427734375,71.275390625c-1.560546875,2-4,3.279296875-6.83984375,3.279296875-5.638671875,0-9.798828125-4.2392578125-9.798828125-10.4775390625,0-6.19921875,4.16015625-10.4384765625,9.798828125-10.4384765625,2.83984375,0,5.279296875,1.279296875,6.83984375,3.279296875v-2.83984375h3.59765625v20.037109375h-3.59765625v-2.83984375Zm0-3.6787109375v-6.958984375c-1.041015625-2.240234375-3.400390625-3.7197265625-6.19921875-3.7197265625-3.759765625,0-6.759765625,2.7197265625-6.759765625,7.1591796875,0,4.4794921875,3,7.1982421875,6.759765625,7.1982421875,2.798828125,0,5.158203125-1.4794921875,6.19921875-3.6787109375Z"/><path class="cls-1" d="m61.3369140625,45.7197265625h3.599609375v17.8369140625l9.357421875-9.478515625h4.240234375v.16015625l-8,8.1591796875,9.119140625,11.59765625v.1201171875h-4.3203125l-7.158203125-9.318359375-3.23828125,3.3193359375v5.9990234375h-3.599609375v-28.3955078125Z"/><path class="cls-1" d="m81.7158203125,45.2001953125h3.87890625v4.3193359375h-3.87890625v-4.3193359375Zm.16015625,8.8779296875h3.599609375v20.037109375h-3.599609375v-20.037109375Z"/><path class="cls-1" d="m90.3408203125,54.078125h3.599609375v3.0400390625c1.0390625-1.759765625,3.23828125-3.4794921875,6.59765625-3.4794921875,5.19921875,0,7.958984375,3.359375,7.958984375,8.798828125v11.677734375h-3.599609375v-11.318359375c0-3.8388671875-1.919921875-5.87890625-5.318359375-5.87890625-3,0-5.0390625,1.919921875-5.638671875,4.119140625v13.078125h-3.599609375v-20.037109375Z"/><path class="cls-1" d="m111.9755859375,63.3974609375c0-5.7998046875,3.759765625-9.7587890625,9.359375-9.7587890625,2.83984375,0,5.0390625,1.240234375,6.55859375,3.1591796875v-2.7197265625h3.599609375v17.3974609375c0,6.9189453125-4.71875,10.4384765625-9.958984375,10.4384765625-4.3984375,0-7.4375-1.759765625-9.1171875-4.4794921875l2.359375-2.19921875c1.439453125,2.1591796875,3.638671875,3.3994140625,6.638671875,3.3994140625,3.478515625,0,6.478515625-2.2001953125,6.478515625-6.9189453125v-1.6396484375c-1.51953125,1.9189453125-3.759765625,3.119140625-6.55859375,3.119140625-5.599609375,0-9.359375-3.958984375-9.359375-9.7978515625Zm15.91796875,2.958984375v-5.87890625c-1.0390625-2.1591796875-3.19921875-3.5595703125-5.83984375-3.5595703125-3.798828125,0-6.3984375,2.6396484375-6.3984375,6.4794921875,0,3.87890625,2.599609375,6.5185546875,6.3984375,6.5185546875,2.640625,0,4.80078125-1.3994140625,5.83984375-3.5595703125Z"/><path class="cls-1" d="m144.7744140625,64.1171875c0-5.798828125,3.919921875-10.478515625,10.318359375-10.478515625,6.400390625,0,10.318359375,4.6796875,10.318359375,10.478515625,0,5.7587890625-3.91796875,10.4775390625-10.318359375,10.4775390625-6.3984375,0-10.318359375-4.71875-10.318359375-10.4775390625Zm16.95703125,0c0-4.3994140625-2.91796875-7.19921875-6.638671875-7.19921875-3.71875,0-6.638671875,2.7998046875-6.638671875,7.19921875s2.919921875,7.1982421875,6.638671875,7.1982421875c3.720703125,0,6.638671875-2.798828125,6.638671875-7.1982421875Z"/><path class="cls-1" d="m169.9580078125,57.0380859375h-3.359375v-2.9599609375h3.359375v-2.19921875c0-3.7197265625,2.19921875-6.3984375,6.51953125-6.3984375.48046875,0,1.0390625,0,1.439453125.0400390625v2.9990234375h-.599609375c-2.560546875,0-3.759765625,1.0400390625-3.759765625,3.3994140625v2.1591796875h4.359375v2.9599609375h-4.359375v17.0771484375h-3.599609375v-17.0771484375Z"/><path class="cls-1" d="m191.0380859375,46.919921875h18.435546875v3.279296875h-14.755859375v8.55859375h12.91796875v3.279296875h-12.91796875v8.798828125h14.755859375v3.279296875h-18.435546875v-27.1953125Z"/><path class="cls-1" d="m211.7021484375,73.9951171875l7.359375-10.1181640625-6.958984375-9.638671875v-.16015625h4.078125l5.279296875,7.439453125,5.279296875-7.439453125h4.119140625v.16015625l-6.958984375,9.638671875,7.359375,10.1181640625v.1201171875h-4.119140625l-5.6796875-7.9189453125-5.638671875,7.9189453125h-4.119140625v-.1201171875Z"/><path class="cls-1" d="m233.8251953125,45.7197265625h3.599609375v11.478515625c1.0390625-1.759765625,3.240234375-3.5595703125,6.599609375-3.5595703125,5.19921875,0,7.95703125,3.359375,7.95703125,8.798828125v11.677734375h-3.59765625v-11.318359375c0-3.8388671875-1.919921875-5.87890625-5.3203125-5.87890625-3.3984375,0-5.23828125,2.51953125-5.638671875,4.119140625v13.078125h-3.599609375v-28.3955078125Z"/><path class="cls-1" d="m256.5009765625,45.2001953125h3.87890625v4.3193359375h-3.87890625v-4.3193359375Zm.16015625,8.8779296875h3.599609375v20.037109375h-3.599609375v-20.037109375Z"/><path class="cls-1" d="m268.7255859375,74.115234375h-3.599609375v-28.3955078125h3.599609375v11.1982421875c1.55859375-2,3.998046875-3.279296875,6.837890625-3.279296875,5.638671875,0,9.798828125,4.2392578125,9.798828125,10.4384765625,0,6.23828125-4.16015625,10.4775390625-9.798828125,10.4775390625-2.83984375,0-5.279296875-1.279296875-6.837890625-3.279296875v2.83984375Zm12.95703125-10.0380859375c0-4.4794921875-3-7.1591796875-6.759765625-7.1591796875-2.798828125,0-5.158203125,1.51953125-6.197265625,3.7998046875v6.798828125c1.0390625,2.2392578125,3.3984375,3.7587890625,6.197265625,3.7587890625,3.759765625,0,6.759765625-2.6796875,6.759765625-7.1982421875Z"/><path class="cls-1" d="m288.9365234375,45.2001953125h3.87890625v4.3193359375h-3.87890625v-4.3193359375Zm.16015625,8.8779296875h3.599609375v20.037109375h-3.599609375v-20.037109375Z"/><path class="cls-1" d="m298.8330078125,67.076171875v-10.0380859375h-3.48046875v-2.9599609375h3.560546875v-5.1982421875h3.51953125v5.1982421875h4.91796875v2.9599609375h-4.91796875v10.158203125c0,2.9599609375,1.318359375,3.9990234375,4.279296875,3.9990234375h.638671875v2.9599609375c-.439453125.080078125-1.0390625.16015625-1.599609375.16015625-4.55859375,0-6.91796875-2.240234375-6.91796875-7.2392578125Z"/><path class="cls-1" d="m310.0400390625,45.2001953125h3.87890625v4.3193359375h-3.87890625v-4.3193359375Zm.16015625,8.8779296875h3.599609375v20.037109375h-3.599609375v-20.037109375Z"/><path class="cls-1" d="m317.4482421875,64.1171875c0-5.798828125,3.919921875-10.478515625,10.318359375-10.478515625,6.400390625,0,10.318359375,4.6796875,10.318359375,10.478515625,0,5.7587890625-3.91796875,10.4775390625-10.318359375,10.4775390625-6.3984375,0-10.318359375-4.71875-10.318359375-10.4775390625Zm16.95703125,0c0-4.3994140625-2.91796875-7.19921875-6.638671875-7.19921875-3.71875,0-6.638671875,2.7998046875-6.638671875,7.19921875s2.919921875,7.1982421875,6.638671875,7.1982421875c3.720703125,0,6.638671875-2.798828125,6.638671875-7.1982421875Z"/><path class="cls-1" d="m341.8564453125,54.078125h3.599609375v3.0400390625c1.0390625-1.759765625,3.23828125-3.4794921875,6.59765625-3.4794921875,5.19921875,0,7.958984375,3.359375,7.958984375,8.798828125v11.677734375h-3.599609375v-11.318359375c0-3.8388671875-1.919921875-5.87890625-5.318359375-5.87890625-3,0-5.0390625,1.919921875-5.638671875,4.119140625v13.078125h-3.599609375v-20.037109375Z"/><path class="cls-1" d="m371.8955078125,46.919921875h3.87890625l9.0390625,22.916015625,8.998046875-22.916015625h3.87890625l-10.796875,27.1953125h-4.16015625l-10.837890625-27.1953125Z"/><path class="cls-1" d="m400.2255859375,45.2001953125h3.87890625v4.3193359375h-3.87890625v-4.3193359375Zm.16015625,8.8779296875h3.599609375v20.037109375h-3.599609375v-20.037109375Z"/><path class="cls-1" d="m424.2724609375,71.275390625c-1.560546875,2-4,3.279296875-6.83984375,3.279296875-5.638671875,0-9.798828125-4.2392578125-9.798828125-10.4775390625,0-6.19921875,4.16015625-10.4384765625,9.798828125-10.4384765625,2.83984375,0,5.279296875,1.279296875,6.83984375,3.279296875v-11.1982421875h3.59765625v28.3955078125h-3.59765625v-2.83984375Zm0-3.7587890625v-6.798828125c-1.041015625-2.2802734375-3.400390625-3.7998046875-6.19921875-3.7998046875-3.759765625,0-6.759765625,2.6796875-6.759765625,7.1591796875,0,4.5185546875,3,7.1982421875,6.759765625,7.1982421875,2.798828125,0,5.158203125-1.51953125,6.19921875-3.7587890625Z"/><path class="cls-1" d="m431.6572265625,64.1171875c0-6.19921875,4.080078125-10.478515625,9.87890625-10.478515625,5.759765625,0,9.59765625,4.279296875,9.59765625,9.837890625,0,.560546875-.080078125,1.3203125-.158203125,1.8798828125h-15.677734375c.439453125,3.6396484375,2.798828125,5.9990234375,6.677734375,5.9990234375,2.6796875,0,5.119140625-1.439453125,6.51953125-3.51953125l2.19921875,2.2802734375c-2,2.6796875-5.0390625,4.478515625-8.87890625,4.478515625-6.119140625,0-10.158203125-4.5185546875-10.158203125-10.4775390625Zm3.6796875-1.759765625h12.158203125c-.240234375-3.439453125-2.71875-5.5595703125-5.958984375-5.5595703125-3.279296875,0-5.638671875,2.0400390625-6.19921875,5.5595703125Z"/><path class="cls-1" d="m453.5693359375,64.1171875c0-5.798828125,3.919921875-10.478515625,10.318359375-10.478515625,6.400390625,0,10.318359375,4.6796875,10.318359375,10.478515625,0,5.7587890625-3.91796875,10.4775390625-10.318359375,10.4775390625-6.3984375,0-10.318359375-4.71875-10.318359375-10.4775390625Zm16.95703125,0c0-4.3994140625-2.91796875-7.19921875-6.638671875-7.19921875-3.71875,0-6.638671875,2.7998046875-6.638671875,7.19921875s2.919921875,7.1982421875,6.638671875,7.1982421875c3.720703125,0,6.638671875-2.798828125,6.638671875-7.1982421875Z"/><path class="cls-1" d="m.8740234375,107.7075195313h10.7724609375v2.0244140625h-4.2236328125v.5c0,3.1245117188,1.5498046875,5.5239257812,5.0986328125,6.9736328125l-1.0244140625,1.82421875c-2.6748046875-.9995117188-4.548828125-2.9990234375-5.1240234375-4.9985351562-.625,2.1494140625-2.44921875,4.2490234375-5.3232421875,5.4487304688-.375-.625-.7001953125-1.2250976562-1.0498046875-1.849609375,3.423828125-1.3999023438,5.0986328125-4.1743164062,5.0986328125-7.2983398438v-.6000976562H.8740234375v-2.0244140625Zm3.7744140625,12.8720703125h2.2998046875v5.1484375h11.4970703125v2.0249023438H5.6982421875c-.6494140625,0-1.0498046875-.2749023438-1.0498046875-.8999023438v-6.2734375Zm10.84765625,1.7744140625v-8.1728515625h-4.2744140625v-1.9995117188h4.2744140625v-5.8984375h2.298828125v16.0708007812h-2.298828125Z"/><path class="cls-1" d="m32.2646484375,122.279296875c-2.5498046875-1.2749023438-4.57421875-3.6245117188-5.19921875-5.7490234375-.6494140625,2.3247070312-2.5986328125,4.69921875-5.3232421875,6.1235351562-.400390625-.6245117188-.7998046875-1.2495117188-1.1748046875-1.8745117188,3.7744140625-2.0991210938,5.2734375-5.1987304688,5.2734375-9.09765625v-3.6743164062h2.32421875v3.5244140625c0,3.923828125,1.5498046875,6.873046875,5.2744140625,8.84765625l-1.1748046875,1.8999023438Zm3.7236328125,5.4985351562v-21.4946289062h2.2998046875v21.4946289062h-2.2998046875Z"/><path class="cls-1" d="m59.5146484375,127.1528320313v-11.197265625h-2.6494140625v5.6484375h-7.1728515625c-.650390625,0-1.025390625-.2749023438-1.025390625-.8994140625v-12.197265625h8.1982421875v5.423828125h2.6494140625v-7.2734375h2.19921875v20.4951171875h-2.19921875Zm-4.82421875-7.5478515625v-9.0981445312h-3.8486328125v9.0981445312h3.8486328125Zm9.373046875,8.1728515625v-21.4946289062h2.224609375v21.4946289062h-2.224609375Z"/><path class="cls-1" d="m74.8427734375,122.3291015625c-4.048828125,0-5.5986328125-3.57421875-5.5986328125-7.1235351562,0-3.548828125,1.5498046875-7.123046875,5.5986328125-7.123046875,4.07421875,0,5.5986328125,3.57421875,5.5986328125,7.123046875,0,3.5493164062-1.5244140625,7.1235351562-5.5986328125,7.1235351562Zm0-1.9995117188c2.3994140625,0,3.32421875-2.724609375,3.32421875-5.1240234375s-.9248046875-5.1235351562-3.32421875-5.1235351562c-2.3740234375,0-3.298828125,2.7241210938-3.298828125,5.1235351562s.9248046875,5.1240234375,3.298828125,5.1240234375Zm8.9228515625,7.4482421875v-21.4946289062h2.2998046875v21.4946289062h-2.2998046875Z"/><path class="cls-1" d="m89.1318359375,116.8051757813c3.099609375-.6245117188,5.7236328125-1.7993164062,7.22265625-3.6240234375-1.1240234375.4501953125-2.6484375.4501953125-4.0986328125.4501953125h-2.6240234375v-1.8999023438h7.5732421875c.25-.599609375.4248046875-1.4243164062.4248046875-2.1743164062h-7.423828125v-1.9995117188h9.748046875v1.0249023438c0,5.9736328125-3.8740234375,8.84765625-10.1474609375,10.1474609375l-.6748046875-1.9248046875Zm4.2236328125,7.0986328125c0-2.6743164062,2.349609375-4.5991210938,6.548828125-4.5991210938s6.5234375,1.9248046875,6.5234375,4.5991210938c0,2.6494140625-2.32421875,4.548828125-6.5234375,4.548828125s-6.548828125-1.8994140625-6.548828125-4.548828125Zm10.7724609375,0c0-1.5249023438-1.375-2.599609375-4.2236328125-2.599609375-2.849609375,0-4.224609375,1.0747070312-4.224609375,2.599609375,0,1.4497070312,1.375,2.5493164062,4.224609375,2.5493164062,2.8486328125,0,4.2236328125-1.099609375,4.2236328125-2.5493164062Zm-.0751953125-5.3237304688v-12.296875h2.2998046875v12.296875h-2.2998046875Z"/><path class="cls-1" d="m131.5283203125,118.580078125v-2.9243164062h-4.673828125c-.974609375,1.224609375-2.5498046875,1.974609375-4.548828125,1.974609375-3.44921875,0-5.69921875-2.1748046875-5.69921875-5.1987304688,0-2.9995117188,2.25-5.173828125,5.69921875-5.173828125,2.099609375,0,3.7490234375.8247070312,4.673828125,2.1494140625h4.548828125v-3.1240234375h2.298828125v12.296875h-2.298828125Zm-9.22265625-2.94921875c2.048828125,0,3.3984375-1.3247070312,3.3984375-3.19921875,0-1.849609375-1.349609375-3.19921875-3.3984375-3.19921875-2.0244140625,0-3.375,1.349609375-3.375,3.19921875,0,1.8745117188,1.3505859375,3.19921875,3.375,3.19921875Zm-1.625,8.2729492188c0-2.6743164062,2.4248046875-4.5991210938,6.623046875-4.5991210938,4.19921875,0,6.5986328125,1.9248046875,6.5986328125,4.5991210938,0,2.6494140625-2.3994140625,4.548828125-6.5986328125,4.548828125-4.1982421875,0-6.623046875-1.8994140625-6.623046875-4.548828125Zm10.921875,0c0-1.5249023438-1.474609375-2.599609375-4.298828125-2.599609375-2.8486328125,0-4.3232421875,1.0747070312-4.3232421875,2.599609375,0,1.4497070312,1.474609375,2.5493164062,4.3232421875,2.5493164062,2.82421875,0,4.298828125-1.099609375,4.298828125-2.5493164062Zm-3.798828125-10.22265625h3.724609375v-2.2993164062h-3.69921875c.099609375.349609375.125.6997070312.125,1.0498046875,0,.4497070312-.0498046875.849609375-.150390625,1.2495117188Z"/><path class="cls-1" d="m148.189453125,117.6049804688c-2.724609375-1.0244140625-4.69921875-2.9741210938-5.2236328125-5.0483398438-.5498046875,2.2495117188-2.5244140625,4.4736328125-5.3740234375,5.6235351562-.375-.6000976562-.75-1.25-1.125-1.8745117188,3.4248046875-1.4248046875,5.2490234375-4.07421875,5.2490234375-7.748046875v-1.4497070312h2.32421875v1.2495117188c0,3.6743164062,1.724609375,5.8984375,5.2236328125,7.3984375l-1.07421875,1.8491210938Zm-7.2734375,6.298828125c0-2.6743164062,2.375-4.5991210938,6.5732421875-4.5991210938,4.19921875,0,6.548828125,1.9248046875,6.548828125,4.5991210938,0,2.6494140625-2.349609375,4.548828125-6.548828125,4.548828125-4.1982421875,0-6.5732421875-1.8994140625-6.5732421875-4.548828125Zm10.822265625,0c0-1.5249023438-1.4248046875-2.599609375-4.2490234375-2.599609375-2.8486328125,0-4.2734375,1.0747070312-4.2734375,2.599609375,0,1.4497070312,1.4248046875,2.5493164062,4.2734375,2.5493164062,2.82421875,0,4.2490234375-1.099609375,4.2490234375-2.5493164062Zm-.224609375-5.3486328125v-12.2719726562h2.2998046875v5.0234375h3.19921875v2.0244140625h-3.19921875v5.2241210938h-2.2998046875Z"/><rect class="cls-2" width="541.6689453125" height="128.7960205078"/></g></svg>