<?xml version="1.0" encoding="UTF-8"?><svg id="_레이어_2" xmlns="http://www.w3.org/2000/svg" viewBox="0 0 541.6689453125 182.5805664062"><defs><style>.cls-1{fill:#ffe800;}.cls-2{fill:none;}</style></defs><g id="Layer_1"><path class="cls-1" d="m3.5859375,23.5986328125V2.322265625h4.9677734375v20.8447265625c0,7.2900390625,3.294921875,11.826171875,10.044921875,11.826171875,6.6953125,0,10.0439453125-4.5361328125,10.0439453125-11.826171875V2.322265625h4.9677734375v21.2763671875c0,9.4501953125-5.3994140625,16.0927734375-15.01171875,16.0927734375S3.5859375,33.048828125,3.5859375,23.5986328125Z"/><path class="cls-1" d="m40.4833984375,11.98828125h4.8603515625v4.1044921875c1.404296875-2.3759765625,4.3740234375-4.6982421875,8.91015625-4.6982421875,7.0205078125,0,10.74609375,4.5361328125,10.74609375,11.8798828125v15.7685546875h-4.859375v-15.2822265625c0-5.1845703125-2.5927734375-7.9384765625-7.1826171875-7.9384765625-4.0498046875,0-6.8037109375,2.5927734375-7.6142578125,5.5625v17.658203125h-4.8603515625V11.98828125Z"/><path class="cls-1" d="m92.0263671875,35.208984375c-2.1064453125,2.7001953125-5.400390625,4.427734375-9.234375,4.427734375-7.6142578125,0-13.23046875-5.7236328125-13.23046875-14.1484375,0-8.3701171875,5.6162109375-14.09375,13.23046875-14.09375,3.833984375,0,7.1279296875,1.7275390625,9.234375,4.427734375V.7021484375h4.859375v38.3408203125h-4.859375v-3.833984375Zm0-5.076171875v-9.1796875c-1.404296875-3.078125-4.58984375-5.130859375-8.3701171875-5.130859375-5.076171875,0-9.1259765625,3.6181640625-9.1259765625,9.666015625,0,6.1025390625,4.0498046875,9.720703125,9.1259765625,9.720703125,3.7802734375,0,6.9658203125-2.0517578125,8.3701171875-5.076171875Z"/><path class="cls-1" d="m101.7890625,25.54296875c0-8.3701171875,5.5078125-14.1484375,13.337890625-14.1484375,7.7763671875,0,12.9599609375,5.7783203125,12.9599609375,13.2841796875,0,.755859375-.107421875,1.7822265625-.2158203125,2.5380859375h-21.16796875c.59375,4.9140625,3.779296875,8.1005859375,9.017578125,8.1005859375,3.6181640625,0,6.912109375-1.9443359375,8.802734375-4.7529296875l2.9697265625,3.078125c-2.7001953125,3.6181640625-6.8046875,6.048828125-11.98828125,6.048828125-8.26171875,0-13.7158203125-6.1025390625-13.7158203125-14.1484375Zm4.9677734375-2.3759765625h16.416015625c-.32421875-4.64453125-3.671875-7.5068359375-8.0458984375-7.5068359375-4.427734375,0-7.6142578125,2.7548828125-8.3701171875,7.5068359375Z"/><path class="cls-1" d="m132.865234375,11.98828125h4.8603515625v4.64453125c1.5126953125-2.970703125,4.3740234375-5.23828125,8.5322265625-5.23828125h.59375v4.6982421875c-4.3740234375.107421875-7.66796875,1.8896484375-9.1259765625,6.1015625v16.8486328125h-4.8603515625V11.98828125Z"/><path class="cls-1" d="m184.3271484375,35.208984375c-2.1064453125,2.7001953125-5.400390625,4.427734375-9.234375,4.427734375-7.6142578125,0-13.23046875-5.7236328125-13.23046875-14.1484375,0-8.3701171875,5.6162109375-14.09375,13.23046875-14.09375,3.833984375,0,7.1279296875,1.7275390625,9.234375,4.427734375v-3.833984375h4.859375v27.0546875h-4.859375v-3.833984375Zm0-4.9677734375v-9.396484375c-1.404296875-3.0244140625-4.58984375-5.0224609375-8.3701171875-5.0224609375-5.076171875,0-9.1259765625,3.6728515625-9.1259765625,9.666015625,0,6.048828125,4.0498046875,9.720703125,9.1259765625,9.720703125,3.7802734375,0,6.9658203125-1.998046875,8.3701171875-4.9677734375Z"/><path class="cls-1" d="m209.7060546875,2.322265625h24.2998046875v4.427734375h-19.33203125v11.71875h17.3876953125v4.427734375h-17.3876953125v16.146484375h-4.9677734375V2.322265625Z"/><path class="cls-1" d="m237.8125.7021484375h4.8603515625v38.3408203125h-4.8603515625V.7021484375Z"/><path class="cls-1" d="m247.466796875,25.54296875c0-7.830078125,5.2919921875-14.1484375,13.9326171875-14.1484375,8.6396484375,0,13.931640625,6.318359375,13.931640625,14.1484375,0,7.7763671875-5.2919921875,14.1484375-13.931640625,14.1484375-8.640625,0-13.9326171875-6.3720703125-13.9326171875-14.1484375Zm22.896484375,0c0-5.9404296875-3.9423828125-9.720703125-8.9638671875-9.720703125-5.0224609375,0-8.9638671875,3.7802734375-8.9638671875,9.720703125,0,5.939453125,3.94140625,9.7197265625,8.9638671875,9.7197265625,5.021484375,0,8.9638671875-3.7802734375,8.9638671875-9.7197265625Z"/><path class="cls-1" d="m276.2001953125,11.98828125h5.1298828125l6.5341796875,20.466796875,7.34375-20.466796875h4.9140625l7.3447265625,20.466796875,6.5341796875-20.466796875h5.1298828125l-9.072265625,27.0546875h-4.6982421875l-7.66796875-20.9521484375-7.7216796875,20.9521484375h-4.6982421875l-9.072265625-27.0546875Z"/><path class="cls-1" d="m322.3056640625,0h5.23828125v5.83203125h-5.23828125V0Zm.2158203125,11.98828125h4.8603515625v27.0546875h-4.8603515625V11.98828125Z"/><path class="cls-1" d="m333.736328125,11.98828125h4.8603515625v4.1044921875c1.404296875-2.3759765625,4.3740234375-4.6982421875,8.91015625-4.6982421875,7.0205078125,0,10.74609375,4.5361328125,10.74609375,11.8798828125v15.7685546875h-4.859375v-15.2822265625c0-5.1845703125-2.5927734375-7.9384765625-7.1826171875-7.9384765625-4.0498046875,0-6.8037109375,2.5927734375-7.6142578125,5.5625v17.658203125h-4.8603515625V11.98828125Z"/><path class="cls-1" d="m362.7294921875,24.5703125c0-7.830078125,5.0751953125-13.17578125,12.6357421875-13.17578125,3.833984375,0,6.8037109375,1.673828125,8.8564453125,4.265625v-3.671875h4.859375v23.490234375c0,9.3427734375-6.3720703125,14.0947265625-13.4453125,14.0947265625-5.9404296875,0-10.044921875-2.3759765625-12.3125-6.0478515625l3.185546875-2.970703125c1.9443359375,2.916015625,4.9140625,4.5908203125,8.96484375,4.5908203125,4.697265625,0,8.748046875-2.970703125,8.748046875-9.3427734375v-2.2138671875c-2.052734375,2.591796875-5.076171875,4.2119140625-8.8564453125,4.2119140625-7.560546875,0-12.6357421875-5.345703125-12.6357421875-13.23046875Zm21.4921875,3.99609375v-7.9375c-1.404296875-2.916015625-4.3203125-4.806640625-7.884765625-4.806640625-5.1298828125,0-8.6396484375,3.564453125-8.6396484375,8.748046875,0,5.23828125,3.509765625,8.802734375,8.6396484375,8.802734375,3.564453125,0,6.48046875-1.890625,7.884765625-4.806640625Z"/><path class="cls-1" d="m409.6005859375,2.322265625h24.2998046875v4.427734375h-19.33203125v11.71875h17.3876953125v4.427734375h-17.3876953125v16.146484375h-4.9677734375V2.322265625Z"/><path class="cls-1" d="m437.603515625,0h5.23828125v5.83203125h-5.23828125V0Zm.2158203125,11.98828125h4.8603515625v27.0546875h-4.8603515625V11.98828125Z"/><path class="cls-1" d="m447.4208984375,25.54296875c0-8.3701171875,5.5078125-14.1484375,13.337890625-14.1484375,7.7763671875,0,12.9599609375,5.7783203125,12.9599609375,13.2841796875,0,.755859375-.107421875,1.7822265625-.2158203125,2.5380859375h-21.16796875c.59375,4.9140625,3.779296875,8.1005859375,9.017578125,8.1005859375,3.6181640625,0,6.912109375-1.9443359375,8.802734375-4.7529296875l2.9697265625,3.078125c-2.7001953125,3.6181640625-6.8046875,6.048828125-11.98828125,6.048828125-8.26171875,0-13.7158203125-6.1025390625-13.7158203125-14.1484375Zm4.9677734375-2.3759765625h16.416015625c-.32421875-4.64453125-3.671875-7.5068359375-8.0458984375-7.5068359375-4.427734375,0-7.6142578125,2.7548828125-8.3701171875,7.5068359375Z"/><path class="cls-1" d="m478.470703125.7021484375h4.8603515625v38.3408203125h-4.8603515625V.7021484375Z"/><path class="cls-1" d="m510.681640625,35.208984375c-2.1064453125,2.7001953125-5.400390625,4.427734375-9.234375,4.427734375-7.6142578125,0-13.23046875-5.7236328125-13.23046875-14.1484375,0-8.3701171875,5.6162109375-14.09375,13.23046875-14.09375,3.833984375,0,7.1279296875,1.7275390625,9.234375,4.427734375V.7021484375h4.8603515625v38.3408203125h-4.8603515625v-3.833984375Zm0-5.076171875v-9.1796875c-1.404296875-3.078125-4.58984375-5.130859375-8.3701171875-5.130859375-5.076171875,0-9.1259765625,3.6181640625-9.1259765625,9.666015625,0,6.1025390625,4.0498046875,9.720703125,9.1259765625,9.720703125,3.7802734375,0,6.9658203125-2.0517578125,8.3701171875-5.076171875Z"/><path class="cls-1" d="m4.0185546875,59.5224609375h14.1474609375c7.560546875,0,11.826171875,3.671875,11.826171875,9.720703125,0,3.185546875-1.6201171875,5.8857421875-4.4814453125,7.505859375,4.2119140625,1.1875,7.34375,3.94140625,7.34375,9.1796875,0,6.318359375-4.427734375,10.314453125-12.8525390625,10.314453125H4.0185546875v-36.720703125Zm13.5537109375,15.7685546875c5.076171875,0,7.2900390625-2.16015625,7.2900390625-5.724609375,0-3.5634765625-2.2138671875-5.7236328125-7.2900390625-5.7236328125h-8.5859375v11.4482421875h8.5859375Zm2.2138671875,16.6318359375c5.4541015625,0,7.9384765625-2.322265625,7.9384765625-6.15625,0-3.8876953125-2.484375-6.2099609375-7.9384765625-6.2099609375h-10.7998046875v12.3662109375h10.7998046875Z"/><path class="cls-1" d="m45.236328125,93.1650390625l-11.2861328125-23.9765625h5.18359375l8.5859375,18.576171875,8.046875-18.576171875h5.18359375l-16.3623046875,36.9912109375h-5.18359375l5.83203125-13.0146484375Z"/><path class="cls-1" d="m74.501953125,88.359375l3.564453125-3.1865234375c2.0517578125,3.564453125,5.669921875,7.0205078125,11.6103515625,7.0205078125,5.6162109375,0,8.5322265625-3.0244140625,8.5322265625-6.642578125,0-3.2939453125-2.646484375-5.23828125-7.1826171875-5.939453125l-3.509765625-.5400390625c-6.1025390625-.97265625-10.2060546875-4.4287109375-10.2060546875-9.828125,0-5.5625,4.6435546875-10.3681640625,12.6357421875-10.3681640625,5.5625,0,9.990234375,2.4833984375,12.4208984375,6.1015625l-3.4560546875,3.240234375c-2.322265625-3.1865234375-5.5625-4.64453125-9.0185546875-4.64453125-4.64453125,0-7.4521484375,2.484375-7.4521484375,5.3466796875,0,2.916015625,2.267578125,4.6982421875,5.83203125,5.23828125l3.564453125.5400390625c7.181640625,1.1337890625,11.501953125,4.6435546875,11.501953125,10.6376953125,0,6.587890625-5.3466796875,11.556640625-13.716796875,11.556640625-8.099609375,0-12.6357421875-4.4287109375-15.1201171875-8.5322265625Z"/><path class="cls-1" d="m109.0615234375,86.7392578125v-13.5546875h-4.6982421875v-3.99609375h4.8056640625v-7.01953125h4.7529296875v7.01953125h6.6416015625v3.99609375h-6.6416015625v13.716796875c0,3.99609375,1.78125,5.3994140625,5.77734375,5.3994140625h.8642578125v3.99609375c-.59375.1083984375-1.404296875.2158203125-2.16015625.2158203125-6.15625,0-9.341796875-3.0234375-9.341796875-9.7734375Z"/><path class="cls-1" d="m148.5791015625,96.2431640625h-4.8603515625v-4.1044921875c-1.404296875,2.3759765625-4.3740234375,4.6982421875-8.91015625,4.6982421875-7.0205078125,0-10.74609375-4.5361328125-10.74609375-11.8798828125v-15.7685546875h4.8603515625v15.2822265625c0,5.1845703125,2.591796875,7.9384765625,7.181640625,7.9384765625,4.0498046875,0,6.8046875-2.591796875,7.6142578125-5.5625v-17.658203125h4.8603515625v27.0546875Z"/><path class="cls-1" d="m175.923828125,92.4091796875c-2.1064453125,2.7001953125-5.400390625,4.427734375-9.234375,4.427734375-7.6142578125,0-13.23046875-5.7236328125-13.23046875-14.1484375,0-8.3701171875,5.6162109375-14.09375,13.23046875-14.09375,3.833984375,0,7.1279296875,1.728515625,9.234375,4.427734375v-15.1201171875h4.8603515625v38.3408203125h-4.8603515625v-3.833984375Zm0-5.076171875v-9.1796875c-1.404296875-3.078125-4.58984375-5.130859375-8.3701171875-5.130859375-5.076171875,0-9.1259765625,3.6181640625-9.1259765625,9.666015625,0,6.1025390625,4.0498046875,9.720703125,9.1259765625,9.720703125,3.7802734375,0,6.9658203125-2.0517578125,8.3701171875-5.076171875Z"/><path class="cls-1" d="m186.9765625,57.2001953125h5.23828125v5.83203125h-5.23828125v-5.83203125Zm.2158203125,11.98828125h4.8603515625v27.0546875h-4.8603515625v-27.0546875Z"/><path class="cls-1" d="m196.765625,82.7431640625c0-7.830078125,5.2919921875-14.1484375,13.9326171875-14.1484375,8.6396484375,0,13.931640625,6.318359375,13.931640625,14.1484375,0,7.7763671875-5.2919921875,14.1484375-13.931640625,14.1484375-8.640625,0-13.9326171875-6.3720703125-13.9326171875-14.1484375Zm22.896484375,0c0-5.9404296875-3.9423828125-9.720703125-8.9638671875-9.720703125-5.0224609375,0-8.9638671875,3.7802734375-8.9638671875,9.720703125,0,5.939453125,3.94140625,9.7197265625,8.9638671875,9.7197265625,5.021484375,0,8.9638671875-3.7802734375,8.9638671875-9.7197265625Z"/><path class="cls-1" d="m239.802734375,88.359375l3.564453125-3.1865234375c2.0517578125,3.564453125,5.669921875,7.0205078125,11.6103515625,7.0205078125,5.6162109375,0,8.5322265625-3.0244140625,8.5322265625-6.642578125,0-3.2939453125-2.646484375-5.23828125-7.1826171875-5.939453125l-3.509765625-.5400390625c-6.1025390625-.97265625-10.2060546875-4.4287109375-10.2060546875-9.828125,0-5.5625,4.6435546875-10.3681640625,12.6357421875-10.3681640625,5.5625,0,9.990234375,2.4833984375,12.4208984375,6.1015625l-3.4560546875,3.240234375c-2.322265625-3.1865234375-5.5625-4.64453125-9.0185546875-4.64453125-4.64453125,0-7.4521484375,2.484375-7.4521484375,5.3466796875,0,2.916015625,2.267578125,4.6982421875,5.83203125,5.23828125l3.564453125.5400390625c7.181640625,1.1337890625,11.501953125,4.6435546875,11.501953125,10.6376953125,0,6.587890625-5.3466796875,11.556640625-13.716796875,11.556640625-8.099609375,0-12.6357421875-4.4287109375-15.1201171875-8.5322265625Z"/><path class="cls-1" d="m269.5625,69.1884765625h5.1298828125l6.5341796875,20.466796875,7.34375-20.466796875h4.9140625l7.3447265625,20.466796875,6.5341796875-20.466796875h5.1298828125l-9.072265625,27.0546875h-4.6982421875l-7.66796875-20.9521484375-7.7216796875,20.9521484375h-4.6982421875l-9.072265625-27.0546875Z"/><path class="cls-1" d="m315.6669921875,57.2001953125h5.23828125v5.83203125h-5.23828125v-5.83203125Zm.2158203125,11.98828125h4.8603515625v27.0546875h-4.8603515625v-27.0546875Z"/><path class="cls-1" d="m327.09765625,69.1884765625h4.8603515625v4.1044921875c1.404296875-2.3759765625,4.3740234375-4.6982421875,8.91015625-4.6982421875,7.0205078125,0,10.74609375,4.5361328125,10.74609375,11.8798828125v15.7685546875h-4.859375v-15.2822265625c0-5.1845703125-2.5927734375-7.9384765625-7.1826171875-7.9384765625-4.0498046875,0-6.8037109375,2.5927734375-7.6142578125,5.5625v17.658203125h-4.8603515625v-27.0546875Z"/><path class="cls-1" d="m356.19921875,82.7431640625c0-8.3701171875,5.5078125-14.1484375,13.337890625-14.1484375,7.7763671875,0,12.9599609375,5.7783203125,12.9599609375,13.2841796875,0,.755859375-.107421875,1.7822265625-.2158203125,2.5380859375h-21.16796875c.59375,4.9140625,3.779296875,8.1005859375,9.017578125,8.1005859375,3.6181640625,0,6.912109375-1.9443359375,8.802734375-4.7529296875l2.9697265625,3.078125c-2.7001953125,3.6181640625-6.8046875,6.048828125-11.98828125,6.048828125-8.26171875,0-13.7158203125-6.1025390625-13.7158203125-14.1484375Zm4.9677734375-2.3759765625h16.416015625c-.32421875-4.64453125-3.671875-7.5068359375-8.0458984375-7.5068359375-4.427734375,0-7.6142578125,2.7548828125-8.3701171875,7.5068359375Z"/><path class="cls-1" d="m2.298828125,134.2348632812h1.275390625v2.82421875H.75v-2.4990234375l1.2744140625-3.9243164062h1.4248046875l-1.150390625,3.5991210938Z"/><path class="cls-1" d="m4.9248046875,147.3315429688h19.6201171875v2H4.9248046875v-2Zm5.298828125-9.6723632812h-3.7744140625v-1.9243164062h16.5712890625v1.9243164062h-3.798828125c1.07421875.6499023438,1.673828125,1.6245117188,1.673828125,2.7993164062,0,2.6494140625-2.298828125,4.4736328125-6.1484375,4.4736328125-3.8740234375,0-6.1728515625-1.82421875-6.1728515625-4.4736328125,0-1.1748046875.599609375-2.1494140625,1.6494140625-2.7993164062Zm-.025390625-6.0737304688h9.0732421875v1.9995117188h-9.0732421875v-1.9995117188Zm4.548828125,11.4223632812c2.5498046875,0,3.8994140625-1.099609375,3.8994140625-2.5493164062s-1.349609375-2.57421875-3.8994140625-2.57421875c-2.57421875,0-3.8984375,1.1245117188-3.8984375,2.57421875s1.32421875,2.5493164062,3.8984375,2.5493164062Z"/><path class="cls-1" d="m26.4375,147.2817382812h19.6201171875v1.9995117188h-19.6201171875v-1.9995117188Zm3.048828125-10.322265625h11.22265625v-2.7744140625h-11.22265625v-1.9497070312h13.5224609375v6.5986328125h-11.22265625v2.8491210938h11.6474609375v1.9248046875h-12.8974609375c-.6494140625,0-1.0498046875-.25-1.0498046875-.875v-5.7734375Z"/><path class="cls-1" d="m46.609375,141.4833984375h19.6201171875v1.9243164062h-19.6201171875v-1.9243164062Zm3.099609375,3.923828125h2.298828125v4.5239257812h11.5224609375v2.0244140625h-12.771484375c-.650390625,0-1.0498046875-.2749023438-1.0498046875-.8999023438v-5.6484375Zm.1494140625-14.1713867188h2.2998046875v5.5234375h11.2216796875v1.9248046875h-12.4716796875c-.6494140625,0-1.0498046875-.25-1.0498046875-.875v-6.5732421875Z"/><path class="cls-1" d="m73.984375,139.80859375h19.6201171875v1.849609375h-19.6201171875v-1.849609375Zm3.099609375,7.4482421875h11.1220703125v-1.7998046875h-11.1220703125v-1.7993164062h13.4208984375v5.3486328125h-11.1220703125v1.9248046875h11.7724609375v1.82421875h-13.021484375c-.650390625,0-1.0498046875-.2749023438-1.0498046875-.8999023438v-4.5986328125Zm1.19921875-9.3979492188c-.6494140625,0-1.0498046875-.2495117188-1.0498046875-.8745117188v-5.673828125h13.1220703125v1.8999023438h-10.822265625v2.7739257812h11.072265625v1.8745117188h-12.322265625Z"/><path class="cls-1" d="m109.978515625,146.4819335938v-5.298828125c-2,1.2250976562-4.9990234375,1.3999023438-7.998046875,1.3999023438h-6.3232421875v-1.9995117188h2.57421875c-.4248046875-.875-.599609375-1.7998046875-.599609375-3.0991210938v-2.4248046875h2.2744140625v2.9497070312c0,.974609375.0498046875,1.7993164062.25,2.57421875h2.8740234375c.1748046875-.7749023438.25-1.599609375.25-2.57421875v-2.9497070312h2.298828125v2.4248046875c0,1.2993164062-.19921875,2.2241210938-.6240234375,3.0991210938,1.923828125-.1000976562,3.7734375-.4248046875,5.0234375-1.099609375v-9.0727539062h2.2998046875v6.248046875h3.19921875v2.0249023438h-3.19921875v7.7978515625h-2.2998046875Zm-13.9462890625-12.5717773438v-2.0244140625h11.146484375v2.0244140625h-11.146484375Zm3.3486328125,10.7973632812h2.2998046875v5.1484375h11.3974609375v2.0249023438h-12.6474609375c-.6494140625,0-1.0498046875-.2749023438-1.0498046875-.8999023438v-6.2734375Z"/><path class="cls-1" d="m128.7802734375,146.45703125c-4.048828125,0-5.5986328125-3.57421875-5.5986328125-7.1235351562,0-3.5239257812,1.5498046875-7.0981445312,5.5986328125-7.0981445312s5.5986328125,3.57421875,5.5986328125,7.0981445312c0,3.5493164062-1.5498046875,7.1235351562-5.5986328125,7.1235351562Zm0-1.9995117188c2.3994140625,0,3.2998046875-2.724609375,3.2998046875-5.1240234375s-.900390625-5.0986328125-3.2998046875-5.0986328125-3.298828125,2.69921875-3.298828125,5.0986328125.8994140625,5.1240234375,3.298828125,5.1240234375Zm8.5732421875,7.4482421875v-21.4946289062h2.2998046875v7.6479492188h3.19921875v2.0244140625h-3.19921875v11.822265625h-2.2998046875Z"/><path class="cls-1" d="m160.177734375,151.9057617188v-11.697265625h-2.974609375v11.072265625h-2.19921875v-6.4482421875c-1.5244140625.8994140625-3.32421875,1.1997070312-5.8232421875,1.1997070312h-3.3740234375c-.650390625,0-1.025390625-.25-1.025390625-.875v-6.9731445312h5.6240234375v-3.6494140625h-5.6240234375v-1.9741210938h7.8232421875v7.5478515625h-5.6240234375v3.94921875h3.375c1.7744140625,0,3.32421875-.2250976562,4.6484375-.8999023438v-12.3720703125h2.19921875v7.3984375h2.974609375v-7.7729492188h2.224609375v21.4946289062h-2.224609375Z"/><path class="cls-1" d="m167.130859375,133.4599609375h-1.2744140625v-2.82421875h2.82421875v2.4995117188l-1.2744140625,3.923828125h-1.4248046875l1.1494140625-3.5991210938Z"/><path class="cls-1" d="m176.65625,147.0317382812h19.6201171875v2.0244140625h-19.6201171875v-2.0244140625Zm17.24609375-3.8491210938c-3.0244140625-.6997070312-6.548828125-2.9990234375-7.423828125-5.7236328125-.82421875,2.7993164062-4.298828125,5.048828125-7.4228515625,5.8486328125l-.849609375-1.9243164062c3.548828125-1,7.0732421875-3.32421875,7.0732421875-7.9233398438v-1.69921875h2.349609375v1.6743164062c0,4.5991210938,3.44921875,6.7734375,7.1474609375,7.8232421875l-.8740234375,1.9243164062Z"/><path class="cls-1" d="m210.0908203125,151.9555664062v-6.3481445312h-5.19921875v6.3481445312h-2.32421875v-6.3481445312h-4.9736328125v-1.974609375h19.6201171875v1.974609375h-4.82421875v6.3481445312h-2.298828125Zm3.5244140625-14.6962890625h-10.5478515625v2.1743164062h11.3720703125v1.9248046875h-12.6220703125c-.6494140625,0-1.0498046875-.25-1.0498046875-.875v-9.1479492188h13.2724609375v1.9497070312h-10.97265625v2.099609375h10.5478515625v1.8745117188Z"/><path class="cls-1" d="m233.7529296875,151.9057617188v-7.4233398438c-1.82421875,1.1748046875-4.6484375,1.4995117188-7.498046875,1.4995117188h-5.498046875c-.650390625,0-1.025390625-.2749023438-1.025390625-.8994140625v-12.4970703125h10.123046875v2.0244140625h-7.8232421875v9.34765625h4.7490234375c2.4990234375,0,5.298828125-.2749023438,6.97265625-1.1997070312v-12.3466796875h2.2998046875v21.4946289062h-2.2998046875Z"/><path class="cls-1" d="m238.9345703125,147.08203125h8.6474609375v-4.0244140625c-3.32421875-.349609375-5.9228515625-2.2744140625-5.9228515625-5.6235351562,0-3.7241210938,3.1240234375-5.7236328125,7.09765625-5.7236328125,3.94921875,0,7.0732421875,1.9995117188,7.0732421875,5.7236328125,0,3.3491210938-2.5986328125,5.2739257812-5.9228515625,5.6235351562v4.0244140625h8.6474609375v2.0244140625h-19.6201171875v-2.0244140625Zm9.822265625-5.9736328125c2.625,0,4.7490234375-1.25,4.7490234375-3.6743164062,0-2.44921875-2.1240234375-3.7241210938-4.7490234375-3.7241210938-2.6494140625,0-4.7734375,1.2749023438-4.7734375,3.7241210938,0,2.4243164062,2.1240234375,3.6743164062,4.7734375,3.6743164062Z"/><path class="cls-1" d="m266.3095703125,147.0317382812h19.6201171875v2.0244140625h-19.6201171875v-2.0244140625Zm17.24609375-3.8491210938c-3.0244140625-.6997070312-6.548828125-2.9990234375-7.423828125-5.7236328125-.82421875,2.7993164062-4.298828125,5.048828125-7.4228515625,5.8486328125l-.849609375-1.9243164062c3.548828125-1,7.0732421875-3.32421875,7.0732421875-7.9233398438v-1.69921875h2.349609375v1.6743164062c0,4.5991210938,3.44921875,6.7734375,7.1474609375,7.8232421875l-.8740234375,1.9243164062Z"/><path class="cls-1" d="m302.6337890625,151.9057617188v-5.6235351562c-2.0751953125,1.1245117188-5.1240234375,1.224609375-8.248046875,1.224609375h-6.6484375v-2.0498046875h5.6484375v-3.6240234375c-2.849609375-.3999023438-4.6484375-2.3994140625-4.6484375-5.0737304688,0-2.9990234375,2.298828125-5.173828125,5.7978515625-5.173828125,3.474609375,0,5.7734375,2.1748046875,5.7734375,5.173828125,0,2.6743164062-1.82421875,4.673828125-4.623046875,5.0737304688v3.6240234375h.7744140625c2.3740234375,0,4.548828125-.1748046875,6.173828125-.8994140625v-14.146484375h2.32421875v8.1479492188h3.1240234375v2.0244140625h-3.1240234375v11.322265625h-2.32421875Zm-8.0986328125-11.9721679688c2.0751953125,0,3.4990234375-1.2998046875,3.4990234375-3.1743164062s-1.423828125-3.1743164062-3.4990234375-3.1743164062c-2.07421875,0-3.5234375,1.2998046875-3.5234375,3.1743164062s1.44921875,3.1743164062,3.5234375,3.1743164062Z"/><path class="cls-1" d="m315.6845703125,131.5854492188c3.44921875,0,5.7236328125,2.349609375,5.7236328125,5.548828125,0,3.2241210938-2.2744140625,5.5737304688-5.7236328125,5.5737304688s-5.748046875-2.349609375-5.748046875-5.5737304688c0-3.19921875,2.298828125-5.548828125,5.748046875-5.548828125Zm0,9.123046875c2.0498046875,0,3.44921875-1.5249023438,3.44921875-3.57421875,0-2.0244140625-1.3994140625-3.57421875-3.44921875-3.57421875-2.0244140625,0-3.423828125,1.5498046875-3.423828125,3.57421875,0,2.0493164062,1.3994140625,3.57421875,3.423828125,3.57421875Zm-1.6748046875,3.7490234375h2.2998046875v5.3984375h11.296875v2.0249023438h-12.546875c-.6494140625,0-1.0498046875-.2749023438-1.0498046875-.8999023438v-6.5234375Zm10.6474609375,1.7744140625v-15.8208007812h2.2998046875v15.8208007812h-2.2998046875Z"/><path class="cls-1" d="m.875,161.7856445312h10.8720703125v2.0244140625h-4.2490234375c.224609375,3.19921875,1.724609375,5.5234375,5.1240234375,6.9731445312l-1.099609375,1.8247070312c-2.6748046875-1.1245117188-4.4990234375-2.8994140625-5.099609375-4.8989257812-.6494140625,2.1245117188-2.423828125,4.0493164062-5.3232421875,5.3486328125-.375-.599609375-.75-1.224609375-1.099609375-1.8491210938,3.4736328125-1.5,4.923828125-4.07421875,5.1240234375-7.3984375H.875v-2.0244140625Zm14.0712890625,20.3447265625v-5.2734375H3.7490234375v-1.9995117188h13.4970703125v7.2729492188h-2.2998046875Zm0-8.72265625v-12.9965820312h2.2998046875v5.4985351562h3.19921875v2.0244140625h-3.19921875v5.4736328125h-2.2998046875Z"/><path class="cls-1" d="m24.876953125,182.2553710938c-.650390625,0-1.0498046875-.2749023438-1.0498046875-.8994140625v-5.9736328125h5.5478515625v-2.4995117188h-8.6474609375v-1.9243164062h19.6201171875v1.9243164062h-8.6474609375v2.4995117188h5.5478515625v6.873046875h-12.37109375Zm12.87109375-15.1708984375v1.8745117188h-14.396484375v-1.8745117188h3.0244140625c-.2744140625-.5-.3994140625-1.125-.3994140625-1.849609375v-1.1997070312h2.32421875v1.6245117188c0,.5498046875.0751953125,1.0249023438.2001953125,1.4248046875h4.0732421875c.1005859375-.3999023438.2001953125-.875.2001953125-1.4248046875v-1.6245117188h2.32421875v1.1997070312c0,.724609375-.1494140625,1.349609375-.3994140625,1.849609375h3.048828125Zm-14.146484375-3.7993164062v-1.9243164062h13.896484375v1.9243164062h-13.896484375Zm2.5244140625,17.0209960938h8.8232421875v-2.9995117188h-8.8232421875v2.9995117188Z"/><path class="cls-1" d="m59.5498046875,181.2807617188v-11.197265625h-2.6494140625v5.6484375h-7.1728515625c-.650390625,0-1.025390625-.2749023438-1.025390625-.8994140625v-12.197265625h8.1982421875v5.423828125h2.6494140625v-7.2734375h2.19921875v20.4951171875h-2.19921875Zm-4.82421875-7.5478515625v-9.0981445312h-3.8486328125v9.0981445312h3.8486328125Zm9.373046875,8.1728515625v-21.4946289062h2.224609375v21.4946289062h-2.224609375Z"/><path class="cls-1" d="m74.8779296875,176.45703125c-4.048828125,0-5.5986328125-3.57421875-5.5986328125-7.1235351562,0-3.548828125,1.5498046875-7.123046875,5.5986328125-7.123046875,4.07421875,0,5.5986328125,3.57421875,5.5986328125,7.123046875,0,3.5493164062-1.5244140625,7.1235351562-5.5986328125,7.1235351562Zm0-1.9995117188c2.3994140625,0,3.32421875-2.724609375,3.32421875-5.1240234375s-.9248046875-5.1235351562-3.32421875-5.1235351562c-2.3740234375,0-3.298828125,2.7241210938-3.298828125,5.1235351562s.9248046875,5.1240234375,3.298828125,5.1240234375Zm8.9228515625,7.4482421875v-21.4946289062h2.2998046875v21.4946289062h-2.2998046875Z"/><path class="cls-1" d="m89.1669921875,170.9331054688c3.0986328125-.6245117188,5.7236328125-1.7993164062,7.22265625-3.6240234375-1.1240234375.4501953125-2.6484375.4501953125-4.0986328125.4501953125h-2.6240234375v-1.8999023438h7.5732421875c.25-.599609375.4248046875-1.4243164062.4248046875-2.1743164062h-7.423828125v-1.9995117188h9.748046875v1.0249023438c0,5.9736328125-3.8740234375,8.84765625-10.1474609375,10.1474609375l-.6748046875-1.9248046875Zm4.2236328125,7.0986328125c0-2.6743164062,2.349609375-4.5991210938,6.548828125-4.5991210938s6.5234375,1.9248046875,6.5234375,4.5991210938c0,2.6494140625-2.32421875,4.548828125-6.5234375,4.548828125s-6.548828125-1.8994140625-6.548828125-4.548828125Zm10.7724609375,0c0-1.5249023438-1.375-2.599609375-4.2236328125-2.599609375-2.849609375,0-4.224609375,1.0747070312-4.224609375,2.599609375,0,1.4497070312,1.375,2.5493164062,4.224609375,2.5493164062,2.8486328125,0,4.2236328125-1.099609375,4.2236328125-2.5493164062Zm-.0751953125-5.3237304688v-12.296875h2.2998046875v12.296875h-2.2998046875Z"/><path class="cls-1" d="m131.5634765625,172.7080078125v-2.9243164062h-4.673828125c-.974609375,1.224609375-2.5498046875,1.974609375-4.548828125,1.974609375-3.44921875,0-5.69921875-2.1748046875-5.69921875-5.1987304688,0-2.9995117188,2.25-5.173828125,5.69921875-5.173828125,2.0986328125,0,3.7490234375.8247070312,4.673828125,2.1494140625h4.548828125v-3.1240234375h2.298828125v12.296875h-2.298828125Zm-9.22265625-2.94921875c2.048828125,0,3.3984375-1.3247070312,3.3984375-3.19921875,0-1.849609375-1.349609375-3.19921875-3.3984375-3.19921875-2.0244140625,0-3.375,1.349609375-3.375,3.19921875,0,1.8745117188,1.3505859375,3.19921875,3.375,3.19921875Zm-1.625,8.2729492188c0-2.6743164062,2.4248046875-4.5991210938,6.623046875-4.5991210938,4.19921875,0,6.5986328125,1.9248046875,6.5986328125,4.5991210938,0,2.6494140625-2.3994140625,4.548828125-6.5986328125,4.548828125-4.1982421875,0-6.623046875-1.8994140625-6.623046875-4.548828125Zm10.9228515625,0c0-1.5249023438-1.4755859375-2.599609375-4.2998046875-2.599609375-2.8486328125,0-4.3232421875,1.0747070312-4.3232421875,2.599609375,0,1.4497070312,1.474609375,2.5493164062,4.3232421875,2.5493164062,2.82421875,0,4.2998046875-1.099609375,4.2998046875-2.5493164062Zm-3.7998046875-10.22265625h3.724609375v-2.2993164062h-3.69921875c.099609375.349609375.125.6997070312.125,1.0498046875,0,.4497070312-.0498046875.849609375-.150390625,1.2495117188Z"/><path class="cls-1" d="m148.224609375,171.7329101562c-2.724609375-1.0244140625-4.69921875-2.9741210938-5.2236328125-5.0483398438-.5498046875,2.2495117188-2.5244140625,4.4736328125-5.3740234375,5.6235351562-.375-.6000976562-.75-1.25-1.125-1.8745117188,3.4248046875-1.4248046875,5.2490234375-4.07421875,5.2490234375-7.748046875v-1.4497070312h2.32421875v1.2495117188c0,3.6743164062,1.724609375,5.8984375,5.2236328125,7.3984375l-1.07421875,1.8491210938Zm-7.2734375,6.298828125c0-2.6743164062,2.375-4.5991210938,6.5732421875-4.5991210938,4.19921875,0,6.548828125,1.9248046875,6.548828125,4.5991210938,0,2.6494140625-2.349609375,4.548828125-6.548828125,4.548828125-4.1982421875,0-6.5732421875-1.8994140625-6.5732421875-4.548828125Zm10.822265625,0c0-1.5249023438-1.4248046875-2.599609375-4.2490234375-2.599609375-2.8486328125,0-4.2734375,1.0747070312-4.2734375,2.599609375,0,1.4497070312,1.4248046875,2.5493164062,4.2734375,2.5493164062,2.82421875,0,4.2490234375-1.099609375,4.2490234375-2.5493164062Zm-.224609375-5.3486328125v-12.2719726562h2.2998046875v5.0234375h3.19921875v2.0244140625h-3.19921875v5.2241210938h-2.2998046875Z"/><rect class="cls-2" width="541.6689453125" height="182.5805664062"/></g></svg>