<?xml version="1.0" encoding="UTF-8"?><svg id="_레이어_2" xmlns="http://www.w3.org/2000/svg" viewBox="0 0 541.6689453125 156.0532226562"><defs><style>.cls-1{fill:#ffe800;}.cls-2{fill:none;}</style></defs><g id="Layer_1"><path class="cls-1" d="m13.4072265625,47.953125c-5.23828125-3.671875-11.71875-10.9619140625-11.71875-23.9765625C1.6884765625,10.962890625,8.1689453125,3.6728515625,13.4072265625,0l2.3759765625,2.8623046875C10.65234375,7.12890625,6.4404296875,13.2841796875,6.4404296875,23.9765625s4.2119140625,16.8486328125,9.3427734375,21.1142578125l-2.3759765625,2.8623046875Z"/><path class="cls-1" d="m14.912109375,35.533203125l3.0244140625-3.40234375c1.998046875,2.4296875,4.9140625,4.9140625,9.7197265625,4.9140625,5.23828125,0,9.2880859375-3.1318359375,9.2880859375-8.3701171875,0-4.9677734375-3.509765625-7.8837890625-8.3154296875-7.8837890625-3.40234375,0-5.7783203125,1.025390625-7.830078125,2.7001953125l-2.970703125-1.0263671875.0546875-.2705078125,1.78125-17.8740234375h20.1962890625v4.427734375h-15.8759765625l-1.0263671875,8.640625c1.6748046875-.7021484375,3.6181640625-1.2421875,5.9404296875-1.2421875,7.236328125,0,13.068359375,4.3203125,13.068359375,12.5283203125,0,7.9921875-6.0478515625,13.0146484375-14.310546875,13.0146484375-6.42578125,0-10.421875-3.4560546875-12.744140625-6.15625Z"/><path class="cls-1" d="m45.498046875,22.6806640625c0-11.2861328125,5.2919921875-19.0078125,14.904296875-19.0078125s14.904296875,7.7216796875,14.904296875,19.0078125-5.2919921875,19.0087890625-14.904296875,19.0087890625-14.904296875-7.72265625-14.904296875-19.0087890625Zm24.732421875,0c0-8.423828125-2.9697265625-14.3642578125-9.828125-14.3642578125s-9.828125,5.9404296875-9.828125,14.3642578125,2.9697265625,14.3642578125,9.828125,14.3642578125,9.828125-5.9404296875,9.828125-14.3642578125Z"/><path class="cls-1" d="m79.884765625,22.6806640625c0-11.2861328125,5.2919921875-19.0078125,14.904296875-19.0078125s14.904296875,7.7216796875,14.904296875,19.0078125-5.2919921875,19.0087890625-14.904296875,19.0087890625-14.904296875-7.72265625-14.904296875-19.0087890625Zm24.732421875,0c0-8.423828125-2.9697265625-14.3642578125-9.828125-14.3642578125s-9.828125,5.9404296875-9.828125,14.3642578125,2.9697265625,14.3642578125,9.828125,14.3642578125,9.828125-5.9404296875,9.828125-14.3642578125Z"/><path class="cls-1" d="m112.4091796875,0c5.2373046875,3.6728515625,11.7177734375,10.962890625,11.7177734375,23.9765625,0,13.0146484375-6.48046875,20.3046875-11.7177734375,23.9765625l-2.376953125-2.8623046875c5.130859375-4.265625,9.3427734375-10.421875,9.3427734375-21.1142578125s-4.2119140625-16.84765625-9.3427734375-21.1142578125l2.376953125-2.8623046875Z"/><path class="cls-1" d="m143.1337890625,4.3203125h14.0400390625c10.2060546875,0,17.927734375,6.5341796875,17.927734375,18.3603515625s-7.7216796875,18.3603515625-17.927734375,18.3603515625h-14.0400390625V4.3203125Zm4.9677734375,4.427734375v27.865234375h8.748046875c7.9384765625,0,13.1220703125-4.806640625,13.1220703125-13.9326171875s-5.18359375-13.9326171875-13.1220703125-13.9326171875h-8.748046875Z"/><path class="cls-1" d="m201.3828125,37.20703125c-2.1064453125,2.7001953125-5.400390625,4.427734375-9.234375,4.427734375-7.6142578125,0-13.23046875-5.7236328125-13.23046875-14.1484375,0-8.3701171875,5.6162109375-14.09375,13.23046875-14.09375,3.833984375,0,7.1279296875,1.7275390625,9.234375,4.427734375v-3.833984375h4.859375v27.0546875h-4.859375v-3.833984375Zm0-4.9677734375v-9.396484375c-1.404296875-3.0244140625-4.58984375-5.0224609375-8.3701171875-5.0224609375-5.076171875,0-9.1259765625,3.6728515625-9.1259765625,9.666015625,0,6.048828125,4.0498046875,9.720703125,9.1259765625,9.720703125,3.7802734375,0,6.9658203125-1.998046875,8.3701171875-4.9677734375Z"/><path class="cls-1" d="m220.8330078125,37.962890625l-11.2861328125-23.9765625h5.18359375l8.5859375,18.576171875,8.046875-18.576171875h5.18359375l-16.3623046875,36.9912109375h-5.18359375l5.83203125-13.0146484375Z"/><path class="cls-1" d="m236.2705078125,36.0185546875l3.1318359375-3.2939453125c1.673828125,2.484375,4.8056640625,4.5361328125,8.3701171875,4.5361328125,3.509765625,0,6.263671875-1.404296875,6.263671875-4.2119140625,0-2.16015625-2.0517578125-3.34765625-5.345703125-3.833984375l-2.3759765625-.3779296875c-4.806640625-.755859375-7.9384765625-3.1865234375-7.9384765625-7.505859375,0-4.2666015625,3.5107421875-7.9384765625,10.0439453125-7.9384765625,4.158203125,0,7.4521484375,1.8359375,9.4501953125,4.3740234375l-3.0234375,3.2939453125c-1.728515625-2.0517578125-3.888671875-3.240234375-6.5341796875-3.240234375-3.3486328125,0-4.9677734375,1.6201171875-4.9677734375,3.40234375,0,1.8359375,1.51171875,2.75390625,3.9951171875,3.1318359375l2.4306640625.3779296875c5.8857421875.8642578125,9.234375,3.6181640625,9.234375,8.2080078125,0,4.8603515625-4.2666015625,8.7490234375-11.3408203125,8.7490234375-5.18359375,0-9.1259765625-2.646484375-11.3935546875-5.6708984375Z"/><path class="cls-1" d="m274.9326171875,27.541015625c0-7.830078125,5.2919921875-14.1484375,13.9326171875-14.1484375,8.6396484375,0,13.931640625,6.318359375,13.931640625,14.1484375,0,7.7763671875-5.2919921875,14.1484375-13.931640625,14.1484375-8.640625,0-13.9326171875-6.3720703125-13.9326171875-14.1484375Zm22.896484375,0c0-5.9404296875-3.9423828125-9.720703125-8.9638671875-9.720703125-5.0224609375,0-8.9638671875,3.7802734375-8.9638671875,9.720703125,0,5.939453125,3.94140625,9.7197265625,8.9638671875,9.7197265625,5.021484375,0,8.9638671875-3.7802734375,8.9638671875-9.7197265625Z"/><path class="cls-1" d="m308.69921875,17.982421875h-4.5361328125v-3.99609375h4.5361328125v-2.9697265625c0-5.0224609375,2.970703125-8.640625,8.802734375-8.640625.6474609375,0,1.4033203125,0,1.943359375.0546875v4.0498046875h-.8095703125c-3.4560546875,0-5.076171875,1.404296875-5.076171875,4.58984375v2.916015625h5.8857421875v3.99609375h-5.8857421875v23.05859375h-4.8603515625v-23.05859375Z"/><path class="cls-1" d="m.4462890625,92.357421875l3.564453125-3.1865234375c2.0517578125,3.564453125,5.669921875,7.0205078125,11.6103515625,7.0205078125,5.6162109375,0,8.5322265625-3.0244140625,8.5322265625-6.642578125,0-3.2939453125-2.646484375-5.23828125-7.1826171875-5.939453125l-3.509765625-.5400390625c-6.1025390625-.97265625-10.2060546875-4.4287109375-10.2060546875-9.828125,0-5.5625,4.6435546875-10.3681640625,12.6357421875-10.3681640625,5.5625,0,9.990234375,2.4833984375,12.4208984375,6.1015625l-3.4560546875,3.240234375c-2.322265625-3.1865234375-5.5625-4.64453125-9.0185546875-4.64453125-4.64453125,0-7.4521484375,2.484375-7.4521484375,5.3466796875,0,2.916015625,2.267578125,4.6982421875,5.83203125,5.23828125l3.564453125.5400390625c7.181640625,1.1337890625,11.501953125,4.6435546875,11.501953125,10.6376953125,0,6.587890625-5.3466796875,11.556640625-13.716796875,11.556640625-8.099609375,0-12.6357421875-4.4287109375-15.1201171875-8.5322265625Z"/><path class="cls-1" d="m58.3564453125,100.2412109375h-4.8603515625v-4.1044921875c-1.404296875,2.3759765625-4.3740234375,4.6982421875-8.91015625,4.6982421875-7.0205078125,0-10.74609375-4.5361328125-10.74609375-11.8798828125v-15.7685546875h4.8603515625v15.2822265625c0,5.1845703125,2.591796875,7.9384765625,7.181640625,7.9384765625,4.0498046875,0,6.8046875-2.591796875,7.6142578125-5.5625v-17.658203125h4.8603515625v27.0546875Z"/><path class="cls-1" d="m103.52734375,84.958984375c0-5.1845703125-2.484375-7.9384765625-7.07421875-7.9384765625-3.99609375,0-6.587890625,2.5927734375-7.4521484375,5.5625v17.658203125h-4.8603515625v-15.2822265625c0-5.1845703125-2.484375-7.9384765625-7.07421875-7.9384765625-3.99609375,0-6.6416015625,2.5927734375-7.4521484375,5.5625v17.658203125h-4.8603515625v-27.0546875h4.8603515625v4.1044921875c1.404296875-2.3759765625,4.2666015625-4.6982421875,8.802734375-4.6982421875,4.6435546875,0,7.775390625,1.998046875,9.341796875,5.5078125,1.7822265625-3.240234375,5.2919921875-5.5078125,10.0439453125-5.5078125,6.9658203125,0,10.583984375,4.5361328125,10.583984375,11.8798828125v15.7685546875h-4.859375v-15.2822265625Z"/><path class="cls-1" d="m153.44921875,84.958984375c0-5.1845703125-2.484375-7.9384765625-7.07421875-7.9384765625-3.99609375,0-6.587890625,2.5927734375-7.4521484375,5.5625v17.658203125h-4.8603515625v-15.2822265625c0-5.1845703125-2.484375-7.9384765625-7.07421875-7.9384765625-3.99609375,0-6.6416015625,2.5927734375-7.4521484375,5.5625v17.658203125h-4.8603515625v-27.0546875h4.8603515625v4.1044921875c1.404296875-2.3759765625,4.2666015625-4.6982421875,8.802734375-4.6982421875,4.6435546875,0,7.775390625,1.998046875,9.341796875,5.5078125,1.7822265625-3.240234375,5.2919921875-5.5078125,10.0439453125-5.5078125,6.9658203125,0,10.583984375,4.5361328125,10.583984375,11.8798828125v15.7685546875h-4.859375v-15.2822265625Z"/><path class="cls-1" d="m162.9794921875,86.7412109375c0-8.3701171875,5.5078125-14.1484375,13.337890625-14.1484375,7.7763671875,0,12.9599609375,5.7783203125,12.9599609375,13.2841796875,0,.755859375-.107421875,1.7822265625-.2158203125,2.5380859375h-21.16796875c.59375,4.9140625,3.779296875,8.1005859375,9.017578125,8.1005859375,3.6181640625,0,6.912109375-1.9443359375,8.802734375-4.7529296875l2.9697265625,3.078125c-2.7001953125,3.6181640625-6.8046875,6.048828125-11.98828125,6.048828125-8.26171875,0-13.7158203125-6.1025390625-13.7158203125-14.1484375Zm4.9677734375-2.3759765625h16.416015625c-.32421875-4.64453125-3.671875-7.5068359375-8.0458984375-7.5068359375-4.427734375,0-7.6142578125,2.7548828125-8.3701171875,7.5068359375Z"/><path class="cls-1" d="m194.0556640625,73.1865234375h4.8603515625v4.64453125c1.5126953125-2.970703125,4.3740234375-5.23828125,8.5322265625-5.23828125h.59375v4.6982421875c-4.3740234375.107421875-7.66796875,1.8896484375-9.1259765625,6.1015625v16.8486328125h-4.8603515625v-27.0546875Z"/><path class="cls-1" d="m210.984375,102.6708984375h-2.916015625v-6.42578125h6.42578125v5.669921875l-2.916015625,8.9638671875h-3.2392578125l2.6455078125-8.2080078125Z"/><path class="cls-1" d="m231.8271484375,96.4609375c4.5908203125-9.2880859375,19.38671875-13.337890625,19.38671875-21.978515625,0-3.99609375-2.4296875-6.9658203125-7.505859375-6.9658203125-3.833984375,0-6.3720703125,1.998046875-7.6142578125,5.7783203125l-3.888671875-2.0517578125c1.2421875-3.7802734375,4.64453125-8.3701171875,11.6650390625-8.3701171875,7.775390625,0,12.419921875,4.8056640625,12.419921875,11.4482421875,0,11.2861328125-14.634765625,15.498046875-17.9287109375,21.4921875h18.5224609375v4.427734375h-25.056640625v-3.7802734375Z"/><path class="cls-1" d="m260.365234375,81.880859375c0-11.2861328125,5.2919921875-19.0078125,14.904296875-19.0078125s14.904296875,7.7216796875,14.904296875,19.0078125-5.2919921875,19.0087890625-14.904296875,19.0087890625-14.904296875-7.72265625-14.904296875-19.0087890625Zm24.732421875,0c0-8.423828125-2.9697265625-14.3642578125-9.828125-14.3642578125s-9.828125,5.9404296875-9.828125,14.3642578125,2.9697265625,14.3642578125,9.828125,14.3642578125,9.828125-5.9404296875,9.828125-14.3642578125Z"/><path class="cls-1" d="m294.7529296875,81.880859375c0-11.2861328125,5.2919921875-19.0078125,14.904296875-19.0078125s14.904296875,7.7216796875,14.904296875,19.0078125-5.2919921875,19.0087890625-14.904296875,19.0087890625-14.904296875-7.72265625-14.904296875-19.0087890625Zm24.732421875,0c0-8.423828125-2.9697265625-14.3642578125-9.828125-14.3642578125s-9.828125,5.9404296875-9.828125,14.3642578125,2.9697265625,14.3642578125,9.828125,14.3642578125,9.828125-5.9404296875,9.828125-14.3642578125Z"/><path class="cls-1" d="m357.1767578125,80.962890625c0,12.5283203125-6.3720703125,19.9267578125-16.25390625,19.9267578125-5.6162109375,0-9.666015625-2.8623046875-11.9345703125-6.318359375l3.4560546875-2.916015625c1.728515625,2.75390625,4.751953125,4.58984375,8.478515625,4.58984375,6.3720703125,0,10.74609375-4.8056640625,11.232421875-12.90625-2.21484375,3.078125-5.83203125,5.400390625-10.4228515625,5.400390625-7.07421875,0-12.9599609375-5.2919921875-12.9599609375-12.90625,0-7.505859375,6.15625-12.9599609375,13.7158203125-12.9599609375,9.55859375,0,14.6884765625,7.34375,14.6884765625,18.08984375Zm-23.3818359375-5.18359375c0,4.4814453125,3.4013671875,8.3154296875,8.6396484375,8.3154296875s8.640625-3.833984375,8.640625-8.3154296875c0-4.482421875-3.40234375-8.2626953125-8.640625-8.2626953125s-8.6396484375,3.7802734375-8.6396484375,8.2626953125Z"/><path class="cls-1" d="m0,148.580078125l1.400390625-1.5747070312c.9248046875,1.125,2.2744140625,2.2744140625,4.4990234375,2.2744140625,2.423828125,0,4.298828125-1.4497070312,4.298828125-3.8740234375,0-2.2993164062-1.625-3.6489257812-3.849609375-3.6489257812-1.57421875,0-2.673828125.474609375-3.6240234375,1.2495117188l-1.3740234375-.474609375.0244140625-.125.8251953125-8.2734375h9.34765625v2.0498046875h-7.3486328125l-.474609375,3.9990234375c.7744140625-.3251953125,1.6748046875-.5747070312,2.7490234375-.5747070312,3.349609375,0,6.048828125,1.9995117188,6.048828125,5.7983398438,0,3.69921875-2.7998046875,6.0234375-6.623046875,6.0234375-2.974609375,0-4.82421875-1.599609375-5.8994140625-2.8491210938Z"/><path class="cls-1" d="m14.4970703125,142.6313476562c0-5.2236328125,2.44921875-8.7978515625,6.8984375-8.7978515625,4.4482421875,0,6.8984375,3.57421875,6.8984375,8.7978515625s-2.4501953125,8.7978515625-6.8984375,8.7978515625c-4.44921875,0-6.8984375-3.57421875-6.8984375-8.7978515625Zm11.447265625,0c0-3.8989257812-1.375-6.6484375-4.548828125-6.6484375-3.1748046875,0-4.548828125,2.7495117188-4.548828125,6.6484375,0,3.8994140625,1.3740234375,6.6484375,4.548828125,6.6484375,3.173828125,0,4.548828125-2.7490234375,4.548828125-6.6484375Z"/><path class="cls-1" d="m30.7431640625,142.6313476562c0-5.2236328125,2.44921875-8.7978515625,6.8984375-8.7978515625,4.4482421875,0,6.8984375,3.57421875,6.8984375,8.7978515625s-2.4501953125,8.7978515625-6.8984375,8.7978515625c-4.44921875,0-6.8984375-3.57421875-6.8984375-8.7978515625Zm11.447265625,0c0-3.8989257812-1.375-6.6484375-4.548828125-6.6484375-3.1748046875,0-4.548828125,2.7495117188-4.548828125,6.6484375,0,3.8994140625,1.3740234375,6.6484375,4.548828125,6.6484375,3.173828125,0,4.548828125-2.7490234375,4.548828125-6.6484375Z"/><path class="cls-1" d="m52.3291015625,133.2836914062c3.474609375,0,5.7236328125,2.0747070312,5.7236328125,4.7739257812,0,2.7241210938-2.2490234375,4.798828125-5.7236328125,4.798828125-3.4736328125,0-5.748046875-2.0747070312-5.748046875-4.798828125,0-2.69921875,2.2744140625-4.7739257812,5.748046875-4.7739257812Zm0,7.623046875c2.07421875,0,3.44921875-1.1748046875,3.44921875-2.8491210938,0-1.6494140625-1.375-2.82421875-3.44921875-2.82421875-2.048828125,0-3.423828125,1.1748046875-3.423828125,2.82421875,0,1.6743164062,1.375,2.8491210938,3.423828125,2.8491210938Zm-1.6748046875,7.3984375h10.6474609375v-2.0244140625h-10.6474609375v-1.849609375h12.947265625v5.6733398438h-10.6474609375v2.1494140625h11.296875v1.8745117188h-12.546875c-.6494140625,0-1.0498046875-.2749023438-1.0498046875-.8994140625v-4.923828125Zm10.6474609375-5.0986328125v-10.7973632812h2.2998046875v10.7973632812h-2.2998046875Z"/><path class="cls-1" d="m81.7919921875,153.9038085938v-5.8735351562c-2.1240234375,1.1748046875-5.498046875,1.224609375-8.6728515625,1.224609375h-6.5732421875v-2.0493164062h7.72265625c2.6748046875,0,5.673828125-.0502929688,7.5234375-.8999023438v-13.896484375h2.32421875v21.4946289062h-2.32421875Zm-8.623046875-20.3203125c3.4990234375,0,5.798828125,2.224609375,5.798828125,5.2241210938,0,2.9990234375-2.2998046875,5.2236328125-5.798828125,5.2236328125s-5.8232421875-2.224609375-5.8232421875-5.2236328125c0-2.9995117188,2.32421875-5.2241210938,5.8232421875-5.2241210938Zm0,8.4482421875c2.0751953125,0,3.5244140625-1.349609375,3.5244140625-3.2241210938s-1.44921875-3.224609375-3.5244140625-3.224609375c-2.07421875,0-3.5234375,1.3500976562-3.5234375,3.224609375s1.44921875,3.2241210938,3.5234375,3.2241210938Z"/><path class="cls-1" d="m104.5927734375,134.6083984375c0,3.5493164062.525390625,5.798828125,3.0244140625,7.373046875-.349609375.625-.6748046875,1.25-1.0244140625,1.849609375-1.7998046875-1.0498046875-2.8740234375-2.69921875-3.099609375-4.1987304688-.19921875,1.6245117188-1.423828125,3.4741210938-2.94921875,4.4487304688-1.5498046875-.974609375-2.7744140625-2.82421875-2.9736328125-4.4487304688-.2001953125,1.4995117188-1.2998046875,3.1489257812-3.099609375,4.1987304688l-1.0244140625-1.849609375c2.4990234375-1.57421875,3.0234375-3.8237304688,3.0234375-7.373046875v-1.2495117188h2.2001953125v1.2744140625c0,3.1494140625.32421875,5.3740234375,1.8740234375,6.8486328125,1.525390625-1.474609375,1.849609375-3.69921875,1.849609375-6.8486328125v-1.2744140625h2.19921875v1.2495117188Zm-6.248046875,11.2973632812h13.2216796875v8.123046875h-12.171875c-.6494140625,0-1.0498046875-.2749023438-1.0498046875-.8999023438v-7.2231445312Zm2.2998046875,6.0986328125h8.59765625v-4.0991210938h-8.59765625v4.0991210938Zm8.6474609375-7.5483398438v-6.1733398438h-2.9990234375v-1.9995117188h2.9990234375v-3.8740234375h2.2744140625v12.046875h-2.2744140625Z"/><path class="cls-1" d="m129.740234375,153.9038085938v-11.7221679688h-4.349609375v5.9233398438h-8.84765625c-.6494140625,0-1.0244140625-.2749023438-1.0244140625-.8994140625v-12.6220703125h9.8720703125v5.5737304688h4.349609375v-7.748046875h2.298828125v21.4946289062h-2.298828125Zm-6.5986328125-17.3208007812h-5.3740234375v9.5224609375h5.3740234375v-9.5224609375Z"/><path class="cls-1" d="m137.1875,152.25390625h-1.349609375v-2.9741210938h2.974609375v2.6245117188l-1.349609375,4.1489257812h-1.5l1.224609375-3.7993164062Z"/><path class="cls-1" d="m147.0888671875,149.3798828125c2.1240234375-4.298828125,8.97265625-6.1733398438,8.97265625-10.1723632812,0-1.849609375-1.125-3.224609375-3.474609375-3.224609375-1.7744140625,0-2.94921875.9248046875-3.5234375,2.6743164062l-1.7998046875-.9497070312c.5751953125-1.7495117188,2.1494140625-3.8740234375,5.3984375-3.8740234375,3.599609375,0,5.7490234375,2.224609375,5.7490234375,5.298828125,0,5.2236328125-6.7734375,7.1733398438-8.2978515625,9.9477539062h8.572265625v2.0493164062h-11.5966796875v-1.7495117188Z"/><path class="cls-1" d="m160.6435546875,142.6313476562c0-5.2236328125,2.44921875-8.7978515625,6.8984375-8.7978515625,4.4482421875,0,6.8984375,3.57421875,6.8984375,8.7978515625s-2.4501953125,8.7978515625-6.8984375,8.7978515625c-4.44921875,0-6.8984375-3.57421875-6.8984375-8.7978515625Zm11.447265625,0c0-3.8989257812-1.375-6.6484375-4.548828125-6.6484375-3.1748046875,0-4.548828125,2.7495117188-4.548828125,6.6484375,0,3.8994140625,1.3740234375,6.6484375,4.548828125,6.6484375,3.173828125,0,4.548828125-2.7490234375,4.548828125-6.6484375Z"/><path class="cls-1" d="m176.8876953125,142.6313476562c0-5.2236328125,2.44921875-8.7978515625,6.8984375-8.7978515625,4.4482421875,0,6.8984375,3.57421875,6.8984375,8.7978515625s-2.4501953125,8.7978515625-6.8984375,8.7978515625c-4.44921875,0-6.8984375-3.57421875-6.8984375-8.7978515625Zm11.447265625,0c0-3.8989257812-1.375-6.6484375-4.548828125-6.6484375-3.1748046875,0-4.548828125,2.7495117188-4.548828125,6.6484375,0,3.8994140625,1.3740234375,6.6484375,4.548828125,6.6484375,3.173828125,0,4.548828125-2.7490234375,4.548828125-6.6484375Z"/><path class="cls-1" d="m206.109375,142.2065429688c0,5.798828125-2.94921875,9.22265625-7.5224609375,9.22265625-2.599609375,0-4.474609375-1.3247070312-5.5234375-2.9243164062l1.599609375-1.349609375c.798828125,1.2749023438,2.19921875,2.1245117188,3.923828125,2.1245117188,2.94921875,0,4.9736328125-2.224609375,5.1982421875-5.9736328125-1.0244140625,1.4248046875-2.69921875,2.4995117188-4.8232421875,2.4995117188-3.2744140625,0-5.9990234375-2.44921875-5.9990234375-5.9736328125,0-3.4741210938,2.849609375-5.9985351562,6.3486328125-5.9985351562,4.423828125,0,6.7978515625,3.3994140625,6.7978515625,8.373046875Zm-10.822265625-2.3994140625c0,2.0747070312,1.5751953125,3.8491210938,3.9990234375,3.8491210938,2.4248046875,0,3.9990234375-1.7744140625,3.9990234375-3.8491210938,0-2.07421875-1.57421875-3.82421875-3.9990234375-3.82421875-2.423828125,0-3.9990234375,1.75-3.9990234375,3.82421875Z"/><rect class="cls-2" width="541.6689453125" height="153.3266601562"/></g></svg>