<?xml version="1.0" encoding="UTF-8"?><svg id="_레이어_2" xmlns="http://www.w3.org/2000/svg" viewBox="0 0 541.6689453125 153.3266601562"><defs><style>.cls-1{fill:#ffe800;}.cls-2{fill:none;}</style></defs><g id="Layer_1"><path class="cls-1" d="m14.8505859375,1.9443359375h5.6162109375l14.7958984375,36.720703125h-5.23828125l-3.5634765625-8.8564453125H8.748046875l-3.509765625,8.8564453125H0L14.8505859375,1.9443359375Zm-4.3203125,23.4365234375h14.2021484375l-7.07421875-17.8203125-7.1279296875,17.8203125Z"/><path class="cls-1" d="m48.7607421875,30.78125l3.564453125-3.1865234375c2.0517578125,3.564453125,5.669921875,7.0205078125,11.6103515625,7.0205078125,5.6162109375,0,8.5322265625-3.0244140625,8.5322265625-6.642578125,0-3.2939453125-2.646484375-5.23828125-7.1826171875-5.939453125l-3.509765625-.5400390625c-6.1025390625-.97265625-10.2060546875-4.4287109375-10.2060546875-9.828125,0-5.5625,4.6435546875-10.3681640625,12.6357421875-10.3681640625,5.5625,0,9.990234375,2.4833984375,12.4208984375,6.1015625l-3.4560546875,3.240234375c-2.322265625-3.1865234375-5.5625-4.64453125-9.0185546875-4.64453125-4.64453125,0-7.4521484375,2.484375-7.4521484375,5.3466796875,0,2.916015625,2.267578125,4.6982421875,5.83203125,5.23828125l3.564453125.5400390625c7.181640625,1.1337890625,11.501953125,4.6435546875,11.501953125,10.6376953125,0,6.587890625-5.3466796875,11.556640625-13.716796875,11.556640625-8.099609375,0-12.6357421875-4.4287109375-15.1201171875-8.5322265625Z"/><path class="cls-1" d="m80.966796875,25.1650390625c0-8.3701171875,5.5078125-14.1484375,13.337890625-14.1484375,7.7763671875,0,12.9599609375,5.7783203125,12.9599609375,13.2841796875,0,.755859375-.107421875,1.7822265625-.2158203125,2.5380859375h-21.16796875c.59375,4.9140625,3.779296875,8.1005859375,9.017578125,8.1005859375,3.6181640625,0,6.912109375-1.9443359375,8.802734375-4.7529296875l2.9697265625,3.078125c-2.7001953125,3.6181640625-6.8046875,6.048828125-11.98828125,6.048828125-8.26171875,0-13.7158203125-6.1025390625-13.7158203125-14.1484375Zm4.9677734375-2.3759765625h16.416015625c-.32421875-4.64453125-3.671875-7.5068359375-8.0458984375-7.5068359375-4.427734375,0-7.6142578125,2.7548828125-8.3701171875,7.5068359375Z"/><path class="cls-1" d="m112.04296875,11.6103515625h4.8603515625v4.1044921875c1.404296875-2.3759765625,4.3740234375-4.6982421875,8.91015625-4.6982421875,7.0205078125,0,10.74609375,4.5361328125,10.74609375,11.8798828125v15.7685546875h-4.859375v-15.2822265625c0-5.1845703125-2.5927734375-7.9384765625-7.1826171875-7.9384765625-4.0498046875,0-6.8037109375,2.5927734375-7.6142578125,5.5625v17.658203125h-4.8603515625V11.6103515625Z"/><path class="cls-1" d="m139.912109375,33.642578125l3.1318359375-3.2939453125c1.673828125,2.484375,4.8056640625,4.5361328125,8.3701171875,4.5361328125,3.509765625,0,6.263671875-1.404296875,6.263671875-4.2119140625,0-2.16015625-2.0517578125-3.34765625-5.345703125-3.833984375l-2.3759765625-.3779296875c-4.806640625-.755859375-7.9384765625-3.1865234375-7.9384765625-7.505859375,0-4.2666015625,3.5107421875-7.9384765625,10.0439453125-7.9384765625,4.158203125,0,7.4521484375,1.8359375,9.4501953125,4.3740234375l-3.0234375,3.2939453125c-1.728515625-2.0517578125-3.888671875-3.240234375-6.5341796875-3.240234375-3.3486328125,0-4.9677734375,1.6201171875-4.9677734375,3.40234375,0,1.8359375,1.51171875,2.75390625,3.9951171875,3.1318359375l2.4306640625.3779296875c5.8857421875.8642578125,9.234375,3.6181640625,9.234375,8.2080078125,0,4.8603515625-4.2666015625,8.7490234375-11.3408203125,8.7490234375-5.18359375,0-9.1259765625-2.646484375-11.3935546875-5.6708984375Z"/><path class="cls-1" d="m165.4970703125,25.1650390625c0-8.3701171875,5.5078125-14.1484375,13.337890625-14.1484375,7.7763671875,0,12.9599609375,5.7783203125,12.9599609375,13.2841796875,0,.755859375-.107421875,1.7822265625-.2158203125,2.5380859375h-21.16796875c.59375,4.9140625,3.779296875,8.1005859375,9.017578125,8.1005859375,3.6181640625,0,6.912109375-1.9443359375,8.802734375-4.7529296875l2.9697265625,3.078125c-2.7001953125,3.6181640625-6.8046875,6.048828125-11.98828125,6.048828125-8.26171875,0-13.7158203125-6.1025390625-13.7158203125-14.1484375Zm4.9677734375-2.3759765625h16.416015625c-.32421875-4.64453125-3.671875-7.5068359375-8.0458984375-7.5068359375-4.427734375,0-7.6142578125,2.7548828125-8.3701171875,7.5068359375Z"/><path class="cls-1" d="m207.83203125,25.1650390625c0-7.830078125,5.2919921875-14.1484375,13.9326171875-14.1484375,8.6396484375,0,13.931640625,6.318359375,13.931640625,14.1484375,0,7.7763671875-5.2919921875,14.1484375-13.931640625,14.1484375-8.640625,0-13.9326171875-6.3720703125-13.9326171875-14.1484375Zm22.896484375,0c0-5.9404296875-3.9423828125-9.720703125-8.9638671875-9.720703125-5.0224609375,0-8.9638671875,3.7802734375-8.9638671875,9.720703125,0,5.939453125,3.94140625,9.7197265625,8.9638671875,9.7197265625,5.021484375,0,8.9638671875-3.7802734375,8.9638671875-9.7197265625Z"/><path class="cls-1" d="m241.59765625,15.6064453125h-4.5361328125v-3.99609375h4.5361328125v-2.9697265625c0-5.0224609375,2.970703125-8.640625,8.802734375-8.640625.6474609375,0,1.4033203125,0,1.943359375.0546875v4.0498046875h-.8095703125c-3.4560546875,0-5.076171875,1.404296875-5.076171875,4.58984375v2.916015625h5.8857421875v3.99609375h-5.8857421875v23.05859375h-4.8603515625V15.6064453125Z"/><path class="cls-1" d="m.59375,89.9814453125l3.564453125-3.1865234375c2.0517578125,3.564453125,5.669921875,7.0205078125,11.6103515625,7.0205078125,5.6162109375,0,8.5322265625-3.0244140625,8.5322265625-6.642578125,0-3.2939453125-2.646484375-5.23828125-7.1826171875-5.939453125l-3.509765625-.5400390625c-6.1025390625-.97265625-10.2060546875-4.4287109375-10.2060546875-9.828125,0-5.5625,4.6435546875-10.3681640625,12.6357421875-10.3681640625,5.5625,0,9.990234375,2.4833984375,12.4208984375,6.1015625l-3.4560546875,3.240234375c-2.322265625-3.1865234375-5.5625-4.64453125-9.0185546875-4.64453125-4.64453125,0-7.4521484375,2.484375-7.4521484375,5.3466796875,0,2.916015625,2.267578125,4.6982421875,5.83203125,5.23828125l3.564453125.5400390625c7.181640625,1.1337890625,11.501953125,4.6435546875,11.501953125,10.6376953125,0,6.587890625-5.3466796875,11.556640625-13.716796875,11.556640625-8.099609375,0-12.6357421875-4.4287109375-15.1201171875-8.5322265625Z"/><path class="cls-1" d="m34.466796875,70.810546875h4.8603515625v3.833984375c2.1064453125-2.69921875,5.2919921875-4.427734375,9.1806640625-4.427734375,7.6142578125,0,13.2294921875,5.7236328125,13.2294921875,14.09375,0,8.4248046875-5.615234375,14.1484375-13.2294921875,14.1484375-3.888671875,0-7.07421875-1.7275390625-9.1806640625-4.3740234375v13.716796875h-4.8603515625v-36.9912109375Zm22.302734375,13.5c0-6.0478515625-4.0498046875-9.666015625-9.1259765625-9.666015625-3.7802734375,0-6.912109375,1.998046875-8.31640625,4.96875v9.4501953125c1.404296875,2.9697265625,4.5361328125,4.9677734375,8.31640625,4.9677734375,5.076171875,0,9.1259765625-3.6181640625,9.1259765625-9.720703125Z"/><path class="cls-1" d="m87.544921875,94.03125c-2.1064453125,2.7001953125-5.400390625,4.427734375-9.234375,4.427734375-7.6142578125,0-13.23046875-5.7236328125-13.23046875-14.1484375,0-8.3701171875,5.6162109375-14.09375,13.23046875-14.09375,3.833984375,0,7.1279296875,1.728515625,9.234375,4.427734375v-3.833984375h4.8603515625v27.0546875h-4.8603515625v-3.833984375Zm0-4.9677734375v-9.396484375c-1.404296875-3.0244140625-4.58984375-5.0224609375-8.3701171875-5.0224609375-5.076171875,0-9.1259765625,3.6728515625-9.1259765625,9.666015625,0,6.048828125,4.0498046875,9.720703125,9.1259765625,9.720703125,3.7802734375,0,6.9658203125-1.998046875,8.3701171875-4.9677734375Z"/><path class="cls-1" d="m97.193359375,84.310546875c0-7.775390625,5.400390625-14.09375,13.82421875-14.09375,5.3466796875,0,9.5048828125,2.591796875,11.9345703125,6.8583984375l-3.6181640625,2.5380859375c-1.6201171875-3.0244140625-4.5361328125-4.96875-8.154296875-4.96875-5.18359375,0-9.017578125,3.7265625-9.017578125,9.666015625,0,5.994140625,3.833984375,9.720703125,9.017578125,9.720703125,3.6181640625,0,6.5341796875-1.9443359375,8.154296875-4.9677734375l3.6181640625,2.5380859375c-2.4296875,4.265625-6.587890625,6.857421875-11.9345703125,6.857421875-8.423828125,0-13.82421875-6.3173828125-13.82421875-14.1484375Z"/><path class="cls-1" d="m125.2626953125,84.365234375c0-8.3701171875,5.5078125-14.1484375,13.337890625-14.1484375,7.7763671875,0,12.9599609375,5.7783203125,12.9599609375,13.2841796875,0,.755859375-.107421875,1.7822265625-.2158203125,2.5380859375h-21.16796875c.59375,4.9140625,3.779296875,8.1005859375,9.017578125,8.1005859375,3.6181640625,0,6.912109375-1.9443359375,8.802734375-4.7529296875l2.9697265625,3.078125c-2.7001953125,3.6181640625-6.8046875,6.048828125-11.98828125,6.048828125-8.26171875,0-13.7158203125-6.1025390625-13.7158203125-14.1484375Zm4.9677734375-2.3759765625h16.416015625c-.32421875-4.64453125-3.671875-7.5068359375-8.0458984375-7.5068359375-4.427734375,0-7.6142578125,2.7548828125-8.3701171875,7.5068359375Z"/><path class="cls-1" d="m.5473632812,139.8798828125h7.2236328125v-4.048828125h2.32421875v4.048828125h10.072265625v1.9248046875H.5473632812v-1.9248046875Zm13.4970703125-1.69921875c.349609375-1.375.4990234375-3.07421875.4990234375-4.82421875v-.349609375H3.5463867188v-1.974609375h13.322265625v1.3999023438c0,2.2241210938-.1748046875,4.3486328125-.6748046875,6.0234375l-2.1494140625-.2749023438Zm-3.6748046875,5.7734375c4.1494140625,0,6.6484375,1.6997070312,6.6484375,4.3491210938,0,2.6240234375-2.4990234375,4.3237304688-6.6484375,4.3237304688-4.173828125,0-6.6728515625-1.6997070312-6.6728515625-4.3237304688,0-2.6494140625,2.4990234375-4.3491210938,6.6728515625-4.3491210938Zm0,6.7485351562c2.82421875,0,4.349609375-.9497070312,4.349609375-2.3994140625,0-1.474609375-1.525390625-2.4248046875-4.349609375-2.4248046875-2.8740234375,0-4.3740234375.9501953125-4.3740234375,2.4248046875,0,1.4497070312,1.5,2.3994140625,4.3740234375,2.3994140625Z"/><path class="cls-1" d="m22.0346679688,140.955078125c4.7490234375-.9501953125,8.5224609375-3.69921875,8.5224609375-7.4233398438h-7.498046875v-2.0244140625h9.873046875v1.4243164062c0,5.6489257812-4.298828125,8.748046875-10.22265625,10.0478515625l-.6748046875-2.0244140625Zm4.0986328125,2.9741210938h2.2998046875v5.5483398438h11.3974609375v2.0249023438h-12.6474609375c-.6494140625,0-1.0498046875-.2749023438-1.0498046875-.8999023438v-6.6733398438Zm10.59765625,1.7993164062v-15.6958007812h2.2998046875v6.0483398438h3.19921875v2.0244140625h-3.19921875v7.623046875h-2.2998046875Z"/><path class="cls-1" d="m58.7661132812,151.52734375v-5.8735351562c-2.1240234375,1.1748046875-5.4990234375,1.224609375-8.6728515625,1.224609375h-6.5732421875v-2.0493164062h7.72265625c2.6748046875,0,5.673828125-.0502929688,7.5234375-.8999023438v-13.896484375h2.32421875v21.4946289062h-2.32421875Zm-8.623046875-20.3203125c3.4990234375,0,5.798828125,2.224609375,5.798828125,5.2241210938,0,2.9990234375-2.2998046875,5.2236328125-5.798828125,5.2236328125s-5.8232421875-2.224609375-5.8232421875-5.2236328125c0-2.9995117188,2.32421875-5.2241210938,5.8232421875-5.2241210938Zm0,8.4482421875c2.0751953125,0,3.5244140625-1.349609375,3.5244140625-3.2241210938s-1.44921875-3.224609375-3.5244140625-3.224609375c-2.07421875,0-3.5234375,1.3500976562-3.5234375,3.224609375s1.44921875,3.2241210938,3.5234375,3.2241210938Z"/><path class="cls-1" d="m77.1430664062,146.0786132812c-4.048828125,0-5.5986328125-3.57421875-5.5986328125-7.1235351562,0-3.548828125,1.5498046875-7.123046875,5.5986328125-7.123046875,4.07421875,0,5.5986328125,3.57421875,5.5986328125,7.123046875,0,3.5493164062-1.5244140625,7.1235351562-5.5986328125,7.1235351562Zm0-1.9995117188c2.3994140625,0,3.32421875-2.724609375,3.32421875-5.1240234375s-.9248046875-5.1235351562-3.32421875-5.1235351562c-2.3740234375,0-3.298828125,2.7241210938-3.298828125,5.1235351562s.9248046875,5.1240234375,3.298828125,5.1240234375Zm8.9228515625,7.4482421875v-21.4946289062h2.2998046875v21.4946289062h-2.2998046875Z"/><path class="cls-1" d="m96.3237304688,146.2783203125c-2.724609375,0-4.5234375-2.1240234375-4.5234375-4.8984375,0-1.5249023438.6494140625-2.82421875,1.7490234375-3.6240234375h-2.3994140625v-1.9497070312h10.2724609375v1.9497070312h-2.349609375c1.125.7998046875,1.7998046875,2.0991210938,1.7998046875,3.6240234375,0,2.7744140625-1.7998046875,4.8984375-4.548828125,4.8984375Zm-3.0244140625-14.6459960938h5.9990234375v2.0244140625h-5.9990234375v-2.0244140625Zm3.0244140625,12.7465820312c1.474609375,0,2.375-1.2744140625,2.375-2.9990234375,0-1.6997070312-.900390625-2.974609375-2.375-2.974609375-1.44921875,0-2.3740234375,1.2749023438-2.3740234375,2.974609375,0,1.724609375.9248046875,2.9990234375,2.3740234375,2.9990234375Zm11.0224609375,7.1484375v-11.5473632812h-2.724609375v10.9223632812h-2.19921875v-20.4951171875h2.19921875v7.5483398438h2.724609375v-7.9228515625h2.224609375v21.4946289062h-2.224609375Z"/><rect class="cls-2" width="541.6689453125" height="153.3266601562"/></g></svg>