<?xml version="1.0" encoding="UTF-8"?><svg id="_레이어_2" xmlns="http://www.w3.org/2000/svg" viewBox="0 0 541.6689453125 204.2065429688"><defs><style>.cls-1{fill:#ffe800;}.cls-2{fill:none;}</style></defs><g id="Layer_1"><path class="cls-1" d="m10.998046875,2.3994140625h4.1591796875l10.9580078125,27.1953125h-3.87890625l-2.6396484375-6.55859375H6.478515625l-2.599609375,6.55859375H0L10.998046875,2.3994140625Zm-3.19921875,17.357421875h10.517578125l-5.2392578125-13.1982421875-5.2783203125,13.1982421875Z"/><path class="cls-1" d="m28.70703125,9.5576171875h3.599609375v3.0400390625c1.0390625-1.759765625,3.2392578125-3.4794921875,6.5986328125-3.4794921875,5.19921875,0,7.9580078125,3.359375,7.9580078125,8.798828125v11.677734375h-3.5986328125v-11.318359375c0-3.8388671875-1.919921875-5.87890625-5.3193359375-5.87890625-3,0-5.0390625,1.919921875-5.638671875,4.119140625v13.078125h-3.599609375V9.5576171875Z"/><path class="cls-1" d="m67.0361328125,26.7548828125c-1.5595703125,2-4,3.279296875-6.8388671875,3.279296875-5.6396484375,0-9.798828125-4.2392578125-9.798828125-10.4775390625,0-6.19921875,4.1591796875-10.4384765625,9.798828125-10.4384765625,2.8388671875,0,5.279296875,1.2802734375,6.8388671875,3.279296875V1.19921875h3.599609375v28.3955078125h-3.599609375v-2.83984375Zm0-3.7587890625v-6.798828125c-1.0400390625-2.2802734375-3.3994140625-3.7998046875-6.19921875-3.7998046875-3.759765625,0-6.7587890625,2.6796875-6.7587890625,7.1591796875,0,4.5185546875,2.9990234375,7.1982421875,6.7587890625,7.1982421875,2.7998046875,0,5.1591796875-1.51953125,6.19921875-3.7587890625Z"/><path class="cls-1" d="m81.6015625,27.3154296875l-8.359375-17.7578125h3.83984375l6.3583984375,13.7578125,5.958984375-13.7578125h3.83984375l-12.1181640625,27.3955078125h-3.8388671875l4.3193359375-9.6376953125Z"/><path class="cls-1" d="m103.0810546875,2.3994140625h3.7998046875l6.279296875,22.1162109375,7.1982421875-22.1162109375h3.958984375l7.19921875,22.1162109375,6.279296875-22.1162109375h3.798828125l-7.998046875,27.1953125h-4l-7.2783203125-21.99609375-7.2392578125,21.99609375h-3.958984375l-8.0390625-27.1953125Z"/><path class="cls-1" d="m158.5224609375,26.7548828125c-1.5595703125,2-4,3.279296875-6.8388671875,3.279296875-5.6396484375,0-9.798828125-4.2392578125-9.798828125-10.4775390625,0-6.19921875,4.1591796875-10.4384765625,9.798828125-10.4384765625,2.8388671875,0,5.279296875,1.2802734375,6.8388671875,3.279296875v-2.83984375h3.599609375v20.037109375h-3.599609375v-2.83984375Zm0-3.6787109375v-6.958984375c-1.0400390625-2.240234375-3.3994140625-3.7197265625-6.19921875-3.7197265625-3.759765625,0-6.7587890625,2.7197265625-6.7587890625,7.1591796875,0,4.4794921875,2.9990234375,7.1982421875,6.7587890625,7.1982421875,2.7998046875,0,5.1591796875-1.4794921875,6.19921875-3.6787109375Z"/><path class="cls-1" d="m167.0166015625,9.5576171875h3.599609375v3.439453125c1.119140625-2.19921875,3.2392578125-3.87890625,6.318359375-3.87890625h.4404296875v3.4794921875c-3.240234375.080078125-5.6796875,1.3994140625-6.7587890625,4.51953125v12.4775390625h-3.599609375V9.5576171875Z"/><path class="cls-1" d="m180.0166015625,1.19921875h3.599609375v11.478515625c1.0390625-1.759765625,3.2392578125-3.5595703125,6.5986328125-3.5595703125,5.19921875,0,7.9580078125,3.359375,7.9580078125,8.798828125v11.677734375h-3.5986328125v-11.318359375c0-3.8388671875-1.919921875-5.87890625-5.3193359375-5.87890625s-5.2392578125,2.51953125-5.638671875,4.119140625v13.078125h-3.599609375V1.19921875Z"/><path class="cls-1" d="m201.70703125,19.5966796875c0-5.798828125,3.919921875-10.478515625,10.318359375-10.478515625,6.3994140625,0,10.318359375,4.6796875,10.318359375,10.478515625,0,5.7587890625-3.9189453125,10.4775390625-10.318359375,10.4775390625-6.3984375,0-10.318359375-4.71875-10.318359375-10.4775390625Zm16.95703125,0c0-4.3994140625-2.9189453125-7.19921875-6.638671875-7.19921875s-6.638671875,2.7998046875-6.638671875,7.19921875,2.9189453125,7.1982421875,6.638671875,7.1982421875,6.638671875-2.798828125,6.638671875-7.1982421875Z"/><path class="cls-1" d="m226.091796875,1.19921875h3.599609375v28.3955078125h-3.599609375V1.19921875Z"/><path class="cls-1" d="m236.263671875,4.5185546875h-2.0400390625V0h4.51953125v3.9990234375l-2.0400390625,6.279296875h-2.279296875l1.83984375-5.759765625Z"/><path class="cls-1" d="m239.4150390625,25.875l2.3193359375-2.439453125c1.240234375,1.83984375,3.5595703125,3.359375,6.19921875,3.359375,2.599609375,0,4.6396484375-1.0390625,4.6396484375-3.119140625,0-1.599609375-1.5205078125-2.4794921875-3.9599609375-2.83984375l-1.759765625-.279296875c-3.55859375-.560546875-5.87890625-2.3603515625-5.87890625-5.5595703125,0-3.1591796875,2.599609375-5.87890625,7.439453125-5.87890625,3.0791015625,0,5.5185546875,1.359375,6.998046875,3.2392578125l-2.2392578125,2.439453125c-1.2802734375-1.51953125-2.8798828125-2.3994140625-4.8388671875-2.3994140625-2.4794921875,0-3.6796875,1.2001953125-3.6796875,2.51953125,0,1.3603515625,1.1201171875,2.0400390625,2.9599609375,2.3193359375l1.798828125.2802734375c4.359375.6396484375,6.8388671875,2.6796875,6.8388671875,6.0791015625,0,3.599609375-3.1591796875,6.478515625-8.3984375,6.478515625-3.8388671875,0-6.7587890625-1.958984375-8.4384765625-4.19921875Z"/><path class="cls-1" d="m269.974609375,2.3994140625h17.9970703125v3.279296875h-14.3173828125v8.6787109375h12.8779296875v3.279296875h-12.8779296875v11.9580078125h-3.6796875V2.3994140625Z"/><path class="cls-1" d="m306.2119140625,26.7548828125c-1.5595703125,2-4,3.279296875-6.8388671875,3.279296875-5.6396484375,0-9.798828125-4.2392578125-9.798828125-10.4775390625,0-6.19921875,4.1591796875-10.4384765625,9.798828125-10.4384765625,2.8388671875,0,5.279296875,1.2802734375,6.8388671875,3.279296875v-2.83984375h3.599609375v20.037109375h-3.599609375v-2.83984375Zm0-3.6787109375v-6.958984375c-1.0400390625-2.240234375-3.3994140625-3.7197265625-6.19921875-3.7197265625-3.759765625,0-6.7587890625,2.7197265625-6.7587890625,7.1591796875,0,4.4794921875,2.9990234375,7.1982421875,6.7587890625,7.1982421875,2.7998046875,0,5.1591796875-1.4794921875,6.19921875-3.6787109375Z"/><path class="cls-1" d="m313.513671875,19.556640625c0-5.7587890625,4-10.4384765625,10.23828125-10.4384765625,3.9599609375,0,7.0390625,1.919921875,8.8388671875,5.0791015625l-2.6796875,1.8798828125c-1.2001953125-2.240234375-3.359375-3.6796875-6.0390625-3.6796875-3.8388671875,0-6.6787109375,2.759765625-6.6787109375,7.1591796875,0,4.439453125,2.83984375,7.1982421875,6.6787109375,7.1982421875,2.6796875,0,4.8388671875-1.439453125,6.0390625-3.6787109375l2.6796875,1.87890625c-1.7998046875,3.16015625-4.87890625,5.0791015625-8.8388671875,5.0791015625-6.23828125,0-10.23828125-4.6787109375-10.23828125-10.4775390625Z"/><path class="cls-1" d="m337.5693359375,22.5556640625v-10.0380859375h-3.4794921875v-2.9599609375h3.5595703125v-5.1982421875h3.51953125v5.1982421875h4.9189453125v2.9599609375h-4.9189453125v10.158203125c0,2.9599609375,1.3193359375,3.9990234375,4.279296875,3.9990234375h.6396484375v2.9599609375c-.439453125.080078125-1.0400390625.16015625-1.599609375.16015625-4.5595703125,0-6.9189453125-2.240234375-6.9189453125-7.2392578125Z"/><path class="cls-1" d="m347.3251953125,19.5966796875c0-5.798828125,3.919921875-10.478515625,10.318359375-10.478515625,6.3994140625,0,10.318359375,4.6796875,10.318359375,10.478515625,0,5.7587890625-3.9189453125,10.4775390625-10.318359375,10.4775390625-6.3984375,0-10.318359375-4.71875-10.318359375-10.4775390625Zm16.95703125,0c0-4.3994140625-2.9189453125-7.19921875-6.638671875-7.19921875s-6.638671875,2.7998046875-6.638671875,7.19921875,2.9189453125,7.1982421875,6.638671875,7.1982421875,6.638671875-2.798828125,6.638671875-7.1982421875Z"/><path class="cls-1" d="m371.7333984375,9.5576171875h3.599609375v3.439453125c1.119140625-2.19921875,3.2392578125-3.87890625,6.318359375-3.87890625h.4404296875v3.4794921875c-3.240234375.080078125-5.6796875,1.3994140625-6.7587890625,4.51953125v12.4775390625h-3.599609375V9.5576171875Z"/><path class="cls-1" d="m392.00390625,27.3154296875l-8.359375-17.7578125h3.83984375l6.3583984375,13.7578125,5.958984375-13.7578125h3.83984375l-12.1181640625,27.3955078125h-3.8388671875l4.3193359375-9.6376953125Z"/><path class="cls-1" d="m3.1591796875,47.599609375h10.3984375c5.7587890625,0,9.2783203125,2.87890625,9.2783203125,8.1982421875,0,5.279296875-3.51953125,8.119140625-9.2783203125,8.119140625h-6.71875v10.8779296875h-3.6796875v-27.1953125Zm9.9580078125,13.0380859375c3.9599609375,0,5.9189453125-1.6005859375,5.9189453125-4.83984375,0-3.279296875-1.958984375-4.9189453125-5.9189453125-4.9189453125h-6.2783203125v9.7587890625h6.2783203125Z"/><path class="cls-1" d="m24.4384765625,64.796875c0-6.19921875,4.0791015625-10.478515625,9.87890625-10.478515625,5.7587890625,0,9.59765625,4.279296875,9.59765625,9.837890625,0,.560546875-.080078125,1.3203125-.1591796875,1.8798828125h-15.677734375c.439453125,3.6396484375,2.7998046875,5.9990234375,6.6787109375,5.9990234375,2.6796875,0,5.119140625-1.439453125,6.5185546875-3.51953125l2.2001953125,2.2802734375c-2,2.6796875-5.0390625,4.478515625-8.87890625,4.478515625-6.119140625,0-10.158203125-4.5185546875-10.158203125-10.4775390625Zm3.6796875-1.759765625h12.158203125c-.240234375-3.439453125-2.7197265625-5.5595703125-5.958984375-5.5595703125-3.2802734375,0-5.6396484375,2.0400390625-6.19921875,5.5595703125Z"/><path class="cls-1" d="m46.3505859375,64.796875c0-5.798828125,3.919921875-10.478515625,10.318359375-10.478515625,6.3994140625,0,10.318359375,4.6796875,10.318359375,10.478515625,0,5.7587890625-3.9189453125,10.4775390625-10.318359375,10.4775390625-6.3984375,0-10.318359375-4.71875-10.318359375-10.4775390625Zm16.95703125,0c0-4.3994140625-2.9189453125-7.19921875-6.638671875-7.19921875s-6.638671875,2.7998046875-6.638671875,7.19921875,2.9189453125,7.1982421875,6.638671875,7.1982421875,6.638671875-2.798828125,6.638671875-7.1982421875Z"/><path class="cls-1" d="m70.7587890625,54.7578125h3.599609375v2.83984375c1.5595703125-2,3.9189453125-3.279296875,6.798828125-3.279296875,5.638671875,0,9.7978515625,4.2392578125,9.7978515625,10.4384765625,0,6.23828125-4.1591796875,10.4775390625-9.7978515625,10.4775390625-2.8798828125,0-5.2392578125-1.279296875-6.798828125-3.2392578125v10.158203125h-3.599609375v-27.3955078125Zm16.5166015625,9.9990234375c0-4.4794921875-2.9990234375-7.1591796875-6.7587890625-7.1591796875-2.798828125,0-5.119140625,1.4794921875-6.158203125,3.6796875v6.9990234375c1.0390625,2.19921875,3.359375,3.6787109375,6.158203125,3.6787109375,3.759765625,0,6.7587890625-2.6796875,6.7587890625-7.1982421875Z"/><path class="cls-1" d="m94.7275390625,46.3994140625h3.599609375v28.3955078125h-3.599609375v-28.3955078125Z"/><path class="cls-1" d="m102.119140625,64.796875c0-6.19921875,4.0791015625-10.478515625,9.87890625-10.478515625,5.7587890625,0,9.59765625,4.279296875,9.59765625,9.837890625,0,.560546875-.080078125,1.3203125-.1591796875,1.8798828125h-15.677734375c.439453125,3.6396484375,2.7998046875,5.9990234375,6.6787109375,5.9990234375,2.6796875,0,5.119140625-1.439453125,6.5185546875-3.51953125l2.2001953125,2.2802734375c-2,2.6796875-5.0390625,4.478515625-8.87890625,4.478515625-6.119140625,0-10.158203125-4.5185546875-10.158203125-10.4775390625Zm3.6796875-1.759765625h12.158203125c-.240234375-3.439453125-2.7197265625-5.5595703125-5.958984375-5.5595703125-3.2802734375,0-5.6396484375,2.0400390625-6.19921875,5.5595703125Z"/><path class="cls-1" d="m134.3984375,61.197265625h18.197265625v2.958984375h-18.197265625v-2.958984375Z"/><path class="cls-1" d="m164.5576171875,47.599609375h3.7998046875l6.279296875,22.1162109375,7.1982421875-22.1162109375h3.958984375l7.19921875,22.1162109375,6.279296875-22.1162109375h3.798828125l-7.998046875,27.1953125h-4l-7.2783203125-21.99609375-7.2392578125,21.99609375h-3.958984375l-8.0390625-27.1953125Z"/><path class="cls-1" d="m203.380859375,64.796875c0-6.19921875,4.0791015625-10.478515625,9.87890625-10.478515625,5.7587890625,0,9.59765625,4.279296875,9.59765625,9.837890625,0,.560546875-.080078125,1.3203125-.1591796875,1.8798828125h-15.677734375c.439453125,3.6396484375,2.7998046875,5.9990234375,6.6787109375,5.9990234375,2.6796875,0,5.119140625-1.439453125,6.5185546875-3.51953125l2.2001953125,2.2802734375c-2,2.6796875-5.0390625,4.478515625-8.87890625,4.478515625-6.119140625,0-10.158203125-4.5185546875-10.158203125-10.4775390625Zm3.6796875-1.759765625h12.158203125c-.240234375-3.439453125-2.7197265625-5.5595703125-5.958984375-5.5595703125-3.2802734375,0-5.6396484375,2.0400390625-6.19921875,5.5595703125Z"/><path class="cls-1" d="m226.5283203125,46.3994140625h3.599609375v28.3955078125h-3.599609375v-28.3955078125Z"/><path class="cls-1" d="m233.8330078125,64.7568359375c0-5.7587890625,4-10.4384765625,10.23828125-10.4384765625,3.9599609375,0,7.0390625,1.919921875,8.8388671875,5.0791015625l-2.6796875,1.8798828125c-1.2001953125-2.240234375-3.359375-3.6796875-6.0390625-3.6796875-3.8388671875,0-6.6787109375,2.759765625-6.6787109375,7.1591796875,0,4.439453125,2.83984375,7.1982421875,6.6787109375,7.1982421875,2.6796875,0,4.8388671875-1.439453125,6.0390625-3.6787109375l2.6796875,1.87890625c-1.7998046875,3.16015625-4.87890625,5.0791015625-8.8388671875,5.0791015625-6.23828125,0-10.23828125-4.6787109375-10.23828125-10.4775390625Z"/><path class="cls-1" d="m254.744140625,64.796875c0-5.798828125,3.919921875-10.478515625,10.318359375-10.478515625,6.3994140625,0,10.318359375,4.6796875,10.318359375,10.478515625,0,5.7587890625-3.9189453125,10.4775390625-10.318359375,10.4775390625-6.3984375,0-10.318359375-4.71875-10.318359375-10.4775390625Zm16.95703125,0c0-4.3994140625-2.9189453125-7.19921875-6.638671875-7.19921875s-6.638671875,2.7998046875-6.638671875,7.19921875,2.9189453125,7.1982421875,6.638671875,7.1982421875,6.638671875-2.798828125,6.638671875-7.1982421875Z"/><path class="cls-1" d="m307.8671875,63.4765625c0-3.8388671875-1.83984375-5.87890625-5.2392578125-5.87890625-2.958984375,0-4.87890625,1.919921875-5.5185546875,4.119140625v13.078125h-3.599609375v-11.318359375c0-3.8388671875-1.83984375-5.87890625-5.2392578125-5.87890625-2.958984375,0-4.9189453125,1.919921875-5.5185546875,4.119140625v13.078125h-3.599609375v-20.037109375h3.599609375v3.0400390625c1.0390625-1.759765625,3.1591796875-3.4794921875,6.5185546875-3.4794921875,3.439453125,0,5.7587890625,1.4794921875,6.9189453125,4.0791015625,1.3193359375-2.3994140625,3.9189453125-4.0791015625,7.4384765625-4.0791015625,5.1591796875,0,7.8388671875,3.359375,7.8388671875,8.798828125v11.677734375h-3.599609375v-11.318359375Z"/><path class="cls-1" d="m315.080078125,64.796875c0-6.19921875,4.0791015625-10.478515625,9.87890625-10.478515625,5.7587890625,0,9.59765625,4.279296875,9.59765625,9.837890625,0,.560546875-.080078125,1.3203125-.1591796875,1.8798828125h-15.677734375c.439453125,3.6396484375,2.7998046875,5.9990234375,6.6787109375,5.9990234375,2.6796875,0,5.119140625-1.439453125,6.5185546875-3.51953125l2.2001953125,2.2802734375c-2,2.6796875-5.0390625,4.478515625-8.87890625,4.478515625-6.119140625,0-10.158203125-4.5185546875-10.158203125-10.4775390625Zm3.6796875-1.759765625h12.158203125c-.240234375-3.439453125-2.7197265625-5.5595703125-5.958984375-5.5595703125-3.2802734375,0-5.6396484375,2.0400390625-6.19921875,5.5595703125Z"/><path class="cls-1" d="m349.0791015625,67.755859375v-10.0380859375h-3.4794921875v-2.9599609375h3.5595703125v-5.1982421875h3.51953125v5.1982421875h4.9189453125v2.9599609375h-4.9189453125v10.158203125c0,2.9599609375,1.3193359375,3.9990234375,4.279296875,3.9990234375h.6396484375v2.9599609375c-.439453125.080078125-1.0400390625.16015625-1.599609375.16015625-4.5595703125,0-6.9189453125-2.240234375-6.9189453125-7.2392578125Z"/><path class="cls-1" d="m358.8349609375,64.796875c0-5.798828125,3.919921875-10.478515625,10.318359375-10.478515625,6.3994140625,0,10.318359375,4.6796875,10.318359375,10.478515625,0,5.7587890625-3.9189453125,10.4775390625-10.318359375,10.4775390625-6.3984375,0-10.318359375-4.71875-10.318359375-10.4775390625Zm16.95703125,0c0-4.3994140625-2.9189453125-7.19921875-6.638671875-7.19921875s-6.638671875,2.7998046875-6.638671875,7.19921875,2.9189453125,7.1982421875,6.638671875,7.1982421875,6.638671875-2.798828125,6.638671875-7.1982421875Z"/><path class="cls-1" d="m394.154296875,67.755859375v-10.0380859375h-3.4794921875v-2.9599609375h3.5595703125v-5.1982421875h3.51953125v5.1982421875h4.9189453125v2.9599609375h-4.9189453125v10.158203125c0,2.9599609375,1.3193359375,3.9990234375,4.279296875,3.9990234375h.6396484375v2.9599609375c-.439453125.080078125-1.0400390625.16015625-1.599609375.16015625-4.5595703125,0-6.9189453125-2.240234375-6.9189453125-7.2392578125Z"/><path class="cls-1" d="m405.7138671875,46.3994140625h3.599609375v11.478515625c1.0390625-1.759765625,3.2392578125-3.5595703125,6.5986328125-3.5595703125,5.19921875,0,7.9580078125,3.359375,7.9580078125,8.798828125v11.677734375h-3.5986328125v-11.318359375c0-3.8388671875-1.919921875-5.87890625-5.3193359375-5.87890625s-5.2392578125,2.51953125-5.638671875,4.119140625v13.078125h-3.599609375v-28.3955078125Z"/><path class="cls-1" d="m427.42578125,64.796875c0-6.19921875,4.0791015625-10.478515625,9.87890625-10.478515625,5.7587890625,0,9.59765625,4.279296875,9.59765625,9.837890625,0,.560546875-.080078125,1.3203125-.1591796875,1.8798828125h-15.677734375c.439453125,3.6396484375,2.7998046875,5.9990234375,6.6787109375,5.9990234375,2.6796875,0,5.119140625-1.439453125,6.5185546875-3.51953125l2.2001953125,2.2802734375c-2,2.6796875-5.0390625,4.478515625-8.87890625,4.478515625-6.119140625,0-10.158203125-4.5185546875-10.158203125-10.4775390625Zm3.6796875-1.759765625h12.158203125c-.240234375-3.439453125-2.7197265625-5.5595703125-5.958984375-5.5595703125-3.2802734375,0-5.6396484375,2.0400390625-6.19921875,5.5595703125Z"/><path class="cls-1" d="m.439453125,114.15625l2.6396484375-2.359375c1.51953125,2.6396484375,4.19921875,5.19921875,8.5986328125,5.19921875,4.1591796875,0,6.3193359375-2.240234375,6.3193359375-4.919921875,0-2.439453125-1.9599609375-3.87890625-5.3193359375-4.3994140625l-2.599609375-.3994140625c-4.51953125-.7197265625-7.55859375-3.279296875-7.55859375-7.279296875,0-4.119140625,3.439453125-7.6787109375,9.3583984375-7.6787109375,4.119140625,0,7.3984375,1.83984375,9.1982421875,4.51953125l-2.5595703125,2.3994140625c-1.7197265625-2.359375-4.119140625-3.439453125-6.6787109375-3.439453125-3.439453125,0-5.51953125,1.83984375-5.51953125,3.9599609375,0,2.1591796875,1.6796875,3.4794921875,4.3193359375,3.87890625l2.6396484375.400390625c5.3193359375.83984375,8.5185546875,3.439453125,8.5185546875,7.8779296875,0,4.8798828125-3.958984375,8.55859375-10.158203125,8.55859375-5.9990234375,0-9.3583984375-3.279296875-11.1982421875-6.318359375Z"/><path class="cls-1" d="m25.443359375,91.080078125h3.87890625v4.3193359375h-3.87890625v-4.3193359375Zm.16015625,8.8779296875h3.599609375v20.037109375h-3.599609375v-20.037109375Z"/><path class="cls-1" d="m34.0634765625,91.599609375h3.599609375v28.3955078125h-3.599609375v-28.3955078125Z"/><path class="cls-1" d="m40.22265625,99.9580078125h3.83984375l6.279296875,15.4775390625,6.318359375-15.4775390625h3.83984375l-8.3984375,20.037109375h-3.4794921875l-8.3994140625-20.037109375Z"/><path class="cls-1" d="m61.046875,109.9970703125c0-6.19921875,4.0791015625-10.478515625,9.87890625-10.478515625,5.7587890625,0,9.59765625,4.279296875,9.59765625,9.837890625,0,.560546875-.080078125,1.3203125-.1591796875,1.8798828125h-15.677734375c.439453125,3.6396484375,2.7998046875,5.9990234375,6.6787109375,5.9990234375,2.6796875,0,5.119140625-1.439453125,6.5185546875-3.51953125l2.2001953125,2.2802734375c-2,2.6796875-5.0390625,4.478515625-8.87890625,4.478515625-6.119140625,0-10.158203125-4.5185546875-10.158203125-10.4775390625Zm3.6796875-1.759765625h12.158203125c-.240234375-3.439453125-2.7197265625-5.5595703125-5.958984375-5.5595703125-3.2802734375,0-5.6396484375,2.0400390625-6.19921875,5.5595703125Z"/><path class="cls-1" d="m84.2177734375,99.9580078125h3.599609375v3.439453125c1.119140625-2.19921875,3.2392578125-3.87890625,6.318359375-3.87890625h.4404296875v3.4794921875c-3.240234375.080078125-5.6796875,1.3994140625-6.7587890625,4.51953125v12.4775390625h-3.599609375v-20.037109375Z"/><path class="cls-1" d="m107.6171875,92.7998046875h17.9970703125v3.279296875h-14.3173828125v8.6787109375h12.8779296875v3.279296875h-12.8779296875v11.9580078125h-3.6796875v-27.1953125Z"/><path class="cls-1" d="m143.8544921875,117.1552734375c-1.5595703125,2-4,3.279296875-6.8388671875,3.279296875-5.6396484375,0-9.798828125-4.2392578125-9.798828125-10.4775390625,0-6.19921875,4.1591796875-10.4384765625,9.798828125-10.4384765625,2.8388671875,0,5.279296875,1.2802734375,6.8388671875,3.279296875v-2.83984375h3.599609375v20.037109375h-3.599609375v-2.83984375Zm0-3.6787109375v-6.958984375c-1.0400390625-2.240234375-3.3994140625-3.7197265625-6.19921875-3.7197265625-3.759765625,0-6.7587890625,2.7197265625-6.7587890625,7.1591796875,0,4.4794921875,2.9990234375,7.1982421875,6.7587890625,7.1982421875,2.7998046875,0,5.1591796875-1.4794921875,6.19921875-3.6787109375Z"/><path class="cls-1" d="m151.15625,109.95703125c0-5.7587890625,4-10.4384765625,10.23828125-10.4384765625,3.9599609375,0,7.0390625,1.919921875,8.8388671875,5.0791015625l-2.6796875,1.8798828125c-1.2001953125-2.240234375-3.359375-3.6796875-6.0390625-3.6796875-3.8388671875,0-6.6787109375,2.759765625-6.6787109375,7.1591796875,0,4.439453125,2.83984375,7.1982421875,6.6787109375,7.1982421875,2.6796875,0,4.8388671875-1.439453125,6.0390625-3.6787109375l2.6796875,1.87890625c-1.7998046875,3.16015625-4.87890625,5.0791015625-8.8388671875,5.0791015625-6.23828125,0-10.23828125-4.6787109375-10.23828125-10.4775390625Z"/><path class="cls-1" d="m175.2119140625,112.9560546875v-10.0380859375h-3.4794921875v-2.9599609375h3.5595703125v-5.1982421875h3.51953125v5.1982421875h4.9189453125v2.9599609375h-4.9189453125v10.158203125c0,2.9599609375,1.3193359375,3.9990234375,4.279296875,3.9990234375h.6396484375v2.9599609375c-.439453125.080078125-1.0400390625.16015625-1.599609375.16015625-4.5595703125,0-6.9189453125-2.240234375-6.9189453125-7.2392578125Z"/><path class="cls-1" d="m184.9677734375,109.9970703125c0-5.798828125,3.919921875-10.478515625,10.318359375-10.478515625,6.3994140625,0,10.318359375,4.6796875,10.318359375,10.478515625,0,5.7587890625-3.9189453125,10.4775390625-10.318359375,10.4775390625-6.3984375,0-10.318359375-4.71875-10.318359375-10.4775390625Zm16.95703125,0c0-4.3994140625-2.9189453125-7.19921875-6.638671875-7.19921875s-6.638671875,2.7998046875-6.638671875,7.19921875,2.9189453125,7.1982421875,6.638671875,7.1982421875,6.638671875-2.798828125,6.638671875-7.1982421875Z"/><path class="cls-1" d="m209.375,99.9580078125h3.599609375v3.439453125c1.119140625-2.19921875,3.2392578125-3.87890625,6.318359375-3.87890625h.4404296875v3.4794921875c-3.240234375.080078125-5.6796875,1.3994140625-6.7587890625,4.51953125v12.4775390625h-3.599609375v-20.037109375Z"/><path class="cls-1" d="m229.646484375,117.7158203125l-8.359375-17.7578125h3.83984375l6.3583984375,13.7578125,5.958984375-13.7578125h3.83984375l-12.1181640625,27.3955078125h-3.8388671875l4.3193359375-9.6376953125Z"/><path class="cls-1" d="m242.8466796875,121.794921875h-2.16015625v-4.759765625h4.759765625v4.2001953125l-2.16015625,6.638671875h-2.3994140625l1.9599609375-6.0791015625Z"/><path class="cls-1" d="m258.2861328125,117.1953125c3.3994140625-6.87890625,14.3583984375-9.8779296875,14.3583984375-16.27734375,0-2.958984375-1.7998046875-5.1591796875-5.5595703125-5.1591796875-2.83984375,0-4.71875,1.48046875-5.638671875,4.279296875l-2.8798828125-1.51953125c.919921875-2.7998046875,3.439453125-6.19921875,8.638671875-6.19921875,5.7587890625,0,9.1982421875,3.5595703125,9.1982421875,8.4794921875,0,8.3583984375-10.837890625,11.4775390625-13.27734375,15.9169921875h13.7177734375v3.279296875h-18.5576171875v-2.7998046875Z"/><path class="cls-1" d="m279.59765625,106.3974609375c0-8.3583984375,3.9189453125-14.078125,11.0380859375-14.078125s11.0380859375,5.7197265625,11.0380859375,14.078125-3.9189453125,14.0771484375-11.0380859375,14.0771484375-11.0380859375-5.71875-11.0380859375-14.0771484375Zm18.31640625,0c0-6.2392578125-2.19921875-10.638671875-7.2783203125-10.638671875s-7.279296875,4.3994140625-7.279296875,10.638671875,2.2001953125,10.6376953125,7.279296875,10.6376953125,7.2783203125-4.3984375,7.2783203125-10.6376953125Z"/><path class="cls-1" d="m310.1083984375,96.9189453125l-5.798828125,3.279296875-1.359375-2.87890625,7.958984375-4.51953125h2.798828125v27.1953125h-3.599609375v-23.076171875Z"/><path class="cls-1" d="m317.30078125,115.916015625l2.2392578125-2.51953125c1.48046875,1.7998046875,3.6396484375,3.638671875,7.19921875,3.638671875,3.87890625,0,6.87890625-2.3193359375,6.87890625-6.1982421875,0-3.6796875-2.599609375-5.8388671875-6.1591796875-5.8388671875-2.51953125,0-4.279296875.759765625-5.798828125,1.9990234375l-2.2001953125-.759765625.0400390625-.2001953125,1.3203125-13.2373046875h14.95703125v3.279296875h-11.7578125l-.759765625,6.3994140625c1.240234375-.5205078125,2.6796875-.919921875,4.3994140625-.919921875,5.359375,0,9.6787109375,3.19921875,9.6787109375,9.2783203125,0,5.9189453125-4.4794921875,9.6376953125-10.5986328125,9.6376953125-4.7587890625,0-7.71875-2.5595703125-9.4384765625-4.55859375Z"/><path class="cls-1" d="m.7958984375,157.2856445312c0-3.4243164062,1.7490234375-5.548828125,4.6484375-5.548828125,2.923828125,0,4.6240234375,2.1245117188,4.6240234375,5.548828125s-1.7001953125,5.5737304688-4.6240234375,5.5737304688c-2.8994140625,0-4.6484375-2.1494140625-4.6484375-5.5737304688Zm7.123046875,0c0-2.224609375-.900390625-3.5991210938-2.474609375-3.5991210938s-2.44921875,1.3745117188-2.44921875,3.5991210938.875,3.6240234375,2.44921875,3.6240234375,2.474609375-1.3994140625,2.474609375-3.6240234375Zm-2.599609375,7.4233398438h2.2998046875v5.2983398438h11.771484375v2.0249023438H6.369140625c-.650390625,0-1.0498046875-.2749023438-1.0498046875-.8999023438v-6.4233398438Zm11.322265625,1.1743164062v-7.4477539062h-2.849609375v7.0732421875h-2.19921875v-14.6967773438h2.19921875v5.6489257812h2.849609375v-5.8984375h2.224609375v15.3208007812h-2.224609375Z"/><path class="cls-1" d="m36.416015625,172.0571289062v-7.4233398438c-1.82421875,1.1748046875-4.6484375,1.4995117188-7.498046875,1.4995117188h-5.498046875c-.650390625,0-1.025390625-.2749023438-1.025390625-.8994140625v-12.4970703125h10.123046875v2.0244140625h-7.8232421875v9.34765625h4.7490234375c2.4990234375,0,5.298828125-.2749023438,6.97265625-1.1997070312v-12.3466796875h2.2998046875v21.4946289062h-2.2998046875Z"/><path class="cls-1" d="m46.8837890625,171.6821289062v-7.3232421875h-5.2236328125v-2.0244140625h6.2734375c2.0498046875,0,5.7734375-.0249023438,7.8232421875-.875.125.5498046875.224609375,1.125.3251953125,1.6748046875-1.775390625.8999023438-4.44921875,1.1748046875-6.8984375,1.224609375v7.3232421875h-2.2998046875Zm1.5498046875-10.9721679688c-3.349609375,0-5.6240234375-1.8999023438-5.6240234375-4.5991210938,0-2.6240234375,2.2744140625-4.6240234375,5.6240234375-4.6240234375,3.3740234375,0,5.6484375,2,5.6484375,4.6240234375,0,2.69921875-2.2744140625,4.5991210938-5.6484375,4.5991210938Zm0-7.1982421875c-2.0498046875,0-3.349609375.974609375-3.349609375,2.5991210938,0,1.599609375,1.2998046875,2.599609375,3.349609375,2.599609375s3.3740234375-1,3.3740234375-2.599609375c0-1.6245117188-1.32421875-2.5991210938-3.3740234375-2.5991210938Zm8.47265625,18.5454101562v-3.57421875h-4.5986328125v-1.974609375h4.5986328125v-15.9458007812h2.32421875v21.4946289062h-2.32421875Z"/><path class="cls-1" d="m64.08984375,154.0615234375h15.5712890625v1.724609375h-2.8994140625c.525390625.3999023438.7998046875.9248046875.7998046875,1.5244140625,0,1.7998046875-1.5498046875,2.94921875-4.5234375,3.1494140625v1.3247070312h8.6474609375v1.82421875h-19.6201171875v-1.82421875h8.6474609375v-1.3247070312c-2.9990234375-.2001953125-4.498046875-1.349609375-4.498046875-3.1494140625,0-.599609375.2490234375-1.1245117188.7744140625-1.5244140625h-2.8994140625v-1.724609375Zm1.0751953125,14.021484375h11.1220703125v-1.3745117188h-11.1220703125v-1.724609375h13.4208984375v4.6987304688h-11.1220703125v1.5498046875h11.7724609375v1.6743164062h-13.021484375c-.650390625,0-1.0498046875-.25-1.0498046875-.8745117188v-3.94921875Zm2.5986328125-17.1708984375h8.248046875v1.7998046875h-8.248046875v-1.7998046875Zm4.1240234375,7.8232421875c2.4248046875,0,3.3994140625-.5747070312,3.3994140625-1.474609375s-.974609375-1.4995117188-3.3994140625-1.4995117188c-2.44921875,0-3.3984375.599609375-3.3984375,1.4995117188s.94921875,1.474609375,3.3984375,1.474609375Z"/><path class="cls-1" d="m98.1962890625,172.0571289062v-5.8735351562c-2.1240234375,1.1748046875-5.4990234375,1.224609375-8.6728515625,1.224609375h-6.5732421875v-2.0493164062h7.72265625c2.6748046875,0,5.673828125-.0502929688,7.5234375-.8999023438v-13.896484375h2.32421875v21.4946289062h-2.32421875Zm-8.623046875-20.3203125c3.4990234375,0,5.798828125,2.224609375,5.798828125,5.2241210938,0,2.9990234375-2.2998046875,5.2236328125-5.798828125,5.2236328125s-5.8232421875-2.224609375-5.8232421875-5.2236328125c0-2.9995117188,2.32421875-5.2241210938,5.8232421875-5.2241210938Zm0,8.4482421875c2.0751953125,0,3.5244140625-1.349609375,3.5244140625-3.2241210938s-1.44921875-3.224609375-3.5244140625-3.224609375c-2.07421875,0-3.5234375,1.3500976562-3.5234375,3.224609375s1.44921875,3.2241210938,3.5234375,3.2241210938Z"/><path class="cls-1" d="m126.1962890625,163.6088867188v-5.6733398438h-2.7998046875v5.5483398438h-2.19921875v-2.0244140625c-1.599609375.9248046875-3.8740234375.9750976562-6.4736328125.9750976562h-4.5732421875v-1.9248046875h2.099609375c-.400390625-.8999023438-.5498046875-1.8247070312-.5498046875-2.9990234375v-2.474609375h2.173828125v3.0244140625c0,.8999023438.025390625,1.6743164062.2001953125,2.44921875h1.0751953125c.32421875,0,.6494140625,0,.9990234375-.0249023438.150390625-.7749023438.2001953125-1.5244140625.2001953125-2.4243164062v-3.0244140625h2.19921875v2.474609375c0,1.1494140625-.1748046875,2.07421875-.5498046875,2.9243164062,1.1748046875-.0751953125,2.2744140625-.2749023438,3.19921875-.6748046875v-8.9482421875h2.19921875v5.1489257812h2.7998046875v-5.3984375h2.224609375v13.0463867188h-2.224609375Zm-15.6708984375-9.6474609375v-1.974609375h9.1728515625v1.974609375h-9.1728515625Zm15.595703125,18.3203125v-5.1733398438h-11.697265625v-1.9995117188h13.9970703125v7.1728515625h-2.2998046875Z"/><path class="cls-1" d="m130.998046875,167.4829101562h8.6474609375v-3.8237304688h-4.548828125c-.6494140625,0-1.0498046875-.25-1.0498046875-.875v-10.3974609375h13.5224609375v1.974609375h-11.22265625v2.69921875h10.7978515625v1.8745117188h-10.7978515625v2.7744140625h11.572265625v1.9497070312h-5.9482421875v3.8237304688h8.6474609375v2h-19.6201171875v-2Z"/><path class="cls-1" d="m166.6591796875,172.0571289062v-7.0483398438c-1.82421875,1.1748046875-4.5986328125,1.4995117188-7.4482421875,1.4995117188h-5.5478515625c-.650390625,0-1.025390625-.2749023438-1.025390625-.8999023438v-7.1479492188h7.5732421875v-3.7744140625h-7.5732421875v-1.9990234375h9.84765625v7.748046875h-7.5478515625v4.0737304688h4.7734375c2.6494140625,0,5.2490234375-.25,6.9482421875-1.1997070312v-12.7465820312h2.2998046875v21.4946289062h-2.2998046875Z"/><path class="cls-1" d="m194.0341796875,172.0571289062v-7.0981445312c-1.849609375,1.1743164062-4.6484375,1.4243164062-7.4482421875,1.4243164062h-7.22265625v-1.9995117188h2.599609375c-.4501953125-1.0747070312-.625-2.4995117188-.625-4.048828125v-4.298828125h2.2744140625v4.8735351562c0,1.224609375.0498046875,2.4995117188.25,3.4741210938h2.8740234375c.1748046875-.974609375.25-2.2495117188.25-3.4741210938v-4.8735351562h2.2998046875v4.298828125c0,1.5244140625-.2001953125,2.94921875-.625,4.0239257812,2.048828125-.0498046875,4.048828125-.375,5.373046875-1.099609375v-12.6967773438h2.2998046875v21.4946289062h-2.2998046875Zm-14.2958984375-17.2958984375v-2.0244140625h11.1474609375v2.0244140625h-11.1474609375Z"/><path class="cls-1" d="m199.2158203125,160.16015625h19.6201171875v1.8745117188h-19.6201171875v-1.8745117188Zm17.0205078125-3.6494140625v1.7998046875h-14.396484375v-1.7998046875h3c-.25-.4497070312-.375-.9995117188-.375-1.6743164062v-.8500976562h2.32421875v1.25c0,.4497070312.0751953125.8994140625.1748046875,1.2744140625h4.0986328125c.1005859375-.375.2001953125-.8247070312.2001953125-1.2744140625v-1.25h2.32421875v.8500976562c0,.6748046875-.1494140625,1.224609375-.3994140625,1.6743164062h3.048828125Zm-14.146484375-3.19921875v-1.849609375h13.896484375v1.849609375h-13.896484375Zm.2255859375,14.146484375h11.1220703125v-1.7495117188h-11.1220703125v-1.7993164062h13.4208984375v5.2983398438h-11.1220703125v1.875h11.7724609375v1.82421875h-13.021484375c-.650390625,0-1.0498046875-.2749023438-1.0498046875-.8999023438v-4.548828125Z"/><path class="cls-1" d="m227.1904296875,160.7846679688h11.3720703125v1.849609375h-11.3720703125v-1.849609375Z"/><path class="cls-1" d="m12.3173828125,191.0346679688c-2.57421875-.8745117188-4.6982421875-2.6743164062-5.2734375-4.7490234375-.5751953125,2.224609375-2.599609375,4.1240234375-5.4482421875,5.19921875l-1.0498046875-1.8999023438c3.3984375-1.3247070312,5.248046875-3.5239257812,5.248046875-7.1479492188v-1.1499023438h2.3251953125v.974609375c0,3.6743164062,1.7744140625,5.5737304688,5.2236328125,6.8984375-.3251953125.625-.6748046875,1.2495117188-1.025390625,1.8745117188Zm-7.0234375,5.423828125h10.6474609375v-2.0244140625H5.2939453125v-1.849609375h12.947265625v5.6733398438H7.59375v2.1494140625h11.296875v1.8745117188H6.34375c-.6494140625,0-1.0498046875-.2749023438-1.0498046875-.8994140625v-4.923828125Zm10.6474609375-5.0986328125v-10.7973632812h2.2998046875v10.7973632812h-2.2998046875Z"/><path class="cls-1" d="m36.3115234375,202.0571289062v-11.6723632812h-4.349609375v5.9985351562h-8.84765625c-.6494140625,0-1.0244140625-.2749023438-1.0244140625-.8994140625v-13.072265625h2.2490234375v4.798828125h5.3740234375v-4.798828125h2.2490234375v5.9487304688h4.349609375v-7.7978515625h2.298828125v21.4946289062h-2.298828125Zm-6.5986328125-7.6733398438v-5.173828125h-5.3740234375v5.173828125h5.3740234375Z"/><path class="cls-1" d="m64.2861328125,193.6088867188v-5.6733398438h-2.7998046875v5.5483398438h-2.19921875v-2.0244140625c-1.599609375.9248046875-3.8740234375.9750976562-6.4736328125.9750976562h-4.5732421875v-1.9248046875h2.099609375c-.400390625-.8999023438-.5498046875-1.8247070312-.5498046875-2.9990234375v-2.474609375h2.173828125v3.0244140625c0,.8999023438.025390625,1.6743164062.2001953125,2.44921875h1.0751953125c.32421875,0,.6494140625,0,.9990234375-.0249023438.150390625-.7749023438.2001953125-1.5244140625.2001953125-2.4243164062v-3.0244140625h2.19921875v2.474609375c0,1.1494140625-.1748046875,2.07421875-.5498046875,2.9243164062,1.1748046875-.0751953125,2.2744140625-.2749023438,3.19921875-.6748046875v-8.9482421875h2.19921875v5.1489257812h2.7998046875v-5.3984375h2.224609375v13.0463867188h-2.224609375Zm-15.6708984375-9.6474609375v-1.974609375h9.1728515625v1.974609375h-9.1728515625Zm15.595703125,18.3203125v-5.1733398438h-11.697265625v-1.9995117188h13.9970703125v7.1728515625h-2.2998046875Z"/><path class="cls-1" d="m69.087890625,197.4829101562h8.6474609375v-3.8237304688h-4.548828125c-.6494140625,0-1.0498046875-.25-1.0498046875-.875v-10.3974609375h13.5224609375v1.974609375h-11.22265625v2.69921875h10.7978515625v1.8745117188h-10.7978515625v2.7744140625h11.572265625v1.9497070312h-5.9482421875v3.8237304688h8.6474609375v2h-19.6201171875v-2Z"/><path class="cls-1" d="m104.7490234375,202.0571289062v-7.0483398438c-1.82421875,1.1748046875-4.5986328125,1.4995117188-7.4482421875,1.4995117188h-5.5478515625c-.650390625,0-1.025390625-.2749023438-1.025390625-.8999023438v-7.1479492188h7.5732421875v-3.7744140625h-7.5732421875v-1.9990234375h9.84765625v7.748046875h-7.5478515625v4.0737304688h4.7734375c2.6494140625,0,5.2490234375-.25,6.9482421875-1.1997070312v-12.7465820312h2.2998046875v21.4946289062h-2.2998046875Z"/><path class="cls-1" d="m121.302734375,201.4321289062v-11.1723632812h-2.07421875c-.2255859375,3.5244140625-1.7001953125,5.9736328125-4.57421875,5.9736328125-3.1240234375,0-4.6484375-2.8491210938-4.6484375-6.8984375,0-4.0737304688,1.5244140625-6.8979492188,4.6484375-6.8979492188,2.849609375,0,4.32421875,2.4243164062,4.548828125,5.8232421875h2.099609375v-7.3232421875h2.19921875v20.4951171875h-2.19921875Zm-4.19921875-12.0971679688c0-2.7739257812-.7744140625-4.923828125-2.44921875-4.923828125-1.69921875,0-2.44921875,2.1499023438-2.44921875,4.923828125,0,2.7495117188.75,4.8989257812,2.44921875,4.8989257812,1.6748046875,0,2.44921875-2.1494140625,2.44921875-4.8989257812Zm8.748046875,12.7221679688v-21.4946289062h2.224609375v21.4946289062h-2.224609375Z"/><path class="cls-1" d="m151.9521484375,197.8330078125v-3.5991210938c-1.7001953125.9248046875-4.099609375,1.1748046875-6.5986328125,1.1997070312h-8.2978515625v-1.8745117188h5.623046875v-1.6748046875c-2.298828125-.3247070312-3.7490234375-1.7744140625-3.7490234375-3.6987304688,0-.7998046875.3505859375-1.4497070312.900390625-1.9497070312h-2.2001953125v-1.7495117188h12.3974609375v1.7495117188h-2.2490234375c.599609375.5.9248046875,1.1499023438.9248046875,1.9497070312,0,1.9243164062-1.4248046875,3.3740234375-3.724609375,3.6987304688v1.6748046875h.7998046875c2.2998046875,0,4.548828125-.1997070312,6.173828125-.8999023438v-12.0966796875h2.32421875v7.3979492188h3.1240234375v2.0244140625h-3.1240234375v7.8481445312h-2.32421875Zm-11.59765625-16.6459960938h6.9482421875v1.8247070312h-6.9482421875v-1.8247070312Zm.6748046875,15.771484375h2.2998046875v3.1240234375h11.7216796875v1.974609375h-12.9716796875c-.6494140625,0-1.0498046875-.25-1.0498046875-.875v-4.2236328125Zm2.7998046875-6.7485351562c1.6240234375,0,2.6494140625-.8247070312,2.6494140625-2.0244140625,0-1.1748046875-.974609375-2.0244140625-2.6494140625-2.0244140625-1.6494140625,0-2.6748046875.849609375-2.6748046875,2.0244140625,0,1.1997070312,1.025390625,2.0244140625,2.6748046875,2.0244140625Z"/><path class="cls-1" d="m174.1396484375,192.859375v-2.9243164062h-4.673828125c-.974609375,1.224609375-2.5498046875,1.974609375-4.548828125,1.974609375-3.44921875,0-5.69921875-2.1748046875-5.69921875-5.1987304688,0-2.9995117188,2.25-5.173828125,5.69921875-5.173828125,2.0986328125,0,3.7490234375.8247070312,4.673828125,2.1494140625h4.548828125v-3.1240234375h2.298828125v12.296875h-2.298828125Zm-9.22265625-2.94921875c2.048828125,0,3.3984375-1.3247070312,3.3984375-3.19921875,0-1.849609375-1.349609375-3.19921875-3.3984375-3.19921875-2.0244140625,0-3.375,1.349609375-3.375,3.19921875,0,1.8745117188,1.3505859375,3.19921875,3.375,3.19921875Zm-1.625,8.2729492188c0-2.6743164062,2.4248046875-4.5991210938,6.623046875-4.5991210938,4.19921875,0,6.5986328125,1.9248046875,6.5986328125,4.5991210938,0,2.6494140625-2.3994140625,4.548828125-6.5986328125,4.548828125-4.1982421875,0-6.623046875-1.8994140625-6.623046875-4.548828125Zm10.9228515625,0c0-1.5249023438-1.4755859375-2.599609375-4.2998046875-2.599609375-2.8486328125,0-4.3232421875,1.0747070312-4.3232421875,2.599609375,0,1.4497070312,1.474609375,2.5493164062,4.3232421875,2.5493164062,2.82421875,0,4.2998046875-1.099609375,4.2998046875-2.5493164062Zm-3.7998046875-10.22265625h3.724609375v-2.2993164062h-3.69921875c.099609375.349609375.125.6997070312.125,1.0498046875,0,.4497070312-.0498046875.849609375-.150390625,1.2495117188Z"/><path class="cls-1" d="m179.115234375,184.6860351562h12.7470703125v1.8999023438h-2.4990234375c.724609375.599609375,1.1748046875,1.4497070312,1.1748046875,2.44921875,0,2.3745117188-2,4.173828125-5.048828125,4.173828125-3.0498046875,0-5.048828125-1.7993164062-5.048828125-4.173828125,0-.9995117188.3994140625-1.849609375,1.1494140625-2.44921875h-2.474609375v-1.8999023438Zm2.849609375-3.6489257812h7.0478515625v1.974609375h-7.0478515625v-1.974609375Zm3.5244140625,10.2973632812c1.724609375,0,2.82421875-.9995117188,2.82421875-2.2993164062s-1.0498046875-2.32421875-2.82421875-2.32421875c-1.724609375,0-2.82421875,1.0244140625-2.82421875,2.32421875s1.099609375,2.2993164062,2.82421875,2.2993164062Zm-.9501953125,10.8974609375c-.6494140625,0-1.0498046875-.2749023438-1.0498046875-.8999023438v-7.0732421875h2.2998046875v1.8745117188h8.2978515625v-1.8745117188h2.2998046875v7.9731445312h-11.84765625Zm1.25-2.0244140625h8.2978515625v-2.1245117188h-8.2978515625v2.1245117188Zm8.2978515625-7.0732421875v-12.5717773438h2.2998046875v5.3735351562h3.19921875v2.0244140625h-3.19921875v5.173828125h-2.2998046875Z"/><path class="cls-1" d="m215.8662109375,202.0571289062v-7.623046875c-1.82421875,1.1743164062-4.6484375,1.4995117188-7.498046875,1.4995117188h-5.498046875c-.650390625,0-1.025390625-.25-1.025390625-.875v-12.5717773438h2.2998046875v11.4223632812h4.7490234375c2.6494140625,0,5.298828125-.25,6.97265625-1.1997070312v-12.1469726562h2.2998046875v21.4946289062h-2.2998046875Z"/><path class="cls-1" d="m235.77734375,202.0571289062v-7.4233398438c-1.82421875,1.1748046875-4.6240234375,1.474609375-7.4736328125,1.474609375h-5.1484375c-.6494140625,0-1.0498046875-.25-1.0498046875-.8745117188v-12.4970703125h10.123046875v2.0244140625h-7.8232421875v9.3227539062h5.248046875c2.224609375,0,4.6494140625-.3247070312,6.1240234375-1.1748046875v-12.3466796875h2.2998046875v7.623046875h3.19921875v2.0493164062h-3.19921875v11.822265625h-2.2998046875Z"/><path class="cls-1" d="m243.5400390625,200.4072265625h-1.349609375v-2.9741210938h2.974609375v2.6245117188l-1.349609375,4.1489257812h-1.5l1.224609375-3.7993164062Z"/><path class="cls-1" d="m253.44140625,197.533203125c2.1240234375-4.298828125,8.97265625-6.1733398438,8.97265625-10.1723632812,0-1.849609375-1.125-3.224609375-3.474609375-3.224609375-1.7744140625,0-2.94921875.9248046875-3.5234375,2.6743164062l-1.7998046875-.9497070312c.5751953125-1.7495117188,2.1494140625-3.8740234375,5.3984375-3.8740234375,3.599609375,0,5.7490234375,2.224609375,5.7490234375,5.298828125,0,5.2236328125-6.7734375,7.1733398438-8.2978515625,9.9477539062h8.572265625v2.0493164062h-11.5966796875v-1.7495117188Z"/><path class="cls-1" d="m266.9951171875,190.7846679688c0-5.2236328125,2.44921875-8.7978515625,6.8984375-8.7978515625,4.4482421875,0,6.8984375,3.57421875,6.8984375,8.7978515625s-2.4501953125,8.7978515625-6.8984375,8.7978515625c-4.44921875,0-6.8984375-3.57421875-6.8984375-8.7978515625Zm11.447265625,0c0-3.8989257812-1.375-6.6484375-4.548828125-6.6484375-3.1748046875,0-4.548828125,2.7495117188-4.548828125,6.6484375,0,3.8994140625,1.3740234375,6.6484375,4.548828125,6.6484375,3.173828125,0,4.548828125-2.7490234375,4.548828125-6.6484375Z"/><path class="cls-1" d="m286.30078125,184.861328125l-3.6240234375,2.0493164062-.849609375-1.7993164062,4.9736328125-2.8247070312h1.75v16.99609375h-2.25v-14.4213867188Z"/><path class="cls-1" d="m291.0283203125,196.7333984375l1.400390625-1.5747070312c.9248046875,1.125,2.2744140625,2.2744140625,4.4990234375,2.2744140625,2.423828125,0,4.298828125-1.4497070312,4.298828125-3.8740234375,0-2.2993164062-1.625-3.6489257812-3.849609375-3.6489257812-1.57421875,0-2.673828125.474609375-3.6240234375,1.2495117188l-1.3740234375-.474609375.0244140625-.125.8251953125-8.2734375h9.34765625v2.0498046875h-7.3486328125l-.474609375,3.9990234375c.7744140625-.3251953125,1.6748046875-.5747070312,2.7490234375-.5747070312,3.349609375,0,6.048828125,1.9995117188,6.048828125,5.7983398438,0,3.69921875-2.7998046875,6.0234375-6.623046875,6.0234375-2.974609375,0-4.82421875-1.599609375-5.8994140625-2.8491210938Z"/><rect class="cls-2" width="541.6689453125" height="204.2065429688"/></g></svg>