<?xml version="1.0" encoding="UTF-8"?><svg id="_레이어_2" xmlns="http://www.w3.org/2000/svg" viewBox="0 0 541.6689453125 153.3530273438"><defs><style>.cls-1{fill:#ffe800;}.cls-2{fill:none;}</style></defs><g id="Layer_1"><path class="cls-1" d="m4.482421875,1.6201171875h6.6416015625l13.0146484375,30.3486328125L37.15234375,1.6201171875h6.642578125v36.720703125h-4.96875V9.2880859375l-12.419921875,29.052734375h-4.5361328125L9.4501953125,9.2880859375v29.052734375h-4.9677734375V1.6201171875Z"/><path class="cls-1" d="m49.5224609375,24.8408203125c0-7.830078125,5.2919921875-14.1484375,13.9326171875-14.1484375,8.6396484375,0,13.931640625,6.318359375,13.931640625,14.1484375,0,7.7763671875-5.2919921875,14.1484375-13.931640625,14.1484375-8.640625,0-13.9326171875-6.3720703125-13.9326171875-14.1484375Zm22.896484375,0c0-5.9404296875-3.9423828125-9.720703125-8.9638671875-9.720703125-5.0224609375,0-8.9638671875,3.7802734375-8.9638671875,9.720703125,0,5.939453125,3.94140625,9.7197265625,8.9638671875,9.7197265625,5.021484375,0,8.9638671875-3.7802734375,8.9638671875-9.7197265625Z"/><path class="cls-1" d="m82.267578125,11.2861328125h4.8603515625v4.1044921875c1.404296875-2.3759765625,4.3740234375-4.6982421875,8.91015625-4.6982421875,7.0205078125,0,10.74609375,4.5361328125,10.74609375,11.8798828125v15.7685546875h-4.859375v-15.2822265625c0-5.1845703125-2.5927734375-7.9384765625-7.1826171875-7.9384765625-4.0498046875,0-6.8037109375,2.5927734375-7.6142578125,5.5625v17.658203125h-4.8603515625V11.2861328125Z"/><path class="cls-1" d="m124.65625,19.98046875c0-10.6923828125,7.72265625-19.0078125,18.4150390625-19.0078125,10.69140625,0,18.4140625,8.3154296875,18.4140625,19.0078125s-7.72265625,19.0087890625-18.4140625,19.0087890625c-10.6923828125,0-18.4150390625-8.31640625-18.4150390625-19.0087890625Zm31.69921875,0c0-8.099609375-5.23828125-14.310546875-13.2841796875-14.310546875-8.046875,0-13.2841796875,6.2109375-13.2841796875,14.310546875,0,8.1005859375,5.2373046875,14.310546875,13.2841796875,14.310546875,8.0458984375,0,13.2841796875-6.2099609375,13.2841796875-14.310546875Z"/><path class="cls-1" d="m166.8837890625,11.2861328125h4.8603515625v4.1044921875c1.404296875-2.3759765625,4.3740234375-4.6982421875,8.91015625-4.6982421875,7.0205078125,0,10.74609375,4.5361328125,10.74609375,11.8798828125v15.7685546875h-4.859375v-15.2822265625c0-5.1845703125-2.5927734375-7.9384765625-7.1826171875-7.9384765625-4.0498046875,0-6.8037109375,2.5927734375-7.6142578125,5.5625v17.658203125h-4.8603515625V11.2861328125Z"/><path class="cls-1" d="m195.9619140625,24.7861328125c0-7.775390625,5.400390625-14.09375,13.82421875-14.09375,5.3466796875,0,9.5048828125,2.591796875,11.9345703125,6.8583984375l-3.6181640625,2.5380859375c-1.6201171875-3.0244140625-4.5361328125-4.96875-8.154296875-4.96875-5.18359375,0-9.017578125,3.7265625-9.017578125,9.666015625,0,5.994140625,3.833984375,9.720703125,9.017578125,9.720703125,3.6181640625,0,6.5341796875-1.9443359375,8.154296875-4.9677734375l3.6181640625,2.5380859375c-2.4296875,4.265625-6.587890625,6.857421875-11.9345703125,6.857421875-8.423828125,0-13.82421875-6.3173828125-13.82421875-14.1484375Z"/><path class="cls-1" d="m225.931640625,0h4.8603515625v38.3408203125h-4.8603515625V0Z"/><path class="cls-1" d="m235.701171875,24.8408203125c0-8.3701171875,5.5078125-14.1484375,13.337890625-14.1484375,7.7763671875,0,12.9599609375,5.7783203125,12.9599609375,13.2841796875,0,.755859375-.107421875,1.7822265625-.2158203125,2.5380859375h-21.16796875c.59375,4.9140625,3.779296875,8.1005859375,9.017578125,8.1005859375,3.6181640625,0,6.912109375-1.9443359375,8.802734375-4.7529296875l2.9697265625,3.078125c-2.7001953125,3.6181640625-6.8046875,6.048828125-11.98828125,6.048828125-8.26171875,0-13.7158203125-6.1025390625-13.7158203125-14.1484375Zm4.9677734375-2.3759765625h16.416015625c-.32421875-4.64453125-3.671875-7.5068359375-8.0458984375-7.5068359375-4.427734375,0-7.6142578125,2.7548828125-8.3701171875,7.5068359375Z"/><path class="cls-1" d="m269.03515625,40.7705078125h-2.916015625v-6.42578125h6.42578125v5.669921875l-2.916015625,8.9638671875h-3.2392578125l2.6455078125-8.2080078125Z"/><path class="cls-1" d="m9.666015625,66.3828125l-7.830078125,4.427734375-1.8359375-3.8876953125,10.74609375-6.1025390625h3.7802734375v36.720703125h-4.8603515625v-31.158203125Z"/><path class="cls-1" d="m49.0048828125,78.2626953125c0,12.5283203125-6.3720703125,19.9267578125-16.25390625,19.9267578125-5.6162109375,0-9.666015625-2.8623046875-11.9345703125-6.318359375l3.4560546875-2.916015625c1.728515625,2.75390625,4.751953125,4.58984375,8.478515625,4.58984375,6.3720703125,0,10.74609375-4.8056640625,11.232421875-12.90625-2.21484375,3.078125-5.83203125,5.400390625-10.4228515625,5.400390625-7.07421875,0-12.9599609375-5.2919921875-12.9599609375-12.90625,0-7.505859375,6.15625-12.9599609375,13.7158203125-12.9599609375,9.55859375,0,14.6884765625,7.34375,14.6884765625,18.08984375Zm-23.3818359375-5.18359375c0,4.4814453125,3.4013671875,8.3154296875,8.6396484375,8.3154296875s8.640625-3.833984375,8.640625-8.3154296875c0-4.482421875-3.40234375-8.2626953125-8.640625-8.2626953125s-8.6396484375,3.7802734375-8.6396484375,8.2626953125Z"/><path class="cls-1" d="m51.6064453125,92.033203125l3.0244140625-3.40234375c1.998046875,2.4296875,4.9140625,4.9140625,9.7197265625,4.9140625,5.23828125,0,9.2880859375-3.1318359375,9.2880859375-8.3701171875,0-4.9677734375-3.509765625-7.8837890625-8.3154296875-7.8837890625-3.40234375,0-5.7783203125,1.025390625-7.830078125,2.7001953125l-2.970703125-1.0263671875.0546875-.2705078125,1.78125-17.8740234375h20.1962890625v4.427734375h-15.8759765625l-1.0263671875,8.640625c1.6748046875-.7021484375,3.6181640625-1.2421875,5.9404296875-1.2421875,7.236328125,0,13.068359375,4.3203125,13.068359375,12.5283203125,0,7.9921875-6.0478515625,13.0146484375-14.310546875,13.0146484375-6.42578125,0-10.421875-3.4560546875-12.744140625-6.15625Z"/><path class="cls-1" d="m82.041015625,87.064453125c0-4.4814453125,2.916015625-8.3154296875,7.236328125-9.5576171875-3.34765625-1.56640625-4.9140625-4.3203125-4.9140625-7.72265625,0-5.2373046875,4.265625-9.611328125,12.150390625-9.611328125,7.8837890625,0,12.150390625,4.3740234375,12.150390625,9.611328125,0,3.40234375-1.56640625,6.15625-4.9140625,7.72265625,4.3193359375,1.2421875,7.2353515625,5.076171875,7.2353515625,9.5576171875,0,6.4267578125-5.1298828125,11.125-14.4716796875,11.125-9.3427734375,0-14.47265625-4.6982421875-14.47265625-11.125Zm23.9228515625-.3232421875c0-3.7802734375-3.2939453125-6.8046875-9.4501953125-6.8046875s-9.4501953125,3.0244140625-9.4501953125,6.8046875c0,3.8876953125,3.2939453125,6.912109375,9.4501953125,6.912109375s9.4501953125-3.0244140625,9.4501953125-6.912109375Zm-2.322265625-16.740234375c0-3.294921875-3.078125-5.2919921875-7.1279296875-5.2919921875-4.05078125,0-7.1279296875,1.9970703125-7.1279296875,5.2919921875,0,3.34765625,3.0771484375,5.3994140625,7.1279296875,5.3994140625,4.0498046875,0,7.1279296875-2.0517578125,7.1279296875-5.3994140625Z"/><path class="cls-1" d="m15.41015625,151.2036132812v-7.623046875c-2.0498046875,1.3247070312-5.1240234375,1.4995117188-8.3984375,1.4995117188H2.7626953125c-.6494140625,0-1.0244140625-.25-1.0244140625-.875v-12.5717773438h2.2998046875v11.4223632812h4.4482421875c2.625,0,5.2490234375-.2749023438,6.923828125-1.1997070312v-12.1469726562h2.2998046875v7.5229492188h3.19921875v2.0244140625h-3.19921875v11.947265625h-2.2998046875Z"/><path class="cls-1" d="m37.4169921875,151.2036132812v-5.8735351562c-2.1240234375,1.1748046875-5.498046875,1.224609375-8.6728515625,1.224609375h-6.5732421875v-2.0493164062h7.72265625c2.6748046875,0,5.673828125-.0502929688,7.5234375-.8999023438v-13.896484375h2.32421875v21.4946289062h-2.32421875Zm-8.623046875-20.3203125c3.4990234375,0,5.798828125,2.224609375,5.798828125,5.2241210938,0,2.9990234375-2.2998046875,5.2236328125-5.798828125,5.2236328125s-5.8232421875-2.224609375-5.8232421875-5.2236328125c0-2.9995117188,2.32421875-5.2241210938,5.8232421875-5.2241210938Zm0,8.4482421875c2.0751953125,0,3.5244140625-1.349609375,3.5244140625-3.2241210938s-1.44921875-3.224609375-3.5244140625-3.224609375c-2.07421875,0-3.5234375,1.3500976562-3.5234375,3.224609375s1.44921875,3.2241210938,3.5234375,3.2241210938Z"/><path class="cls-1" d="m60.7431640625,141.0307617188c-2.724609375-1.0244140625-4.69921875-2.9741210938-5.2236328125-5.0483398438-.5751953125,2.2495117188-2.5244140625,4.3486328125-5.3740234375,5.4985351562-.375-.6000976562-.75-1.25-1.125-1.8745117188,3.4248046875-1.4248046875,5.2490234375-3.94921875,5.2490234375-7.623046875v-1.4497070312h2.32421875v1.2495117188c0,3.6743164062,1.724609375,5.8984375,5.2236328125,7.3984375l-1.07421875,1.8491210938Zm-7.2734375,2.0747070312h12.8974609375v8.2231445312h-11.84765625c-.6494140625,0-1.0498046875-.2749023438-1.0498046875-.8999023438v-7.3232421875Zm2.2998046875,6.1987304688h8.2978515625v-4.19921875h-8.2978515625v4.19921875Zm8.2978515625-7.6484375v-11.9467773438h2.2998046875v4.9736328125h3.19921875v2.0244140625h-3.19921875v4.9487304688h-2.2998046875Z"/><path class="cls-1" d="m69.6689453125,142.2055664062h8.6474609375v-2.4741210938h2.3251953125v2.4741210938h8.6474609375v1.8745117188h-19.6201171875v-1.8745117188Zm17.0205078125-1.7993164062c-2.9736328125-.2250976562-6.2978515625-1.4497070312-7.1474609375-3.3491210938-.875,1.94921875-4.19921875,3.1489257812-7.2734375,3.4741210938-.125-.6000976562-.275390625-1.1997070312-.4248046875-1.7998046875,2.923828125-.2998046875,5.8232421875-1.3247070312,6.3232421875-3.423828125h-5.5234375v-1.75h13.6708984375v1.75h-5.5478515625c.5498046875,2.0991210938,3.44921875,3.0239257812,6.373046875,3.298828125l-.4501953125,1.7998046875Zm-13.9208984375,5.298828125h2.298828125v3.5991210938h11.5224609375v1.94921875h-12.771484375c-.650390625,0-1.0498046875-.2749023438-1.0498046875-.8999023438v-4.6484375Zm2.7236328125-15.4462890625h7.998046875v1.7993164062h-7.998046875v-1.7993164062Z"/><path class="cls-1" d="m91.9052734375,149.5537109375h-1.349609375v-2.9741210938h2.974609375v2.6245117188l-1.349609375,4.1489257812h-1.5l1.224609375-3.7993164062Z"/><path class="cls-1" d="m105.48046875,134.0078125l-3.6240234375,2.0493164062-.849609375-1.7993164062,4.9736328125-2.8247070312h1.7490234375v16.99609375h-2.2490234375v-14.4213867188Z"/><path class="cls-1" d="m124.0224609375,139.5063476562c0,5.798828125-2.94921875,9.22265625-7.5224609375,9.22265625-2.599609375,0-4.474609375-1.3247070312-5.5244140625-2.9243164062l1.599609375-1.349609375c.80078125,1.2749023438,2.2001953125,2.1245117188,3.9248046875,2.1245117188,2.94921875,0,4.9736328125-2.224609375,5.1982421875-5.9736328125-1.0244140625,1.4248046875-2.69921875,2.4995117188-4.8232421875,2.4995117188-3.2744140625,0-5.9990234375-2.44921875-5.9990234375-5.9736328125,0-3.4741210938,2.849609375-5.9985351562,6.3486328125-5.9985351562,4.423828125,0,6.7978515625,3.3994140625,6.7978515625,8.373046875Zm-10.822265625-2.3994140625c0,2.0747070312,1.5751953125,3.8491210938,3.9990234375,3.8491210938,2.4248046875,0,3.9990234375-1.7744140625,3.9990234375-3.8491210938,0-2.07421875-1.57421875-3.82421875-3.9990234375-3.82421875-2.423828125,0-3.9990234375,1.75-3.9990234375,3.82421875Z"/><path class="cls-1" d="m125.568359375,145.8798828125l1.400390625-1.5747070312c.9248046875,1.125,2.2744140625,2.2744140625,4.4990234375,2.2744140625,2.423828125,0,4.298828125-1.4497070312,4.298828125-3.8740234375,0-2.2993164062-1.625-3.6489257812-3.849609375-3.6489257812-1.57421875,0-2.673828125.474609375-3.6240234375,1.2495117188l-1.3740234375-.474609375.0244140625-.125.8251953125-8.2734375h9.34765625v2.0498046875h-7.3486328125l-.474609375,3.9990234375c.7744140625-.3251953125,1.6748046875-.5747070312,2.7490234375-.5747070312,3.349609375,0,6.048828125,1.9995117188,6.048828125,5.7983398438,0,3.69921875-2.7998046875,6.0234375-6.623046875,6.0234375-2.974609375,0-4.82421875-1.599609375-5.8994140625-2.8491210938Z"/><path class="cls-1" d="m139.9931640625,143.5805664062c0-2.0747070312,1.349609375-3.8491210938,3.349609375-4.4243164062-1.5498046875-.724609375-2.2744140625-1.9995117188-2.2744140625-3.5737304688,0-2.4248046875,1.974609375-4.44921875,5.623046875-4.44921875,3.6494140625,0,5.6240234375,2.0244140625,5.6240234375,4.44921875,0,1.57421875-.724609375,2.8491210938-2.2744140625,3.5737304688,2,.5751953125,3.349609375,2.349609375,3.349609375,4.4243164062,0,2.9741210938-2.375,5.1484375-6.69921875,5.1484375-4.3232421875,0-6.6982421875-2.1743164062-6.6982421875-5.1484375Zm11.072265625-.150390625c0-1.7495117188-1.5244140625-3.1489257812-4.3740234375-3.1489257812-2.8486328125,0-4.373046875,1.3994140625-4.373046875,3.1489257812,0,1.7998046875,1.5244140625,3.19921875,4.373046875,3.19921875,2.849609375,0,4.3740234375-1.3994140625,4.3740234375-3.19921875Zm-1.07421875-7.748046875c0-1.5244140625-1.4248046875-2.44921875-3.2998046875-2.44921875-1.8740234375,0-3.298828125.9248046875-3.298828125,2.44921875,0,1.5498046875,1.4248046875,2.4995117188,3.298828125,2.4995117188,1.875,0,3.2998046875-.9497070312,3.2998046875-2.4995117188Z"/><rect class="cls-2" width="541.6689453125" height="153.3266601562"/></g></svg>