<?xml version="1.0" encoding="UTF-8"?><svg id="_레이어_2" xmlns="http://www.w3.org/2000/svg" viewBox="0 0 541.6689453125 154.0551757812"><defs><style>.cls-1{fill:#ffe800;}.cls-2{fill:none;}</style></defs><g id="Layer_1"><path class="cls-1" d="m13.986328125,23.3291015625L0,2.484375v-.162109375h5.83203125l10.6376953125,16.0380859375L27.1083984375,2.322265625h5.77734375v.162109375l-13.931640625,20.8447265625v15.7138671875h-4.9677734375v-15.7138671875Z"/><path class="cls-1" d="m29.9951171875,25.54296875c0-7.830078125,5.2919921875-14.1484375,13.9326171875-14.1484375,8.6396484375,0,13.931640625,6.318359375,13.931640625,14.1484375,0,7.7763671875-5.2919921875,14.1484375-13.931640625,14.1484375-8.640625,0-13.9326171875-6.3720703125-13.9326171875-14.1484375Zm22.896484375,0c0-5.9404296875-3.9423828125-9.720703125-8.9638671875-9.720703125-5.0224609375,0-8.9638671875,3.7802734375-8.9638671875,9.720703125,0,5.939453125,3.94140625,9.7197265625,8.9638671875,9.7197265625,5.021484375,0,8.9638671875-3.7802734375,8.9638671875-9.7197265625Z"/><path class="cls-1" d="m58.1572265625,46.1708984375c2.861328125-2.2138671875,4.3193359375-4.3203125,4.3193359375-8.2080078125V11.98828125h4.8603515625v26.13671875c0,5.994140625-2.4833984375,9.234375-6.318359375,11.5556640625l-2.861328125-3.509765625ZM62.2607421875,0h5.23828125v5.83203125h-5.23828125V0Z"/><path class="cls-1" d="m73.4814453125,0h5.23828125v5.83203125h-5.23828125V0Zm.2158203125,11.98828125h4.8603515625v27.0546875h-4.8603515625V11.98828125Z"/><path class="cls-1" d="m83.298828125,24.5703125c0-7.830078125,5.0751953125-13.17578125,12.6357421875-13.17578125,3.833984375,0,6.8037109375,1.673828125,8.8564453125,4.265625v-3.671875h4.859375v23.490234375c0,9.3427734375-6.3720703125,14.0947265625-13.4453125,14.0947265625-5.9404296875,0-10.044921875-2.3759765625-12.3125-6.0478515625l3.185546875-2.970703125c1.9443359375,2.916015625,4.9140625,4.5908203125,8.96484375,4.5908203125,4.697265625,0,8.748046875-2.970703125,8.748046875-9.3427734375v-2.2138671875c-2.052734375,2.591796875-5.076171875,4.2119140625-8.8564453125,4.2119140625-7.560546875,0-12.6357421875-5.345703125-12.6357421875-13.23046875Zm21.4921875,3.99609375v-7.9375c-1.404296875-2.916015625-4.3203125-4.806640625-7.884765625-4.806640625-5.1298828125,0-8.6396484375,3.564453125-8.6396484375,8.748046875,0,5.23828125,3.509765625,8.802734375,8.6396484375,8.802734375,3.564453125,0,6.48046875-1.890625,7.884765625-4.806640625Z"/><path class="cls-1" d="m114.5537109375,25.54296875c0-8.3701171875,5.5078125-14.1484375,13.337890625-14.1484375,7.7763671875,0,12.9599609375,5.7783203125,12.9599609375,13.2841796875,0,.755859375-.107421875,1.7822265625-.2158203125,2.5380859375h-21.16796875c.59375,4.9140625,3.779296875,8.1005859375,9.017578125,8.1005859375,3.6181640625,0,6.912109375-1.9443359375,8.802734375-4.7529296875l2.9697265625,3.078125c-2.7001953125,3.6181640625-6.8046875,6.048828125-11.98828125,6.048828125-8.26171875,0-13.7158203125-6.1025390625-13.7158203125-14.1484375Zm4.9677734375-2.3759765625h16.416015625c-.32421875-4.64453125-3.671875-7.5068359375-8.0458984375-7.5068359375-4.427734375,0-7.6142578125,2.7548828125-8.3701171875,7.5068359375Z"/><path class="cls-1" d="m145.6298828125,11.98828125h4.8603515625v4.1044921875c1.404296875-2.3759765625,4.3740234375-4.6982421875,8.91015625-4.6982421875,7.0205078125,0,10.74609375,4.5361328125,10.74609375,11.8798828125v15.7685546875h-4.859375v-15.2822265625c0-5.1845703125-2.5927734375-7.9384765625-7.1826171875-7.9384765625-4.0498046875,0-6.8037109375,2.5927734375-7.6142578125,5.5625v17.658203125h-4.8603515625V11.98828125Z"/><path class="cls-1" d="m190.3955078125,2.322265625h14.0400390625c7.775390625,0,12.5283203125,3.8876953125,12.5283203125,11.0703125,0,7.1279296875-4.7529296875,10.9619140625-12.5283203125,10.9619140625h-9.072265625v14.6884765625h-4.9677734375V2.322265625Zm13.4453125,17.6044921875c5.3466796875,0,7.9921875-2.16015625,7.9921875-6.5341796875,0-4.427734375-2.6455078125-6.642578125-7.9921875-6.642578125h-8.4775390625v13.1767578125h8.4775390625Z"/><path class="cls-1" d="m218.8359375,25.54296875c0-7.830078125,5.2919921875-14.1484375,13.9326171875-14.1484375,8.6396484375,0,13.931640625,6.318359375,13.931640625,14.1484375,0,7.7763671875-5.2919921875,14.1484375-13.931640625,14.1484375-8.640625,0-13.9326171875-6.3720703125-13.9326171875-14.1484375Zm22.896484375,0c0-5.9404296875-3.9423828125-9.720703125-8.9638671875-9.720703125-5.0224609375,0-8.9638671875,3.7802734375-8.9638671875,9.720703125,0,5.939453125,3.94140625,9.7197265625,8.9638671875,9.7197265625,5.021484375,0,8.9638671875-3.7802734375,8.9638671875-9.7197265625Z"/><path class="cls-1" d="m251.5810546875.7021484375h4.8603515625v24.0849609375l12.63671875-12.798828125h5.7236328125v.2158203125l-10.7998046875,11.0166015625,12.3115234375,15.66015625v.162109375h-5.83203125l-9.666015625-12.58203125-4.3740234375,4.4814453125v8.1005859375h-4.8603515625V.7021484375Z"/><path class="cls-1" d="m275.8486328125,25.54296875c0-8.3701171875,5.5078125-14.1484375,13.337890625-14.1484375,7.7763671875,0,12.9599609375,5.7783203125,12.9599609375,13.2841796875,0,.755859375-.107421875,1.7822265625-.2158203125,2.5380859375h-21.16796875c.59375,4.9140625,3.779296875,8.1005859375,9.017578125,8.1005859375,3.6181640625,0,6.912109375-1.9443359375,8.802734375-4.7529296875l2.9697265625,3.078125c-2.7001953125,3.6181640625-6.8046875,6.048828125-11.98828125,6.048828125-8.26171875,0-13.7158203125-6.1025390625-13.7158203125-14.1484375Zm4.9677734375-2.3759765625h16.416015625c-.32421875-4.64453125-3.671875-7.5068359375-8.0458984375-7.5068359375-4.427734375,0-7.6142578125,2.7548828125-8.3701171875,7.5068359375Z"/><path class="cls-1" d="m308.0654296875,29.5390625v-13.5546875h-4.6982421875v-3.99609375h4.8056640625v-7.01953125h4.7529296875v7.01953125h6.6416015625v3.99609375h-6.6416015625v13.716796875c0,3.99609375,1.78125,5.3994140625,5.77734375,5.3994140625h.8642578125v3.99609375c-.59375.1083984375-1.404296875.2158203125-2.16015625.2158203125-6.15625,0-9.341796875-3.0234375-9.341796875-9.7734375Z"/><path class="cls-1" d="m326.5869140625,29.5390625v-13.5546875h-4.6982421875v-3.99609375h4.8056640625v-7.01953125h4.7529296875v7.01953125h6.6416015625v3.99609375h-6.6416015625v13.716796875c0,3.99609375,1.78125,5.3994140625,5.77734375,5.3994140625h.8642578125v3.99609375c-.59375.1083984375-1.404296875.2158203125-2.16015625.2158203125-6.15625,0-9.341796875-3.0234375-9.341796875-9.7734375Z"/><path class="cls-1" d="m339.5244140625,25.54296875c0-7.830078125,5.2919921875-14.1484375,13.9326171875-14.1484375,8.6396484375,0,13.931640625,6.318359375,13.931640625,14.1484375,0,7.7763671875-5.2919921875,14.1484375-13.931640625,14.1484375-8.640625,0-13.9326171875-6.3720703125-13.9326171875-14.1484375Zm22.896484375,0c0-5.9404296875-3.9423828125-9.720703125-8.9638671875-9.720703125-5.0224609375,0-8.9638671875,3.7802734375-8.9638671875,9.720703125,0,5.939453125,3.94140625,9.7197265625,8.9638671875,9.7197265625,5.021484375,0,8.9638671875-3.7802734375,8.9638671875-9.7197265625Z"/><path class="cls-1" d="m373.8466796875,41.47265625h-2.916015625v-6.42578125h6.42578125v5.669921875l-2.916015625,8.9638671875h-3.2392578125l2.6455078125-8.2080078125Z"/><path class="cls-1" d="m4.158203125,61.5224609375h6.6416015625l13.0146484375,30.3486328125,13.013671875-30.3486328125h6.642578125v36.720703125h-4.96875v-29.052734375l-12.419921875,29.052734375h-4.5361328125l-12.419921875-29.052734375v29.052734375h-4.9677734375v-36.720703125Z"/><path class="cls-1" d="m71.7607421875,94.4091796875c-2.1064453125,2.7001953125-5.400390625,4.427734375-9.234375,4.427734375-7.6142578125,0-13.23046875-5.7236328125-13.23046875-14.1484375,0-8.3701171875,5.6162109375-14.09375,13.23046875-14.09375,3.833984375,0,7.1279296875,1.728515625,9.234375,4.427734375v-3.833984375h4.8603515625v27.0546875h-4.8603515625v-3.833984375Zm0-4.9677734375v-9.396484375c-1.404296875-3.0244140625-4.58984375-5.0224609375-8.3701171875-5.0224609375-5.076171875,0-9.1259765625,3.6728515625-9.1259765625,9.666015625,0,6.048828125,4.0498046875,9.720703125,9.1259765625,9.720703125,3.7802734375,0,6.9658203125-1.998046875,8.3701171875-4.9677734375Z"/><path class="cls-1" d="m103.9658203125,94.4091796875c-2.1064453125,2.7001953125-5.400390625,4.427734375-9.234375,4.427734375-7.6142578125,0-13.23046875-5.7236328125-13.23046875-14.1484375,0-8.3701171875,5.6162109375-14.09375,13.23046875-14.09375,3.833984375,0,7.1279296875,1.728515625,9.234375,4.427734375v-15.1201171875h4.8603515625v38.3408203125h-4.8603515625v-3.833984375Zm0-5.076171875v-9.1796875c-1.404296875-3.078125-4.58984375-5.130859375-8.3701171875-5.130859375-5.076171875,0-9.1259765625,3.6181640625-9.1259765625,9.666015625,0,6.1025390625,4.0498046875,9.720703125,9.1259765625,9.720703125,3.7802734375,0,6.9658203125-2.0517578125,8.3701171875-5.076171875Z"/><path class="cls-1" d="m115.2236328125,71.1884765625h4.8603515625v4.64453125c1.5126953125-2.970703125,4.3740234375-5.23828125,8.5322265625-5.23828125h.59375v4.6982421875c-4.3740234375.107421875-7.66796875,1.8896484375-9.1259765625,6.1015625v16.8486328125h-4.8603515625v-27.0546875Z"/><path class="cls-1" d="m132.3466796875,59.2001953125h5.23828125v5.83203125h-5.23828125v-5.83203125Zm.2158203125,11.98828125h4.8603515625v27.0546875h-4.8603515625v-27.0546875Z"/><path class="cls-1" d="m164.6005859375,94.4091796875c-2.1064453125,2.7001953125-5.400390625,4.427734375-9.234375,4.427734375-7.6142578125,0-13.23046875-5.7236328125-13.23046875-14.1484375,0-8.3701171875,5.6162109375-14.09375,13.23046875-14.09375,3.833984375,0,7.1279296875,1.728515625,9.234375,4.427734375v-15.1201171875h4.8603515625v38.3408203125h-4.8603515625v-3.833984375Zm0-5.076171875v-9.1796875c-1.404296875-3.078125-4.58984375-5.130859375-8.3701171875-5.130859375-5.076171875,0-9.1259765625,3.6181640625-9.1259765625,9.666015625,0,6.1025390625,4.0498046875,9.720703125,9.1259765625,9.720703125,3.7802734375,0,6.9658203125-2.0517578125,8.3701171875-5.076171875Z"/><path class="cls-1" d="m178.623046875,100.6728515625h-2.916015625v-6.42578125h6.42578125v5.669921875l-2.916015625,8.9638671875h-3.2392578125l2.6455078125-8.2080078125Z"/><path class="cls-1" d="m199.466796875,94.462890625c4.5908203125-9.2880859375,19.38671875-13.337890625,19.38671875-21.978515625,0-3.99609375-2.4296875-6.9658203125-7.505859375-6.9658203125-3.833984375,0-6.3720703125,1.998046875-7.6142578125,5.7783203125l-3.888671875-2.0517578125c1.2421875-3.7802734375,4.64453125-8.3701171875,11.6650390625-8.3701171875,7.775390625,0,12.419921875,4.8056640625,12.419921875,11.4482421875,0,11.2861328125-14.634765625,15.498046875-17.9287109375,21.4921875h18.5224609375v4.427734375h-25.056640625v-3.7802734375Z"/><path class="cls-1" d="m228.0048828125,79.8828125c0-11.2861328125,5.2919921875-19.0078125,14.904296875-19.0078125s14.904296875,7.7216796875,14.904296875,19.0078125-5.2919921875,19.0087890625-14.904296875,19.0087890625-14.904296875-7.72265625-14.904296875-19.0087890625Zm24.732421875,0c0-8.423828125-2.9697265625-14.3642578125-9.828125-14.3642578125s-9.828125,5.9404296875-9.828125,14.3642578125,2.9697265625,14.3642578125,9.828125,14.3642578125,9.828125-5.9404296875,9.828125-14.3642578125Z"/><path class="cls-1" d="m268.96875,67.0849609375l-7.830078125,4.427734375-1.8359375-3.8876953125,10.74609375-6.1025390625h3.7802734375v36.720703125h-4.8603515625v-31.158203125Z"/><path class="cls-1" d="m281.56640625,98.0810546875l15.6064453125-32.130859375h-19.4951171875v-4.427734375h25.0029296875v3.7265625l-15.66015625,32.994140625h-5.4541015625v-.162109375Z"/><path class="cls-1" d="m.439453125,147.08203125h4.8984375v-3.7993164062h2.2744140625v3.7993164062h5.2744140625v-3.7993164062h2.2744140625v3.7993164062h4.8984375v2.0244140625H.439453125v-2.0244140625Zm9.822265625-15.3715820312c3.94921875,0,7.0732421875,1.9497070312,7.0732421875,5.548828125s-3.1240234375,5.4985351562-7.0732421875,5.4985351562c-3.9736328125,0-7.09765625-1.8994140625-7.09765625-5.4985351562s3.1240234375-5.548828125,7.09765625-5.548828125Zm0,9.0727539062c2.625,0,4.7490234375-1.224609375,4.7490234375-3.5239257812,0-2.32421875-2.1240234375-3.5493164062-4.7490234375-3.5493164062-2.6494140625,0-4.7734375,1.2250976562-4.7734375,3.5493164062,0,2.2993164062,2.1240234375,3.5239257812,4.7734375,3.5239257812Z"/><path class="cls-1" d="m22.341796875,132.5356445312h10.8720703125v2.0244140625h-4.2734375c0,4.7236328125.8994140625,7.9228515625,5.1484375,10.2724609375l-1.2001953125,1.82421875c-2.5986328125-1.3994140625-4.3740234375-3.673828125-5.0234375-5.8232421875-.724609375,2.3491210938-2.474609375,4.673828125-5.19921875,6.1733398438-.4248046875-.5747070312-.7998046875-1.1748046875-1.19921875-1.7744140625,4.298828125-2.4497070312,5.1484375-5.8989257812,5.1484375-10.6723632812h-4.2734375v-2.0244140625Zm14.4208984375,19.3701171875v-21.4946289062h2.2998046875v21.4946289062h-2.2998046875Z"/><path class="cls-1" d="m53.3720703125,145.2075195312v-6.5234375h-4.1240234375c-1.349609375,2.0493164062-3.5498046875,3.6240234375-6.4990234375,4.6484375-.32421875-.6245117188-.6494140625-1.2495117188-.94921875-1.8745117188,4.0986328125-1.3247070312,6.7236328125-4.298828125,6.7236328125-7.5727539062h-5.82421875v-1.9995117188h8.0732421875v1.4243164062c0,1.224609375-.2001953125,2.3745117188-.599609375,3.3994140625h3.19921875v-6.048828125h2.19921875v14.546875h-2.19921875Zm-6.5986328125-.8999023438h2.2998046875v5.5483398438h11.771484375v2.0249023438h-13.021484375c-.650390625,0-1.0498046875-.2749023438-1.0498046875-.8999023438v-6.6733398438Zm11.322265625,1.2744140625v-15.1708984375h2.224609375v15.1708984375h-2.224609375Z"/><path class="cls-1" d="m69.474609375,147.20703125h8.6474609375v-4.19921875h-6.22265625v-1.9995117188h3.2236328125c-.349609375-.724609375-.5498046875-1.8745117188-.5498046875-2.8994140625v-2.6240234375h2.32421875v3.1489257812c0,.7250976562.1005859375,1.7495117188.2255859375,2.3745117188h4.298828125c.1494140625-.625.25-1.6494140625.25-2.3745117188v-3.1489257812h2.32421875v2.6240234375c0,1.0249023438-.2001953125,2.1748046875-.5498046875,2.8994140625h3.2490234375v1.9995117188h-6.248046875v4.19921875h8.6474609375v1.9995117188h-19.6201171875v-1.9995117188Zm2.6748046875-12.8471679688v-2.0244140625h14.2958984375v2.0244140625h-14.2958984375Z"/><path class="cls-1" d="m101.671875,151.2807617188v-10.6723632812h-3.8994140625c-1.19921875,2.599609375-3.298828125,4.6240234375-6.373046875,6.1733398438-.375-.599609375-.775390625-1.1997070312-1.125-1.7993164062,2.82421875-1.3999023438,4.7490234375-3.32421875,5.7490234375-5.7485351562-.6005859375.375-1.375.5498046875-2.3994140625.5498046875h-3.0244140625v-1.8994140625h5.873046875c.2255859375-.9501953125.375-2.099609375.375-3.2495117188h-5.673828125v-1.9995117188h7.923828125v1.5c0,1.6245117188-.2001953125,3.1240234375-.6005859375,4.4736328125h3.1748046875v-7.8232421875h2.19921875v20.4951171875h-2.19921875Zm4.7236328125.625v-21.4946289062h2.224609375v21.4946289062h-2.224609375Z"/><path class="cls-1" d="m111.197265625,147.3315429688h8.6474609375v-3.8237304688h-4.548828125c-.6494140625,0-1.0498046875-.25-1.0498046875-.875v-10.3974609375h13.5224609375v1.974609375h-11.22265625v2.69921875h10.7978515625v1.8745117188h-10.7978515625v2.7744140625h11.572265625v1.9497070312h-5.9482421875v3.8237304688h8.6474609375v2h-19.6201171875v-2Z"/><path class="cls-1" d="m134.67578125,150.255859375h-1.349609375v-2.9741210938h2.974609375v2.6245117188l-1.349609375,4.1489257812h-1.5l1.224609375-3.7993164062Z"/><path class="cls-1" d="m146.6259765625,146.1069335938c-.6494140625,0-1.0244140625-.2749023438-1.0244140625-.8994140625v-12.6220703125h9.97265625v13.521484375h-8.9482421875Zm6.69921875-11.5219726562h-5.4736328125v9.5224609375h5.4736328125v-9.5224609375Zm5.9482421875,17.3208007812v-21.4946289062h2.2998046875v7.6479492188h3.19921875v2.0244140625h-3.19921875v11.822265625h-2.2998046875Z"/><path class="cls-1" d="m164.8369140625,147.0317382812h19.6201171875v2.0244140625h-19.6201171875v-2.0244140625Zm5.3486328125-12.671875v6.0737304688h11.47265625v2.0244140625h-12.72265625c-.6494140625,0-1.0498046875-.25-1.0498046875-.875v-9.2475585938h13.5224609375v2.0244140625h-11.22265625Z"/><path class="cls-1" d="m200.61328125,151.9057617188v-7.0483398438c-1.82421875,1.1748046875-4.5986328125,1.4995117188-7.4482421875,1.4995117188h-5.5478515625c-.650390625,0-1.025390625-.2749023438-1.025390625-.8999023438v-7.1479492188h7.5732421875v-3.7744140625h-7.5732421875v-1.9990234375h9.84765625v7.748046875h-7.5478515625v4.0737304688h4.7734375c2.6494140625,0,5.2490234375-.25,6.9482421875-1.1997070312v-12.7465820312h2.2998046875v21.4946289062h-2.2998046875Z"/><path class="cls-1" d="m205.796875,147.0317382812h19.6201171875v2.0244140625h-19.6201171875v-2.0244140625Zm5.3486328125-12.671875v6.0737304688h11.47265625v2.0244140625h-12.72265625c-.6494140625,0-1.0498046875-.25-1.0498046875-.875v-9.2475585938h13.5224609375v2.0244140625h-11.22265625Z"/><path class="cls-1" d="m229.2763671875,150.255859375h-1.349609375v-2.9741210938h2.974609375v2.6245117188l-1.349609375,4.1489257812h-1.5l1.224609375-3.7993164062Z"/><path class="cls-1" d="m239.177734375,147.3818359375c2.1240234375-4.298828125,8.97265625-6.1733398438,8.97265625-10.1723632812,0-1.849609375-1.125-3.224609375-3.474609375-3.224609375-1.7744140625,0-2.94921875.9248046875-3.5234375,2.6743164062l-1.7998046875-.9497070312c.5751953125-1.7495117188,2.1494140625-3.8740234375,5.3984375-3.8740234375,3.599609375,0,5.7490234375,2.224609375,5.7490234375,5.298828125,0,5.2236328125-6.7734375,7.1733398438-8.2978515625,9.9477539062h8.572265625v2.0493164062h-11.5966796875v-1.7495117188Z"/><path class="cls-1" d="m252.732421875,140.6333007812c0-5.2236328125,2.44921875-8.7978515625,6.8984375-8.7978515625,4.4482421875,0,6.8984375,3.57421875,6.8984375,8.7978515625s-2.4501953125,8.7978515625-6.8984375,8.7978515625c-4.44921875,0-6.8984375-3.57421875-6.8984375-8.7978515625Zm11.447265625,0c0-3.8989257812-1.375-6.6484375-4.548828125-6.6484375-3.1748046875,0-4.548828125,2.7495117188-4.548828125,6.6484375,0,3.8994140625,1.3740234375,6.6484375,4.548828125,6.6484375,3.173828125,0,4.548828125-2.7490234375,4.548828125-6.6484375Z"/><path class="cls-1" d="m272.0380859375,134.7099609375l-3.6240234375,2.0493164062-.849609375-1.7993164062,4.9736328125-2.8247070312h1.75v16.99609375h-2.25v-14.4213867188Z"/><path class="cls-1" d="m278.21875,149.0561523438l7.22265625-14.87109375h-9.0224609375v-2.0498046875h11.572265625v1.724609375l-7.248046875,15.271484375h-2.5244140625v-.0751953125Z"/><rect class="cls-2" width="541.6689453125" height="153.3266601562"/></g></svg>